<svg xmlns="http://www.w3.org/2000/svg" width="16" height="14" viewBox="0 0 16 14" fill="none">
<path d="M12.2253 10.0009C12.1818 10.0008 12.1386 9.99259 12.0982 9.97677L8.67162 8.64395C8.60679 8.61995 8.55099 8.57735 8.51162 8.5218C8.47225 8.46625 8.45117 8.40037 8.45117 8.33291C8.45117 8.26544 8.47225 8.19956 8.51162 8.14401C8.55099 8.08846 8.60679 8.04586 8.67162 8.02186L12.0982 6.68904C12.1798 6.65704 12.2709 6.65704 12.3524 6.68904L15.779 8.02186C15.8438 8.04586 15.8996 8.08846 15.939 8.14401C15.9784 8.19956 15.9995 8.26544 15.9995 8.33291C15.9995 8.40037 15.9784 8.46625 15.939 8.5218C15.8996 8.57735 15.8438 8.61995 15.779 8.64395L12.3524 9.97677C12.312 9.99259 12.2689 10.0008 12.2253 10.0009ZM9.72214 8.33446L12.2253 9.31192L14.7285 8.33835L12.2253 7.36478L9.72214 8.33446Z" fill="#4B7BE5"/>
<path d="M12.2262 13.9999C12.1826 13.9998 12.1395 13.9916 12.0991 13.9758L8.67249 12.643C8.60861 12.6183 8.55389 12.5753 8.51552 12.5198C8.47715 12.4643 8.4569 12.3988 8.45743 12.332V8.33505C8.45519 8.28994 8.46239 8.24485 8.47859 8.20253C8.4948 8.1602 8.51967 8.12152 8.5517 8.08882C8.58374 8.05612 8.62226 8.03009 8.66494 8.01231C8.70762 7.99452 8.75357 7.98535 8.80001 7.98535C8.84644 7.98535 8.89239 7.99452 8.93508 8.01231C8.97776 8.03009 9.01628 8.05612 9.04831 8.08882C9.08035 8.12152 9.10522 8.1602 9.12142 8.20253C9.13763 8.24485 9.14483 8.28994 9.14259 8.33505V12.1088L12.2262 13.3086L15.3098 12.1088V8.33505C15.3075 8.28994 15.3147 8.24485 15.331 8.20253C15.3472 8.1602 15.372 8.12152 15.4041 8.08882C15.4361 8.05612 15.4746 8.03009 15.5173 8.01231C15.56 7.99452 15.6059 7.98535 15.6524 7.98535C15.6988 7.98535 15.7448 7.99452 15.7874 8.01231C15.8301 8.03009 15.8686 8.05612 15.9007 8.08882C15.9327 8.12152 15.9576 8.1602 15.9738 8.20253C15.99 8.24485 15.9972 8.28994 15.9949 8.33505V12.3343C15.9955 12.4012 15.9752 12.4667 15.9369 12.5222C15.8985 12.5777 15.8438 12.6206 15.7799 12.6453L12.3533 13.9782C12.3127 13.9932 12.2696 14.0006 12.2262 13.9999Z" fill="#4B7BE5"/>
<path d="M12.3236 14.0001C12.2326 14.0001 12.1453 13.965 12.081 13.9024C12.0166 13.8399 11.9805 13.755 11.9805 13.6665V9.66808C11.9847 9.58249 12.0227 9.50178 12.0865 9.44267C12.1503 9.38356 12.235 9.35059 12.3232 9.35059C12.4113 9.35059 12.496 9.38356 12.5598 9.44267C12.6236 9.50178 12.6616 9.58249 12.6658 9.66808V13.6673C12.6656 13.7555 12.6295 13.8401 12.5654 13.9024C12.5012 13.9648 12.4143 13.9999 12.3236 14.0001Z" fill="#4B7BE5"/>
<path d="M3.77415 10.0009C3.73058 10.0008 3.68744 9.99259 3.64703 9.97677L0.220447 8.64395C0.155618 8.61995 0.0998211 8.57735 0.0604516 8.5218C0.0210821 8.46625 0 8.40037 0 8.33291C0 8.26544 0.0210821 8.19956 0.0604516 8.14401C0.0998211 8.08846 0.155618 8.04586 0.220447 8.02186L3.64703 6.68904C3.72858 6.65704 3.81971 6.65704 3.90126 6.68904L7.32784 8.02186C7.39267 8.04586 7.44847 8.08846 7.48784 8.14401C7.52721 8.19956 7.54829 8.26544 7.54829 8.33291C7.54829 8.40037 7.52721 8.46625 7.48784 8.5218C7.44847 8.57735 7.39267 8.61995 7.32784 8.64395L3.90206 9.97677C3.86165 9.99259 3.81851 10.0008 3.77494 10.0009H3.77415ZM1.27097 8.33446L3.77415 9.31192L6.27732 8.33835L3.77415 7.36089L1.27097 8.33446Z" fill="#4B7BE5"/>
<path d="M3.77502 13.9999C3.73146 13.9998 3.68831 13.9916 3.6479 13.9758L0.22132 12.643C0.157435 12.6183 0.102722 12.5753 0.0643484 12.5198C0.0259743 12.4643 0.00572732 12.3988 0.00625913 12.332V8.33505C0.00401792 8.28994 0.0112179 8.24485 0.0274227 8.20253C0.0436275 8.1602 0.0684996 8.12152 0.100531 8.08882C0.132563 8.05612 0.171088 8.03009 0.21377 8.01231C0.256452 7.99452 0.302403 7.98535 0.348837 7.98535C0.395272 7.98535 0.441222 7.99452 0.483905 8.01231C0.526587 8.03009 0.565111 8.05612 0.597143 8.08882C0.629175 8.12152 0.654047 8.1602 0.670252 8.20253C0.686457 8.24485 0.693656 8.28994 0.691415 8.33505V12.1088L3.77502 13.3086L6.85862 12.1088V8.33505C6.85638 8.28994 6.86358 8.24485 6.87978 8.20253C6.89599 8.1602 6.92086 8.12152 6.95289 8.08882C6.98492 8.05612 7.02345 8.03009 7.06613 8.01231C7.10881 7.99452 7.15476 7.98535 7.2012 7.98535C7.24763 7.98535 7.29358 7.99452 7.33627 8.01231C7.37895 8.03009 7.41747 8.05612 7.4495 8.08882C7.48154 8.12152 7.50641 8.1602 7.52261 8.20253C7.53882 8.24485 7.54602 8.28994 7.54378 8.33505V12.3343C7.54431 12.4012 7.52406 12.4667 7.48569 12.5222C7.44731 12.5777 7.3926 12.6206 7.32872 12.6453L3.90293 13.9758C3.86227 13.9917 3.81885 13.9999 3.77502 13.9999Z" fill="#4B7BE5"/>
<path d="M3.67356 14.0001C3.58257 14.0001 3.49531 13.965 3.43097 13.9024C3.36662 13.8399 3.33048 13.755 3.33048 13.6665V9.66806C3.32824 9.62294 3.33544 9.57786 3.35165 9.53553C3.36786 9.49321 3.39274 9.45453 3.42478 9.42183C3.45682 9.38913 3.49536 9.3631 3.53805 9.34532C3.58075 9.32753 3.62671 9.31836 3.67316 9.31836C3.71961 9.31836 3.76558 9.32753 3.80827 9.34532C3.85097 9.3631 3.8895 9.38913 3.92155 9.42183C3.95359 9.45453 3.97847 9.49321 3.99468 9.53553C4.01089 9.57786 4.01809 9.62294 4.01585 9.66806V13.6673C4.01564 13.7555 3.97951 13.84 3.91536 13.9024C3.85122 13.9648 3.76428 13.9999 3.67356 14.0001Z" fill="#4B7BE5"/>
<path d="M7.99875 3.33584C7.95519 3.33573 7.91205 3.32755 7.87164 3.31173L4.44506 1.97891C4.38023 1.95491 4.32443 1.91231 4.28506 1.85676C4.24569 1.80121 4.22461 1.73534 4.22461 1.66787C4.22461 1.6004 4.24569 1.53452 4.28506 1.47897C4.32443 1.42342 4.38023 1.38083 4.44506 1.35682L7.87164 0.0239994C7.95319 -0.00799979 8.04432 -0.00799979 8.12587 0.0239994L11.5525 1.35682C11.6173 1.38083 11.6731 1.42342 11.7124 1.47897C11.7518 1.53452 11.7729 1.6004 11.7729 1.66787C11.7729 1.73534 11.7518 1.80121 11.7124 1.85676C11.6731 1.91231 11.6173 1.95491 11.5525 1.97891L8.12667 3.31173C8.08626 3.32755 8.04312 3.33573 7.99955 3.33584H7.99875ZM5.49558 1.66942L7.99875 2.64688L10.5019 1.67331L7.99875 0.695854L5.49558 1.66942Z" fill="#4B7BE5"/>
<path d="M7.99963 7.33441C7.95606 7.3343 7.91292 7.32612 7.87251 7.3103L4.44593 5.97748C4.38204 5.95273 4.32733 5.9098 4.28896 5.8543C4.25058 5.7988 4.23034 5.73332 4.23087 5.66644V1.66952C4.22863 1.62441 4.23583 1.57932 4.25203 1.537C4.26824 1.49468 4.29311 1.45599 4.32514 1.42329C4.35717 1.3906 4.3957 1.36457 4.43838 1.34678C4.48106 1.32899 4.52701 1.31982 4.57345 1.31982C4.61988 1.31982 4.66583 1.32899 4.70851 1.34678C4.7512 1.36457 4.78972 1.3906 4.82175 1.42329C4.85378 1.45599 4.87866 1.49468 4.89486 1.537C4.91107 1.57932 4.91827 1.62441 4.91602 1.66952V5.44326L7.99963 6.64311L11.0832 5.44326V1.66952C11.081 1.62441 11.0882 1.57932 11.1044 1.537C11.1206 1.49468 11.1455 1.45599 11.1775 1.42329C11.2095 1.3906 11.2481 1.36457 11.2907 1.34678C11.3334 1.32899 11.3794 1.31982 11.4258 1.31982C11.4722 1.31982 11.5182 1.32899 11.5609 1.34678C11.6036 1.36457 11.6421 1.3906 11.6741 1.42329C11.7061 1.45599 11.731 1.49468 11.7472 1.537C11.7634 1.57932 11.7706 1.62441 11.7684 1.66952V5.66799C11.7689 5.73487 11.7487 5.80035 11.7103 5.85585C11.6719 5.91135 11.6172 5.95429 11.5533 5.97903L8.12674 7.31186C8.08633 7.32767 8.04319 7.33585 7.99963 7.33596V7.33441Z" fill="#4B7BE5"/>
<path d="M8.00169 7.33508C7.9107 7.33508 7.82343 7.29993 7.75909 7.23737C7.69475 7.17481 7.6586 7.08996 7.6586 7.00149V3.00302C7.65636 2.9579 7.66356 2.91282 7.67977 2.8705C7.69598 2.82817 7.72086 2.78949 7.7529 2.75679C7.78495 2.72409 7.82348 2.69806 7.86618 2.68028C7.90887 2.66249 7.95484 2.65332 8.00129 2.65332C8.04774 2.65332 8.0937 2.66249 8.1364 2.68028C8.17909 2.69806 8.21763 2.72409 8.24967 2.75679C8.28171 2.78949 8.30659 2.82817 8.3228 2.8705C8.33901 2.91282 8.34621 2.9579 8.34397 3.00302V7.00226C8.34376 7.09047 8.30763 7.175 8.24349 7.23737C8.17934 7.29975 8.0924 7.33488 8.00169 7.33508Z" fill="#4B7BE5"/>
</svg>
