<svg width="8" height="13" viewBox="0 0 8 13" fill="none" xmlns="http://www.w3.org/2000/svg">
<path d="M5.39191 6.49866L0.758934 1.96106C0.677492 1.88168 0.612861 1.78731 0.568759 1.68336C0.524657 1.57942 0.501953 1.46795 0.501953 1.35537C0.501953 1.2428 0.524657 1.13133 0.568759 1.02738C0.612861 0.923436 0.677492 0.82906 0.758934 0.749681C0.923922 0.589719 1.14662 0.5 1.37869 0.5C1.61075 0.5 1.83345 0.589719 1.99844 0.749681L7.24727 5.88891C7.40586 6.04496 7.49699 6.25491 7.50172 6.47513C7.50645 6.69534 7.42442 6.90887 7.27267 7.07133L2.00207 12.2507C1.92092 12.3305 1.82453 12.3938 1.71842 12.4371C1.6123 12.4803 1.49853 12.5027 1.3836 12.5028C1.26867 12.503 1.15483 12.481 1.04858 12.438C0.942338 12.3951 0.845764 12.332 0.764377 12.2525C0.68299 12.1729 0.618384 12.0785 0.574246 11.9744C0.530109 11.8704 0.507305 11.7589 0.507137 11.6463C0.506797 11.4187 0.598676 11.2004 0.762563 11.0393L5.39191 6.49866Z" fill="#212121" fill-opacity="0.4"/>
</svg>
