
<svg width="80" height="40" viewBox="0 0 80 40" fill="none" xmlns="http://www.w3.org/2000/svg">
<rect width="80" height="40" rx="6" fill="white"/>
<rect x="0.5" y="0.5" width="79" height="39" rx="5.5" stroke="black" stroke-opacity="0.1"/>
<path d="M29.1604 25.168C28.7569 25.1685 28.3544 25.1219 27.9594 25.0291C27.5829 24.9445 27.2227 24.7849 26.8957 24.5578C26.5803 24.3342 26.3148 24.0313 26.1198 23.6729C25.9162 23.304 25.8427 22.7394 25.8391 22.7151C25.8174 22.5689 25.8545 22.4194 25.9404 22.3075C26.0263 22.1955 26.152 22.1327 26.283 22.1363H27.3594C27.6248 22.1428 27.8488 22.3614 27.893 22.6573C27.8993 22.6735 27.9181 22.7161 27.9648 22.8073C28.0359 22.9491 28.1339 23.0712 28.2518 23.1651C28.378 23.2628 28.5186 23.3342 28.667 23.3759C28.8327 23.4234 29.0029 23.4472 29.1738 23.4469C29.3054 23.4456 29.4364 23.429 29.5649 23.3972C29.6903 23.3673 29.8112 23.3168 29.9237 23.2472C30.0247 23.1843 30.112 23.0967 30.1793 22.9908C30.2463 22.8771 30.2793 22.7421 30.2735 22.6056C30.2735 22.5123 30.2735 22.2296 29.7954 22.0258C29.4294 21.8708 28.5926 21.6457 28.5846 21.6437C28.3899 21.592 28.0733 21.5049 27.8805 21.4511C27.8724 21.4511 27.6787 21.3944 27.4158 21.2981C27.1561 21.206 26.909 21.0729 26.6822 20.9028C26.4628 20.7394 26.2788 20.5221 26.144 20.2672C26.0009 19.9793 25.9295 19.6528 25.9377 19.3226C25.9377 18.7945 26.0274 18.3526 26.2176 18.0049C26.398 17.669 26.6507 17.3901 26.9521 17.194C27.2629 16.9935 27.6018 16.8547 27.954 16.7835C28.3229 16.7065 28.6973 16.6678 29.0725 16.668C29.4459 16.6673 29.8185 16.7087 30.1847 16.7916C30.5331 16.8675 30.867 17.0119 31.1712 17.2184C31.465 17.4236 31.7142 17.7007 31.9004 18.0292C32.0355 18.2932 32.1301 18.5811 32.1803 18.8807C32.2079 19.0253 32.1752 19.1762 32.0914 19.29C32.0078 19.4038 31.8824 19.4677 31.7516 19.4635H30.6752C30.4035 19.4556 30.1671 19.2511 30.0896 18.9567C30.0461 18.8109 29.9567 18.6882 29.8384 18.6121C29.5845 18.4713 29.3042 18.4017 29.0213 18.4093C28.9104 18.4098 28.7996 18.4172 28.6895 18.4316C28.5861 18.4426 28.4848 18.4714 28.389 18.5168C28.3098 18.5563 28.2398 18.6159 28.1845 18.6911C28.1298 18.7727 28.1031 18.8738 28.1092 18.9759C28.1049 19.1115 28.1574 19.2415 28.2509 19.3266C28.3813 19.446 28.5308 19.5358 28.6913 19.5912C28.9115 19.6735 29.1358 19.7411 29.3631 19.7939C29.6115 19.8527 29.877 19.9186 30.1523 19.9905C30.4291 20.0613 30.7025 20.1482 30.9712 20.2511C31.2331 20.3492 31.4806 20.4906 31.7058 20.6707C31.9239 20.8462 32.1054 21.0735 32.2377 21.3366C32.3812 21.6398 32.4516 21.9802 32.4422 22.3238C32.4757 23.2322 32.0737 24.0905 31.3901 24.57C31.068 24.7975 30.7112 24.9552 30.338 25.0352C29.9503 25.123 29.5558 25.1675 29.1604 25.168Z" fill="#1B1D1D"/>
<path d="M39.0737 25.1654C38.7657 25.1654 38.516 24.9078 38.516 24.59V20.9189C38.516 20.6914 38.4999 20.3227 38.4797 20.0974C38.4626 19.9042 38.3872 19.3497 38.2401 19.1108C38.069 18.8325 37.764 18.6954 37.3069 18.6954C36.7734 18.6954 36.4008 18.8491 36.1713 19.1648C35.98 19.4276 35.8753 20.1597 35.8512 20.4204C35.83 20.6468 35.8129 21.0144 35.8129 21.2408V24.5848C35.8129 24.9026 35.5632 25.1602 35.2552 25.1602H33.9464C33.6386 25.1596 33.3892 24.9024 33.3887 24.5848V14.4074C33.3892 14.0899 33.6386 13.8326 33.9464 13.832H35.2552C35.5632 13.832 35.8129 14.0896 35.8129 14.4074V17.7462L35.8381 17.714C35.8542 17.6933 36.2267 17.2114 36.6716 16.987C37.0724 16.7761 37.5145 16.6624 37.9643 16.6547C38.5502 16.6547 39.0415 16.7399 39.4221 16.9071C39.7847 17.0571 40.1027 17.3027 40.3442 17.6195C40.5767 17.9448 40.7369 18.3188 40.8134 18.7151C40.8717 19.0316 40.909 19.3519 40.9251 19.6737C40.9352 19.9063 40.9442 20.2844 40.9442 20.5169V24.5869C40.9437 24.9049 40.6937 25.1623 40.3855 25.1623L39.0737 25.1654Z" fill="#1B1D1D"/>
<path fill-rule="evenodd" clip-rule="evenodd" d="M42.833 15.3784C42.833 15.6961 43.0272 15.9537 43.2667 15.9537L44.2882 15.9506C44.5275 15.95 44.7214 15.6928 44.7219 15.3753V14.4074C44.7216 14.254 44.6754 14.107 44.5932 13.999C44.5111 13.891 44.3999 13.8309 44.2843 13.832H43.2667C43.0272 13.832 42.833 14.0896 42.833 14.4074V15.3784ZM42.8331 24.59C42.8331 24.9078 43.0272 25.1654 43.2668 25.1654L44.2882 25.1623C44.5276 25.1617 44.7215 24.9044 44.7219 24.5869V17.4471C44.7217 17.2937 44.6754 17.1467 44.5933 17.0388C44.5112 16.9308 44.4 16.8706 44.2843 16.8718H43.2668C43.0272 16.8718 42.8331 17.1294 42.8331 17.4471V24.59Z" fill="#1B1D1D"/>
<path fill-rule="evenodd" clip-rule="evenodd" d="M46.6113 27.4197C46.6113 27.7382 46.871 27.9966 47.1917 27.9971L48.5535 28.0013C48.8742 28.0007 49.1338 27.7423 49.1338 27.4238V24.4355L49.1684 24.474C49.3986 24.7232 49.6709 24.9306 49.9729 25.0869C50.4253 25.2981 50.9199 25.4048 51.4197 25.399C51.9812 25.4109 52.5373 25.2885 53.0413 25.0421C53.4932 24.8117 53.8884 24.4852 54.1988 24.0859C54.512 23.677 54.7454 23.2137 54.8871 22.7196C55.0372 22.2029 55.1127 21.6676 55.1113 21.1297C55.1129 20.5645 55.0375 20.0017 54.8871 19.4566C54.7495 18.9413 54.5138 18.4571 54.1926 18.03C53.8737 17.6185 53.4678 17.2814 53.0036 17.0426C52.4732 16.7829 51.8873 16.6547 51.296 16.6691C50.7995 16.6651 50.3083 16.7717 49.8588 16.9812C49.5475 17.1482 49.2715 17.3732 49.0459 17.644L49.0291 17.6648V17.4682C49.0291 17.1498 48.7693 16.8917 48.4487 16.8917H47.1917C46.8714 16.8923 46.6119 17.15 46.6113 17.4682V27.4197ZM49.9893 18.8468C50.2407 18.7048 50.5269 18.6353 50.8158 18.6459C51.1 18.6364 51.3812 18.706 51.6277 18.8468C51.8494 18.9828 52.0371 19.1671 52.1766 19.3858C52.327 19.6235 52.4334 19.886 52.4908 20.1609C52.5562 20.4601 52.5892 20.7653 52.5894 21.0714C52.5897 21.3775 52.5591 21.6828 52.4982 21.9829C52.4484 22.2517 52.3478 22.5088 52.2017 22.7404C52.0652 22.9533 51.8805 23.1315 51.6622 23.2607C50.9005 23.6529 49.9644 23.4315 49.4624 22.7404C49.3156 22.5075 49.2123 22.2502 49.1575 21.9808C49.0924 21.682 49.0597 21.3771 49.0601 21.0714C49.0596 20.7599 49.0898 20.449 49.1502 20.1433C49.2018 19.8722 49.3026 19.6127 49.4477 19.3775C49.5849 19.1617 49.7702 18.9801 49.9893 18.8468Z" fill="#1B1D1D"/>
<path fill-rule="evenodd" clip-rule="evenodd" d="M56.0557 27.4196C56.0557 27.7382 56.3152 27.9965 56.6358 27.9971L58.0013 28.0013C58.3219 28.0007 58.5814 27.7423 58.5814 27.4238V24.4354L58.616 24.4739C58.8458 24.7235 59.118 24.9309 59.4201 25.0868C59.872 25.298 60.366 25.4047 60.8653 25.3989C61.4287 25.4102 61.9867 25.286 62.4915 25.0369C62.9413 24.8061 63.3347 24.4796 63.6434 24.0806C63.9567 23.672 64.1899 23.2086 64.331 22.7144C64.4814 22.1977 64.5568 21.6624 64.5557 21.1245C64.5568 20.5594 64.4819 19.9966 64.3322 19.4514C64.1934 18.9378 63.9573 18.4554 63.6359 18.03C63.318 17.6183 62.9125 17.2812 62.4484 17.0426C61.9182 16.7831 61.3326 16.6549 60.7417 16.669C60.245 16.665 59.7537 16.7717 59.3039 16.9812C58.9921 17.1481 58.7155 17.3732 58.4893 17.644L58.4725 17.6648V17.4681C58.4719 17.15 58.2126 16.8922 57.8924 16.8917H56.6358C56.3154 16.8917 56.0557 17.1498 56.0557 17.4681V27.4196ZM59.4312 18.8467C59.6829 18.7049 59.9693 18.6353 60.2585 18.646C60.5436 18.6349 60.8262 18.7034 61.0742 18.8436C61.2941 18.9814 61.4798 19.1668 61.6176 19.3858C61.768 19.6235 61.8744 19.886 61.9318 20.1609C61.9968 20.4601 62.0294 20.7654 62.0292 21.0714C62.0293 21.3774 61.9991 21.6827 61.9391 21.9829C61.889 22.2517 61.7881 22.5088 61.6418 22.7404C61.1698 23.4697 60.2015 23.6969 59.4511 23.2544C59.2307 23.1287 59.0436 22.9524 58.9056 22.7404C58.7588 22.5075 58.6556 22.2501 58.6008 21.9808C58.5353 21.6821 58.5023 21.3772 58.5024 21.0714C58.5017 20.7598 58.5322 20.4489 58.5935 20.1433C58.6444 19.872 58.7452 19.6124 58.8909 19.3774C59.0275 19.1616 59.2124 18.98 59.4312 18.8467Z" fill="#1B1D1D"/>
<path fill-rule="evenodd" clip-rule="evenodd" d="M68.0021 24.8734C68.5593 25.0763 69.1492 25.176 69.7426 25.1675C70.3389 25.1757 70.9311 25.076 71.4905 24.8734C71.9966 24.6855 72.4562 24.3926 72.8371 24.0147C73.2168 23.6316 73.5098 23.1747 73.6986 22.6732C73.9054 22.1158 74.0074 21.5259 73.9995 20.9324C74.008 20.3365 73.9066 19.744 73.7008 19.1834C73.3296 18.1638 72.5225 17.3558 71.4928 16.9731C70.3661 16.5663 69.1288 16.5663 68.0021 16.9731C66.9757 17.3597 66.1721 18.1676 65.8014 19.1855C65.5946 19.7458 65.4926 20.3384 65.5005 20.9344C65.492 21.5279 65.594 22.1178 65.8014 22.6753C65.9902 23.1767 66.2837 23.6337 66.6629 24.0167C67.0421 24.393 67.4989 24.6851 68.0021 24.8734ZM68.3683 19.2939C68.6596 18.8265 69.1878 18.554 69.7438 18.5841V18.5872C70.039 18.5766 70.3315 18.6442 70.5911 18.7829C70.8121 18.9089 70.9986 19.0851 71.1363 19.2969C71.2791 19.5267 71.3783 19.7803 71.4287 20.0452C71.4877 20.338 71.5177 20.6358 71.5171 20.9344C71.5177 21.2302 71.4882 21.5254 71.4287 21.8154C71.3766 22.0799 71.2768 22.3332 71.1351 22.5637C71.0003 22.7747 70.8144 22.9491 70.5928 23.0706C70.3315 23.2059 70.039 23.2716 69.7438 23.2613C69.4519 23.272 69.1623 23.2066 68.9038 23.0717C68.6851 22.947 68.5009 22.7707 68.3683 22.5586C68.2266 22.3281 68.1268 22.0748 68.0747 21.8104C68.0152 21.5203 67.9857 21.2251 67.9857 20.9293C67.9857 20.6307 68.0157 20.333 68.0747 20.0401C68.1246 19.7756 68.2243 19.5227 68.3683 19.2939Z" fill="#1B1D1D"/>
<path fill-rule="evenodd" clip-rule="evenodd" d="M22.5816 14.7648C23.0627 15.1484 23.4377 15.6539 23.6696 16.2315C23.8819 16.7471 23.9733 17.3065 23.9365 17.8649C23.8981 18.395 23.7328 18.9073 23.4552 19.3565C23.1607 19.8247 22.7583 20.2113 22.2833 20.4824C22.0168 20.6228 21.7427 20.7476 21.4623 20.8563C21.2014 20.9681 20.9477 21.0925 20.6959 21.224C20.1125 21.5254 19.5534 21.862 19.0003 22.2121C18.3966 22.5943 17.8042 22.9921 17.2177 23.4064C16.79 23.7057 15.33 25.8871 14.603 26.9975C17.9273 26.8546 20.7404 24.4352 21.4532 21.1059L21.5483 21.0645C21.5994 21.0418 21.6511 21.0203 21.7043 20.9982C21.7215 20.991 21.739 20.9838 21.7565 20.9764C21.9743 20.8915 22.1864 20.7923 22.3915 20.6791C22.438 20.6522 22.4815 20.6243 22.526 20.5953C22.0244 24.55 18.9062 27.6157 15.0284 27.9667C11.1507 28.3178 7.55603 25.8598 6.38513 22.0565C5.21422 18.2532 6.78194 14.1274 10.1547 12.136C13.5275 10.1445 17.7983 10.8229 20.4239 13.7673H20.3228C20.1027 13.7673 19.8829 13.7853 19.6656 13.8212C19.5093 13.846 19.3547 13.8806 19.2025 13.9247C17.0734 11.961 14.0222 11.449 11.3928 12.6142C8.76335 13.7793 7.03824 16.4078 6.97723 19.342C7.84476 19.0602 9.35131 18.5506 9.52623 18.3662C9.89933 17.9726 10.2724 17.5759 10.6223 17.1616C10.7296 17.0411 10.8286 16.913 10.9185 16.7784C10.9461 16.7337 10.9688 16.6862 10.9863 16.6365C11.0411 16.4898 11.1186 16.353 11.2158 16.2315C11.1666 16.1092 11.127 15.9831 11.0975 15.8544C11.0507 15.7598 11.0167 15.6591 10.9964 15.5551C10.9341 15.2901 10.9119 15.0169 10.9307 14.7451C10.9468 14.5245 11.0126 14.1858 11.2926 14.1858C11.3859 14.2002 11.4736 14.2403 11.5464 14.3018C11.8307 14.4918 12.0937 14.713 12.331 14.9616H12.3573L13.2532 14.858C13.624 14.8022 13.999 14.7824 14.3735 14.799C14.5369 14.8146 14.698 14.8494 14.8537 14.9025C15.0155 14.9564 15.1793 15.002 15.3451 15.0393C15.6608 15.111 15.9834 15.1457 16.3067 15.1428C16.9278 15.1302 17.535 14.9517 18.068 14.6249C18.1385 14.5936 18.2091 14.5618 18.2797 14.5299C18.3842 14.4828 18.4888 14.4356 18.5938 14.3898C18.9491 14.2269 19.3226 14.1097 19.706 14.0408C20.0759 13.979 20.4527 13.9731 20.8243 14.0232C21.4633 14.1088 22.0692 14.3645 22.5816 14.7648ZM14.6735 17.3334C14.9372 17.4987 15.2719 17.4861 15.5229 17.3013C15.7615 17.1117 15.8517 16.785 15.7453 16.4955C15.6338 16.1969 15.3567 15.9974 15.0446 15.9911C14.7616 15.9843 14.5019 16.1465 14.3773 16.404C14.3905 16.3651 14.396 16.3496 14.3959 16.3496C14.3959 16.3496 14.3802 16.3937 14.3598 16.443C14.3653 16.4298 14.3711 16.4168 14.3773 16.404C14.3724 16.4186 14.3664 16.4366 14.3591 16.4582C14.3005 16.6332 14.3258 16.5643 14.3573 16.4784L14.3591 16.4737C14.3477 16.505 14.3389 16.5373 14.3328 16.5701C14.2828 16.872 14.4179 17.1747 14.6735 17.3334Z" fill="#1B1D1D"/>
</svg>