<svg width="45" height="43" viewBox="0 0 45 43" fill="none" xmlns="http://www.w3.org/2000/svg">
<path d="M36.0262 42.9985C38.513 42.9985 40.529 41.0191 40.529 38.5774C40.529 36.1357 38.513 34.1562 36.0262 34.1562C33.5394 34.1562 31.5234 36.1357 31.5234 38.5774C31.5234 41.0191 33.5394 42.9985 36.0262 42.9985Z" fill="#4B7BE5"/>
<path d="M11.2606 42.9985C13.7474 42.9985 15.7634 41.0191 15.7634 38.5774C15.7634 36.1357 13.7474 34.1562 11.2606 34.1562C8.77378 34.1562 6.75781 36.1357 6.75781 38.5774C6.75781 41.0191 8.77378 42.9985 11.2606 42.9985Z" fill="#4B7BE5"/>
<path d="M40.525 29.7373H11.257C9.45584 29.7373 8.33014 27.7478 9.45584 26.2004L13.5083 20.895L6.75417 1H0" stroke="#060B29" stroke-width="2" stroke-miterlimit="10"/>
<path d="M42.774 3.21484H7.65234L13.506 23.1099H35.7947C36.6953 23.1099 37.5958 22.6678 37.821 21.7835L44.8003 6.30963C45.4757 4.76224 44.35 3.21484 42.774 3.21484ZM27.0143 18.6888V14.2676H18.0087V12.0571H27.0143V7.63596L33.7685 13.1624L27.0143 18.6888Z" fill="#060B29"/>
</svg>
