
<svg width="42" height="42" viewBox="0 0 42 42" fill="none" xmlns="http://www.w3.org/2000/svg">
<path fill-rule="evenodd" clip-rule="evenodd" d="M7.00003 5.25014C7.96626 5.25014 8.75023 6.03411 8.75023 7.00003C8.75023 7.96626 7.96626 8.75023 7.00003 8.75023C6.03411 8.75023 5.25014 7.96626 5.25014 7.00003C5.25014 6.03411 6.03411 5.25014 7.00003 5.25014ZM12.25 5.25014C13.2162 5.25014 14.0002 6.03411 14.0002 7.00003C14.0002 7.96626 13.2162 8.75023 12.25 8.75023C11.2841 8.75023 10.5001 7.96626 10.5001 7.00003C10.5001 6.03411 11.2841 5.25014 12.25 5.25014ZM17.5 5.25014C18.4662 5.25014 19.2502 6.03411 19.2502 7.00003C19.2502 7.96626 18.4662 8.75023 17.5 8.75023C16.5341 8.75023 15.7501 7.96626 15.7501 7.00003C15.7501 6.03411 16.5341 5.25014 17.5 5.25014ZM42.0002 10.5001V1.7499C42.0002 0.783973 41.218 0 40.2503 0H1.7499C0.782248 0 0 0.783973 0 1.7499V10.5001H42.0002Z" fill="#060B29"/>
<path fill-rule="evenodd" clip-rule="evenodd" d="M0 29.7505H41.9999V14.0005H0V29.7505Z" fill="#060B29"/>
<path fill-rule="evenodd" clip-rule="evenodd" d="M0 33.25V40.2502C0 41.2161 0.782248 42.0001 1.7499 42.0001H40.2503C41.218 42.0001 42.0002 41.2161 42.0002 40.2502V33.25H0Z" fill="#4B7BE5"/>
</svg>
