<svg width="46" height="42" viewBox="0 0 46 42" fill="none" xmlns="http://www.w3.org/2000/svg">
<path d="M35.3958 26.0257V26.022L32.4146 18.4764L32.4086 18.4642C32.3903 18.4227 32.3692 18.3821 32.3456 18.3433C32.3312 18.3176 32.3202 18.2902 32.3045 18.2676C32.2815 18.2355 32.2565 18.2051 32.2298 18.1761C32.2098 18.1497 32.1884 18.1244 32.1657 18.1004C32.14 18.0767 32.1133 18.0544 32.0856 18.0338C32.0576 18.0068 32.0283 17.9815 31.9976 17.9582C31.9722 17.9406 31.9429 17.9277 31.9162 17.9129C31.8795 17.8909 31.8414 17.8707 31.8024 17.8527L31.7897 17.846C31.762 17.8345 31.7343 17.8301 31.7066 17.8217C31.6689 17.8082 31.6306 17.7973 31.5915 17.7886C31.5548 17.7821 31.5181 17.7774 31.4811 17.775C31.4454 17.7703 31.4097 17.7676 31.374 17.7666C31.3353 17.7666 31.2992 17.772 31.2582 17.7757C31.2172 17.7794 31.1901 17.7811 31.1564 17.7879C31.1154 17.797 31.075 17.8085 31.0356 17.8227C31.0096 17.8318 30.9826 17.8355 30.9566 17.846L30.9439 17.8527C30.9052 17.8703 30.8672 17.8902 30.8308 17.9125C30.8031 17.9277 30.7741 17.9406 30.7487 17.9578C30.7233 17.9754 30.692 18.0041 30.6636 18.0274C30.6353 18.0507 30.6062 18.0713 30.5805 18.097C30.5552 18.1227 30.5402 18.147 30.5192 18.1727C30.4925 18.2027 30.4674 18.2352 30.4444 18.2683C30.4287 18.2916 30.4174 18.319 30.4034 18.344C30.38 18.3835 30.3587 18.4247 30.3397 18.4666L30.3336 18.4788L27.3531 26.0243V26.0281L25.851 29.8301C25.7342 30.1108 25.7339 30.427 25.85 30.7081C25.9661 30.9888 26.1887 31.2108 26.4679 31.324C26.7472 31.4372 27.0595 31.4317 27.3351 31.3094C27.6103 31.1871 27.8255 30.9578 27.9323 30.673L29.1454 27.6027H33.6066L34.8198 30.673C34.9265 30.9578 35.1414 31.1871 35.4167 31.3094C35.6923 31.4317 36.0046 31.4372 36.2838 31.324C36.5631 31.2108 36.7856 30.9888 36.9017 30.7081C37.0175 30.427 37.0175 30.1108 36.9007 29.8301L35.3958 26.0257ZM30.0387 25.3301L31.3726 21.9541L32.7058 25.3301H30.0387Z" fill="#4B7BE5"/>
<path d="M40.4104 13.6216H28.3106V5.15337C28.3089 3.78715 27.7721 2.4774 26.8178 1.51117C25.8639 0.54495 24.57 0.00172973 23.2207 0H5.08985C3.74056 0.00168916 2.44671 0.544933 1.4928 1.51117C0.53855 2.4774 0.00172185 3.78715 1.35661e-05 5.15337V16.6336C-0.002322 17.6528 0.296965 18.6491 0.859452 19.494C2.65315 22.9903 10.9264 28.1591 11.0161 28.2118C11.1926 28.3186 11.3938 28.376 11.5989 28.3784C11.9723 28.3811 12.3223 28.1943 12.5312 27.8807C12.74 27.5676 12.7801 27.1689 12.6379 26.8196C12.0377 25.1811 11.5729 23.4955 11.2476 21.7794H17.1892V30.2551C17.1912 31.6206 17.7281 32.9297 18.6826 33.8946C19.6369 34.8594 20.9304 35.4013 22.279 35.401H34.2524C33.927 37.1172 33.4623 38.8027 32.8621 40.4411C32.7199 40.7905 32.76 41.1891 32.9688 41.5023C33.1777 41.8159 33.5277 42.0027 33.901 42C34.1062 41.9976 34.3074 41.9402 34.4839 41.8334C34.5737 41.7804 42.8472 36.6118 44.6405 33.1156C45.2031 32.2707 45.5024 31.2744 45.5 30.2552V18.775C45.4983 17.4087 44.9615 16.099 44.0072 15.1328C43.0533 14.1665 41.7597 13.6233 40.4104 13.6216ZM14.312 16.4668C12.872 17.309 11.2287 17.7283 9.56624 17.6776H9.54389C8.92497 17.6776 8.42283 17.1695 8.42283 16.5425C8.42283 15.9158 8.92497 15.4074 9.54389 15.4074H9.56624C10.5559 15.43 11.5397 15.2499 12.4586 14.8776C11.7062 13.9766 11.1147 12.9496 10.7099 11.8432C10.4871 11.258 10.7747 10.6006 11.3525 10.3749C11.9304 10.1492 12.5797 10.4408 12.8026 11.0259C13.1349 11.9638 13.6481 12.8256 14.3121 13.561C15.2276 12.4367 15.7991 11.0664 15.9563 9.61808H9.5439C8.92498 9.61808 8.42284 9.10997 8.42284 8.48295C8.42284 7.85626 8.92498 7.34781 9.5439 7.34781H13.0639L13.0642 5.35759C13.0642 4.7309 13.566 4.22246 14.1853 4.22246C14.8042 4.22246 15.3064 4.7309 15.3064 5.35759V7.34781H18.819C19.4379 7.34781 19.9401 7.85626 19.9401 8.48295C19.9401 9.10997 19.4379 9.61808 18.819 9.61808H18.2135C18.046 11.541 17.3263 13.3718 16.1432 14.8853C16.8725 15.1991 17.6533 15.3738 18.4454 15.3998C17.9055 16.0174 17.5254 16.7613 17.339 17.5639C16.2666 17.4116 15.2366 17.0381 14.312 16.4668ZM43.2581 30.2553C43.2641 30.8411 43.0859 31.4135 42.7496 31.8901C42.7052 31.9536 42.6675 32.0222 42.6375 32.0941C41.7557 33.7894 38.4448 36.3698 35.9335 38.1407C36.4343 36.1884 36.6882 34.5462 36.7032 34.4401C36.7533 34.1144 36.6609 33.7827 36.4493 33.532C36.2348 33.2816 35.9248 33.1357 35.5975 33.131H22.2789C21.5248 33.1316 20.8011 32.8289 20.2673 32.2898C19.7334 31.7506 19.4328 31.0188 19.4311 30.2553V18.7751C19.4321 18.011 19.7324 17.2782 20.2663 16.7376C20.8001 16.1971 21.5238 15.893 22.2788 15.892H40.4097C41.1647 15.893 41.8884 16.1971 42.4222 16.7376C42.956 17.2782 43.2563 18.011 43.2573 18.7751L43.2581 30.2553Z" fill="black"/>
</svg>
