<svg width="53" height="42" viewBox="0 0 53 42" fill="none" xmlns="http://www.w3.org/2000/svg">
<path fill-rule="evenodd" clip-rule="evenodd" d="M37.6219 28.4895C37.3527 30.1354 35.8964 31.3921 34.1398 31.3921C32.3832 31.3921 30.9264 30.1358 30.6577 28.4895H37.6219ZM34.1398 14.3865C40.279 14.3865 45.2574 19.2587 45.2574 25.2672C45.2574 31.2762 40.2791 36.1467 34.1398 36.1467C28.0002 36.1467 23.0212 31.2759 23.0212 25.2672C23.0212 19.259 27.9999 14.3865 34.1398 14.3865ZM31.8531 36.6809H38.1873V41.9999H31.8531V40.3345C28.4706 39.8466 25.443 38.2944 23.1351 36.0368C21.6348 34.5695 20.4402 32.803 19.6501 30.8376C14.4902 29.1181 14.4902 21.4189 19.6501 19.6982C21.9866 13.8844 27.7256 10.0376 34.1401 10.0376C40.5539 10.0376 46.293 13.8844 48.6291 19.6982C54.0652 21.5105 53.7334 29.8426 47.8999 31.0319L45.6642 31.4869C46.6825 28.5733 47.2769 25.8237 46.945 23.2072C46.1772 17.1377 40.2644 12.5895 34.1401 12.5895C22.7613 12.5895 16.7566 26.1863 24.9788 34.2312C26.8118 36.025 29.1914 37.2841 31.853 37.7476L31.8531 36.6809ZM42.6086 26.0912C34.9148 26.7475 31.7968 21.1132 31.7968 21.1132C31.7968 21.1132 29.399 24.455 25.6664 26.0324C26.0654 30.313 29.7433 33.5948 34.1409 33.5948C38.5144 33.5948 42.1819 30.3454 42.6086 26.0912Z" fill="#060B29"/>
<path d="M18.7102 7.25514C18.7102 3.24891 14.5212 0 9.35512 0C4.18805 0 0 3.24887 0 7.2552C0 11.2607 4.18815 14.5088 9.35512 14.5088C10.6289 14.5088 11.8442 14.3107 12.9517 13.9527L17.9171 16.2545L16.6172 11.8277C17.925 10.5803 18.7102 8.98839 18.7102 7.25514Z" fill="#4B7BE5"/>
<path d="M6.0097 7.1836C6.0097 6.19319 5.19008 5.39111 4.17801 5.39111C3.16679 5.39111 2.34717 6.19319 2.34717 7.1836C2.34717 8.17317 3.16677 8.97525 4.17801 8.97525C5.19008 8.97525 6.0097 8.17319 6.0097 7.1836Z" fill="white"/>
<path d="M11.1875 7.1836C11.1875 6.19319 10.3679 5.39111 9.35581 5.39111C8.34413 5.39111 7.52326 6.19319 7.52326 7.1836C7.52326 8.17317 8.34456 8.97525 9.35581 8.97525C10.3679 8.97525 11.1875 8.17319 11.1875 7.1836Z" fill="white"/>
<path d="M16.3636 7.1836C16.3636 6.19319 15.544 5.39111 14.5319 5.39111C13.5207 5.39111 12.7011 6.19319 12.7011 7.1836C12.7011 8.17317 13.5207 8.97525 14.5319 8.97525C15.544 8.97525 16.3636 8.17319 16.3636 7.1836Z" fill="white"/>
</svg>
