<svg width="53" height="43" viewBox="0 0 53 43" fill="none" xmlns="http://www.w3.org/2000/svg">
<path d="M49.6867 9H3.31245C1.48729 9 0 10.347 0 12.0001V39.001C0 40.657 1.48729 42.0011 3.31245 42.0011H49.6867C51.5152 42.0011 52.9991 40.657 52.9991 39.001V12.0001C52.9991 10.347 51.5152 9 49.6867 9Z" fill="#060B29"/>
<path d="M52.9991 14.998H0V23.9983H52.9991V14.998Z" fill="#4B7BE5"/>
<path d="M14.9061 33.0001H8.28122C7.36699 33.0001 6.625 32.3281 6.625 31.5C6.625 30.672 7.36699 30 8.28122 30H14.9061C15.8204 30 16.5623 30.672 16.5623 31.5C16.5623 32.3281 15.8204 33.0001 14.9061 33.0001Z" fill="#EDEDFF"/>
<path d="M52.9995 23.8385V12.0001C52.9995 10.347 51.5155 9 49.6871 9H23.1875V12.0001C23.1875 21.3964 27.1359 27.1176 37.2853 32.4097C38.0339 32.7968 38.8885 33.0008 39.7497 33.0008C40.611 33.0008 41.4656 32.7968 42.2241 32.4037C47.2458 29.7907 50.7437 27.0636 52.9995 23.8385Z" fill="#EDEDFF"/>
<path d="M51.9959 4.62165L40.4023 0.121504C39.9817 -0.0405013 39.5146 -0.0405013 39.0939 0.121504L27.5004 4.62165C26.8942 4.85566 26.5 5.39867 26.5 5.99869V11.9989C26.5 20.2521 29.8688 25.0763 38.925 29.8015C39.18 29.9335 39.4649 29.9995 39.7498 29.9995C40.0347 29.9995 40.3195 29.9335 40.5746 29.8015C49.6308 25.0883 52.9996 20.2641 52.9996 11.9989V5.99869C52.9996 5.39867 52.6054 4.85566 51.9959 4.62165Z" fill="#4B7BE5"/>
<path d="M38.0934 19.4957C38.0702 19.4957 38.0437 19.4957 38.0238 19.4957C37.4971 19.4747 37.0102 19.2286 36.7154 18.8296L33.4029 14.3295C32.8961 13.6395 33.1015 12.7094 33.8634 12.2504C34.6186 11.7944 35.6488 11.9744 36.1589 12.6674L38.2159 15.4605L43.4231 9.56233C43.9962 8.91731 45.0396 8.81531 45.7518 9.32833C46.4672 9.84734 46.5799 10.7894 46.0101 11.4374L39.3852 18.9376C39.0705 19.2886 38.5936 19.4957 38.0934 19.4957Z" fill="#EDEDFF"/>
</svg>
