<svg width="49" height="42" viewBox="0 0 49 42" fill="none" xmlns="http://www.w3.org/2000/svg">
<path d="M46.7665 0H2.23348C1.64113 0 1.07303 0.247451 0.654172 0.687914C0.235313 1.12838 0 1.72577 0 2.34868V18.6568C0.00139164 19.2788 0.237319 19.8748 0.656027 20.314C1.07474 20.7533 1.64204 21 2.23348 21H46.7665C47.3589 21 47.927 20.7526 48.3458 20.3121C48.7647 19.8716 49 19.2742 49 18.6513V2.34316C48.9986 1.72121 48.7627 1.12523 48.344 0.685958C47.9253 0.246689 47.358 -1.72166e-06 46.7665 0ZM19.4392 9.94736L17.1742 12.2629L17.6997 15.5345C17.7253 15.7133 17.704 15.8961 17.6382 16.0632C17.5724 16.2303 17.4645 16.3753 17.3261 16.4827C17.1878 16.5902 17.0242 16.6559 16.853 16.6728C16.6817 16.6898 16.5093 16.6573 16.3544 16.5789L13.5586 15.0316L10.7628 16.5789C10.6065 16.6652 10.4303 16.7037 10.2543 16.6901C10.0782 16.6766 9.9093 16.6115 9.76659 16.5023C9.62388 16.393 9.51309 16.244 9.44674 16.072C9.38039 15.9 9.36113 15.7119 9.39114 15.5289L9.91667 12.2574L7.68318 9.91974C7.5568 9.79008 7.46745 9.62582 7.42523 9.44554C7.38302 9.26526 7.38963 9.07615 7.44431 8.89962C7.499 8.72308 7.59957 8.56616 7.73466 8.44661C7.86975 8.32706 8.03396 8.24966 8.20871 8.22316L11.3093 7.73684L12.7072 4.75816C12.7852 4.59146 12.9061 4.45106 13.0561 4.35289C13.2061 4.25471 13.3792 4.20267 13.5559 4.20267C13.7326 4.20267 13.9058 4.25471 14.0558 4.35289C14.2058 4.45106 14.3266 4.59146 14.4047 4.75816L15.8026 7.73684L18.9294 8.21763C19.1042 8.24413 19.2684 8.32154 19.4035 8.44109C19.5386 8.56064 19.6391 8.71755 19.6938 8.89409C19.7485 9.07063 19.7551 9.25974 19.7129 9.44002C19.6707 9.6203 19.5813 9.78456 19.455 9.91421L19.4392 9.94736ZM39.22 13.2632H26.0818C25.4477 13.2632 24.8395 12.9982 24.391 12.5267C23.9426 12.0551 23.6907 11.4156 23.6907 10.7487C23.6907 10.0818 23.9426 9.44224 24.391 8.97068C24.8395 8.49913 25.4477 8.23421 26.0818 8.23421H39.2147C39.8489 8.23421 40.4571 8.49913 40.9055 8.97068C41.3539 9.44224 41.6059 10.0818 41.6059 10.7487C41.6059 11.4156 41.3539 12.0551 40.9055 12.5267C40.4571 12.9982 39.8489 13.2632 39.2147 13.2632H39.22Z" fill="#060B29"/>
<path d="M42 36.1435C42 36.7995 41.7293 37.4286 41.2475 37.8924C40.7657 38.3563 40.1123 38.6169 39.4309 38.6169H25.3565C25.0089 38.6333 24.6615 38.5816 24.3354 38.4648C24.0092 38.3481 23.7111 38.1688 23.459 37.9378C23.207 37.7068 23.0064 37.4288 22.8693 37.1209C22.7322 36.813 22.6615 36.4815 22.6615 36.1464C22.6615 35.8114 22.7322 35.4799 22.8693 35.172C23.0064 34.864 23.207 34.5861 23.459 34.3551C23.7111 34.1241 24.0092 33.9448 24.3354 33.828C24.6615 33.7113 25.0089 33.6596 25.3565 33.676H39.4309C40.1112 33.676 40.7637 33.9358 41.2453 34.3983C41.727 34.8609 41.9984 35.4885 42 36.1435ZM18.4583 34.3598C18.5181 34.5337 18.5255 34.7205 18.4796 34.8983C18.4337 35.0762 18.3364 35.2378 18.1989 35.3646L15.778 37.6418L16.3524 40.8584C16.3765 40.9985 16.3687 41.142 16.3296 41.279C16.2906 41.4159 16.221 41.5431 16.1259 41.6516C16.0308 41.7602 15.9123 41.8475 15.7787 41.9077C15.645 41.9678 15.4994 41.9993 15.3519 42C15.1862 42.0001 15.023 41.9613 14.8764 41.887L11.8873 40.3649L8.88594 41.8811C8.71842 41.9675 8.52901 42.0069 8.33937 41.9946C8.14972 41.9823 7.9675 41.9189 7.81353 41.8116C7.65956 41.7043 7.54006 41.5574 7.46869 41.3878C7.39732 41.2182 7.37696 41.0327 7.40995 40.8525L7.98429 37.6358L5.55724 35.3586C5.42142 35.2317 5.32528 35.0706 5.27974 34.8936C5.2342 34.7167 5.24108 34.5311 5.29959 34.3577C5.35811 34.1844 5.46593 34.0303 5.6108 33.9129C5.75568 33.7956 5.93182 33.7197 6.11923 33.6938L9.47263 33.2241L10.9733 30.2988C11.0564 30.1343 11.1859 29.9956 11.3469 29.8985C11.508 29.8015 11.6942 29.75 11.8842 29.75C12.0743 29.75 12.2605 29.8015 12.4215 29.8985C12.5826 29.9956 12.7121 30.1343 12.7952 30.2988L14.2958 33.2241L17.6492 33.6938C17.8353 33.721 18.0097 33.7977 18.1526 33.9154C18.2956 34.0331 18.4015 34.1871 18.4583 34.3598Z" fill="#4B7BE5"/>
</svg>
