<svg width="49" height="42" viewBox="0 0 49 42" fill="none" xmlns="http://www.w3.org/2000/svg">
<path d="M45.6841 24.3945H1.02104C0.457035 24.3945 0 24.8822 0 25.484V34.1475C0 34.7493 0.457035 35.2369 1.02104 35.2369H4.31752C4.31752 31.149 7.42925 27.8288 11.2703 27.8288C15.0919 27.8288 18.2231 31.149 18.2231 35.2369H30.7867C30.7867 31.149 33.8984 27.8288 37.7394 27.8288C41.561 27.8288 44.6922 31.149 44.6922 35.2369H47.979C48.5527 35.2369 49 34.7493 49 34.1475V27.9118C48.9708 25.9716 47.5025 24.3945 45.6841 24.3945Z" fill="#060B29"/>
<path d="M40.3657 2.71094H26.7816C26.1966 2.71094 25.7227 3.22405 25.7227 3.85725V21.6852H46.5477V11.1391C46.5477 10.888 46.4771 10.6478 46.3359 10.4404L41.2027 3.18038C41.001 2.88561 40.6985 2.71094 40.3657 2.71094ZM41.8381 11.7177V14.2942C41.8381 14.9274 41.3641 15.4405 40.7792 15.4405H31.4911C30.9062 15.4405 30.4322 14.9274 30.4322 14.2942V7.82022C30.4322 7.1761 30.9062 6.67391 31.4911 6.67391H38.026C38.3689 6.67391 38.6715 6.83767 38.8732 7.12152L41.6162 11.019C41.7675 11.2155 41.8381 11.4666 41.8381 11.7177Z" fill="#060B29"/>
<path d="M14.7023 0H11.0273V5.42121H14.7023V0Z" fill="#4B7BE5"/>
<path d="M2.28296 0C1.70158 0 1.23047 0.510104 1.23047 1.13959V21.6848H24.5055V1.13959C24.5055 0.510104 24.0344 0 23.453 0H16.8173V5.86077C16.8173 6.49026 16.3462 7.00036 15.7648 7.00036H9.97112C9.37973 7.00036 8.91864 6.49026 8.91864 5.86077V0H2.28296Z" fill="#4B7BE5"/>
<path d="M38.802 40.7452C41.4533 40.0526 43.0951 37.1132 42.469 34.1799C41.843 31.2466 39.1862 29.4302 36.5349 30.1228C33.8837 30.8155 32.2419 33.7549 32.8679 36.6881C33.494 39.6214 36.1508 41.4378 38.802 40.7452Z" fill="#060B29"/>
<path d="M12.2239 40.7452C14.8752 40.0526 16.517 37.1132 15.8909 34.1799C15.2649 31.2466 12.6081 29.4302 9.95681 30.1228C7.30553 30.8155 5.66376 33.7549 6.2898 36.6881C6.91584 39.6214 9.57263 41.4378 12.2239 40.7452Z" fill="#060B29"/>
</svg>
