<svg width="49" height="42" viewBox="0 0 49 42" fill="none" xmlns="http://www.w3.org/2000/svg">
<path d="M32.1641 9.95H39.327C38.0331 8.59077 33.5967 3.94373 32.178 2.46094L32.1641 9.95Z" fill="#060B29"/>
<path d="M10.336 39.4228C10.3329 40.102 10.5868 40.7548 11.042 41.2381C11.4973 41.7213 12.1167 41.9956 12.7644 42.0007H37.5414C38.1891 41.9956 38.8085 41.7213 39.2638 41.2381C39.719 40.7548 39.9729 40.102 39.9698 39.4228V36.416H10.336V39.4228Z" fill="#060B29"/>
<path d="M39.9699 10.9029H30.9839C30.8233 10.9019 30.6646 10.8678 30.5166 10.8025C30.3687 10.7372 30.2345 10.642 30.1216 10.5223C30.0087 10.4026 29.9195 10.2608 29.8589 10.1049C29.7983 9.94908 29.7676 9.78222 29.7685 9.61391V0H12.7692C12.1121 0.0233678 11.4898 0.31521 11.0352 0.81319C10.5806 1.31117 10.3296 1.97581 10.3361 2.66515V16.5845H39.9699V10.9029ZM22.5639 13.6625H16.7365C16.4105 13.6625 16.0978 13.5267 15.8673 13.285C15.6368 13.0433 15.5073 12.7154 15.5073 12.3735C15.5073 12.0317 15.6368 11.7038 15.8673 11.4621C16.0978 11.2204 16.4105 11.0846 16.7365 11.0846H22.5662C22.8923 11.0846 23.2049 11.2204 23.4355 11.4621C23.666 11.7038 23.7955 12.0317 23.7955 12.3735C23.7955 12.7154 23.666 13.0433 23.4355 13.285C23.2049 13.5267 22.8923 13.6625 22.5662 13.6625H22.5639ZM22.5639 8.16504H16.7365C16.4105 8.16504 16.0978 8.02924 15.8673 7.78751C15.6368 7.54578 15.5073 7.21793 15.5073 6.87608C15.5073 6.53422 15.6368 6.20637 15.8673 5.96464C16.0978 5.72292 16.4105 5.58712 16.7365 5.58712H22.5662C22.8923 5.58712 23.2049 5.72292 23.4355 5.96464C23.666 6.20637 23.7955 6.53422 23.7955 6.87608C23.7955 7.21793 23.666 7.54578 23.4355 7.78751C23.2049 8.02924 22.8923 8.16504 22.5662 8.16504H22.5639Z" fill="#060B29"/>
<rect y="17.7695" width="48.4614" height="17.7692" rx="1" fill="#4B7BE5"/>
<path d="M14.4141 26.5762H13.4062V21.8105H11.6719V20.9395H16.1523V21.8105H14.4141V26.5762ZM20.2188 26.5762L19.7422 25.1348H17.668L17.1836 26.5762H16.1641L18.1641 20.9395H19.2969L21.3008 26.5762H20.2188ZM18.6758 22.0137L17.9023 24.3379H19.5078L18.7422 22.0137H18.6758ZM21.9219 26.5762L23.7656 23.7363L21.9375 20.9395H23.1289L24.4141 23.0098H24.4805L25.7852 20.9395H26.918L25.0273 23.7598L26.8867 26.5762H25.7227L24.4141 24.5527H24.3477L23.0195 26.5762H21.9219Z" fill="white"/>
</svg>
