<svg width="103" height="22" viewBox="0 0 103 22" fill="none" xmlns="http://www.w3.org/2000/svg">
<path d="M1.24795 0.5H102.5V21.5H1.17017L11.3613 10.8456L11.7073 10.4839L11.3452 10.1383L1.24795 0.5Z" fill="#FFD700" stroke="#FFD700"/>
<path d="M20.8145 15H17.9189V7.9541H20.751C21.4118 7.9541 21.9294 8.11198 22.3037 8.42773C22.6813 8.74023 22.8701 9.16829 22.8701 9.71191C22.8701 10.0798 22.7513 10.4102 22.5137 10.7031C22.276 10.9928 21.9831 11.167 21.6348 11.2256V11.3086C22.11 11.3574 22.4925 11.5381 22.7822 11.8506C23.0752 12.1598 23.2217 12.5439 23.2217 13.0029C23.2217 13.6247 23.0085 14.113 22.582 14.4678C22.1556 14.8226 21.5664 15 20.8145 15ZM19.0127 8.88184V10.9375H20.3115C20.7933 10.9375 21.1579 10.8512 21.4053 10.6787C21.6559 10.5029 21.7812 10.2474 21.7812 9.91211C21.7812 9.58659 21.6673 9.33431 21.4395 9.15527C21.2148 8.97298 20.9007 8.88184 20.4971 8.88184H19.0127ZM19.0127 14.0723H20.5947C21.0863 14.0723 21.4606 13.9746 21.7178 13.7793C21.9749 13.584 22.1035 13.2992 22.1035 12.9248C22.1035 12.557 21.9701 12.2786 21.7031 12.0898C21.4362 11.8978 21.0456 11.8018 20.5312 11.8018H19.0127V14.0723ZM27.6211 10.8496C27.3867 10.599 27.0758 10.4736 26.6885 10.4736C26.3011 10.4736 25.9821 10.599 25.7314 10.8496C25.4808 11.1003 25.3408 11.4339 25.3115 11.8506H27.9971C27.984 11.4307 27.8587 11.097 27.6211 10.8496ZM27.9922 13.5645H29.0029C28.8825 14.043 28.6188 14.4189 28.2119 14.6924C27.8083 14.9658 27.3037 15.1025 26.6982 15.1025C25.9365 15.1025 25.3359 14.8584 24.8965 14.3701C24.4603 13.8786 24.2422 13.208 24.2422 12.3584C24.2422 11.5088 24.4635 10.8333 24.9062 10.332C25.349 9.83073 25.9447 9.58008 26.6934 9.58008C27.4323 9.58008 28.0117 9.81771 28.4316 10.293C28.8548 10.7682 29.0664 11.4242 29.0664 12.2607V12.627H25.3115V12.6855C25.3278 13.1543 25.4629 13.5254 25.7168 13.7988C25.9707 14.0723 26.3076 14.209 26.7275 14.209C27.3688 14.209 27.7904 13.9941 27.9922 13.5645ZM30.2041 11.1865C30.2041 10.7178 30.3978 10.3337 30.7852 10.0342C31.1725 9.73145 31.6673 9.58008 32.2695 9.58008C32.8685 9.58008 33.3519 9.71191 33.7197 9.97559C34.0876 10.2393 34.2975 10.6055 34.3496 11.0742H33.3438C33.2949 10.8757 33.1761 10.7194 32.9873 10.6055C32.8018 10.4915 32.5625 10.4346 32.2695 10.4346C31.9733 10.4346 31.7275 10.4997 31.5322 10.6299C31.3369 10.7568 31.2393 10.9229 31.2393 11.1279C31.2393 11.2874 31.3076 11.4193 31.4443 11.5234C31.5811 11.6276 31.7943 11.7122 32.084 11.7773L32.9678 11.9824C33.4788 12.0996 33.8532 12.2738 34.0908 12.5049C34.3317 12.736 34.4521 13.0452 34.4521 13.4326C34.4521 13.9274 34.2454 14.3294 33.832 14.6387C33.4186 14.9479 32.8913 15.1025 32.25 15.1025C31.6185 15.1025 31.1074 14.9691 30.7168 14.7021C30.3294 14.432 30.113 14.0609 30.0674 13.5889H31.1172C31.1855 13.7972 31.3174 13.96 31.5127 14.0771C31.708 14.1943 31.9619 14.2529 32.2744 14.2529C32.6032 14.2529 32.8717 14.1862 33.0801 14.0527C33.2884 13.9193 33.3926 13.7467 33.3926 13.5352C33.3926 13.2259 33.1322 13.0094 32.6113 12.8857L31.6836 12.6709C31.1758 12.5505 30.8014 12.3714 30.5605 12.1338C30.3229 11.8962 30.2041 11.5804 30.2041 11.1865ZM36.0488 8.35938H37.0986V9.70703H38.251V10.5908H37.0986V13.3252C37.0986 13.6019 37.1589 13.8053 37.2793 13.9355C37.3997 14.0625 37.5902 14.126 37.8506 14.126C37.9548 14.126 38.0882 14.1178 38.251 14.1016V14.9756C38.0426 15.0114 37.8522 15.0293 37.6797 15.0293C37.097 15.0293 36.6787 14.9186 36.4248 14.6973C36.1742 14.4759 36.0488 14.1081 36.0488 13.5938V10.5908H35.2041V9.70703H36.0488V8.35938ZM45.2334 15.1709C44.2536 15.1709 43.4788 14.8405 42.9092 14.1797C42.3395 13.5189 42.0547 12.6188 42.0547 11.4795C42.0547 10.3369 42.3379 9.43522 42.9043 8.77441C43.474 8.11361 44.2487 7.7832 45.2285 7.7832C46.0033 7.7832 46.6624 8.01107 47.2061 8.4668C47.7529 8.91927 48.0703 9.50521 48.1582 10.2246H47.0693C46.9652 9.79167 46.7471 9.44661 46.415 9.18945C46.0863 8.93229 45.6908 8.80371 45.2285 8.80371C44.597 8.80371 44.0957 9.0446 43.7246 9.52637C43.3568 10.0049 43.1729 10.6559 43.1729 11.4795C43.1729 12.2998 43.3568 12.9508 43.7246 13.4326C44.0957 13.9111 44.5986 14.1504 45.2334 14.1504C45.6989 14.1504 46.096 14.0332 46.4248 13.7988C46.7568 13.5645 46.9717 13.2487 47.0693 12.8516H48.1582C48.0605 13.5482 47.7448 14.1097 47.2109 14.5361C46.6771 14.9593 46.0179 15.1709 45.2334 15.1709ZM49.5254 15V7.60742H50.5654V10.5371H50.6484C50.7786 10.2344 50.9821 10 51.2588 9.83398C51.5387 9.66797 51.8757 9.58496 52.2695 9.58496C52.8392 9.58496 53.2868 9.75911 53.6123 10.1074C53.9378 10.4525 54.1006 10.9391 54.1006 11.5674V15H53.0508V11.8262C53.0508 11.403 52.9548 11.084 52.7627 10.8691C52.5706 10.6543 52.2874 10.5469 51.9131 10.5469C51.4899 10.5469 51.1611 10.6689 50.9268 10.9131C50.6924 11.1572 50.5752 11.4844 50.5752 11.8945V15H49.5254ZM57.8262 14.1699C58.2786 14.1699 58.6286 14.0104 58.876 13.6914C59.1266 13.3691 59.252 12.9183 59.252 12.3389C59.252 11.7627 59.1266 11.3151 58.876 10.9961C58.6286 10.6738 58.2786 10.5127 57.8262 10.5127C57.3704 10.5127 57.0189 10.6722 56.7715 10.9912C56.5241 11.3102 56.4004 11.7594 56.4004 12.3389C56.4004 12.9215 56.5241 13.3724 56.7715 13.6914C57.0189 14.0104 57.3704 14.1699 57.8262 14.1699ZM57.8262 15.1025C57.0449 15.1025 56.4313 14.8568 55.9854 14.3652C55.5394 13.8737 55.3164 13.1982 55.3164 12.3389C55.3164 11.4827 55.5394 10.8089 55.9854 10.3174C56.4346 9.82585 57.0482 9.58008 57.8262 9.58008C58.6009 9.58008 59.2113 9.82585 59.6572 10.3174C60.1064 10.8089 60.3311 11.4827 60.3311 12.3389C60.3311 13.1982 60.1081 13.8737 59.6621 14.3652C59.2161 14.8568 58.6042 15.1025 57.8262 15.1025ZM61.6152 15V9.68262H62.6602V15H61.6152ZM62.6211 8.56934C62.4941 8.68978 62.333 8.75 62.1377 8.75C61.9424 8.75 61.7796 8.68978 61.6494 8.56934C61.5225 8.44564 61.459 8.29264 61.459 8.11035C61.459 7.92806 61.5225 7.77507 61.6494 7.65137C61.7796 7.52767 61.9424 7.46582 62.1377 7.46582C62.333 7.46582 62.4941 7.52767 62.6211 7.65137C62.7513 7.77507 62.8164 7.92806 62.8164 8.11035C62.8164 8.29264 62.7513 8.44564 62.6211 8.56934ZM68.7051 11.4209H67.6846C67.6195 11.1507 67.4779 10.9326 67.2598 10.7666C67.0449 10.6006 66.7682 10.5176 66.4297 10.5176C65.9902 10.5176 65.6436 10.6771 65.3896 10.9961C65.139 11.3151 65.0137 11.7578 65.0137 12.3242C65.0137 12.8971 65.139 13.348 65.3896 13.6768C65.6436 14.0023 65.9902 14.165 66.4297 14.165C66.765 14.165 67.04 14.0902 67.2549 13.9404C67.473 13.7907 67.6162 13.5742 67.6846 13.291H68.7051C68.6367 13.8379 68.4023 14.2773 68.002 14.6094C67.6016 14.9382 67.0791 15.1025 66.4346 15.1025C65.6598 15.1025 65.0495 14.8568 64.6035 14.3652C64.1608 13.8704 63.9395 13.1901 63.9395 12.3242C63.9395 11.4714 64.1608 10.8008 64.6035 10.3125C65.0462 9.82422 65.6549 9.58008 66.4297 9.58008C67.0775 9.58008 67.5999 9.74935 67.9971 10.0879C68.3975 10.4264 68.6335 10.8708 68.7051 11.4209ZM73.0215 10.8496C72.7871 10.599 72.4762 10.4736 72.0889 10.4736C71.7015 10.4736 71.3825 10.599 71.1318 10.8496C70.8812 11.1003 70.7412 11.4339 70.7119 11.8506H73.3975C73.3844 11.4307 73.2591 11.097 73.0215 10.8496ZM73.3926 13.5645H74.4033C74.2829 14.043 74.0192 14.4189 73.6123 14.6924C73.2087 14.9658 72.7041 15.1025 72.0986 15.1025C71.3369 15.1025 70.7363 14.8584 70.2969 14.3701C69.8607 13.8786 69.6426 13.208 69.6426 12.3584C69.6426 11.5088 69.8639 10.8333 70.3066 10.332C70.7493 9.83073 71.3451 9.58008 72.0938 9.58008C72.8327 9.58008 73.4121 9.81771 73.832 10.293C74.2552 10.7682 74.4668 11.4242 74.4668 12.2607V12.627H70.7119V12.6855C70.7282 13.1543 70.8633 13.5254 71.1172 13.7988C71.3711 14.0723 71.708 14.209 72.1279 14.209C72.7692 14.209 73.1908 13.9941 73.3926 13.5645Z" fill="#212121"/>
<path d="M83.6835 9.84917C83.0835 9.42717 83.3877 8.5029 84.1275 8.50038L86.7636 8.49132C87.0944 8.49019 87.3868 8.28143 87.488 7.97423L88.2937 5.52625C88.5199 4.83932 89.5151 4.8359 89.7462 5.52126L90.5696 7.96364C90.673 8.27014 90.9669 8.4769 91.2977 8.47575L93.9338 8.46671C94.6736 8.46417 94.9845 9.38632 94.3875 9.81242L92.2603 11.331C91.9934 11.5215 91.8826 11.8581 91.9859 12.1646L92.8094 14.6069C93.0404 15.2923 92.2373 15.8656 91.6373 15.4436L89.4992 13.9397C89.2309 13.751 88.8685 13.7523 88.6015 13.9428L86.4743 15.4613C85.8774 15.8875 85.0701 15.3197 85.2962 14.6327L86.102 12.1848C86.2031 11.8776 86.0899 11.5418 85.8216 11.3531L83.6835 9.84917Z" fill="#212121"/>
<path fill-rule="evenodd" clip-rule="evenodd" d="M83.9425 4.10598C84.1988 3.92522 84.5568 3.98133 84.7422 4.23131L85.7489 5.58922C85.9342 5.83919 85.8767 6.18838 85.6204 6.36913C85.3641 6.5499 85.006 6.49377 84.8207 6.24379L83.814 4.88591C83.6286 4.63591 83.6862 4.28673 83.9425 4.10598ZM94.2771 4.18858C94.5245 4.38076 94.5653 4.73217 94.3683 4.97348L93.2979 6.28429C93.1009 6.5256 92.7406 6.56544 92.4932 6.37324C92.2457 6.18107 92.2049 5.82965 92.4019 5.58834L93.4723 4.27754C93.6693 4.03623 94.0297 3.9964 94.2771 4.18858ZM83.68 12.1662C83.8041 12.4499 83.6688 12.7781 83.3779 12.8991L81.7976 13.5567C81.5067 13.6777 81.1702 13.5458 81.0461 13.2621C80.922 12.9783 81.0572 12.6502 81.3481 12.5291L82.9285 11.8716C83.2194 11.7505 83.5558 11.8824 83.68 12.1662ZM94.3539 12.3903C94.4885 12.1111 94.8296 11.9912 95.1159 12.1224L96.6708 12.8353C96.957 12.9665 97.08 13.2992 96.9455 13.5784C96.8109 13.8576 96.4698 13.9775 96.1835 13.8463L94.6286 13.1334C94.3424 13.0022 94.2194 12.6695 94.3539 12.3903ZM88.9821 16.2072C89.2984 16.2073 89.5547 16.4575 89.5546 16.766L89.5537 18.4417C89.5536 18.7502 89.297 19.0002 88.9807 19C88.6644 18.9998 88.4081 18.7497 88.4083 18.4412L88.4091 16.7655C88.4093 16.457 88.6658 16.207 88.9821 16.2072Z" fill="#212121"/>
</svg>