<svg width="14" height="14" viewBox="0 0 14 14" fill="none" xmlns="http://www.w3.org/2000/svg">
<path d="M7.89216 4.32353C7.89216 4.8268 7.50327 5.21569 7 5.21569C6.49673 5.21569 6.10784 4.8268 6.10784 4.32353C6.10784 3.82026 6.49673 3.43137 7 3.43137C7.50327 3.43137 7.89216 3.84314 7.89216 4.32353ZM7 5.65033C6.65686 5.65033 6.35948 5.92484 6.35948 6.29085V9.95098C6.35948 10.2941 6.63399 10.5915 7 10.5915C7.34314 10.5915 7.64052 10.317 7.64052 9.95098V6.29085C7.64052 5.92484 7.34314 5.65033 7 5.65033ZM14 7C14 10.866 10.866 14 7 14C3.13399 14 0 10.866 0 7C0 3.13399 3.13399 0 7 0C10.866 0 14 3.13399 14 7ZM12.7418 7C12.7418 3.84314 10.1797 1.25817 7 1.25817C3.84314 1.25817 1.25817 3.82026 1.25817 7C1.25817 10.1797 3.84314 12.7418 7 12.7418C10.1569 12.7418 12.7418 10.1569 12.7418 7Z" fill="#212121" fill-opacity="0.3"/>
</svg>