<svg width="7" height="7" viewBox="0 0 7 7" fill="none" xmlns="http://www.w3.org/2000/svg">
    <path d="M3.91547 0.258229L4.46582 1.37332C4.6412 1.7286 4.98015 1.97492 5.37223 2.03185L6.60281 2.21066C6.98283 2.26588 7.13457 2.73286 6.85955 3.00087L5.96909 3.86886C5.68536 4.14544 5.55586 4.54389 5.6229 4.93441L5.83313 6.16002C5.89808 6.53848 5.50079 6.82711 5.16091 6.64838L4.06021 6.06972C3.70951 5.88531 3.29053 5.88531 2.93983 6.06972L1.83914 6.64838C1.49925 6.82703 1.10197 6.53848 1.16691 6.16002L1.37714 4.93441C1.44411 4.54389 1.31469 4.14544 1.03096 3.86886L0.140411 3.00095C-0.13453 2.73293 0.0171351 2.26596 0.397153 2.21074L1.62774 2.03193C2.01981 1.97492 2.35876 1.72868 2.53415 1.37339L3.0845 0.258307C3.25444 -0.0860892 3.74552 -0.0860893 3.91547 0.258229Z" fill="#4B7BE5"/>
</svg>
