<svg width="22" height="14" viewBox="0 0 22 14" fill="none" xmlns="http://www.w3.org/2000/svg">
<path d="M21.8205 1.79579L16.1298 7.08891C16.1198 7.09751 16.1118 7.10796 16.1063 7.1196C16.1009 7.13124 16.098 7.14381 16.098 7.15653C16.098 7.16924 16.1009 7.18182 16.1063 7.19346C16.1118 7.20509 16.1198 7.21554 16.1298 7.22414L20.112 11.0975C20.1759 11.155 20.2268 11.224 20.2616 11.3003C20.2963 11.3767 20.3142 11.4588 20.3142 11.5418C20.3142 11.6248 20.2963 11.7069 20.2616 11.7832C20.2268 11.8596 20.1759 11.9286 20.112 11.9861C19.9813 12.1039 19.8069 12.1697 19.6254 12.1697C19.444 12.1697 19.2696 12.1039 19.1389 11.9861L15.1726 8.12698C15.152 8.10837 15.1245 8.09797 15.0959 8.09797C15.0672 8.09797 15.0397 8.10837 15.0191 8.12698L14.0512 9.02527C13.2435 9.77374 12.1525 10.1933 11.0158 10.1927C9.85346 10.191 8.73916 9.75869 7.91658 8.99025L6.98575 8.12568C6.96514 8.10707 6.93762 8.09667 6.90899 8.09667C6.88035 8.09667 6.85283 8.10707 6.83223 8.12568L2.86632 11.9861C2.73561 12.1039 2.56122 12.1697 2.37976 12.1697C2.1983 12.1697 2.02391 12.1039 1.8932 11.9861C1.82926 11.9286 1.77839 11.8596 1.74364 11.7832C1.7089 11.7069 1.69098 11.6248 1.69098 11.5418C1.69098 11.4588 1.7089 11.3767 1.74364 11.3003C1.77839 11.224 1.82926 11.155 1.8932 11.0975L5.8754 7.22414C5.8933 7.2056 5.90321 7.18151 5.90321 7.15653C5.90321 7.13154 5.8933 7.10745 5.8754 7.08891L0.179864 1.79579C0.165552 1.78148 0.146956 1.77155 0.126512 1.7673C0.106068 1.76305 0.0847287 1.76468 0.0652891 1.77197C0.0458496 1.77926 0.0292161 1.79187 0.0175672 1.80816C0.00591823 1.82444 -0.00020301 1.84364 5.13741e-06 1.86324V12.4544C0.00676082 12.8689 0.188501 13.2641 0.505547 13.5537C0.822593 13.8432 1.24919 14.0037 1.69221 13.9999H20.3078C20.7508 14.0037 21.1774 13.8432 21.4945 13.5537C21.8115 13.2641 21.9932 12.8689 22 12.4544V1.86324C21.9992 1.84413 21.9925 1.82565 21.9807 1.81003C21.9689 1.79441 21.9525 1.78231 21.9336 1.77518C21.9146 1.76805 21.8938 1.76621 21.8738 1.76986C21.8537 1.77352 21.8352 1.78252 21.8205 1.79579Z" fill="#111156"/>
<path d="M10.9983 9.31923C11.3851 9.31956 11.7679 9.24566 12.123 9.10208C12.478 8.95851 12.7979 8.74832 13.0627 8.4845L21.3452 0.356724C21.0525 0.126777 20.6826 0.000502712 20.3004 8.62992e-07H1.70144C1.31895 -0.000381031 0.948668 0.125996 0.65625 0.356724L8.93878 8.4845C9.20308 8.74773 9.52214 8.95758 9.87633 9.10113C10.2305 9.24468 10.6123 9.3189 10.9983 9.31923Z" fill="#97C0FF"/>
</svg>
