<svg width="76" height="76" viewBox="0 0 76 76" fill="none" xmlns="http://www.w3.org/2000/svg">
<circle cx="38" cy="38" r="38" fill="#F8F8F8"/>
<path d="M25.4701 26.6059H51.4936C51.6419 26.6059 51.784 26.6631 51.887 26.7644L52.2028 27.0728V23.5241C52.2028 23.2344 51.9566 23 51.6527 23H25.3427C25.0388 23 24.7926 23.2344 24.7926 23.5241V27.0392L25.0779 26.7626C25.182 26.6625 25.3229 26.6059 25.4701 26.6059Z" fill="#4B7BE5"/>
<path d="M51.6199 38.0308C50.3906 37.876 49.3373 37.1821 48.7317 36.2061C48.0412 37.317 46.7712 38.0631 45.3217 38.0631C43.8717 38.0631 42.6011 37.317 41.9117 36.2061C41.2212 37.317 39.9517 38.0631 38.5017 38.0631C37.0517 38.0631 35.7816 37.317 35.0917 36.2061C34.4018 37.317 33.1317 38.0631 31.6817 38.0631C30.2322 38.0631 28.9616 37.317 28.2717 36.2061C27.6786 37.1616 26.6547 37.8486 25.4565 38.0208C25.2624 38.0488 25.0638 38.0631 24.8617 38.0631C24.6908 38.0631 24.5227 38.0525 24.3574 38.0326V51.4763C24.3574 51.7661 24.6036 52.0004 24.907 52.0004H52.1695C52.4734 52.0004 52.7196 51.7661 52.7196 51.4763V38.0227C52.5311 38.05 52.3381 38.0631 52.1417 38.0631C51.9651 38.0631 51.7908 38.0525 51.6199 38.0308ZM40.7888 46.3429C40.7888 46.632 40.5426 46.867 40.2393 46.867H28.2061C27.9021 46.867 27.6559 46.632 27.6559 46.3429V40.0003C27.6559 39.7112 27.9021 39.4762 28.2061 39.4762H40.2387C40.5421 39.4762 40.7883 39.7112 40.7883 40.0003V46.3429H40.7888ZM49.2813 48.5954C49.2813 48.8845 49.0351 49.1195 48.7317 49.1195H43.2757C42.9718 49.1195 42.7256 48.8845 42.7256 48.5954V40.0003C42.7256 39.7112 42.9718 39.4762 43.2757 39.4762H48.7317C49.0351 39.4762 49.2813 39.7112 49.2813 40.0003V48.5954Z" fill="#4B7BE5"/>
<path d="M54.1813 30.5042L51.2631 27.6543H47.1875L49.0739 30.5042H54.1813Z" fill="#4B7BE5"/>
<path d="M45.9259 27.7146C45.9135 27.6953 45.9016 27.6754 45.892 27.6543H41.7383L42.3671 30.5042H47.7721L45.9259 27.7146Z" fill="#4B7BE5"/>
<path d="M36.3827 27.6543L35.7539 30.5042H41.2473L40.6185 27.6543H36.3827Z" fill="#4B7BE5"/>
<path d="M35.259 27.6543H31.1059C31.0974 27.6717 31.0878 27.6891 31.077 27.7065L29.2959 30.5042H34.6302L35.259 27.6543Z" fill="#4B7BE5"/>
<path d="M29.822 27.6543H25.7011L22.7598 30.5042H28.0081L29.822 27.6543Z" fill="#4B7BE5"/>
<path d="M27.7203 34.2876V31.5527H22V34.2876C22 35.7915 23.2831 37.015 24.8599 37.015C26.4372 37.015 27.7203 35.7915 27.7203 34.2876Z" fill="#4B7BE5"/>
<path d="M28.8154 34.2876C28.8154 35.7915 30.0985 37.015 31.6759 37.015C33.2532 37.015 34.5363 35.7915 34.5363 34.2876V31.5527H28.8154V34.2876Z" fill="#4B7BE5"/>
<path d="M35.6426 34.2876C35.6426 35.7915 36.9256 37.015 38.503 37.015C40.0804 37.015 41.3635 35.7915 41.3635 34.2876V31.5527H35.6426V34.2876Z" fill="#4B7BE5"/>
<path d="M45.3224 37.015C46.8997 37.015 48.1828 35.7915 48.1828 34.2876V31.5527H42.4619V34.2876C42.4619 35.7915 43.745 37.015 45.3224 37.015Z" fill="#4B7BE5"/>
<path d="M49.2793 31.5527V34.2876C49.2793 35.7915 50.5624 37.015 52.1397 37.015C53.7171 37.015 54.9996 35.7915 54.9996 34.2876V31.5527H49.2793Z" fill="#4B7BE5"/>
</svg>
