<svg width="52" height="52" viewBox="0 0 52 52" fill="none" xmlns="http://www.w3.org/2000/svg">
<circle cx="26" cy="26" r="26" fill="#E8E8E8"/>
<path d="M35.4286 26.7324C34.56 26.7324 33.8572 27.3885 33.8572 28.1992V34.0662H18.1428V28.1992C18.1428 27.3884 17.4399 26.7324 16.5714 26.7324C15.703 26.7324 15 27.3885 15 28.1992L15.0002 35.5333C15.0002 36.344 15.7031 37 16.5716 37H35.4286C36.2972 37 37 36.3439 37 35.5333V28.1992C37 27.3886 36.2971 26.7324 35.4286 26.7324H35.4286Z" fill="#4B7BE5"/>
<path d="M20.8271 23.3692L24.4304 20.0059V29.6657C24.4304 30.4764 25.1334 31.1324 26.0018 31.1324C26.8703 31.1324 27.5732 30.4763 27.5732 29.6657V20.0059L31.1765 23.3692C31.4834 23.6556 31.8855 23.7989 32.2874 23.7989C32.6894 23.7989 33.0917 23.6556 33.3986 23.3692C34.0124 22.7963 34.0124 21.868 33.3986 21.2951L27.1148 15.4298C26.9694 15.2936 26.7953 15.1858 26.6018 15.1111C26.2178 14.963 25.7858 14.963 25.4018 15.1111C25.2082 15.1856 25.0341 15.2936 24.8887 15.4298L18.6049 21.2951C17.9911 21.868 17.9911 22.7963 18.6049 23.3692C19.2189 23.9421 20.2132 23.9421 20.827 23.3692H20.8271Z" fill="#4B7BE5"/>
</svg>
