<svg width="52" height="52" viewBox="0 0 52 52" fill="none" xmlns="http://www.w3.org/2000/svg">
<circle cx="26" cy="26" r="26" fill="#E8E8E8"/>
<path d="M34.1364 13H24.4285C24.0168 12.9991 23.6098 13.088 23.2353 13.2605C22.9242 13.4066 22.6402 13.6055 22.3954 13.8485L16.8399 19.4606C16.5994 19.7079 16.4025 19.9948 16.2578 20.3091C16.0872 20.6875 15.9992 21.0986 16 21.5144V37.1072C16 37.8745 16.3017 38.6102 16.8386 39.1528C17.3758 39.6952 18.104 40 18.8636 40H34.1364C34.896 40 35.6242 39.6952 36.1614 39.1528C36.6983 38.6102 37 37.8745 37 37.1072V15.8929C37 15.1256 36.6983 14.3899 36.1614 13.8473C35.6242 13.3049 34.896 13.0001 34.1364 13.0001L34.1364 13ZM22.6819 16.298V18.7857C22.6819 19.0414 22.5813 19.2868 22.4024 19.4676C22.2234 19.6484 21.9805 19.75 21.7274 19.75H19.2647L22.6819 16.298ZM33.1819 33.25H19.8183V31.3215H33.1819V33.25ZM33.1819 29.3929H19.8183V27.4644H33.1819V29.3929ZM33.1819 25.5358H19.8183V23.6072H33.1819V25.5358Z" fill="#4B7BE5"/>
</svg>
