<svg id="Layer_1" data-name="Layer 1" xmlns="http://www.w3.org/2000/svg" viewBox="0 0 73.43 40.77">
    <defs>
        <style>.cls-1{fill:#f16141;}</style>
    </defs>
    <path class="cls-1"
          d="M101.53,49.25v9.94a.49.49,0,0,1-.49.49H97.92a.49.49,0,0,0-.49.48,42.31,42.31,0,0,1-1.35,8.77,38.44,38.44,0,0,1-4.24,10,21.58,21.58,0,0,1-7.91,7.67,23,23,0,0,1-11.65,2.92c-6.29,0-10.59-1.68-12.87-5a.5.5,0,0,0-.74-.09,18.83,18.83,0,0,1-12.82,5.13q-9.89,0-13.59-4.2-2.47-2.8-2.47-8.32a35.32,35.32,0,0,1,.66-6.42l1.83-10.31a.5.5,0,0,0-.49-.59H28.6a.5.5,0,0,1-.5-.49V49.25a.51.51,0,0,1,.5-.5H47.72a.5.5,0,0,1,.49.59L44.45,70.66a11,11,0,0,0-.25,2.22q0,4.7,4.86,4.7a5.57,5.57,0,0,0,5.1-2.93c1.16-1.94,2.14-5.36,3-10.25l2.73-15.24a.49.49,0,0,1,.48-.41h13a.51.51,0,0,1,.49.59L70.06,70.66a11,11,0,0,0-.25,2.22q0,4.7,4.86,4.7,8.56,0,8.56-18a72.84,72.84,0,0,0-.65-9.3l-.16-1a.5.5,0,0,1,.49-.58H101a.5.5,0,0,1,.49.5"
          transform="translate(-28.1 -48.75)"/>
</svg>
