<svg width="8" height="13" viewBox="0 0 8 13" fill="none" xmlns="http://www.w3.org/2000/svg">
<path d="M5.39142 5.99866L0.758446 1.46106C0.677003 1.38168 0.612373 1.28731 0.568271 1.18336C0.524169 1.07942 0.501465 0.967949 0.501465 0.855372C0.501465 0.742795 0.524169 0.631329 0.568271 0.527382C0.612373 0.423436 0.677003 0.32906 0.758446 0.249681C0.923434 0.0897193 1.14613 0 1.3782 0C1.61026 0 1.83296 0.0897193 1.99795 0.249681L7.24678 5.38891C7.40537 5.54496 7.4965 5.75491 7.50123 5.97513C7.50596 6.19534 7.42393 6.40887 7.27218 6.57133L2.00158 11.7507C1.92043 11.8305 1.82404 11.8938 1.71793 11.9371C1.61181 11.9803 1.49804 12.0027 1.38311 12.0028C1.26818 12.003 1.15434 11.981 1.0481 11.938C0.941849 11.8951 0.845276 11.832 0.763889 11.7525C0.682502 11.6729 0.617896 11.5785 0.573758 11.4744C0.529621 11.3704 0.506817 11.2589 0.506649 11.1463C0.506308 10.9187 0.598188 10.7004 0.762075 10.5393L5.39142 5.99866Z" fill="#212121" fill-opacity="0.6"/>
</svg>
