<svg width="224" height="145" viewBox="0 0 224 145" fill="none" xmlns="http://www.w3.org/2000/svg">
    <path d="M79 23C84.5228 23 89 18.5228 89 13C89 7.47715 84.5228 3 79 3C73.4772 3 69 7.47715 69 13C69 18.5228 73.4772 23 79 23Z"
          fill="#F1F1F1"/>
    <path fill-rule="evenodd" clip-rule="evenodd"
          d="M51.663 39.0842L11.8906 100.71H97.377L57.6046 39.0842C56.2841 37.0383 52.9835 37.0383 51.663 39.0842Z"
          fill="white" stroke="#E1E4E5"/>
    <path fill-rule="evenodd" clip-rule="evenodd"
          d="M118.275 17.4995L64.5967 100.71H179.971L126.293 17.4995C124.511 14.7371 120.056 14.7371 118.275 17.4995Z"
          fill="white" stroke="#E1E4E5"/>
    <path fill-rule="evenodd" clip-rule="evenodd"
          d="M166.56 37.207L124.694 100.71H214.68L172.814 37.207C171.424 35.099 167.95 35.099 166.56 37.207Z"
          fill="white" stroke="#E1E4E5"/>
    <path d="M42.7432 91.723L51.116 97.1154L59.3831 91.723L51.116 70.8936L42.7432 91.723Z" fill="white"
          stroke="#E1E4E5"/>
    <path d="M46.085 89.4036L51.2794 93.1057M51.2292 86.3306V100.71V86.3306Z" stroke="#E1E4E5"/>
    <path d="M82.915 91.723L91.2879 97.1154L99.555 91.723L91.2879 70.8936L82.915 91.723Z" fill="white"
          stroke="#E1E4E5"/>
    <path d="M86.2568 89.4036L91.4513 93.1057M91.4011 86.3306V100.71V86.3306Z" stroke="#E1E4E5"/>
    <path d="M105.412 91.723L113.785 97.1154L122.052 91.723L113.785 70.8936L105.412 91.723Z" fill="white"
          stroke="#E1E4E5"/>
    <path d="M108.753 89.4036L113.947 93.1057M113.897 86.3306V100.71V86.3306Z" stroke="#E1E4E5"/>
    <path d="M127.908 89.6007L138.258 96.2662L148.476 89.6007L138.258 63.854L127.908 89.6007Z" fill="white"
          stroke="#E1E4E5"/>
    <path d="M131.95 86.8576L138.371 91.4333M138.246 82.9355V100.71V82.9355Z" stroke="#E1E4E5"/>
    <path d="M165.188 93.3656L172.03 97.7724L178.786 93.3656L172.03 76.3438L165.188 93.3656Z" fill="white"
          stroke="#E1E4E5"/>
    <path d="M167.986 91.3746L172.231 94.3999M172.239 88.9585V100.71V88.9585Z" stroke="#E1E4E5"/>
    <path d="M194.434 93.3656L201.276 97.7724L208.032 93.3656L201.276 76.3438L194.434 93.3656Z" fill="white"
          stroke="#E1E4E5"/>
    <path d="M54.3128 118.985H33.1019M201.485 88.9585V100.71V88.9585ZM197.232 91.3746L201.477 94.3999L197.232 91.3746ZM0 100.71H224H0ZM0 109.366H68.7748H0ZM81.6298 109.366H124.373H81.6298ZM134.657 109.366H155.868H134.657ZM169.687 109.366H190.898H169.687ZM15.4261 127H84.2009H15.4261ZM97.056 127H139.799H97.056ZM150.083 127H171.294H150.083ZM185.113 127H206.324H185.113ZM224 118.985H155.225H224ZM142.37 118.985H99.627H142.37ZM89.3429 118.985H68.132H89.3429Z"
          stroke="#E1E4E5"/>
    <path fill-rule="evenodd" clip-rule="evenodd"
          d="M193.317 14.8539C196.4 14.8539 194.958 9.97775 191.052 11.1425C190.836 4.37154 179.774 -0.582216 175.199 8.54975C173.906 7.52892 171.002 9.4574 171.645 11.1425C170.208 11.2647 169.078 11.4304 168.199 11.6501C166.168 12.1569 166.57 14.8312 168.663 14.8126L193.317 14.8539ZM71.7638 43.0677C74.8465 43.0677 73.4042 38.1915 69.4991 39.3563C69.2828 32.5853 58.22 27.6316 53.6459 36.7635C52.3523 35.7427 49.4481 37.6712 50.0914 39.3563C48.6546 39.4784 47.5246 39.6442 46.645 39.8638C44.6149 40.3707 45.0166 43.0449 47.1094 43.0263L71.7638 43.0677ZM142.301 23.2315H158.891C160.374 23.2315 161.013 21.3011 159.799 20.4447C159.782 20.4325 159.765 20.4204 159.748 20.4085C158.02 19.2146 155.752 19.3229 155.752 19.3229C155.752 19.3229 155.428 12.8626 149.326 12.8626C143.809 12.8626 141.608 18.3059 140.815 21.3046C140.557 22.2789 141.298 23.2315 142.301 23.2315ZM214.71 26.9695H201.16C199.948 26.9695 199.426 25.4174 200.417 24.7291L200.459 24.6999C201.871 23.74 203.723 23.8272 203.723 23.8272C203.723 23.8272 203.988 18.6336 208.972 18.6336C213.478 18.6336 215.275 23.0096 215.923 25.4206C216.134 26.2039 215.529 26.9695 214.71 26.9695ZM111.127 11.3689H127.717C129.2 11.3689 129.84 9.43848 128.626 8.58213L128.574 8.5459C126.846 7.35195 124.578 7.46031 124.578 7.46031C124.578 7.46031 124.254 1 118.152 1C112.635 1 110.435 6.44333 109.641 9.44201C109.384 10.4163 110.124 11.3689 111.127 11.3689ZM25.6192 20.5573H14.2373C13.2195 20.5573 12.7811 19.2441 13.6138 18.6615L13.6492 18.6368C14.8347 17.8247 16.3909 17.8984 16.3909 17.8984C16.3909 17.8984 16.6129 13.5038 20.7998 13.5038C24.585 13.5038 26.0945 17.2066 26.6389 19.2466C26.8157 19.9093 26.3076 20.5573 25.6192 20.5573ZM33.0324 29.0025H49.6226C51.1057 29.0025 51.7449 27.0721 50.5311 26.2157C50.5141 26.2035 50.4969 26.1914 50.4797 26.1795C48.7516 24.9855 46.4833 25.0939 46.4833 25.0939C46.4833 25.0939 46.1597 18.6336 40.0574 18.6336C34.5403 18.6336 32.3402 24.0769 31.5467 27.0756C31.2889 28.0499 32.0297 29.0025 33.0324 29.0025ZM135.652 42.396H113.397C111.595 42.396 110.818 40.121 112.293 39.1114L112.355 39.0687C114.455 37.6612 117.21 37.7892 117.21 37.7892C117.21 37.7892 117.604 30.1756 125.018 30.1756C128.684 30.1756 131.646 36.2858 131.646 36.2858C131.646 36.2858 136.633 36.2858 137.458 40.1248C137.708 41.288 136.871 42.396 135.652 42.396ZM31.2044 42.5053H8.94904C7.14708 42.5053 6.36999 40.2303 7.84511 39.2207L7.90746 39.178C10.007 37.7706 12.7628 37.8985 12.7628 37.8985C12.7628 37.8985 13.1565 30.2849 20.5707 30.2849C24.2363 30.2849 27.1988 36.3951 27.1988 36.3951C27.1988 36.3951 32.1849 36.3951 33.0102 40.2341C33.26 41.3973 32.4234 42.5053 31.2044 42.5053ZM156.204 43.1757H205.545C210.176 43.1757 209.964 39.3515 208.451 38.019C206.9 36.6532 203.836 37.2072 203.836 37.2072C203.836 37.2072 202.924 34.635 199.922 33.3827C197.266 32.275 194.484 32.802 194.484 32.802C194.484 32.802 194.484 31.0364 192.784 29.5745C191.083 28.1121 188.816 28.2545 188.816 28.2545C188.816 28.2545 187.257 18.5198 176.842 18.5198C166.427 18.5198 165.222 27.6857 165.222 27.6857C165.222 27.6857 162.884 27.6857 161.184 29.249C159.483 30.8123 159.27 32.5885 159.27 32.5885C159.27 32.5885 153.584 31.82 151.902 36.7398C150.899 39.6721 152.959 43.1757 156.204 43.1757Z"
          fill="white" stroke="#E1E4E5"/>
    <path d="M108.847 145C91.6585 145 77.7246 143.771 77.7246 142.255C77.7246 140.739 91.6585 139.51 108.847 139.51C126.035 139.51 139.969 140.739 139.969 142.255C139.969 143.771 126.035 145 108.847 145Z"
          fill="#212121" fill-opacity="0.1"/>
    <path d="M84.8029 127.429C85.0745 130.76 87.8485 133.328 91.1901 133.328H128.167C139.485 133.328 149.113 126.296 152.672 116.481C152.787 116.17 152.894 115.855 152.992 115.538C152.996 115.532 152.996 115.524 152.997 115.519C153.281 114.361 153.044 113.465 152.133 112.913C152.038 112.865 151.944 112.815 151.851 112.761C144.834 108.856 141.083 96.0052 143.271 86.7214V86.718C143.375 86.2768 143.492 85.8427 143.623 85.4192C144.17 83.2034 144.459 80.8927 144.459 78.5149C144.459 72.8629 142.826 67.5792 139.995 63.0877H139.993C135.502 55.9637 127.992 50.8305 119.194 49.3673C120.612 47.9613 121.143 44.2826 118.395 43.4403C116.443 43.0944 114.943 44.1029 114.367 46.8422C112.856 44.108 109.241 45.9429 111.832 49.0163C96.0414 50.1059 83.5801 62.8954 83.5801 78.5149C83.5801 82.2539 84.2946 85.8305 85.5968 89.1219C87.9817 97.3854 83.5611 112.197 84.8029 127.429Z"
          fill="#41589C"/>
    <path d="M128.166 132.714H127.984C130.689 131.726 132.564 129.966 133.276 127.67C133.595 126.642 133.646 125.584 133.454 124.604C140.497 123.461 145.137 120.119 147.376 114.577C139.578 110.447 134.009 104.549 133.834 94.3763C133.785 91.5644 134.834 88.9245 136.373 86.5707C141.879 78.1465 141.212 69.3106 140.498 65.3003C140.79 65.7991 141.068 66.3078 141.33 66.8239C142.952 70.4117 143.845 74.3712 143.845 78.5148C143.845 80.7933 143.571 83.0609 143.031 85.2546C142.9 85.6798 142.779 86.1248 142.673 86.5771C142.67 86.5866 142.668 86.5965 142.667 86.6066C141.584 91.2243 141.896 96.8125 143.523 101.944C145.233 107.335 148.084 111.368 151.544 113.293C151.64 113.348 151.735 113.399 151.832 113.449C152.256 113.711 152.693 114.169 152.402 115.367C152.31 115.663 152.207 115.966 152.095 116.272C148.528 126.106 138.912 132.714 128.166 132.714Z"
          fill="#2D3D8F"/>
    <path d="M141.33 66.8242C141.068 66.3081 140.79 65.7994 140.498 65.3006C140.483 65.2148 140.467 65.1307 140.452 65.0493C140.765 65.6302 141.058 66.2213 141.33 66.8242Z"
          fill="#767EB5"/>
    <path d="M85.4458 111.204C83.2819 119.394 91.8482 128.849 106.405 127.879C132.808 123.382 127.046 103.61 114.13 102.671C101.72 101.201 99.602 93.519 106.174 92.6831C116.784 92.6834 121.595 87.8362 123.21 80.3171C124.42 63.195 106.433 58.0066 99.8614 65.3568C96.748 61.1197 89.9116 60.4567 86.2325 66.4261C86.2325 66.4261 81.4504 75.2663 84.8385 86.9531C86.8806 93.7306 86.6184 102.144 85.4458 111.204Z"
          fill="#F2E9F2"/>
    <path d="M93.4195 62.1476C93.3144 62.1476 93.2089 62.15 93.1031 62.1541C90.3668 62.2653 87.953 63.7984 86.306 66.4706C86.2609 66.5547 81.5825 75.4126 84.9214 86.9288C86.7126 92.8741 86.9062 100.591 85.5311 111.215L85.5291 111.226C84.6501 114.553 85.5681 118.186 88.0483 121.194C91.8765 125.837 98.7381 128.304 106.399 127.793C112.827 126.698 117.732 124.651 120.97 121.71C124.432 118.564 125.031 115.266 124.925 113.054C124.663 107.612 120.02 103.185 114.124 102.757C106.471 101.85 102.456 98.5312 102.444 95.7213C102.436 94.0627 103.827 92.8952 106.164 92.5981C115.804 92.5974 121.349 88.5746 123.127 80.2989C123.68 72.458 120.142 66.1335 113.662 63.3928C108.565 61.2378 102.917 62.0686 99.9257 65.4136L99.8551 65.4923L99.7927 65.4075C98.2817 63.3508 95.9177 62.1476 93.4195 62.1476ZM104.428 128.03C97.5156 128.03 91.4442 125.582 87.9164 121.303C85.4019 118.254 84.471 114.567 85.3619 111.187C86.7332 100.592 86.541 92.8986 84.7572 86.9773C81.3977 75.3903 86.11 66.4737 86.1578 66.3852C87.8381 63.6587 90.3014 62.0968 93.0963 61.9832C95.7322 61.8767 98.2566 63.0853 99.8684 65.222C102.925 61.8879 108.605 61.0686 113.729 63.2352C116.689 64.4875 119.144 66.5764 120.829 69.2774C122.764 72.381 123.594 76.0973 123.296 80.323C121.497 88.701 115.896 92.7683 106.175 92.7683H106.174C103.943 93.0532 102.608 94.157 102.615 95.7206C102.627 98.4552 106.589 101.691 114.141 102.586C120.118 103.02 124.83 107.517 125.096 113.045C125.204 115.295 124.596 118.646 121.085 121.836C117.823 124.8 112.889 126.861 106.419 127.963C105.75 128.008 105.084 128.03 104.428 128.03Z"
          fill="#000072"/>
    <path d="M104.402 127.332C103.112 127.332 101.854 127.245 100.638 127.075C101.731 127.21 102.871 127.281 104.057 127.281C104.724 127.281 105.406 127.258 106.101 127.212C107.223 127.021 108.288 126.802 109.296 126.559C109.302 126.594 109.308 126.63 109.314 126.665C108.379 126.886 107.386 127.088 106.332 127.268C105.682 127.311 105.038 127.332 104.402 127.332Z"
          fill="#F9F5F9"/>
    <path d="M112.414 46.1212C112.397 46.1212 112.379 46.1219 112.361 46.1226C112.016 46.1385 111.736 46.3179 111.612 46.6021C111.395 47.0972 111.653 47.8521 112.301 48.6208C112.45 48.7975 112.487 49.0433 112.397 49.2563C112.307 49.4693 112.105 49.6134 111.874 49.6293C96.3526 50.7002 84.1941 63.3884 84.1941 78.5152C84.1941 82.0938 84.8581 85.5866 86.1677 88.8964C86.1748 88.9147 86.1813 88.933 86.1867 88.952C87.4577 93.356 86.8581 99.4444 86.1636 106.494C85.5349 112.877 84.8225 120.112 85.4149 127.379C85.6587 130.371 88.1952 132.714 91.1899 132.714H128.167C138.912 132.714 148.528 126.107 152.095 116.272C152.207 115.967 152.31 115.663 152.402 115.367C152.694 114.169 152.256 113.711 151.832 113.45C151.736 113.4 151.64 113.348 151.545 113.294C148.084 111.368 145.233 107.336 143.524 101.944C141.897 96.8129 141.585 91.2247 142.667 86.607C142.668 86.5969 142.67 86.587 142.673 86.5775C142.779 86.1252 142.9 85.6802 143.032 85.255C143.571 83.0613 143.845 80.7936 143.845 78.5152C143.845 64.363 133.435 52.3595 119.093 49.9735C118.866 49.9359 118.679 49.7738 118.609 49.554C118.539 49.3343 118.598 49.0939 118.762 48.9318C119.43 48.2692 119.962 46.7896 119.657 45.5542C119.468 44.7878 118.995 44.2782 118.25 44.0387C116.541 43.7532 115.437 44.7387 114.968 46.969C114.915 47.2199 114.712 47.4119 114.458 47.4499C114.205 47.4878 113.954 47.3644 113.83 47.1399C113.475 46.4983 112.949 46.1212 112.414 46.1212ZM128.167 133.943H91.1899C87.5604 133.943 84.4861 131.103 84.1907 127.479C83.5891 120.101 84.3077 112.808 84.9415 106.373C85.6217 99.4648 86.2098 93.4967 85.0144 89.3203C83.6552 85.8745 82.9658 82.2393 82.9658 78.5152C82.9658 70.8262 85.9405 63.5017 91.3419 57.8914C96.4696 52.5654 103.32 49.2529 110.731 48.4947C110.274 47.6432 110.182 46.8072 110.486 46.1104C110.797 45.3989 111.494 44.9333 112.304 44.8957C112.954 44.8662 113.579 45.0988 114.102 45.5454C114.892 43.4511 116.451 42.4731 118.502 42.8359C118.527 42.8403 118.551 42.8461 118.575 42.8536C119.748 43.213 120.556 44.0676 120.85 45.2602C121.139 46.4339 120.895 47.8609 120.278 48.9416C127.023 50.2859 133.168 53.8146 137.668 58.9495C142.443 64.3983 145.073 71.3467 145.073 78.5152C145.073 80.8988 144.786 83.2712 144.22 85.5663C144.217 85.5782 144.213 85.5897 144.21 85.6012C144.087 85.997 143.974 86.4114 143.874 86.8336C143.873 86.8434 143.871 86.8529 143.868 86.8627C141.646 96.2931 145.67 108.618 152.149 112.224C152.241 112.277 152.325 112.322 152.411 112.366C152.424 112.373 152.437 112.38 152.45 112.388C153.223 112.855 154.048 113.802 153.595 115.659C153.589 115.686 153.582 115.713 153.573 115.738C153.475 116.051 153.366 116.373 153.249 116.693C149.508 127.01 139.427 133.943 128.167 133.943Z"
          fill="#000072"/>
    <path d="M81.8285 120.804C84.2083 121.77 86.6035 121.833 89.0129 122.374C90.7545 122.767 92.503 123.05 94.2603 123.225C100.274 123.83 106.375 123.189 112.557 121.404C115.962 122.139 119.753 123.263 116.249 117.059C117.875 112.561 118.997 108.093 118.345 103.728V103.726C117.066 103.152 115.647 102.782 114.13 102.671C108.413 101.993 104.879 99.9975 103.375 97.9604V97.9587C101.614 95.5734 102.631 93.1332 106.175 92.6835C110.397 92.6835 113.7 91.9158 116.249 90.5166C116.244 84.4719 113.646 85.0806 109.847 88.7732C104.739 87.213 98.8484 86.997 92.4942 87.5799C90.7027 87.7423 88.8745 87.9706 87.0169 88.249C86.2403 87.7562 85.5105 87.3188 84.8394 86.9536C83.2673 86.0993 82.0204 85.6463 81.2733 85.8036L81.135 85.8416L81.1312 85.8433C80.2357 86.158 80.2234 87.5555 81.4826 90.5166C77.6621 96.1496 77.771 105.513 78.6289 115.589C75.4292 120.314 76.9875 122.997 81.8285 120.804Z"
          fill="white"/>
    <path d="M104.406 128.56C98.009 128.56 92.3217 126.512 88.5807 122.81C88.3396 122.571 88.3375 122.183 88.5763 121.941C88.8146 121.7 89.2036 121.698 89.4444 121.937C93.3231 125.775 99.4773 127.717 106.332 127.268C121.461 124.682 123.961 117.597 124.335 114.669C124.881 110.382 122.373 106.21 118.094 104.288C118.081 104.282 118.068 104.276 118.056 104.269C116.812 103.717 115.477 103.385 114.086 103.283C114.076 103.283 114.067 103.282 114.058 103.281C106.103 102.338 101.928 98.7656 101.915 95.7231C101.907 93.801 103.509 92.4025 106.097 92.0739C106.123 92.0705 106.149 92.0688 106.174 92.0688C110.135 92.0688 113.425 91.3652 115.953 89.9775C119.416 88.0802 121.591 84.8919 122.601 80.2305C123.123 72.6337 119.707 66.5233 113.456 63.8799C108.564 61.8113 103.162 62.5869 100.32 65.766C100.196 65.9041 100.017 65.98 99.8324 65.9702C99.6476 65.9614 99.4766 65.8695 99.3668 65.7203C97.8964 63.7188 95.5623 62.5831 93.1248 62.6825C90.5695 62.7863 88.308 64.2302 86.7562 66.7478C86.5782 67.0367 86.1998 67.1262 85.9112 66.9485C85.6223 66.7705 85.5327 66.392 85.7104 66.1035C87.4833 63.2271 90.0985 61.5763 93.0749 61.4553C95.6827 61.3494 98.1867 62.4505 99.9053 64.4282C101.473 62.9246 103.562 61.9595 105.993 61.6235C108.559 61.2691 111.379 61.6682 113.934 62.7486C116.995 64.043 119.535 66.2042 121.277 68.9978C123.273 72.198 124.13 76.0208 123.823 80.3604C123.821 80.3892 123.817 80.4177 123.811 80.4462C122.725 85.4999 120.348 88.9697 116.544 91.0546C113.841 92.5378 110.366 93.2924 106.214 93.2971C104.285 93.5521 103.138 94.4555 103.143 95.718C103.152 97.6638 106.158 101.105 114.189 102.059C115.732 102.174 117.215 102.546 118.596 103.166C118.61 103.172 118.624 103.178 118.636 103.185C123.388 105.338 126.166 110.01 125.553 114.824C125.145 118.025 122.473 125.765 106.508 128.484C106.487 128.487 106.466 128.49 106.445 128.491C105.759 128.537 105.078 128.56 104.406 128.56Z"
          fill="#000072"/>
    <path d="M98.8359 124.087C93.2829 124.087 87.9111 123.01 82.4812 120.844C79.2207 123.035 77.6889 122.35 77.0595 121.731C75.8718 120.563 76.2437 118.103 77.9989 115.427C77.1969 105.909 77.0062 96.3373 80.7897 90.4517C79.6941 87.7866 79.593 86.2629 80.4557 85.5318C81.4846 84.6603 83.4311 85.2609 87.1525 87.6075C96.6042 86.2087 103.782 86.3593 109.679 88.0823C112.086 85.8011 113.806 84.9882 115.079 85.5254C116.294 86.0381 116.861 87.6241 116.863 90.5164C116.863 90.8555 116.589 91.1305 116.25 91.1309H116.249C115.91 91.1309 115.635 90.8562 115.635 90.5174C115.633 87.537 114.986 86.8194 114.601 86.657C114.16 86.4705 113.01 86.5546 110.274 89.2136C110.114 89.3692 109.882 89.4258 109.667 89.3604C103.839 87.5814 96.6713 87.421 87.1081 88.8561C86.9612 88.8775 86.812 88.8463 86.6872 88.7669C82.2571 85.9479 81.3805 86.3582 81.2499 86.4688C81.1879 86.5214 80.6853 87.0734 82.0475 90.2763C82.1292 90.4686 82.1079 90.689 81.9909 90.8616C78.202 96.4475 78.4299 106.022 79.2407 115.537C79.2525 115.677 79.2163 115.816 79.1373 115.933C77.5221 118.319 77.305 120.25 77.9209 120.856C78.3834 121.311 79.7429 121.268 82.0523 119.648C82.2232 119.529 82.4429 119.504 82.6362 119.582C92.2771 123.499 101.73 123.89 112.386 120.814C112.483 120.785 112.586 120.782 112.686 120.803C112.858 120.84 113.031 120.879 113.204 120.917C114.617 121.228 116.551 121.654 116.936 121.134C117.057 120.971 117.327 120.215 115.714 117.361C115.626 117.205 115.611 117.018 115.671 116.85C117.076 112.965 118.42 108.378 117.738 103.817C117.688 103.482 117.919 103.169 118.255 103.119C118.59 103.068 118.903 103.3 118.953 103.636C119.662 108.384 118.265 113.244 116.921 117.003C118.278 119.464 118.586 120.969 117.923 121.865C117.065 123.025 115.061 122.584 112.94 122.116C112.819 122.089 112.698 122.063 112.577 122.036C107.804 123.402 103.262 124.087 98.8359 124.087Z"
          fill="#000072"/>
    <path d="M108.868 78.9524C108.851 79.6364 108.548 80.3055 108.032 80.8348C107.91 80.9742 107.751 81.0803 107.602 81.198C107.53 81.2601 107.441 81.3007 107.357 81.3479L107.098 81.4839C106.917 81.5578 106.725 81.6185 106.532 81.6687C106.433 81.6843 106.333 81.7006 106.232 81.7121C106.132 81.7226 106.032 81.7416 105.93 81.7324C105.828 81.729 105.726 81.7257 105.625 81.7182C105.574 81.7135 105.523 81.7131 105.473 81.7043L105.324 81.6721C105.125 81.6283 104.928 81.5812 104.75 81.4893L104.48 81.3642C104.396 81.315 104.318 81.2563 104.238 81.2021C104.159 81.1454 104.078 81.0929 104.005 81.0318L103.806 80.8331C103.293 80.2905 103.014 79.6252 102.985 78.9527C102.978 78.7961 103.099 78.6635 103.256 78.6567C103.322 78.654 103.383 78.6737 103.433 78.7093L103.449 78.7205C103.96 79.0853 104.377 79.3936 104.788 79.5764C105.193 79.7656 105.553 79.8334 105.908 79.8314C106.264 79.8304 106.639 79.7375 107.051 79.5516C107.467 79.3665 107.89 79.0803 108.404 78.7208L108.418 78.711C108.547 78.6204 108.726 78.6516 108.816 78.7812C108.853 78.8334 108.87 78.8934 108.868 78.9524Z"
          fill="#000072"/>
    <path d="M88.4222 78.8823C88.86 79.1885 89.2208 79.4323 89.5748 79.59C89.9258 79.7484 90.2456 79.8277 90.5491 79.8291C90.8519 79.8311 91.1578 79.7717 91.5037 79.6113C91.8533 79.4554 92.209 79.1925 92.6448 78.8819L92.658 78.8724C92.7669 78.7948 92.9178 78.8202 92.9954 78.9287C93.028 78.9745 93.0422 79.0277 93.0402 79.0796C93.0154 79.6527 92.7777 80.2197 92.3406 80.6823L92.1704 80.8515C92.1083 80.9037 92.0395 80.9485 91.9723 80.9966C91.9042 81.0427 91.8377 81.0926 91.7658 81.135L91.5356 81.2415C91.384 81.3205 91.2151 81.3568 91.0466 81.3964C90.9625 81.4188 90.8774 81.4334 90.7905 81.4351L90.5304 81.4483C90.4433 81.4571 90.3582 81.4392 90.2724 81.43L90.0167 81.3941C89.8529 81.3503 89.6898 81.2981 89.5345 81.2367L89.3144 81.1211C89.2425 81.0807 89.1665 81.0461 89.1048 80.9929C88.9783 80.8928 88.8427 80.8023 88.7389 80.684C88.2994 80.2326 88.0407 79.6622 88.0264 79.0796C88.0231 78.9447 88.1295 78.8331 88.2642 78.8297C88.3184 78.8283 88.369 78.8446 88.41 78.8734L88.4222 78.8823Z"
          fill="#000072"/>
    <path d="M78.3115 101.257C75.9477 97.4579 77.3067 91.6035 80.7728 91.6876C81.8529 93.4286 83.6135 94.529 85.7967 95.231C87.3648 95.7352 87.712 97.8147 86.3691 98.7682C84.2951 100.241 81.5466 101.005 78.3115 101.257Z"
          fill="#41589C"/>
    <path d="M86.5823 97.2954C86.3714 97.0926 86.1086 96.9302 85.798 96.8305C83.6134 96.1285 81.8528 95.0285 80.7737 93.2868C80.7496 93.2861 80.7259 93.2861 80.7022 93.2861C79.5346 93.2861 78.6119 93.964 77.9971 95.0071C78.1232 94.5442 78.2924 94.1251 78.4959 93.7697C78.8516 93.1474 79.4698 92.4214 80.4495 92.3142C81.5455 93.9057 83.2377 95.0529 85.6094 95.8155C86.1283 95.9827 86.4877 96.4042 86.5712 96.9434C86.5895 97.0628 86.5932 97.1808 86.5823 97.2954Z"
          fill="#A9B4D2"/>
    <path d="M80.4493 92.3144C79.4697 92.4216 78.8515 93.1476 78.4957 93.7699C77.5815 95.3691 77.3526 98.2546 78.646 100.613C81.7865 100.325 84.1996 99.5565 86.0138 98.2678C86.4438 97.9626 86.652 97.4675 86.571 96.9436C86.4876 96.4044 86.1281 95.9829 85.6093 95.8157C83.2375 95.0531 81.5454 93.9059 80.4493 92.3144ZM78.3116 101.872C78.1007 101.872 77.903 101.763 77.7904 101.582C76.2277 99.0698 76.0758 95.5282 77.4292 93.1602C78.2173 91.7813 79.4086 91.0424 80.7881 91.0739C80.995 91.079 81.1859 91.1879 81.2951 91.3639C82.2205 92.8556 83.7547 93.9293 85.9853 94.6465C86.942 94.9544 87.6314 95.7625 87.785 96.7561C87.9359 97.7344 87.53 98.6975 86.7253 99.2692C84.6516 100.742 81.9153 101.592 78.3594 101.87C78.3435 101.871 78.3275 101.872 78.3116 101.872Z"
          fill="#000072"/>
    <path d="M95.9668 82.6586C97.8176 82.898 99.2595 83.8383 100.41 85.2775C101.043 86.0683 100.861 87.243 99.9924 87.7642C98.7943 88.4831 97.4199 88.8134 95.8752 88.769C94.0661 88.5601 92.6079 87.9446 91.6502 86.7496C91.3447 86.3684 91.2962 85.8357 91.5397 85.4125C92.2637 84.152 93.4163 83.2351 95.0858 82.7321C95.3703 82.6464 95.6717 82.6206 95.9668 82.6586Z"
          fill="#EDB324"/>
    <path d="M95.6999 82.7273C95.5012 82.7273 95.3008 82.7564 95.1095 82.8141C93.5215 83.2922 92.3451 84.181 91.6133 85.4547C91.3905 85.8423 91.4319 86.3412 91.7164 86.6959C92.6116 87.8129 93.9749 88.4633 95.8844 88.6838C97.4057 88.7292 98.7763 88.3935 99.9476 87.6905C100.336 87.4575 100.594 87.0818 100.675 86.6321C100.758 86.1723 100.637 85.6979 100.343 85.331C99.1307 83.8148 97.6953 82.9684 95.9549 82.7435C95.8708 82.7327 95.7857 82.7273 95.6999 82.7273ZM96.1431 88.8584C96.0533 88.8584 95.9631 88.857 95.8719 88.8547C93.9081 88.6281 92.5075 87.957 91.5828 86.8027C91.2545 86.3937 91.2074 85.8176 91.4648 85.3696C92.219 84.0566 93.4289 83.1413 95.0604 82.6499C95.3564 82.5608 95.6735 82.5347 95.977 82.5736C97.7634 82.8046 99.2352 83.6717 100.477 85.2238C100.801 85.6297 100.935 86.154 100.844 86.6627C100.755 87.154 100.461 87.5823 100.036 87.8373C98.9059 88.5156 97.5973 88.8584 96.1431 88.8584Z"
          fill="#000072"/>
    <path d="M92.1293 86.3657C91.9797 86.1792 91.9567 85.9191 92.072 85.7187C92.7437 84.5494 93.7875 83.7647 95.2627 83.3205C95.4044 83.2778 95.5526 83.2561 95.6998 83.2561C95.7629 83.2561 95.8259 83.2601 95.888 83.2679H95.8876C97.4855 83.4748 98.8081 84.2575 99.9309 85.6614C99.9722 85.7133 100.009 85.7679 100.039 85.8252C99.0204 84.8346 97.7982 84.191 96.3129 83.9994C96.224 83.9882 96.1345 83.9824 96.0453 83.9824C95.8375 83.9824 95.6306 84.013 95.4309 84.0723C93.9381 84.5223 92.8587 85.3033 92.1293 86.3657Z"
          fill="#F7DD9C"/>
    <path d="M95.9192 88.1557C97.335 88.1937 98.5995 87.8834 99.6762 87.2374C99.9319 87.0842 100.102 86.8359 100.155 86.5385C100.211 86.2289 100.129 85.9088 99.9308 85.6609C98.8081 84.257 97.4855 83.4743 95.8876 83.2675H95.888C95.6811 83.241 95.4651 83.259 95.2626 83.32C93.7875 83.7643 92.7437 84.549 92.0719 85.7182C91.9567 85.9186 91.9797 86.1787 92.1293 86.3652C92.9292 87.3636 94.169 87.9492 95.9192 88.1557ZM96.1443 89.3867C96.0494 89.3867 95.9538 89.3854 95.8571 89.3826C95.8395 89.3823 95.8222 89.381 95.8045 89.3789C93.7319 89.1395 92.173 88.384 91.1709 87.1333C90.708 86.5558 90.6419 85.7413 91.0068 85.1065C91.8308 83.6724 93.1435 82.6757 94.9083 82.144C95.2752 82.0334 95.6682 82.0005 96.0453 82.0494C97.9474 82.2956 99.5775 83.2525 100.89 84.8938C101.31 85.4184 101.483 86.0973 101.364 86.7562C101.249 87.3978 100.864 87.957 100.308 88.2904C99.0949 89.0184 97.6951 89.3867 96.1443 89.3867Z"
          fill="#000072"/>
    <path d="M81.7241 133.386C71.6515 131.7 74.2139 119.305 80.9088 122.246C78.9101 113.915 89.9031 114.742 88.0746 121.797C94.7948 114.979 97.9505 131.405 89.3246 133.386H81.7241Z"
          fill="#EDB324"/>
    <path d="M81.7314 133.3H89.3149C92.1475 132.646 94.0577 130.247 94.4257 126.881C94.7417 123.988 93.76 121.227 92.1418 120.458C90.9708 119.902 89.5855 120.386 88.1355 121.857L87.9117 122.084L87.9917 121.775C88.5146 119.759 88.0124 118.036 86.6136 117.05C85.327 116.143 83.5619 116.097 82.3214 116.938C80.9016 117.901 80.417 119.829 80.9925 122.226L81.0325 122.394L80.8745 122.325C79.2678 121.619 77.7692 121.764 76.6543 122.734C75.2738 123.935 74.7434 126.149 75.3345 128.244C76.0843 130.901 78.4159 132.743 81.7314 133.3ZM89.3343 133.472L81.71 133.47C78.3226 132.904 75.9388 131.015 75.1697 128.29C74.561 126.133 75.1125 123.848 76.542 122.605C77.6733 121.621 79.1759 121.445 80.788 122.102C80.2563 119.708 80.7761 117.779 82.2255 116.797C83.5236 115.916 85.3687 115.963 86.7123 116.91C88.1043 117.892 88.6479 119.563 88.2264 121.528C90.0233 119.813 91.3811 119.907 92.215 120.304C93.9238 121.115 94.9249 123.889 94.5959 126.9C94.2192 130.345 92.2557 132.801 89.3438 133.469L89.3343 133.472Z"
          fill="#000072"/>
    <path d="M89.2998 123.361C89.4877 122.638 89.5409 121.98 89.486 121.391C90.0055 121.027 90.5793 120.764 91.1527 120.764C91.4084 120.764 91.6641 120.816 91.9147 120.936C92.2633 121.101 92.5793 121.386 92.8527 121.76C92.6997 121.729 92.542 121.713 92.3793 121.713C91.4827 121.713 90.4423 122.201 89.2998 123.361Z"
          fill="#F8E1A7"/>
    <path d="M76.2775 128.811C76.1872 128.747 76.0994 128.682 76.0138 128.615C75.9492 128.447 75.892 128.275 75.8425 128.1C75.3142 126.228 75.7904 124.185 77.0006 123.132C77.555 122.65 78.2085 122.408 78.9352 122.408C79.4737 122.408 80.0529 122.541 80.6612 122.809C80.7409 122.844 80.825 122.861 80.9085 122.861C81.0499 122.861 81.1899 122.812 81.3022 122.718C81.4812 122.568 81.5599 122.33 81.5056 122.103C80.977 119.899 81.3717 118.22 82.6176 117.375C83.1222 117.033 83.7295 116.863 84.3474 116.863C85.03 116.863 85.7252 117.071 86.3085 117.482C86.5418 117.646 86.7456 117.835 86.9195 118.046C86.4841 117.893 86.0253 117.815 85.5685 117.815C83.328 117.815 81.1468 119.696 82.1337 123.81C81.4283 123.5 80.7694 123.361 80.1658 123.361C77.5336 123.361 75.9623 126.02 76.2775 128.811Z"
          fill="#F8E1A7"/>
    <path d="M76.3649 129.361C76.2311 129.123 76.114 128.874 76.0146 128.616C76.1002 128.682 76.1881 128.747 76.2783 128.811C76.299 128.994 76.3278 129.178 76.3649 129.361Z"
          fill="#DBCBB1"/>
    <path d="M81.7761 132.772H89.2531C91.8253 132.15 93.5602 129.932 93.9003 126.823C94.1882 124.188 93.3163 121.601 91.9148 120.936C90.7164 120.366 89.403 121.324 88.5118 122.228C88.3168 122.426 88.0133 122.468 87.7715 122.331C87.5301 122.194 87.4104 121.912 87.4802 121.643C87.9445 119.851 87.5175 118.334 86.309 117.482C85.198 116.699 83.6802 116.655 82.6181 117.375C81.3722 118.22 80.9774 119.899 81.5061 122.103C81.5604 122.33 81.4817 122.568 81.3027 122.718C81.1236 122.867 80.8754 122.903 80.6617 122.809C79.2327 122.181 77.9665 122.293 77.0011 123.133C75.7909 124.185 75.3147 126.228 75.843 128.1C76.5319 130.541 78.6929 132.242 81.7761 132.772ZM89.3247 134H81.7242C81.6903 134 81.6563 133.997 81.6228 133.992C78.0255 133.39 75.4879 131.364 74.661 128.433C73.9978 126.083 74.6143 123.581 76.195 122.206C77.2757 121.265 78.6406 120.967 80.1171 121.328C79.8435 119.12 80.4796 117.342 81.9287 116.359C83.4051 115.358 85.4975 115.407 87.0167 116.478C88.2599 117.355 88.9082 118.703 88.8957 120.304C90.42 119.282 91.6323 119.442 92.4418 119.827C94.3469 120.732 95.4738 123.73 95.1211 126.957C94.7189 130.636 92.6035 133.263 89.462 133.985C89.4169 133.995 89.3708 134 89.3247 134Z"
          fill="#000072"/>
    <path d="M87.4162 87.7822L88.9147 89.5354C89.009 89.6456 88.9961 89.8111 88.8859 89.9054C88.797 89.9814 88.6716 89.9875 88.5769 89.9291L86.6165 88.7145C86.3249 88.5337 86.2347 88.1505 86.4155 87.8589C86.5962 87.5669 86.9794 87.477 87.2714 87.6578C87.3263 87.692 87.3762 87.7358 87.4162 87.7822Z"
          fill="#000072"/>
    <path d="M110.335 89.1446L108.842 90.5238C108.736 90.6225 108.569 90.616 108.47 90.5092C108.393 90.4258 108.381 90.3054 108.429 90.2101L109.357 88.4016C109.515 88.0951 109.891 87.9743 110.197 88.1317C110.504 88.289 110.624 88.6648 110.467 88.9713C110.433 89.0375 110.387 89.0968 110.335 89.1446Z"
          fill="#000072"/>
    <path d="M122.966 108.499C122.05 107.009 120.726 105.724 119.084 104.791C119.058 104.464 119.023 104.138 118.978 103.812C121.179 105 122.985 107.224 122.985 107.224C122.985 107.224 123.026 107.73 122.966 108.499Z"
          fill="#000072"/>
    <path d="M117.056 117.928L116.413 116.599C117.949 112.256 118.974 107.944 118.345 103.728V103.726C118.331 103.72 118.317 103.714 118.302 103.707C118.297 103.632 118.291 103.557 118.285 103.481C118.519 103.578 118.751 103.69 118.977 103.813C119.023 104.138 119.058 104.464 119.084 104.791C119.436 109.164 118.155 113.549 116.921 117.004C117.01 117.165 117.094 117.322 117.174 117.475C117.127 117.622 117.087 117.773 117.056 117.928Z"
          fill="#000072"/>
    <path d="M86.7773 88.8145C86.7461 88.8012 86.7155 88.7853 86.6867 88.767C83.5028 86.7411 82.1545 86.383 81.599 86.383C81.4454 86.383 81.3525 86.4105 81.2982 86.4376C80.9018 86.2033 80.6631 86.0768 80.6631 86.0768L81.1345 85.8411L81.2728 85.8031C81.3711 85.7825 81.4786 85.7723 81.5939 85.7723C82.3546 85.7723 83.4743 86.2114 84.8389 86.9531C85.3323 87.2216 85.8576 87.5292 86.4097 87.869C86.2367 88.1596 86.3279 88.536 86.6165 88.7148L86.7773 88.8145ZM88.1988 88.6978L87.7258 88.1444C89.052 87.9541 90.363 87.7907 91.6557 87.6598C91.8663 87.8588 92.0949 88.0416 92.3411 88.2078C91.0124 88.3339 89.6336 88.497 88.1988 88.6978Z"
          fill="#000072"/>
    <path d="M93.4688 88.8066C93.0595 88.6388 92.6834 88.4394 92.3416 88.2081C92.0954 88.0419 91.8668 87.8592 91.6562 87.6601C91.9364 87.6316 92.2158 87.6048 92.4942 87.5797L93.8588 88.7731C93.7228 88.7731 93.5929 88.7846 93.4688 88.8066Z"
          fill="#000072"/>
    <path d="M88.7156 89.9688C88.6671 89.9688 88.619 89.9555 88.5769 89.9294L86.7773 88.8144L86.6165 88.7147C86.328 88.536 86.2367 88.1596 86.4097 87.869C86.6084 87.9914 86.8109 88.1179 87.0164 88.2484C87.2534 88.2132 87.4898 88.1782 87.7258 88.1443L88.1988 88.6978L88.9147 89.5357C89.009 89.6459 88.9961 89.8114 88.8859 89.9057C88.8364 89.9481 88.776 89.9688 88.7156 89.9688Z"
          fill="#000072"/>
    <path d="M108.97 89.1572C106.498 88.4698 103.786 88.0626 100.759 87.9347C100.956 87.7326 101.113 87.4949 101.223 87.2334C101.415 87.2216 101.609 87.2158 101.807 87.2158C104.579 87.2158 107.895 88.3274 109.158 88.7913L108.97 89.1572Z"
          fill="#000072"/>
    <path d="M96.1438 89.3867C96.0872 89.3867 96.0302 89.3864 95.9733 89.3854C95.2388 88.8469 94.8857 88.3521 94.8857 88.3521L99.1507 88.271C99.6886 88.0479 100.137 87.7349 100.477 87.3161C100.717 87.2761 100.967 87.249 101.223 87.233C101.113 87.4945 100.955 87.7322 100.758 87.9343C100.625 88.0706 100.474 88.1907 100.308 88.2904C99.0945 89.0184 97.6946 89.3867 96.1438 89.3867Z"
          fill="#000072"/>
    <path d="M108.664 90.5933C108.593 90.5933 108.522 90.5648 108.47 90.5088C108.393 90.4254 108.381 90.305 108.429 90.2097L108.97 89.1568L109.157 88.7909C109.49 88.9133 109.68 88.9903 109.68 88.9903L108.721 90.5872C108.702 90.5912 108.683 90.5933 108.664 90.5933Z"
          fill="#000072"/>
    <path d="M111.489 92.2402C111.757 91.9493 111.997 91.6702 112.209 91.4036C113.465 91.093 114.607 90.6746 115.631 90.1489C115.633 90.2676 115.635 90.3904 115.635 90.5175C115.635 90.6105 115.656 90.6986 115.693 90.7777C114.734 91.4691 113.234 91.911 111.489 92.2402Z"
          fill="#000072"/>
    <path d="M115.693 90.7773C115.656 90.6983 115.635 90.6102 115.635 90.5172C115.635 90.3901 115.633 90.2673 115.631 90.1486C115.578 87.4768 114.97 86.8121 114.601 86.6568C114.517 86.6212 114.408 86.5954 114.266 86.5954C114.067 86.5954 113.805 86.6466 113.463 86.7928C113.257 86.4645 113.026 86.3177 113.026 86.3177C113.489 86.0891 113.893 85.9833 114.246 85.9833C115.631 85.9833 116.235 87.6121 116.534 89.8763C116.342 90.2175 116.056 90.5156 115.693 90.7773Z"
          fill="#000072"/>
    <path d="M98.6991 123.447C97.4193 123.447 96.1426 123.392 94.8702 123.282C94.8122 123.063 94.7461 122.85 94.6729 122.645C96.053 122.786 97.442 122.856 98.8419 122.856C102.408 122.856 106.05 122.4 109.836 121.489C109.741 121.709 109.655 121.938 109.579 122.176C105.923 123.016 102.297 123.447 98.6991 123.447Z"
          fill="#000072"/>
    <path d="M94.8703 123.282C94.6668 123.264 94.463 123.245 94.2599 123.224L92.8105 120.803C92.8105 120.803 93.1137 120.798 93.6451 120.785C94.068 121.288 94.4156 121.921 94.6729 122.645C94.7462 122.85 94.8123 123.063 94.8703 123.282Z"
          fill="#000072"/>
    <path d="M117.784 104.153C116.618 103.67 115.376 103.378 114.085 103.284C114.076 103.283 114.067 103.282 114.058 103.281C108.866 102.666 105.284 100.93 103.419 98.9534C103.347 98.3694 103.372 97.9903 103.374 97.9605C104.879 99.9975 108.412 101.994 114.13 102.671C115.426 102.766 116.651 103.05 117.778 103.489C117.736 103.59 117.72 103.702 117.737 103.818C117.754 103.93 117.77 104.041 117.784 104.153Z"
          fill="#000072"/>
    <path d="M117.143 120.297C117.077 120.241 117.011 120.186 116.947 120.133C116.807 119.561 116.464 118.688 115.714 117.361C115.626 117.205 115.611 117.018 115.671 116.85C117.041 113.06 118.353 108.603 117.785 104.153C117.77 104.041 117.755 103.929 117.738 103.817C117.721 103.702 117.737 103.589 117.779 103.489C117.956 103.558 118.13 103.631 118.303 103.707C118.684 108.921 117.934 112.777 116.245 116.252L116.414 116.599C116.359 116.752 116.304 116.906 116.249 117.059C116.542 117.578 116.784 118.045 116.98 118.466C116.931 119.043 116.984 119.657 117.143 120.297Z"
          fill="#000072"/>
    <path d="M116.413 116.599L116.245 116.251C117.934 112.777 118.684 108.92 118.303 103.707C118.317 103.713 118.331 103.72 118.345 103.726V103.727C118.975 107.944 117.949 112.256 116.413 116.599Z"
          fill="#000072"/>
    <path d="M125.165 133.328C137.642 131.469 134.468 117.801 126.175 121.045C128.651 111.859 115.034 112.771 117.299 120.549C108.975 113.031 105.065 131.144 115.751 133.328H125.165Z"
          fill="#EDB324"/>
    <path d="M125.178 133.413L125.153 133.244C129.294 132.627 132.196 130.577 133.113 127.619C133.775 125.484 133.25 123.217 131.775 121.844C130.361 120.529 128.383 120.273 126.207 121.125L126.049 121.187L126.093 121.023C127.023 117.573 125.59 115.972 124.654 115.325C123.025 114.199 120.528 114.264 118.846 115.477C117.305 116.589 116.771 118.429 117.382 120.526L117.466 120.815L117.242 120.613C114.811 118.418 113.042 118.629 111.986 119.193C110.057 120.223 108.986 123.24 109.441 126.369C109.964 129.971 112.33 132.542 115.768 133.245L115.734 133.412C112.222 132.694 109.805 130.07 109.271 126.393C108.807 123.196 109.914 120.104 111.905 119.042C112.978 118.469 114.747 118.238 117.143 120.297C116.634 118.242 117.211 116.445 118.746 115.338C120.484 114.085 123.065 114.019 124.751 115.183C125.71 115.846 127.17 117.465 126.3 120.906C128.451 120.115 130.482 120.407 131.892 121.719C133.415 123.136 133.958 125.472 133.276 127.67C132.339 130.693 129.387 132.786 125.178 133.413Z"
          fill="#000072"/>
    <path d="M125.165 133.328L125.152 133.244C129.294 132.627 132.195 130.577 133.112 127.619C133.589 126.081 133.45 124.474 132.784 123.183C132.834 123.219 132.882 123.256 132.931 123.293C132.886 123.2 132.839 123.108 132.79 123.018C134.646 126.393 132.961 132.167 125.165 133.328ZM115.75 133.328H115.75C112.3 132.623 110.371 130.256 109.622 127.629C109.622 127.629 109.623 127.629 109.623 127.629C110.018 129.016 110.742 130.329 111.845 131.364C111.79 131.27 111.738 131.175 111.687 131.079C112.752 132.16 114.14 132.912 115.767 133.244L115.75 133.328Z"
          fill="#000072"/>
    <path d="M127.565 122.805C127.775 122.026 127.87 121.319 127.866 120.683C128.125 120.648 128.379 120.631 128.628 120.631C129.564 120.631 130.423 120.878 131.166 121.366C131.203 121.72 131.208 122.081 131.182 122.446C130.811 122.357 130.417 122.31 130.002 122.31C129.255 122.31 128.439 122.464 127.565 122.805Z"
          fill="#F8E1A7"/>
    <path d="M132.79 123.019C132.396 122.302 131.842 121.694 131.154 121.261C131.158 121.296 131.162 121.33 131.166 121.365C130.423 120.877 129.564 120.631 128.628 120.631C128.379 120.631 128.124 120.648 127.865 120.683C127.865 120.655 127.865 120.628 127.864 120.6C128.122 120.566 128.373 120.55 128.616 120.55C130.529 120.55 131.989 121.561 132.79 123.019Z"
          fill="#9999C7"/>
    <path d="M132.784 123.183C132.317 122.844 131.78 122.591 131.182 122.446C131.209 122.081 131.203 121.719 131.166 121.365C131.379 121.505 131.582 121.665 131.775 121.844C132.187 122.228 132.526 122.681 132.784 123.183Z"
          fill="#DBCBB1"/>
    <path d="M132.931 123.293C132.883 123.255 132.834 123.219 132.784 123.183C132.525 122.681 132.187 122.228 131.775 121.844C131.582 121.665 131.379 121.505 131.166 121.365C131.162 121.33 131.158 121.295 131.154 121.261C131.843 121.694 132.396 122.302 132.79 123.018C132.839 123.108 132.886 123.2 132.931 123.293Z"
          fill="#9999C7"/>
    <path d="M110.809 128.52C110.422 128.285 110.066 128.022 109.742 127.736C109.611 127.299 109.51 126.843 109.441 126.369C108.986 123.24 110.057 120.222 111.986 119.193C112.387 118.979 112.891 118.815 113.495 118.815C114.481 118.815 115.735 119.251 117.242 120.613L117.466 120.815L117.382 120.525C116.771 118.429 117.305 116.589 118.847 115.477C119.727 114.842 120.83 114.522 121.915 114.522C122.903 114.522 123.877 114.788 124.654 115.324C125.093 115.628 125.64 116.14 126.003 116.954C125.22 116.442 124.268 116.194 123.308 116.194C120.465 116.194 117.544 118.371 118.688 122.308C117.273 121.029 115.985 120.492 114.874 120.492C111.796 120.492 110.085 124.622 110.809 128.52Z"
          fill="#F8E1A7"/>
    <path d="M109.741 127.736C109.701 127.701 109.662 127.666 109.623 127.63C108.446 123.504 110.175 118.734 113.485 118.734C114.595 118.734 115.884 119.271 117.3 120.55C116.153 116.612 119.074 114.435 121.918 114.435C123.679 114.435 125.41 115.27 126.127 117.039C126.086 117.01 126.044 116.982 126.002 116.954C125.64 116.141 125.092 115.628 124.653 115.325C123.877 114.788 122.903 114.522 121.914 114.522C120.829 114.522 119.726 114.842 118.846 115.477C117.305 116.589 116.771 118.429 117.381 120.526L117.466 120.816L117.242 120.613C115.734 119.252 114.481 118.816 113.494 118.816C112.89 118.816 112.387 118.979 111.986 119.193C110.056 120.223 108.986 123.241 109.44 126.369C109.509 126.843 109.61 127.299 109.741 127.736Z"
          fill="#9999C7"/>
    <path d="M111.688 131.08C110.799 130.178 110.134 129.046 109.741 127.736C110.066 128.022 110.422 128.285 110.809 128.52C110.973 129.402 111.262 130.272 111.688 131.08Z"
          fill="#DBCBB1"/>
    <path d="M111.845 131.364C110.742 130.329 110.018 129.016 109.623 127.63C109.662 127.666 109.701 127.701 109.741 127.736C110.134 129.045 110.798 130.177 111.687 131.079C111.738 131.175 111.79 131.27 111.845 131.364Z"
          fill="#9999C7"/>
    <path d="M115.814 132.714H125.12C129.029 132.12 131.757 130.208 132.608 127.463C133.211 125.52 132.743 123.466 131.415 122.231C130.158 121.062 128.377 120.844 126.399 121.617C126.183 121.702 125.938 121.658 125.766 121.503C125.593 121.348 125.522 121.11 125.583 120.886C126.209 118.561 125.773 116.74 124.353 115.759C122.899 114.755 120.665 114.818 119.156 115.906C117.787 116.893 117.337 118.481 117.889 120.378C117.966 120.642 117.858 120.924 117.625 121.07C117.393 121.215 117.092 121.19 116.888 121.005C115.144 119.431 113.535 118.965 112.235 119.659C110.523 120.573 109.547 123.424 109.964 126.293C110.198 127.905 111.237 131.747 115.814 132.714ZM125.166 133.943H115.751C115.71 133.943 115.668 133.938 115.628 133.93C111.888 133.166 109.316 130.376 108.748 126.469C108.253 123.059 109.476 119.74 111.656 118.576C112.525 118.112 114.199 117.66 116.436 119.106C116.366 117.385 117.057 115.905 118.438 114.91C120.347 113.532 123.191 113.463 125.051 114.749C126.666 115.864 127.348 117.795 126.993 120.142C129.011 119.648 130.886 120.062 132.252 121.332C133.922 122.886 134.523 125.436 133.781 127.827C132.781 131.051 129.674 133.278 125.256 133.936C125.226 133.94 125.196 133.943 125.166 133.943Z"
          fill="#000072"/>
    <path d="M78.7786 103.928C78.6345 103.907 78.488 103.883 78.3408 103.857L78.4378 101.863C78.588 101.851 78.7369 101.838 78.8841 101.824C78.8346 102.513 78.8003 103.215 78.7786 103.928Z"
          fill="#000072"/>
    <path d="M78.4375 101.863L78.4558 101.493C86.2333 101.003 89.5176 98.0751 85.3737 94.8223C85.9329 94.9112 86.4426 95.0217 86.8987 95.156C87.3673 95.5575 87.6861 96.1187 87.7848 96.7559C87.9357 97.7343 87.5297 98.6973 86.725 99.2691C84.7545 100.669 82.1854 101.506 78.8838 101.824C78.7366 101.838 78.5877 101.851 78.4375 101.863Z"
          fill="#000072"/>
    <path d="M78.3496 42.2569L74.5897 44.5618L76.6487 45.3153C76.911 45.4113 77.0498 45.6978 76.9626 45.963L76.4337 47.5711C76.3449 47.8414 76.0547 47.9892 75.784 47.9024L71.5265 46.5368C71.1451 46.4144 70.9248 46.0166 71.0235 45.6287L71.3903 44.1864C71.4398 43.9914 71.5648 43.8242 71.7378 43.7215L75.9998 41.1907L73.3438 40.423C73.0576 40.3402 72.9001 40.0337 72.9997 39.7529L73.4989 38.3449C73.5951 38.0736 73.8942 37.9329 74.1646 38.0319L78.5806 39.6474C78.9746 39.7915 79.1862 40.2192 79.0618 40.62L78.6901 41.8187C78.6335 42.0012 78.5124 42.1568 78.3496 42.2569Z"
          fill="#4B7BE5"/>
    <path d="M85.6892 51.4365L83.4005 53.6373L84.9645 53.8496C85.1639 53.8767 85.3057 54.0568 85.2853 54.2568L85.1612 55.4692C85.1405 55.673 84.9594 55.8218 84.7553 55.8025L81.5507 55.4987C81.2638 55.4712 81.0474 55.2253 81.0569 54.9374L81.0925 53.8665C81.0973 53.7217 81.1594 53.5851 81.2652 53.486L83.8722 51.0489L81.8861 50.9186C81.6717 50.9047 81.5137 50.7131 81.5405 50.5005L81.6745 49.4333C81.7002 49.2278 81.8891 49.0827 82.0943 49.1105L85.4491 49.5656C85.7485 49.6063 85.9632 49.8742 85.9378 50.1753L85.8611 51.076C85.8493 51.213 85.7882 51.3408 85.6892 51.4365Z"
          fill="#4B7BE5"/>
    <path d="M75.7711 59.0122L73.2954 59.9489L74.4247 60.6244C74.5685 60.7105 74.6182 60.895 74.5369 61.0415L74.0445 61.9303C73.9617 62.0795 73.7741 62.1341 73.6242 62.0524L71.2676 60.7692C71.0566 60.6542 70.9714 60.3948 71.0732 60.1771L71.4514 59.368C71.5025 59.2588 71.595 59.174 71.7085 59.133L74.5055 58.1197L73.026 57.3689C72.8665 57.2879 72.8081 57.0895 72.8984 56.9352L73.3509 56.161C73.4381 56.0121 73.6302 55.9626 73.7785 56.0515L76.2004 57.5001C76.4164 57.6294 76.4932 57.905 76.3749 58.1275L76.021 58.7925C75.9671 58.8936 75.8783 58.9719 75.7711 59.0122Z"
          fill="#4B7BE5"/>
</svg>
