<svg width="14" height="14" viewBox="0 0 14 14" fill="none" xmlns="http://www.w3.org/2000/svg">
    <path opacity="0.168"
          d="M7 14C10.866 14 14 10.866 14 7C14 3.13401 10.866 0 7 0C3.13401 0 0 3.13401 0 7C0 10.866 3.13401 14 7 14Z"
          fill="#2BB143"/>
    <path d="M7 4C6.40666 4 5.82664 4.17595 5.33329 4.50559C4.83994 4.83524 4.45543 5.30377 4.22836 5.85195C4.0013 6.40013 3.94189 7.00333 4.05765 7.58527C4.1734 8.16721 4.45912 8.70176 4.87868 9.12132C5.29824 9.54088 5.83279 9.8266 6.41473 9.94235C6.99667 10.0581 7.59987 9.9987 8.14805 9.77164C8.69623 9.54457 9.16477 9.16006 9.49441 8.66671C9.82405 8.17336 10 7.59334 10 7C10 6.20435 9.68393 5.44129 9.12132 4.87868C8.55871 4.31607 7.79565 4 7 4Z"
          fill="#34B751"/>
</svg>
