<svg width="12" height="12" viewBox="0 0 12 12" fill="none" xmlns="http://www.w3.org/2000/svg">
<path d="M6 0C4.81331 0 3.65327 0.351894 2.66658 1.01118C1.67989 1.67047 0.910851 2.60754 0.456725 3.7039C0.00259972 4.80026 -0.11622 6.00665 0.115291 7.17054C0.346802 8.33443 0.918246 9.40352 1.75736 10.2426C2.59648 11.0818 3.66557 11.6532 4.82946 11.8847C5.99334 12.1162 7.19974 11.9974 8.2961 11.5433C9.39245 11.0892 10.3295 10.3201 10.9888 9.33342C11.6481 8.34672 12 7.18669 12 6C12 4.4087 11.3679 2.88258 10.2426 1.75736C9.11742 0.632141 7.5913 0 6 0ZM6.54782 8.76939H5.44591V4.61269H6.54782V8.76939ZM5.99687 4.15983C5.88458 4.15533 5.77608 4.11796 5.68484 4.05237C5.59359 3.98677 5.52361 3.89583 5.48358 3.79082C5.44354 3.68582 5.43522 3.57137 5.45963 3.46168C5.48405 3.35198 5.54014 3.25187 5.62093 3.17376C5.70172 3.09565 5.80367 3.04298 5.91413 3.02228C6.02458 3.00158 6.13868 3.01376 6.24228 3.05732C6.34587 3.10088 6.4344 3.17389 6.49688 3.2673C6.55936 3.36071 6.59304 3.47041 6.59374 3.58278C6.59364 3.66022 6.57798 3.73684 6.5477 3.80811C6.51742 3.87938 6.47313 3.94384 6.41746 3.99766C6.36179 4.05148 6.29587 4.09357 6.22362 4.12143C6.15137 4.14928 6.07426 4.16234 5.99687 4.15983Z" fill="#0AB00F"/>
</svg>
