<svg width="14" height="14" viewBox="0 0 14 14" fill="none" xmlns="http://www.w3.org/2000/svg">
<path d="M7 0C5.61553 0 4.26215 0.410543 3.11101 1.17971C1.95987 1.94888 1.06266 3.04213 0.532846 4.32122C0.00303292 5.6003 -0.13559 7.00776 0.134506 8.36563C0.404603 9.7235 1.07129 10.9708 2.05026 11.9497C3.02922 12.9287 4.2765 13.5954 5.63437 13.8655C6.99224 14.1356 8.3997 13.997 9.67878 13.4672C10.9579 12.9373 12.0511 12.0401 12.8203 10.889C13.5895 9.73785 14 8.38447 14 7C14 6.08075 13.8189 5.17049 13.4672 4.32122C13.1154 3.47194 12.5998 2.70026 11.9497 2.05025C11.2997 1.40024 10.5281 0.884626 9.67878 0.532843C8.82951 0.18106 7.91925 0 7 0ZM10.584 5.06496L6.08452 9.58452H6.08118C5.97803 9.69188 5.83911 9.75771 5.6907 9.76956C5.53966 9.75863 5.39863 9.68997 5.29687 9.57782L3.41235 7.6933C3.3996 7.68081 3.38946 7.66589 3.38255 7.64943C3.37563 7.63297 3.37207 7.61529 3.37207 7.59743C3.37207 7.57958 3.37563 7.5619 3.38255 7.54544C3.38946 7.52898 3.3996 7.51406 3.41235 7.50156L4.01131 6.90261C4.02347 6.88987 4.03809 6.87974 4.05428 6.87281C4.07047 6.86589 4.08789 6.86232 4.1055 6.86232C4.12311 6.86232 4.14054 6.86589 4.15673 6.87281C4.17292 6.87974 4.18753 6.88987 4.1997 6.90261L5.69404 8.39696L9.7997 4.26087C9.81196 4.24821 9.82661 4.23811 9.84281 4.23116C9.859 4.22421 9.87642 4.22055 9.89404 4.22039C9.91177 4.21986 9.9294 4.22321 9.94569 4.2302C9.96199 4.23719 9.97656 4.24766 9.98839 4.26087L10.5773 4.86956C10.5913 4.88152 10.6026 4.89625 10.6106 4.91282C10.6185 4.92938 10.623 4.94742 10.6236 4.96579C10.6242 4.98416 10.621 5.00246 10.6142 5.01953C10.6074 5.0366 10.5971 5.05207 10.584 5.06496Z" fill="#34B751"/>
</svg>
