<svg xmlns="http://www.w3.org/2000/svg" width="39" height="38" viewBox="0 0 39 38">
    <defs>
        <style>.a{fill:#f3cb35;}.b{fill:#fff;}</style>
    </defs>
    <g transform="translate(-30 -1402)">
        <rect class="a" width="39" height="38" rx="5" transform="translate(30 1402)"/>
        <g transform="translate(39 1410)">
            <circle class="b" cx="1.346" cy="1.346" r="1.346" transform="translate(8.275 19.307)"/>
            <circle class="b" cx="1.346" cy="1.346" r="1.346" transform="translate(15.63 19.307)"/>
            <path class="b"
                  d="M22.668,5.834A5.834,5.834,0,1,1,16.834,0,5.841,5.841,0,0,1,22.668,5.834Zm-2.693,0a.9.9,0,0,0-.9-.9H17.731V3.59a.9.9,0,1,0-1.8,0V4.936H14.59a.9.9,0,1,0,0,1.8h1.346V8.078a.9.9,0,0,0,1.8,0V6.731h1.346A.9.9,0,0,0,19.975,5.834Z"
                  transform="translate(-0.668)"/>
            <path class="b"
                  d="M8.26,6.039c0-.152.014-.3.023-.449H5.836L5.488,3.969A2.524,2.524,0,0,0,3.029,2.01L.691,2h0a.673.673,0,1,0,0,1.346l2.337.01a1.148,1.148,0,0,1,1.118.89L4.6,6.4l1.661,7.715H5.736a2.02,2.02,0,1,0,0,4.039H19.5a.673.673,0,1,0,0-1.346H5.736a.673.673,0,1,1,0-1.346H19.5a.686.686,0,0,0,.674-.535l.61-2.833a7.865,7.865,0,0,1-4.726,1.573A7.725,7.725,0,0,1,8.26,6.039Z"
                  transform="translate(0 -0.205)"/>
        </g>
    </g>
</svg>
