<svg xmlns="http://www.w3.org/2000/svg" width="39" height="38" viewBox="0 0 39 38"><defs><style>.a{fill:#26c6da;}.b{fill:#fff;}</style></defs><g transform="translate(-197 -1267)"><rect class="a" width="39" height="38" rx="5" transform="translate(197 1267)"/><g transform="translate(228 1296) rotate(180)"><g transform="translate(0 0)"><path class="b" d="M11.63,12.664,6.736,14.8A.564.564,0,0,1,6,14.548a.511.511,0,0,1,.27-.693l4.312-1.886-1.8-2.594L6.762,10.3a.565.565,0,0,1-.735-.245.51.51,0,0,1,.259-.7L8.745,8.235a.58.58,0,0,1,.235-.051l-8.9-4.54a.15.15,0,0,1-.075-.089.14.14,0,0,1,.015-.113L2.084.073A.155.155,0,0,1,2.217,0,.162.162,0,0,1,2.29.017l9.079,4.567a.148.148,0,0,1,.076.089.141.141,0,0,1-.015.113L9.363,8.218a.148.148,0,0,1-.073.059.529.529,0,0,1,.154.143L11.86,11.9a.5.5,0,0,1,.069.43A.532.532,0,0,1,11.63,12.664Z" transform="translate(11.05 5.148)"/><path class="b" d="M9.163,7.789a.159.159,0,0,1-.173-.068l-1.653-2.7a.32.32,0,0,0-.409-.11L.226,8.284a.16.16,0,0,1-.152,0A.144.144,0,0,1,0,8.155v-3.5a.145.145,0,0,1,.082-.13L9.051.017A.156.156,0,0,1,9.123,0,.163.163,0,0,1,9.2.021a.145.145,0,0,1,.074.125v7.5A.147.147,0,0,1,9.163,7.789Z" transform="translate(2.836)"/><path class="b" d="M9.732,0a.156.156,0,0,1,.133.072l2.063,3.369a.139.139,0,0,1,.015.113.15.15,0,0,1-.075.089L2.956,8.192h.01a.578.578,0,0,1,.238.051L5.5,9.287a.511.511,0,0,1,.259.7.565.565,0,0,1-.735.245L3.162,9.382l-1.8,2.591,4.393,1.89a.512.512,0,0,1,.274.691.564.564,0,0,1-.73.26L.323,12.673a.532.532,0,0,1-.3-.331A.5.5,0,0,1,.09,11.91L2.505,8.427a.545.545,0,0,1,.16-.147.153.153,0,0,1-.078-.061L.521,4.786a.141.141,0,0,1-.014-.114.147.147,0,0,1,.075-.088L9.66.017A.164.164,0,0,1,9.732,0Z" transform="translate(0 5.139)"/><path class="b" d="M9.05,8.287,2.361,4.922a.322.322,0,0,0-.409.111L.288,7.75a.16.16,0,0,1-.174.068A.147.147,0,0,1,0,7.676V.146A.146.146,0,0,1,.075.021.161.161,0,0,1,.154,0,.159.159,0,0,1,.227.017L9.2,4.528a.146.146,0,0,1,.082.13v3.5a.146.146,0,0,1-.075.125A.162.162,0,0,1,9.05,8.287Z" transform="translate(10.875)"/><path class="b" d="M8.594,2.338a.377.377,0,0,1,0,.4A5.01,5.01,0,0,1,4.325,5.071,5.01,5.01,0,0,1,.056,2.733a.377.377,0,0,1,0-.4A5.009,5.009,0,0,1,4.325,0,5.009,5.009,0,0,1,8.594,2.338ZM4.325.789A4.179,4.179,0,0,0,.906,2.535,4.181,4.181,0,0,0,4.325,4.282,4.18,4.18,0,0,0,7.744,2.535,4.179,4.179,0,0,0,4.325.789Z" transform="translate(7.198 12.804)"/><path class="b" d="M1.684,3.194A1.644,1.644,0,0,1,0,1.6,1.644,1.644,0,0,1,1.684,0,1.645,1.645,0,0,1,3.37,1.6,1.645,1.645,0,0,1,1.684,3.194Z" transform="translate(9.839 13.759)"/></g></g></g></svg>