<svg width="18" height="19" viewBox="0 0 18 19" fill="none" xmlns="http://www.w3.org/2000/svg">
<path d="M9 0.0263672C4.0374 0.0263672 0 4.06382 0 9.02642C0 13.989 4.0374 18.0264 9 18.0264C13.9626 18.0264 18 13.989 18 9.02642C18 4.06382 13.9626 0.0263672 9 0.0263672Z" fill="#111156"/>
<path d="M8.99963 3.84454C8.39821 3.84454 7.90894 4.33414 7.90894 4.93594C7.90894 5.5372 8.39821 6.02636 8.99963 6.02636C9.60104 6.02636 10.0903 5.5372 10.0903 4.93594C10.0903 4.33414 9.60104 3.84454 8.99963 3.84454Z" fill="#97C0FF"/>
<path d="M8.99982 7.66272C8.54797 7.66272 8.18164 8.02905 8.18164 8.4809V13.39C8.18164 13.8418 8.54797 14.2082 8.99982 14.2082C9.45168 14.2082 9.818 13.8418 9.818 13.39V8.4809C9.818 8.02905 9.45168 7.66272 8.99982 7.66272Z" fill="#97C0FF"/>
</svg>
