<svg width="18" height="19" viewBox="0 0 18 19" fill="none" xmlns="http://www.w3.org/2000/svg">
<path d="M14.2335 11.1667C13.8644 10.7824 13.4193 10.5769 12.9475 10.5769C12.4795 10.5769 12.0306 10.7786 11.6463 11.1629L10.4441 12.3613C10.3452 12.308 10.2462 12.2586 10.1511 12.2091C10.0142 12.1406 9.8848 12.076 9.77447 12.0075C8.64831 11.2922 7.62487 10.3601 6.64328 9.15402C6.1677 8.55289 5.84812 8.04688 5.61603 7.53326C5.92801 7.24791 6.21716 6.95116 6.4987 6.66581C6.60523 6.55928 6.71176 6.44895 6.81829 6.34242C7.61726 5.54345 7.61726 4.5086 6.81829 3.70963L5.77963 2.67097C5.66169 2.55303 5.53994 2.43128 5.4258 2.30954C5.19753 2.07365 4.95784 1.83016 4.71054 1.60188C4.34149 1.23664 3.90016 1.0426 3.436 1.0426C2.97183 1.0426 2.52289 1.23664 2.14243 1.60188C2.13863 1.60568 2.13863 1.60568 2.13482 1.60949L0.841255 2.91447C0.354265 3.40146 0.0765291 3.99498 0.0156554 4.68361C-0.0756551 5.79456 0.251541 6.82941 0.502645 7.50663C1.11899 9.16924 2.03971 10.7101 3.41317 12.3613C5.07959 14.3511 7.08461 15.9224 9.37498 17.0296C10.25 17.4443 11.4181 17.9351 12.723 18.0188C12.8029 18.0226 12.8866 18.0264 12.9627 18.0264C13.8416 18.0264 14.5797 17.7106 15.158 17.0828C15.1618 17.0752 15.1694 17.0714 15.1732 17.0638C15.371 16.8241 15.5993 16.6072 15.839 16.3752C16.0026 16.2192 16.17 16.0556 16.3336 15.8844C16.7103 15.4925 16.9081 15.0359 16.9081 14.568C16.9081 14.0962 16.7065 13.6435 16.3222 13.263L14.2335 11.1667Z" fill="#111156"/>
<path d="M9.72917 4.28801C10.726 4.45541 11.6315 4.92718 12.3543 5.65005C13.0772 6.37293 13.5452 7.27843 13.7164 8.27523C13.7582 8.52634 13.9751 8.70135 14.2224 8.70135C14.2528 8.70135 14.2795 8.69754 14.3099 8.69374C14.5915 8.64808 14.7779 8.38176 14.7322 8.10022C14.5268 6.89416 13.9561 5.79463 13.0848 4.92338C12.2136 4.05212 11.114 3.48143 9.90799 3.27598C9.62645 3.23033 9.36393 3.41675 9.31447 3.69449C9.26501 3.97222 9.44763 4.24235 9.72917 4.28801Z" fill="#97C0FF"/>
<path d="M17.9923 7.95185C17.6537 5.96584 16.7177 4.15866 15.2796 2.72051C13.8414 1.28237 12.0343 0.34644 10.0482 0.00783044C9.77051 -0.0416294 9.50799 0.148601 9.45853 0.426337C9.41288 0.707878 9.5993 0.970396 9.88084 1.01986C11.6538 1.32042 13.2707 2.16124 14.5567 3.44339C15.8427 4.72935 16.6797 6.3463 16.9802 8.11925C17.0221 8.37035 17.239 8.54537 17.4863 8.54537C17.5167 8.54537 17.5433 8.54156 17.5738 8.53776C17.8515 8.49591 18.0417 8.22958 17.9923 7.95185Z" fill="#97C0FF"/>
</svg>
