<svg width="15" height="20" viewBox="0 0 15 20" fill="none" xmlns="http://www.w3.org/2000/svg">
<path d="M13.125 20H1.875C0.841667 20 0 19.1592 0 18.125V9.375C0 8.34083 0.841667 7.5 1.875 7.5H13.125C14.1583 7.5 15 8.34083 15 9.375V18.125C15 19.1592 14.1583 20 13.125 20Z" fill="#111156"/>
<path d="M11.875 8.75C11.53 8.75 11.25 8.47 11.25 8.125V5C11.25 2.9325 9.5675 1.25 7.5 1.25C5.4325 1.25 3.75 2.9325 3.75 5V8.125C3.75 8.47 3.47 8.75 3.125 8.75C2.78 8.75 2.5 8.47 2.5 8.125V5C2.5 2.2425 4.7425 0 7.5 0C10.2575 0 12.5 2.2425 12.5 5V8.125C12.5 8.47 12.22 8.75 11.875 8.75Z" fill="#111156"/>
<path d="M7.50016 14.1667C6.581 14.1667 5.8335 13.4192 5.8335 12.5C5.8335 11.5808 6.581 10.8333 7.50016 10.8333C8.41933 10.8333 9.16683 11.5808 9.16683 12.5C9.16683 13.4192 8.41933 14.1667 7.50016 14.1667ZM7.50016 12.0833C7.271 12.0833 7.0835 12.27 7.0835 12.5C7.0835 12.73 7.271 12.9167 7.50016 12.9167C7.72933 12.9167 7.91683 12.73 7.91683 12.5C7.91683 12.27 7.72933 12.0833 7.50016 12.0833Z" fill="#97C0FF"/>
<path d="M7.5 16.6667C7.155 16.6667 6.875 16.3867 6.875 16.0417V13.75C6.875 13.405 7.155 13.125 7.5 13.125C7.845 13.125 8.125 13.405 8.125 13.75V16.0417C8.125 16.3867 7.845 16.6667 7.5 16.6667Z" fill="#97C0FF"/>
</svg>
