<svg width="42" height="42" viewBox="0 0 42 42" fill="none" xmlns="http://www.w3.org/2000/svg">
<circle cx="21" cy="21" r="20.25" fill="#4B7BE5" stroke="#4B7BE5" stroke-width="1.5"/>
<g clip-path="url(#clip0_10291_46148)">
<path d="M30.6845 27.8123H28.6233V19.2645C28.6233 19.1848 28.5926 19.1084 28.538 19.0521C28.4834 18.9958 28.4093 18.9641 28.332 18.9641H25.8262C25.749 18.9641 25.6749 18.9958 25.6203 19.0521C25.5656 19.1084 25.535 19.1848 25.535 19.2645V27.8093H22.5252V19.2645C22.5252 19.1848 22.4946 19.1084 22.4399 19.0521C22.3853 18.9958 22.3112 18.9641 22.234 18.9641H19.7272C19.6889 18.9641 19.6511 18.9719 19.6157 18.987C19.5804 19.0021 19.5483 19.0242 19.5212 19.0521C19.4942 19.08 19.4727 19.1131 19.4581 19.1496C19.4435 19.186 19.4359 19.225 19.4359 19.2645V27.8093H16.4466V19.2645C16.4466 19.1848 16.4159 19.1084 16.3613 19.0521C16.3067 18.9958 16.2326 18.9641 16.1553 18.9641H13.6495C13.5723 18.9641 13.4982 18.9958 13.4436 19.0521C13.3889 19.1084 13.3583 19.1848 13.3583 19.2645V27.8093H11.2913C11.214 27.8093 11.1399 27.841 11.0853 27.8973C11.0307 27.9536 11 28.03 11 28.1097V30.6906C11 30.7703 11.0307 30.8467 11.0853 30.903C11.1399 30.9593 11.214 30.991 11.2913 30.991H30.6845C30.7617 30.991 30.8358 30.9593 30.8904 30.903C30.945 30.8467 30.9757 30.7703 30.9757 30.6906V28.1157C30.9761 28.076 30.9689 28.0366 30.9544 27.9998C30.9399 27.963 30.9185 27.9296 30.8915 27.9013C30.8644 27.8731 30.8321 27.8507 30.7966 27.8355C30.7611 27.8202 30.723 27.8123 30.6845 27.8123Z" fill="white"/>
<path d="M30.7908 14.519L21.2423 11.0491C21.0867 10.9834 20.9124 10.9834 20.7568 11.0491L11.2112 14.519C11.1538 14.5378 11.104 14.5757 11.0697 14.6268C11.0355 14.6779 11.0186 14.7393 11.0219 14.8014V17.4684C11.0219 17.5481 11.0526 17.6245 11.1072 17.6808C11.1618 17.7371 11.2359 17.7688 11.3131 17.7688H30.7063C30.7836 17.7688 30.8577 17.7371 30.9123 17.6808C30.9669 17.6245 30.9976 17.5481 30.9976 17.4684V14.8004C30.9886 14.7394 30.965 14.6817 30.9289 14.6326C30.8928 14.5835 30.8453 14.5444 30.7908 14.519Z" fill="white"/>
</g>
<defs>
<clipPath id="clip0_10291_46148">
<rect width="20" height="20" fill="white" transform="translate(11 11)"/>
</clipPath>
</defs>
</svg>
