<svg width="42" height="42" viewBox="0 0 42 42" fill="none" xmlns="http://www.w3.org/2000/svg">
<circle cx="21" cy="21" r="20.5" fill="#4B7BE5" stroke="#4B7BE5"/>
<path d="M26.7874 31.15H26.7873H26.7845H26.7844V31C26.2503 31.0006 25.7247 30.8761 25.2558 30.638C24.787 30.3999 24.39 30.0558 24.1013 29.6374C23.8126 29.219 23.6416 28.7397 23.6039 28.2437C23.5662 27.7476 23.6631 27.2507 23.8857 26.7986L26.7874 31.15ZM26.7874 31.15C27.3334 31.1497 27.8714 31.0243 28.354 30.7844C28.8367 30.5444 29.2497 30.197 29.5558 29.7718C29.862 29.3466 30.0517 28.8569 30.1073 28.3457C30.1629 27.8346 30.0825 27.3188 29.8736 26.8441C29.6648 26.3695 29.3343 25.9512 28.9124 25.6254C28.4904 25.2997 27.9898 25.0763 27.4547 24.974C26.9197 24.8718 26.3659 24.8936 25.8419 25.0378C25.3552 25.1717 24.9075 25.4076 24.5328 25.7274L18.3645 21.9684C18.4735 21.66 18.5296 21.3369 18.5301 21.0113L18.5301 21.0103C18.5286 20.685 18.4725 20.3623 18.3642 20.0539L24.5418 16.2945C25.0833 16.7557 25.7719 17.0383 26.5018 17.099C27.2704 17.163 28.0399 16.9773 28.6797 16.572C29.3197 16.1666 29.7915 15.5657 30.0121 14.8698C30.2327 14.1737 30.1875 13.4276 29.8846 12.7595C29.5819 12.0917 29.0413 11.5445 28.3572 11.2089C27.6732 10.8733 26.8865 10.7691 26.1303 10.913C25.374 11.0569 24.6926 11.4407 24.2029 12.0014C23.713 12.5623 23.4455 13.2657 23.4483 13.9922M26.7874 31.15L23.6932 26.857L17.6042 23.1502C17.1674 23.5806 16.6081 23.8853 15.9924 24.029C15.3358 24.1821 14.6447 24.1451 14.011 23.9225C13.3772 23.6999 12.8297 23.3018 12.4429 22.7798C12.056 22.2576 11.8486 21.6366 11.85 20.9997C11.8515 20.3628 12.0617 19.7425 12.451 19.2219C12.8402 18.7014 13.3895 18.3055 14.0242 18.0854C14.6589 17.8654 15.3502 17.831 16.0061 17.9868C16.621 18.1328 17.1787 18.4397 17.6135 18.8716L23.7011 15.1656C23.5353 14.7945 23.4491 14.3958 23.4483 13.9922M23.4483 13.9922C23.4483 13.9922 23.4484 13.9923 23.4484 13.9923L23.5983 13.9917L23.4483 13.992C23.4483 13.9921 23.4483 13.9921 23.4483 13.9922Z" fill="white" stroke="white" stroke-width="0.3"/>
</svg>
