<svg width="214" height="198" viewBox="0 0 214 198" fill="none" xmlns="http://www.w3.org/2000/svg">
<path d="M56.3956 24.2755C38.1335 29.5847 21.6007 46.8973 22.8562 63.8261C24.0668 80.7514 43.1209 97.2859 55.2179 117.393C67.275 137.54 72.4199 161.262 86.4398 170.687C100.42 180.11 123.237 175.197 141.657 165.34C160.045 155.482 174.018 140.721 182.7 123.835C191.347 106.908 194.717 87.8643 189.259 72.6614C183.836 57.462 169.619 46.152 155.722 40.0646C141.78 34.0118 128.152 33.2699 111.382 29.4999C94.5696 25.7299 74.6144 18.975 56.3956 24.2755Z" fill="#4B7BE5" fill-opacity="0.5"/>
<path d="M48.7023 122.783L48.7023 122.783C52.1978 127.967 53.6543 131.687 53.6543 135.128C53.6543 142.36 52.1444 148.095 50.0246 152.003C47.8868 155.945 45.2061 157.909 42.9079 157.909C40.3051 157.909 37.2092 156.065 34.7332 153.219C32.2691 150.387 30.5215 146.677 30.5215 143.12C30.5215 140.023 31.172 138.269 31.8258 136.793C31.9044 136.616 31.9841 136.441 32.0634 136.266C32.649 134.979 33.2159 133.733 33.2159 131.885C33.2159 123.934 34.5591 119.39 36.2649 116.846C37.9477 114.337 40.0082 113.737 41.6193 113.737C43.1966 113.737 44.2899 114.145 45.0824 114.754C45.8819 115.369 46.4194 116.223 46.8219 117.189C47.1857 118.063 47.4266 118.994 47.6593 119.894C47.6857 119.996 47.712 120.098 47.7383 120.199C47.9878 121.156 48.2531 122.116 48.7023 122.783Z" stroke="#4B7BE5"/>
<path d="M43.0156 133.039V168.31" stroke="#4B7BE5" stroke-miterlimit="10" stroke-linecap="round"/>
<path d="M43.0156 141.702L47.966 136.752" stroke="#4B7BE5" stroke-miterlimit="10" stroke-linecap="round"/>
<path d="M43.0167 150.984L38.0664 146.033" stroke="#4B7BE5" stroke-miterlimit="10" stroke-linecap="round"/>
<path d="M153.129 120.344V168.247H54.209V42.6954H153.129V115.848" fill="#4B7BE5"/>
<path d="M153.129 120.344V168.247H54.209V42.6954H153.129V115.848" stroke="#780000" stroke-width="2.5" stroke-linecap="round" stroke-linejoin="round"/>
<path d="M60.8418 73.1349V50.0021H79.0243V73.1349H60.8418Z" fill="#BA381C" stroke="#780000"/>
<path d="M94.2568 73.1349V50.0021H112.439V73.1349H94.2568Z" fill="#BA381C" stroke="#780000"/>
<path d="M127.671 73.1349V50.0021H145.853V73.1349H127.671Z" fill="#BA381C" stroke="#780000"/>
<path d="M152.542 162.122H54.7734V168.31H152.542V162.122Z" fill="#780000"/>
<path d="M91.7347 128.006H65.2754V168.473H91.7347V128.006Z" fill="#780000"/>
<path d="M146.902 127.66H98.1338V150.661H146.902V127.66Z" fill="#780000"/>
<path d="M159.353 94.8025H47.1172V97.3965H159.353V94.8025Z" fill="#780000"/>
<path d="M159.353 73.0125H47.1172V75.6066H159.353V73.0125Z" fill="#780000"/>
<path d="M159.353 38.2522H47.1172V44.305H159.353V38.2522Z" fill="#780000"/>
<path d="M162.467 115.728L153.128 97.3965H54.2087L44.8701 115.728H162.467Z" fill="#780000"/>
<path d="M57.3218 97.3965H54.209V115.728H57.3218V97.3965Z" fill="#4B7BE5"/>
<path d="M64.6929 97.3965H61.5801V115.728H64.6929V97.3965Z" fill="#4B7BE5"/>
<path d="M72.0611 97.3965H68.9482V115.728H72.0611V97.3965Z" fill="#4B7BE5"/>
<path d="M79.4302 97.3965H76.3174V115.728H79.4302V97.3965Z" fill="#4B7BE5"/>
<path d="M86.8004 97.3965H83.6875V115.728H86.8004V97.3965Z" fill="#4B7BE5"/>
<path d="M94.1705 97.3965H91.0576V115.728H94.1705V97.3965Z" fill="#4B7BE5"/>
<path d="M101.541 97.3965H98.4277V115.728H101.541V97.3965Z" fill="#4B7BE5"/>
<path d="M108.91 97.3965H105.797V115.728H108.91V97.3965Z" fill="#4B7BE5"/>
<path d="M116.278 97.3965H113.165V115.728H116.278V97.3965Z" fill="#4B7BE5"/>
<path d="M123.649 97.3965H120.536V115.728H123.649V97.3965Z" fill="#4B7BE5"/>
<path d="M131.018 97.3965H127.905V115.728H131.018V97.3965Z" fill="#4B7BE5"/>
<path d="M138.389 97.3965H135.276V115.728H138.389V97.3965Z" fill="#4B7BE5"/>
<path d="M145.757 97.3965H142.645V115.728H145.757V97.3965Z" fill="#4B7BE5"/>
<path d="M153.128 97.3965H150.015V115.728H153.128V97.3965Z" fill="#4B7BE5"/>
<path d="M145.345 129.044H99.6895V149.277H145.345V129.044Z" fill="#BA381C"/>
<path d="M90.3525 129.39H66.6602V168.473H90.3525V129.39Z" fill="#BA381C"/>
<path d="M120.811 129.044L100.577 149.277H114.044L134.277 129.044H120.811Z" fill="#4B7BE5"/>
<path d="M119.577 149.277L139.811 129.044H137.239L117.006 149.277H119.577Z" fill="#4B7BE5"/>
<path d="M145.345 129.044H142.601L122.367 149.277H128.397L145.345 132.33V129.044Z" fill="#4B7BE5"/>
</svg>
