<svg xmlns="http://www.w3.org/2000/svg" width="208" height="250" viewBox="0 0 208 250" fill="none">
<path d="M32.7255 37.9822C12.3851 50.7757 -2.02088 73.7571 0.231915 95.4195C2.5351 117.031 21.503 137.369 28.0183 163.003C34.5336 188.638 28.6556 219.655 39.5372 235.434C50.3654 251.265 78.0718 251.95 100.647 244.99C123.288 238.081 140.833 223.526 160.337 210.49C179.842 197.501 201.27 185.985 206.309 169.37C211.348 152.806 199.986 131.132 187.635 114.974C175.333 98.7512 161.956 88.0683 148.137 73.1228C134.318 58.1773 120.006 39.0137 99.7164 30.7347C79.379 22.4497 53.0599 25.1442 32.7255 37.9822Z" fill="#4B7BE5" fill-opacity="0.1"/>
<path d="M88.7783 181.418L93.0764 104.793" stroke="#7D1700" stroke-width="1.5" stroke-miterlimit="10" stroke-linecap="round"/>
<path d="M88.7783 181.418L140.652 112.649" stroke="#7D1700" stroke-width="1.5" stroke-miterlimit="10" stroke-linecap="round"/>
<path d="M88.7783 181.418L143.912 61.3679" stroke="#7D1700" stroke-width="1.5" stroke-miterlimit="10" stroke-linecap="round"/>
<path d="M165.744 14.2219C177.31 18.4294 182.56 34.0485 176.986 49.3713C171.412 64.6941 157.354 73.2892 145.787 69.0817C134.221 64.8741 128.971 49.255 134.545 33.9322C140.119 18.6094 154.177 10.0143 165.744 14.2219Z" fill="#BA381C" stroke="#780000" stroke-width="1.5"/>
<path d="M98.5158 52.5515C110.794 53.4079 120.146 66.9748 119.011 83.2405C117.877 99.5061 106.732 111.643 94.4538 110.787C82.1757 109.93 72.8238 96.3636 73.9583 80.0979C75.0929 63.8323 86.2377 51.6951 98.5158 52.5515Z" fill="#BA381C" stroke="#780000" stroke-width="1.5"/>
<path d="M169.963 55.1531C183.398 61.6915 188.173 80.0337 180.276 96.2599C172.38 112.486 154.999 120.046 141.564 113.508C128.129 106.97 123.354 88.6274 131.25 72.4012C139.147 56.175 156.527 48.6148 169.963 55.1531Z" fill="#BA381C" stroke="#780000" stroke-width="1.5"/>
<path d="M116.336 4.29906C128.717 6.18258 137.128 19.9175 134.797 35.2405C132.466 50.5635 120.351 61.1759 107.97 59.2924C95.5891 57.4089 87.1784 43.674 89.5095 28.351C91.8405 13.028 103.955 2.41554 116.336 4.29906Z" fill="#BA381C" stroke="#780000" stroke-width="1.5"/>
<path d="M130.98 44.4774C136.225 46.0688 140.142 50.3849 142.206 56.1505C144.271 61.916 144.465 69.0995 142.273 76.3261C140.08 83.5526 135.926 89.4165 131.006 93.0628C126.086 96.709 120.43 98.1202 115.185 96.5288C109.941 94.9373 106.023 90.6213 103.959 84.8557C101.895 79.0901 101.7 71.9067 103.893 64.6801C106.086 57.4535 110.24 51.5896 115.16 47.9434C120.08 44.2971 125.735 42.8859 130.98 44.4774Z" fill="#4B7BE5" stroke="#780000"/>
<path d="M94.3573 110.639L97.0251 116.905C97.1027 117.089 97.1307 117.29 97.1062 117.489C97.0818 117.687 97.0058 117.875 96.8857 118.035C96.7657 118.194 96.6059 118.32 96.4223 118.398C96.2387 118.477 96.0377 118.506 95.8394 118.482L89.084 117.649C88.8852 117.625 88.6963 117.549 88.5364 117.429C88.3764 117.308 88.251 117.148 88.1729 116.964C88.0947 116.779 88.0665 116.578 88.0912 116.379C88.1158 116.18 88.1924 115.992 88.3133 115.832L92.4128 110.399C92.5335 110.242 92.693 110.12 92.8755 110.044C93.058 109.967 93.2572 109.94 93.4535 109.964C93.6497 109.989 93.8363 110.064 93.9948 110.182C94.1533 110.3 94.2782 110.458 94.3573 110.639Z" fill="#7D1700"/>
<path d="M88.7784 181.418L78.9966 71.4463" stroke="#7D1700" stroke-width="1.5" stroke-miterlimit="10" stroke-linecap="round"/>
<path d="M88.7783 181.418L114.863 94.2705" stroke="#7D1700" stroke-width="1.5" stroke-miterlimit="10" stroke-linecap="round"/>
<path d="M115.83 94.3505L117.383 100.981C117.428 101.176 117.421 101.379 117.363 101.57C117.305 101.761 117.197 101.934 117.051 102.07C116.905 102.207 116.726 102.302 116.531 102.347C116.337 102.392 116.134 102.385 115.942 102.327L109.421 100.35C109.23 100.292 109.057 100.185 108.92 100.039C108.784 99.893 108.688 99.7137 108.642 99.519C108.597 99.3243 108.604 99.121 108.662 98.9298C108.72 98.7385 108.828 98.5658 108.974 98.4293L113.942 93.7785C114.087 93.6415 114.267 93.5453 114.461 93.4997C114.656 93.4541 114.86 93.4606 115.051 93.5186C115.243 93.5766 115.415 93.6841 115.552 93.8301C115.689 93.9762 115.785 94.1557 115.83 94.3505Z" fill="#4B7BE5"/>
<path d="M142.404 111.496L141.929 118.284C141.916 118.484 141.85 118.678 141.738 118.844C141.626 119.011 141.472 119.145 141.292 119.233C141.111 119.321 140.91 119.36 140.71 119.345C140.51 119.33 140.317 119.263 140.151 119.149L134.519 115.343C134.353 115.231 134.219 115.078 134.132 114.898C134.044 114.718 134.005 114.518 134.019 114.319C134.034 114.119 134.1 113.927 134.212 113.761C134.324 113.595 134.478 113.462 134.658 113.375L140.773 110.393C140.953 110.306 141.152 110.268 141.351 110.283C141.549 110.297 141.741 110.364 141.906 110.475C142.071 110.587 142.204 110.74 142.291 110.919C142.378 111.098 142.417 111.297 142.404 111.496Z" fill="#7D1700"/>
<path d="M104.047 39.4532C105.502 57.5369 94.3158 73.0408 79.2465 74.2533C64.1771 75.4657 50.6559 61.9497 49.201 43.866C47.746 25.7822 58.9323 10.2783 74.0016 9.06585C89.071 7.8534 102.592 21.3694 104.047 39.4532Z" fill="#4B7BE5" stroke="#780000"/>
<path d="M79.8147 72.1666L83.6682 77.7689C83.7801 77.9335 83.847 78.1245 83.8623 78.3229C83.8775 78.5214 83.8406 78.7204 83.7552 78.9001C83.6699 79.0799 83.5389 79.2343 83.3755 79.3478C83.212 79.4613 83.0217 79.5302 82.8234 79.5474L76.0502 80.1077C75.851 80.1231 75.6513 80.086 75.471 80C75.2906 79.9141 75.136 79.7823 75.0226 79.6178C74.9092 79.4534 74.8409 79.2621 74.8246 79.063C74.8083 78.8639 74.8446 78.664 74.9297 78.4833L77.8495 72.3355C77.9341 72.1543 78.065 71.9986 78.2289 71.8841C78.3928 71.7696 78.584 71.7003 78.7833 71.6831C78.9825 71.666 79.1828 71.7017 79.3638 71.7865C79.5449 71.8714 79.7004 72.0025 79.8147 72.1666Z" fill="#4B7BE5"/>
<path d="M73.1932 178.16L61.7358 235.812L126.154 248.614L137.611 190.961L73.1932 178.16Z" fill="#780000"/>
<path d="M73.3946 178.463L137.318 191.167L125.956 248.326L62.0328 235.618L73.3946 178.463ZM72.9974 177.87L61.4399 236.025L126.356 248.928L137.916 190.779L73.0003 177.879L72.9974 177.87Z" fill="#7D1700"/>
<path d="M86.3541 240.971L101.42 243.965L104.829 226.812L89.763 223.817L86.3541 240.971Z" fill="#4B7BE5"/>
<path d="M70.085 213.515L92.7739 218.024L95.2624 205.502L72.5735 200.993L70.085 213.515Z" fill="#4B7BE5"/>
<path d="M85.9545 214.766L91.083 215.785L92.8909 206.688L87.7623 205.669L85.9545 214.766Z" fill="#7D1700"/>
<path d="M73.5057 204.689L86.3213 207.235L86.6656 205.503L73.8501 202.956L73.5057 204.689Z" fill="#7D1700"/>
<path d="M72.9134 207.653L85.729 210.2L86.0734 208.467L73.2578 205.92L72.9134 207.653Z" fill="#7D1700"/>
</svg>
