
<svg width="13" height="7" viewBox="0 0 13 7" fill="none" xmlns="http://www.w3.org/2000/svg">
<path d="M5.99866 2.11005L1.46106 6.74302C1.38168 6.82446 1.28731 6.88909 1.18336 6.93319C1.07942 6.9773 0.967949 7 0.855372 7C0.742795 7 0.631329 6.9773 0.527382 6.93319C0.423436 6.88909 0.32906 6.82446 0.249681 6.74302C0.0897193 6.57803 7.68759e-09 6.35533 1.04549e-08 6.12327C1.32223e-08 5.8912 0.0897193 5.6685 0.249681 5.50352L5.38891 0.254683C5.54496 0.0960952 5.75491 0.00496299 5.97513 0.000232291C6.19534 -0.00449841 6.40887 0.0775357 6.57133 0.229282L11.7507 5.49989C11.8305 5.58104 11.8938 5.67742 11.9371 5.78354C11.9803 5.88965 12.0027 6.00343 12.0028 6.11836C12.003 6.23329 11.981 6.34712 11.938 6.45337C11.8951 6.55962 11.832 6.65619 11.7525 6.73758C11.6729 6.81896 11.5785 6.88357 11.4744 6.92771C11.3704 6.97184 11.2589 6.99465 11.1463 6.99482C10.9187 6.99516 10.7004 6.90328 10.5393 6.73939L5.99866 2.11005Z" fill="#212121" fill-opacity="0.4"/>
</svg>