<svg width="24" height="20" viewBox="0 0 24 20" fill="none" xmlns="http://www.w3.org/2000/svg">
<path d="M3.27992 19.3834C3.31045 19.3793 3.34138 19.3793 3.37191 19.3834L8.48378 19.9624C9.7558 20.1078 11.04 19.8333 12.1477 19.1795L17.5996 15.9662C17.7361 15.8854 17.8461 15.7652 17.9158 15.6208C17.9855 15.4765 18.0117 15.3143 17.9912 15.1547C17.9707 14.9952 17.9043 14.8454 17.8005 14.7242C17.6966 14.603 17.5599 14.5158 17.4076 14.4737C17.306 14.4451 17.1999 14.4376 17.0955 14.4516C16.991 14.4657 16.8904 14.5009 16.7996 14.5552L12.5317 17.0672C12.2276 17.246 11.8828 17.3402 11.5317 17.3404H7.32781V16.5248H11.3277C11.5399 16.5248 11.7434 16.4389 11.8934 16.2859C12.0434 16.133 12.1277 15.9256 12.1277 15.7093C12.1277 15.4929 12.0434 15.2855 11.8934 15.1326C11.7434 14.9796 11.5399 14.8937 11.3277 14.8937H8.52778C8.47703 14.8949 8.42659 14.8852 8.37979 14.8651L7.09182 14.3391C6.66665 14.1669 6.21334 14.0783 5.75585 14.0781H5.23587C4.58356 14.0778 3.94344 14.2583 3.38391 14.6001L2.33194 15.2444C2.2702 15.2817 2.19974 15.3014 2.12795 15.3015H0V19.3793L3.27992 19.3834Z" fill="#060B29"/>
<path d="M13.8606 3.47656H7.57271C7.48344 4.19427 7.16268 4.86136 6.6609 5.37291C6.15912 5.88447 5.50477 6.21147 4.80078 6.30249V8.80626C5.50477 8.89728 6.15912 9.22428 6.6609 9.73584C7.16268 10.2474 7.48344 10.9145 7.57271 11.6322H17.2285C17.3177 10.9145 17.6385 10.2474 18.1403 9.73584C18.6421 9.22428 19.2964 8.89728 20.0004 8.80626V6.67357C19.7667 6.71587 19.5298 6.7377 19.2924 6.73881H18.7724C18.2106 6.73916 17.6539 6.6298 17.1325 6.41667L16.0325 5.96811L15.0245 6.56347C15.1391 6.88088 15.1986 7.21617 15.2005 7.55438C15.2011 8.09374 15.0518 8.62224 14.7699 9.07866C14.488 9.53508 14.0851 9.90074 13.6077 10.1333C13.1303 10.3658 12.5981 10.4557 12.0727 10.3925C11.5473 10.3294 11.0502 10.1157 10.639 9.77639C10.2277 9.43704 9.91924 8.98585 9.74921 8.4751C9.57917 7.96436 9.55456 7.41494 9.67822 6.89052C9.80188 6.3661 10.0687 5.88812 10.4479 5.51197C10.8271 5.13582 11.303 4.87688 11.8206 4.76515C11.9247 4.6502 12.0446 4.55129 12.1766 4.47155L13.8606 3.47656ZM16.4005 7.14659H17.2005V7.96216H16.4005V7.14659ZM8.40069 7.96216H7.60071V7.14659H8.40069V7.96216Z" fill="#060B29"/>
<path d="M4.80078 9.62891V11.6311H6.76473C6.68181 11.1308 6.44817 10.6692 6.09624 10.3104C5.7443 9.95163 5.29154 9.71344 4.80078 9.62891Z" fill="#060B29"/>
<path d="M11.3764 5.80469C11.0779 5.98382 10.8306 6.23963 10.6594 6.54659C10.4881 6.85355 10.3988 7.20093 10.4004 7.55407C10.4004 8.09482 10.6111 8.61342 10.9862 8.99579C11.3612 9.37816 11.8699 9.59298 12.4004 9.59298C12.9308 9.59298 13.4395 9.37816 13.8145 8.99579C14.1896 8.61342 14.4003 8.09482 14.4003 7.55407C14.3991 7.35933 14.3708 7.16576 14.3163 6.9791L13.7763 7.29717C13.5273 7.44423 13.244 7.52009 12.9562 7.51676C12.6684 7.51342 12.3869 7.43102 12.1412 7.27823C11.8955 7.12545 11.6948 6.90793 11.5602 6.64859C11.4256 6.38926 11.3621 6.09772 11.3764 5.80469Z" fill="#4B7BE5"/>
<path d="M22.0802 0.612866C22.0395 0.622304 21.9975 0.623689 21.9562 0.616944L16.8444 0.0378943C15.5719 -0.107623 14.2872 0.168325 13.1805 0.824912L10.0605 2.65993H15.2484L15.6404 2.42749L16.0404 3.13703L12.5765 5.17594C12.4859 5.22824 12.407 5.29904 12.3445 5.38391C12.2462 5.51095 12.1876 5.66514 12.1762 5.82653C12.1647 5.98791 12.2011 6.14908 12.2805 6.28918C12.3901 6.47344 12.5655 6.60733 12.7697 6.66281C12.974 6.7183 13.1914 6.69108 13.3765 6.58686L15.8004 5.15963C15.853 5.12955 15.9115 5.11176 15.9717 5.10752C16.0319 5.10329 16.0922 5.11273 16.1484 5.13516L17.4324 5.65712C17.858 5.83295 18.3131 5.92296 18.7723 5.92218H19.2923C19.6292 5.92223 19.9645 5.87419 20.2883 5.77945C20.5899 5.68998 20.879 5.56114 21.1483 5.39614L22.1962 4.75592C22.258 4.71857 22.3284 4.69886 22.4002 4.69883H24.0002V0.221396L22.0802 0.612866Z" fill="#060B29"/>
<path d="M19.9991 9.62891C19.5084 9.71344 19.0556 9.95163 18.7036 10.3104C18.3517 10.6692 18.1181 11.1308 18.0352 11.6311H19.9991V9.62891Z" fill="#060B29"/>
<path d="M6.76473 3.47656H4.80078V5.47877C5.29154 5.39424 5.7443 5.15604 6.09624 4.79725C6.44817 4.43846 6.68181 3.97688 6.76473 3.47656Z" fill="#060B29"/>
</svg>
