
<svg width="24" height="19" viewBox="0 0 24 19" fill="none" xmlns="http://www.w3.org/2000/svg">
<path d="M0 17.7724C0 18.4473 0.543815 18.9994 1.20848 18.9994H18.7314C19.3961 18.9994 19.9399 18.4473 19.9399 17.7724V10.1035H0V17.7724ZM2.41696 15.6251H6.64663C6.97896 15.6251 7.25087 15.9012 7.25087 16.2386C7.25087 16.5761 6.97896 16.8522 6.64663 16.8522H2.41696C2.08463 16.8522 1.81272 16.5761 1.81272 16.2386C1.81272 15.9012 2.08463 15.6251 2.41696 15.6251Z" fill="#060B29"/>
<path d="M18.7314 5.50195H1.20848C0.543815 5.50195 0 6.05411 0 6.72898V8.87627H19.9399V6.72898C19.9399 6.05411 19.3961 5.50195 18.7314 5.50195Z" fill="#060B29"/>
<path d="M22.9188 9.81802C22.9188 9.74345 22.8942 9.69374 22.8451 9.61917C22.4764 9.17177 22.1815 8.79893 21.9603 8.47581C22.1077 8.20239 22.206 7.95384 22.2798 7.73014L23.779 7.48158C23.8281 7.48158 23.8773 7.43187 23.9265 7.38216C23.9756 7.30759 24.0002 7.25788 24.0002 7.18331V5.36884C24.0002 5.29427 23.9756 5.24456 23.9265 5.16999C23.8773 5.12028 23.8281 5.07057 23.7544 5.07057L22.2798 4.84687C22.206 4.62317 22.1077 4.34975 21.9603 4.05149C22.0586 3.90235 22.206 3.70351 22.4027 3.45495C22.5993 3.20639 22.7222 3.0324 22.8205 2.93298C22.8696 2.85841 22.8942 2.8087 22.8942 2.73413C22.8942 2.56014 22.4272 2.03817 21.4933 1.16822C21.4196 1.11851 21.3704 1.09365 21.2967 1.09365C21.223 1.09365 21.1492 1.11851 21.1001 1.16822L19.9449 2.03817C19.6746 1.88904 19.4288 1.78961 19.2076 1.7399L18.9864 0.248557C18.9864 0.17399 18.9373 0.124279 18.8881 0.0745672C18.839 0.0248557 18.7652 0 18.6915 0H16.8974C16.7499 0 16.6516 0.0745672 16.6025 0.223702C16.5287 0.521971 16.455 1.01909 16.3813 1.7399C16.1109 1.83932 15.8406 1.93875 15.6439 2.06303L14.5134 1.16822C14.4397 1.11851 14.3905 1.09365 14.3168 1.09365C14.1939 1.09365 13.9481 1.2925 13.5549 1.66533C13.1616 2.06303 12.8913 2.33644 12.7684 2.53529C12.7193 2.585 12.6947 2.65956 12.6947 2.73413C12.6947 2.78384 12.7193 2.85841 12.7684 2.93298C13.1371 3.38038 13.432 3.75322 13.6532 4.07634C13.5057 4.34975 13.4074 4.59831 13.3337 4.82201L11.8345 5.04572C11.7853 5.04572 11.7362 5.09543 11.687 5.14514C11.6379 5.21971 11.6133 5.26942 11.6133 5.34398V7.15845C11.6133 7.23302 11.6379 7.28273 11.687 7.3573C11.7362 7.40701 11.7853 7.45672 11.8591 7.45672L13.3337 7.70528C13.4074 7.95384 13.5303 8.22725 13.6778 8.50066C13.5795 8.6498 13.432 8.84864 13.2108 9.0972C13.0142 9.34576 12.8667 9.51975 12.8176 9.61917C12.7684 9.69374 12.7438 9.74345 12.7438 9.81802C12.7438 9.99201 13.2108 10.514 14.1447 11.3839C14.2185 11.4336 14.2676 11.4585 14.3413 11.4585C14.4151 11.4585 14.4888 11.4336 14.538 11.3839L15.6931 10.514C15.9634 10.6631 16.2092 10.7625 16.4304 10.8122L16.6516 12.3284C16.6516 12.403 16.7008 12.4527 16.7499 12.5024C16.7991 12.5521 16.8728 12.577 16.9465 12.577H18.7652C18.9127 12.577 19.011 12.5024 19.0602 12.3533C19.1339 12.055 19.2076 11.5331 19.2814 10.8371C19.5517 10.7625 19.7975 10.6631 20.0187 10.5388L21.1492 11.4336C21.223 11.4834 21.2721 11.5082 21.3458 11.5082C21.4687 11.5082 21.7145 11.3094 22.1077 10.9117C22.501 10.514 22.7713 10.2157 22.9188 10.0417C22.8942 9.96715 22.9188 9.91744 22.9188 9.81802ZM19.5517 8.07812C19.0602 8.57523 18.4703 8.82379 17.7822 8.82379C17.094 8.82379 16.5041 8.57523 16.0126 8.07812C15.5211 7.581 15.2753 6.98446 15.2753 6.2885C15.2753 5.59254 15.5211 4.996 16.0126 4.49889C16.5041 4.00177 17.094 3.75322 17.7822 3.75322C18.4703 3.75322 19.0602 4.00177 19.5517 4.49889C20.0433 4.996 20.289 5.59254 20.289 6.2885C20.289 6.98446 20.0433 7.581 19.5517 8.07812Z" fill="#4B7BE5"/>
</svg>
