
<svg width="24" height="24" viewBox="0 0 24 24" fill="none" xmlns="http://www.w3.org/2000/svg">
<path d="M23.3275 6.14666C22.186 3.2198 19.6689 0.995386 16.5957 0.263672C17.503 1.55149 18.1762 3.60029 18.5274 6.14666H23.3275Z" fill="#060B29"/>
<path d="M23.706 7.31641H18.6426C18.7011 8.07739 18.7304 8.83837 18.7304 9.65789C18.7304 9.77497 18.7304 9.89204 18.7304 10.0384C19.6377 10.2725 20.3402 11.0628 20.4572 11.9994H23.706C23.8817 11.2384 23.9987 10.4774 23.9987 9.65789C23.9987 8.83837 23.9109 8.07739 23.706 7.31641Z" fill="#060B29"/>
<path d="M20.4883 17.0939C21.7468 16.0695 22.742 14.6938 23.3273 13.1719H20.4883V17.0939Z" fill="#060B29"/>
<path d="M12.0892 0.263672C9.01599 0.995386 6.4989 3.2198 5.35742 6.14666H10.1867C10.5087 3.60029 11.1819 1.55149 12.0892 0.263672Z" fill="#060B29"/>
<path d="M9.95194 9.95058C9.95194 9.86277 9.95194 9.7457 9.95194 9.65789C9.95194 8.83837 9.98121 8.07739 10.0397 7.31641H4.97628C4.80067 8.07739 4.68359 8.83837 4.68359 9.65789C4.68359 9.7457 4.68359 9.86277 4.68359 9.95058H9.95194Z" fill="#060B29"/>
<path d="M11.123 9.65789C11.123 9.7457 11.123 9.86277 11.123 9.95058H17.5621C17.5621 9.86277 17.5621 9.7457 17.5621 9.65789C17.5621 8.83837 17.5329 8.04812 17.4743 7.31641H11.2109C11.1523 8.04812 11.123 8.83837 11.123 9.65789Z" fill="#060B29"/>
<path d="M17.3282 6.1464C16.8306 2.40002 15.5136 0 14.3428 0C13.1721 0 11.855 2.40002 11.3574 6.1464H17.3282Z" fill="#060B29"/>
<path d="M0 22.8289C0 23.4728 0.526834 23.9996 1.17074 23.9996H18.1465C18.7904 23.9996 19.3173 23.4728 19.3173 22.8289V15.5117H0V22.8289ZM2.34149 20.7801H6.43909C6.76104 20.7801 7.02446 21.0435 7.02446 21.3654C7.02446 21.6874 6.76104 21.9508 6.43909 21.9508H2.34149C2.01953 21.9508 1.75611 21.6874 1.75611 21.3654C1.75611 21.0435 2.01953 20.7801 2.34149 20.7801Z" fill="#060B29"/>
<path d="M18.1465 11.1211H1.17074C0.526834 11.1211 0 11.6479 0 12.2918V14.3406H19.3173V12.2918C19.3173 11.6479 18.7904 11.1211 18.1465 11.1211Z" fill="#4B7BE5"/>
</svg>
