<svg xmlns="http://www.w3.org/2000/svg" width="287.802" height="195.56" viewBox="0 0 287.802 195.56">
    <g id="Group_4596" data-name="Group 4596" transform="translate(-51.597 -129.007)">
        <g id="Group_4589" data-name="Group 4589" transform="translate(92.339 279.095)">
            <path id="Path_250" data-name="Path 250" d="M137.354,265.844A1.843,1.843,0,1,1,135.51,264,1.843,1.843,0,0,1,137.354,265.844Z" transform="translate(-133.667 -264)" fill="#bfd7fe" stroke="#88f1d9" stroke-linecap="round" stroke-linejoin="round" stroke-width="2.286"/>
            <path id="Path_251" data-name="Path 251" d="M140.437,268.926a1.843,1.843,0,1,1-1.843-1.843A1.843,1.843,0,0,1,140.437,268.926Z" transform="translate(-135.532 -265.865)" fill="#ffd538" stroke="#ffd538" stroke-width="1"/>
        </g>
        <g id="Group_4587" data-name="Group 4587" transform="translate(271.735 206.917)">
            <g id="Group_94" data-name="Group 94" transform="translate(2.952 2.952)">
                <path id="Path_244" data-name="Path 244" d="M695.546,406.259a2.713,2.713,0,1,1,2.713-2.713A2.716,2.716,0,0,1,695.546,406.259Zm0-4.149a1.436,1.436,0,1,0,1.436,1.436A1.438,1.438,0,0,0,695.546,402.11Z" transform="translate(-692.833 -400.833)" fill="#89f2d9"/>
            </g>
            <g id="Group_95" data-name="Group 95">
                <path id="Path_245" data-name="Path 245" d="M677.046,387.759a2.713,2.713,0,1,1,2.713-2.713A2.716,2.716,0,0,1,677.046,387.759Zm0-4.149a1.436,1.436,0,1,0,1.436,1.436A1.438,1.438,0,0,0,677.046,383.61Z" transform="translate(-674.333 -382.333)" fill="none" stroke="#ffd538" stroke-miterlimit="10" stroke-width="1"/>
            </g>
        </g>
        <g id="Group_4590" data-name="Group 4590" transform="translate(52.483 188)">
            <path id="Path_256" data-name="Path 256" d="M657.52,290.015a2.407,2.407,0,0,1,0,3.427l-3.46-3.427A2.463,2.463,0,0,1,657.52,290.015Z" transform="translate(-650.546 -288.192)" fill="#ffd538" stroke="#ffd538" stroke-width="1"/>
            <path id="Path_257" data-name="Path 257" d="M634.778,286.4a2.407,2.407,0,0,1,0-3.427l3.46,3.427A2.463,2.463,0,0,1,634.778,286.4Z" transform="translate(-634.061 -282.971)" fill="#ffd538" stroke="#ffd538" stroke-miterlimit="10" stroke-width="1.771"/>
        </g>
        <circle id="Ellipse_184" data-name="Ellipse 184" cx="3.403" cy="3.403" r="3.403" transform="translate(243.672 295.857)" fill="none" stroke="#ffd538" stroke-linecap="round" stroke-linejoin="round" stroke-width="1"/>
        <circle id="Ellipse_186" data-name="Ellipse 186" cx="3.452" cy="3.452" r="3.452" transform="translate(254.672 255.289)" fill="none" stroke="#ffd538" stroke-linecap="round" stroke-linejoin="round" stroke-width="1"/>
        <circle id="Ellipse_187" data-name="Ellipse 187" cx="2.521" cy="2.521" r="2.521" transform="translate(83.437 319.024)" fill="none" stroke="#bfd7fe" stroke-linecap="round" stroke-linejoin="round" stroke-width="1"/>
        <g id="Group_4591" data-name="Group 4591" transform="translate(335.082 229.198)">
            <rect id="Rectangle_6" data-name="Rectangle 6" width="2.221" height="2.221" rx="0.975" transform="translate(0 1.571) rotate(-45)" fill="none" stroke="#ffd538" stroke-miterlimit="10" stroke-width="1.663"/>
        </g>
        <g id="Group_62" data-name="Group 62" transform="translate(145.576 308.147)">
            <path id="Path_113" data-name="Path 113" d="M208.542,332.631l5.789-3.015-.563,4.845Z" transform="translate(-206.118 -323.584)" fill="#ffd538" stroke="#ffd538" stroke-width="1"/>
        </g>
        <path id="Path_2501" data-name="Path 2501" d="M208.542,337.039l8.357-7.423-.814,11.93Z" transform="translate(-111.299 -109.063)" fill="#88f1d9" stroke="#89f2d9" stroke-width="1"/>
        <path id="Path_2505" data-name="Path 2505" d="M208.542,334.58l5.589-4.964-.544,7.978Z" transform="translate(97.894 -67.423)" fill="#89f2d9" stroke="#89f2d9" stroke-width="1"/>
        <path id="Path_2506" data-name="Path 2506" d="M208.542,334.58l5.589-4.964-.544,7.978Z" transform="translate(41.936 -199.423)" fill="#ffd538" stroke="#ffd538" stroke-width="1"/>
        <path id="Path_2504" data-name="Path 2504" d="M208.542,334.452l5.445-4.836-.53,7.772Z" transform="translate(85.076 -23.208)" fill="#ffd538" stroke="#ffd538" stroke-width="1"/>
        <path id="Path_2502" data-name="Path 2502" d="M208.542,334.929l5.982-5.313-.582,8.539Z" transform="translate(-151.36 -78.805)" fill="#ffd538" stroke="#ffd538" stroke-width="1"/>
        <circle id="Ellipse_185" data-name="Ellipse 185" cx="55" cy="55" r="55" transform="translate(133 189)" fill="#2bb143" opacity="0.146"/>
        <g id="check" transform="translate(148 204)">
            <g id="Group_4583" data-name="Group 4583">
                <g id="Group_4582" data-name="Group 4582">
                    <path id="Path_2499" data-name="Path 2499" d="M40,0A40,40,0,1,0,80,40,40,40,0,0,0,40,0Z" fill="#2bb143"/>
                </g>
            </g>
            <g id="Group_4585" data-name="Group 4585" transform="translate(12.395 19.352)">
                <g id="Group_4584" data-name="Group 4584">
                    <path id="Path_2500" data-name="Path 2500" d="M156.3,137.711a3.447,3.447,0,0,0-4.79,0h0L119.47,169.748,108.117,158.4a3.447,3.447,0,0,0-4.959,4.79q.042.043.085.085l13.79,13.79a3.447,3.447,0,0,0,4.875,0l34.475-34.475A3.447,3.447,0,0,0,156.3,137.711Z" transform="translate(-102.19 -136.743)" fill="#fff"/>
                </g>
            </g>
        </g>
        <path id="Path_2503" data-name="Path 2503" d="M472.79,306.77a3.687,3.687,0,1,1-3.687-3.687A3.687,3.687,0,0,1,472.79,306.77Z" transform="translate(-166.354 -128.366)" fill="#bfd7fe" stroke="#bfd7fe" stroke-width="1"/>
        <path id="Path_2508" data-name="Path 2508" d="M472.79,306.77a3.687,3.687,0,1,1-3.687-3.687A3.687,3.687,0,0,1,472.79,306.77Z" transform="translate(-244.79 -135.74)" fill="#ffd538" stroke="#ffd538" stroke-width="1"/>
        <path id="Path_2507" data-name="Path 2507" d="M472.79,306.77a3.687,3.687,0,1,1-3.687-3.687A3.687,3.687,0,0,1,472.79,306.77Z" transform="translate(-321.104 -151.636)" fill="#bfd7fe" stroke="#bfd7fe" stroke-width="1"/>
    </g>
</svg>
