<svg width="18" height="17" viewBox="0 0 18 17" fill="none" xmlns="http://www.w3.org/2000/svg">
    <path d="M8.51287 4.42785C8.46434 4.34985 8.39422 4.28639 8.31035 4.24457C8.22649 4.20276 8.1322 4.18424 8.03802 4.19109L3.90941 4.49811C3.70455 4.51257 3.50587 4.57216 3.32873 4.67228C3.15159 4.77241 3.00071 4.9104 2.88776 5.07558L1.15434 7.60009C1.06833 7.72515 1.01639 7.86903 1.00329 8.0185C0.99019 8.16796 1.01636 8.3182 1.07938 8.45537C1.14241 8.59255 1.24027 8.71225 1.36394 8.80347C1.48762 8.89468 1.63315 8.95448 1.78713 8.97735L5.135 9.47686C5.23244 9.49136 5.33215 9.47824 5.42197 9.4391C5.51179 9.39996 5.58784 9.3365 5.64083 9.25645L8.50487 4.94277C8.55583 4.86615 8.58357 4.77736 8.58499 4.6864C8.5864 4.59543 8.56142 4.5059 8.51287 4.42785Z"
          fill="#212121"/>
    <path d="M13.4006 9.13255C13.3195 9.0859 13.2265 9.06193 13.132 9.06329C13.0376 9.06465 12.9454 9.09129 12.8658 9.14024L8.38527 11.8977C8.30213 11.9487 8.23621 12.0219 8.19556 12.1084C8.15491 12.1949 8.14129 12.2908 8.15635 12.3847L8.67518 15.6079C8.69868 15.7563 8.76064 15.8965 8.85534 16.0158C8.95003 16.135 9.0744 16.2293 9.21697 16.29C9.35954 16.3508 9.5157 16.3759 9.67103 16.3632C9.82636 16.3504 9.97586 16.3002 10.1057 16.2171L12.7268 14.5492C12.8984 14.4404 13.0417 14.2952 13.1457 14.1247C13.2497 13.9541 13.3116 13.7628 13.3266 13.5656L13.6455 9.59068C13.653 9.49994 13.6341 9.40898 13.5908 9.32804C13.5475 9.2471 13.4817 9.17939 13.4006 9.13255Z"
          fill="#212121"/>
    <path d="M7.18208 13.4499C7.28155 13.5462 7.40347 13.6183 7.53769 13.6602C7.67192 13.702 7.81458 13.7124 7.95382 13.6905C12.0904 13.0245 15.3633 9.72715 16.6099 7.40765C17.6447 5.36607 18.114 3.10173 17.9725 0.834136C17.9607 0.622887 17.8682 0.423282 17.7129 0.273692C17.5575 0.124102 17.3502 0.0350856 17.1307 0.023755C14.7755 -0.112537 12.4236 0.339337 10.303 1.33557C7.89384 2.53574 4.46899 5.6868 3.77722 9.6694C3.75448 9.80346 3.76529 9.94081 3.80875 10.07C3.85222 10.1993 3.92709 10.3166 4.02714 10.4124L7.18208 13.4499Z"
          fill="#F1F1FB"/>
    <path d="M12.6129 7.629C12.0259 7.62782 11.4574 7.43077 11.0044 7.07141C10.5513 6.71205 10.2416 6.21261 10.128 5.65811C10.0145 5.10362 10.104 4.52837 10.3815 4.03032C10.659 3.53227 11.1072 3.14221 11.6498 2.92656C12.1924 2.71092 12.7959 2.68304 13.3575 2.84764C13.9191 3.01225 14.404 3.35918 14.7297 3.82935C15.0555 4.29952 15.2019 4.86387 15.144 5.42628C15.0861 5.9887 14.8276 6.51442 14.4123 6.91391C14.1762 7.1415 13.8957 7.32186 13.5868 7.44459C13.278 7.56732 12.947 7.62999 12.6129 7.629Z"
          fill="#212121"/>
    <path d="M3.01007 10.2625C2.9865 10.4014 2.9977 10.5437 3.04274 10.6777C3.08777 10.8116 3.16535 10.9332 3.26902 11.0325L6.53809 14.1803C6.64117 14.2801 6.7675 14.3548 6.90658 14.3982C7.04566 14.4416 7.19348 14.4524 7.33776 14.4297C8.25653 14.2782 9.15033 14.0099 9.99569 13.6317L3.83977 7.7041C3.44679 8.51776 3.16778 9.37807 3.01007 10.2625Z"
          fill="#212121"/>
    <path d="M0.517394 14.1294C0.584093 14.1294 0.650136 14.1167 0.71174 14.0921C0.773344 14.0675 0.829297 14.0314 0.876394 13.986L2.53539 12.3893C2.63074 12.2975 2.6843 12.1731 2.6843 12.0433C2.6843 11.9135 2.63074 11.7891 2.53539 11.6973C2.44005 11.6055 2.31073 11.554 2.17589 11.554C2.04106 11.554 1.91174 11.6055 1.81639 11.6973L0.157394 13.294C0.0860903 13.3623 0.0374738 13.4495 0.0177096 13.5444C-0.00205468 13.6394 0.00792364 13.7378 0.0463792 13.8273C0.0848348 13.9168 0.150035 13.9933 0.233713 14.0471C0.317391 14.1008 0.415777 14.1295 0.516394 14.1294H0.517394Z"
          fill="#212121"/>
    <path d="M4.05655 13.0944C4.00938 13.0489 3.95336 13.0128 3.89169 12.9882C3.83003 12.9636 3.76393 12.9509 3.69717 12.9509C3.63041 12.9509 3.56431 12.9636 3.50264 12.9882C3.44097 13.0128 3.38495 13.0489 3.33779 13.0944L0.14886 16.1646C0.0535465 16.2564 0 16.3808 0 16.5106C0 16.6404 0.0535465 16.7648 0.14886 16.8566C0.244173 16.9484 0.373446 16.9999 0.508239 16.9999C0.643032 16.9999 0.772305 16.9484 0.867618 16.8566L4.05655 13.7864C4.10379 13.741 4.14127 13.6871 4.16684 13.6277C4.19241 13.5683 4.20558 13.5047 4.20558 13.4404C4.20558 13.3761 4.19241 13.3125 4.16684 13.2531C4.14127 13.1938 4.10379 13.1398 4.05655 13.0944Z"
          fill="#212121"/>
    <path d="M5.50347 14.5537C5.45629 14.5082 5.40025 14.4721 5.33856 14.4475C5.27688 14.4228 5.21075 14.4102 5.14397 14.4102C5.07719 14.4102 5.01107 14.4228 4.94938 14.4475C4.88769 14.4721 4.83165 14.5082 4.78447 14.5537L3.12547 16.1504C3.07826 16.1958 3.04081 16.2497 3.01526 16.3091C2.98971 16.3685 2.97656 16.4321 2.97656 16.4964C2.97656 16.5606 2.98971 16.6242 3.01526 16.6836C3.04081 16.743 3.07826 16.7969 3.12547 16.8424C3.17268 16.8878 3.22873 16.9238 3.29041 16.9484C3.3521 16.973 3.4182 16.9857 3.48497 16.9857C3.55174 16.9857 3.61784 16.973 3.67953 16.9484C3.74121 16.9238 3.79726 16.8878 3.84447 16.8424L5.50347 15.2457C5.55073 15.2002 5.58822 15.1463 5.6138 15.0869C5.63938 15.0276 5.65255 14.9639 5.65255 14.8997C5.65255 14.8354 5.63938 14.7717 5.6138 14.7124C5.58822 14.653 5.55073 14.5991 5.50347 14.5537Z"
          fill="#212121"/>
    <path d="M12.6282 3.7041C12.2758 3.70427 11.9343 3.82208 11.6619 4.03748C11.3896 4.25287 11.2032 4.55252 11.1346 4.88537C11.066 5.21821 11.1194 5.56366 11.2857 5.86286C11.4519 6.16206 11.7209 6.3965 12.0465 6.52623C12.3722 6.65596 12.7345 6.67295 13.0718 6.57432C13.409 6.47568 13.7003 6.26752 13.896 5.98531C14.0917 5.70309 14.1797 5.36427 14.145 5.02658C14.1104 4.68889 13.9552 4.37322 13.7059 4.13335C13.5645 3.997 13.3965 3.88889 13.2115 3.81523C13.0266 3.74157 12.8284 3.7038 12.6282 3.7041Z"
          fill="#4B7BE5"/>
    <path d="M13.7029 4.12671L11.5469 6.20175C11.6871 6.34365 11.8554 6.4571 12.0419 6.53543C12.2284 6.61375 12.4293 6.65538 12.6328 6.65783C12.8362 6.66028 13.0382 6.62351 13.2266 6.5497C13.4151 6.47589 13.5863 6.36653 13.7302 6.22805C13.8741 6.08958 13.9877 5.92479 14.0644 5.74339C14.1411 5.562 14.1793 5.36766 14.1767 5.17184C14.1742 4.97602 14.1309 4.78267 14.0496 4.60317C13.9682 4.42368 13.8503 4.26168 13.7029 4.12671Z"
          fill="#4B7BE5"/>
</svg>
