<svg width="10" height="9" viewBox="0 0 10 9" fill="none" xmlns="http://www.w3.org/2000/svg">
    <path d="M8.25339 0.672903L8.3282 0.74767C8.70006 1.1193 8.70006 1.72184 8.3282 2.09348L2.09386 8.32406C1.722 8.69569 1.11909 8.69569 0.747237 8.32406L0.672425 8.24929C0.300566 7.87766 0.300567 7.27512 0.672425 6.90348L6.90677 0.672903C7.27863 0.301269 7.88153 0.301269 8.25339 0.672903Z" fill="#4B7BE5"/>
    <path d="M8.32885 8.25221L8.25406 8.327C7.88232 8.69875 7.27961 8.69875 6.90786 8.327L0.675454 2.09449C0.303711 1.72274 0.30371 1.12001 0.675453 0.748264L0.750242 0.673474C1.12198 0.301725 1.7247 0.301725 2.09644 0.673475L8.32885 6.90599C8.7006 7.27774 8.7006 7.88046 8.32885 8.25221Z" fill="#4B7BE5"/>
</svg>
