<svg width="18" height="18" viewBox="0 0 18 18" fill="none" xmlns="http://www.w3.org/2000/svg">
<path d="M9 0C7.21997 0 5.47991 0.527841 3.99987 1.51677C2.51983 2.50571 1.36628 3.91131 0.685088 5.55585C0.00389956 7.20038 -0.17433 9.00998 0.172936 10.7558C0.520203 12.5016 1.37737 14.1053 2.63604 15.364C3.89471 16.6226 5.49836 17.4798 7.24419 17.8271C8.99002 18.1743 10.7996 17.9961 12.4442 17.3149C14.0887 16.6337 15.4943 15.4802 16.4832 14.0001C17.4722 12.5201 18 10.78 18 9C18 7.8181 17.7672 6.64778 17.3149 5.55585C16.8626 4.46392 16.1997 3.47177 15.364 2.63604C14.5282 1.80031 13.5361 1.13738 12.4442 0.685084C11.3522 0.232792 10.1819 0 9 0Z" fill="#4B7BE5"/>
<path d="M12.023 5.91706L7.79079 10.3464L6.03356 8.29577C5.9653 8.21678 5.88363 8.15341 5.79321 8.10929C5.70279 8.06517 5.60539 8.04115 5.50656 8.03861C5.40774 8.03607 5.30943 8.05506 5.21725 8.09449C5.12507 8.13393 5.04082 8.19303 4.96932 8.26843C4.89781 8.34383 4.84045 8.43406 4.80051 8.53395C4.76057 8.63384 4.73883 8.74144 4.73653 8.85061C4.73423 8.95979 4.75142 9.06839 4.78712 9.17022C4.82281 9.27206 4.87631 9.36513 4.94457 9.44412L7.22154 12.0689C7.28858 12.1467 7.36921 12.2086 7.45855 12.2509C7.5479 12.2932 7.64409 12.315 7.74129 12.315C7.8369 12.3202 7.93244 12.3034 8.02189 12.2658C8.11135 12.2281 8.19277 12.1704 8.26103 12.0963L13.0377 7.09274C13.1771 6.94302 13.2578 6.73888 13.2624 6.52416C13.2671 6.30944 13.1953 6.10128 13.0625 5.9444C12.9971 5.86485 12.9178 5.80079 12.8294 5.75613C12.741 5.71146 12.6452 5.68711 12.548 5.68455C12.4508 5.68199 12.3542 5.70128 12.2639 5.74125C12.1736 5.78122 12.0917 5.84103 12.023 5.91706Z" fill="white"/>
</svg>
