<svg width="20" height="20" viewBox="0 0 20 20" fill="none" xmlns="http://www.w3.org/2000/svg">
    <path d="M19.6845 16.8123H17.6233V8.26446C17.6233 8.1848 17.5926 8.10841 17.538 8.05208C17.4834 7.99575 17.4093 7.96411 17.332 7.96411H14.8262C14.749 7.96411 14.6749 7.99575 14.6203 8.05208C14.5656 8.10841 14.535 8.1848 14.535 8.26446V16.8093H11.5252V8.26446C11.5252 8.1848 11.4946 8.10841 11.4399 8.05208C11.3853 7.99575 11.3112 7.96411 11.234 7.96411H8.72718C8.68894 7.96411 8.65106 7.97188 8.61572 7.98698C8.58039 8.00207 8.54828 8.02419 8.52123 8.05208C8.49418 8.07997 8.47273 8.11308 8.45809 8.14952C8.44345 8.18596 8.43592 8.22502 8.43592 8.26446V16.8093H5.4466V8.26446C5.4466 8.1848 5.41592 8.10841 5.36129 8.05208C5.30667 7.99575 5.23259 7.96411 5.15534 7.96411H2.64951C2.57227 7.96411 2.49818 7.99575 2.44356 8.05208C2.38894 8.10841 2.35825 8.1848 2.35825 8.26446V16.8093H0.291262C0.214015 16.8093 0.139931 16.8409 0.0853087 16.8973C0.0306865 16.9536 0 17.03 0 17.1096V19.6906C0 19.7703 0.0306865 19.8466 0.0853087 19.903C0.139931 19.9593 0.214015 19.9909 0.291262 19.9909H19.6845C19.7617 19.9909 19.8358 19.9593 19.8904 19.903C19.945 19.8466 19.9757 19.7703 19.9757 19.6906V17.1156C19.9761 17.0759 19.9689 17.0366 19.9544 16.9998C19.9399 16.963 19.9185 16.9295 19.8915 16.9013C19.8644 16.8731 19.8321 16.8507 19.7966 16.8354C19.7611 16.8202 19.723 16.8123 19.6845 16.8123Z"
          fill="#848484"/>
    <path d="M19.7908 3.51898L10.2423 0.0489934C10.0867 -0.0166566 9.91238 -0.0166566 9.75683 0.0489934L0.2112 3.51898C0.153764 3.53776 0.104003 3.57567 0.0697352 3.62677C0.0354671 3.67788 0.0186334 3.73927 0.0218793 3.80131V6.46838C0.0218793 6.54803 0.0525658 6.62443 0.107188 6.68075C0.16181 6.73708 0.235894 6.76872 0.313142 6.76872H19.7063C19.7836 6.76872 19.8577 6.73708 19.9123 6.68075C19.9669 6.62443 19.9976 6.54803 19.9976 6.46838V3.80031C19.9886 3.73935 19.965 3.68167 19.9289 3.63253C19.8928 3.58339 19.8453 3.54435 19.7908 3.51898Z"
          fill="#848484"/>
</svg>
