<svg width="20" height="14" viewBox="0 0 20 14" fill="none" xmlns="http://www.w3.org/2000/svg">
    <path fill-rule="evenodd" clip-rule="evenodd"
          d="M18.5518 2.65309L7.89677 13.5454C7.75857 13.6891 7.59273 13.8035 7.4092 13.8816C7.22568 13.9597 7.02825 14 6.82877 14C6.62928 14 6.43186 13.9597 6.24833 13.8816C6.06481 13.8035 5.89897 13.6891 5.76077 13.5454L0.444768 8.06124C0.159541 7.76771 0 7.37467 0 6.96552C0 6.55638 0.159541 6.16333 0.444768 5.8698C0.582969 5.72605 0.748807 5.61168 0.932332 5.53355C1.11586 5.45543 1.31328 5.41515 1.51277 5.41515C1.71225 5.41515 1.90968 5.45543 2.0932 5.53355C2.27673 5.61168 2.44257 5.72605 2.58077 5.8698L6.85177 10.2477L16.4388 0.454647C16.577 0.310894 16.7428 0.196523 16.9263 0.118397C17.1099 0.0402702 17.3073 0 17.5068 0C17.7063 0 17.9037 0.0402702 18.0872 0.118397C18.2707 0.196523 18.4366 0.310894 18.5748 0.454647C18.853 0.754519 19.0057 1.14953 19.0014 1.55844C18.9971 1.96736 18.8362 2.35909 18.5518 2.65309Z"
          fill="white"/>
</svg>
