<svg width="17" height="11" viewBox="0 0 17 11" fill="none" xmlns="http://www.w3.org/2000/svg">
<path d="M8.5 0C4.86364 0 1.75818 2.28067 0.5 5.5C1.75818 8.71933 4.86364 11 8.5 11C12.1364 11 15.2418 8.71933 16.5 5.5C15.2418 2.28067 12.1364 0 8.5 0ZM8.5 9.16667C6.49273 9.16667 4.86364 7.524 4.86364 5.5C4.86364 3.476 6.49273 1.83333 8.5 1.83333C10.5073 1.83333 12.1364 3.476 12.1364 5.5C12.1364 7.524 10.5073 9.16667 8.5 9.16667ZM8.5 3.3C7.29273 3.3 6.31818 4.28267 6.31818 5.5C6.31818 6.71733 7.29273 7.7 8.5 7.7C9.70727 7.7 10.6818 6.71733 10.6818 5.5C10.6818 4.28267 9.70727 3.3 8.5 3.3Z" fill="white"/>
</svg>
