<svg width="14" height="14" viewBox="0 0 14 14" fill="none" xmlns="http://www.w3.org/2000/svg">
    <path fill-rule="evenodd" clip-rule="evenodd" d="M7.50049 0.75C7.50049 0.335786 7.1647 0 6.75049 0C6.33627 0 6.00049 0.335786 6.00049 0.75V6.00049H0.75C0.335786 6.00049 0 6.33627 0 6.75049C0 7.1647 0.335786 7.50049 0.75 7.50049H6.00049V12.75C6.00049 13.1642 6.33627 13.5 6.75049 13.5C7.1647 13.5 7.50049 13.1642 7.50049 12.75V7.50049H12.75C13.1642 7.50049 13.5 7.1647 13.5 6.75049C13.5 6.33627 13.1642 6.00049 12.75 6.00049H7.50049V0.75Z" fill="#808080"/>
</svg>
