
<svg width="42" height="42" viewBox="0 0 42 42" fill="none" xmlns="http://www.w3.org/2000/svg">
<circle cx="21" cy="21" r="21" fill="#E8E8E8"/>
<path d="M25.5141 22.4318L28.0038 21.0825L28.0085 21.0799L30.0625 19.9666L28.0922 17.9803L21.4045 21.5955L23.3915 23.5821L25.5141 22.4318ZM25.5141 22.4318C25.445 22.4689 25.395 22.531 25.3727 22.606C25.3505 22.681 25.3587 22.7603 25.3958 22.8291C25.4473 22.9236 25.5462 22.9822 25.6536 22.9822C25.702 22.9822 25.7505 22.97 25.793 22.947M25.5141 22.4318C25.5567 22.4083 25.6048 22.3966 25.6528 22.3966C25.7606 22.3966 25.8595 22.4552 25.911 22.5502C25.9481 22.6189 25.9563 22.6978 25.9341 22.7728C25.9118 22.8478 25.8618 22.9099 25.793 22.947M25.793 22.947L27.8527 21.8308V26.6262L21.2123 30.2157V22.2318L23.1318 24.1513C23.1873 24.2068 23.2607 24.2372 23.3388 24.2372C23.3872 24.2372 23.4353 24.2247 23.4782 24.2017L25.793 22.947ZM28.5586 17.6187L30.7536 15.4059C30.8186 15.3403 30.8489 15.248 30.8355 15.1568C30.822 15.0655 30.7663 14.9859 30.6852 14.942L23.4784 11.0358C23.3643 10.974 23.2233 10.9945 23.1316 11.0862L20.9191 13.2986L18.7068 11.0863C18.6518 11.0309 18.5779 11 18.5002 11C18.4514 11 18.4033 11.0125 18.3604 11.0359L16.0456 12.2902C15.9768 12.3277 15.9268 12.3894 15.9045 12.4644C15.8823 12.5394 15.8905 12.6187 15.9276 12.6874C15.9791 12.782 16.078 12.841 16.1854 12.841C16.2338 12.841 16.2823 12.8285 16.3248 12.8054L18.4471 11.6551L20.4341 13.6421L13.7464 17.2569L11.7761 15.2706L16.4643 12.7293C16.5334 12.6922 16.5834 12.6304 16.6057 12.5554C16.628 12.4804 16.6198 12.4011 16.5823 12.3324C16.5311 12.2379 16.4323 12.1789 16.3248 12.1789C16.2764 12.1789 16.2284 12.1913 16.1854 12.2144L11.1535 14.9421C11.0726 14.9854 11.0164 15.0659 11.0031 15.157C10.9898 15.2475 11.0203 15.3405 11.0851 15.4058L13.2799 17.6188L11.085 19.8316C11.02 19.8971 10.9897 19.9894 11.0031 20.0807C11.0166 20.172 11.0723 20.2516 11.1534 20.2955L13.4 21.5132V26.8C13.3999 26.8102 13.4004 26.8202 13.4014 26.8302C13.4019 26.8345 13.4027 26.8386 13.4033 26.8428C13.404 26.8479 13.4046 26.853 13.4056 26.8581C13.4069 26.8645 13.4086 26.8706 13.4102 26.8768C13.411 26.8797 13.4116 26.8826 13.4125 26.8854C13.4144 26.8917 13.4167 26.8979 13.419 26.904C13.42 26.9068 13.4209 26.9095 13.422 26.9122C13.4243 26.9178 13.4269 26.923 13.4295 26.9284C13.4311 26.9317 13.4325 26.935 13.4342 26.9382C13.4366 26.9426 13.4392 26.9468 13.4417 26.951C13.4441 26.955 13.4464 26.9591 13.449 26.963C13.4511 26.9663 13.4536 26.9694 13.4559 26.9725C13.4592 26.9771 13.4625 26.9818 13.4661 26.9862C13.4681 26.9887 13.4703 26.9909 13.4723 26.9933C13.4765 26.9981 13.4806 27.0029 13.4851 27.0073C13.4874 27.0096 13.4899 27.0118 13.4923 27.0141C13.4968 27.0182 13.5011 27.0225 13.5059 27.0264C13.5104 27.0302 13.5153 27.0336 13.52 27.0371C13.5229 27.0391 13.5255 27.0413 13.5284 27.0433C13.5368 27.049 13.5455 27.0543 13.5545 27.0591L20.7785 30.964C20.7889 30.9697 20.7997 30.9746 20.8109 30.9791C20.8133 30.98 20.8157 30.9809 20.8182 30.9818C20.8263 30.9848 20.8346 30.9874 20.8431 30.9896C20.8461 30.9905 20.8491 30.9913 20.8522 30.992C20.8604 30.9939 20.8687 30.9954 20.8771 30.9966C20.88 30.997 20.8828 30.9976 20.8857 30.9979C20.8967 30.9992 20.9079 31 20.9193 31C20.9306 31 20.9418 30.9992 20.9528 30.9979C20.9557 30.9976 20.9586 30.997 20.9614 30.9966C20.9699 30.9954 20.9782 30.9939 20.9864 30.992C20.9894 30.9913 20.9925 30.9905 20.9955 30.9896C21.0039 30.9874 21.0122 30.9848 21.0203 30.9818C21.0227 30.9809 21.0252 30.98 21.0276 30.9791C21.0387 30.9746 21.0496 30.9697 21.06 30.964L28.284 27.0591C28.293 27.0543 28.3017 27.049 28.3101 27.0433C28.313 27.0413 28.3156 27.0391 28.3184 27.0371C28.3232 27.0336 28.328 27.0301 28.3326 27.0264C28.3373 27.0225 28.3417 27.0182 28.3461 27.0141C28.3485 27.0118 28.3511 27.0097 28.3534 27.0073C28.3578 27.0029 28.362 26.9981 28.3661 26.9933C28.3682 26.9909 28.3704 26.9887 28.3724 26.9862C28.376 26.9818 28.3793 26.9771 28.3826 26.9725C28.3849 26.9694 28.3873 26.9663 28.3895 26.963C28.392 26.9591 28.3943 26.9551 28.3968 26.951C28.3993 26.9468 28.4019 26.9426 28.4042 26.9382C28.4059 26.935 28.4074 26.9317 28.409 26.9284C28.4116 26.923 28.4142 26.9178 28.4164 26.9122C28.4176 26.9095 28.4184 26.9068 28.4195 26.904C28.4218 26.8979 28.4241 26.8918 28.426 26.8854C28.4268 26.8826 28.4274 26.8797 28.4282 26.8768C28.4298 26.8706 28.4316 26.8645 28.4328 26.8581C28.4338 26.853 28.4344 26.8479 28.4352 26.8428C28.4357 26.8386 28.4366 26.8345 28.437 26.8302C28.438 26.8202 28.4385 26.8101 28.4385 26.8V21.5132L30.685 20.2955C30.7658 20.2518 30.8221 20.1713 30.8354 20.0807C30.8486 19.9897 30.8182 19.8967 30.7537 19.8315L28.5586 17.6187ZM23.3913 11.6551L30.0623 15.2708L28.0921 17.257L21.4044 13.642L23.3913 11.6551ZM13.8313 21.0805L11.7763 19.9667L13.7465 17.9804L20.4342 21.5954L18.4472 23.5823L13.8338 21.0818L13.8313 21.0805ZM20.6263 30.2157L13.9859 26.6262V21.8307L18.3602 24.2017C18.4042 24.2255 18.4522 24.2371 18.4997 24.2371C18.5756 24.2371 18.6506 24.2076 18.707 24.1513L20.6263 22.232V30.2157ZM20.9193 21.1916L14.3097 17.6188L20.9195 14.0459L27.5291 17.6188L20.9193 21.1916Z" stroke="#848484"/>
</svg>
