<svg width="22" height="22" viewBox="0 0 22 22" fill="none" xmlns="http://www.w3.org/2000/svg">
    <path d="M15.5141 12.4318L18.0038 11.0825L18.0085 11.0799L20.0625 9.9666L18.0922 7.98027L11.4045 11.5955L13.3915 13.5821L15.5141 12.4318ZM15.5141 12.4318C15.445 12.4689 15.395 12.531 15.3727 12.606C15.3505 12.681 15.3587 12.7603 15.3958 12.8291C15.4473 12.9236 15.5462 12.9822 15.6536 12.9822C15.702 12.9822 15.7505 12.97 15.793 12.947M15.5141 12.4318C15.5567 12.4083 15.6048 12.3966 15.6528 12.3966C15.7606 12.3966 15.8595 12.4552 15.911 12.5502C15.9481 12.6189 15.9563 12.6978 15.9341 12.7728C15.9118 12.8478 15.8618 12.9099 15.793 12.947M15.793 12.947L17.8527 11.8308V16.6262L11.2123 20.2157V12.2318L13.1318 14.1513C13.1873 14.2068 13.2607 14.2372 13.3388 14.2372C13.3872 14.2372 13.4353 14.2247 13.4782 14.2017L15.793 12.947ZM18.5586 7.61871L20.7536 5.40586C20.8186 5.34031 20.8489 5.24805 20.8355 5.1568C20.822 5.06551 20.7663 4.9859 20.6852 4.94195L13.4784 1.03578C13.3643 0.974023 13.2233 0.994453 13.1316 1.08617L10.9191 3.29863L8.70684 1.08633C8.65176 1.03086 8.57793 1 8.5002 1C8.45137 1 8.40332 1.01246 8.36036 1.03594L6.04555 2.29016C5.9768 2.32766 5.9268 2.38937 5.90453 2.46437C5.88227 2.53937 5.89047 2.61867 5.92758 2.68742C5.97914 2.78195 6.07797 2.84098 6.18539 2.84098C6.23383 2.84098 6.28227 2.82848 6.32485 2.80543L8.44707 1.65508L10.4341 3.64215L3.74641 7.25691L1.77614 5.27059L6.4643 2.72927C6.53344 2.69216 6.58344 2.63044 6.60571 2.55544C6.62797 2.48044 6.61977 2.40114 6.58227 2.33239C6.5311 2.23786 6.43227 2.17888 6.32485 2.17888C6.27641 2.17888 6.22836 2.19134 6.18539 2.21439L1.15348 4.94211C1.07262 4.98543 1.01637 5.06594 1.00309 5.15695C0.989809 5.24754 1.02032 5.34051 1.08512 5.40578L3.27993 7.61879L1.08497 9.8316C1.02 9.89715 0.989692 9.98941 1.00313 10.0807C1.01661 10.172 1.07227 10.2516 1.15336 10.2955L3.39997 11.5132V16.8C3.39993 16.8102 3.40043 16.8202 3.40145 16.8302C3.40188 16.8345 3.4027 16.8386 3.40329 16.8428C3.40403 16.8479 3.40461 16.853 3.40563 16.8581C3.40688 16.8645 3.4086 16.8706 3.41024 16.8768C3.41102 16.8797 3.41161 16.8826 3.41246 16.8854C3.41438 16.8917 3.41668 16.8979 3.41899 16.904C3.42 16.9068 3.42086 16.9095 3.422 16.9122C3.42426 16.9178 3.42688 16.923 3.42946 16.9284C3.43106 16.9317 3.4325 16.935 3.43422 16.9382C3.43657 16.9426 3.43918 16.9468 3.44168 16.951C3.44411 16.955 3.44641 16.9591 3.44899 16.963C3.45114 16.9663 3.45356 16.9694 3.45586 16.9725C3.45918 16.9771 3.46246 16.9818 3.46606 16.9862C3.46805 16.9887 3.47028 16.9909 3.47235 16.9933C3.47649 16.9981 3.48063 17.0029 3.48508 17.0073C3.48739 17.0096 3.48993 17.0118 3.49231 17.0141C3.49676 17.0182 3.50114 17.0225 3.50586 17.0264C3.51043 17.0302 3.51528 17.0336 3.52004 17.0371C3.52286 17.0391 3.52547 17.0413 3.52836 17.0433C3.53676 17.049 3.54547 17.0543 3.55446 17.0591L10.7785 20.964C10.7889 20.9697 10.7997 20.9746 10.8109 20.9791C10.8133 20.98 10.8157 20.9809 10.8182 20.9818C10.8263 20.9848 10.8346 20.9874 10.8431 20.9896C10.8461 20.9905 10.8491 20.9913 10.8522 20.992C10.8604 20.9939 10.8687 20.9954 10.8771 20.9966C10.88 20.997 10.8828 20.9976 10.8857 20.9979C10.8967 20.9992 10.9079 21 10.9193 21C10.9306 21 10.9418 20.9992 10.9528 20.9979C10.9557 20.9976 10.9586 20.997 10.9614 20.9966C10.9699 20.9954 10.9782 20.9939 10.9864 20.992C10.9894 20.9913 10.9925 20.9905 10.9955 20.9896C11.0039 20.9874 11.0122 20.9848 11.0203 20.9818C11.0227 20.9809 11.0252 20.98 11.0276 20.9791C11.0387 20.9746 11.0496 20.9697 11.06 20.964L18.284 17.0591C18.293 17.0543 18.3017 17.049 18.3101 17.0433C18.313 17.0413 18.3156 17.0391 18.3184 17.0371C18.3232 17.0336 18.328 17.0301 18.3326 17.0264C18.3373 17.0225 18.3417 17.0182 18.3461 17.0141C18.3485 17.0118 18.3511 17.0097 18.3534 17.0073C18.3578 17.0029 18.362 16.9981 18.3661 16.9933C18.3682 16.9909 18.3704 16.9887 18.3724 16.9862C18.376 16.9818 18.3793 16.9771 18.3826 16.9725C18.3849 16.9694 18.3873 16.9663 18.3895 16.963C18.392 16.9591 18.3943 16.9551 18.3968 16.951C18.3993 16.9468 18.4019 16.9426 18.4042 16.9382C18.4059 16.935 18.4074 16.9317 18.409 16.9284C18.4116 16.923 18.4142 16.9178 18.4164 16.9122C18.4176 16.9095 18.4184 16.9068 18.4195 16.904C18.4218 16.8979 18.4241 16.8918 18.426 16.8854C18.4268 16.8826 18.4274 16.8797 18.4282 16.8768C18.4298 16.8706 18.4316 16.8645 18.4328 16.8581C18.4338 16.853 18.4344 16.8479 18.4352 16.8428C18.4357 16.8386 18.4366 16.8345 18.437 16.8302C18.438 16.8202 18.4385 16.8101 18.4385 16.8V11.5132L20.685 10.2955C20.7658 10.2518 20.8221 10.1713 20.8354 10.0807C20.8486 9.98969 20.8182 9.89672 20.7537 9.83148L18.5586 7.61871ZM13.3913 1.65512L20.0623 5.27078L18.0921 7.25703L11.4044 3.64203L13.3913 1.65512ZM3.83125 11.0805L1.77625 9.96668L3.74649 7.98043L10.4342 11.5954L8.44723 13.5823L3.83375 11.0818L3.83125 11.0805ZM10.6263 20.2157L3.98586 16.6262V11.8307L8.36024 14.2017C8.40418 14.2255 8.45215 14.2371 8.49973 14.2371C8.57563 14.2371 8.65063 14.2076 8.707 14.1513L10.6263 12.232V20.2157ZM10.9193 11.1916L4.30965 7.61879L10.9195 4.04594L17.5291 7.61875L10.9193 11.1916Z"
          stroke="white"/>
</svg>
