<svg xmlns="http://www.w3.org/2000/svg" width="44" height="44" viewBox="0 0 44 44" fill="none">
<circle cx="22" cy="22" r="21.5" fill="#F8F8F8" stroke="#F8F8F8"/>
<path d="M28.0954 25.6299C28.1659 25.6018 28.2599 25.5457 28.3774 25.4615C28.5889 25.3212 28.8474 25.0406 28.7064 24.8162C28.5889 24.5917 28.1424 24.3391 27.7428 24.4514C27.3433 24.5636 26.6383 25.0967 26.0978 25.5176C25.6513 25.8544 24.7348 26.4997 23.8652 26.8645C24.4998 26.8365 25.0638 26.7803 25.4163 26.7242C26.0743 26.5839 27.4138 26.0227 28.0954 25.6299Z" fill="#4B7BE5"/>
<path d="M17.9137 26.353C18.2948 26.353 18.7305 26.3311 19.0572 26.3311C19.6562 26.3091 21.4261 26.068 21.9162 25.8488C22.4063 25.6296 22.7875 25.3665 22.8964 25.1034C23.0053 24.8404 22.6786 24.6431 22.488 24.6431C21.535 24.6869 19.6562 24.5554 18.5127 24.4677C18.077 24.4238 17.5597 24.4238 17.0696 24.4238C16.4161 24.4238 15.7626 24.4458 15.327 24.4896C14.5918 24.5554 13.1487 24.9938 12.6314 25.2788C12.0868 25.6076 11.2428 26.2434 11.0522 26.4188C10.8888 26.5503 10.7254 26.6818 10.3987 26.7695C10.1537 26.8572 9.55464 27.0326 9.36404 27.0764C9.17345 27.1203 9.2279 27.2518 9.2279 27.2518C9.33682 27.3833 12.3319 31.4828 12.4408 31.6363C12.4953 31.724 12.5497 31.7459 12.6314 31.7459C12.6859 31.7459 12.7403 31.724 12.7948 31.724C12.9581 31.6801 13.4483 31.5267 13.9928 31.5047C14.5374 31.4609 17.2057 31.3074 18.3493 31.3074C19.4929 31.3074 22.1885 31.1978 22.6786 31.0882C23.1687 30.9786 23.8494 30.8471 24.2578 30.6498C24.6662 30.4525 27.4979 29.0056 28.5871 28.5014C29.6762 27.9972 30.7925 27.471 30.9831 27.3395C31.1737 27.208 31.2554 27.2299 31.1193 26.9887C30.9831 26.7476 30.4386 26.4626 29.8395 26.4626C29.7851 26.4626 29.7579 26.4626 29.7034 26.4626C29.0772 26.5064 28.0153 26.8353 27.144 27.1641C26.436 27.4272 25.238 27.7999 24.3395 27.9752C24.1217 28.0191 23.9311 28.0629 23.7677 28.0849C23.332 28.1287 22.6786 28.1945 21.889 28.2164C21.7256 28.2164 21.5622 28.2164 21.3988 28.2164C20.7454 28.2164 20.0647 28.1945 19.4384 28.1068C17.8592 27.8876 16.9062 27.5368 16.5795 27.1422C16.28 26.7695 16.4433 26.4188 17.0151 26.4188L17.9137 26.353Z" fill="#4B7BE5"/>
<path d="M14.1017 31.9731L9.8447 26.8643L8 27.34C8 27.34 8 32.3041 8 32.966L14.1017 31.9731Z" fill="#4B7BE5"/>
<path d="M35.6925 13.4408V11.8015C35.6925 11.3643 35.3053 11 34.8406 11H17.9574C17.4927 11 17.1055 11.3643 17.1055 11.8015V13.4408H35.6925Z" fill="#4B7BE5"/>
<path d="M17.1055 15.2246V22.1462C17.1055 22.5834 17.4927 22.9477 17.9574 22.9477H34.8406C35.3053 22.9477 35.6925 22.5834 35.6925 22.1462V15.2246H17.1055ZM19.1965 18.139H25.1599V18.8676H19.1965V18.139ZM26.5926 21.1626H19.1965V20.434H26.5926V21.1626Z" fill="#4B7BE5"/>
</svg>
