<svg width="49" height="47" viewBox="0 0 49 47" fill="none" xmlns="http://www.w3.org/2000/svg">
<path d="M42.875 11.1604H4.59375V9.66713L38.2812 7.0389V9.66713H42.875V5.18719C42.875 1.90189 40.1463 -0.403784 36.8143 0.0591434L6.06375 4.34197C2.72869 4.80788 0 7.87515 0 11.1604V41.0267C0 42.611 0.64531 44.1303 1.79397 45.2505C2.94263 46.3707 4.50055 47 6.125 47H42.875C44.4995 47 46.0574 46.3707 47.206 45.2505C48.3547 44.1303 49 42.611 49 41.0267V17.1337C49 15.5495 48.3547 14.0302 47.206 12.91C46.0574 11.7898 44.4995 11.1604 42.875 11.1604ZM38.2812 32.0848C37.6778 32.0846 37.0803 31.9685 36.5228 31.7431C35.9654 31.5177 35.4589 31.1874 35.0323 30.7711C34.6058 30.3549 34.2675 29.8607 34.0367 29.3169C33.806 28.7731 33.6873 28.1904 33.6875 27.6018C33.6877 27.0133 33.8068 26.4306 34.0379 25.887C34.269 25.3433 34.6077 24.8494 35.0345 24.4334C35.4614 24.0174 35.9681 23.6875 36.5257 23.4625C37.0833 23.2374 37.6809 23.1217 38.2843 23.1219C39.5031 23.1223 40.6717 23.5948 41.5332 24.4355C42.3947 25.2762 42.8785 26.4163 42.8781 27.6048C42.8777 28.7934 42.3931 29.9331 41.5311 30.7732C40.669 31.6134 39.5 32.0852 38.2812 32.0848Z" fill="#FFB92D"/>
</svg>
