<svg xmlns="http://www.w3.org/2000/svg" width="44" height="44" viewBox="0 0 44 44" fill="none">
<circle cx="22" cy="22" r="21.5" fill="#F8F8F8" stroke="#F8F8F8"/>
<path d="M17.2754 26.2627H21.9212" stroke="#4B7BE5" stroke-miterlimit="10" stroke-linecap="round" stroke-linejoin="round"/>
<path d="M19.9927 24.333L21.9213 26.2616L19.9922 28.1906" stroke="#4B7BE5" stroke-miterlimit="10" stroke-linecap="round" stroke-linejoin="round"/>
<path d="M31.8691 13.8208L13.3053 13.8188C12.9513 13.8188 12.6644 13.5319 12.6644 13.1776C12.6644 12.824 12.9513 12.537 13.3053 12.537L29.4462 12.5345C29.87 12.5345 30.2134 12.191 30.2134 11.7672C30.2134 11.3435 29.87 11 29.4462 11H12.7902C11.8033 11 11 11.8033 11 12.7902V28.9339C11 29.4449 11.4143 29.8597 11.9258 29.8597H13.8935C15.0934 31.7453 17.2002 33 19.5958 33C21.9913 33 24.0981 31.7456 25.2981 29.86H31.8691C32.3806 29.86 32.7949 29.4452 32.7949 28.9342V14.7469C32.7949 14.2354 32.3806 13.8208 31.8691 13.8208ZM19.5958 31.7213C16.576 31.7213 14.1193 29.2649 14.1193 26.2453C14.1193 26.018 14.1336 25.7888 14.1615 25.564C14.5001 22.8304 16.8366 20.7689 19.5958 20.7689C20.3026 20.7689 20.9898 20.9013 21.6389 21.1622C23.7245 22.001 25.0722 23.9963 25.0722 26.2453C25.0722 29.2646 22.6156 31.7213 19.5958 31.7213ZM31.3788 20.0766H26.364C25.416 20.0766 24.6474 19.3083 24.6474 18.3603C24.6474 17.412 25.416 16.6435 26.364 16.6435H31.3788V20.0766ZM25.7978 18.3603C25.7978 18.7664 26.1269 19.096 26.5335 19.096C26.9402 19.096 27.2693 18.7664 27.2693 18.3603C27.2693 17.9536 26.9402 17.6245 26.5335 17.6245C26.1269 17.6245 25.7978 17.9536 25.7978 18.3603Z" fill="#4B7BE5"/>
</svg>
