<svg xmlns="http://www.w3.org/2000/svg" width="34" height="32" viewBox="0 0 34 32" fill="none">
<path d="M29.75 7.5986H3.1875V6.58188L26.5625 4.79244V6.58188H29.75V3.5317C29.75 1.29491 27.8566 -0.274917 25.5446 0.0402678L4.2075 2.95623C1.89338 3.27345 0 5.36181 0 7.5986V27.9331C0 29.0117 0.447766 30.0461 1.2448 30.8088C2.04183 31.5715 3.12283 32 4.25 32H29.75C30.8772 32 31.9582 31.5715 32.7552 30.8088C33.5522 30.0461 34 29.0117 34 27.9331V11.6655C34 10.5869 33.5522 9.55246 32.7552 8.78977C31.9582 8.02708 30.8772 7.5986 29.75 7.5986ZM26.5625 21.845C26.1438 21.8448 25.7292 21.7658 25.3424 21.6123C24.9556 21.4588 24.6041 21.234 24.3082 20.9506C24.0122 20.6671 23.7774 20.3307 23.6173 19.9605C23.4572 19.5902 23.3749 19.1934 23.375 18.7927C23.3751 18.3921 23.4578 17.9953 23.6181 17.6252C23.7785 17.255 24.0135 16.9188 24.3097 16.6355C24.6058 16.3523 24.9574 16.1276 25.3443 15.9744C25.7312 15.8212 26.1459 15.7424 26.5646 15.7426C27.4103 15.7428 28.2212 16.0646 28.819 16.637C29.4167 17.2094 29.7524 17.9855 29.7521 18.7948C29.7518 19.604 29.4156 20.38 28.8175 20.952C28.2193 21.524 27.4082 21.8452 26.5625 21.845Z" fill="#FFB92D"/>
</svg>