<svg width="211" height="135" viewBox="0 0 211 135" fill="none" xmlns="http://www.w3.org/2000/svg">
<path d="M147.155 41.3659L147.418 42.3122L146.566 48.3266L144.98 48.7676L145.819 43.0192L143.728 43.6007L144.013 44.628L142.715 44.989L142.099 42.7719L147.155 41.3659Z" fill="#E1E1E1"/>
<path d="M153.623 44.228C153.933 45.3458 153.384 46.547 151.581 47.0483C150.707 47.2915 149.72 47.3035 148.987 47.0416L149.253 45.7635C149.831 45.9912 150.547 46.0156 151.204 45.8325C151.934 45.6294 152.3 45.1978 152.157 44.684C152.019 44.1884 151.605 43.9542 150.46 44.2724L148.846 44.7212L148.184 41.0796L152.032 40.0094L152.358 41.1813L149.726 41.9132L149.96 43.1394L150.474 42.9965C152.34 42.4778 153.312 43.1105 153.623 44.228Z" fill="#E1E1E1"/>
<path d="M163.961 36.5066C163.736 35.6955 163.22 35.3051 162.624 35.4705C162.039 35.6332 161.786 36.2278 162.015 37.048C162.242 37.8682 162.765 38.2471 163.351 38.0842C163.946 37.9185 164.187 37.3175 163.961 36.5066ZM161.564 37.1732C161.278 36.1456 161.673 35.2979 162.512 35.0648C163.359 34.829 164.126 35.3538 164.412 36.3814C164.698 37.4087 164.311 38.2541 163.464 38.4899C162.626 38.7229 161.849 38.2006 161.564 37.1732ZM161.652 32.1482L162.184 32.0002L159.63 39.5073L159.098 39.6553L161.652 32.1482ZM159.268 34.6072C159.04 33.7872 158.517 33.4083 157.931 33.5713C157.336 33.7367 157.095 34.3377 157.321 35.1488C157.546 35.9599 158.063 36.3504 158.658 36.185C159.243 36.022 159.496 35.4277 159.268 34.6072ZM156.87 35.2741C156.585 34.2467 156.971 33.4014 157.818 33.1659C158.656 32.9328 159.43 33.4458 159.718 34.4822C160.007 35.5186 159.609 36.3573 158.771 36.5904C157.923 36.8262 157.156 36.3014 156.87 35.2741Z" fill="#E1E1E1"/>
<path d="M160.899 129.22L179.74 129.367L179.926 105.584L161.084 105.437L160.899 129.22Z" fill="#ECECEC"/>
<path d="M172.558 106.28L172.223 129.309L169.246 129.285L169.884 106.259L172.558 106.28Z" fill="#FAFAFA"/>
<path d="M150.268 106.107L161.078 106.191L179.92 106.338L161.058 108.82L160.899 129.221L150.093 129.136L150.268 106.107Z" fill="#E1E1E1"/>
<path d="M156.153 106.153L155.723 129.181L152.515 129.156L153.04 106.129L156.153 106.153Z" fill="#FAFAFA"/>
<path d="M164.707 99.1436C164.708 99.1915 164.389 99.2491 163.81 99.3066C163.23 99.3617 162.389 99.4241 161.34 99.4163C160.288 99.3995 159.04 99.328 157.651 98.9328C157.474 98.8726 157.291 98.8014 157.111 98.6917C156.933 98.5838 156.751 98.4348 156.618 98.226C156.483 98.0197 156.423 97.7636 156.421 97.5369C156.417 97.3076 156.456 97.0983 156.5 96.9054C156.682 96.1708 156.868 95.409 157.198 94.6415C157.365 94.2604 157.566 93.8927 157.808 93.5561C158.054 93.2274 158.33 92.9061 158.705 92.6698C158.891 92.5531 159.1 92.4594 159.327 92.4131C159.554 92.3663 159.795 92.3727 160.012 92.4254C160.448 92.5341 160.774 92.7741 161.053 92.9946C162.155 93.8825 162.961 94.8847 163.509 95.7927C164.059 96.7034 164.35 97.5185 164.502 98.0866C164.649 98.6585 164.666 98.9858 164.624 98.9951C164.508 99.0315 164.242 97.7443 163.095 96.0598C162.52 95.2267 161.717 94.3102 160.658 93.5007C160.399 93.3037 160.13 93.1316 159.862 93.0736C159.599 93.015 159.332 93.0754 159.072 93.2454C158.813 93.4102 158.582 93.6743 158.37 93.9626C158.163 94.2529 157.988 94.5754 157.837 94.9192C157.54 95.6078 157.349 96.3523 157.164 97.0628C157.078 97.4039 157.062 97.6887 157.183 97.8731C157.298 98.0697 157.569 98.2226 157.86 98.3256C158.153 98.4273 158.481 98.5046 158.788 98.5731C159.097 98.6432 159.402 98.6957 159.697 98.7428C160.289 98.8343 160.847 98.8875 161.359 98.9239C162.384 98.9938 163.223 99.0074 163.803 99.0358C164.383 99.061 164.705 99.0952 164.707 99.1436Z" fill="#E1E1E1"/>
<path d="M164.318 99.3154C164.31 99.2674 164.659 99.1666 165.295 99.0215C165.93 98.8741 166.853 98.6884 167.978 98.417C169.101 98.1432 170.431 97.7841 171.827 97.2013C172.173 97.0584 172.517 96.8989 172.792 96.6885C172.928 96.5842 173.041 96.4656 173.102 96.3455C173.165 96.2264 173.181 96.1076 173.155 95.9561C173.13 95.8055 173.059 95.6342 172.972 95.4474C172.882 95.2571 172.791 95.065 172.7 94.8718C172.515 94.4894 172.315 94.115 172.084 93.7631C171.85 93.4128 171.591 93.0941 171.293 92.8289C170.995 92.5615 170.669 92.333 170.335 92.2126C169.999 92.0879 169.656 92.0694 169.342 92.1692C169.024 92.2664 168.728 92.4724 168.453 92.709C167.33 93.7002 166.467 94.7749 165.874 95.7455C165.274 96.7172 164.933 97.5842 164.73 98.1936C164.529 98.8042 164.449 99.1569 164.395 99.1492C164.354 99.1438 164.343 98.7756 164.468 98.1245C164.594 97.4758 164.878 96.5451 165.448 95.4988C166.014 94.4511 166.865 93.302 168.029 92.2265C168.329 91.9581 168.685 91.6851 169.14 91.5353C169.593 91.3801 170.118 91.4055 170.566 91.5703C170.793 91.6501 171.005 91.7603 171.204 91.8885C171.396 92.0178 171.583 92.1548 171.756 92.3127C172.106 92.622 172.406 92.9892 172.665 93.3785C172.922 93.7692 173.134 94.1728 173.324 94.5699C173.416 94.7682 173.508 94.9652 173.599 95.1605C173.688 95.3602 173.786 95.5817 173.829 95.8459C173.876 96.1065 173.836 96.4223 173.698 96.6637C173.565 96.9077 173.378 97.0803 173.194 97.2187C172.821 97.4916 172.434 97.653 172.068 97.7962C170.606 98.3675 169.232 98.6833 168.081 98.8987C166.927 99.1117 165.988 99.2236 165.338 99.2894C164.688 99.3523 164.325 99.3624 164.318 99.3154Z" fill="#FAFAFA"/>
<path d="M146.838 106.08L174.533 106.296L174.595 98.4243L146.899 98.2078L146.838 106.08Z" fill="#E1E1E1"/>
<path d="M157.022 106.158L182.056 106.354L182.117 98.4817L157.083 98.2863L157.022 106.158Z" fill="#ECECEC"/>
<path d="M174.437 98.4235L174.261 106.332L171.341 106.272L171.545 98.4008L174.437 98.4235Z" fill="#FAFAFA"/>
<path d="M153.693 98.2994L153.411 106.137L150.201 106.111L150.373 98.2344L153.693 98.2994Z" fill="#FAFAFA"/>
<path d="M175.27 129.498L183.876 129.565L183.961 118.702L175.354 118.635L175.27 129.498Z" fill="#ECECEC"/>
<path d="M180.595 119.019L180.442 129.538L179.082 129.527L179.373 119.01L180.595 119.019Z" fill="#FAFAFA"/>
<path d="M170.413 118.94L175.351 118.979L183.957 119.046L175.341 120.18L175.269 129.498L170.333 129.46L170.413 118.94Z" fill="#E1E1E1"/>
<path d="M173.101 118.961L172.905 129.479L171.44 129.468L171.679 118.95L173.101 118.961Z" fill="#FAFAFA"/>
<path d="M177.009 115.759C177.01 115.848 176.435 115.981 175.465 116.017C174.975 116.025 174.403 116.01 173.729 115.827C173.557 115.768 173.332 115.687 173.161 115.435C173.078 115.311 173.042 115.155 173.041 115.027C173.038 114.898 173.059 114.788 173.08 114.694C173.162 114.351 173.246 113.999 173.405 113.626C173.486 113.443 173.585 113.262 173.705 113.096C173.827 112.935 173.965 112.773 174.168 112.645C174.36 112.516 174.656 112.446 174.905 112.514C175.15 112.577 175.314 112.705 175.447 112.812C175.962 113.24 176.331 113.721 176.574 114.156C177.059 115.039 177.054 115.681 176.971 115.691C176.868 115.718 176.698 115.149 176.16 114.423C175.891 114.062 175.524 113.667 175.052 113.318C174.94 113.235 174.832 113.175 174.755 113.162C174.683 113.151 174.626 113.162 174.535 113.221C174.448 113.277 174.354 113.382 174.267 113.502C174.182 113.623 174.109 113.757 174.044 113.905C173.917 114.198 173.829 114.533 173.744 114.851C173.705 115 173.714 115.067 173.725 115.083C173.734 115.112 173.82 115.178 173.938 115.22C174.187 115.307 174.485 115.373 174.741 115.42C175.004 115.468 175.255 115.499 175.485 115.525C176.411 115.614 177.008 115.656 177.009 115.759Z" fill="#E1E1E1"/>
<path d="M176.831 115.839C176.814 115.738 177.46 115.57 178.476 115.298C178.981 115.157 179.576 114.981 180.196 114.711C180.349 114.646 180.494 114.574 180.593 114.495C180.642 114.456 180.674 114.417 180.682 114.396C180.691 114.374 180.691 114.374 180.685 114.334C180.677 114.265 180.57 114.057 180.491 113.891C180.407 113.72 180.32 113.558 180.221 113.407C180.122 113.258 180.014 113.125 179.892 113.016C179.769 112.904 179.636 112.812 179.517 112.769C179.394 112.723 179.287 112.716 179.181 112.747C179.073 112.777 178.955 112.853 178.835 112.952C178.334 113.382 177.937 113.852 177.659 114.275C177.093 115.126 176.974 115.781 176.867 115.763C176.822 115.757 176.792 115.584 176.829 115.276C176.866 114.969 176.979 114.527 177.232 114.028C177.483 113.529 177.869 112.984 178.412 112.469C178.556 112.338 178.735 112.196 178.979 112.113C179.224 112.027 179.513 112.041 179.748 112.126C179.868 112.168 179.978 112.225 180.08 112.29C180.176 112.354 180.269 112.422 180.355 112.5C180.529 112.653 180.677 112.834 180.802 113.023C180.926 113.212 181.027 113.404 181.115 113.589C181.157 113.681 181.199 113.772 181.241 113.863C181.282 113.958 181.334 114.072 181.359 114.224C181.387 114.372 181.361 114.57 181.278 114.714C181.197 114.859 181.092 114.953 180.995 115.025C180.799 115.166 180.61 115.241 180.438 115.306C179.751 115.564 179.112 115.697 178.578 115.779C177.508 115.934 176.847 115.928 176.831 115.839Z" fill="#FAFAFA"/>
<path d="M168.847 118.929L181.497 119.027L181.525 115.432L168.875 115.333L168.847 118.929Z" fill="#E1E1E1"/>
<path d="M173.499 118.965L184.933 119.055L184.962 115.459L173.526 115.37L173.499 118.965Z" fill="#ECECEC"/>
<path d="M181.453 115.431L181.373 119.043L180.039 119.015L180.132 115.42L181.453 115.431Z" fill="#FAFAFA"/>
<path d="M171.977 115.373L171.849 118.953L170.382 118.941L170.461 115.343L171.977 115.373Z" fill="#FAFAFA"/>
<path d="M11.5178 129.454L26.9527 129.574L27.105 110.092L11.6698 109.971L11.5178 129.454Z" fill="#ECECEC"/>
<path d="M21.0699 110.662L20.7956 129.526L18.3569 129.507L18.8793 110.645L21.0699 110.662Z" fill="#FAFAFA"/>
<path d="M2.8097 110.519L11.6653 110.588L27.1004 110.709L11.6484 112.742L11.5181 129.454L2.66626 129.385L2.8097 110.519Z" fill="#E1E1E1"/>
<path d="M7.63066 110.557L7.27876 129.421L4.65088 129.401L5.08038 110.537L7.63066 110.557Z" fill="#FAFAFA"/>
<path d="M14.6384 104.815C14.6413 104.911 14.3823 105.012 13.9078 105.109C13.4328 105.203 12.7419 105.299 11.8681 105.329C11.4317 105.343 10.9487 105.338 10.4274 105.294C10.1667 105.271 9.89617 105.241 9.61813 105.194C9.33607 105.146 9.06793 105.101 8.7353 105.001C8.57099 104.947 8.39731 104.883 8.21293 104.773C8.03177 104.666 7.83106 104.508 7.6796 104.272C7.52305 104.037 7.45481 103.742 7.45187 103.504C7.44678 103.262 7.48559 103.061 7.52332 102.888C7.67077 102.272 7.82063 101.638 8.10991 100.963C8.25575 100.629 8.43505 100.301 8.65582 99.9976C8.77009 99.8462 8.88382 99.7073 9.02137 99.5644C9.16159 99.4223 9.31975 99.2879 9.50493 99.1715C9.69091 99.0562 9.90741 98.9593 10.1496 98.9111C10.3904 98.8624 10.654 98.8713 10.8804 98.9285C11.3375 99.0474 11.6369 99.2845 11.8786 99.479C12.8064 100.253 13.4684 101.124 13.9017 101.912C14.3365 102.703 14.5412 103.407 14.6223 103.897C14.6994 104.391 14.6606 104.673 14.5709 104.693C14.3654 104.745 14.0443 103.733 13.0734 102.446C12.5869 101.808 11.9302 101.108 11.0878 100.491C10.8887 100.343 10.7009 100.243 10.5807 100.225C10.4702 100.211 10.3928 100.225 10.239 100.323C10.1667 100.372 10.0891 100.439 10.0131 100.521C9.93684 100.604 9.85308 100.709 9.77896 100.81C9.63097 101.021 9.50172 101.259 9.38772 101.518C9.1632 102.036 9.00478 102.635 8.85171 103.203C8.81933 103.328 8.803 103.427 8.8014 103.485C8.8014 103.547 8.80327 103.552 8.80782 103.566C8.80595 103.596 8.94617 103.712 9.15276 103.786C9.35346 103.863 9.62267 103.934 9.86111 103.993C10.1044 104.055 10.3452 104.103 10.5796 104.148C11.0485 104.236 11.4956 104.296 11.9077 104.344C12.733 104.439 13.4181 104.494 13.8934 104.566C14.3692 104.637 14.6354 104.719 14.6384 104.815Z" fill="#E1E1E1"/>
<path d="M14.3191 104.956C14.2843 104.756 15.4419 104.436 17.2571 103.935C18.1603 103.677 19.2243 103.357 20.3281 102.873C20.6008 102.756 20.8561 102.626 21.0239 102.491C21.1066 102.425 21.1561 102.36 21.1639 102.335C21.1711 102.309 21.1692 102.329 21.1612 102.269C21.151 102.212 21.1095 102.102 21.0394 101.957C20.9658 101.804 20.892 101.649 20.8176 101.493C20.6685 101.189 20.5125 100.9 20.338 100.635C20.1622 100.37 19.9725 100.138 19.76 99.9466C19.6559 99.8484 19.5414 99.7638 19.4287 99.6841C19.323 99.6129 19.2152 99.5554 19.1124 99.5166C18.9029 99.4379 18.7297 99.4269 18.5542 99.4759C18.3743 99.5243 18.1675 99.6536 17.9563 99.8286C17.0615 100.59 16.348 101.427 15.8463 102.177C14.8256 103.686 14.595 104.853 14.3828 104.819C14.2928 104.807 14.23 104.497 14.2875 103.939C14.3464 103.385 14.5436 102.585 14.9932 101.684C15.4409 100.78 16.131 99.7949 17.1094 98.8633C17.3703 98.6252 17.6973 98.3619 18.1498 98.2077C18.6037 98.048 19.1408 98.0731 19.5746 98.2318C19.7951 98.3081 19.9966 98.4119 20.1831 98.5312C20.3586 98.6485 20.5288 98.7724 20.6856 98.9145C21.0041 99.1941 21.2728 99.5233 21.5 99.8655C21.7256 100.208 21.9075 100.556 22.0657 100.89C22.1414 101.056 22.2169 101.22 22.2915 101.383C22.3665 101.554 22.4625 101.765 22.5088 102.048C22.5602 102.326 22.5126 102.701 22.3544 102.971C22.203 103.244 22.0071 103.418 21.8283 103.551C21.4654 103.811 21.1224 103.945 20.8112 104.062C19.5738 104.524 18.4228 104.757 17.4629 104.899C16.5008 105.039 15.7224 105.087 15.181 105.093C14.6397 105.096 14.3343 105.05 14.3191 104.956Z" fill="#FAFAFA"/>
<path d="M0 110.498L22.6878 110.675L22.7381 104.226L0.0503097 104.049L0 110.498Z" fill="#E1E1E1"/>
<path d="M8.34277 110.562L28.8506 110.723L28.901 104.274L8.39308 104.114L8.34277 110.562Z" fill="#ECECEC"/>
<path d="M22.6086 104.224L22.4641 110.703L20.0723 110.653L20.2393 104.206L22.6086 104.224Z" fill="#FAFAFA"/>
<path d="M5.6146 104.124L5.38339 110.544L2.75391 110.523L2.89493 104.07L5.6146 104.124Z" fill="#FAFAFA"/>
<path d="M29.2055 30.1335L29.4673 31.152L25.3855 32.2002L25.1773 31.3899L26.7556 28.8873C27.1169 28.3092 27.1305 28.0095 27.0631 27.7473C26.9542 27.3228 26.5977 27.151 26.0267 27.2977C25.5637 27.4168 25.2156 27.6953 25.0467 28.1254L23.9851 27.7727C24.2455 27.056 24.9006 26.4684 25.8728 26.2187C27.0767 25.9096 28.0377 26.3209 28.2893 27.3009C28.4239 27.8257 28.4 28.3419 27.8242 29.2378L26.883 30.73L29.2055 30.1335Z" fill="#E1E1E1"/>
<path d="M32.6485 27.4561C32.3333 26.2291 31.7705 25.8312 31.1454 25.9915C30.528 26.1499 30.2267 26.7702 30.5417 27.9969C30.8569 29.2239 31.4197 29.6223 32.037 29.4639C32.6619 29.3034 32.9635 28.683 32.6485 27.4561ZM29.2762 28.322C28.8186 26.5395 29.5467 25.2751 30.874 24.9342C32.2088 24.5914 33.4484 25.3508 33.9062 27.1333C34.3639 28.9156 33.6435 30.1782 32.3084 30.521C30.9813 30.8619 29.734 30.1043 29.2762 28.322Z" fill="#E1E1E1"/>
<path d="M40.2299 26.8676C40.0516 26.1729 39.6187 25.832 39.1094 25.9626C38.6076 26.0916 38.3829 26.5934 38.563 27.2955C38.7433 27.9977 39.1822 28.329 39.684 28.2001C40.1932 28.0695 40.4084 27.5621 40.2299 26.8676ZM38.1773 27.3946C37.9515 26.5149 38.3026 25.7999 39.02 25.6153C39.7452 25.4293 40.3899 25.8888 40.6155 26.7686C40.8416 27.648 40.4983 28.3614 39.7731 28.5474C39.0553 28.732 38.4035 28.2742 38.1773 27.3946ZM38.3376 23.1174L38.7931 23.0008L36.4912 29.3489L36.0362 29.4658L38.3376 23.1174ZM36.2658 25.171C36.0855 24.4688 35.6466 24.1375 35.1451 24.2663C34.6361 24.3971 34.421 24.9045 34.5992 25.5992C34.7777 26.2934 35.2104 26.6348 35.7197 26.5042C36.2214 26.3753 36.4459 25.8732 36.2658 25.171ZM34.2133 25.6982C33.9875 24.8186 34.3305 24.1054 35.056 23.9189C35.7737 23.7348 36.4235 24.1849 36.6515 25.072C36.8792 25.9594 36.5265 26.6669 35.8088 26.8511C35.0836 27.0376 34.4389 26.5781 34.2133 25.6982Z" fill="#E1E1E1"/>
<path d="M79.9007 47.0539C79.9197 48.1578 79.0861 49.183 77.2247 49.2151C76.3081 49.2309 75.3589 48.9943 74.7151 48.5562L75.2846 47.3865C75.7866 47.7521 76.4823 47.9549 77.1653 47.9432C77.9229 47.93 78.3853 47.6137 78.3759 47.0804C78.3676 46.5845 77.9975 46.2824 77.1369 46.2971L76.4446 46.3092L76.4275 45.3083L77.7481 43.7605L74.9607 43.8087L74.9396 42.5924L79.5229 42.5135L79.54 43.4956L78.0912 45.2048C79.2729 45.3712 79.8841 46.0905 79.9007 47.0539Z" fill="#E1E1E1"/>
<path d="M84.6674 45.7007C84.6414 44.2136 84.107 43.6053 83.3494 43.6185C82.6012 43.6313 82.0882 44.2575 82.1139 45.7448C82.1396 47.2322 82.6737 47.8402 83.4222 47.8271C84.1798 47.814 84.6931 47.188 84.6674 45.7007ZM80.5797 45.7713C80.5425 43.6107 81.7184 42.3647 83.3275 42.3369C84.9457 42.3091 86.1545 43.5138 86.1916 45.6745C86.2291 47.8351 85.0626 49.0811 83.4442 49.1089C81.8353 49.1367 80.6169 47.9317 80.5797 45.7713Z" fill="#E1E1E1"/>
<path d="M93.4857 47.0924C93.471 46.2505 93.0693 45.7428 92.452 45.7533C91.8442 45.764 91.4506 46.2759 91.4653 47.1272C91.4798 47.9781 91.8911 48.4764 92.4988 48.4657C93.1162 48.4553 93.5002 47.934 93.4857 47.0924ZM90.9978 47.1352C90.9794 46.0691 91.575 45.3473 92.4448 45.3323C93.3241 45.3174 93.935 46.0179 93.9532 47.0843C93.9714 48.1502 93.3851 48.8717 92.506 48.8869C91.6361 48.9019 91.016 48.2013 90.9978 47.1352ZM92.3455 42.2934L92.8975 42.2838L88.5396 48.9086L87.9878 48.918L92.3455 42.2934ZM89.4198 44.0749C89.405 43.2236 88.994 42.7256 88.3863 42.736C87.7689 42.7467 87.3852 43.2678 87.3993 44.1097C87.4141 44.9515 87.8157 45.4592 88.4331 45.4485C89.0408 45.438 89.4345 44.9258 89.4198 44.0749ZM86.9316 44.1177C86.9134 43.0513 87.4997 42.3301 88.379 42.3148C89.2488 42.2998 89.8691 42.9911 89.8875 44.0666C89.9063 45.1423 89.3103 45.8544 88.4403 45.8694C87.5612 45.8844 86.9503 45.1841 86.9316 44.1177Z" fill="#E1E1E1"/>
<path d="M111.569 26.8268C111.441 27.663 110.716 28.2978 109.367 28.0917C108.713 27.9919 108.053 27.7042 107.644 27.3106L108.203 26.5401C108.52 26.8648 108.988 27.0949 109.481 27.1701C110.027 27.2536 110.399 27.0759 110.458 26.6913C110.515 26.3202 110.309 26.0405 109.453 25.9094L108.245 25.725L108.894 23.1046L111.774 23.5446L111.64 24.4218L109.67 24.1207L109.459 25.0062L109.844 25.0651C111.24 25.2784 111.697 25.9902 111.569 26.8268Z" fill="#F5F5F5"/>
<path d="M115.097 26.4686C115.261 25.3961 114.951 24.8932 114.405 24.81C113.865 24.7273 113.419 25.1148 113.255 26.1871C113.092 27.2597 113.402 27.7628 113.941 27.8452C114.488 27.9284 114.933 27.5412 115.097 26.4686ZM112.149 26.0182C112.388 24.4603 113.386 23.7086 114.546 23.886C115.713 24.0642 116.434 25.0787 116.196 26.6367C115.958 28.1947 114.967 28.9474 113.8 28.7692C112.64 28.5921 111.912 27.5765 112.149 26.0182Z" fill="#F5F5F5"/>
<path d="M121.268 28.5493C121.361 27.9421 121.134 27.5282 120.689 27.4599C120.25 27.393 119.904 27.7128 119.811 28.3267C119.717 28.9403 119.951 29.3489 120.39 29.4158C120.835 29.4838 121.175 29.1563 121.268 28.5493ZM119.474 28.2753C119.591 27.5062 120.108 27.0607 120.735 27.1565C121.369 27.2531 121.722 27.8316 121.605 28.6007C121.487 29.3696 120.977 29.8162 120.343 29.7193C119.716 29.6238 119.356 29.0441 119.474 28.2753ZM118.714 25.8813C118.808 25.2674 118.574 24.8588 118.135 24.7919C117.69 24.7239 117.35 25.0518 117.257 25.6587C117.164 26.2659 117.391 26.6801 117.836 26.7481C118.275 26.8153 118.62 26.4949 118.714 25.8813ZM121.036 24.9592L121.434 25.0199L117.489 29.2486L117.091 29.1881L121.036 24.9592ZM116.92 25.6073C117.037 24.8382 117.547 24.3916 118.182 24.4884C118.809 24.5845 119.17 25.1572 119.051 25.933C118.933 26.7085 118.417 27.1476 117.79 27.0516C117.156 26.9547 116.802 26.3761 116.92 25.6073Z" fill="#F5F5F5"/>
<path d="M4.17029 49.5388L3.19086 53.7217L2.22293 53.495L3.02039 50.0889L2.18359 49.8928L2.36556 49.1162L4.17029 49.5388Z" fill="#F5F5F5"/>
<path d="M7.02128 52.411C7.24365 51.4607 7.00121 50.9881 6.51711 50.8749C6.03917 50.7628 5.61207 51.0789 5.38969 52.0289C5.16731 52.9791 5.40949 53.452 5.88744 53.5638C6.37153 53.677 6.79863 53.3613 7.02128 52.411ZM4.40972 51.7995C4.73299 50.4195 5.68111 49.8155 6.70898 50.0561C7.74274 50.2983 8.31835 51.259 7.99536 52.6393C7.67209 54.0196 6.72959 54.6246 5.69583 54.3824C4.66823 54.1421 4.08646 53.1801 4.40972 51.7995Z" fill="#F5F5F5"/>
<path d="M12.4063 54.7118C12.5321 54.174 12.3584 53.7867 11.964 53.6941C11.5754 53.6032 11.2428 53.866 11.1157 54.4095C10.9883 54.9532 11.1694 55.3364 11.5583 55.4274C11.9525 55.52 12.2803 55.2497 12.4063 54.7118ZM10.8167 54.3396C10.9762 53.6583 11.471 53.2952 12.0269 53.4252C12.5886 53.5569 12.8645 54.1006 12.7052 54.782C12.5457 55.4633 12.0568 55.8275 11.4951 55.6961C10.9396 55.5658 10.6573 55.0209 10.8167 54.3396ZM10.3046 52.1399C10.4319 51.5959 10.2502 51.2132 9.8622 51.1222C9.46775 51.0299 9.13967 51.2999 9.01389 51.8378C8.88812 52.3754 9.0618 52.7629 9.45624 52.8552C9.84454 52.9459 10.1772 52.6837 10.3046 52.1399ZM8.71498 51.7677C8.87447 51.0861 9.36312 50.7219 9.92509 50.8533C10.4806 50.9833 10.764 51.5225 10.6032 52.2097C10.4424 52.897 9.94917 53.2542 9.39336 53.1239C8.83139 52.9925 8.55549 52.4487 8.71498 51.7677ZM12.4515 51.4762L12.8042 51.5589L8.9684 55.0731L8.61597 54.9904L12.4515 51.4762Z" fill="#F5F5F5"/>
<path d="M159.848 43.9134L159.135 42.7807C153.125 33.2315 141.928 27.2535 129.929 27.588C128.387 27.6311 126.848 27.7745 125.326 28.0231C114.373 29.8128 104.678 36.9838 100.47 46.4081C97.9958 51.9507 97.1614 58.3914 92.6466 62.7161C86.7714 68.3447 77.0793 68.2432 68.5695 67.7538C60.0599 67.2643 50.3606 67.1854 44.5124 72.8375C40.8497 76.3773 37.1358 83.0337 36.8078 87.913C35.6886 104.563 45.9537 117.594 58.446 123.707C70.9386 129.82 87.8447 130.081 101.775 127.961C121.289 124.99 143.097 112.476 154.632 97.7916C166.168 83.1071 168.252 60.373 159.848 43.9134Z" fill="#ECECEC"/>
<path d="M29.4992 92.8026C24.841 88.0353 17.5426 86.032 11.1038 87.754C16.697 91.5042 22.9825 93.5139 29.7165 93.5693" fill="#4B7BE5"/>
<path d="M23.26 70.708C24.0264 65.2874 21.9198 59.1895 17.8614 55.2493C17.7273 60.6217 19.9952 66.6669 23.26 70.708Z" fill="#4B7BE5"/>
<path d="M26.5054 80.949C23.6132 75.4206 18.8656 70.8836 13.2119 68.2448C14.9061 74.4861 20.2446 79.592 26.5552 81.0068" fill="#4B7BE5"/>
<path d="M27.1772 82.9246C23.9034 83.0167 20.5899 82.9013 17.4236 82.0635C14.2573 81.2256 11.2248 79.6154 9.11768 77.1077C15.4869 77.1149 21.8412 79.0548 27.1283 82.6062" fill="#4B7BE5"/>
<path d="M25.5156 76.416C27.1774 70.1875 29.9196 65.8791 34.8151 62.3882C35.1855 65.4188 34.4408 68.5733 32.7538 71.118C31.0668 73.6626 28.4512 75.5771 25.5156 76.416Z" fill="#4B7BE5"/>
<path d="M37.8739 87.1582C37.9598 83.5389 35.6268 79.9819 32.2729 78.6187C32.5448 81.835 35.0716 85.5561 37.8739 87.1582Z" fill="#4B7BE5"/>
<path d="M39.4387 81.9062C39.8107 76.7035 43.5076 71.8895 48.4385 70.1878C47.3076 75.3928 44.2982 79.7258 39.4387 81.9062Z" fill="#4B7BE5"/>
<path d="M37.0808 91.2252C38.2353 89.5735 40.1195 88.5465 42.069 88.0364C44.0187 87.5264 46.0555 87.4811 48.0703 87.4391C45.3522 90.4293 41.2712 92.1292 37.2341 91.9523" fill="#4B7BE5"/>
<path d="M34.7407 104.503C38.3729 103.382 42.421 103.672 45.8562 105.299C49.2914 106.926 52.0799 109.875 53.5129 113.396C46.6938 112.102 39.9649 109.073 34.7407 104.503Z" fill="#4B7BE5"/>
<path d="M27.257 99.8883C28.3897 103.237 28.1722 107.284 25.654 110.17C24.6296 106.734 25.2352 102.849 27.257 99.8883Z" fill="#4B7BE5"/>
<path d="M22.8335 98.0276C22.5183 102.333 19.7657 106.377 15.8758 108.249C15.6829 108.342 15.4591 108.431 15.2608 108.35C14.9539 108.225 14.9261 107.806 14.9638 107.478C15.457 103.187 18.6353 99.0384 22.8335 98.0276Z" fill="#4B7BE5"/>
<path d="M19.9443 97.5926C18.0288 99.6623 15.2353 100.892 12.4153 100.906C9.59525 100.921 6.78941 99.7196 4.85303 97.6697C9.65011 97.1447 15.185 96.7946 19.9443 97.5926Z" fill="#4B7BE5"/>
<path d="M19.2267 59.2456C19.2237 59.2466 19.2385 59.2943 19.2706 59.3861C19.3064 59.4856 19.3549 59.6199 19.4167 59.792C19.5526 60.156 19.7469 60.6778 19.9955 61.3452C20.2538 62.0169 20.5513 62.8457 20.8963 63.808C21.0699 64.2891 21.2557 64.8032 21.4521 65.348C21.6413 65.8964 21.8414 66.4754 22.0513 67.0832C22.9009 69.5122 23.8445 72.4278 24.8632 75.6738C25.8635 78.9257 26.9144 82.5159 27.9479 86.3036C28.9675 90.0966 29.8715 93.7272 30.6408 97.042C31.3885 100.361 32.0316 103.358 32.4959 105.889C32.6149 106.521 32.7287 107.122 32.836 107.692C32.9331 108.263 33.0246 108.802 33.1103 109.306C33.2842 110.313 33.4327 111.181 33.5328 111.894C33.6409 112.598 33.7255 113.148 33.7844 113.532C33.8141 113.712 33.8374 113.853 33.8545 113.958C33.8713 114.053 33.8812 114.102 33.8845 114.102C33.8877 114.101 33.8837 114.052 33.8729 113.955C33.8604 113.85 33.843 113.708 33.821 113.527C33.7699 113.142 33.6969 112.59 33.6035 111.884C33.5144 111.169 33.3757 110.299 33.2114 109.289C33.1301 108.784 33.0431 108.244 32.9511 107.672C32.8475 107.101 32.738 106.498 32.6235 105.865C32.175 103.329 31.5448 100.328 30.8057 97.004C30.0449 93.6855 29.1452 90.0509 28.1248 86.2557C27.0908 82.4656 26.0343 78.8746 25.0249 75.6238C23.9965 72.3785 23.0398 69.4654 22.1735 67.0404C21.9592 66.4337 21.7553 65.8559 21.5621 65.3087C21.3606 64.7652 21.1706 64.2525 20.9926 63.7726C20.6383 62.8133 20.3308 61.988 20.0621 61.3198C19.7996 60.6575 19.5946 60.1399 19.4512 59.7784C19.3822 59.6092 19.3281 59.4771 19.288 59.3794C19.2502 59.2897 19.2296 59.2445 19.2267 59.2456Z" fill="#1A2E35"/>
<path d="M45.5752 72.9663C45.5728 72.9642 45.545 72.9906 45.4925 73.0444C45.4339 73.1057 45.3582 73.1855 45.2629 73.2855C45.0627 73.4988 44.7724 73.8181 44.41 74.2396C43.6862 75.082 42.6642 76.3314 41.586 78.0056C40.5076 79.6746 39.4024 81.801 38.6327 84.3234C37.8414 86.8386 37.3504 89.6972 36.8612 92.6855C35.8858 98.6668 34.689 104.024 33.8228 107.899C33.3861 109.827 33.0318 111.391 32.784 112.486C32.6657 113.019 32.5731 113.437 32.5073 113.735C32.4792 113.87 32.457 113.977 32.4398 114.06C32.4256 114.134 32.4198 114.172 32.423 114.173C32.4259 114.174 32.438 114.137 32.458 114.065C32.4797 113.983 32.5078 113.877 32.5434 113.743C32.6173 113.448 32.7211 113.032 32.8533 112.502C33.115 111.41 33.4886 109.85 33.9494 107.928C34.848 104.06 36.0659 98.7026 37.0424 92.7152C37.5313 89.7269 38.0162 86.8772 38.7941 84.3735C39.5504 81.8631 40.6352 79.7469 41.6955 78.0751C42.7549 76.3994 43.7587 75.1406 44.4646 74.2859C44.8179 73.858 45.0994 73.5312 45.2907 73.3102C45.3801 73.205 45.4513 73.1215 45.5064 73.0567C45.5541 72.9992 45.5776 72.9684 45.5752 72.9663Z" fill="#1A2E35"/>
<path d="M18.5112 97.3891C18.511 97.3956 18.5706 97.406 18.6841 97.4207C18.8187 97.4357 18.9828 97.4539 19.1808 97.4756C19.2913 97.4865 19.4107 97.4983 19.5396 97.5109C19.6716 97.5307 19.8131 97.5521 19.9638 97.5746C20.2681 97.6198 20.6154 97.6645 20.9935 97.7485C21.1838 97.7863 21.3826 97.8259 21.589 97.8668C21.7942 97.9187 22.0069 97.9728 22.2269 98.0287C22.6709 98.1288 23.1295 98.2912 23.6187 98.439C24.5829 98.7772 25.6215 99.2121 26.656 99.7772C27.6874 100.35 28.6002 101.011 29.3795 101.669C29.7578 102.011 30.1226 102.332 30.4244 102.672C30.7474 102.992 31.0092 103.325 31.2511 103.626C31.5064 103.918 31.6838 104.22 31.8634 104.47C32.0456 104.718 32.1765 104.948 32.2824 105.136C32.3838 105.308 32.4679 105.45 32.5369 105.566C32.5969 105.663 32.6314 105.714 32.637 105.711C32.6426 105.708 32.6193 105.652 32.5698 105.549C32.5088 105.428 32.4344 105.28 32.3448 105.101C32.2479 104.906 32.1248 104.67 31.9495 104.414C31.7767 104.157 31.6049 103.846 31.3538 103.547C31.1162 103.237 30.8572 102.897 30.5355 102.568C30.235 102.22 29.8702 101.891 29.4905 101.542C28.7083 100.869 27.7875 100.196 26.7452 99.6169C25.6994 99.0451 24.6482 98.6108 23.6723 98.2787C23.1775 98.1339 22.7132 97.9757 22.2641 97.881C22.0417 97.8285 21.8266 97.7777 21.6189 97.7287C21.4102 97.6913 21.2095 97.6554 21.0168 97.6209C20.6347 97.5446 20.2838 97.5085 19.9766 97.4729C19.8246 97.4555 19.682 97.4392 19.5485 97.4242C19.4187 97.417 19.298 97.4105 19.1867 97.4047C18.987 97.3964 18.8219 97.3894 18.6862 97.3838C18.5717 97.3814 18.5115 97.383 18.5112 97.3891Z" fill="#1A2E35"/>
<path d="M17.1449 73.0812C17.1366 73.0909 17.26 73.2089 17.4907 73.4141C17.7508 73.64 18.0818 73.9271 18.4776 74.2705C19.3165 74.9877 20.4836 75.9687 21.7798 77.0434C23.0769 78.1186 24.2571 79.0839 25.1171 79.7754C25.5279 80.1008 25.8715 80.3732 26.1415 80.5868C26.3858 80.7751 26.5247 80.8747 26.5328 80.8645C26.5405 80.8546 26.4166 80.7366 26.1862 80.5311C25.9258 80.3055 25.5945 80.0178 25.1985 79.6745C24.3598 78.9573 23.1931 77.9768 21.897 76.9024C20.6016 75.8279 19.4217 74.8632 18.5616 74.1717C18.1508 73.8463 17.807 73.5739 17.537 73.3601C17.2924 73.1714 17.1532 73.0716 17.1449 73.0812Z" fill="#1A2E35"/>
<path d="M15.9659 79.4277C15.9514 79.4764 18.4701 80.2635 21.5909 81.1854C24.7128 82.1078 27.2542 82.8159 27.2684 82.7672C27.2829 82.7187 24.7647 81.9317 21.6428 81.0095C18.5223 80.0874 15.9803 79.379 15.9659 79.4277Z" fill="#1A2E35"/>
<path d="M25.2662 76.9002C25.2772 76.9063 25.3693 76.7773 25.5263 76.5384C25.7035 76.2681 25.9259 75.9296 26.1903 75.5268C26.7533 74.6748 27.5529 73.5126 28.4981 72.2749C29.4449 71.0375 30.3558 69.9601 31.027 69.1902C31.3446 68.8279 31.6117 68.5231 31.8247 68.2801C32.0125 68.0647 32.1124 67.9413 32.1033 67.9328C32.0939 67.9239 31.977 68.0307 31.7725 68.2311C31.5675 68.4313 31.2796 68.7289 30.9306 69.1035C30.2332 69.8528 29.3028 70.9214 28.3525 72.1633C27.4033 73.4058 26.6174 74.5849 26.0811 75.4567C25.8127 75.8929 25.6026 76.2499 25.4653 76.5014C25.3267 76.7519 25.2553 76.8938 25.2662 76.9002Z" fill="#1A2E35"/>
<path d="M34.0136 80.4228C33.9917 80.4386 34.2282 80.8031 34.6045 81.3948C34.981 81.9862 35.4913 82.8085 36.0204 83.7374C36.5486 84.6668 36.9947 85.5258 37.3108 86.1517C37.6271 86.7774 37.8195 87.167 37.8441 87.156C37.866 87.1467 37.7154 86.7383 37.428 86.0958C37.1408 85.4538 36.7105 84.5806 36.1796 83.6467C35.6481 82.7135 35.1175 81.8976 34.7123 81.3225C34.3072 80.7474 34.0329 80.4089 34.0136 80.4228Z" fill="#1A2E35"/>
<path d="M37.0061 91.4005C37.0192 91.4254 37.4995 91.1905 38.286 90.8367C39.0723 90.4824 40.1705 90.02 41.4114 89.5848C42.6531 89.1511 43.8 88.8278 44.6357 88.6142C45.4712 88.4002 45.993 88.2843 45.9877 88.2567C45.9853 88.2444 45.8523 88.2589 45.6128 88.2958C45.3733 88.3317 45.0289 88.3967 44.6058 88.4879C43.7593 88.6699 42.5995 88.9752 41.3506 89.4117C40.1028 89.8495 39.0059 90.3336 38.2306 90.7192C37.8429 90.9119 37.5333 91.0759 37.3237 91.1972C37.1134 91.3173 37.0002 91.3893 37.0061 91.4005Z" fill="#1A2E35"/>
<path d="M34.6497 104.523C34.6483 104.529 34.7019 104.547 34.8052 104.575C34.9296 104.607 35.0789 104.645 35.2585 104.691C35.6832 104.789 36.2486 104.919 36.9337 105.077C38.3461 105.406 40.3133 105.816 42.4051 106.522C44.4973 107.234 46.2924 108.14 47.5097 108.92C48.1198 109.309 48.5954 109.652 48.9162 109.899C49.2381 110.145 49.4137 110.285 49.4233 110.274C49.4273 110.269 49.3885 110.228 49.3107 110.155C49.2315 110.083 49.1183 109.972 48.9609 109.843C48.6524 109.578 48.1857 109.217 47.5803 108.811C46.3726 107.997 44.5703 107.065 42.4648 106.348C40.3561 105.637 38.3809 105.247 36.961 104.951C36.2706 104.816 35.7011 104.705 35.2735 104.621C34.8742 104.547 34.6524 104.51 34.6497 104.523Z" fill="#1A2E35"/>
<path d="M26.1299 107.758C26.18 107.765 26.48 105.998 26.7997 103.812C27.1198 101.625 27.3384 99.8469 27.2881 99.8396C27.2381 99.8324 26.9384 101.599 26.6183 103.785C26.2985 105.972 26.0799 107.751 26.1299 107.758Z" fill="#1A2E35"/>
<path d="M17.2601 104.536C17.2813 104.552 17.5796 104.183 18.0595 103.586C18.5387 102.99 19.2029 102.167 19.9538 101.274C20.7053 100.38 21.4008 99.5839 21.906 99.0091C22.4112 98.4337 22.7227 98.0762 22.7035 98.0583C22.6944 98.0494 22.6045 98.1273 22.4495 98.2756C22.2943 98.4238 22.0757 98.6443 21.8105 98.9213C21.2798 99.475 20.5666 100.26 19.8133 101.156C19.0606 102.052 18.4106 102.889 17.9567 103.507C17.7295 103.816 17.5499 104.069 17.4309 104.248C17.3112 104.426 17.25 104.528 17.2601 104.536Z" fill="#1A2E35"/>
<path d="M40.7336 112.763V117.146H39.6377L35.7419 129.442H27.1023L23.328 117.268L21.8672 117.146V112.763H40.7336Z" fill="#212121"/>
<path d="M22.5977 117.268C22.5977 117.318 26.4126 117.359 31.1174 117.359C35.8237 117.359 39.6379 117.318 39.6379 117.268C39.6379 117.217 35.8237 117.176 31.1174 117.176C26.4126 117.176 22.5977 117.217 22.5977 117.268Z" fill="#1A2E35"/>
<path d="M16.3838 89.0757C16.3814 89.088 16.5789 89.1407 16.9375 89.2253C17.3266 89.319 17.8374 89.4421 18.454 89.5909C19.7321 89.9072 21.487 90.3878 23.3908 91.0271C25.2945 91.6685 26.9834 92.3464 28.1929 92.8663C28.7742 93.1206 29.2556 93.3309 29.6222 93.4915C29.9591 93.6411 30.148 93.7184 30.1537 93.7069C30.1593 93.6956 29.9808 93.5966 29.653 93.4272C29.3257 93.2562 28.8453 93.0232 28.2456 92.7478C27.0468 92.196 25.3595 91.4967 23.4494 90.8534C21.5389 90.212 19.7722 89.7495 18.4837 89.4646C17.8396 89.3217 17.3159 89.2167 16.9519 89.1555C16.5883 89.0923 16.3862 89.0631 16.3838 89.0757Z" fill="#1A2E35"/>
<path d="M25.4661 124.096C25.4661 124.146 28.1424 124.188 31.4433 124.188C34.7455 124.188 37.4213 124.146 37.4213 124.096C37.4213 124.045 34.7455 124.004 31.4433 124.004C28.1424 124.004 25.4661 124.045 25.4661 124.096Z" fill="#4B7BE5"/>
<path d="M25.1301 123.08C25.1301 123.131 27.9667 123.172 31.4646 123.172C34.9641 123.172 37.7999 123.131 37.7999 123.08C37.7999 123.03 34.9641 122.988 31.4646 122.988C27.9667 122.988 25.1301 123.03 25.1301 123.08Z" fill="#4B7BE5"/>
<path d="M152.64 102.932C151.344 106.12 147.71 107.654 144.522 106.359C141.335 105.063 139.801 101.429 141.096 98.2416C142.392 95.0542 146.026 93.52 149.213 94.8155C152.401 96.111 153.935 99.745 152.64 102.932ZM162.566 95.7176L144.726 75.6756C143.305 74.0796 141.275 73.1599 139.139 73.1443L80.4023 72.7164C76.202 72.6859 72.7836 76.0877 72.7935 80.288L72.892 121.88C72.9019 126.057 76.3002 129.433 80.4775 129.416L139.009 129.17C141.199 129.16 143.278 128.201 144.705 126.54L162.651 105.664C165.118 102.795 165.081 98.544 162.566 95.7176Z" fill="#4B7BE5"/>
<path d="M155.731 102.932C154.436 106.12 150.802 107.654 147.614 106.359C144.427 105.063 142.893 101.429 144.188 98.2416C145.484 95.0542 149.118 93.52 152.305 94.8155C155.493 96.111 157.027 99.745 155.731 102.932ZM165.657 95.7176L147.818 75.6756C146.397 74.0796 144.367 73.1599 142.23 73.1443L83.4941 72.7164C79.2937 72.6859 75.8754 76.0877 75.8853 80.288L75.9837 121.88C75.9937 126.057 79.392 129.433 83.569 129.416L142.101 129.17C144.291 129.16 146.369 128.201 147.797 126.54L165.743 105.664C168.21 102.795 168.173 98.544 165.657 95.7176Z" fill="#4B7BE5"/>
<path d="M126.136 108.711C126.166 105.55 124.941 103.958 123.061 103.94C121.225 103.923 119.929 105.449 119.899 108.653C119.869 111.857 121.136 113.407 122.973 113.424C124.853 113.442 126.107 111.872 126.136 108.711ZM115.627 108.613C115.673 103.572 118.779 100.397 123.094 100.437C127.452 100.477 130.498 103.71 130.451 108.751C130.404 113.792 127.298 116.968 122.941 116.927C118.626 116.887 115.58 113.655 115.627 108.613ZM120.744 86.6573L125.828 86.7046L105.129 116.42L100.045 116.373L120.744 86.6573ZM105.974 94.424C106.004 91.2199 104.779 89.6708 102.9 89.6531C101.063 89.636 99.7665 91.2047 99.737 94.3662C99.7076 97.5276 100.975 99.1199 102.811 99.1373C104.691 99.1547 105.945 97.6283 105.974 94.424ZM95.4222 94.326C95.469 89.2849 98.5748 86.1092 102.932 86.1496C107.29 86.1903 110.294 89.3801 110.246 94.4638C110.199 99.5478 107.137 102.681 102.779 102.64C98.4215 102.6 95.3753 99.3671 95.4222 94.326Z" fill="white"/>
<path d="M163.705 108.093C163.721 108.075 163.922 108.22 164.289 108.512C164.656 108.805 165.191 109.245 165.868 109.825C166.546 110.404 167.369 111.122 168.297 111.988C169.224 112.853 170.26 113.865 171.332 115.057C172.399 116.251 173.517 117.618 174.525 119.223C174.65 119.423 174.777 119.626 174.905 119.83C175.023 120.04 175.143 120.251 175.264 120.464C175.511 120.885 175.737 121.336 175.943 121.803C176.351 122.737 176.684 123.768 176.717 124.888C176.732 125.445 176.657 126.021 176.47 126.572C176.285 127.124 175.983 127.648 175.589 128.089C174.805 128.98 173.709 129.578 172.527 129.84C171.341 130.099 170.098 130.024 168.911 129.754C167.72 129.483 166.575 129.033 165.463 128.487C163.237 127.387 161.329 125.854 159.707 124.199C158.895 123.368 158.156 122.497 157.482 121.612C156.809 120.732 156.17 119.856 155.565 118.988C153.151 115.513 151.284 112.163 150.107 109.172C149.813 108.426 149.557 107.707 149.338 107.017C149.231 106.671 149.129 106.335 149.046 106.002C148.966 105.666 148.878 105.352 148.853 105.012C148.766 104.348 148.932 103.68 149.292 103.217C149.647 102.748 150.125 102.482 150.562 102.334C150.781 102.254 150.998 102.221 151.2 102.186C151.405 102.176 151.595 102.153 151.772 102.174C152.127 102.186 152.418 102.279 152.643 102.365C152.862 102.467 153.022 102.561 153.108 102.651C153.2 102.734 153.241 102.779 153.233 102.788C153.225 102.797 153.167 102.769 153.066 102.709C152.971 102.641 152.807 102.572 152.594 102.497C152.375 102.437 152.099 102.371 151.766 102.381C151.6 102.371 151.423 102.404 151.234 102.423C151.049 102.467 150.851 102.506 150.654 102.589C150.261 102.742 149.847 103.002 149.561 103.413C149.27 103.819 149.147 104.377 149.239 104.964C149.267 105.256 149.363 105.575 149.449 105.893C149.538 106.214 149.646 106.542 149.759 106.879C149.991 107.552 150.259 108.256 150.564 108.987C151.778 111.904 153.67 115.199 156.091 118.619C156.697 119.474 157.337 120.338 158.009 121.206C158.676 122.07 159.401 122.915 160.195 123.721C161.782 125.327 163.633 126.806 165.773 127.863C166.841 128.388 167.946 128.822 169.064 129.078C170.18 129.335 171.321 129.4 172.381 129.172C173.433 128.946 174.412 128.413 175.091 127.648C175.782 126.89 176.097 125.889 176.075 124.9C176.055 123.907 175.761 122.939 175.382 122.047C175.189 121.599 174.979 121.167 174.741 120.751C174.626 120.541 174.512 120.333 174.398 120.127C174.276 119.926 174.155 119.727 174.035 119.529C173.07 117.946 171.993 116.582 170.962 115.383C169.927 114.185 168.924 113.156 168.027 112.269C167.13 111.381 166.336 110.636 165.687 110.027C165.042 109.417 164.54 108.943 164.196 108.617C163.859 108.291 163.689 108.111 163.705 108.093Z" fill="#212121"/>
<path d="M138.172 82.1986L139.911 81.1969L140.836 79.4152L141.837 81.1546L143.619 82.079L141.879 83.0806L140.955 84.8623L139.954 83.1226L138.172 82.1986Z" fill="white"/>
<path d="M128.769 79.4349L129.378 79.084L129.702 78.4602L130.052 79.0696L130.676 79.3931L130.067 79.7437L129.744 80.3672L129.393 79.7584L128.769 79.4349Z" fill="white"/>
<path d="M134.774 91.7264L135.951 91.0489L136.577 89.8428L137.255 91.02L138.46 91.6456L137.283 92.3235L136.658 93.5293L135.98 92.3521L134.774 91.7264Z" fill="white"/>
<path d="M56.3784 60.3833L53.9162 56.0441C55.0056 54.276 55.635 52.1943 55.635 49.9655C55.635 43.5553 50.4384 38.3586 44.0282 38.3586C37.618 38.3586 32.4214 43.5553 32.4214 49.9655C32.4214 56.3757 37.618 61.5723 44.0282 61.5723C46.705 61.5723 49.1681 60.6637 51.1315 59.1416L51.1275 59.1467L56.3784 60.3833Z" fill="white"/>
<path d="M56.379 60.3839C56.1365 60.3285 54.4699 59.9475 51.1203 59.1813C51.1015 59.177 51.0898 59.1583 51.094 59.1398C51.0951 59.135 51.0978 59.1299 51.1005 59.1264L51.1045 59.1211L51.1532 59.1698C50.4911 59.6825 49.6982 60.188 48.7659 60.609C47.8325 61.0227 46.7629 61.3607 45.5825 61.5178C44.9929 61.593 44.3772 61.6417 43.7443 61.6106C43.428 61.5927 43.106 61.5849 42.7814 61.5579C42.459 61.5092 42.132 61.4597 41.8007 61.4096C40.4862 61.1501 39.1423 60.651 37.8888 59.8731C36.6359 59.0981 35.4758 58.0453 34.5462 56.7523C33.6179 55.4613 32.9135 53.9306 32.5841 52.2672C32.2576 50.6062 32.2849 48.8261 32.7211 47.103C33.1605 45.386 33.981 43.7087 35.2096 42.3286L35.6838 41.8071C35.8395 41.6315 36.0252 41.487 36.1941 41.3259C36.371 41.1737 36.5305 41.0013 36.7205 40.867L37.2776 40.4503C37.458 40.3045 37.6568 40.187 37.8546 40.0687C38.0513 39.9494 38.2477 39.83 38.4436 39.7112C38.6496 39.6111 38.8551 39.5113 39.0601 39.4118C39.267 39.3165 39.4656 39.2036 39.6826 39.1351C41.369 38.4655 43.1673 38.2107 44.8864 38.3354C46.6058 38.4591 48.2513 38.9525 49.6626 39.7471C51.0785 40.5352 52.2726 41.5876 53.1942 42.763C54.1185 43.9391 54.7699 45.2362 55.1734 46.5276C55.574 47.8252 55.6821 49.1124 55.6778 50.3038C55.6433 51.4978 55.426 52.5982 55.1094 53.5638C54.7921 54.5306 54.3754 55.3623 53.9451 56.0621L53.9459 56.0281C55.5012 58.8125 56.2628 60.1763 56.379 60.3839C56.2601 60.1779 55.4803 58.8246 53.8878 56.061C53.8814 56.0503 53.8822 56.037 53.8884 56.0271C54.3114 55.3286 54.7209 54.4998 55.031 53.5383C55.3409 52.5782 55.5518 51.4855 55.5815 50.3008C55.5812 49.1191 55.4699 47.844 55.0693 46.5597C54.666 45.2814 54.0179 43.9988 53.1005 42.8368C52.1859 41.6752 51.0025 40.6363 49.6008 39.8589C48.2036 39.0751 46.5766 38.5899 44.8765 38.469C43.177 38.3478 41.3998 38.6009 39.734 39.2632C39.5196 39.3309 39.3235 39.4425 39.119 39.537C38.9164 39.6352 38.7133 39.7339 38.5099 39.833C38.3165 39.9504 38.1224 40.0682 37.9282 40.1865C37.7328 40.3034 37.5361 40.4196 37.3582 40.5638L36.8077 40.9754C36.6198 41.1081 36.4625 41.2788 36.2877 41.429C36.121 41.5882 35.9372 41.7308 35.7833 41.9045L35.3147 42.4199C34.1009 43.7833 33.29 45.4406 32.8552 47.137C32.423 48.8389 32.3949 50.599 32.7158 52.241C33.0398 53.8854 33.734 55.3995 34.6503 56.6776C35.5679 57.9578 36.7138 59.0015 37.952 59.7711C39.191 60.5437 40.5202 61.0409 41.8215 61.3018C42.1496 61.3521 42.4734 61.4022 42.7927 61.4514C43.1143 61.4792 43.4336 61.4878 43.7467 61.5065C44.374 61.5392 44.9846 61.4931 45.5693 61.4206C46.7406 61.2692 47.8028 60.9381 48.7314 60.5319C49.6589 60.1182 50.4494 59.6204 51.1106 59.1149C51.1259 59.1029 51.1476 59.1058 51.1596 59.1208C51.1692 59.1337 51.1687 59.1513 51.1596 59.1634L51.1556 59.1685L51.1361 59.1136C54.4758 59.9228 56.1373 60.3253 56.379 60.3839Z" fill="#808080"/>
<path d="M40.6199 47.7558C40.4497 47.6643 40.2388 47.6319 40.0424 47.607C39.4245 47.5289 38.8965 47.7045 38.448 48.1963C39.7047 48.9247 41.4136 49.8905 42.6365 50.5879L44.1801 49.7053C43.0693 49.0914 41.6721 48.3215 40.6199 47.7558Z" fill="#FF4F5B"/>
<g opacity="0.300003">
<g opacity="0.300003">
<path opacity="0.300003" d="M40.6199 47.7558C40.4497 47.6643 40.2388 47.6319 40.0424 47.607C39.4245 47.5289 38.8965 47.7045 38.448 48.1963C39.7047 48.9247 41.4136 49.8905 42.6365 50.5879L44.1801 49.7053C43.0693 49.0914 41.6721 48.3215 40.6199 47.7558Z" fill="black"/>
</g>
</g>
<path d="M47.1196 54.1055C47.638 54.1146 48.0822 53.6883 48.0956 53.1692C48.1098 52.6211 47.6923 52.1836 47.1491 52.1769C46.6248 52.1705 46.1846 52.5869 46.1656 53.1071C46.1463 53.6308 46.5911 54.0962 47.1196 54.1055ZM47.1309 48.9996C47.6741 49.0021 48.1009 48.5712 48.0958 48.0253C48.0913 47.504 47.6588 47.0732 47.1381 47.071C46.6096 47.0689 46.1581 47.5235 46.1656 48.051C46.1726 48.5693 46.6082 48.9972 47.1309 48.9996ZM45.3478 52.2149C45.3085 52.1823 45.3007 52.1737 45.2911 52.1683C44.9068 51.9462 44.4995 51.5221 44.1101 51.5301C43.9622 51.5331 43.8024 51.6607 43.4195 51.8767C42.7812 52.2366 41.7095 52.8647 41.068 53.2187C40.5205 53.5208 39.8528 53.7472 39.2293 53.5508C38.9261 53.4553 38.6845 53.2853 38.3655 53.0287C40.756 51.6425 43.0384 50.3195 45.3467 48.9812C45.3104 48.8776 45.274 48.7778 45.24 48.6772C44.9571 47.8385 45.26 46.9158 45.9852 46.406C46.7171 45.8914 47.7033 45.9283 48.4039 46.4962C49.0857 47.0491 49.3201 48.0017 48.9744 48.8155C48.6254 49.6363 47.7929 50.1158 46.9101 50.0262C46.7586 50.0109 46.5844 50.0537 46.4453 50.1201C46.1793 50.2472 45.9309 50.4105 45.6141 50.594C46.1512 50.8357 46.5162 51.2194 47.1434 51.1611C48.0099 51.0805 48.7801 51.7083 49.0432 52.5459C49.3009 53.3651 49.0014 54.2567 48.2995 54.7598C47.5936 55.2659 46.6288 55.2546 45.9325 54.7323C45.2459 54.2171 44.9651 53.3148 45.2397 52.5007C45.271 52.4076 45.309 52.3169 45.3478 52.2149Z" fill="#FF4F5B"/>
<path d="M44.5342 50.5561C44.5101 50.5638 44.52 50.3744 44.3246 50.2333C44.2312 50.1675 44.0843 50.1343 43.946 50.1889C43.8087 50.2395 43.6923 50.3861 43.6936 50.5561C43.6923 50.726 43.8087 50.8726 43.946 50.9232C44.0846 50.9778 44.2312 50.9446 44.3246 50.8785C44.52 50.7378 44.5101 50.5483 44.5342 50.5561C44.5422 50.5558 44.5561 50.5967 44.5462 50.6735C44.5366 50.7487 44.4954 50.8638 44.3843 50.9569C44.2773 51.0501 44.0897 51.1087 43.9024 51.0439C43.7164 50.985 43.5521 50.7881 43.5545 50.5561C43.5523 50.3238 43.7164 50.1268 43.9024 50.0682C44.0897 50.0035 44.2773 50.0621 44.3843 50.1552C44.4954 50.2483 44.5366 50.3634 44.5462 50.4383C44.5561 50.5151 44.5422 50.5563 44.5342 50.5561Z" fill="#1A2E35"/>
<path d="M46.241 50.216C46.2429 50.2195 46.1925 50.2529 46.0994 50.3107C45.9769 50.3851 45.8457 50.4646 45.7026 50.551C45.3193 50.7764 44.8743 51.0375 44.3827 51.3263C43.8879 51.6097 43.44 51.8663 43.0543 52.0874C42.908 52.1684 42.7739 52.2428 42.6487 52.3124C42.5523 52.3646 42.4983 52.3916 42.4964 52.3884C42.4945 52.3849 42.5451 52.3512 42.6385 52.2934C42.761 52.219 42.8922 52.1395 43.0353 52.0528C43.4183 51.8278 43.8633 51.5666 44.3552 51.2779C44.8494 50.9945 45.2971 50.7381 45.6828 50.5171C45.8289 50.436 45.9629 50.3616 46.0884 50.292C46.1848 50.2401 46.2391 50.2128 46.241 50.216Z" fill="#1A2E35"/>
<path d="M45.0808 49.1465C45.0819 49.1481 45.0594 49.1633 45.0158 49.1912C44.9582 49.2273 44.8951 49.2666 44.8239 49.3108C44.6304 49.428 44.393 49.5717 44.1129 49.7414C43.5115 50.1034 42.6796 50.6014 41.747 51.1281C40.8293 51.6491 40 52.1198 39.3613 52.4824C39.0755 52.6419 38.8328 52.7771 38.6355 52.8873C38.5617 52.9272 38.4964 52.9625 38.4364 52.9949C38.3907 53.019 38.3663 53.0308 38.3655 53.0292C38.3644 53.0273 38.3872 53.0123 38.4311 52.985C38.4894 52.9499 38.5528 52.9117 38.6248 52.8683C38.8199 52.7541 39.0594 52.6138 39.342 52.4482C39.9784 52.0818 40.8047 51.606 41.7189 51.0799C42.6509 50.5535 43.4864 50.0609 44.0928 49.7074C44.3764 49.5439 44.617 49.405 44.8129 49.2921C44.886 49.2511 44.951 49.215 45.0101 49.1818C45.0556 49.1569 45.08 49.1449 45.0808 49.1465Z" fill="#1A2E35"/>
<path d="M89.2883 63.7174L89.7962 64.646L90.7245 65.1536L89.7962 65.6615L89.2883 66.5898L88.7806 65.6615L87.8521 65.1536L88.7806 64.646L89.2883 63.7174Z" fill="#FF4F5B"/>
<path d="M92.6821 50.9994L93.2101 50.9646L93.6359 50.6504L93.6707 51.1784L93.9848 51.6042L93.4568 51.639L93.0311 51.9531L92.9963 51.4251L92.6821 50.9994Z" fill="#FF4F5B"/>
<path d="M178.279 93.2262L178.807 93.1912L179.232 92.877L179.267 93.4052L179.581 93.831L179.054 93.8658L178.628 94.1797L178.593 93.652L178.279 93.2262Z" fill="#FF4F5B"/>
<path d="M117.984 66.808L118.512 66.7732L118.938 66.459L118.972 66.987L119.287 67.4128L118.759 67.4478L118.333 67.7617L118.298 67.2337L117.984 66.808Z" fill="#FF4F5B"/>
<path d="M121.2 44.1957L121.728 44.1609L122.153 43.8467L122.188 44.3747L122.502 44.8005L121.975 44.8352L121.549 45.1494L121.514 44.6214L121.2 44.1957Z" fill="#FF4F5B"/>
<path d="M104.997 58.2284L105.799 57.7659L106.226 56.9433L106.689 57.7464L107.511 58.1732L106.708 58.6354L106.282 59.458L105.819 58.6552L104.997 58.2284Z" fill="#FF4F5B"/>
<path d="M172.446 103.858L173.249 103.396L173.676 102.573L174.138 103.376L174.96 103.803L174.157 104.265L173.731 105.088L173.268 104.285L172.446 103.858Z" fill="#FF4F5B"/>
<path d="M168.415 89.1793L169.218 88.7168L169.645 87.8942L170.107 88.6973L170.93 89.1241L170.127 89.5863L169.7 90.4092L169.237 89.6061L168.415 89.1793Z" fill="#FF4F5B"/>
<path d="M178.777 26C183.748 26 187.777 21.9706 187.777 17C187.777 12.0294 183.748 8 178.777 8C173.807 8 169.777 12.0294 169.777 17C169.777 21.9706 173.807 26 178.777 26Z" fill="#212121"/>
<path d="M207.777 131L204.389 131L202.777 116L207.777 116L207.777 131Z" fill="#FFB8B8"/>
<path d="M200.8 130H208.777V135H195.777C195.777 134.343 195.907 133.693 196.16 133.087C196.412 132.48 196.782 131.929 197.248 131.464C197.715 131 198.269 130.632 198.878 130.381C199.487 130.129 200.14 130 200.8 130Z" fill="#4B7BE5"/>
<path d="M168.209 131L164.777 129.923L166.713 114L171.777 115.59L168.209 131Z" fill="#FFB8B8"/>
<path d="M161.975 127.859L169.242 129.818L168.008 134.394L156.165 131.201C156.492 129.987 157.288 128.953 158.378 128.327C159.467 127.7 160.761 127.532 161.975 127.859Z" fill="#4B7BE5"/>
<path d="M175.427 61.9592L163.777 127.808L169.751 129L188.57 82.5184L202.609 128.702L209.777 127.808C209.777 127.808 206.492 61.6612 196.037 56L175.427 61.9592Z" fill="#212121"/>
<path d="M157.362 84.6681C157.774 84.4683 158.135 84.1829 158.421 83.832C158.707 83.4811 158.911 83.0732 159.018 82.6371C159.125 82.2011 159.133 81.7473 159.041 81.308C158.949 80.8686 158.76 80.4542 158.486 80.0941L164.777 71.0879L158.975 71L153.891 79.5659C153.301 80.0549 152.916 80.7379 152.808 81.4855C152.7 82.2332 152.877 82.9935 153.305 83.6224C153.733 84.2513 154.382 84.7051 155.13 84.8978C155.878 85.0906 156.672 85.0088 157.362 84.6681Z" fill="#FFB8B8"/>
<path d="M199.362 73.6443C199.774 73.4303 200.135 73.1245 200.421 72.7485C200.707 72.3726 200.911 71.9356 201.018 71.4684C201.125 71.0011 201.133 70.515 201.041 70.0442C200.949 69.5735 200.76 69.1295 200.486 68.7436L206.777 59.0942L200.975 59L195.891 68.1777C195.301 68.7016 194.916 69.4334 194.808 70.2345C194.7 71.0355 194.877 71.8501 195.305 72.524C195.733 73.1978 196.382 73.684 197.13 73.8905C197.878 74.097 198.672 74.0094 199.362 73.6443V73.6443Z" fill="#FFB8B8"/>
<path d="M179.277 27C183.419 27 186.777 23.6421 186.777 19.5C186.777 15.3579 183.419 12 179.277 12C175.135 12 171.777 15.3579 171.777 19.5C171.777 23.6421 175.135 27 179.277 27Z" fill="#FFB8B8"/>
<path d="M195.97 32.0135C195.669 30.8658 190.547 31.1527 190.547 31.1527C190.547 31.1527 184.78 29.8901 184.835 30.0479C179.975 29.6917 174.047 31.4293 173.183 31.6928C171.417 32.1569 168.042 33.5767 165.608 34.6209C165.269 34.7663 165.004 35.0332 164.871 35.3636C164.738 35.6939 164.747 36.061 164.896 36.385L172.321 52.5277L173.375 63L197.777 55.8272C191.752 53.5319 196.271 33.1611 195.97 32.0135Z" fill="#4B7BE5"/>
<path d="M194.33 32.5039L196.169 32L206.224 53.6274L206.777 66L200.416 60.5682V55.74L193.777 46.3852L194.33 32.5039Z" fill="#4B7BE5"/>
<path d="M168.17 34L165.754 35.0275C165.629 35.081 165.519 35.1633 165.434 35.2672C165.349 35.371 165.293 35.4932 165.269 35.6229L160.483 61.7816L155.777 74.9966L162.052 78L169.268 61.4812L171.777 49.4676L168.17 34Z" fill="#4B7BE5"/>
<path d="M170.777 15.09C172.391 14.5631 174.093 15.3891 175.669 16.0179C177.222 16.6376 178.882 17.0842 180.553 16.9866C182.224 16.889 183.913 16.1872 184.923 14.8601C185.934 13.5329 186.111 11.5439 185.111 10.2091C184.453 9.33038 183.403 8.82903 182.351 8.50256C180.104 7.80503 177.589 7.78094 175.453 8.76501C173.317 9.74908 171.642 11.828 171.466 14.1626" fill="#212121"/>
<path d="M178.864 9.33489C178.334 5.73816 180.298 2.00378 182.979 0.664146C185.659 -0.675486 188.804 0.114775 191.218 2.10965C193.633 4.10453 195.393 7.17006 196.703 10.4287C198.013 13.6874 198.921 17.1777 199.988 20.5763C200.936 23.5946 202.049 26.6148 203.849 28.9232C205.65 31.2317 208.268 32.7338 210.777 32.0996C208.716 34.8798 204.924 34.3984 202.572 32.0203C200.219 29.6422 198.996 25.9253 198.034 22.3072C197.071 18.689 196.233 14.9034 194.371 11.9051C191.058 6.5711 184.557 4.9686 179.914 8.34154" fill="#212121"/>
</svg>
