<svg width="13" height="14" viewBox="0 0 13 14" fill="none" xmlns="http://www.w3.org/2000/svg">
<path d="M2.88889 6.3H4.33333V7.7H2.88889V6.3ZM13 2.8V12.6C13 13.37 12.35 14 11.5556 14H1.44444C1.06135 14 0.693954 13.8525 0.423068 13.5899C0.152182 13.3274 0 12.9713 0 12.6L0.00722222 2.8C0.00722222 2.03 0.642778 1.4 1.44444 1.4H2.16667V0H3.61111V1.4H9.38889V0H10.8333V1.4H11.5556C12.35 1.4 13 2.03 13 2.8ZM1.44444 4.2H11.5556V2.8H1.44444V4.2ZM11.5556 12.6V5.6H1.44444V12.6H11.5556ZM8.66667 7.7H10.1111V6.3H8.66667V7.7ZM5.77778 7.7H7.22222V6.3H5.77778V7.7Z" fill="#4B7BE5"/>
</svg>
