<svg width="18" height="18" viewBox="0 0 18 18" fill="none" xmlns="http://www.w3.org/2000/svg">
<path d="M9 0C4.03579 0 0 4.03579 0 9C0 13.9642 4.03579 18 9 18C13.9642 18 18 13.9642 18 9C18 4.03579 13.9642 0 9 0ZM9 16.7684C4.71789 16.7684 1.23158 13.2821 1.23158 9C1.23158 4.71789 4.71789 1.23158 9 1.23158C13.2821 1.23158 16.7684 4.71789 16.7684 9C16.7684 13.2821 13.2821 16.7684 9 16.7684Z" fill="#4B7BE5"/>
<path d="M12.2587 5.74089C12.0124 5.49457 11.6334 5.49457 11.3871 5.74089L8.99974 8.12826L6.59342 5.74089C6.34711 5.49457 5.96816 5.49457 5.72185 5.74089C5.47553 5.9872 5.47553 6.36615 5.72185 6.61247L8.12816 8.99984L5.74079 11.4062C5.49448 11.6525 5.49448 12.0314 5.74079 12.2777C5.85448 12.3914 6.025 12.4483 6.17658 12.4483C6.32816 12.4483 6.49869 12.3914 6.61237 12.2777L8.99974 9.87142L11.4061 12.2777C11.5197 12.3914 11.6903 12.4483 11.8418 12.4483C11.9934 12.4483 12.164 12.3914 12.2776 12.2777C12.524 12.0314 12.524 11.6525 12.2776 11.4062L9.87132 8.99984L12.2776 6.59352C12.505 6.36615 12.505 5.96826 12.2587 5.74089Z" fill="#4B7BE5"/>
</svg>
