<svg width="11" height="12" viewBox="0 0 11 12" fill="none" xmlns="http://www.w3.org/2000/svg">
<path d="M9.0349 12C8.70854 12.0004 8.38732 11.9257 8.1008 11.7828C7.81427 11.6399 7.57165 11.4335 7.39524 11.1825C7.21883 10.9314 7.11431 10.6438 7.09128 10.3462C7.06826 10.0485 7.12747 9.7504 7.26348 9.47916L3.41019 7.17602C3.14915 7.44856 2.80334 7.6417 2.41898 7.72973C2.03463 7.81775 1.63004 7.79646 1.25931 7.66861C0.888573 7.54076 0.569354 7.31245 0.344321 7.01428C0.119288 6.7161 -0.000836861 6.36227 4.38848e-06 6C0.000845638 5.63773 0.122613 5.28433 0.349029 4.98704C0.575445 4.68974 0.895723 4.4627 1.26705 4.33629C1.63837 4.20988 2.04305 4.1901 2.427 4.27962C2.81094 4.36913 3.15585 4.56367 3.41562 4.83722L7.26891 2.53408C7.15016 2.30281 7.08837 2.05053 7.08788 1.79504C7.08621 1.38175 7.24115 0.980681 7.52636 0.660039C7.81156 0.339396 8.20943 0.118963 8.65231 0.0362174C9.09519 -0.0465279 9.55574 0.0135029 9.95567 0.206139C10.3556 0.398776 10.6702 0.712122 10.846 1.09287C11.0218 1.47363 11.048 1.89832 10.92 2.2947C10.792 2.69109 10.5179 3.03471 10.1441 3.26716C9.77035 3.49961 9.32007 3.60651 8.86983 3.56972C8.41959 3.53294 7.99719 3.35472 7.67443 3.06536L3.77678 5.39421C3.85661 5.59018 3.89798 5.79749 3.89898 6.00662C3.8986 6.21579 3.85721 6.4232 3.77678 6.61902L7.669 8.94787C7.89697 8.74288 8.1766 8.59228 8.48325 8.50943C8.78989 8.42658 9.11412 8.41403 9.42734 8.47281C9.74056 8.53158 10.0332 8.65991 10.2793 8.84649C10.5255 9.03308 10.7176 9.27218 10.8389 9.5427C10.9601 9.81322 11.0066 10.1069 10.9744 10.3977C10.9422 10.6886 10.8322 10.9677 10.6542 11.2105C10.4761 11.4533 10.2354 11.6523 9.95332 11.79C9.67125 11.9277 9.35646 11.9998 9.03671 12H9.0349Z" fill="#34B751"/>
</svg>
