<svg xmlns="http://www.w3.org/2000/svg" width="16" height="16" viewBox="0 0 16 16">
    <path id="Path_2009" data-name="Path 2009" d="M17.83,4.583,15.414,2.167A.571.571,0,0,0,15.01,2H10.177a.57.57,0,0,0-.4.167L2.524,9.417a1.962,1.962,0,0,0-.441.727,1.594,1.594,0,0,0,.441,1.692l5.638,5.638A1.646,1.646,0,0,0,9.341,18a1.882,1.882,0,0,0,1.239-.526l1.605-1.605.007,0s0,0,0-.007l4.826-4.826h0v0l.8-.8a.567.567,0,0,0,.168-.4V4.988A.571.571,0,0,0,17.83,4.583ZM14.773,3.143l2.082,2.082v4.36l-.234.234L10.18,3.377l.234-.234Zm-5,13.519a.738.738,0,0,1-.436.2.5.5,0,0,1-.371-.191L3.333,11.028a.52.52,0,0,1,0-.8L4.54,9.018a.571.571,0,0,0,.807-.807L9.372,4.185l6.441,6.441-4.025,4.025a.571.571,0,0,0-.808.808Zm4.829-10.13a1.141,1.141,0,0,0,.807-1.948,1.168,1.168,0,0,0-1.614,0,1.141,1.141,0,0,0,.807,1.947ZM7.762,10.626a.571.571,0,1,1-.808.808l-.806-.806a.571.571,0,0,1,.808-.808Zm2.416,2.417a.571.571,0,1,1-.808.808l-.806-.806a.571.571,0,1,1,.808-.808Z" transform="translate(-1.998 -2)"/>
</svg>
