<svg width="40" height="40" viewBox="0 0 40 40" fill="none" xmlns="http://www.w3.org/2000/svg">
<circle cx="20" cy="20" r="20" fill="#EEEEEE"/>
<path d="M30.9713 14.1089L24.7725 20.004L30.9711 25.8996C30.9882 25.7829 31.0002 25.664 31.0002 25.5424V14.4656C31.0002 14.344 30.9884 14.2256 30.9713 14.1089Z" fill="#4B7BE5"/>
<path d="M21.3567 21.5541L30.4471 12.9088C29.9981 12.3552 29.3158 12 28.5549 12H11.4438C10.6828 12 10.0006 12.3552 9.55127 12.9085L18.6419 21.5543C19.3777 22.2541 20.6212 22.2541 21.3567 21.5541Z" fill="#4B7BE5"/>
<path d="M9.02884 14.1089C9.01198 14.2256 9 14.3445 9 14.4661V25.5429C9 25.6645 9.01198 25.7834 9.02884 25.9L15.2275 20.004L9.02884 14.1089Z" fill="#4B7BE5"/>
<path d="M22.1961 22.4493C21.5904 23.0258 20.795 23.3138 19.9996 23.3138C19.2039 23.3138 18.4085 23.0258 17.803 22.4493L16.1173 20.8461L9.55176 27.0915C10.0008 27.6448 10.683 28 11.444 28H28.5551C29.3161 28 29.9983 27.6448 30.4474 27.0915L23.8818 20.8464L22.1961 22.4493Z" fill="#4B7BE5"/>
</svg>
