<svg width="40" height="40" viewBox="0 0 40 40" fill="none" xmlns="http://www.w3.org/2000/svg">
<circle cx="20" cy="20" r="20" fill="#EEEEEE"/>
<path d="M30.7837 17.8355H29.8967V17.7897H19.9877V22.1924H26.2097C25.739 23.5288 24.8512 24.6786 23.6773 25.4722C22.5033 26.2659 21.1053 26.6613 19.6894 26.6003C18.2735 26.5394 16.9147 26.0251 15.8133 25.1334C14.712 24.2418 13.9264 23.0199 13.5725 21.648C13.2186 20.2761 13.315 18.8268 13.8476 17.5138C14.3801 16.2009 15.3207 15.0938 16.5304 14.3558C17.7402 13.6178 19.1551 13.288 20.5666 13.415C21.9781 13.542 23.3115 14.1191 24.3699 15.0612L27.4844 11.9477C25.6323 10.2278 23.2442 9.19817 20.7219 9.03205C18.1995 8.86593 15.697 9.57344 13.6352 11.0355C11.5735 12.4976 10.0784 14.6251 9.40158 17.0599C8.72477 19.4947 8.90753 22.0882 9.91909 24.4041C10.9307 26.7201 12.7093 28.6169 14.9557 29.7756C17.2021 30.9343 19.7792 31.2841 22.2534 30.7661C24.7275 30.2481 26.9476 28.894 28.5402 26.9315C30.1328 24.9691 31.0006 22.5181 30.9977 19.991C30.9969 19.2673 30.9252 18.5453 30.7837 17.8355Z" fill="#FBC02D"/>
<path d="M10.2567 14.9287L13.9008 17.6007C14.2982 16.6115 14.928 15.7326 15.737 15.0381C16.5459 14.3436 17.5102 13.8541 18.5483 13.6108C19.5864 13.3675 20.6679 13.3777 21.7013 13.6404C22.7346 13.9031 23.6895 14.4107 24.4853 15.1203L27.6208 11.985C26.3756 10.8206 24.8783 9.95944 23.2455 9.46867C21.6126 8.9779 19.8885 8.87079 18.2075 9.15571C16.5264 9.44062 14.9339 10.1099 13.5542 11.1112C12.1744 12.1126 11.0446 13.419 10.2529 14.9287H10.2567Z" fill="#E53935"/>
<path d="M20.0695 30.986C22.8197 30.9854 25.4707 29.9587 27.5035 28.1069L24.0734 25.203C23.2423 25.8329 22.2745 26.2582 21.2484 26.4443C20.2222 26.6304 19.1666 26.5722 18.1672 26.2743C17.1678 25.9765 16.2526 25.4473 15.4959 24.7298C14.7393 24.0123 14.1624 23.1266 13.8121 22.1446L10.1946 24.9307C11.1218 26.7523 12.5349 28.2821 14.2777 29.3508C16.0205 30.4194 18.025 30.9854 20.0695 30.986Z" fill="#4CAF50"/>
<path d="M30.7819 17.7632L30.7733 17.7167H19.834V22.1957H26.1441C25.7044 23.4357 24.9114 24.52 23.8627 25.3148L27.3183 28.2473C28.4943 27.213 29.4322 25.9364 30.0676 24.5052C30.703 23.074 31.0207 21.5222 30.999 19.9565C30.9983 19.2201 30.9256 18.4855 30.7819 17.7632Z" fill="#1565C0"/>
</svg>
