<svg width="40" height="40" viewBox="0 0 40 40" fill="none" xmlns="http://www.w3.org/2000/svg">
<circle cx="20" cy="20" r="20" fill="#EEEEEE"/>
<path d="M25.5 15.3662C25.5 12.4148 23.025 10 20 10C16.975 10 14.5 12.4148 14.5 15.3662C14.5 18.3176 16.975 20.7324 20 20.7324C23.025 20.7324 25.5 18.3176 25.5 15.3662Z" fill="#00CAB7"/>
<path d="M22.175 21.8529C21.475 22.0724 20.75 22.1944 20 22.1944C19.25 22.1944 18.525 22.0724 17.825 21.8529C15.625 21.1455 13.175 21.7309 11.725 23.4627C10.65 24.7555 10 26.4142 10 28.1948C10 29.1948 10.825 29.9998 11.85 29.9998H28.15C29.175 29.9998 30 29.1948 30 28.1948C30 26.4142 29.35 24.7555 28.275 23.4627C26.8 21.7309 24.375 21.1455 22.175 21.8529Z" fill="#00CAB7"/>
</svg>
