<svg width="40" height="40" viewBox="0 0 40 40" fill="none" xmlns="http://www.w3.org/2000/svg">
<circle cx="20" cy="20" r="20" fill="#EEEEEE"/>
<path fill-rule="evenodd" clip-rule="evenodd" d="M21.3616 24.8503C22.1424 24.2537 23.0451 23.6322 23.8502 24.0548C24.9238 24.6265 25.9973 25.1983 27.0709 25.7452C27.9492 26.2175 28.2664 26.7395 27.7541 27.6594C26.949 29.151 24.8263 30.3691 23.216 29.8968C16.238 27.8832 11.5044 21.1461 12.0414 13.639C12.1635 11.9486 14.0178 10.3079 15.6527 10.0342C16.6774 9.86023 17.0678 10.3574 17.1898 11.3517C17.3362 12.5698 17.4826 13.8128 17.629 15.031C17.7511 15.9508 16.8726 16.5971 16.0674 17.144C14.1155 18.5361 19.4101 26.2427 21.3619 24.8504L21.3616 24.8503Z" fill="#4B7BE5"/>
</svg>
