<svg width="40" height="40" viewBox="0 0 40 40" fill="none" xmlns="http://www.w3.org/2000/svg">
<circle cx="20" cy="20" r="20" fill="#EEEEEE"/>
<path d="M20.1813 10.0001C17.5874 9.99016 15.0958 11.011 13.2546 12.8381C11.4134 14.6652 10.3733 17.1488 10.3633 19.7427C10.3615 21.5174 10.8496 23.2581 11.7738 24.7732L9.99998 30L15.436 28.2731C16.9267 29.0908 18.604 29.5079 20.3041 29.484C22.0042 29.46 23.669 28.9957 25.1361 28.1364C26.6033 27.277 27.8225 26.0521 28.675 24.5809C29.5275 23.1098 29.984 21.4428 30 19.7427C29.995 18.4582 29.7371 17.1874 29.241 16.0026C28.7448 14.8179 28.0202 13.7425 27.1084 12.8378C26.1967 11.9331 25.1156 11.2169 23.9271 10.73C22.7385 10.2431 21.4657 9.99507 20.1813 10.0001ZM25.0637 23.4425C24.8327 24.0153 23.788 24.5378 23.3268 24.5618C22.8656 24.5859 22.853 24.9188 20.3427 23.8283C17.8324 22.7378 16.3229 20.0852 16.2039 19.9141C16.0849 19.743 15.2316 18.528 15.2774 17.3044C15.2855 16.9163 15.3747 16.5342 15.5392 16.1826C15.7038 15.8311 15.9402 15.5178 16.2331 15.2631C16.3219 15.1729 16.4278 15.1012 16.5445 15.052C16.6612 15.0029 16.7864 14.9773 16.913 14.9767C17.1107 14.9734 17.2386 14.9708 17.3849 14.9767C17.5313 14.9826 17.7508 14.946 17.9392 15.4515C18.1277 15.9571 18.5841 17.1995 18.6414 17.3262C18.6785 17.3924 18.6985 17.4667 18.6995 17.5426C18.7005 17.6184 18.6826 17.6933 18.6473 17.7604C18.5785 17.9079 18.4889 18.0448 18.3812 18.1669C18.25 18.3074 18.1055 18.4814 17.9888 18.5886C17.8583 18.7076 17.7223 18.8373 17.8594 19.0915C18.2127 19.7453 18.661 20.3431 19.1898 20.8653C19.7656 21.413 20.4324 21.8563 21.1602 22.1753C21.4063 22.3095 21.5534 22.2947 21.706 22.134C21.8586 21.9732 22.3593 21.4318 22.5364 21.189C22.7134 20.9462 22.8782 20.9939 23.1051 21.0852C23.332 21.1765 24.5408 21.8243 24.7869 21.9581C25.033 22.0918 25.1974 22.1602 25.2562 22.2662C25.3092 22.6687 25.2422 23.0779 25.0637 23.4425Z" fill="#1DC449"/>
</svg>
