<svg width="6" height="11" viewBox="0 0 6 11" fill="none" xmlns="http://www.w3.org/2000/svg">
    <path d="M4.37812 10.5009C4.26607 10.5013 4.15536 10.4766 4.05413 10.4286C3.95289 10.3805 3.8637 10.3105 3.79312 10.2234L0.170616 5.72344C0.0603047 5.58924 0 5.42091 0 5.24719C0 5.07347 0.0603047 4.90514 0.170616 4.77094L3.92062 0.270939C4.04792 0.117777 4.23085 0.0214584 4.42917 0.00317363C4.62749 -0.0151112 4.82495 0.0461353 4.97812 0.173439C5.13128 0.300743 5.2276 0.483677 5.24588 0.681996C5.26417 0.880316 5.20292 1.07778 5.07562 1.23094L1.72312 5.25094L4.96312 9.27094C5.05483 9.38103 5.11309 9.51508 5.13099 9.65725C5.1489 9.79941 5.12572 9.94373 5.06418 10.0731C5.00263 10.2025 4.90531 10.3116 4.78373 10.3874C4.66215 10.4632 4.52139 10.5026 4.37812 10.5009Z"
          fill="#212121"/>
</svg>
