<svg width="13" height="15" viewBox="0 0 13 15" fill="none" xmlns="http://www.w3.org/2000/svg">
<path fill-rule="evenodd" clip-rule="evenodd" d="M7.22769 11.1377C7.8305 10.6903 8.52746 10.2242 9.14907 10.5411C9.97795 10.9699 10.8067 11.3987 11.6356 11.8089C12.3138 12.1631 12.5587 12.5546 12.1631 13.2445C11.5415 14.3633 9.90263 15.2768 8.65941 14.9226C3.27201 13.4124 -0.382605 8.3596 0.031998 2.72923C0.126234 1.46142 1.55783 0.230921 2.82009 0.0256639C3.61127 -0.10483 3.91266 0.26804 4.0068 1.01378C4.11984 1.92734 4.23288 2.85962 4.34592 3.77329C4.44016 4.4631 3.76191 4.94784 3.1403 5.35803C1.63326 6.40209 5.72101 12.182 7.22791 11.1378L7.22769 11.1377Z" fill="#4B7BE5"/>
</svg>
