<svg width="23" height="22" viewBox="0 0 23 22" fill="none" xmlns="http://www.w3.org/2000/svg">
    <path d="M20.5292 15.0612H8.36118C8.06441 15.0612 7.77978 14.9433 7.56993 14.7335C7.36008 14.5236 7.24219 14.239 7.24219 13.9422C7.24219 13.6455 7.36008 13.3608 7.56993 13.151C7.77978 12.9411 8.06441 12.8232 8.36118 12.8232H12.9772L12.0032 11.5112H8.36118C7.71631 11.5112 7.09785 11.7674 6.64185 12.2234C6.18586 12.6794 5.92969 13.2978 5.92969 13.9427C5.92969 14.5876 6.18586 15.2061 6.64185 15.662C7.09785 16.118 7.71631 16.3742 8.36118 16.3742H20.5292C20.8371 16.3742 21.1324 16.4965 21.3501 16.7143C21.5679 16.932 21.6902 17.2273 21.6902 17.5352C21.6902 17.8431 21.5679 18.1384 21.3501 18.3562C21.1324 18.5739 20.8371 18.6962 20.5292 18.6962H7.15318C7.22617 19.1309 7.22617 19.5746 7.15318 20.0092H20.5292C21.1766 19.9962 21.7931 19.7299 22.2463 19.2674C22.6996 18.805 22.9534 18.1833 22.9534 17.5357C22.9534 16.8882 22.6996 16.2665 22.2463 15.804C21.7931 15.3416 21.1766 15.0752 20.5292 15.0622V15.0612Z" fill="#4B7BE5"/>
    <path d="M3.64709 16.6982C3.12309 16.6978 2.61073 16.8529 2.17484 17.1437C1.73896 17.4345 1.39912 17.8481 1.19831 18.3321C0.997509 18.8161 0.944765 19.3488 1.04675 19.8628C1.14874 20.3768 1.40087 20.849 1.77126 21.2197C2.14165 21.5903 2.61365 21.8428 3.12756 21.9452C3.64147 22.0476 4.1742 21.9952 4.65836 21.7948C5.14252 21.5944 5.55635 21.2548 5.84752 20.8192C6.13868 20.3835 6.2941 19.8713 6.2941 19.3473C6.29357 18.6452 6.01458 17.972 5.51834 17.4754C5.02211 16.9788 4.34914 16.6993 3.64709 16.6982ZM3.64709 20.6833C3.38282 20.6835 3.12442 20.6053 2.90458 20.4586C2.68475 20.3119 2.51335 20.1033 2.41208 19.8592C2.31081 19.6151 2.28421 19.3464 2.33564 19.0872C2.38708 18.828 2.51424 18.5898 2.70105 18.4029C2.88785 18.216 3.1259 18.0886 3.38509 18.037C3.64427 17.9854 3.91295 18.0118 4.15713 18.1129C4.40131 18.2139 4.61002 18.3852 4.75687 18.6049C4.90371 18.8246 4.9821 19.083 4.9821 19.3473C4.98183 19.7013 4.84113 20.0408 4.59085 20.2913C4.34058 20.5418 4.00117 20.6827 3.64709 20.6833Z" fill="#4B7BE5"/>
    <path d="M15.0134 5.58406C15.1437 5.58446 15.271 5.54621 15.3795 5.47415C15.488 5.40209 15.5727 5.29945 15.6228 5.17926C15.6729 5.05906 15.6862 4.92669 15.661 4.79892C15.6358 4.67115 15.5734 4.55372 15.4814 4.4615C15.3895 4.36927 15.2722 4.30641 15.1445 4.28086C15.0168 4.2553 14.8844 4.26822 14.7641 4.31797C14.6437 4.36771 14.5408 4.45204 14.4684 4.56029C14.3961 4.66854 14.3574 4.79584 14.3574 4.92607C14.3574 5.10023 14.4265 5.26729 14.5494 5.39064C14.6724 5.51398 14.8393 5.58353 15.0134 5.58406Z" fill="#4B7BE5"/>
    <path d="M14.3803 12.9141C14.4416 12.9969 14.5216 13.0641 14.6137 13.1103C14.7058 13.1564 14.8075 13.1802 14.9105 13.1797C15.0136 13.1792 15.115 13.1545 15.2067 13.1075C15.2984 13.0605 15.3777 12.9925 15.4383 12.9091L18.8923 8.16214C19.4683 7.4139 19.8239 6.51964 19.9189 5.58015C20.014 4.64066 19.8447 3.69331 19.4302 2.84486C19.0157 1.99642 18.3724 1.28063 17.5729 0.778171C16.7734 0.275712 15.8494 0.0065627 14.9052 0.00106258C13.9609 -0.00443754 13.0339 0.25393 12.2286 0.747041C11.4233 1.24015 10.7717 1.9484 10.3474 2.79196C9.923 3.63551 9.74269 4.58083 9.82678 5.52137C9.91087 6.4619 10.256 7.36024 10.8233 8.11514C10.8363 8.13314 10.6663 7.90414 14.3833 12.9151L14.3803 12.9141ZM14.8723 3.03914C15.2619 3.03894 15.6429 3.15431 15.967 3.37066C16.2911 3.58701 16.5438 3.89461 16.693 4.25456C16.8423 4.61451 16.8814 5.01065 16.8055 5.39286C16.7296 5.77506 16.5421 6.12618 16.2666 6.40179C15.9912 6.6774 15.6401 6.86512 15.258 6.94121C14.8758 7.01731 14.4796 6.97835 14.1196 6.82928C13.7596 6.6802 13.4519 6.4277 13.2353 6.10372C13.0188 5.77973 12.9033 5.39881 12.9033 5.00914C12.9038 4.487 13.1114 3.98638 13.4805 3.61708C13.8496 3.24777 14.3501 3.03993 14.8723 3.03914Z" fill="#4B7BE5"/>
</svg>
