<svg width="22" height="22" viewBox="0 0 22 22" fill="none" xmlns="http://www.w3.org/2000/svg">
    <path d="M20.5489 0.000909727H12.2329C12.042 -0.00630726 11.852 0.02949 11.6768 0.105653C11.5016 0.181815 11.3458 0.296394 11.2209 0.440909L0.440909 11.2209C0.172317 11.491 0.0152342 11.8523 0.000909727 12.2329C-0.00630726 12.4238 0.02949 12.6138 0.105653 12.789C0.181815 12.9642 0.296394 13.12 0.440909 13.2449L8.71291 21.5609C8.99512 21.8381 9.37339 21.9957 9.76891 22.0009C9.95831 21.9981 10.1453 21.9578 10.319 21.8823C10.4927 21.8068 10.6497 21.6975 10.7809 21.5609L21.5609 10.7809C21.8295 10.5108 21.9866 10.1495 22.0009 9.76891V1.45291C21.9975 1.06887 21.8434 0.701512 21.5719 0.429941C21.3003 0.15837 20.933 0.00430277 20.5489 0.000909727ZM9.90091 18.5249C9.86121 18.5667 9.81343 18.5999 9.76049 18.6226C9.70754 18.6453 9.65052 18.6571 9.59291 18.6571C9.53529 18.6571 9.47828 18.6453 9.42533 18.6226C9.37239 18.5999 9.32461 18.5667 9.28491 18.5249L3.47691 12.7169C3.43349 12.6772 3.39857 12.629 3.37426 12.5754C3.34995 12.5218 3.33675 12.4638 3.33545 12.4049C3.33416 12.3461 3.34479 12.2876 3.36672 12.2329C3.38865 12.1783 3.42142 12.1287 3.46305 12.087C3.50468 12.0454 3.5543 12.0127 3.60894 11.9907C3.66357 11.9688 3.72208 11.9582 3.78094 11.9594C3.8398 11.9607 3.89778 11.9739 3.9514 11.9983C4.00502 12.0226 4.05315 12.0575 4.09291 12.1009L9.90091 17.9089C9.94266 17.9486 9.97591 17.9964 9.99863 18.0493C10.0213 18.1023 10.0331 18.1593 10.0331 18.2169C10.0331 18.2745 10.0213 18.3315 9.99863 18.3845C9.97591 18.4374 9.94266 18.4852 9.90091 18.5249ZM11.5289 16.9409C11.4892 16.9827 11.4414 17.0159 11.3885 17.0386C11.3355 17.0613 11.2785 17.0731 11.2209 17.0731C11.1633 17.0731 11.1063 17.0613 11.0533 17.0386C11.0004 17.0159 10.9526 16.9827 10.9129 16.9409L5.06091 11.0889C4.98506 11.0061 4.94411 10.8972 4.94658 10.7849C4.94905 10.6726 4.99476 10.5656 5.07418 10.4862C5.15359 10.4068 5.26059 10.3611 5.37288 10.3586C5.48517 10.3561 5.59407 10.3971 5.67691 10.4729L11.4849 16.2809C11.5341 16.3194 11.5746 16.3678 11.6038 16.4229C11.633 16.4781 11.6502 16.5388 11.6544 16.6011C11.6585 16.6634 11.6495 16.7258 11.6279 16.7844C11.6062 16.8429 11.5725 16.8963 11.5289 16.9409ZM13.1129 15.3569C13.0732 15.3987 13.0254 15.4319 12.9725 15.4546C12.9195 15.4773 12.8625 15.4891 12.8049 15.4891C12.7473 15.4891 12.6903 15.4773 12.6373 15.4546C12.5844 15.4319 12.5366 15.3987 12.4969 15.3569L6.64491 9.50091C6.60149 9.46115 6.56657 9.41301 6.54226 9.3594C6.51795 9.30578 6.50475 9.2478 6.50345 9.18894C6.50215 9.13008 6.51279 9.07157 6.53472 9.01694C6.55665 8.9623 6.58942 8.91267 6.63105 8.87105C6.67267 8.82942 6.7223 8.79665 6.77694 8.77472C6.83157 8.75279 6.89008 8.74216 6.94894 8.74345C7.0078 8.74475 7.06578 8.75795 7.1194 8.78226C7.17302 8.80657 7.22115 8.84149 7.26091 8.88491L13.0689 14.7009C13.1176 14.7393 13.1576 14.7874 13.1865 14.8422C13.2154 14.897 13.2325 14.9573 13.2366 15.0191C13.2408 15.081 13.2319 15.143 13.2106 15.2011C13.1893 15.2593 13.156 15.3124 13.1129 15.3569ZM14.7009 13.7289C14.6612 13.7707 14.6134 13.8039 14.5605 13.8266C14.5075 13.8493 14.4505 13.8611 14.3929 13.8611C14.3353 13.8611 14.2783 13.8493 14.2253 13.8266C14.1724 13.8039 14.1246 13.7707 14.0849 13.7289L8.27291 7.92091C8.22949 7.88115 8.19457 7.83301 8.17026 7.7794C8.14595 7.72578 8.13275 7.6678 8.13145 7.60894C8.13016 7.55008 8.14079 7.49157 8.16272 7.43694C8.18465 7.3823 8.21742 7.33267 8.25905 7.29105C8.30068 7.24942 8.3503 7.21665 8.40494 7.19472C8.45957 7.17279 8.51808 7.16215 8.57694 7.16345C8.6358 7.16475 8.69378 7.17795 8.7474 7.20226C8.80101 7.22657 8.84915 7.26149 8.88891 7.30491L14.7009 13.1129C14.7427 13.1526 14.7759 13.2004 14.7986 13.2533C14.8213 13.3063 14.8331 13.3633 14.8331 13.4209C14.8331 13.4785 14.8213 13.5355 14.7986 13.5885C14.7759 13.6414 14.7427 13.6892 14.7009 13.7289ZM16.3289 12.1449C16.2892 12.1867 16.2414 12.2199 16.1885 12.2426C16.1355 12.2653 16.0785 12.2771 16.0209 12.2771C15.9633 12.2771 15.9063 12.2653 15.8533 12.2426C15.8004 12.2199 15.7526 12.1867 15.7129 12.1449L9.86091 6.33691C9.81749 6.29715 9.78257 6.24902 9.75826 6.1954C9.73395 6.14178 9.72075 6.0838 9.71945 6.02494C9.71815 5.96608 9.72879 5.90757 9.75072 5.85294C9.77265 5.7983 9.80542 5.74867 9.84705 5.70705C9.88867 5.66542 9.9383 5.63265 9.99294 5.61072C10.0476 5.58879 10.1061 5.57816 10.1649 5.57945C10.2238 5.58075 10.2818 5.59395 10.3354 5.61826C10.389 5.64257 10.4372 5.67749 10.4769 5.72091L16.2849 11.5289C16.3646 11.6096 16.4125 11.7163 16.4199 11.8294C16.4272 11.9426 16.3935 12.0546 16.3249 12.1449H16.3289ZM18.1769 6.24491C18.0147 6.40434 17.822 6.52938 17.6103 6.61255C17.3986 6.69571 17.1723 6.73529 16.9449 6.72891C16.4893 6.72127 16.0519 6.5494 15.7129 6.24491C15.5552 6.08144 15.4313 5.88849 15.3483 5.67709C15.2652 5.46569 15.2247 5.24 15.2289 5.01291C15.2366 4.55734 15.4084 4.11986 15.7129 3.78091C15.9516 3.53944 16.2573 3.37522 16.5904 3.30952C16.9235 3.24382 17.2687 3.27967 17.5811 3.41242C17.8936 3.54518 18.1591 3.76872 18.343 4.05408C18.527 4.33945 18.621 4.67348 18.6129 5.01291C18.6251 5.23781 18.5925 5.46288 18.5169 5.67507C18.4414 5.88725 18.3245 6.08231 18.1729 6.24891L18.1769 6.24491Z"
          fill="#4B7BE5"/>
</svg>
