<svg width="16" height="16" viewBox="0 0 16 16" fill="none" xmlns="http://www.w3.org/2000/svg">
<path d="M8.14501 5.94858e-05C6.06991 -0.00787493 4.07664 0.80881 2.60367 2.27047C1.13069 3.73212 0.298663 5.71903 0.2906 7.79412C0.28919 9.21389 0.679671 10.6065 1.41903 11.8186L-1.59597e-05 16L4.34876 14.6185C5.54137 15.2726 6.88318 15.6063 8.24326 15.5872C9.60333 15.568 10.9352 15.1966 12.1089 14.5091C13.2826 13.8216 14.258 12.8416 14.94 11.6647C15.622 10.4879 15.9872 9.15426 16 7.79412C15.996 6.76659 15.7897 5.74991 15.3927 4.80212C14.9958 3.85433 14.4161 2.994 13.6867 2.27026C12.9573 1.54651 12.0925 0.973518 11.1417 0.583996C10.1908 0.194475 9.17254 -0.00394708 8.14501 5.94858e-05ZM12.0509 10.754C11.8661 11.2122 11.0304 11.6303 10.6614 11.6495C10.2925 11.6687 10.2824 11.935 8.27419 11.0626C6.26595 10.1902 5.05829 8.06817 4.96309 7.93129C4.8679 7.79442 4.18528 6.82238 4.22194 5.84354C4.22838 5.53306 4.29973 5.22736 4.43139 4.9461C4.56306 4.66485 4.75213 4.41426 4.98645 4.21046C5.05755 4.13831 5.14221 4.08093 5.23557 4.04161C5.32892 4.00229 5.42912 3.98181 5.53042 3.98135C5.68858 3.97869 5.79087 3.97662 5.90794 3.98135C6.02501 3.98608 6.20062 3.95681 6.35139 4.36123C6.50217 4.76566 6.86727 5.75958 6.9131 5.86098C6.94278 5.9139 6.95876 5.97339 6.95959 6.03406C6.96041 6.09473 6.94606 6.15464 6.91783 6.20835C6.86276 6.32635 6.79108 6.43586 6.70497 6.53354C6.60002 6.64588 6.48443 6.78513 6.39101 6.87086C6.28665 6.96605 6.17785 7.06982 6.28753 7.27322C6.57016 7.79626 6.92883 8.27448 7.35181 8.69225C7.81249 9.13038 8.34588 9.48501 8.92813 9.74027C9.12502 9.84759 9.24269 9.83576 9.36478 9.70716C9.48688 9.57856 9.88746 9.14546 10.0291 8.95123C10.1707 8.757 10.3025 8.79513 10.4841 8.86815C10.6656 8.94118 11.6326 9.45942 11.8295 9.56644C12.0264 9.67346 12.1579 9.72815 12.2049 9.813C12.2474 10.135 12.1938 10.4623 12.0509 10.754Z" fill="#1DC449"/>
</svg>
