<svg width="42" height="42" viewBox="0 0 42 42" fill="none" xmlns="http://www.w3.org/2000/svg">
<path d="M4.21608 22.4414C3.36026 24.6728 3.36026 29.0041 4.21608 31.2355C4.54524 32.023 5.33523 32.548 6.19105 32.548H13.7618V21.1289H6.19105C5.33523 21.1289 4.54524 21.7195 4.21608 22.4414Z" fill="#060B29"/>
<path d="M15.0781 32.813C17.1189 33.4036 22.4513 35.1099 26.0721 37.735V16.0781C22.4513 18.7032 17.1189 20.4095 15.0781 21.0001V32.813Z" fill="#4B7BE5"/>
<path d="M11.9837 37.9978V33.8633H6.98047V41.3448C6.98047 41.7385 7.30963 42.001 7.63879 42.001H11.6546C12.642 42.001 13.3662 40.951 12.9054 40.0322L11.9837 37.9978Z" fill="#060B29"/>
<path d="M32.3202 22.3112V15.0923C32.3202 13.911 31.3986 12.9922 30.2136 12.9922H29.4894C28.3045 12.9922 27.3828 13.911 27.3828 15.0923V38.6523C27.3828 39.8336 28.3703 40.7524 29.4894 40.7524H30.2136C31.3986 40.7524 32.3202 39.768 32.3202 38.6523V31.499C34.5585 31.1709 36.336 29.2677 36.336 26.9051C36.336 24.5425 34.6244 22.5737 32.3202 22.3112Z" fill="#4B7BE5"/>
<path d="M41.3375 26.25H39.0333C38.6383 26.25 38.375 26.5125 38.375 26.9063C38.375 27.3 38.6383 27.5625 39.0333 27.5625H41.3375C41.7324 27.5625 41.9958 27.3 41.9958 26.9063C41.9958 26.5125 41.6666 26.25 41.3375 26.25Z" fill="#060B29"/>
<path d="M38.574 29.5303C38.3765 29.2021 37.9815 29.1365 37.6523 29.3334C37.3232 29.5303 37.2573 29.924 37.4548 30.2522L38.9032 32.3522C39.1006 32.6804 39.4956 32.746 39.8248 32.5491C40.154 32.3522 40.2198 31.9585 40.0223 31.6303L38.574 29.5303Z" fill="#060B29"/>
<path d="M38.574 24.2819L40.0223 22.1819C40.2198 21.8537 40.154 21.46 39.8248 21.2631C39.4956 21.0662 39.1006 21.1318 38.9032 21.46L37.4548 23.56C37.2573 23.8882 37.3232 24.2819 37.6523 24.4788C37.9815 24.6101 38.3765 24.5444 38.574 24.2819Z" fill="#060B29"/>
<path d="M15.9314 17.3911C16.2606 17.7193 16.9189 17.588 17.0506 17.063L17.5772 14.8317H20.2763C21.3297 14.8317 22.2513 13.9785 22.2513 12.8629V1.96881C22.2513 0.918777 21.3955 0 20.2763 0H1.97497C0.921652 0 0 0.85315 0 1.96881V12.9285C0 13.9785 0.85582 14.8973 1.97497 14.8973H13.364L15.9314 17.3911ZM4.87159 4.1345H17.3139C17.6431 4.1345 17.9722 4.46263 17.9722 4.79077C17.9722 5.1189 17.6431 5.44704 17.3139 5.44704H4.87159C4.47659 5.44704 4.21327 5.1189 4.21327 4.79077C4.21327 4.39701 4.54243 4.1345 4.87159 4.1345ZM4.21327 9.9753C4.21327 9.64716 4.47659 9.31903 4.87159 9.31903H17.3139C17.6431 9.31903 17.9722 9.58154 17.9722 9.9753C17.9722 10.3691 17.6431 10.6316 17.3139 10.6316H4.87159C4.54243 10.6316 4.21327 10.3691 4.21327 9.9753Z" fill="#060B29"/>
</svg>
