
<svg width="42" height="42" viewBox="0 0 42 42" fill="none" xmlns="http://www.w3.org/2000/svg">
<path d="M0.65625 5.25C0.830296 5.24999 0.99721 5.18085 1.12028 5.05778C1.24335 4.93471 1.31249 4.7678 1.3125 4.59375V1.3125H5.25C5.42405 1.3125 5.59097 1.24336 5.71404 1.12029C5.83711 0.997218 5.90625 0.830298 5.90625 0.65625C5.90625 0.482202 5.83711 0.315282 5.71404 0.192211C5.59097 0.0691404 5.42405 0 5.25 0L0.65625 0C0.482204 8.70163e-06 0.31529 0.0691519 0.192221 0.192221C0.0691519 0.31529 8.70163e-06 0.482204 0 0.65625L0 4.59375C8.70163e-06 4.7678 0.0691519 4.93471 0.192221 5.05778C0.31529 5.18085 0.482204 5.24999 0.65625 5.25Z" fill="black"/>
<path d="M41.3438 0H36.75C36.576 0 36.409 0.0691404 36.286 0.192211C36.1629 0.315282 36.0938 0.482202 36.0938 0.65625C36.0938 0.830298 36.1629 0.997218 36.286 1.12029C36.409 1.24336 36.576 1.3125 36.75 1.3125H40.6875V4.59375C40.6875 4.7678 40.7566 4.93472 40.8797 5.05779C41.0028 5.18086 41.1697 5.25 41.3438 5.25C41.5178 5.25 41.6847 5.18086 41.8078 5.05779C41.9309 4.93472 42 4.7678 42 4.59375V0.65625C42 0.482204 41.9308 0.31529 41.8078 0.192221C41.6847 0.0691519 41.5178 8.70163e-06 41.3438 0V0Z" fill="black"/>
<path d="M5.25 40.6875H1.3125V37.4062C1.3125 37.2322 1.24336 37.0653 1.12029 36.9422C0.997218 36.8191 0.830298 36.75 0.65625 36.75C0.482202 36.75 0.315282 36.8191 0.192211 36.9422C0.0691404 37.0653 0 37.2322 0 37.4062L0 41.3438C8.70163e-06 41.5178 0.0691519 41.6847 0.192221 41.8078C0.31529 41.9308 0.482204 42 0.65625 42H5.25C5.42405 42 5.59097 41.9309 5.71404 41.8078C5.83711 41.6847 5.90625 41.5178 5.90625 41.3438C5.90625 41.1697 5.83711 41.0028 5.71404 40.8797C5.59097 40.7566 5.42405 40.6875 5.25 40.6875Z" fill="black"/>
<path d="M41.3438 36.75C41.1697 36.75 41.0028 36.8192 40.8797 36.9422C40.7567 37.0653 40.6875 37.2322 40.6875 37.4062V40.6875H36.75C36.576 40.6875 36.409 40.7566 36.286 40.8797C36.1629 41.0028 36.0938 41.1697 36.0938 41.3438C36.0938 41.5178 36.1629 41.6847 36.286 41.8078C36.409 41.9309 36.576 42 36.75 42H41.3438C41.5178 42 41.6847 41.9308 41.8078 41.8078C41.9308 41.6847 42 41.5178 42 41.3438V37.4062C42 37.2322 41.9308 37.0653 41.8078 36.9422C41.6847 36.8192 41.5178 36.75 41.3438 36.75Z" fill="black"/>
<path d="M17.0625 8.53125C17.2365 8.53124 17.4035 8.4621 17.5265 8.33903C17.6496 8.21596 17.7187 8.04905 17.7188 7.875V5.25C17.7188 5.07595 17.6496 4.90903 17.5265 4.78596C17.4035 4.66289 17.2365 4.59375 17.0625 4.59375C16.8885 4.59375 16.7215 4.66289 16.5985 4.78596C16.4754 4.90903 16.4062 5.07595 16.4062 5.25V7.875C16.4063 8.04905 16.4754 8.21596 16.5985 8.33903C16.7215 8.4621 16.8885 8.53124 17.0625 8.53125Z" fill="black"/>
<path d="M14.4375 8.53125C14.6115 8.53124 14.7785 8.4621 14.9015 8.33903C15.0246 8.21596 15.0937 8.04905 15.0938 7.875V5.25C15.0938 5.07595 15.0246 4.90903 14.9015 4.78596C14.7785 4.66289 14.6115 4.59375 14.4375 4.59375C14.2635 4.59375 14.0965 4.66289 13.9735 4.78596C13.8504 4.90903 13.7812 5.07595 13.7812 5.25V7.875C13.7813 8.04905 13.8504 8.21596 13.9735 8.33903C14.0965 8.4621 14.2635 8.53124 14.4375 8.53125Z" fill="black"/>
<path d="M19.4141 6.67188H20.6719V7.54698C20.6719 7.72103 20.7411 7.88794 20.8642 8.01101C20.9872 8.13408 21.1541 8.20323 21.3282 8.20323H24.6094C24.7835 8.20323 24.9504 8.13409 25.0735 8.01102C25.1965 7.88795 25.2657 7.72103 25.2657 7.54698C25.2657 7.37294 25.1965 7.20602 25.0735 7.08295C24.9504 6.95987 24.7835 6.89073 24.6094 6.89073H21.9844V6.01562C21.9844 5.84158 21.9153 5.67466 21.7922 5.5516C21.6691 5.42853 21.5022 5.35938 21.3282 5.35938H19.4141C19.24 5.35938 19.0731 5.42852 18.95 5.55159C18.827 5.67466 18.7578 5.84158 18.7578 6.01562C18.7578 6.18967 18.827 6.35659 18.95 6.47966C19.0731 6.60273 19.24 6.67188 19.4141 6.67188Z" fill="black"/>
<path d="M17.6094 12.7422C17.6094 12.9162 17.6785 13.0831 17.8016 13.2062C17.9247 13.3293 18.0916 13.3984 18.2656 13.3984H19.25V14.3283C19.25 14.5024 19.3191 14.6693 19.4422 14.7924C19.5653 14.9155 19.7322 14.9846 19.9062 14.9846C20.0803 14.9846 20.2472 14.9155 20.3703 14.7924C20.4934 14.6693 20.5625 14.5024 20.5625 14.3283V13.3984H21.547C21.7211 13.3984 21.888 13.3293 22.0111 13.2062C22.1341 13.0832 22.2033 12.9162 22.2033 12.7422C22.2033 12.5681 22.1341 12.4012 22.0111 12.2781C21.888 12.1551 21.7211 12.0859 21.547 12.0859H18.2656C18.0916 12.0859 17.9247 12.1551 17.8016 12.2782C17.6785 12.4012 17.6094 12.5681 17.6094 12.7422Z" fill="black"/>
<path d="M14.0547 10.6641H15.5312V12.0858H14.4921C14.318 12.0858 14.1511 12.155 14.028 12.278C13.905 12.4011 13.8358 12.568 13.8358 12.7421V14.3282C13.8358 14.5023 13.905 14.6692 14.028 14.7923C14.1511 14.9153 14.318 14.9845 14.4921 14.9845C14.6661 14.9845 14.833 14.9153 14.9561 14.7923C15.0792 14.6692 15.1483 14.5023 15.1483 14.3282V13.3983H16.1875C16.3615 13.3983 16.5285 13.3292 16.6515 13.2061C16.7746 13.083 16.8437 12.9161 16.8438 12.7421V10.6641H17.6641C17.8381 10.6641 18.005 10.5949 18.1281 10.4719C18.2512 10.3488 18.3203 10.1819 18.3203 10.0078C18.3203 9.83376 18.2512 9.66684 18.1281 9.54377C18.005 9.4207 17.8381 9.35156 17.6641 9.35156H14.0547C13.8806 9.35156 13.7137 9.4207 13.5906 9.54377C13.4676 9.66684 13.3984 9.83376 13.3984 10.0078C13.3984 10.1819 13.4676 10.3488 13.5906 10.4719C13.7137 10.5949 13.8806 10.6641 14.0547 10.6641Z" fill="black"/>
<path d="M25.8671 19.1953V17.7188H27.0156C27.1896 17.7188 27.3565 17.6496 27.4796 17.5265C27.6027 17.4035 27.6718 17.2365 27.6718 17.0625C27.6718 16.8885 27.6027 16.7215 27.4796 16.5985C27.3565 16.4754 27.1896 16.4062 27.0156 16.4062H25.2109C25.0368 16.4063 24.8699 16.4754 24.7469 16.5985C24.6238 16.7215 24.5546 16.8885 24.5546 17.0625V18.5391H21.7659V18.1561C21.7659 18.0699 21.7489 17.9846 21.7159 17.905C21.6829 17.8254 21.6346 17.753 21.5736 17.6921C21.5127 17.6311 21.4403 17.5828 21.3607 17.5498C21.281 17.5168 21.1957 17.4999 21.1095 17.4999H19.4141C19.24 17.4999 19.0731 17.569 18.95 17.6921C18.827 17.8152 18.7578 17.9821 18.7578 18.1561C18.7578 18.3302 18.827 18.4971 18.95 18.6202C19.0731 18.7433 19.24 18.8124 19.4141 18.8124H20.4532V19.1953C20.4532 19.3694 20.5224 19.5363 20.6455 19.6593C20.7685 19.7824 20.9354 19.8516 21.1095 19.8516H22.7499V21.0548H19.9062C19.7322 21.0548 19.5653 21.1239 19.4422 21.247C19.3191 21.3701 19.25 21.537 19.25 21.711C19.25 21.8851 19.3191 22.052 19.4422 22.1751C19.5653 22.2982 19.7322 22.3673 19.9062 22.3673H23.4062C23.5802 22.3673 23.7472 22.2981 23.8702 22.1751C23.9933 22.052 24.0624 21.8851 24.0624 21.711V19.8516H25.2109C25.3849 19.8516 25.5518 19.7824 25.6749 19.6593C25.798 19.5363 25.8671 19.3694 25.8671 19.1953Z" fill="black"/>
<path d="M16.1328 24.1172C16.1328 24.2912 16.202 24.4581 16.325 24.5812C16.4481 24.7043 16.615 24.7734 16.7891 24.7734H18.0469V26.9062C18.0469 27.0803 18.1161 27.2472 18.2391 27.3703C18.3622 27.4934 18.5291 27.5625 18.7032 27.5625C18.8772 27.5625 19.0441 27.4934 19.1672 27.3703C19.2903 27.2472 19.3594 27.0803 19.3594 26.9062V24.7734H20.6173C20.7913 24.7734 20.9583 24.7043 21.0813 24.5812C21.2044 24.4582 21.2735 24.2912 21.2735 24.1172C21.2735 23.9431 21.2044 23.7762 21.0813 23.6531C20.9583 23.5301 20.7913 23.4609 20.6173 23.4609H16.7891C16.615 23.4609 16.4481 23.5301 16.325 23.6532C16.202 23.7762 16.1328 23.9431 16.1328 24.1172Z" fill="black"/>
<path d="M8.85938 7.875H6.89062V9.84375H8.85938V7.875Z" fill="black"/>
<path d="M3.28125 4.92188V12.7969C3.28126 12.9709 3.3504 13.1378 3.47347 13.2609C3.59654 13.384 3.76345 13.4531 3.9375 13.4531H11.8125C11.9865 13.4531 12.1535 13.384 12.2765 13.2609C12.3996 13.1378 12.4687 12.9709 12.4688 12.7969V4.92188C12.4687 4.74783 12.3996 4.58091 12.2765 4.45785C12.1535 4.33478 11.9865 4.26563 11.8125 4.26562H3.9375C3.76345 4.26563 3.59654 4.33478 3.47347 4.45785C3.3504 4.58091 3.28126 4.74783 3.28125 4.92188ZM5.57812 7.21875C5.57813 7.0447 5.64728 6.87779 5.77035 6.75472C5.89341 6.63165 6.06033 6.56251 6.23438 6.5625H9.51562C9.68967 6.56251 9.85659 6.63165 9.97965 6.75472C10.1027 6.87779 10.1719 7.0447 10.1719 7.21875V10.5C10.1719 10.674 10.1027 10.841 9.97965 10.964C9.85659 11.0871 9.68967 11.1562 9.51562 11.1562H6.23438C6.06033 11.1562 5.89341 11.0871 5.77035 10.964C5.64728 10.841 5.57813 10.674 5.57812 10.5V7.21875Z" fill="#4B7BE5"/>
<path d="M11.8125 28.5469H3.9375C3.76345 28.5469 3.59654 28.616 3.47347 28.7391C3.3504 28.8622 3.28126 29.0291 3.28125 29.2031V37.0781C3.28126 37.2522 3.3504 37.4191 3.47347 37.5422C3.59654 37.6652 3.76345 37.7344 3.9375 37.7344H11.8125C11.9865 37.7344 12.1535 37.6652 12.2765 37.5422C12.3996 37.4191 12.4687 37.2522 12.4688 37.0781V29.2031C12.4687 29.0291 12.3996 28.8622 12.2765 28.7391C12.1535 28.616 11.9865 28.5469 11.8125 28.5469ZM10.1719 34.7812C10.1719 34.9553 10.1027 35.1222 9.97965 35.2453C9.85659 35.3683 9.68967 35.4375 9.51562 35.4375H6.23438C6.06033 35.4375 5.89341 35.3683 5.77035 35.2453C5.64728 35.1222 5.57813 34.9553 5.57812 34.7812V31.5C5.57813 31.326 5.64728 31.159 5.77035 31.036C5.89341 30.9129 6.06033 30.8438 6.23438 30.8438H9.51562C9.68967 30.8438 9.85659 30.9129 9.97965 31.036C10.1027 31.159 10.1719 31.326 10.1719 31.5V34.7812Z" fill="#4B7BE5"/>
<path d="M8.85938 32.1562H6.89062V34.125H8.85938V32.1562Z" fill="black"/>
<path d="M35.1094 7.875H33.1406V9.84375H35.1094V7.875Z" fill="black"/>
<path d="M30.1875 13.4531H38.0625C38.2365 13.4531 38.4035 13.384 38.5265 13.2609C38.6496 13.1378 38.7187 12.9709 38.7188 12.7969V4.92188C38.7187 4.74783 38.6496 4.58091 38.5265 4.45785C38.4035 4.33478 38.2365 4.26563 38.0625 4.26562H30.1875C30.0135 4.26563 29.8465 4.33478 29.7235 4.45785C29.6004 4.58091 29.5313 4.74783 29.5312 4.92188V12.7969C29.5313 12.9709 29.6004 13.1378 29.7235 13.2609C29.8465 13.384 30.0135 13.4531 30.1875 13.4531ZM31.8281 7.21875C31.8281 7.0447 31.8973 6.87779 32.0203 6.75472C32.1434 6.63165 32.3103 6.56251 32.4844 6.5625H35.7656C35.9397 6.56251 36.1066 6.63165 36.2297 6.75472C36.3527 6.87779 36.4219 7.0447 36.4219 7.21875V10.5C36.4219 10.674 36.3527 10.841 36.2297 10.964C36.1066 11.0871 35.9397 11.1562 35.7656 11.1562H32.4844C32.3103 11.1562 32.1434 11.0871 32.0203 10.964C31.8973 10.841 31.8281 10.674 31.8281 10.5V7.21875Z" fill="#4B7BE5"/>
<path d="M35.1094 32.1562H33.1406V34.125H35.1094V32.1562Z" fill="black"/>
<path d="M38.7188 37.0781V29.2031C38.7187 29.0291 38.6496 28.8622 38.5265 28.7391C38.4035 28.616 38.2365 28.5469 38.0625 28.5469H30.1875C30.0135 28.5469 29.8465 28.616 29.7235 28.7391C29.6004 28.8622 29.5313 29.0291 29.5312 29.2031V37.0781C29.5313 37.2522 29.6004 37.4191 29.7235 37.5422C29.8465 37.6652 30.0135 37.7344 30.1875 37.7344H38.0625C38.2365 37.7344 38.4035 37.6652 38.5265 37.5422C38.6496 37.4191 38.7187 37.2522 38.7188 37.0781ZM36.4219 34.7812C36.4219 34.9553 36.3527 35.1222 36.2297 35.2453C36.1066 35.3683 35.9397 35.4375 35.7656 35.4375H32.4844C32.3103 35.4375 32.1434 35.3683 32.0203 35.2453C31.8973 35.1222 31.8281 34.9553 31.8281 34.7812V31.5C31.8281 31.326 31.8973 31.159 32.0203 31.036C32.1434 30.9129 32.3103 30.8438 32.4844 30.8438H35.7656C35.9397 30.8438 36.1066 30.9129 36.2297 31.036C36.3527 31.159 36.4219 31.326 36.4219 31.5V34.7812Z" fill="#4B7BE5"/>
<path d="M13.7812 18.5938V22.6405C13.7812 22.8146 13.8504 22.9815 13.9735 23.1046C14.0965 23.2276 14.2635 23.2968 14.4375 23.2968C14.6115 23.2968 14.7785 23.2276 14.9015 23.1046C15.0246 22.9815 15.0938 22.8146 15.0938 22.6405V17.9375C15.0937 17.7635 15.0246 17.5965 14.9015 17.4735C14.7785 17.3504 14.6115 17.2813 14.4375 17.2812H6.89062V15.1484C6.89062 14.9744 6.82148 14.8075 6.69841 14.6844C6.57534 14.5613 6.40842 14.4922 6.23438 14.4922C6.06033 14.4922 5.89341 14.5613 5.77034 14.6844C5.64727 14.8075 5.57812 14.9744 5.57812 15.1484V17.9375C5.57813 18.1115 5.64728 18.2785 5.77035 18.4015C5.89341 18.5246 6.06033 18.5937 6.23438 18.5938H7.54688V21.6561C7.54688 21.8302 7.61603 21.9971 7.7391 22.1202C7.86216 22.2432 8.02908 22.3124 8.20312 22.3124H11.1562C11.3303 22.3124 11.4972 22.2433 11.6203 22.1202C11.7434 21.9971 11.8125 21.8302 11.8125 21.6561C11.8125 21.4821 11.7434 21.3152 11.6203 21.1921C11.4972 21.069 11.3303 20.9999 11.1562 20.9999H8.85938V18.5938H13.7812Z" fill="black"/>
<path d="M9.29688 14.8203C9.12283 14.8203 8.95591 14.8895 8.83284 15.0125C8.70977 15.1356 8.64062 15.3025 8.64062 15.4766C8.64062 15.6506 8.70977 15.8175 8.83284 15.9406C8.95591 16.0637 9.12283 16.1328 9.29688 16.1328H12.0859C12.26 16.1328 12.4269 16.0637 12.55 15.9406C12.673 15.8175 12.7422 15.6506 12.7422 15.4766C12.7422 15.3025 12.673 15.1356 12.55 15.0125C12.4269 14.8895 12.26 14.8203 12.0859 14.8203H9.29688Z" fill="black"/>
<path d="M17.0625 15.0938V16.4062C17.0625 16.5803 17.1316 16.7472 17.2547 16.8703C17.3778 16.9934 17.5447 17.0625 17.7188 17.0625C17.8928 17.0625 18.0597 16.9934 18.1828 16.8703C18.3059 16.7472 18.375 16.5803 18.375 16.4062V15.0938C18.375 14.9197 18.3059 14.7528 18.1828 14.6297C18.0597 14.5066 17.8928 14.4375 17.7188 14.4375C17.5447 14.4375 17.3778 14.5066 17.2547 14.6297C17.1316 14.7528 17.0625 14.9197 17.0625 15.0938Z" fill="black"/>
<path d="M13.7812 30.1874H19.6875C19.8615 30.1874 20.0285 30.1183 20.1515 29.9952C20.2746 29.8721 20.3438 29.7052 20.3438 29.5311C20.3438 29.3571 20.2746 29.1902 20.1515 29.0671C20.0285 28.944 19.8615 28.8749 19.6875 28.8749H14.4375V25.4844C14.4375 25.3103 14.3684 25.1434 14.2453 25.0203C14.1222 24.8973 13.9553 24.8281 13.7812 24.8281C13.6072 24.8281 13.4403 24.8973 13.3172 25.0203C13.1941 25.1434 13.125 25.3103 13.125 25.4844V29.5311C13.125 29.7052 13.1942 29.8721 13.3172 29.9952C13.4403 30.1182 13.6072 30.1874 13.7812 30.1874Z" fill="black"/>
<path d="M15.5312 26.168V27.5625C15.5312 27.7365 15.6004 27.9035 15.7235 28.0265C15.8465 28.1496 16.0135 28.2188 16.1875 28.2188C16.3615 28.2188 16.5285 28.1496 16.6515 28.0265C16.7746 27.9035 16.8438 27.7365 16.8438 27.5625V26.168C16.8438 25.9939 16.7746 25.827 16.6515 25.7039C16.5285 25.5809 16.3615 25.5117 16.1875 25.5117C16.0135 25.5117 15.8465 25.5809 15.7235 25.7039C15.6004 25.827 15.5312 25.9939 15.5312 26.168Z" fill="black"/>
<path d="M25.2656 10.1719C25.2656 9.99783 25.1965 9.83091 25.0734 9.70785C24.9503 9.58478 24.7834 9.51563 24.6094 9.51562H20.6719C20.4978 9.51562 20.3309 9.58477 20.2078 9.70784C20.0848 9.83091 20.0156 9.99783 20.0156 10.1719C20.0156 10.3459 20.0848 10.5128 20.2078 10.6359C20.3309 10.759 20.4978 10.8281 20.6719 10.8281H22.9688V11.8125C22.9688 11.9865 23.0379 12.1535 23.161 12.2765C23.284 12.3996 23.451 12.4688 23.625 12.4688C23.799 12.4688 23.966 12.3996 24.089 12.2765C24.2121 12.1535 24.2812 11.9865 24.2812 11.8125V10.8281H24.6094C24.7834 10.8281 24.9503 10.759 25.0734 10.6359C25.1965 10.5128 25.2656 10.3459 25.2656 10.1719Z" fill="black"/>
<path d="M29.258 18.3751C29.258 18.5492 29.3272 18.7161 29.4502 18.8391C29.5733 18.9622 29.7402 19.0314 29.9143 19.0314C30.0883 19.0314 30.2552 18.9622 30.3783 18.8391C30.5014 18.7161 30.5705 18.5492 30.5705 18.3751V14.5469C30.5705 14.3728 30.5014 14.2059 30.3783 14.0828C30.2552 13.9598 30.0883 13.8906 29.9143 13.8906H25.0469C24.8728 13.8906 24.7059 13.9598 24.5828 14.0828C24.4598 14.2059 24.3906 14.3728 24.3906 14.5469C24.3906 14.7209 24.4598 14.8878 24.5828 15.0109C24.7059 15.134 24.8728 15.2031 25.0469 15.2031H29.258V18.3751Z" fill="black"/>
<path d="M27.4805 22.9138C27.6545 22.9138 27.8214 22.8447 27.9445 22.7216C28.0676 22.5986 28.1367 22.4316 28.1367 22.2576V20.0703C28.1367 19.8963 28.0676 19.7293 27.9445 19.6063C27.8214 19.4832 27.6545 19.4141 27.4805 19.4141C27.3064 19.4141 27.1395 19.4832 27.0164 19.6063C26.8934 19.7293 26.8242 19.8963 26.8242 20.0703V22.2576C26.8242 22.4316 26.8934 22.5986 27.0164 22.7216C27.1395 22.8447 27.3064 22.9138 27.4805 22.9138Z" fill="black"/>
<path d="M23.9531 27.5625C24.1272 27.5625 24.2941 27.4933 24.4172 27.3703C24.5402 27.2472 24.6094 27.0803 24.6094 26.9062V24.2812C24.6094 24.1072 24.5402 23.9403 24.4172 23.8172C24.2941 23.6942 24.1272 23.625 23.9531 23.625H22.6406C22.4666 23.625 22.2997 23.6941 22.1766 23.8172C22.0535 23.9403 21.9844 24.1072 21.9844 24.2812C21.9844 24.4553 22.0535 24.6222 22.1766 24.7453C22.2997 24.8684 22.4666 24.9375 22.6406 24.9375H23.2969V26.9062C23.2969 27.0803 23.366 27.2472 23.4891 27.3703C23.6122 27.4933 23.7791 27.5625 23.9531 27.5625Z" fill="black"/>
<path d="M21.5469 25.5117C21.3728 25.5117 21.2059 25.5809 21.0828 25.7039C20.9598 25.827 20.8906 25.9939 20.8906 26.168V28.2188C20.8906 28.3928 20.9598 28.5597 21.0828 28.6828C21.2059 28.8059 21.3728 28.875 21.5469 28.875C21.7209 28.875 21.8878 28.8059 22.0109 28.6828C22.134 28.5597 22.2031 28.3928 22.2031 28.2188V26.168C22.2031 25.9939 22.134 25.827 22.0109 25.7039C21.8878 25.5809 21.7209 25.5117 21.5469 25.5117Z" fill="black"/>
<path d="M26.8516 29.5312V24.7734C26.8516 24.5994 26.7824 24.4325 26.6594 24.3094C26.5363 24.1863 26.3694 24.1172 26.1953 24.1172C26.0213 24.1172 25.8543 24.1863 25.7313 24.3094C25.6082 24.4325 25.5391 24.5994 25.5391 24.7734V28.875H23.4062C23.2322 28.875 23.0653 28.9441 22.9422 29.0672C22.8191 29.1903 22.75 29.3572 22.75 29.5312C22.75 29.7053 22.8191 29.8722 22.9422 29.9953C23.0653 30.1184 23.2322 30.1875 23.4062 30.1875H26.1953C26.3694 30.1875 26.5363 30.1183 26.6593 29.9953C26.7824 29.8722 26.8516 29.7053 26.8516 29.5312Z" fill="black"/>
<path d="M29.9141 21.3281H32.1013C32.2754 21.3281 32.4423 21.259 32.5654 21.1359C32.6884 21.0128 32.7576 20.8459 32.7576 20.6719V18.375C32.7576 18.201 32.6885 18.034 32.5654 17.911C32.4423 17.7879 32.2754 17.7188 32.1013 17.7188C31.9273 17.7188 31.7604 17.7879 31.6373 17.911C31.5142 18.034 31.4451 18.201 31.4451 18.375V20.0156H29.9141C29.74 20.0156 29.5731 20.0848 29.45 20.2078C29.327 20.3309 29.2578 20.4978 29.2578 20.6719C29.2578 20.8459 29.327 21.0128 29.45 21.1359C29.5731 21.259 29.74 21.3281 29.9141 21.3281Z" fill="black"/>
<path d="M36.0939 17.0624C36.2679 17.0624 36.4348 16.9932 36.5579 16.8702C36.681 16.7471 36.7501 16.5802 36.7501 16.4061V14.8203C36.7501 14.6463 36.681 14.4794 36.5579 14.3563C36.4348 14.2332 36.2679 14.1641 36.0939 14.1641H32.1016C31.9275 14.1641 31.7606 14.2332 31.6375 14.3563C31.5145 14.4793 31.4453 14.6463 31.4453 14.8203C31.4453 14.9944 31.5145 15.1613 31.6375 15.2844C31.7606 15.4074 31.9275 15.4766 32.1016 15.4766H35.4376V16.4061C35.4376 16.5802 35.5068 16.7471 35.6298 16.8702C35.7529 16.9932 35.9198 17.0624 36.0939 17.0624Z" fill="black"/>
<path d="M38.7188 17.3906C38.7188 17.2166 38.6496 17.0497 38.5265 16.9266C38.4035 16.8035 38.2365 16.7344 38.0625 16.7344C37.8885 16.7344 37.7215 16.8035 37.5985 16.9266C37.4754 17.0497 37.4062 17.2166 37.4062 17.3906V19.3594H34.7812V17.6034C34.7812 17.4293 34.7121 17.2624 34.589 17.1394C34.466 17.0163 34.299 16.9471 34.125 16.9471C33.951 16.9471 33.784 17.0163 33.661 17.1394C33.5379 17.2624 33.4688 17.4293 33.4688 17.6034V20.0156C33.4688 20.1897 33.5379 20.3566 33.661 20.4797C33.784 20.6027 33.951 20.6719 34.125 20.6719H38.0625C38.2365 20.6719 38.4035 20.6027 38.5265 20.4797C38.6496 20.3566 38.7187 20.1897 38.7188 20.0156V17.3906Z" fill="black"/>
<path d="M16.4062 32.9218H14.4375V32.1562C14.4375 31.9822 14.3684 31.8153 14.2453 31.6922C14.1222 31.5691 13.9553 31.5 13.7812 31.5C13.6072 31.5 13.4403 31.5691 13.3172 31.6922C13.1941 31.8153 13.125 31.9822 13.125 32.1562V33.578C13.125 33.7521 13.1942 33.919 13.3172 34.042C13.4403 34.1651 13.6072 34.2343 13.7812 34.2343H15.75V37.0781C15.75 37.2522 15.8191 37.4191 15.9422 37.5422C16.0653 37.6652 16.2322 37.7344 16.4062 37.7344C16.5803 37.7344 16.7472 37.6652 16.8703 37.5422C16.9934 37.4191 17.0625 37.2522 17.0625 37.0781V33.578C17.0625 33.404 16.9933 33.2371 16.8703 33.114C16.7472 32.9909 16.5803 32.9218 16.4062 32.9218Z" fill="black"/>
<path d="M25.539 36.4219H22.2033V34.7812C22.2033 34.6072 22.1341 34.4403 22.0111 34.3172C21.888 34.1942 21.7211 34.125 21.547 34.125H18.2656C18.0916 34.125 17.9247 34.1941 17.8016 34.3172C17.6785 34.4403 17.6094 34.6072 17.6094 34.7812C17.6094 34.9553 17.6785 35.1222 17.8016 35.2453C17.9247 35.3684 18.0916 35.4375 18.2656 35.4375H20.8908V37.0781C20.8908 37.2522 20.9599 37.4191 21.083 37.5422C21.2061 37.6652 21.373 37.7344 21.547 37.7344H25.539C25.7131 37.7344 25.88 37.6652 26.003 37.5422C26.1261 37.4191 26.1953 37.2522 26.1953 37.0781C26.1953 36.9041 26.1261 36.7372 26.003 36.6141C25.88 36.491 25.7131 36.4219 25.539 36.4219Z" fill="black"/>
<path d="M27.9998 32.4844C27.8257 32.4844 27.6588 32.5535 27.5358 32.6766C27.4127 32.7997 27.3435 32.9666 27.3435 33.1406V34.5079H24.1719C23.9978 34.5079 23.8309 34.5771 23.7078 34.7001C23.5848 34.8232 23.5156 34.9901 23.5156 35.1642C23.5156 35.3382 23.5848 35.5051 23.7078 35.6282C23.8309 35.7513 23.9978 35.8204 24.1719 35.8204H27.9998C28.1738 35.8204 28.3407 35.7513 28.4638 35.6282C28.5869 35.5051 28.656 35.3382 28.656 35.1642V33.1406C28.656 32.9666 28.5869 32.7997 28.4638 32.6766C28.3407 32.5535 28.1738 32.4844 27.9998 32.4844Z" fill="black"/>
<path d="M18.2656 33.0859H25.539C25.7131 33.0859 25.88 33.0168 26.003 32.8937C26.1261 32.7707 26.1953 32.6037 26.1953 32.4297C26.1953 32.2556 26.1261 32.0887 26.003 31.9656C25.88 31.8426 25.7131 31.7734 25.539 31.7734H18.2656C18.0916 31.7734 17.9247 31.8426 17.8016 31.9656C17.6785 32.0887 17.6094 32.2556 17.6094 32.4297C17.6094 32.6037 17.6785 32.7707 17.8016 32.8937C17.9247 33.0168 18.0916 33.0859 18.2656 33.0859Z" fill="black"/>
<path d="M32.4844 26.5782C32.4844 26.4042 32.4152 26.2373 32.2922 26.1142C32.1691 25.9911 32.0022 25.922 31.8281 25.922H29.6953V23.0781C29.6953 22.9041 29.6262 22.7372 29.5031 22.6141C29.38 22.491 29.2131 22.4219 29.0391 22.4219C28.865 22.4219 28.6981 22.491 28.575 22.6141C28.452 22.7372 28.3828 22.9041 28.3828 23.0781V26.5782C28.3828 26.7523 28.452 26.9192 28.575 27.0423C28.6981 27.1653 28.865 27.2345 29.0391 27.2345H31.8281C32.0022 27.2345 32.1691 27.1653 32.2922 27.0423C32.4152 26.9192 32.4844 26.7523 32.4844 26.5782Z" fill="black"/>
<path d="M34.7812 27.2344H38.0625C38.2365 27.2344 38.4035 27.1652 38.5265 27.0422C38.6496 26.9191 38.7188 26.7522 38.7188 26.5781C38.7188 26.4041 38.6496 26.2372 38.5265 26.1141C38.4035 25.991 38.2365 25.9219 38.0625 25.9219H35.4375V23.9531C35.4375 23.7791 35.3683 23.6122 35.2453 23.4891C35.1222 23.366 34.9553 23.2969 34.7812 23.2969H31.5C31.326 23.2969 31.159 23.366 31.036 23.4891C30.9129 23.6122 30.8438 23.7791 30.8438 23.9531C30.8438 24.1272 30.9129 24.2941 31.036 24.4172C31.159 24.5402 31.326 24.6094 31.5 24.6094H34.125V26.5781C34.125 26.7522 34.1942 26.9191 34.3172 27.0422C34.4403 27.1652 34.6072 27.2344 34.7812 27.2344Z" fill="black"/>
<path d="M38.3906 23.9531V21.9844C38.3906 21.8103 38.3215 21.6434 38.1984 21.5203C38.0753 21.3973 37.9084 21.3281 37.7344 21.3281C37.5603 21.3281 37.3934 21.3973 37.2703 21.5203C37.1473 21.6434 37.0781 21.8103 37.0781 21.9844V23.9531C37.0781 24.1272 37.1473 24.2941 37.2703 24.4172C37.3934 24.5402 37.5603 24.6094 37.7344 24.6094C37.9084 24.6094 38.0753 24.5402 38.1984 24.4172C38.3215 24.2941 38.3906 24.1272 38.3906 23.9531Z" fill="black"/>
<path d="M3.9375 18.0469C4.11155 18.0469 4.27846 17.9777 4.40153 17.8547C4.5246 17.7316 4.59374 17.5647 4.59375 17.3906V15.0938C4.59375 14.9197 4.52461 14.7528 4.40154 14.6297C4.27847 14.5066 4.11155 14.4375 3.9375 14.4375C3.76345 14.4375 3.59653 14.5066 3.47346 14.6297C3.35039 14.7528 3.28125 14.9197 3.28125 15.0938V17.3906C3.28126 17.5647 3.3504 17.7316 3.47347 17.8547C3.59654 17.9777 3.76345 18.0469 3.9375 18.0469Z" fill="black"/>
<path d="M3.9375 20.6719H4.92188V21.6562C4.92188 21.8303 4.99102 21.9972 5.11409 22.1203C5.23716 22.2434 5.40408 22.3125 5.57812 22.3125C5.75217 22.3125 5.91909 22.2434 6.04216 22.1203C6.16523 21.9972 6.23438 21.8303 6.23438 21.6562V20.0156C6.23437 19.8416 6.16522 19.6747 6.04215 19.5516C5.91909 19.4285 5.75217 19.3594 5.57812 19.3594H3.9375C3.76345 19.3594 3.59653 19.4285 3.47346 19.5516C3.35039 19.6747 3.28125 19.8416 3.28125 20.0156C3.28125 20.1897 3.35039 20.3566 3.47346 20.4797C3.59653 20.6027 3.76345 20.6719 3.9375 20.6719Z" fill="black"/>
<path d="M3.28125 26.8652C3.28125 27.0393 3.35039 27.2062 3.47346 27.3293C3.59653 27.4523 3.76345 27.5215 3.9375 27.5215C4.11155 27.5215 4.27847 27.4523 4.40154 27.3293C4.52461 27.2062 4.59375 27.0393 4.59375 26.8652V24.9375H8.20312C8.37717 24.9375 8.54409 24.8684 8.66716 24.7453C8.79023 24.6222 8.85938 24.4553 8.85938 24.2812C8.85938 24.1072 8.79023 23.9403 8.66716 23.8172C8.54409 23.6941 8.37717 23.625 8.20312 23.625H3.9375C3.76345 23.625 3.59654 23.6942 3.47347 23.8172C3.3504 23.9403 3.28126 24.1072 3.28125 24.2812V26.8652Z" fill="black"/>
<path d="M6.5625 27.5215H10.7871C10.9612 27.5215 11.1281 27.4523 11.2511 27.3293C11.3742 27.2062 11.4434 27.0393 11.4434 26.8652V24.1992C11.4434 24.0252 11.3742 23.8583 11.2511 23.7352C11.1281 23.6121 10.9612 23.543 10.7871 23.543C10.6131 23.543 10.4461 23.6121 10.3231 23.7352C10.2 23.8583 10.1309 24.0252 10.1309 24.1992V26.209H6.5625C6.38845 26.209 6.22153 26.2781 6.09846 26.4012C5.97539 26.5243 5.90625 26.6912 5.90625 26.8652C5.90625 27.0393 5.97539 27.2062 6.09846 27.3293C6.22153 27.4523 6.38845 27.5215 6.5625 27.5215Z" fill="black"/>
<path d="M26.25 12.1406H27.5625C27.7365 12.1406 27.9035 12.0715 28.0265 11.9484C28.1496 11.8253 28.2187 11.6584 28.2188 11.4844V5.57812C28.2188 5.40408 28.1496 5.23716 28.0265 5.11409C27.9035 4.99102 27.7365 4.92188 27.5625 4.92188C27.3885 4.92188 27.2215 4.99102 27.0985 5.11409C26.9754 5.23716 26.9062 5.40408 26.9062 5.57812V10.8281H26.25C26.076 10.8281 25.909 10.8973 25.786 11.0203C25.6629 11.1434 25.5938 11.3103 25.5938 11.4844C25.5938 11.6584 25.6629 11.8253 25.786 11.9484C25.909 12.0715 26.076 12.1406 26.25 12.1406Z" fill="black"/>
<path d="M16.4062 18.375V20.0156C16.4063 20.1897 16.4754 20.3566 16.5985 20.4797C16.7215 20.6027 16.8885 20.6719 17.0625 20.6719H18.375C18.549 20.6719 18.716 20.6027 18.839 20.4797C18.9621 20.3566 19.0312 20.1897 19.0312 20.0156C19.0312 19.8416 18.9621 19.6747 18.839 19.5516C18.716 19.4285 18.549 19.3594 18.375 19.3594H17.7188V18.375C17.7188 18.201 17.6496 18.034 17.5265 17.911C17.4035 17.7879 17.2365 17.7188 17.0625 17.7188C16.8885 17.7188 16.7215 17.7879 16.5985 17.911C16.4754 18.034 16.4062 18.201 16.4062 18.375Z" fill="black"/>
<path d="M22.6406 16.7344C22.8147 16.7344 22.9816 16.6652 23.1047 16.5422C23.2277 16.4191 23.2969 16.2522 23.2969 16.0781V14.4375C23.2969 14.2635 23.2277 14.0965 23.1047 13.9735C22.9816 13.8504 22.8147 13.7812 22.6406 13.7812C22.4666 13.7812 22.2997 13.8504 22.1766 13.9735C22.0535 14.0965 21.9844 14.2635 21.9844 14.4375V15.4219H21C20.826 15.4219 20.659 15.491 20.536 15.6141C20.4129 15.7372 20.3438 15.9041 20.3438 16.0781C20.3438 16.2522 20.4129 16.4191 20.536 16.5422C20.659 16.6652 20.826 16.7344 21 16.7344H22.6406Z" fill="black"/>
</svg>
