<svg width="42" height="44" viewBox="0 0 42 44" fill="none" xmlns="http://www.w3.org/2000/svg">
<path d="M16.4331 1.64769V0.175099C16.4331 0.0370835 16.6166 -0.0550337 16.7546 0.0370835L20.6103 2.70586C20.7022 2.79798 20.7022 2.936 20.6103 3.02811L16.7546 5.69689C16.6169 5.78901 16.4331 5.69689 16.4331 5.55888V4.13254C8.7216 4.08632 2.43276 10.39 2.43276 18.1198C2.43276 22.5831 4.59019 26.8624 8.21643 29.4851L6.79352 31.4639C2.52473 28.381 0 23.3656 0 18.12C0 9.00931 7.39026 1.64769 16.4331 1.64769Z" fill="#4B7BE5"/>
<path d="M26.1173 4.77661L24.6945 6.75503C28.3206 9.37796 30.4781 13.657 30.4781 18.1203C30.4781 25.8504 24.1895 32.1544 16.4778 32.1544V30.7281C16.4778 30.5901 16.2943 30.498 16.1563 30.5901L12.3009 33.213C12.209 33.3051 12.209 33.4432 12.3009 33.5353L16.1566 36.2041C16.2943 36.2962 16.4781 36.2041 16.4781 36.066V34.6397C20.5176 34.6397 24.2358 33.1671 27.0816 30.7284L29.0096 32.661C28.5504 33.8572 28.8258 35.2373 29.7437 36.1579L36.3538 42.7839C37.6391 44.0723 39.7507 44.0723 41.036 42.7839C42.3213 41.4955 42.3213 39.3788 41.036 38.0905L34.4717 31.4645C33.5076 30.498 32.1308 30.2682 30.9832 30.6823L29.0553 28.7497C31.4881 25.8969 32.9572 22.1699 32.9572 18.1206C32.9111 12.8747 30.3403 7.85951 26.1173 4.77661ZM24.6945 12.2307L23.5469 13.381C24.1437 14.3012 24.6026 15.3595 24.8322 16.4639H26.4389C26.8062 16.4639 27.1273 16.7862 27.1273 17.154V19.0866C27.1273 19.4547 26.8059 19.7766 26.4389 19.7766H24.8322C24.6026 20.8811 24.1895 21.9393 23.5469 22.8596L24.6945 24.0099C24.9698 24.2859 24.9698 24.7462 24.6945 25.0222L23.3173 26.4027C23.0419 26.6787 22.5828 26.6787 22.3074 26.4027L21.1599 25.2523C20.2419 25.8506 19.1862 26.3106 18.0844 26.5407V28.1513C18.0844 28.5195 17.7629 28.8414 17.396 28.8414H15.4681C15.1008 28.8414 14.7796 28.5192 14.7796 28.1513V26.5407C13.6779 26.3106 12.6222 25.8965 11.7042 25.2523L10.5566 26.4027C10.2812 26.6787 9.82208 26.6787 9.54674 26.4027L8.16957 25.0222C7.89421 24.7462 7.89421 24.2859 8.16957 24.0099L9.31714 22.8596C8.72031 21.9394 8.26146 20.8811 8.03186 19.7766H6.4251C6.05784 19.7766 5.73669 19.4544 5.73669 19.0866V17.154C5.73669 16.7859 6.05817 16.4639 6.4251 16.4639H8.03186C8.26144 15.3595 8.67449 14.3013 9.31714 13.381L8.21539 12.2307C7.94003 11.9547 7.94003 11.4944 8.21539 11.2184L9.59256 9.83793C9.86792 9.5619 10.3271 9.5619 10.6024 9.83793L11.75 10.9883C12.668 10.39 13.7236 9.93004 14.8255 9.69989V8.08925C14.8255 7.7211 15.1469 7.39918 15.5139 7.39918H17.4418C17.8091 7.39918 18.1302 7.72143 18.1302 8.08925V9.69989C19.232 9.93002 20.2876 10.3441 21.2057 10.9883L22.3532 9.83793C22.6286 9.5619 23.0878 9.5619 23.3631 9.83793L24.7403 11.2184C24.9698 11.4948 24.9698 11.9547 24.6945 12.2307Z" fill="black"/>
<path d="M19.982 16.5558L18.6048 15.1753L15.4378 18.3044L14.1068 16.9701L12.7296 18.3506L15.4378 21.0653L16.815 19.6849L19.982 16.5558Z" fill="#4B7BE5"/>
</svg>
