<svg width="42" height="42" viewBox="0 0 42 42" fill="none" xmlns="http://www.w3.org/2000/svg">
<path d="M20.0121 20.1919C21.8913 20.1919 23.4148 18.7043 23.4148 16.8694C23.4148 15.0344 21.8913 13.5469 20.0121 13.5469C18.1328 13.5469 16.6094 15.0344 16.6094 16.8694C16.6094 18.7043 18.1328 20.1919 20.0121 20.1919Z" fill="#4B7BE5"/>
<path d="M22.3627 19.875C21.8716 20.2425 21.2884 20.4974 20.6546 20.6017L20.0123 23.073L19.3699 20.6017C18.7349 20.498 18.1517 20.2425 17.6606 19.875C15.9038 20.5135 14.6953 21.8448 14.6953 23.3839C14.6953 25.5449 17.0756 25.4425 20.0123 25.4425C22.9483 25.4425 25.3286 25.5449 25.3286 23.3839C25.3292 21.8442 24.1195 20.5135 22.3627 19.875Z" fill="#4B7BE5"/>
<path d="M36.3927 13.9315C39.4849 13.9315 42 11.4751 42 8.45575C42 5.43703 39.4849 2.9806 36.3927 2.9806C33.3011 2.9806 30.7854 5.43703 30.7854 8.45575C30.7854 9.52076 31.1032 10.5119 31.6443 11.3536L27.978 13.9428C26.1419 11.6043 23.2607 10.0866 20.0166 10.0866C17.5137 10.0866 15.2274 10.9914 13.4687 12.4757L9.87015 9.0234C10.7065 8.0668 11.2146 6.82845 11.2146 5.47575C11.2146 2.45643 8.69891 0 5.60732 0C2.51573 0 0 2.45643 0 5.47575C0 8.49447 2.51573 10.9509 5.60732 10.9509C6.93839 10.9509 8.16148 10.4934 9.12409 9.7346L12.7177 13.1816C11.0255 14.9369 9.97996 17.2921 9.97996 19.8873C9.97996 22.4129 10.9719 24.7109 12.5847 26.4507L9.39616 29.3944C8.39634 28.498 7.06954 27.9452 5.60793 27.9452C2.51634 27.9452 0.000610268 30.4016 0.000610268 33.4204C0.000610268 36.4391 2.51634 38.8955 5.60793 38.8955C8.70013 38.8955 11.2152 36.4391 11.2152 33.4204C11.2152 32.1933 10.7949 31.064 10.094 30.1497L13.3229 27.1697C15.1011 28.7303 17.4436 29.6887 20.0179 29.6887C22.1011 29.6887 24.0385 29.0644 25.6447 27.9994L28.8864 32.5108C27.7792 33.5121 27.0801 34.9381 27.0801 36.5243C27.0801 39.5436 29.5958 42 32.6874 42C35.779 42 38.2947 39.5436 38.2947 36.5243C38.2947 33.5055 35.779 31.0491 32.6874 31.0491C31.5942 31.0491 30.5767 31.3606 29.7135 31.8913L26.4731 27.3823C28.66 25.5829 30.0545 22.8935 30.0545 19.8885C30.0545 18.017 29.5049 16.273 28.5679 14.7827L32.2769 12.163C33.3029 13.2471 34.7651 13.9315 36.3927 13.9315ZM28.9547 19.8873C28.9547 24.7001 24.9456 28.6153 20.0173 28.6153C15.0877 28.6153 11.078 24.7001 11.078 19.8873C11.078 15.0745 15.0877 11.1594 20.0173 11.1594C24.9456 11.1594 28.9547 15.0745 28.9547 19.8873Z" fill="#060B29"/>
</svg>
