<svg width="46" height="42" viewBox="0 0 46 42" fill="none" xmlns="http://www.w3.org/2000/svg">
<path d="M25.0945 20.7151C26.2114 19.2537 25.3179 16.905 22.9724 16.8006C21.5204 16.6963 20.0685 18.784 19.51 20.141C18.6165 22.3331 19.2308 25.3603 20.4594 27.2392C21.0737 28.0743 21.4646 28.4919 21.4087 28.0743C21.0737 22.9072 23.6425 22.5941 25.0945 20.7151Z" fill="#4B7BE5"/>
<path d="M39.2374 0.246376C34.3521 4.67307 30.2942 9.13634 26.2363 14.0386C26.2363 14.0386 25.212 15.2825 24.5816 16.0873C24.3453 16.38 24.3847 16.8556 24.6998 17.0751L25.3696 17.5873C25.6848 17.8434 26.1575 17.8068 26.4333 17.5141C27.1425 16.7824 28.285 15.6483 28.285 15.6483C32.7763 11.0387 36.7554 6.50228 40.5375 1.27073C41.1679 0.465877 39.9859 -0.448725 39.2374 0.246376Z" fill="#4B7BE5"/>
<path d="M41.1731 13.3094C38.1575 11.1173 35.1419 12.4221 32.4055 13.8313C31.7912 14.4576 31.2328 15.084 30.6185 15.7103C30.6185 15.7103 27.8821 18.5287 27.2678 19.1028L26.9886 19.3638C26.9886 20.0945 26.7094 20.8774 26.2626 21.5037C25.8159 22.13 25.2574 22.5997 24.7548 23.0173C23.5821 24.0089 22.6886 24.7918 22.912 27.9234C23.0237 28.8107 22.4094 29.3326 21.8509 29.4892C20.5665 29.9067 19.7288 28.6541 19.2262 27.9234C17.8301 25.8357 16.9925 22.3388 18.1094 19.5725C18.7236 18.1111 20.2314 15.7103 22.3535 15.3971L22.4652 15.2927C22.912 14.7186 24.8107 12.3699 25.3133 11.7436C25.2016 11.4304 25.0341 11.1695 24.9782 10.8041C24.1406 7.56817 22.3535 3.39272 14.7587 3.81026C1.24435 6.21114 -1.88294 18.6853 0.965129 28.1844C1.91448 31.4203 3.14306 32.9339 4.37164 34.6563C5.09761 35.648 7.27555 37.5791 7.44308 37.6835C10.6262 39.98 14.3119 41.337 18.1652 41.8067C26.5977 42.8506 35.6445 39.6668 41.0056 33.0905C48.042 24.4787 45.8082 16.6497 41.1731 13.3094ZM9.45348 12.8918C9.78854 10.5432 12.0782 8.87299 14.5912 9.18615C17.1042 9.4993 18.8912 11.6914 18.5561 14.0401C18.2211 16.3888 15.9314 18.0589 13.4184 17.7458C10.8496 17.4326 9.11841 15.2927 9.45348 12.8918ZM8.00152 29.0717C5.48852 28.7585 3.7015 26.5664 4.03657 24.2177C4.37164 21.869 6.66126 20.1989 9.17425 20.512C11.6873 20.8252 13.4743 23.0173 13.1392 25.366C12.8041 27.7146 10.5145 29.3848 8.00152 29.0717ZM20.9016 34.3953C20.5665 36.744 18.2769 38.4142 15.7639 38.101C13.2509 37.7879 11.4639 35.5958 11.7989 33.2471C12.134 30.8984 14.4236 29.2282 16.9366 29.5414C19.4496 29.9068 21.1808 32.0467 20.9016 34.3953ZM33.7458 33.2471C33.4107 35.5958 31.1211 37.2659 28.6081 36.9528C26.0951 36.6396 24.3081 34.4475 24.6432 32.0989C24.9782 29.7502 27.2678 28.08 29.7808 28.3931C32.2938 28.7063 34.0809 30.8984 33.7458 33.2471ZM41.9549 24.5831C41.6199 26.9318 39.3302 28.6019 36.8172 28.2888C34.3042 27.9756 32.5172 25.7835 32.8523 23.4348C33.1874 21.0861 35.477 19.416 37.99 19.7291C40.503 20.0945 42.29 22.2866 41.9549 24.5831Z" fill="#060B29"/>
</svg>
