<svg width="110" height="110" viewBox="0 0 110 110" fill="none" xmlns="http://www.w3.org/2000/svg">
<rect x="15" y="13" width="80" height="80" rx="10" fill="#4B7BE5"/>
<g filter="url(#filter0_d)">
<rect x="15" y="11" width="80" height="80" rx="10" fill="white"/>
</g>
<path d="M60.9811 47.7891C62.1791 47.3176 62.7381 46.1389 62.2589 45.0949C61.7797 44.0173 60.4221 43.4785 59.1443 43.7816L56.9481 38.8985C56.6286 38.1913 55.7102 37.9219 54.9515 38.1576C54.672 38.2586 54.3924 38.427 54.1928 38.6964L49.6406 44.9266L52.9549 52.3017L61.3006 54.4233C61.6599 54.5243 61.9794 54.4907 62.2988 54.3896C63.0176 54.1539 63.4968 53.4467 63.1773 52.7058L60.9811 47.7891Z" fill="#060B29"/>
<path d="M65.3745 44.0823C65.6141 44.6211 66.3328 44.8906 66.9717 44.6885L72.2027 43.0047C72.8416 42.8026 73.1611 42.1965 72.9215 41.6576C72.6819 41.1188 71.9631 40.8494 71.3242 41.0515L66.0932 42.7353C65.4543 42.971 65.1349 43.5772 65.3745 44.0823Z" fill="#4B7BE5"/>
<path d="M65.4968 35.0918C64.8978 34.8561 64.1391 35.0918 63.8596 35.597L61.5835 39.8739C61.304 40.379 61.5835 41.0189 62.1825 41.2546C62.5019 41.3556 62.8214 41.3556 63.1408 41.2883C63.4203 41.1873 63.6999 41.0189 63.8197 40.7495L66.0957 36.4726C66.3753 35.9338 66.0957 35.3276 65.4968 35.0918Z" fill="#4B7BE5"/>
<path d="M71.9209 49.402L66.8496 47.4825C66.2506 47.2467 65.4919 47.4825 65.2124 47.9876C64.9329 48.4928 65.2124 49.1326 65.8114 49.3683L70.8827 51.2879C71.2021 51.3889 71.5216 51.3889 71.841 51.3216C72.1205 51.2206 72.4 51.0522 72.5198 50.7828C72.7994 50.2439 72.5198 49.6378 71.9209 49.402Z" fill="#4B7BE5"/>
<path d="M53.3544 61.2234C53.3544 61.2234 53.3145 61.2234 53.3544 61.2234C53.9534 60.9876 54.2728 60.4151 54.0332 59.91C53.8336 59.4722 53.3145 59.2028 52.7954 59.2701C52.7554 59.2701 52.7554 59.2365 52.7954 59.2365C53.3943 59.0344 53.7138 58.4619 53.4742 57.9231C53.2745 57.4853 52.7554 57.2159 52.2363 57.2832C52.1964 57.2832 52.1964 57.2496 52.2363 57.2496C52.8353 57.0475 53.1547 56.475 52.9152 55.9362C52.6756 55.431 51.9967 55.1616 51.3578 55.3637C50.9186 55.4984 50.2797 55.7341 49.6807 55.9362L48.4828 53.6799L51.7571 52.6359L48.4428 45.3281L41.2552 47.6181C39.8976 48.0559 39.2187 49.2683 39.6979 50.4133L38.8993 50.649C38.46 50.7837 38.2204 51.2215 38.3802 51.5583L39.2587 53.5452C39.4184 53.9156 39.9375 54.084 40.3767 53.9493L41.1754 53.7135C41.7344 54.8249 43.2118 55.3637 44.5695 54.9259L44.849 54.8249L46.047 56.9465C45.4879 57.1148 45.0088 57.2496 44.7292 57.3506C43.9306 57.6873 43.1719 58.765 42.6927 59.6406C42.533 59.9437 42.2136 60.2131 41.8143 60.3478L37.1024 61.9306C36.2239 62.2337 35.7846 63.0756 36.1041 63.8164L37.1024 66.0391C37.4218 66.78 38.4201 67.1841 39.3385 66.9147L44.1303 65.4329C44.4098 65.3319 44.7292 65.3319 45.0487 65.3656C47.2449 65.5339 50.7589 64.1869 52.7954 63.547C53.4742 63.3113 53.9134 63.2103 53.9134 63.2103C54.5124 63.0082 54.8319 62.4357 54.5923 61.8969C54.4325 61.4254 53.8735 61.1897 53.3544 61.2234Z" fill="#060B29"/>
<defs>
<filter id="filter0_d" x="0" y="0" width="110" height="110" filterUnits="userSpaceOnUse" color-interpolation-filters="sRGB">
<feFlood flood-opacity="0" result="BackgroundImageFix"/>
<feColorMatrix in="SourceAlpha" type="matrix" values="0 0 0 0 0 0 0 0 0 0 0 0 0 0 0 0 0 0 127 0" result="hardAlpha"/>
<feOffset dy="4"/>
<feGaussianBlur stdDeviation="7.5"/>
<feComposite in2="hardAlpha" operator="out"/>
<feColorMatrix type="matrix" values="0 0 0 0 0 0 0 0 0 0 0 0 0 0 0 0 0 0 0.08 0"/>
<feBlend mode="normal" in2="BackgroundImageFix" result="effect1_dropShadow"/>
<feBlend mode="normal" in="SourceGraphic" in2="effect1_dropShadow" result="shape"/>
</filter>
</defs>
</svg>
