<svg width="134" height="105" viewBox="0 0 134 105" fill="none" xmlns="http://www.w3.org/2000/svg">
<path d="M-2.88765e-07 37.5739L4.76388 39.1261L4.76388 44.1494L7.70936 40.0881L12.4698 41.6386L9.52605 37.5739L12.4698 33.5108L7.70936 35.0614L4.76388 31.0001L4.76388 36.0233L-2.88765e-07 37.5739ZM7.3817 36.0732L10.226 35.1474L8.46932 37.5739L10.226 40.002L7.3817 39.0762L5.62334 41.5044L5.62334 38.5014L2.77907 37.5739L5.62334 36.648L5.62334 33.6451L7.3817 36.0732Z" fill="#4B7BE5"/>
<path d="M113.692 3.85855C113.692 1.73153 111.966 0.000297764 109.846 0.000297856C107.726 0.000297948 106 1.73153 106 3.85855C106 5.98558 107.726 7.7168 109.846 7.7168C111.966 7.7168 113.692 5.98558 113.692 3.85855ZM106.858 3.85855C106.858 2.20477 108.198 0.860746 109.846 0.860746C111.495 0.860746 112.834 2.20477 112.834 3.85855C112.834 5.51233 111.495 6.85635 109.846 6.85635C108.198 6.85635 106.858 5.51234 106.858 3.85855Z" fill="#C4C4C4"/>
<path opacity="0.5" d="M25.1002 104.131L25.7315 104.118C25.7179 103.423 25.3233 87.023 18.8371 82.4902L18.4746 83.0044C24.6992 87.3544 25.0971 103.963 25.1002 104.131Z" fill="#C4C4C4"/>
<path d="M15.5001 82.2834C17.2433 82.2834 18.6565 80.8768 18.6565 79.1417C18.6565 77.4066 17.2433 76 15.5001 76C13.7569 76 12.3438 77.4066 12.3438 79.1417C12.3438 80.8768 13.7569 82.2834 15.5001 82.2834Z" fill="#E8E8E8"/>
<path opacity="0.2" d="M16.1373 90.235C17.7791 90.7483 19.5276 90.8235 21.2077 90.4529C20.1409 89.101 18.7041 88.0849 17.0704 87.5272C15.4368 86.9694 13.6759 86.8937 12 87.3093C13.0979 88.6283 14.5246 89.6372 16.1373 90.235Z" fill="#212121"/>
<path d="M84.8303 1.24233L80.7747 2.29341L30.8086 15.243L26.753 16.2941C24.7844 16.8066 23.0985 18.083 22.0652 19.8432C21.0319 21.6034 20.7355 23.7036 21.2411 25.6832L38.8272 94.2183C39.3372 96.1967 40.6073 97.891 42.3587 98.9294C44.1102 99.9679 46.2 100.266 48.1697 99.7577L48.1802 99.7549L106.237 84.7087L106.247 84.7059C108.216 84.1934 109.901 82.917 110.935 81.1568C111.968 79.3966 112.264 77.2964 111.759 75.3168L94.1728 6.78169C93.6628 4.80331 92.3927 3.10903 90.6413 2.07056C88.8898 1.03208 86.8 0.734226 84.8303 1.24233Z" fill="#F2F2F2"/>
<path d="M85.7542 4.17335L80.9831 5.42404L32.8402 18.044L28.0692 19.2947C26.6768 19.6614 25.4843 20.5745 24.7535 21.8338C24.0226 23.093 23.8129 24.5956 24.1706 26.0118L41.6378 94.8637C41.9986 96.2791 42.8969 97.4912 44.1357 98.2341C45.3745 98.977 46.8527 99.1901 48.2459 98.8266L48.2563 98.8239L105.92 83.7081L105.931 83.7053C107.323 83.3386 108.516 82.4255 109.247 81.1662C109.977 79.9069 110.187 78.4044 109.829 76.9882L92.3622 8.1363C92.0014 6.72095 91.1031 5.50884 89.8643 4.7659C88.6255 4.02297 87.1474 3.80986 85.7542 4.17335Z" fill="white"/>
<path d="M82.0404 25.482L52.6001 32.96C52.2713 33.0436 51.9222 32.995 51.6298 32.825C51.3373 32.6551 51.1254 32.3777 51.0406 32.0538C50.9558 31.7299 51.0051 31.3861 51.1776 31.098C51.3502 30.81 51.6318 30.6012 51.9607 30.5177L81.401 23.0397C81.7297 22.9565 82.0785 23.0052 82.3707 23.1752C82.6629 23.3452 82.8747 23.6225 82.9594 23.9462C83.0442 24.2699 82.995 24.6135 82.8227 24.9015C82.6504 25.1895 82.369 25.3983 82.0404 25.482Z" fill="#F2F2F2"/>
<path d="M88.0682 28.6363L54.552 37.9576C54.2331 38.0463 53.8945 37.9947 53.6108 37.8142C53.3272 37.6337 53.1216 37.3391 53.0393 36.9951C52.9571 36.6511 53.0049 36.286 53.1723 35.9801C53.3396 35.6742 53.6128 35.4524 53.9318 35.3637L87.448 26.0424C87.7669 25.9537 88.1055 26.0053 88.3891 26.1858C88.6728 26.3663 88.8784 26.6609 88.9607 27.0049C89.0429 27.3489 88.9951 27.714 88.8277 28.0199C88.6604 28.3258 88.3871 28.5475 88.0682 28.6363Z" fill="#F2F2F2"/>
<path d="M87.0694 44.4823L58.55 51.9601C58.3923 52.0014 58.2281 52.0108 58.0669 51.9876C57.9056 51.9644 57.7504 51.9092 57.6101 51.8251C57.4698 51.7409 57.3472 51.6295 57.2492 51.4972C57.1513 51.3648 57.08 51.2142 57.0393 51.0538C56.9986 50.8934 56.9894 50.7265 57.0122 50.5625C57.035 50.3985 57.0893 50.2407 57.1721 50.0981C57.2548 49.9555 57.3644 49.8308 57.4946 49.7312C57.6247 49.6316 57.7729 49.5591 57.9306 49.5177L86.45 42.04C86.6077 41.9986 86.7719 41.9892 86.9331 42.0124C87.0944 42.0356 87.2496 42.0908 87.3899 42.1749C87.5302 42.2591 87.6528 42.3705 87.7508 42.5028C87.8487 42.6352 87.92 42.7858 87.9607 42.9462C88.0014 43.1066 88.0106 43.2735 87.9878 43.4375C87.965 43.6015 87.9107 43.7593 87.8279 43.9019C87.7452 44.0445 87.6356 44.1692 87.5054 44.2688C87.3753 44.3684 87.2271 44.4409 87.0694 44.4823Z" fill="#F2F2F2"/>
<path d="M94.0164 47.6363L58.6382 56.9576C58.4715 57.0015 58.298 57.0114 58.1275 56.9868C57.9571 56.9622 57.7931 56.9036 57.6448 56.8142C57.4965 56.7248 57.3669 56.6065 57.2634 56.466C57.1599 56.3254 57.0845 56.1654 57.0415 55.9951C56.9985 55.8248 56.9888 55.6475 57.0129 55.4733C57.037 55.2992 57.0944 55.1316 57.1818 54.9801C57.2693 54.8286 57.3851 54.6962 57.5227 54.5905C57.6603 54.4847 57.8168 54.4077 57.9835 54.3638L93.3618 45.0424C93.6984 44.9537 94.0558 45.0053 94.3552 45.1858C94.6547 45.3663 94.8717 45.6609 94.9585 46.0049C95.0453 46.3489 94.9948 46.714 94.8181 47.0199C94.6415 47.3258 94.3531 47.5476 94.0164 47.6363Z" fill="#F2F2F2"/>
<path d="M92.0093 63.4823L61.6492 70.9603C61.3102 71.0435 60.9505 70.9948 60.6491 70.8248C60.3476 70.6549 60.1292 70.3775 60.0418 70.0538C59.9544 69.7301 60.0052 69.3864 60.1829 69.0984C60.3607 68.8104 60.6509 68.6016 60.9898 68.5179L91.3499 61.04C91.689 60.9564 92.0489 61.005 92.3505 61.1749C92.6522 61.3449 92.8707 61.6223 92.9582 61.9462C93.0456 62.2701 92.9948 62.6139 92.8168 62.902C92.6389 63.19 92.3484 63.3988 92.0093 63.4823Z" fill="#F2F2F2"/>
<path d="M97.0682 66.4165L63.553 74.9608C63.3951 75.0013 63.2306 75.0105 63.069 74.988C62.9074 74.9656 62.7519 74.9119 62.6113 74.83C62.4707 74.7481 62.3479 74.6396 62.2497 74.5107C62.1516 74.3818 62.0801 74.2351 62.0393 74.0789C61.9986 73.9227 61.9894 73.7601 62.0122 73.6003C62.0351 73.4406 62.0896 73.2869 62.1726 73.148C62.2555 73.0091 62.3654 72.8877 62.4958 72.7908C62.6263 72.6939 62.7748 72.6234 62.9328 72.5832L96.448 64.0389C96.767 63.9576 97.1055 64.0049 97.3892 64.1703C97.6728 64.3358 97.8784 64.6058 97.9607 64.9211C98.0429 65.2364 97.9951 65.5711 97.8277 65.8515C97.6604 66.132 97.3872 66.3352 97.0682 66.4165Z" fill="#F2F2F2"/>
<path d="M47.5407 41.1274L37.1502 43.9795C36.9929 44.0225 36.8261 43.9973 36.6863 43.9095C36.5465 43.8217 36.4451 43.6784 36.4044 43.5112L34.0193 33.6664C33.9789 33.499 34.0025 33.3215 34.085 33.1727C34.1675 33.0238 34.3021 32.9159 34.4592 32.8726L44.8498 30.0205C45.0071 29.9775 45.1739 30.0027 45.3137 30.0905C45.4535 30.1783 45.5549 30.3216 45.5956 30.4888L47.9807 40.3336C48.0211 40.501 47.9975 40.6785 47.915 40.8273C47.8325 40.9762 47.6979 41.0841 47.5407 41.1274Z" fill="#E6E6E6"/>
<path d="M52.5408 60.1274L42.1502 62.9795C41.9929 63.0225 41.8261 62.9973 41.6863 62.9095C41.5465 62.8217 41.4451 62.6784 41.4044 62.5112L39.0193 52.6664C38.9789 52.499 39.0025 52.3215 39.085 52.1727C39.1675 52.0238 39.3021 51.9159 39.4592 51.8726L49.8498 49.0205C50.0071 48.9775 50.1739 49.0027 50.3137 49.0905C50.4535 49.1783 50.5549 49.3216 50.5956 49.4888L52.9807 59.3336C53.0211 59.501 52.9975 59.6785 52.915 59.8273C52.8325 59.9762 52.6979 60.0841 52.5408 60.1274Z" fill="#E6E6E6"/>
<path d="M57.5408 79.1274L47.1502 81.9795C46.9929 82.0225 46.8261 81.9973 46.6863 81.9095C46.5465 81.8217 46.4451 81.6784 46.4044 81.5112L44.0193 71.6664C43.9789 71.499 44.0025 71.3215 44.085 71.1727C44.1675 71.0238 44.3021 70.9159 44.4592 70.8726L54.8498 68.0205C55.0071 67.9775 55.1739 68.0027 55.3137 68.0905C55.4535 68.1783 55.5549 68.3216 55.5956 68.4888L57.9807 78.3336C58.0211 78.501 57.9975 78.6785 57.915 78.8273C57.8325 78.9762 57.6979 79.0841 57.5408 79.1274Z" fill="#E6E6E6"/>
<path d="M126.26 19H65.7396C63.6877 19.0023 61.7204 19.8133 60.2694 21.2552C58.8185 22.6971 58.0023 24.652 58 26.6911V97.3089C58.0023 99.348 58.8185 101.303 60.2694 102.745C61.7204 104.187 63.6877 104.998 65.7396 105H126.26C128.312 104.998 130.28 104.187 131.731 102.745C133.182 101.303 133.998 99.348 134 97.3089V26.6911C133.998 24.652 133.182 22.6971 131.731 21.2552C130.28 19.8133 128.312 19.0023 126.26 19Z" fill="#E6E6E6"/>
<path d="M125.53 21H65.4697C64.0195 21.0017 62.6292 21.5893 61.6038 22.6341C60.5784 23.6788 60.0016 25.0954 60 26.5729V98.4271C60.0016 99.9047 60.5784 101.321 61.6038 102.366C62.6292 103.411 64.0195 103.998 65.4697 104H125.53C126.981 103.998 128.371 103.411 129.396 102.366C130.422 101.321 130.998 99.9046 131 98.4271V26.5729C130.998 25.0954 130.422 23.6789 129.396 22.6341C128.371 21.5894 126.981 21.0017 125.53 21Z" fill="white"/>
<path d="M117.642 61H85.361C85.1823 61.0002 85.0054 60.9616 84.8403 60.8863C84.6752 60.811 84.5251 60.7006 84.3987 60.5613C84.2723 60.4219 84.172 60.2565 84.1036 60.0744C84.0352 59.8923 84 59.6971 84 59.5C84 59.3029 84.0352 59.1077 84.1036 58.9256C84.172 58.7435 84.2723 58.5781 84.3987 58.4387C84.5251 58.2994 84.6752 58.189 84.8403 58.1137C85.0054 58.0384 85.1823 57.9998 85.361 58H117.642C118.002 58.0004 118.348 58.1587 118.602 58.4399C118.857 58.7212 119 59.1025 119 59.5C119 59.8975 118.857 60.2788 118.602 60.5601C118.348 60.8413 118.002 60.9996 117.642 61Z" fill="#E6E6E6"/>
<path d="M122.661 64H85.3405C85.1646 64.0001 84.9903 63.9744 84.8277 63.9242C84.665 63.874 84.5172 63.8004 84.3927 63.7075C84.2682 63.6146 84.1695 63.5043 84.1021 63.3829C84.0347 63.2615 84 63.1314 84 63C84 62.8686 84.0347 62.7385 84.1021 62.6171C84.1695 62.4957 84.2682 62.3854 84.3927 62.2925C84.5172 62.1996 84.665 62.126 84.8277 62.0758C84.9903 62.0256 85.1646 61.9999 85.3405 62H122.661C123.016 62 123.357 62.1054 123.608 62.2929C123.859 62.4804 124 62.7348 124 63C124 63.2652 123.859 63.5196 123.608 63.7071C123.357 63.8946 123.016 64 122.661 64Z" fill="#E6E6E6"/>
<path d="M117.641 80H85.3609C85.1823 80.0002 85.0053 79.9616 84.8402 79.8863C84.6751 79.811 84.5251 79.7006 84.3987 79.5613C84.2723 79.4219 84.172 79.2565 84.1036 79.0744C84.0352 78.8923 84 78.6971 84 78.5C84 78.3029 84.0352 78.1077 84.1036 77.9256C84.172 77.7435 84.2723 77.5781 84.3987 77.4387C84.5251 77.2994 84.6751 77.189 84.8402 77.1137C85.0053 77.0384 85.1823 76.9998 85.3609 77H117.641C118.001 77 118.347 77.158 118.602 77.4393C118.857 77.7206 119 78.1022 119 78.5C119 78.8978 118.857 79.2794 118.602 79.5607C118.347 79.842 118.001 80 117.641 80Z" fill="#E6E6E6"/>
<path d="M122.66 83H85.3405C85.1645 83.0001 84.9903 82.9744 84.8276 82.9242C84.665 82.874 84.5172 82.8004 84.3927 82.7075C84.2682 82.6146 84.1695 82.5043 84.1021 82.3829C84.0347 82.2615 84 82.1314 84 82C84 81.8686 84.0347 81.7385 84.1021 81.6171C84.1695 81.4957 84.2682 81.3854 84.3927 81.2925C84.5172 81.1996 84.665 81.126 84.8276 81.0758C84.9903 81.0256 85.1645 80.9999 85.3405 81H122.66C122.835 80.9999 123.01 81.0256 123.172 81.0758C123.335 81.126 123.483 81.1996 123.607 81.2925C123.732 81.3854 123.831 81.4957 123.898 81.6171C123.965 81.7385 124 81.8686 124 82C124 82.1314 123.965 82.2615 123.898 82.3829C123.831 82.5043 123.732 82.6146 123.607 82.7075C123.483 82.8004 123.335 82.874 123.172 82.9242C123.01 82.9744 122.835 83.0001 122.66 83Z" fill="#E6E6E6"/>
<path d="M80.3342 66H68.6658C68.4893 65.9998 68.32 65.9399 68.1952 65.8334C68.0704 65.7269 68.0002 65.5825 68 65.4318V56.5682C68.0002 56.4175 68.0704 56.2731 68.1952 56.1666C68.32 56.0601 68.4893 56.0002 68.6658 56H80.3342C80.5107 56.0002 80.68 56.0601 80.8048 56.1666C80.9296 56.2731 80.9998 56.4175 81 56.5682V65.4318C80.9998 65.5825 80.9296 65.7269 80.8048 65.8334C80.68 65.9399 80.5107 65.9998 80.3342 66Z" fill="#E6E6E6"/>
<path d="M80.3342 86H68.6658C68.4893 85.9998 68.32 85.9339 68.1952 85.8167C68.0704 85.6996 68.0002 85.5407 68 85.375V75.625C68.0002 75.4593 68.0704 75.3004 68.1952 75.1833C68.32 75.0661 68.4893 75.0002 68.6658 75H80.3342C80.5107 75.0002 80.68 75.0661 80.8048 75.1833C80.9296 75.3004 80.9998 75.4593 81 75.625V85.375C80.9998 85.5407 80.9296 85.6996 80.8048 85.8167C80.68 85.9339 80.5107 85.9998 80.3342 86Z" fill="#E6E6E6"/>
<path d="M117.667 38H94.3329C93.9794 38 93.6404 37.842 93.3904 37.5607C93.1404 37.2794 93 36.8978 93 36.5C93 36.1022 93.1404 35.7206 93.3904 35.4393C93.6404 35.158 93.9794 35 94.3329 35H117.667C118.021 35 118.36 35.158 118.61 35.4393C118.86 35.7206 119 36.1022 119 36.5C119 36.8978 118.86 37.2794 118.61 37.5607C118.36 37.842 118.021 38 117.667 38Z" fill="#CCCCCC"/>
<path d="M122.688 43H94.3118C94.1395 43 93.9689 42.9612 93.8098 42.8858C93.6506 42.8104 93.506 42.7 93.3842 42.5607C93.2624 42.4214 93.1658 42.256 93.0999 42.074C93.0339 41.892 93 41.697 93 41.5C93 41.303 93.0339 41.108 93.0999 40.926C93.1658 40.744 93.2624 40.5786 93.3842 40.4393C93.506 40.3 93.6506 40.1896 93.8098 40.1142C93.9689 40.0388 94.1395 40 94.3118 40H122.688C123.036 40 123.37 40.158 123.616 40.4393C123.862 40.7206 124 41.1022 124 41.5C124 41.8978 123.862 42.2794 123.616 42.5607C123.37 42.842 123.036 43 122.688 43Z" fill="#CCCCCC"/>
<path d="M90.355 48H68.645C68.474 47.9998 68.31 47.9327 68.1891 47.8133C68.0682 47.6939 68.0002 47.5321 68 47.3633V30.6367C68.0002 30.4679 68.0682 30.3061 68.1891 30.1867C68.31 30.0673 68.474 30.0002 68.645 30H90.355C90.526 30.0002 90.69 30.0673 90.8109 30.1867C90.9318 30.3061 90.9998 30.4679 91 30.6367V47.3633C90.9998 47.5321 90.9318 47.6939 90.8109 47.8133C90.69 47.9327 90.526 47.9998 90.355 48Z" fill="#E8E8E8"/>
</svg>
