<svg width="220" height="158" viewBox="0 0 220 158" fill="none" xmlns="http://www.w3.org/2000/svg">
<path d="M45.5462 154.474L49.1751 154.474L50.901 140.833L45.5449 140.834L45.5462 154.474Z" fill="#FFB8B8"/>
<path d="M56.3828 157.999L44.7823 158L44.7819 153.561L51.9004 153.56C53.0891 153.56 54.2292 154.028 55.0698 154.86C55.9104 155.693 56.3827 156.822 56.3828 157.999Z" fill="#4B7BE5"/>
<path d="M75.388 154.474L79.0169 154.474L80.7428 140.833L75.3867 140.834L75.388 154.474Z" fill="#FFB8B8"/>
<path d="M86.0859 157.999L74.4854 158L74.485 153.561L81.6035 153.56C82.7922 153.56 83.9323 154.028 84.7729 154.86C85.6135 155.693 86.0858 156.822 86.0859 157.999Z" fill="#4B7BE5"/>
<path d="M44.8053 149.17C44.4669 149.17 44.1389 149.055 43.8777 148.843C43.6164 148.632 43.4381 148.338 43.3734 148.011L40.9926 118.606C38.4295 93.7049 42.8167 84.9321 42.8613 84.8465L42.9094 84.7539L43.0149 84.76L63.5934 85.9241L67.9616 99.9691L79.5085 115.218C81.3354 117.64 82.3059 120.583 82.2719 123.598L81.9797 145.832C81.973 146.191 81.8301 146.535 81.5789 146.796C81.3277 147.058 80.9864 147.217 80.6217 147.244L74.5936 147.656C74.2167 147.683 73.8439 147.565 73.5541 147.326C73.2644 147.088 73.0805 146.748 73.0412 146.379L71.5478 122.24C71.5434 122.215 71.5313 122.192 71.5131 122.173L54.3878 106.485C54.3313 106.426 54.2605 106.381 54.1819 106.357C54.1034 106.332 54.0197 106.327 53.9387 106.343C53.8578 106.358 53.7822 106.394 53.7192 106.446C53.6561 106.499 53.6076 106.566 53.5782 106.642L51.8511 147.507C51.8702 147.701 51.8483 147.897 51.7868 148.082C51.7252 148.268 51.6253 148.439 51.4934 148.585C51.3593 148.734 51.1952 148.854 51.0114 148.937C50.8276 149.021 50.6282 149.066 50.4258 149.07L44.8322 149.17C44.8232 149.17 44.8142 149.17 44.8053 149.17Z" fill="#212121"/>
<path d="M59.1773 54.3661C64.1905 51.6518 66.0329 45.4263 63.2924 40.461C60.5519 35.4957 54.2663 33.6709 49.2531 36.3852C44.2398 39.0994 42.3974 45.325 45.1379 50.2903C47.8784 55.2556 54.164 57.0804 59.1773 54.3661Z" fill="#212121"/>
<path d="M98.3746 65.4487C98.0061 65.2262 97.5965 65.0928 97.1746 65.058C96.7528 65.0232 96.3289 65.0878 95.9328 65.2472C95.5368 65.4066 95.1783 65.657 94.8825 65.9808C94.5867 66.3045 94.3608 66.6937 94.2208 67.1209L87.6171 67.5169L86.8633 71.8693L96.1817 71.1699C96.868 71.374 97.6005 71.3016 98.2404 70.9665C98.8802 70.6313 99.3829 70.0567 99.6532 69.3515C99.9235 68.6462 99.9427 67.8594 99.707 67.1401C99.4714 66.4208 98.9973 65.819 98.3746 65.4487Z" fill="#FFB8B8"/>
<path d="M41.4419 100.398C41.6209 99.9904 41.7159 99.5444 41.7202 99.0919C41.7245 98.6394 41.6379 98.1914 41.4667 97.7794C41.2954 97.3674 41.0436 97.0015 40.729 96.7074C40.4144 96.4133 40.0446 96.1982 39.6456 96.0772L38.8542 89.0568L34.834 88.542L36.0791 98.439C35.9376 99.185 36.0513 99.9618 36.3988 100.622C36.7463 101.283 37.3033 101.781 37.9643 102.022C38.6254 102.264 39.3445 102.232 39.9854 101.933C40.6264 101.633 41.1446 101.087 41.4419 100.398H41.4419Z" fill="#FFB8B8"/>
<path d="M53.579 56.7133C58.0161 56.7133 61.6131 53.1508 61.6131 48.7561C61.6131 44.3614 58.0161 40.7988 53.579 40.7988C49.1419 40.7988 45.5449 44.3614 45.5449 48.7561C45.5449 53.1508 49.1419 56.7133 53.579 56.7133Z" fill="#FFB8B8"/>
<path d="M55.1654 88.5419C50.8906 88.5419 47.3085 88.2064 43.756 86.9748C42.2935 86.4679 42.1372 85.8393 41.9315 85.0532C41.6087 83.8193 41.4317 69.2265 43.0983 64.3834C43.5505 63.0817 44.3738 61.9308 45.4729 61.0641C46.572 60.1975 47.9018 59.6506 49.3084 59.4868C50.8952 59.3055 55.6419 58.6549 58.3301 58.2833C59.651 58.0907 60.997 58.4104 62.0765 59.1731C62.789 59.692 63.159 60.2493 63.1762 60.8296L63.9067 85.5027C63.9305 86.2157 63.6676 86.9098 63.1735 87.4384C62.6794 87.967 61.9928 88.2887 61.2587 88.3356C59.6161 88.4433 57.4811 88.5419 55.1654 88.5419Z" fill="#4B7BE5"/>
<path d="M33.9988 94.6045C33.8024 94.6044 33.6079 94.5652 33.4272 94.489C33.2464 94.4129 33.083 94.3015 32.9468 94.1614C32.8106 94.0213 32.7044 93.8555 32.6345 93.6739C32.5647 93.4922 32.5326 93.2985 32.5402 93.1043L32.7932 81.6603C32.8487 80.246 33.2756 78.8704 34.0319 77.669L43.8523 62.0862C44.16 61.6008 44.5874 61.2006 45.0944 60.9235C45.6014 60.6464 46.1714 60.5013 46.7507 60.502C47.3306 60.5021 47.9008 60.6498 48.4063 60.931C48.9119 61.2122 49.3357 61.6174 49.6371 62.1076C49.9502 62.614 50.1225 63.1933 50.1366 63.7868C50.1507 64.3803 50.0061 64.967 49.7174 65.4874L40.1916 82.6129L40.8473 93.1239C40.8508 93.3155 40.8157 93.5058 40.7441 93.6839C40.6725 93.8619 40.5658 94.024 40.4302 94.1609C40.2946 94.2977 40.1328 94.4065 39.9543 94.4809C39.7758 94.5552 39.5842 94.5938 39.3905 94.5941L34.0021 94.6045L33.9988 94.6045Z" fill="#4B7BE5"/>
<path d="M92.6165 73.0939C92.4869 73.2335 92.3288 73.3465 92.1518 73.426C91.9748 73.5054 91.7827 73.5496 91.5873 73.5559L80.0746 74.138C78.6516 74.1866 77.2399 73.8812 75.9783 73.2518L59.604 65.0735C59.0927 64.8181 58.6584 64.4425 58.3423 63.9821C58.0262 63.5218 57.8387 62.9921 57.7976 62.4433C57.7566 61.8944 57.8634 61.3447 58.1078 60.8463C58.3523 60.3479 58.7263 59.9173 59.1944 59.5954L59.2889 59.7203L59.1944 59.5954C59.6795 59.2626 60.2482 59.0579 60.8429 59.002C61.4377 58.946 62.0374 59.0408 62.5813 59.2768L80.4827 67.0655L90.9933 65.6894C91.1848 65.6735 91.3777 65.6939 91.5609 65.7494C91.7441 65.805 91.9139 65.8946 92.0605 66.0131C92.2071 66.1317 92.3276 66.2767 92.415 66.4399C92.5025 66.6031 92.5551 66.7812 92.5698 66.9639L92.9816 72.0644C92.9837 72.0899 92.9849 72.1153 92.9856 72.1407C92.995 72.4917 92.8629 72.8329 92.6165 73.0939Z" fill="#4B7BE5"/>
<path d="M47.6289 47.6194L45.5449 41.9943L54.9155 39.2832L61.6131 41.3404V47.6194H47.6289Z" fill="#212121"/>
<path d="M57.7879 35.0108C57.5905 32.815 56.7311 30.7266 55.3192 29.0115C53.9073 27.2965 52.0068 26.0325 49.8598 25.3805C47.7128 24.7286 45.4166 24.7181 43.2635 25.3506C41.1105 25.9831 39.1982 27.2298 37.7702 28.932C35.8168 31.2605 34.9142 34.256 34.2536 37.2008C33.593 40.1457 33.1147 43.1681 31.832 45.9085C30.5493 48.6488 28.2878 51.1384 25.3021 51.8578C22.3164 52.5771 18.6902 50.9573 18 48.019C18.1071 50.0048 18.6184 51.9496 19.5038 53.7386C20.3893 55.5275 21.6309 57.1246 23.1556 58.4356C25.7425 60.6358 29.9661 59.8578 32.5127 57.6128C35.0593 55.3679 36.3198 52.0732 37.4102 48.8897C38.5005 45.7063 39.5757 42.387 41.8887 39.9107C44.2017 37.4344 50.7571 34.8025 53.7279 36.4725C56.0577 37.7821 56.8937 36.9496 57.7879 35.0108Z" fill="#212121"/>
<path d="M214.665 100.668H102.146C100.731 100.666 99.375 100.107 98.3749 99.114C97.3747 98.1205 96.8121 96.7735 96.8105 95.3685V38.5201C96.8121 37.1151 97.3747 35.7681 98.3749 34.7746C99.375 33.7811 100.731 33.2223 102.146 33.2207H214.665C216.079 33.2223 217.435 33.7811 218.436 34.7746C219.436 35.7681 219.998 37.1151 220 38.5201V95.3685C219.998 96.7735 219.436 98.1205 218.436 99.114C217.435 100.108 216.079 100.666 214.665 100.668Z" fill="#E6E6E6"/>
<path d="M213.424 96.8777H103.388C102.658 96.8769 101.959 96.5884 101.443 96.0754C100.928 95.5625 100.638 94.8671 100.637 94.1417V39.7447C100.638 39.0194 100.928 38.3239 101.443 37.811C101.959 37.2981 102.658 37.0096 103.388 37.0088H213.424C214.153 37.0096 214.852 37.2981 215.368 37.811C215.884 38.3239 216.174 39.0194 216.175 39.7447V94.1417C216.174 94.8671 215.884 95.5625 215.368 96.0754C214.852 96.5884 214.153 96.8769 213.424 96.8777Z" fill="white"/>
<path d="M201.349 88.5411H115.462C114.777 88.5411 114.12 88.3016 113.635 87.8752C113.151 87.4489 112.879 86.8706 112.879 86.2676C112.879 85.6647 113.151 85.0864 113.635 84.66C114.12 84.2337 114.777 83.9941 115.462 83.9941H201.349C202.034 83.9941 202.691 84.2337 203.175 84.66C203.66 85.0864 203.932 85.6647 203.932 86.2676C203.932 86.8706 203.66 87.4489 203.175 87.8752C202.691 88.3016 202.034 88.5411 201.349 88.5411Z" fill="#E6E6E6"/>
<path d="M201.349 77.9328H115.462C114.777 77.9328 114.12 77.6533 113.635 77.1559C113.151 76.6585 112.879 75.9838 112.879 75.2803C112.879 74.5769 113.151 73.9022 113.635 73.4048C114.12 72.9074 114.777 72.6279 115.462 72.6279H201.349C202.034 72.6279 202.691 72.9074 203.175 73.4048C203.66 73.9022 203.932 74.5769 203.932 75.2803C203.932 75.9838 203.66 76.6585 203.175 77.1559C202.691 77.6533 202.034 77.9328 201.349 77.9328Z" fill="#E6E6E6"/>
<path d="M134.589 65.0484H115.654C114.918 65.0476 114.213 64.761 113.693 64.2515C113.172 63.742 112.88 63.0512 112.879 62.3306V48.8203C112.88 48.0997 113.172 47.4089 113.693 46.8994C114.213 46.3899 114.918 46.1033 115.654 46.1025H134.589C135.325 46.1033 136.03 46.3899 136.55 46.8994C137.07 47.4089 137.363 48.0997 137.364 48.8203V62.3306C137.363 63.0512 137.07 63.742 136.55 64.2515C136.03 64.761 135.325 65.0476 134.589 65.0484Z" fill="#4B7BE5"/>
<path d="M201.377 63.5333H158.28C157.603 63.5333 156.954 63.2938 156.475 62.8674C155.996 62.4411 155.727 61.8628 155.727 61.2598C155.727 60.6569 155.996 60.0786 156.475 59.6522C156.954 59.2259 157.603 58.9863 158.28 58.9863H201.377C202.055 58.9863 202.704 59.2259 203.183 59.6522C203.662 60.0786 203.931 60.6569 203.931 61.2598C203.931 61.8628 203.662 62.4411 203.183 62.8674C202.704 63.2938 202.055 63.5333 201.377 63.5333Z" fill="#CCCCCC"/>
<path d="M183.755 52.924H158.304C157.62 52.924 156.965 52.6445 156.481 52.1471C155.998 51.6497 155.727 50.975 155.727 50.2716C155.727 49.5681 155.998 48.8934 156.481 48.396C156.965 47.8986 157.62 47.6191 158.304 47.6191H183.755C184.439 47.6191 185.094 47.8986 185.578 48.396C186.061 48.8934 186.333 49.5681 186.333 50.2716C186.333 50.975 186.061 51.6497 185.578 52.1471C185.094 52.6445 184.439 52.924 183.755 52.924Z" fill="#CCCCCC"/>
<path d="M152.924 105.097C152.924 107.224 154.65 108.955 156.77 108.955C158.89 108.955 160.616 107.224 160.616 105.097C160.616 102.97 158.89 101.239 156.77 101.239C154.65 101.239 152.924 102.97 152.924 105.097ZM159.758 105.097C159.758 106.751 158.418 108.095 156.77 108.095C155.121 108.095 153.782 106.751 153.782 105.097C153.782 103.443 155.121 102.099 156.77 102.099C158.418 102.099 159.758 103.445 159.758 105.097Z" fill="#4B7BE5"/>
<path d="M198 31.6171L201.445 33.3207L201.995 37.1377L204.677 34.3757L208.463 35.0279L206.675 31.6188L208.463 28.208L204.675 28.8585L201.994 26.0999L201.443 29.9099L198 31.6171ZM204.376 29.7809L206.895 29.3489L205.708 31.6171L206.895 33.8835L204.376 33.4498L202.594 35.286L202.227 32.7494L199.935 31.6171L202.227 30.4813L202.594 27.9464L204.376 29.7809Z" fill="#4B7BE5"/>
<path d="M124.963 3.80932L126.198 1.45512L123.584 1.90428L121.733 0.000964522L121.351 2.63221L118.975 3.81104L121.351 4.98985L121.733 7.62109L123.584 5.71779L126.198 6.16693L124.963 3.80932ZM122.332 5.77114L122.135 4.41679L120.911 3.80932L122.135 3.20183L122.332 1.8475L123.286 2.82669L124.631 2.59608L123.996 3.8076L124.631 5.0191L123.286 4.78851L122.332 5.77114Z" fill="black"/>
<path d="M71 25.7057L75.7639 27.258L75.7639 32.2812L78.7094 28.2199L83.4698 29.7705L80.526 25.7057L83.4698 21.6427L78.7094 23.1932L75.7639 19.1319L75.7639 24.1552L71 25.7057ZM78.3817 24.2051L81.226 23.2792L79.4693 25.7057L81.226 28.1339L78.3817 27.2081L76.6233 29.6362L76.6233 26.6333L73.7791 25.7057L76.6233 24.7799L76.6233 21.7769L78.3817 24.2051Z" fill="#4B7BE5"/>
<path d="M26.6922 21.0002C26.6922 18.8731 24.9664 17.1419 22.8461 17.1419C20.7258 17.1419 19 18.8731 19 21.0002C19 23.1272 20.7258 24.8584 22.8461 24.8584C24.9664 24.8584 26.6922 23.1272 26.6922 21.0002ZM19.8577 21.0002C19.8577 19.3464 21.1975 18.0023 22.8461 18.0023C24.4947 18.0023 25.8345 19.3464 25.8345 21.0002C25.8345 22.6539 24.4947 23.998 22.8461 23.998C21.1975 23.998 19.8577 22.6539 19.8577 21.0002Z" fill="black"/>
<path opacity="0.5" d="M22.6392 157.823L23.2704 157.81C23.0263 150.824 22.2774 143.864 21.0295 136.985C18.2998 122.256 13.7607 112.583 7.53827 108.234L7.17578 108.749C21.7114 118.907 22.6318 157.435 22.6392 157.823Z" fill="#212121"/>
<path opacity="0.5" d="M14.7486 157.672L15.3799 157.659C15.3663 156.964 14.9718 140.564 8.48553 136.031L8.12305 136.545C14.3476 140.895 14.7455 157.505 14.7486 157.672Z" fill="#212121"/>
<path d="M3.58409 108.806C5.3273 108.806 6.74045 107.399 6.74045 105.664C6.74045 103.929 5.3273 102.522 3.58409 102.522C1.84088 102.522 0.427734 103.929 0.427734 105.664C0.427734 107.399 1.84088 108.806 3.58409 108.806Z" fill="#4B7BE5"/>
<path d="M5.14854 135.824C6.89175 135.824 8.3049 134.418 8.3049 132.683C8.3049 130.948 6.89175 129.541 5.14854 129.541C3.40534 129.541 1.99219 130.948 1.99219 132.683C1.99219 134.418 3.40534 135.824 5.14854 135.824Z" fill="#4B7BE5"/>
<path opacity="0.2" d="M16.2215 110.69C15.6283 114.461 17.1744 117.834 17.1744 117.834C17.1744 117.834 19.6822 115.093 20.2754 111.321C20.8685 107.55 19.3225 104.177 19.3225 104.177C19.3225 104.177 16.8147 106.918 16.2215 110.69Z" fill="#212121"/>
<path opacity="0.2" d="M5.90268 119.849C9.53028 121.087 13.1367 120.159 13.1367 120.159C13.1367 120.159 10.8616 117.224 7.234 115.985C3.60641 114.747 0 115.674 0 115.674C0 115.674 2.27509 118.61 5.90268 119.849Z" fill="#212121"/>
<path opacity="0.2" d="M5.78572 143.777C7.42754 144.29 9.176 144.365 10.8562 143.995C9.78934 142.643 8.35255 141.627 6.71887 141.069C5.0852 140.511 3.32434 140.436 1.64844 140.851C2.74637 142.17 4.17304 143.179 5.78572 143.777Z" fill="#212121"/>
</svg>
