<svg width="16" height="16" viewBox="0 0 16 16" fill="none" xmlns="http://www.w3.org/2000/svg">
<path d="M14.944 0.000661592H8.89629C8.75748 -0.00458691 8.61926 0.0214464 8.49187 0.0768352C8.36447 0.132224 8.25116 0.21555 8.16032 0.320648L0.320648 8.16032C0.125316 8.35674 0.0110789 8.61948 0.000661592 8.89629C-0.00458691 9.03511 0.0214464 9.17333 0.0768352 9.30072C0.132224 9.42812 0.21555 9.54142 0.320648 9.63226L6.3364 15.68C6.54164 15.8816 6.81673 15.9962 7.10437 16C7.24211 15.998 7.37808 15.9687 7.50441 15.9137C7.63074 15.8588 7.74492 15.7794 7.84034 15.68L15.68 7.84034C15.8753 7.64392 15.9896 7.38118 16 7.10437V1.05662C15.9975 0.777324 15.8855 0.510169 15.688 0.312671C15.4905 0.115174 15.2233 0.00312916 14.944 0.000661592ZM7.20036 13.4721C7.17149 13.5025 7.13675 13.5266 7.09824 13.5432C7.05974 13.5597 7.01827 13.5682 6.97637 13.5682C6.93447 13.5682 6.89301 13.5597 6.8545 13.5432C6.816 13.5266 6.78125 13.5025 6.75238 13.4721L2.52856 9.24828C2.49698 9.21937 2.47159 9.18436 2.45391 9.14537C2.43623 9.10637 2.42662 9.0642 2.42568 9.0214C2.42474 8.9786 2.43248 8.93605 2.44842 8.89631C2.46437 8.85658 2.4882 8.82049 2.51848 8.79022C2.54875 8.75994 2.58484 8.73611 2.62457 8.72017C2.66431 8.70422 2.70686 8.69648 2.74966 8.69742C2.79246 8.69836 2.83463 8.70797 2.87363 8.72565C2.91262 8.74333 2.94763 8.76872 2.97654 8.8003L7.20036 13.0241C7.23073 13.053 7.25491 13.0877 7.27143 13.1262C7.28795 13.1648 7.29647 13.2062 7.29647 13.2481C7.29647 13.29 7.28795 13.3315 7.27143 13.37C7.25491 13.4085 7.23073 13.4432 7.20036 13.4721ZM8.38431 12.3202C8.35544 12.3505 8.3207 12.3747 8.28219 12.3912C8.24369 12.4077 8.20222 12.4163 8.16032 12.4163C8.11842 12.4163 8.07696 12.4077 8.03846 12.3912C7.99995 12.3747 7.96521 12.3505 7.93633 12.3202L3.68051 8.06433C3.62535 8.00409 3.59557 7.92488 3.59736 7.84322C3.59916 7.76157 3.6324 7.68375 3.69016 7.62599C3.74791 7.56824 3.82573 7.535 3.90739 7.5332C3.98905 7.5314 4.06825 7.56119 4.12849 7.61635L8.35232 11.8402C8.38807 11.8681 8.41752 11.9033 8.43875 11.9435C8.45999 11.9836 8.47252 12.0277 8.47554 12.073C8.47856 12.1183 8.472 12.1637 8.45628 12.2063C8.44056 12.2489 8.41604 12.2877 8.38431 12.3202ZM9.53627 11.1682C9.50739 11.1986 9.47265 11.2227 9.43414 11.2393C9.39564 11.2558 9.35418 11.2643 9.31228 11.2643C9.27038 11.2643 9.22891 11.2558 9.19041 11.2393C9.1519 11.2227 9.11716 11.1986 9.08829 11.1682L4.83246 6.90947C4.80088 6.88055 4.77549 6.84555 4.75781 6.80655C4.74013 6.76756 4.73053 6.72539 4.72959 6.68259C4.72864 6.63979 4.73638 6.59723 4.75233 6.5575C4.76828 6.51777 4.79211 6.48168 4.82238 6.4514C4.85265 6.42113 4.88875 6.3973 4.92848 6.38135C4.96821 6.36541 5.01076 6.35767 5.05356 6.35861C5.09637 6.35955 5.13854 6.36915 5.17753 6.38683C5.21652 6.40451 5.25153 6.42991 5.28044 6.46149L9.50427 10.6911C9.53965 10.719 9.56879 10.754 9.5898 10.7939C9.61081 10.8338 9.62323 10.8776 9.62624 10.9226C9.62926 10.9675 9.62281 11.0126 9.60731 11.0549C9.59181 11.0972 9.56761 11.1358 9.53627 11.1682ZM10.6911 9.98425C10.6623 10.0146 10.6275 10.0388 10.589 10.0553C10.5505 10.0718 10.509 10.0804 10.4671 10.0804C10.4252 10.0804 10.3838 10.0718 10.3453 10.0553C10.3068 10.0388 10.272 10.0146 10.2431 9.98425L6.01641 5.76042C5.98484 5.73151 5.95944 5.6965 5.94176 5.65751C5.92408 5.61852 5.91448 5.57635 5.91354 5.53354C5.9126 5.49074 5.92033 5.44819 5.93628 5.40846C5.95223 5.36873 5.97606 5.33263 6.00633 5.30236C6.0366 5.27209 6.0727 5.24826 6.11243 5.23231C6.15216 5.21636 6.19471 5.20862 6.23752 5.20957C6.28032 5.21051 6.32249 5.22011 6.36148 5.23779C6.40047 5.25547 6.43548 5.28087 6.46439 5.31244L10.6911 9.53627C10.7215 9.56514 10.7457 9.59988 10.7622 9.63839C10.7787 9.6769 10.7872 9.71836 10.7872 9.76026C10.7872 9.80216 10.7787 9.84362 10.7622 9.88213C10.7457 9.92063 10.7215 9.95538 10.6911 9.98425ZM11.8751 8.8323C11.8462 8.86266 11.8115 8.88684 11.773 8.90336C11.7345 8.91988 11.693 8.9284 11.6511 8.9284C11.6092 8.9284 11.5677 8.91988 11.5292 8.90336C11.4907 8.88684 11.456 8.86266 11.4271 8.8323L7.17127 4.60847C7.1397 4.57956 7.1143 4.54455 7.09662 4.50556C7.07894 4.46657 7.06934 4.4244 7.0684 4.38159C7.06746 4.33879 7.07519 4.29624 7.09114 4.25651C7.10709 4.21677 7.13092 4.18068 7.16119 4.15041C7.19147 4.12013 7.22756 4.0963 7.26729 4.08036C7.30702 4.06441 7.34957 4.05667 7.39238 4.05761C7.43518 4.05856 7.47735 4.06816 7.51634 4.08584C7.55533 4.10352 7.59034 4.12891 7.61926 4.16049L11.8431 8.38431C11.901 8.44298 11.9359 8.52058 11.9412 8.60288C11.9466 8.68517 11.9221 8.76663 11.8722 8.8323H11.8751ZM13.219 4.54156C13.1011 4.65751 12.9609 4.74844 12.8069 4.80892C12.653 4.86941 12.4884 4.89819 12.3231 4.89355C11.9918 4.88799 11.6736 4.763 11.4271 4.54156C11.3124 4.42268 11.2223 4.28236 11.1619 4.12862C11.1015 3.97488 11.072 3.81075 11.0751 3.6456C11.0807 3.3143 11.2057 2.99614 11.4271 2.74964C11.6007 2.57403 11.823 2.4546 12.0652 2.40682C12.3075 2.35904 12.5585 2.38511 12.7858 2.48166C13.013 2.5782 13.206 2.74077 13.3398 2.9483C13.4736 3.15583 13.542 3.39876 13.5361 3.6456C13.545 3.80916 13.5212 3.97284 13.4663 4.12715C13.4114 4.28146 13.3263 4.42331 13.2161 4.54447L13.219 4.54156Z" fill="#34B751"/>
</svg>