<svg width="11" height="13" viewBox="0 0 11 13" fill="none" xmlns="http://www.w3.org/2000/svg">
<path d="M3.0283 1.19155C3.03406 1.09555 3.0597 1.00164 3.10372 0.915385C3.14774 0.829134 3.20924 0.7523 3.28457 0.68944C3.3599 0.626579 3.44752 0.578971 3.54225 0.549439C3.63698 0.519906 3.73688 0.50905 3.83603 0.517515H7.16234C7.26158 0.508883 7.36161 0.519614 7.45648 0.549071C7.55135 0.578527 7.63913 0.626107 7.71459 0.688984C7.79006 0.75186 7.85166 0.828751 7.89576 0.915086C7.93986 1.00142 7.96554 1.09544 7.97129 1.19155V1.92998H8.57051V1.19155C8.56005 1.02379 8.51518 0.859701 8.43848 0.708844C8.36179 0.557986 8.25481 0.423368 8.12378 0.312821C7.99274 0.202273 7.84026 0.118003 7.6752 0.0649112C7.51015 0.0118199 7.33581 -0.00903234 7.16234 0.00356745H3.83603C3.6627 -0.00878666 3.48856 0.0122486 3.32372 0.065452C3.15888 0.118655 3.00662 0.202967 2.87578 0.313491C2.74494 0.424015 2.63813 0.55855 2.56155 0.709283C2.48498 0.860017 2.44015 1.02395 2.42969 1.19155V1.92998H3.02891L3.0283 1.19155Z" fill="#FF4545"/>
<path d="M2.09758 13.0003H8.90243C9.05759 12.9991 9.21095 12.9681 9.35361 12.9091C9.49627 12.8502 9.62539 12.7645 9.73348 12.6569C9.84156 12.5494 9.92645 12.4221 9.98322 12.2826C10.04 12.1431 10.0675 11.9941 10.0642 11.8442V3.91406H0.935816V11.8442C0.932491 11.9941 0.960013 12.1431 1.01679 12.2826C1.07356 12.4221 1.15845 12.5494 1.26653 12.6569C1.37462 12.7645 1.50374 12.8502 1.6464 12.9091C1.78906 12.9681 1.94242 12.9991 2.09758 13.0003ZM7.33222 5.1434C7.338 5.07352 7.37082 5.0083 7.42413 4.96075C7.47745 4.91319 7.54735 4.88678 7.61991 4.88678C7.69247 4.88678 7.76238 4.91319 7.81569 4.96075C7.86901 5.0083 7.90182 5.07352 7.9076 5.1434V11.2115C7.90182 11.2814 7.86901 11.3466 7.81569 11.3942C7.76238 11.4417 7.69247 11.4681 7.61991 11.4681C7.54735 11.4681 7.47745 11.4417 7.42413 11.3942C7.37082 11.3466 7.338 11.2814 7.33222 11.2115V5.1434ZM5.21109 5.1434C5.21688 5.07352 5.24969 5.0083 5.303 4.96075C5.35632 4.91319 5.42622 4.88678 5.49878 4.88678C5.57134 4.88678 5.64125 4.91319 5.69456 4.96075C5.74787 5.0083 5.78069 5.07352 5.78647 5.1434V11.2115C5.78069 11.2814 5.74787 11.3466 5.69456 11.3942C5.64125 11.4417 5.57134 11.4681 5.49878 11.4681C5.42622 11.4681 5.35632 11.4417 5.303 11.3942C5.24969 11.3466 5.21688 11.2814 5.21109 11.2115V5.1434ZM3.08996 5.1434C3.09574 5.07352 3.12856 5.0083 3.18187 4.96075C3.23519 4.91319 3.30509 4.88678 3.37765 4.88678C3.45022 4.88678 3.52011 4.91319 3.57343 4.96075C3.62674 5.0083 3.65956 5.07352 3.66534 5.1434V11.2115C3.65956 11.2814 3.62674 11.3466 3.57343 11.3942C3.52011 11.4417 3.45022 11.4681 3.37765 11.4681C3.30509 11.4681 3.23519 11.4417 3.18187 11.3942C3.12856 11.3466 3.09574 11.2814 3.08996 11.2115V5.1434Z" fill="#FF4545"/>
<path d="M0.706209 3.45831H10.2938C10.3845 3.46363 10.4753 3.45097 10.5607 3.4211C10.6461 3.39123 10.7243 3.34479 10.7905 3.28464C10.8566 3.22449 10.9093 3.15191 10.9454 3.07134C10.9814 2.99077 11 2.90394 11 2.81617C11 2.72841 10.9814 2.64157 10.9454 2.56101C10.9093 2.48044 10.8566 2.40785 10.7905 2.3477C10.7243 2.28755 10.6461 2.24111 10.5607 2.21125C10.4753 2.18138 10.3845 2.16872 10.2938 2.17403H0.706209C0.615535 2.16872 0.524694 2.18138 0.439275 2.21125C0.353855 2.24111 0.275665 2.28755 0.209514 2.3477C0.143362 2.40785 0.0906496 2.48044 0.0546185 2.56101C0.0185873 2.64157 0 2.72841 0 2.81617C0 2.90394 0.0185873 2.99077 0.0546185 3.07134C0.0906496 3.15191 0.143362 3.22449 0.209514 3.28464C0.275665 3.34479 0.353855 3.39123 0.439275 3.4211C0.524694 3.45097 0.615535 3.46363 0.706209 3.45831Z" fill="#FF4545"/>
</svg>