<svg width="42" height="42" viewBox="0 0 42 42" fill="none" xmlns="http://www.w3.org/2000/svg">
<path d="M7.875 32.6172C6.43125 32.6172 5.25 33.7984 5.25 35.2422C5.25 35.4391 6.16875 35.9641 7.875 35.9641C9.58125 35.9641 10.5 35.4391 10.5 35.2422C10.5 33.7984 9.31875 32.6172 7.875 32.6172Z" fill="#4B7BE5"/>
<path d="M7.875 17.5234C8.41866 17.5234 8.85938 17.0827 8.85938 16.5391C8.85938 15.9954 8.41866 15.5547 7.875 15.5547C7.33134 15.5547 6.89062 15.9954 6.89062 16.5391C6.89062 17.0827 7.33134 17.5234 7.875 17.5234Z" fill="#4B7BE5"/>
<path d="M6.96094 0.390625L0.398438 6.95312H6.96094V0.390625Z" fill="#060B29"/>
<path d="M7.875 31.3047C8.41866 31.3047 8.85938 30.864 8.85938 30.3203C8.85938 29.7767 8.41866 29.3359 7.875 29.3359C7.33134 29.3359 6.89062 29.7767 6.89062 30.3203C6.89062 30.864 7.33134 31.3047 7.875 31.3047Z" fill="#4B7BE5"/>
<path d="M7.875 18.8359C6.43125 18.8359 5.25 20.0172 5.25 21.4609C5.25 21.6578 6.16875 22.1828 7.875 22.1828C9.58125 22.1828 10.5 21.6578 10.5 21.4609C10.5 20.0172 9.31875 18.8359 7.875 18.8359Z" fill="#4B7BE5"/>
<path d="M14.5687 11.7469L10.6312 9.12187C10.1062 8.79375 9.77812 8.1375 9.77812 7.48125C9.77812 6.825 10.1062 6.23438 10.6312 5.84062L14.5687 3.21563C14.8969 3.01875 15.2906 2.8875 15.6844 2.8875H32.3531V1.96875C32.3531 0.853125 31.5 0 30.3844 0H8.26875V7.6125C8.26875 8.00625 8.00625 8.26875 7.6125 8.26875H0V40.0312C0 41.1469 0.91875 42 1.96875 42H30.3844C31.5 42 32.3531 41.1469 32.3531 40.0312V12.075H15.6844C15.2906 12.075 14.8969 11.9437 14.5687 11.7469ZM7.875 37.275C6.95625 37.275 6.0375 37.1437 5.38125 36.8813C4.13437 36.4219 3.9375 35.6344 3.9375 35.2406C3.9375 33.7313 4.79062 32.4188 6.10312 31.7625C5.775 31.3688 5.57812 30.8438 5.57812 30.3188C5.57812 29.0719 6.62812 28.0219 7.875 28.0219C9.12187 28.0219 10.1719 29.0719 10.1719 30.3188C10.1719 30.8438 9.975 31.3688 9.64687 31.7625C10.8937 32.4188 11.8125 33.7313 11.8125 35.2406C11.8125 36.75 9.7125 37.275 7.875 37.275ZM7.875 23.4937C6.95625 23.4937 6.0375 23.3625 5.38125 23.1C4.13437 22.6406 3.9375 21.8531 3.9375 21.4594C3.9375 19.95 4.79062 18.6375 6.10312 17.9812C5.775 17.5875 5.57812 17.0625 5.57812 16.5375C5.57812 15.2906 6.62812 14.2406 7.875 14.2406C9.12187 14.2406 10.1719 15.2906 10.1719 16.5375C10.1719 17.0625 9.975 17.5875 9.64687 17.9812C10.8937 18.6375 11.8125 19.95 11.8125 21.4594C11.8125 22.9688 9.7125 23.4937 7.875 23.4937ZM27.1687 35.2406H14.8312C14.5031 35.2406 14.175 34.9125 14.175 34.5844C14.175 34.1906 14.5031 33.9281 14.8312 33.9281H27.1687C27.4969 33.9281 27.825 34.1906 27.825 34.5844C27.825 34.9781 27.4969 35.2406 27.1687 35.2406ZM14.175 30.6469C14.175 30.2531 14.5031 29.9906 14.8312 29.9906H20.9344C21.3281 29.9906 21.5906 30.2531 21.5906 30.6469C21.5906 30.975 21.3281 31.3031 20.9344 31.3031H14.8312C14.5031 31.3031 14.175 31.0406 14.175 30.6469ZM27.825 20.8031C27.825 21.1313 27.4969 21.4594 27.1687 21.4594H14.8312C14.5031 21.4594 14.175 21.1313 14.175 20.8031C14.175 20.4094 14.5031 20.1469 14.8312 20.1469H27.1687C27.4969 20.1469 27.825 20.4094 27.825 20.8031ZM21.5906 16.8656C21.5906 17.1938 21.3281 17.5219 20.9344 17.5219H14.8312C14.5031 17.5219 14.175 17.1938 14.175 16.8656C14.175 16.4719 14.5031 16.2094 14.8312 16.2094H20.9344C21.3281 16.2094 21.5906 16.4719 21.5906 16.8656Z" fill="#060B29"/>
<path d="M40.6891 4.20312H38.5234V10.7656H40.6891C41.4109 10.7656 42.0016 10.1094 42.0016 9.3875V5.58125C42.0016 4.85937 41.4109 4.20312 40.6891 4.20312Z" fill="#060B29"/>
<path d="M37.2047 4.20312H16.3359V10.7656H37.2047V4.20312Z" fill="#060B29"/>
<path d="M11.0859 7.48437C11.0859 7.68125 11.2172 7.87812 11.4141 8.00937L15.0234 10.4375V4.53125L11.4141 6.95938C11.2172 7.09063 11.0859 7.2875 11.0859 7.48437Z" fill="#4B7BE5"/>
</svg>
