<svg width="54" height="42" viewBox="0 0 54 42" fill="none" xmlns="http://www.w3.org/2000/svg">
<path d="M50.6248 9H3.37499C1.51537 9 0 10.347 0 12.0001V39.0009C0 40.657 1.51537 42.001 3.37499 42.001H50.6248C52.4878 42.001 53.9998 40.657 53.9998 39.0009V12.0001C53.9998 10.347 52.4878 9 50.6248 9Z" fill="#060B29"/>
<path d="M53.9998 15H0V24.0003H53.9998V15Z" fill="#4B7BE5"/>
<path d="M15.1875 33.0001H8.43749C7.506 33.0001 6.75 32.3281 6.75 31.5C6.75 30.672 7.506 30 8.43749 30H15.1875C16.119 30 16.875 30.672 16.875 31.5C16.875 32.3281 16.119 33.0001 15.1875 33.0001Z" fill="#EDEDFF"/>
<path d="M53.9999 23.8384V12.0001C53.9999 10.347 52.4879 9 50.6249 9H23.625V12.0001C23.625 21.3964 27.648 27.1175 37.9889 32.4097C38.7517 32.7967 39.6224 33.0007 40.4999 33.0007C41.3774 33.0007 42.2482 32.7967 43.0211 32.4037C48.1375 29.7906 51.7015 27.0635 53.9999 23.8384Z" fill="#EDEDFF"/>
<path d="M52.9773 4.62164L41.1648 0.121504C40.7362 -0.0405012 40.2603 -0.0405012 39.8317 0.121504L28.0192 4.62164C27.4016 4.85565 27 5.39866 27 5.99868V11.9989C27 20.2521 30.4324 25.0763 39.6596 29.8014C39.9195 29.9334 40.2097 29.9994 40.5 29.9994C40.7902 29.9994 41.0805 29.9334 41.3403 29.8014C50.5675 25.0883 53.9999 20.2641 53.9999 11.9989V5.99868C53.9999 5.39866 53.5983 4.85565 52.9773 4.62164Z" fill="#4B7BE5"/>
<path d="M38.8083 19.4937C38.7847 19.4937 38.7577 19.4937 38.7374 19.4937C38.2008 19.4727 37.7047 19.2267 37.4043 18.8277L34.0293 14.3275C33.5129 13.6375 33.7222 12.7075 34.4984 12.2485C35.2679 11.7924 36.3175 11.9725 36.8373 12.6655L38.9331 15.4586L44.2386 9.56038C44.8225 8.91536 45.8856 8.81336 46.6113 9.32637C47.3402 9.84539 47.455 10.7874 46.8745 11.4354L40.1245 18.9357C39.8039 19.2867 39.3179 19.4937 38.8083 19.4937Z" fill="#EDEDFF"/>
</svg>
