<svg width="280" height="260" viewBox="0 0 280 260" fill="none" xmlns="http://www.w3.org/2000/svg">
    <path d="M63.3221 15.9376C41.3678 29.7513 25.8188 54.5654 28.2503 77.9552C30.7362 101.291 51.2092 123.25 58.2414 150.928C65.2737 178.607 58.9293 212.098 70.6743 229.134C82.3617 246.229 112.266 246.968 136.633 239.453C161.07 231.992 180.007 216.278 201.059 202.201C222.111 188.176 245.24 175.742 250.679 157.803C256.118 139.918 243.854 116.516 230.523 99.0693C217.245 81.5526 202.806 70.0177 187.891 53.8804C172.975 37.7432 157.528 17.0514 135.628 8.11224C113.677 -0.833358 85.2699 2.07596 63.3221 15.9376Z"
          fill="#4B7BE5" fill-opacity="0.5"/>
    <path d="M188.561 7H106.001C100.66 7 95.5379 9.02983 91.7614 12.6429C87.9849 16.2561 85.8633 21.1565 85.8633 26.2662V228.251C85.8633 233.361 87.9849 238.261 91.7614 241.874C95.5379 245.488 100.66 247.517 106.001 247.517H188.561C193.902 247.517 199.024 245.488 202.801 241.874C206.577 238.261 208.699 233.361 208.699 228.251V26.2662C208.699 21.1565 206.577 16.2561 202.801 12.6429C199.024 9.02983 193.902 7 188.561 7Z"
          stroke="#780000" stroke-width="1.5" stroke-miterlimit="10"/>
    <path d="M163.344 219.668L180.311 239.611H149.264C148.325 232.165 148.047 214.079 148.032 208.377C150.439 210.012 153.881 212.539 156.91 214.802C158.682 216.126 160.307 217.355 161.488 218.253C162.079 218.702 162.559 219.068 162.891 219.322C163.057 219.449 163.186 219.547 163.274 219.614L163.344 219.668Z"
          fill="#4B7BE5" stroke="#7D1700" stroke-width="1.5"/>
    <path d="M190.701 211.124C195.157 210.882 198.942 210.504 201.301 210.005V228.712C201.299 228.728 201.296 228.748 201.292 228.77C201.282 228.842 201.266 228.946 201.244 229.076C201.2 229.338 201.134 229.701 201.044 230.108C200.861 230.941 200.596 231.886 200.258 232.529C199.61 233.762 198.973 234.347 197.957 235.279C197.795 235.429 197.623 235.587 197.439 235.758C197.392 235.802 197.345 235.845 197.3 235.888C196.081 237.025 195.396 237.664 193.961 238.377C193.056 238.826 191.746 239.14 190.61 239.341C190.052 239.44 189.554 239.508 189.196 239.552C189.017 239.574 188.874 239.589 188.776 239.6C188.754 239.602 188.735 239.604 188.717 239.606C188.696 239.608 188.679 239.609 188.665 239.611L188.661 239.611H169.653C162.731 232.519 157.33 224.426 153.646 218.028C151.786 214.797 150.367 212.004 149.415 210C149.177 209.499 148.968 209.048 148.789 208.651C149.338 208.861 149.95 209.051 150.606 209.224C152.292 209.67 154.396 210.038 156.772 210.338C161.527 210.938 167.444 211.274 173.447 211.39C179.452 211.507 185.56 211.404 190.701 211.124Z"
          fill="#4B7BE5" stroke="#7D1700" stroke-width="1.5"/>
    <path d="M138.031 145.781C137.136 146.722 137.131 148.533 137.131 148.533C136.03 145.375 111.895 87.9287 111.895 87.9287C111.895 87.9287 106.898 89.956 112.657 100.812C110.794 101.866 105.595 105.843 107.741 112.237C109.358 117.044 112.903 118.719 115.115 118.719C114.734 122.329 122.792 159.083 123.837 160.85C126.295 165.003 131.039 169.551 133.83 169.681C137.025 169.834 143.559 167.016 148.021 164.319"
          stroke="#780000" stroke-width="1.5" stroke-linecap="round" stroke-linejoin="round"/>
    <path d="M162.883 122.98C150.735 125.144 135.327 138.811 135.73 141.76C136.107 144.542 143.663 152.578 149.422 156.402"
          stroke="#780000" stroke-width="1.5" stroke-miterlimit="10" stroke-linecap="round"/>
    <path d="M170.5 116.504C144.444 130.561 143.952 202.581 147.285 206.981C150.55 211.309 189.517 212.442 202.051 209.444"
          stroke="#780000" stroke-width="1.5" stroke-miterlimit="10" stroke-linecap="round"/>
    <path d="M201.096 125.074C197.519 120.093 192.812 116.469 186.703 114.949" stroke="#780000" stroke-width="1.5"
          stroke-miterlimit="10" stroke-linecap="round"/>
    <path d="M198 163C198.659 165.702 200.011 170.761 201.363 175.563" stroke="#780000" stroke-width="1.5"
          stroke-miterlimit="10" stroke-linecap="round"/>
    <path d="M191.105 156.398C192.374 159.897 193.765 162.32 194.768 162.63C195.997 163.009 198.792 162.63 202.052 161.8"
          stroke="#780000" stroke-width="1.5" stroke-miterlimit="10" stroke-linecap="round"/>
    <path d="M202.052 125.693C199.896 124.178 197.718 123.435 195.648 123.896" stroke="#780000" stroke-width="1.5"
          stroke-miterlimit="10" stroke-linecap="round"/>
    <path d="M170.5 116.504V112.463" stroke="#780000" stroke-width="1.5" stroke-miterlimit="10" stroke-linecap="round"/>
    <path d="M186.701 105.053V121.838C186.701 123.197 182.884 124.037 178.953 124.154" stroke="#780000"
          stroke-width="1.5" stroke-miterlimit="10" stroke-linecap="round"/>
    <path d="M186.631 105.053C188.106 105.827 190.333 105.001 191.751 103.106C193.248 101.104 193.278 98.6724 191.818 97.6705C191.437 97.415 190.987 97.269 190.522 97.2495"
          stroke="#780000" stroke-width="1.5" stroke-miterlimit="10" stroke-linecap="round"/>
    <path d="M163.351 87.9927C163.103 88.496 162.87 89.011 162.65 89.5378C158.687 99.1263 161.522 109.185 168.98 112.005C169.478 112.194 169.99 112.347 170.511 112.464"
          stroke="#780000" stroke-width="1.5" stroke-miterlimit="10" stroke-linecap="round"/>
    <path d="M193.93 99.4012C196.946 98.538 200.734 96.4802 200.734 92.3457C200.734 89.7586 198.21 86.9129 197.73 83.6603C197.484 82.014 198.02 75.1585 196.009 72.8419C191.831 68.0371 189.372 69.0202 186.177 67.903C180.611 65.9557 178.48 62.729 173.886 62.729C168.67 62.729 166.558 65.316 162.824 65.316C158.554 65.316 155.051 63.4346 149.058 63.4346C145.863 63.4346 141.684 67.4327 141.684 70.9604C141.684 79.3 149.796 78.1053 149.796 80.1326C149.796 81.5437 149.304 82.6632 149.304 84.6011C149.304 85.6288 150.681 87.134 150.681 87.134C152.67 87.9783 159.884 89.1603 164.824 87.134C166.564 81.5329 170 81.3775 171.5 81.9999C174.607 82.4226 181.558 84.0412 184.5 87.134C187.441 90.2268 187.059 96.6008 186.5 99.4012L190 97.4999"
          stroke="#780000" stroke-width="1.5" stroke-miterlimit="10" stroke-linecap="round"/>
    <path d="M119.235 55H104.765C100.476 55 97 58.3604 97 62.5058V76.4943C97 80.6396 100.476 84 104.765 84H119.235C123.524 84 127 80.6396 127 76.4943V62.5058C127 58.3604 123.524 55 119.235 55Z"
          fill="#4B7BE5"/>
    <path d="M107.001 76.4998C107.921 76.4998 108.667 75.7536 108.667 74.8332C108.667 73.9127 107.921 73.1665 107.001 73.1665C106.08 73.1665 105.334 73.9127 105.334 74.8332C105.334 75.7536 106.08 76.4998 107.001 76.4998Z"
          stroke="#7D1700" stroke-width="1.5" stroke-linecap="round" stroke-linejoin="round"/>
    <path d="M116.167 76.4998C117.087 76.4998 117.833 75.7536 117.833 74.8332C117.833 73.9127 117.087 73.1665 116.167 73.1665C115.246 73.1665 114.5 73.9127 114.5 74.8332C114.5 75.7536 115.246 76.4998 116.167 76.4998Z"
          stroke="#7D1700" stroke-width="1.5" stroke-linecap="round" stroke-linejoin="round"/>
    <path d="M116.167 73.1667H107.001V61.5H105.334" stroke="#7D1700" stroke-width="1.5" stroke-linecap="round"
          stroke-linejoin="round"/>
    <path d="M107 63.1665L118.667 63.9998L117.833 69.8332H107" fill="#780000"/>
    <path d="M107 63.1665L118.667 63.9998L117.833 69.8332H107" stroke="#7D1700" stroke-width="1.5"
          stroke-linecap="round" stroke-linejoin="round"/>
    <path d="M124.5 61C126.433 61 128 59.433 128 57.5C128 55.567 126.433 54 124.5 54C122.567 54 121 55.567 121 57.5C121 59.433 122.567 61 124.5 61Z"
          fill="white"/>
    <path d="M74.9054 256.099H74.9052H53.165H53.1642C52.82 256.099 52.4875 255.996 52.2142 255.807C51.9413 255.618 51.7434 255.356 51.6421 255.062L51.642 255.062L40.8265 223.709C40.8264 223.708 40.8263 223.708 40.8263 223.708C40.7505 223.486 40.731 223.252 40.7686 223.023C40.8063 222.794 40.9007 222.573 41.0467 222.381C41.1928 222.189 41.3869 222.029 41.6151 221.918C41.8434 221.808 42.0978 221.749 42.3569 221.75V221.75H42.3588H85.812C85.8121 221.75 85.8121 221.75 85.8121 221.75C86.0714 221.75 86.3258 221.809 86.5538 221.921C86.7818 222.032 86.9755 222.193 87.121 222.386L87.7165 221.937L87.121 222.386C87.2664 222.578 87.36 222.799 87.3967 223.029C87.4334 223.258 87.4128 223.493 87.3357 223.715L76.4267 255.066C76.4266 255.066 76.4266 255.066 76.4266 255.066C76.3242 255.359 76.1259 255.62 75.8535 255.808C75.5805 255.996 75.2488 256.099 74.9054 256.099Z"
          fill="#4B7BE5" stroke="#4B7BE5" stroke-width="1.5"/>
    <path d="M74.5742 221.5C78.5216 216.493 82.2159 207.103 84.0611 199.104C83.8955 199.121 83.7291 199.13 83.5625 199.13C82.4299 199.135 81.3332 198.733 80.4726 197.996C79.612 197.26 79.0447 196.239 78.8744 195.119C78.704 193.999 78.9418 192.855 79.5445 191.896C80.1472 190.937 83.4691 187.832 84.5519 187.5"
          stroke="#4B7BE5" stroke-width="1.5" stroke-linecap="round" stroke-linejoin="round"/>
    <path d="M85 187.284C84.2011 183.318 81.5626 178.515 74.6273 178.515C69.9339 178.515 66.8837 185.245 66.1282 191.022C65.5031 195.797 60.9551 203.663 60.9551 210.053C60.9624 214.159 62.2519 218.161 64.6437 221.5"
          stroke="#4B7BE5" stroke-width="1.5" stroke-linecap="round" stroke-linejoin="round"/>
    <path d="M68.3464 221.5C68.0045 216.759 68.0178 204.657 73.478 195.181" stroke="#4B7BE5" stroke-linecap="round"
          stroke-linejoin="round"/>
    <path d="M51.3965 177.046C53.153 178.179 58.6188 190.601 62.0109 203.845" stroke="#4B7BE5" stroke-linecap="round"
          stroke-linejoin="round"/>
    <path d="M66.3301 189.744C64.384 186.8 62.7233 183.678 61.3704 180.419C60.4733 178.249 58.3108 169 50.9713 169C47.5055 169 42 172.604 42 178.515C42 181.888 44.3382 186.117 46.5329 190.527C47.1991 189.951 47.9945 189.544 48.8516 189.34C49.7087 189.137 50.6022 189.143 51.4564 189.359C52.3105 189.575 53.1 189.993 53.758 190.579C54.416 191.164 54.923 191.9 55.236 192.724C55.549 193.547 55.6588 194.434 55.556 195.309C55.4533 196.184 55.141 197.021 54.6457 197.749C54.1505 198.478 53.4868 199.076 52.711 199.493C51.9352 199.911 51.0702 200.135 50.1894 200.146C52.588 213.745 57.2814 219.313 60.7396 221.5"
          stroke="#4B7BE5" stroke-width="1.5" stroke-linecap="round" stroke-linejoin="round"/>
</svg>
