<svg width="500" height="450" viewBox="0 0 500 450" fill="none" xmlns="http://www.w3.org/2000/svg">
<path d="M113.075 27.5843C73.8713 51.4926 46.1051 94.44 50.4471 134.922C54.8863 175.31 91.4451 213.317 104.003 261.222C116.56 309.127 105.231 367.092 126.204 396.578C147.075 426.165 200.476 427.444 243.988 414.438C287.625 401.525 321.442 374.326 359.034 349.964C396.627 325.69 437.928 304.169 447.641 273.121C457.353 242.166 435.454 201.662 411.647 171.466C387.938 141.149 362.154 121.184 335.519 93.2546C308.884 65.3246 281.301 29.5121 242.194 14.0404C202.995 -1.4424 152.268 3.59297 113.075 27.5843Z" fill="#FEA895" fill-opacity="0.5"/>
<path d="M336.716 12.1154H189.286C179.749 12.1154 170.603 15.6286 163.859 21.8821C157.115 28.1355 153.326 36.6171 153.326 45.4608V395.05C153.326 403.894 157.115 412.375 163.859 418.629C170.603 424.882 179.749 428.396 189.286 428.396H336.716C346.253 428.396 355.399 424.882 362.143 418.629C368.887 412.375 372.675 403.894 372.675 395.05V45.4608C372.675 36.6171 368.887 28.1355 362.143 21.8821C355.399 15.6286 346.253 12.1154 336.716 12.1154Z" fill="white" stroke="#780000" stroke-width="1.5" stroke-miterlimit="10"/>
<path d="M292.102 379.803L323.225 415.259H266.022C264.223 402.161 263.744 368.166 263.752 359.597C268.078 362.392 274.752 367.135 280.557 371.339C283.725 373.633 286.627 375.761 288.738 377.315C289.793 378.093 290.65 378.727 291.244 379.166C291.54 379.386 291.771 379.557 291.927 379.673L292.102 379.803Z" fill="#4B7BE5" stroke="#7D1700" stroke-width="1.5"/>
<path d="M358.13 402.701C356.925 404.923 355.716 405.998 353.898 407.615C353.609 407.872 353.304 408.143 352.981 408.435C352.893 408.515 352.806 408.594 352.72 408.671C350.55 410.635 349.272 411.791 346.63 413.062C344.933 413.878 342.521 414.433 340.482 414.782C339.472 414.956 338.572 415.076 337.925 415.152C337.602 415.191 337.342 415.218 337.164 415.236C337.075 415.245 337.007 415.251 336.961 415.256L336.923 415.259H302.697C290.208 402.899 280.476 388.769 273.853 377.62C270.524 372.015 267.984 367.169 266.277 363.688C265.557 362.219 264.986 360.995 264.567 360.06C265.8 360.635 267.338 361.14 269.097 361.59C272.072 362.352 275.798 362.985 280.028 363.503C288.489 364.538 299.032 365.118 309.739 365.319C320.45 365.521 331.341 365.343 340.505 364.86C348.948 364.415 355.985 363.707 360.056 362.78V395.885C360.052 395.917 360.045 395.965 360.035 396.026C360.016 396.152 359.987 396.336 359.947 396.565C359.868 397.023 359.748 397.661 359.586 398.376C359.257 399.825 358.771 401.52 358.13 402.701Z" fill="#4B7BE5" stroke="#7D1700" stroke-width="1.5"/>
<path d="M246.483 252.315C244.885 253.943 244.876 257.077 244.876 257.077C242.91 251.61 199.813 152.185 199.813 152.185C199.813 152.185 190.889 155.693 201.174 174.483C197.846 176.306 188.562 183.19 192.394 194.257C195.283 202.577 201.612 205.475 205.563 205.475C204.883 211.724 219.272 275.337 221.137 278.394C225.527 285.583 233.999 293.455 238.981 293.679C244.688 293.943 256.355 289.067 264.322 284.398" stroke="#780000" stroke-width="1.5" stroke-linecap="round" stroke-linejoin="round"/>
<path d="M290.862 212.851C269.168 216.596 241.654 240.25 242.374 245.354C243.046 250.169 256.539 264.078 266.824 270.697" stroke="#780000" stroke-width="1.5" stroke-miterlimit="10" stroke-linecap="round"/>
<path d="M304.465 201.641C257.935 225.97 257.057 350.621 263.009 358.237C268.839 365.726 338.423 367.688 360.805 362.499" stroke="#780000" stroke-width="1.5" stroke-miterlimit="10" stroke-linecap="round"/>
<path d="M359.099 216.474C352.712 207.853 344.306 201.58 333.398 198.951" stroke="#780000" stroke-width="1.5" stroke-miterlimit="10" stroke-linecap="round"/>
<path d="M353.572 282.115C354.748 286.792 357.162 295.548 359.577 303.86" stroke="#780000" stroke-width="1.5" stroke-miterlimit="10" stroke-linecap="round"/>
<path d="M341.259 270.689C343.524 276.746 346.009 280.938 347.8 281.476C349.994 282.131 354.985 281.476 360.806 280.039" stroke="#780000" stroke-width="1.5" stroke-miterlimit="10" stroke-linecap="round"/>
<path d="M360.806 217.545C356.957 214.923 353.067 213.637 349.371 214.435" stroke="#780000" stroke-width="1.5" stroke-miterlimit="10" stroke-linecap="round"/>
<path d="M304.465 201.641V194.648" stroke="#780000" stroke-width="1.5" stroke-miterlimit="10" stroke-linecap="round"/>
<path d="M333.397 181.822V210.873C333.397 213.226 326.58 214.679 319.561 214.882" stroke="#780000" stroke-width="1.5" stroke-miterlimit="10" stroke-linecap="round"/>
<path d="M333.27 181.822C335.904 183.161 339.881 181.732 342.414 178.452C345.087 174.988 345.14 170.779 342.532 169.045C341.852 168.603 341.049 168.35 340.219 168.316" stroke="#780000" stroke-width="1.5" stroke-miterlimit="10" stroke-linecap="round"/>
<path d="M291.696 152.295C291.254 153.166 290.837 154.057 290.445 154.969C283.369 171.564 288.43 188.974 301.748 193.854C302.637 194.181 303.551 194.446 304.483 194.648" stroke="#780000" stroke-width="1.5" stroke-miterlimit="10" stroke-linecap="round"/>
<path d="M346.304 172.041C351.69 170.547 358.455 166.985 358.455 159.829C358.455 155.352 353.946 150.426 353.09 144.797C352.652 141.947 353.608 130.082 350.018 126.073C342.555 117.757 338.166 119.458 332.459 117.525C322.521 114.154 318.715 108.57 310.511 108.57C301.196 108.57 297.426 113.047 290.758 113.047C283.133 113.047 276.878 109.791 266.176 109.791C260.47 109.791 253.007 116.71 253.007 122.816C253.007 137.25 267.493 135.182 267.493 138.691C267.493 141.133 266.615 143.071 266.615 146.425C266.615 148.204 269.073 150.809 269.073 150.809" fill="white"/>
<path d="M346.304 172.041C351.69 170.547 358.455 166.985 358.455 159.829C358.455 155.352 353.946 150.426 353.09 144.797C352.652 141.947 353.608 130.082 350.018 126.073C342.555 117.757 338.166 119.458 332.459 117.525C322.521 114.154 318.715 108.57 310.511 108.57C301.196 108.57 297.426 113.047 290.758 113.047C283.133 113.047 276.878 109.791 266.176 109.791C260.47 109.791 253.007 116.71 253.007 122.816C253.007 137.25 267.493 135.182 267.493 138.691C267.493 141.133 266.615 143.071 266.615 146.425C266.615 148.204 269.073 150.809 269.073 150.809C272.626 152.27 285.507 154.316 294.329 150.809C297.437 141.115 303.571 140.846 306.25 141.923C311.799 142.655 324.211 145.456 329.464 150.809C334.717 156.162 334.034 167.194 333.036 172.041L339.286 168.75" stroke="#780000" stroke-width="1.5" stroke-miterlimit="10" stroke-linecap="round"/>
<path d="M212.92 95.1923H187.08C179.422 95.1923 173.214 101.008 173.214 108.183V132.394C173.214 139.568 179.422 145.385 187.08 145.385H212.92C220.578 145.385 226.786 139.568 226.786 132.394V108.183C226.786 101.008 220.578 95.1923 212.92 95.1923Z" fill="#4B7BE5"/>
<path d="M191.072 132.404C192.715 132.404 194.048 131.112 194.048 129.519C194.048 127.926 192.715 126.635 191.072 126.635C189.428 126.635 188.095 127.926 188.095 129.519C188.095 131.112 189.428 132.404 191.072 132.404Z" stroke="#7D1700" stroke-width="1.5" stroke-linecap="round" stroke-linejoin="round"/>
<path d="M207.441 132.404C209.084 132.404 210.417 131.112 210.417 129.519C210.417 127.926 209.084 126.635 207.441 126.635C205.797 126.635 204.464 127.926 204.464 129.519C204.464 131.112 205.797 132.404 207.441 132.404Z" stroke="#7D1700" stroke-width="1.5" stroke-linecap="round" stroke-linejoin="round"/>
<path d="M207.441 126.635H191.072V106.442H188.095" stroke="#7D1700" stroke-width="1.5" stroke-linecap="round" stroke-linejoin="round"/>
<path d="M191.072 109.327L211.905 110.769L210.417 120.865H191.072" fill="#780000"/>
<path d="M191.072 109.327L211.905 110.769L210.417 120.865H191.072" stroke="#7D1700" stroke-width="1.5" stroke-linecap="round" stroke-linejoin="round"/>
<path d="M222.322 105.577C225.773 105.577 228.572 102.865 228.572 99.5192C228.572 96.1737 225.773 93.4615 222.322 93.4615C218.87 93.4615 216.072 96.1737 216.072 99.5192C216.072 102.865 218.87 105.577 222.322 105.577Z" fill="#780000"/>
<path d="M133.325 444.25H133.325H94.5068H94.506C93.7921 444.251 93.0915 444.013 92.5039 443.562C91.9157 443.111 91.4697 442.469 91.2376 441.722L91.2376 441.722L71.9255 379.624C71.9254 379.624 71.9253 379.624 71.9253 379.624C71.7516 379.061 71.706 378.462 71.7928 377.875C71.8797 377.289 72.0961 376.736 72.4213 376.261C72.7464 375.786 73.17 375.404 73.6545 375.143C74.1387 374.882 74.6715 374.748 75.2097 374.75H75.2118H152.8C153.338 374.75 153.871 374.886 154.355 375.149C154.839 375.412 155.262 375.795 155.586 376.272C155.91 376.748 156.125 377.303 156.209 377.89C156.294 378.478 156.246 379.077 156.07 379.64C156.07 379.64 156.07 379.64 156.07 379.64L136.591 441.733C136.356 442.477 135.91 443.116 135.323 443.565C134.736 444.013 134.037 444.25 133.325 444.25Z" fill="#780000" stroke="#4B7BE5" stroke-width="1.5"/>
<path d="M133.168 383.365C140.217 374.7 146.814 358.447 150.109 344.603C149.814 344.633 149.516 344.648 149.219 344.649C147.196 344.657 145.238 343.96 143.701 342.686C142.164 341.411 141.152 339.644 140.847 337.706C140.543 335.768 140.968 333.788 142.044 332.128C143.12 330.468 149.052 325.094 150.986 324.519" stroke="#780000" stroke-width="1.5" stroke-linecap="round" stroke-linejoin="round"/>
<path d="M151.786 324.146C150.359 317.281 145.647 308.969 133.263 308.969C124.882 308.969 119.435 320.616 118.086 330.615C116.97 338.879 108.848 352.494 108.848 363.553C108.861 370.661 111.164 377.587 115.435 383.365" stroke="#780000" stroke-width="1.5" stroke-linecap="round" stroke-linejoin="round"/>
<path d="M122.045 383.365C121.435 375.16 121.459 354.213 131.209 337.813" stroke="#780000" stroke-linecap="round" stroke-linejoin="round"/>
<path d="M91.7792 306.425C94.9158 308.387 104.676 329.886 110.734 352.808" stroke="#780000" stroke-linecap="round" stroke-linejoin="round"/>
<path d="M118.447 328.402C114.971 323.308 112.006 317.904 109.59 312.264C107.988 308.508 104.126 292.5 91.02 292.5C84.8312 292.5 74.9999 298.737 74.9999 308.969C74.9999 314.807 79.1752 322.126 83.0943 329.759C84.284 328.761 85.7043 328.057 87.2349 327.705C88.7654 327.353 90.361 327.364 91.8862 327.737C93.4115 328.11 94.8214 328.834 95.9963 329.848C97.1713 330.861 98.0767 332.135 98.6356 333.56C99.1945 334.985 99.3906 336.52 99.2071 338.034C99.0236 339.548 98.466 340.997 97.5816 342.258C96.6971 343.519 95.512 344.555 94.1266 345.277C92.7413 345.999 91.1967 346.387 89.6238 346.407C93.907 369.943 102.288 379.58 108.463 383.365" stroke="#780000" stroke-width="1.5" stroke-linecap="round" stroke-linejoin="round"/>
</svg>
