<svg width="208" height="250" viewBox="0 0 208 250" fill="none" xmlns="http://www.w3.org/2000/svg">
    <path d="M32.7255 37.9822C12.3851 50.7757 -2.02088 73.7571 0.231915 95.4195C2.5351 117.031 21.503 137.369 28.0183 163.003C34.5336 188.638 28.6556 219.655 39.5372 235.434C50.3654 251.265 78.0718 251.95 100.647 244.99C123.288 238.081 140.833 223.526 160.337 210.49C179.842 197.501 201.27 185.985 206.309 169.37C211.348 152.806 199.986 131.132 187.635 114.974C175.333 98.7512 161.956 88.0683 148.137 73.1228C134.318 58.1773 120.006 39.0137 99.7164 30.7347C79.379 22.4497 53.0599 25.1442 32.7255 37.9822Z"
          fill="#4B7BE5" fill-opacity="0.5"/>
    <path d="M88.7793 181.418L93.0774 104.793" stroke="#4B7BE5" stroke-width="1.5" stroke-miterlimit="10"
          stroke-linecap="round"/>
    <path d="M88.7793 181.418L140.653 112.648" stroke="#4B7BE5" stroke-width="1.5" stroke-miterlimit="10"
          stroke-linecap="round"/>
    <path d="M88.7793 181.418L143.913 61.3682" stroke="#BA381C" stroke-width="1.5" stroke-miterlimit="10"
          stroke-linecap="round"/>
    <path d="M165.744 14.2219C177.31 18.4294 182.56 34.0485 176.986 49.3713C171.412 64.6941 157.354 73.2892 145.787 69.0817C134.221 64.8741 128.971 49.255 134.545 33.9322C140.119 18.6094 154.177 10.0143 165.744 14.2219Z"
          fill="#4B7BE5" stroke="#780000" stroke-width="1.5"/>
    <path d="M98.5158 52.5515C110.794 53.4079 120.146 66.9748 119.011 83.2405C117.877 99.5061 106.732 111.643 94.4538 110.787C82.1757 109.93 72.8238 96.3636 73.9583 80.0979C75.0929 63.8323 86.2377 51.6951 98.5158 52.5515Z"
          fill="#4B7BE5" stroke="#780000" stroke-width="1.5"/>
    <path d="M169.963 55.1531C183.398 61.6915 188.173 80.0337 180.277 96.2599C172.38 112.486 155 120.046 141.564 113.508C128.129 106.97 123.354 88.6274 131.251 72.4012C139.147 56.175 156.528 48.6148 169.963 55.1531Z"
          fill="#4B7BE5" stroke="#780000" stroke-width="1.5"/>
    <path d="M116.337 4.29881C128.718 6.18233 137.129 19.9173 134.798 35.2403C132.466 50.5632 120.352 61.1757 107.971 59.2922C95.5896 57.4087 87.1789 43.6737 89.51 28.3507C91.841 13.0277 103.956 2.41529 116.337 4.29881Z"
          fill="#4B7BE5" stroke="#780000" stroke-width="1.5"/>
    <path d="M130.981 44.4774C136.226 46.0688 140.143 50.3849 142.207 56.1505C144.272 61.916 144.466 69.0995 142.273 76.3261C140.081 83.5526 135.927 89.4165 131.007 93.0628C126.086 96.709 120.431 98.1202 115.186 96.5288C109.942 94.9373 106.024 90.6213 103.96 84.8557C101.896 79.0901 101.701 71.9067 103.894 64.6801C106.087 57.4535 110.241 51.5896 115.161 47.9434C120.081 44.2971 125.736 42.8859 130.981 44.4774Z"
          fill="#4B7BE5" stroke="#780000"/>
    <path d="M94.3568 110.639L97.0246 116.905C97.1022 117.089 97.1302 117.291 97.1058 117.489C97.0813 117.687 97.0053 117.875 96.8853 118.035C96.7652 118.195 96.6054 118.32 96.4218 118.398C96.2382 118.477 96.0372 118.506 95.8389 118.482L89.0835 117.649C88.8847 117.625 88.6959 117.549 88.5359 117.429C88.3759 117.309 88.2506 117.148 88.1724 116.964C88.0942 116.78 88.066 116.578 88.0907 116.379C88.1153 116.181 88.1919 115.992 88.3128 115.832L92.4123 110.399C92.5331 110.242 92.6926 110.12 92.875 110.044C93.0575 109.968 93.2567 109.94 93.453 109.965C93.6492 109.989 93.8358 110.064 93.9943 110.182C94.1528 110.3 94.2777 110.458 94.3568 110.639Z"
          fill="#BA381C"/>
    <path d="M88.778 181.418L78.9961 71.4463" stroke="#BA381C" stroke-width="1.5" stroke-miterlimit="10"
          stroke-linecap="round"/>
    <path d="M88.7793 181.418L114.864 94.2705" stroke="#4B7BE5" stroke-width="1.5" stroke-miterlimit="10"
          stroke-linecap="round"/>
    <path d="M115.83 94.3505L117.384 100.981C117.429 101.176 117.422 101.379 117.363 101.57C117.305 101.761 117.198 101.934 117.052 102.07C116.906 102.207 116.726 102.302 116.532 102.347C116.337 102.392 116.134 102.385 115.943 102.327L109.422 100.35C109.23 100.292 109.058 100.185 108.921 100.039C108.784 99.893 108.688 99.7137 108.643 99.519C108.598 99.3243 108.604 99.121 108.662 98.9298C108.721 98.7385 108.828 98.5658 108.974 98.4293L113.942 93.7785C114.088 93.6415 114.267 93.5453 114.462 93.4997C114.657 93.4541 114.86 93.4606 115.052 93.5186C115.243 93.5766 115.416 93.6841 115.553 93.8301C115.689 93.9762 115.785 94.1557 115.83 94.3505Z"
          fill="#BA381C"/>
    <path d="M142.405 111.496L141.93 118.284C141.917 118.484 141.851 118.678 141.739 118.844C141.627 119.011 141.473 119.145 141.293 119.233C141.112 119.321 140.911 119.36 140.711 119.345C140.511 119.33 140.318 119.263 140.152 119.149L134.52 115.343C134.354 115.231 134.22 115.078 134.133 114.898C134.045 114.718 134.006 114.518 134.02 114.319C134.035 114.119 134.101 113.927 134.213 113.761C134.325 113.595 134.479 113.462 134.659 113.375L140.774 110.393C140.954 110.306 141.153 110.268 141.352 110.283C141.55 110.297 141.742 110.364 141.907 110.475C142.072 110.587 142.205 110.74 142.292 110.919C142.379 111.098 142.418 111.297 142.405 111.496Z"
          fill="#BA381C"/>
    <path d="M104.046 39.4532C105.501 57.5369 94.3148 73.0408 79.2455 74.2533C64.1761 75.4657 50.655 61.9497 49.2 43.866C47.745 25.7822 58.9313 10.2783 74.0006 9.06585C89.07 7.8534 102.591 21.3694 104.046 39.4532Z"
          fill="#4B7BE5" stroke="#780000"/>
    <path d="M79.8142 72.1668L83.6677 77.7691C83.7796 77.9337 83.8465 78.1247 83.8618 78.3232C83.8771 78.5216 83.8402 78.7206 83.7548 78.9004C83.6694 79.0802 83.5384 79.2345 83.375 79.348C83.2115 79.4616 83.0212 79.5304 82.8229 79.5477L76.0497 80.1079C75.8505 80.1233 75.6508 80.0862 75.4705 80.0003C75.2902 79.9143 75.1355 79.7825 75.0221 79.6181C74.9087 79.4536 74.8404 79.2623 74.8241 79.0632C74.8078 78.8641 74.8441 78.6642 74.9292 78.4835L77.849 72.3358C77.9336 72.1546 78.0645 71.9989 78.2284 71.8844C78.3923 71.7698 78.5835 71.7005 78.7828 71.6834C78.982 71.6663 79.1823 71.7019 79.3633 71.7868C79.5444 71.8716 79.6999 72.0027 79.8142 72.1668Z"
          fill="#BA381C"/>
    <path d="M73.1917 178.16L61.7344 235.812L126.152 248.614L137.61 190.962L73.1917 178.16Z" fill="#4B7BE5"/>
    <path d="M73.3941 178.463L137.317 191.168L125.955 248.326L62.0323 235.619L73.3941 178.463ZM72.9969 177.87L61.4395 236.025L126.355 248.928L137.916 190.779L72.9998 177.879L72.9969 177.87Z"
          fill="#780000"/>
    <path d="M86.3521 240.971L101.418 243.965L104.827 226.812L89.761 223.818L86.3521 240.971Z" fill="#780000"/>
    <path d="M70.0845 213.515L92.7734 218.024L95.2619 205.502L72.573 200.993L70.0845 213.515Z" fill="#780000"/>
    <path d="M85.9535 214.766L91.082 215.786L92.8899 206.689L87.7613 205.669L85.9535 214.766Z" fill="#4B7BE5"/>
    <path d="M73.5047 204.689L86.3203 207.235L86.6647 205.503L73.8491 202.956L73.5047 204.689Z" fill="#4B7BE5"/>
    <path d="M72.9129 207.653L85.7285 210.2L86.0729 208.467L73.2573 205.921L72.9129 207.653Z" fill="#4B7BE5"/>
</svg>
