<svg width="400" height="470" viewBox="0 0 400 470" fill="none" xmlns="http://www.w3.org/2000/svg">
<path d="M63.0752 71.6353C23.8711 95.7642 -3.89504 139.108 0.446993 179.964C4.88615 220.724 41.445 259.081 54.0026 307.428C66.5602 355.775 55.2309 414.275 76.2041 444.033C97.0744 473.893 150.476 475.184 193.988 462.057C237.625 449.026 271.441 421.576 309.034 396.989C346.627 372.491 387.928 350.772 397.641 319.437C407.353 288.197 385.454 247.319 361.647 216.844C337.938 186.247 312.154 166.099 285.519 137.911C258.884 109.724 231.3 73.5808 192.194 57.9664C152.995 42.3408 102.268 47.4226 63.0752 71.6353Z" fill="#FEA895" fill-opacity="0.5"/>
<path d="M171.111 342.159L179.395 197.643" stroke="#BA381C" stroke-width="1.5" stroke-miterlimit="10" stroke-linecap="round"/>
<path d="M171.111 342.159L271.092 212.458" stroke="#BA381C" stroke-width="1.5" stroke-miterlimit="10" stroke-linecap="round"/>
<path d="M171.111 342.159L277.377 115.742" stroke="#BA381C" stroke-width="1.5" stroke-miterlimit="10" stroke-linecap="round"/>
<path d="M319.688 26.1964C342.492 34.3139 352.586 64.2686 341.776 93.3474C330.966 122.426 303.563 139.033 280.758 130.916C257.954 122.798 247.86 92.8437 258.67 63.7649C269.48 34.686 296.883 18.0788 319.688 26.1964Z" fill="#FFB2A1" stroke="#780000" stroke-width="1.5"/>
<path d="M189.926 98.4507C214.138 100.103 232.276 126.177 230.076 157.041C227.876 187.905 206.215 211.263 182.003 209.61C157.791 207.957 139.653 181.883 141.853 151.02C144.053 120.156 165.714 96.7981 189.926 98.4507Z" fill="white" stroke="#780000" stroke-width="1.5"/>
<path d="M327.885 103.42C354.227 115.964 363.418 151.019 348.088 181.845C332.757 212.671 298.894 227.223 272.552 214.679C246.21 202.135 237.019 167.08 252.349 136.254C267.68 105.428 301.543 90.8758 327.885 103.42Z" fill="white" stroke="#780000" stroke-width="1.5"/>
<path d="M224.329 7.45081C248.7 11.0788 265.023 37.4411 260.495 66.5668C255.967 95.6924 232.371 116.112 208 112.484C183.628 108.856 167.305 82.494 171.833 53.3683C176.361 24.2427 199.957 3.8228 224.329 7.45081Z" fill="white" stroke="#780000" stroke-width="1.5"/>
<path d="M252.583 83.4606C262.868 86.5145 270.51 94.7858 274.525 105.758C278.539 116.73 278.91 130.375 274.659 144.084C270.408 157.794 262.35 168.936 252.781 175.875C243.213 182.814 232.162 185.534 221.877 182.48C211.592 179.427 203.95 171.155 199.935 160.183C195.921 149.211 195.549 135.566 199.801 121.857C204.052 108.147 212.11 97.0052 221.679 90.0662C231.247 83.1275 242.298 80.4067 252.583 83.4606Z" fill="#FFB2A2" stroke="#780000"/>
<path d="M181.863 208.668L187.005 220.486C187.155 220.833 187.209 221.213 187.162 221.586C187.115 221.96 186.968 222.315 186.737 222.616C186.506 222.917 186.198 223.154 185.844 223.302C185.49 223.45 185.102 223.505 184.72 223.46L171.7 221.889C171.317 221.844 170.953 221.701 170.644 221.474C170.336 221.247 170.094 220.944 169.944 220.596C169.793 220.249 169.739 219.869 169.786 219.494C169.834 219.119 169.981 218.763 170.214 218.462L178.116 208.215C178.348 207.92 178.656 207.689 179.008 207.545C179.359 207.401 179.743 207.35 180.122 207.396C180.5 207.441 180.859 207.583 181.165 207.806C181.47 208.029 181.711 208.326 181.863 208.668Z" fill="#BA381C"/>
<path d="M171.111 342.159L152.258 134.75" stroke="#BA381C" stroke-width="1.5" stroke-miterlimit="10" stroke-linecap="round"/>
<path d="M171.111 342.159L221.388 177.797" stroke="#BA381C" stroke-width="1.5" stroke-miterlimit="10" stroke-linecap="round"/>
<path d="M223.251 177.948L226.245 190.454C226.332 190.821 226.318 191.204 226.206 191.564C226.094 191.925 225.886 192.25 225.605 192.507C225.324 192.764 224.978 192.945 224.603 193.03C224.228 193.115 223.836 193.102 223.468 192.992L210.899 189.263C210.53 189.154 210.197 188.951 209.934 188.676C209.67 188.401 209.486 188.063 209.398 187.696C209.311 187.328 209.324 186.945 209.436 186.584C209.548 186.223 209.755 185.898 210.036 185.64L219.612 176.869C219.893 176.61 220.238 176.429 220.614 176.343C220.989 176.257 221.381 176.269 221.75 176.379C222.119 176.488 222.452 176.691 222.716 176.966C222.979 177.242 223.164 177.58 223.251 177.948Z" fill="#BA381C"/>
<path d="M274.469 210.283L273.555 223.086C273.53 223.464 273.403 223.829 273.187 224.143C272.971 224.458 272.674 224.711 272.326 224.877C271.977 225.043 271.591 225.115 271.204 225.087C270.818 225.06 270.447 224.932 270.127 224.718L259.272 217.54C258.952 217.329 258.695 217.04 258.526 216.7C258.357 216.361 258.282 215.984 258.309 215.608C258.336 215.232 258.465 214.869 258.681 214.556C258.897 214.244 259.193 213.993 259.54 213.828L271.327 208.204C271.673 208.04 272.056 207.969 272.439 207.996C272.822 208.023 273.191 208.148 273.509 208.359C273.827 208.569 274.083 208.858 274.252 209.196C274.42 209.533 274.495 209.909 274.469 210.283Z" fill="#BA381C"/>
<path d="M201.003 74.3735C203.821 108.64 182.156 138.172 152.777 140.485C123.397 142.798 97.186 117.035 94.3685 82.7689C91.551 48.5026 113.216 18.9701 142.595 16.657C171.975 14.3439 198.186 40.1072 201.003 74.3735Z" fill="#FFB2A1" stroke="#780000"/>
<path d="M153.835 136.108L161.262 146.674C161.478 146.985 161.607 147.345 161.637 147.719C161.666 148.093 161.595 148.469 161.43 148.808C161.266 149.147 161.013 149.438 160.698 149.652C160.383 149.866 160.016 149.996 159.634 150.028L146.58 151.085C146.196 151.114 145.811 151.044 145.463 150.882C145.116 150.72 144.818 150.471 144.599 150.161C144.38 149.851 144.249 149.49 144.217 149.115C144.186 148.739 144.256 148.362 144.42 148.021L150.047 136.427C150.211 136.085 150.463 135.791 150.779 135.575C151.095 135.359 151.463 135.228 151.847 135.196C152.231 135.164 152.617 135.231 152.966 135.391C153.315 135.551 153.615 135.798 153.835 136.108Z" fill="#BA381C"/>
<path d="M141.059 336.011L118.99 444.748L243.147 468.908L265.216 360.171L141.059 336.011Z" fill="white"/>
<path d="M141.461 336.585L264.667 360.547L242.768 468.349L119.563 444.383L141.461 336.585ZM140.696 335.467L118.42 445.148L243.539 469.484L265.821 359.814L140.701 335.484L140.696 335.467Z" fill="#780000"/>
<path d="M166.44 454.477L195.478 460.124L202.048 427.773L173.01 422.126L166.44 454.477Z" fill="#780000"/>
<path d="M135.082 402.696L178.812 411.2L183.609 387.583L139.878 379.079L135.082 402.696Z" fill="#780000"/>
<path d="M165.67 405.055L175.555 406.977L179.039 389.82L169.154 387.897L165.67 405.055Z" fill="#4B7BE5"/>
<path d="M141.676 386.048L166.377 390.851L167.041 387.583L142.34 382.78L141.676 386.048Z" fill="#4B7BE5"/>
<path d="M140.534 391.639L165.234 396.443L165.898 393.175L141.197 388.371L140.534 391.639Z" fill="#4B7BE5"/>
</svg>
