<svg width="280" height="278" viewBox="0 0 280 278" fill="none" xmlns="http://www.w3.org/2000/svg">
    <path d="M32.6104 106.136C26.7414 71.3281 36.9701 30.6513 62.3839 14.4562C93 -2.5001 167.457 -13.6206 240.729 37.9396C254.436 54.1347 252.876 83.101 247.256 106.323C241.586 129.619 231.787 147.25 218.103 168.304C204.419 189.358 186.696 213.909 163.473 219.572C140.251 225.234 111.289 211.975 85.8712 190.917C60.4536 169.859 38.4598 140.893 32.6104 106.136Z"
          fill="#4B7BE5" fill-opacity="0.5"/>
    <path d="M134.199 124.659C134.166 125.022 134.108 125.383 134.027 125.739C133.247 128.664 124.734 164.458 124.734 164.458L138.293 160.711C139.959 156.933 141.417 153.066 142.661 149.129"
          stroke="#780000" stroke-width="1.5" stroke-linecap="round" stroke-linejoin="round"/>
    <path d="M134.615 102.95C134.475 105.325 134.49 109.996 134.475 114.524" stroke="#780000" stroke-width="1.5"
          stroke-linecap="round" stroke-linejoin="round"/>
    <path d="M140.434 258.064V163.48H235.017V258.064H140.434Z" fill="#4B7BE5" stroke="#780000"/>
    <path d="M175.363 177.924H224.198" stroke="white" stroke-opacity="0.25" stroke-width="1.5" stroke-linecap="round"
          stroke-linejoin="round"/>
    <path d="M175.363 186.179H197.014" stroke="white" stroke-opacity="0.25" stroke-width="1.5" stroke-linecap="round"
          stroke-linejoin="round"/>
    <path d="M175.363 206.644H224.198" stroke="white" stroke-opacity="0.25" stroke-width="1.5" stroke-linecap="round"
          stroke-linejoin="round"/>
    <path d="M175.363 214.9H197.014" stroke="white" stroke-opacity="0.25" stroke-width="1.5" stroke-linecap="round"
          stroke-linejoin="round"/>
    <path d="M175.363 235.361H224.198" stroke="white" stroke-opacity="0.25" stroke-width="1.5" stroke-linecap="round"
          stroke-linejoin="round"/>
    <path d="M175.363 243.616H197.014" stroke="white" stroke-opacity="0.25" stroke-width="1.5" stroke-linecap="round"
          stroke-linejoin="round"/>
    <path d="M105.554 86.7601C105.517 86.5901 105.66 86.4352 105.833 86.4594L110.723 87.1479C110.824 87.1622 110.907 87.2368 110.931 87.3363L114.963 103.912C115.002 104.072 114.879 104.225 114.715 104.221L109.523 104.106C109.407 104.103 109.309 104.022 109.284 103.909L105.554 86.7601Z"
          fill="#4B7BE5" stroke="#780000" stroke-width="1.5"/>
    <path d="M123.52 210.95L123.464 211.1L123.475 211.26L125.676 245.025C125.414 245.116 125.067 245.236 124.655 245.377C123.701 245.705 122.4 246.149 121.01 246.614C118.437 247.475 115.602 248.395 114.087 248.797C114.087 248.796 114.086 248.796 114.085 248.795C113.958 248.669 113.796 248.494 113.6 248.268C113.207 247.815 112.7 247.184 112.093 246.388C110.882 244.797 109.295 242.574 107.48 239.867C103.851 234.454 99.3234 227.126 95.0746 219.083C90.8241 211.037 86.8635 202.296 84.3574 194.055C81.8581 185.836 80.8374 178.216 82.322 172.298C82.3271 172.293 82.3328 172.288 82.3392 172.283C82.4196 172.216 82.5587 172.122 82.7742 172.005C83.2024 171.772 83.8368 171.495 84.6687 171.182C86.3262 170.558 88.6742 169.82 91.5038 169.012C97.1578 167.397 104.671 165.519 112.281 163.727C119.89 161.934 127.586 160.229 133.603 158.961C136.611 158.326 139.197 157.801 141.141 157.429C142.143 157.237 142.958 157.09 143.568 156.988L123.52 210.95ZM82.2911 172.327C82.2884 172.331 82.2867 172.333 82.2866 172.333C82.2864 172.333 82.2878 172.331 82.2911 172.327Z"
          fill="#4B7BE5" stroke="#780000" stroke-width="1.5"/>
    <path d="M64.2235 257.242L59.0604 247.984L48.6757 253.4L28 239.397L43.1188 269.432L64.2235 257.242Z"
          stroke="#780000" stroke-width="1.5" stroke-linecap="round" stroke-linejoin="round"/>
    <path d="M125.485 244.88L116.017 248.218L118.271 256.29L103.109 273L131.058 263.766L125.485 244.88Z"
          stroke="#780000" stroke-width="1.5" stroke-linecap="round" stroke-linejoin="round"/>
    <path d="M143.24 82.4922C137.34 85.2999 132.669 99.6115 133.222 101.55C133.523 102.599 135.075 103.312 136.861 103.78"
          stroke="#780000" stroke-width="1.5" stroke-linecap="round" stroke-linejoin="round"/>
    <path d="M136.351 114.699C136.085 95.1623 141.81 78.624 152.698 72.8877" stroke="#780000" stroke-width="1.5"
          stroke-linecap="round" stroke-linejoin="round"/>
    <path d="M190.906 129.483C191.425 135.547 191.507 139.895 191.437 140.94C188.652 150.081 155.256 161.062 144.977 155.053C140.991 145.676 138.337 135.789 137.092 125.677"
          stroke="#780000" stroke-width="1.5" stroke-linecap="round" stroke-linejoin="round"/>
    <path d="M164.127 70.9224C167.637 71.4683 170.698 73.1373 173.377 75.6019" stroke="#780000" stroke-width="1.5"
          stroke-linecap="round" stroke-linejoin="round"/>
    <path d="M189.506 104.1C191.156 108.565 193.905 123.076 193.601 125.123C193.265 127.361 188.141 132.996 186.316 133.121C160.368 134.884 132.225 124.515 126.964 121.602C115.96 120.724 109.447 116.75 109.447 110.94C109.447 107.508 111.35 105.036 112.399 105.036C114.388 105.036 117.921 108.464 118.346 109.466C117.492 107.703 114.801 104.467 117.016 104.467C117.633 104.467 122.632 111.455 125.346 113.151C126.091 113.615 129.608 114.064 134.475 114.524"
          stroke="#780000" stroke-width="1.5" stroke-linecap="round" stroke-linejoin="round"/>
    <path d="M134.475 114.543C147.265 115.756 169.396 117.078 175.085 119.145C174.368 117.714 172.722 113.596 171.829 110.991"
          stroke="#780000" stroke-width="1.5" stroke-linecap="round" stroke-linejoin="round"/>
    <path d="M111.085 50.7144L92.684 54.2819C90.6494 54.6763 89.3198 56.6455 89.7142 58.6801L93.2817 77.0807C93.6762 79.1153 95.6453 80.4449 97.6799 80.0505L116.081 76.483C118.115 76.0885 119.445 74.1194 119.05 72.0848L115.483 53.6841C115.088 51.6495 113.119 50.3199 111.085 50.7144Z"
          fill="#4B7BE5"/>
    <path d="M107.706 83L110 77L103 78.2366L107.706 83Z" fill="#780000"/>
    <path d="M171.83 110.971C170.352 111.221 169.264 111.26 168.839 111.01C166.702 109.747 157.667 80.301 169.502 75.9646C170.738 75.5009 172.076 75.3796 173.374 75.6137"
          stroke="#780000" stroke-width="1.5" stroke-linecap="round" stroke-linejoin="round"/>
    <path d="M173.359 75.6133C183.396 77.4188 190.817 99.553 190.474 102.661C190.162 105.465 177.8 109.953 171.814 110.971"
          stroke="#780000" stroke-width="1.5" stroke-linecap="round" stroke-linejoin="round"/>
    <path d="M152.689 72.8916C152.299 70.8872 151.808 68.719 151.336 67.1709" stroke="#780000" stroke-width="1.5"
          stroke-linecap="round" stroke-linejoin="round"/>
    <path d="M164.143 70.9771C164.316 71.5725 164.54 72.1518 164.813 72.7085C164.115 74.0811 156.94 78.0704 153.504 77.2164C153.325 76.2376 153.033 74.6232 152.686 72.8918"
          stroke="#780000" stroke-width="1.5" stroke-linecap="round" stroke-linejoin="round"/>
    <path d="M162.346 59.2778C162.377 61.4031 163.063 67.4397 164.143 70.9767" stroke="#780000" stroke-width="1.5"
          stroke-linecap="round" stroke-linejoin="round"/>
    <path d="M156.999 65.2992C155.926 65.9686 154.759 66.4734 153.537 66.7967C145.184 69.0155 136.156 62.3238 133.379 51.8495C132.871 49.9506 132.596 47.9967 132.561 46.0312"
          stroke="#780000" stroke-width="1.5" stroke-linecap="round" stroke-linejoin="round"/>
    <path d="M164.455 50.0166C164.483 53.2267 163.762 56.399 162.35 59.2821" stroke="#780000" stroke-width="1.5"
          stroke-linecap="round" stroke-linejoin="round"/>
    <path d="M155.857 47.587C154.991 47.6338 151.688 45.9492 150.955 40.8953C148.572 40.5053 138.067 41.6245 132.56 45.9648C130.521 46.7447 128.867 47.396 125.783 47.396C124.32 47.396 123.08 45.8673 123.08 44.8183C123.08 41.9287 124.32 39.1288 127.943 38.9416C124.894 38.8753 122.066 36.9918 122.066 35.6035C122.066 33.759 126.258 28.1007 133.57 30.5808C131.854 29.3408 129.916 28.1319 129.916 26.9581C129.916 24.9381 132.802 23 137.872 23C145.671 23 154.211 26.2406 156.051 28.5608C156.909 28.1163 158.001 27.2896 160.088 27.2896C165.301 27.2896 167.048 44.1671 164.794 49.8254C164.236 50.184 163.612 50.4267 162.958 50.539"
          fill="#4B7BE5"/>
    <path d="M155.857 47.587C154.991 47.6338 151.688 45.9492 150.955 40.8953C148.572 40.5053 138.067 41.6245 132.56 45.9648C130.521 46.7447 128.867 47.396 125.783 47.396C124.32 47.396 123.08 45.8673 123.08 44.8183C123.08 41.9287 124.32 39.1288 127.943 38.9416C124.894 38.8753 122.066 36.9918 122.066 35.6035C122.066 33.759 126.258 28.1007 133.57 30.5808C131.854 29.3408 129.916 28.1319 129.916 26.9581C129.916 24.9381 132.802 23 137.872 23C145.671 23 154.211 26.2406 156.051 28.5608C156.909 28.1163 158.001 27.2896 160.088 27.2896C165.301 27.2896 167.048 44.1671 164.794 49.8254C164.236 50.184 163.612 50.4267 162.958 50.539"
          stroke="#780000" stroke-width="1.5" stroke-linecap="round" stroke-linejoin="round"/>
    <path d="M155.701 47.9534C155.96 47.2176 156.436 46.5776 157.066 46.1183C157.697 45.6591 158.452 45.4022 159.231 45.3817C160.011 45.3612 160.779 45.5781 161.432 46.0036C162.086 46.4292 162.595 47.0433 162.892 47.7645C163.189 48.4858 163.259 49.2803 163.094 50.0427C162.93 50.805 162.537 51.4993 161.969 52.0336C161.401 52.5678 160.683 52.9168 159.912 53.0343C159.141 53.1518 158.353 53.0322 157.651 52.6915"
          stroke="#780000" stroke-width="1.5" stroke-linecap="round" stroke-linejoin="round"/>
    <path d="M96.8414 204.135C116.912 183.777 138.245 162.297 144.724 155.777C147.394 157.276 151.333 157.707 155.7 157.45C160.172 157.187 165.221 156.194 170.093 154.742C174.967 153.291 179.692 151.373 183.516 149.246C186.748 147.449 189.424 145.454 190.956 143.401C191.667 144.742 192.351 146.508 192.915 148.277C193.634 150.533 194.123 152.684 194.227 153.811L194.974 153.742L194.227 153.811C195.68 169.573 183.435 182.234 169.559 191.451C157.727 199.31 144.957 204.501 139.176 206.852C138.202 207.248 137.427 207.563 136.887 207.797L136.787 207.84L136.703 207.91C133.22 210.834 116.186 223.567 99.526 235.722C91.2027 241.795 82.9845 247.716 76.6153 252.183C73.43 254.418 70.7116 256.286 68.6753 257.627C67.6565 258.298 66.8146 258.834 66.1733 259.216C65.8524 259.407 65.588 259.556 65.3807 259.664C65.1607 259.778 65.0441 259.824 65.0042 259.835C64.7952 259.895 64.5023 259.87 64.0831 259.635C63.6613 259.399 63.1825 258.986 62.6663 258.406C61.6365 257.249 60.5738 255.559 59.6237 253.738C58.6774 251.925 57.8631 250.021 57.3207 248.462C57.0491 247.681 56.8504 247.001 56.7361 246.469C56.6789 246.202 56.6457 245.986 56.633 245.821C56.6265 245.738 56.6263 245.679 56.6277 245.641C56.6582 245.599 56.7014 245.543 56.7597 245.471C56.9093 245.286 57.1313 245.028 57.4259 244.697C58.0136 244.037 58.8671 243.113 59.9546 241.958C62.1285 239.648 65.222 236.43 68.9587 232.58C76.4313 224.879 86.4671 214.658 96.8414 204.135ZM56.5806 245.71C56.5804 245.71 56.5821 245.707 56.5863 245.7C56.5829 245.707 56.5808 245.71 56.5806 245.71Z"
          fill="#4B7BE5" stroke="#780000" stroke-width="1.5"/>
    <path d="M99.9568 63.4061L99.8242 58.0985L95.7727 58.8129L94.8612 63.5431C94.8368 63.7098 94.838 63.8782 94.8682 64.0495C95.0599 65.1368 96.3481 65.8194 97.7475 65.5727C99.0376 65.3452 99.9715 64.4048 99.9568 63.4061ZM104.079 64.4563C105.477 64.2097 106.455 63.1275 106.263 62.0402C106.256 61.9999 106.246 61.96 106.238 61.922L104.889 57.2055L100.838 57.9198L101.182 62.8093C101.187 62.8501 101.192 62.8908 101.2 62.9331C101.391 64.0204 102.68 64.7029 104.079 64.4563ZM109.184 64.6182L109.871 68.5121L100.023 70.2486L99.3374 66.3606C98.9335 66.5922 98.4745 66.7646 97.9732 66.8529C97.7812 66.8868 97.5911 66.897 97.4024 66.9038L98.5049 73.1564C98.6386 73.9147 99.3674 74.4259 100.125 74.2924L111.157 72.3471C111.915 72.2134 112.426 71.4826 112.292 70.7253L111.19 64.4738C111.009 64.5352 110.824 64.5844 110.636 64.6212C110.156 64.7053 109.664 64.7043 109.184 64.6182ZM112.429 60.4453L109.953 56.3126L105.902 57.0268L107.591 62.052C107.914 63.0002 109.114 63.5684 110.41 63.3399C111.809 63.0933 112.786 62.0111 112.595 60.9239C112.565 60.7525 112.508 60.5939 112.429 60.4453Z"
          fill="#780000"/>
    <path d="M89.5 60C91.433 60 93 58.433 93 56.5C93 54.567 91.433 53 89.5 53C87.567 53 86 54.567 86 56.5C86 58.433 87.567 60 89.5 60Z"
          fill="white"/>
</svg>
