<svg width="500" height="451" viewBox="0 0 500 451" fill="none" xmlns="http://www.w3.org/2000/svg">
<path d="M72.1304 174.964C62.1498 117.591 79.5446 50.5452 122.763 23.8515C174.828 -4.09691 301.449 -22.4264 426.054 62.5584C449.364 89.2521 446.712 136.996 437.155 175.272C427.513 213.671 410.848 242.73 387.577 277.432C364.307 312.135 334.166 352.603 294.675 361.936C255.183 371.268 205.93 349.415 162.705 314.706C119.48 279.997 82.0778 232.253 72.1304 174.964Z" fill="#FEA895" fill-opacity="0.5"/>
<path d="M241.058 71.2907C240.867 71.385 240.683 71.4774 240.506 71.5676C240.506 70.6606 240.628 69.7141 241.058 71.2907C247.733 67.998 263.363 62.3094 276.899 63.8996C290.823 65.5354 295.359 75.146 295.886 79.7467L296.414 85.8811C295.886 88.9483 294.409 95.5938 292.722 97.6386C291.034 99.6834 294.128 111.441 295.886 117.064L276.899 122.176L274.262 110.93C267.053 111.271 251.055 107.249 244.726 88.4371C244.023 85.3699 242.405 78.1109 241.561 73.6124C241.359 72.5346 241.193 71.7874 241.058 71.2907Z" fill="white"/>
<path d="M257.911 140.579C261.287 130.355 271.976 122.687 276.899 120.131C280.767 120.642 290.19 121.358 296.941 120.131C303.692 118.904 308.193 122.346 309.599 124.221C299.895 125.039 296.765 132.4 296.414 135.978C291.35 146.202 297.82 169.206 301.688 179.43C302.532 183.929 306.962 183.69 309.072 183.008L313.819 195.788C309.177 194.562 291.842 192.892 283.755 192.21C259.705 190.574 250.176 188.802 248.418 188.12C250 154.893 253.692 153.359 257.911 140.579Z" fill="white"/>
<path d="M244.887 205.494C244.83 206.094 244.733 206.688 244.595 207.275C243.269 212.096 228.792 271.094 228.792 271.094L251.85 264.917C254.683 258.69 257.163 252.317 259.277 245.827" fill="white"/>
<path d="M244.887 205.494C244.83 206.094 244.733 206.688 244.595 207.275C243.269 212.096 228.792 271.094 228.792 271.094L251.85 264.917C254.683 258.69 257.163 252.317 259.277 245.827" stroke="#780000" stroke-width="1.5" stroke-linecap="round" stroke-linejoin="round"/>
<path d="M245.592 169.712C245.354 173.626 245.38 181.326 245.354 188.789" stroke="#780000" stroke-width="1.5" stroke-linecap="round" stroke-linejoin="round"/>
<path d="M255.136 425.705V269.158H416.684V425.705H255.136Z" fill="#780000" stroke="#780000"/>
<path d="M314.89 293.289H397.938" stroke="white" stroke-width="1.5" stroke-linecap="round" stroke-linejoin="round"/>
<path d="M314.89 306.896H351.709" stroke="white" stroke-width="1.5" stroke-linecap="round" stroke-linejoin="round"/>
<path d="M314.89 340.628H397.938" stroke="white" stroke-width="1.5" stroke-linecap="round" stroke-linejoin="round"/>
<path d="M314.89 354.235H351.709" stroke="white" stroke-width="1.5" stroke-linecap="round" stroke-linejoin="round"/>
<path d="M314.89 387.96H397.938" stroke="white" stroke-width="1.5" stroke-linecap="round" stroke-linejoin="round"/>
<path d="M314.89 401.567H351.709" stroke="white" stroke-width="1.5" stroke-linecap="round" stroke-linejoin="round"/>
<path d="M195.455 142.209C195.417 142.04 195.559 141.887 195.731 141.911L205.512 143.245C205.615 143.259 205.699 143.334 205.724 143.435L212.895 172.007C212.935 172.166 212.813 172.318 212.649 172.314L202.36 172.093C202.244 172.09 202.143 172.008 202.118 171.895L195.455 142.209Z" fill="white" stroke="#780000" stroke-width="1.5"/>
<path d="M227.219 347.886L227.16 348.04L227.171 348.205L230.939 404.223C230.885 404.241 230.828 404.26 230.768 404.28C230.307 404.435 229.644 404.657 228.832 404.927C227.209 405.467 224.995 406.199 222.629 406.967C218.094 408.438 213.047 410.025 210.529 410.649C210.466 410.595 210.391 410.526 210.301 410.44C210.073 410.221 209.788 409.922 209.449 409.543C208.772 408.787 207.901 407.737 206.867 406.421C204.799 403.789 202.094 400.117 199.004 395.65C192.824 386.716 185.115 374.622 177.88 361.348C170.644 348.071 163.894 333.635 159.62 320.012C155.344 306.385 153.581 293.678 156.184 283.781C156.196 283.764 156.239 283.712 156.346 283.625C156.52 283.484 156.79 283.312 157.172 283.11C157.932 282.709 159.038 282.244 160.461 281.724C163.301 280.687 167.311 279.467 172.127 278.133C181.754 275.469 194.541 272.371 207.486 269.416C220.429 266.461 233.521 263.65 243.757 261.558C248.875 260.511 253.277 259.646 256.588 259.031C258.81 258.619 260.514 258.326 261.611 258.165L227.219 347.886Z" fill="#BA381C" stroke="#780000" stroke-width="1.5"/>
<path d="M125.887 424.025L117.107 408.766L99.4466 417.694L64.2856 394.613L89.9965 444.118L125.887 424.025Z" fill="white" stroke="#780000" stroke-width="1.5" stroke-linecap="round" stroke-linejoin="round"/>
<path d="M230.073 403.651L213.971 409.153L217.804 422.458L192.021 450L239.549 434.779L230.073 403.651Z" fill="white" stroke="#780000" stroke-width="1.5" stroke-linecap="round" stroke-linejoin="round"/>
<path d="M260.261 135.993C250.228 140.621 242.283 164.21 243.225 167.405C243.735 169.134 246.375 170.31 249.412 171.081" fill="white"/>
<path d="M260.261 135.993C250.228 140.621 242.283 164.21 243.225 167.405C243.735 169.134 246.375 170.31 249.412 171.081" stroke="#780000" stroke-width="1.5" stroke-linecap="round" stroke-linejoin="round"/>
<path d="M248.549 189.079C248.098 156.877 257.833 129.617 276.349 120.163" stroke="#780000" stroke-width="1.5" stroke-linecap="round" stroke-linejoin="round"/>
<path d="M341.322 213.446C342.204 223.44 342.343 230.607 342.224 232.33C337.489 247.396 280.695 265.496 263.214 255.591C256.436 240.137 251.922 223.839 249.805 207.172" fill="white"/>
<path d="M341.322 213.446C342.204 223.44 342.343 230.607 342.224 232.33C337.489 247.396 280.695 265.496 263.214 255.591C256.436 240.137 251.922 223.839 249.805 207.172" stroke="#780000" stroke-width="1.5" stroke-linecap="round" stroke-linejoin="round"/>
<path d="M338.945 171.608C341.75 178.968 346.425 202.885 345.908 206.259C345.337 209.948 336.623 219.236 333.52 219.442C289.393 222.347 241.532 205.256 232.586 200.455C213.872 199.009 202.797 192.459 202.797 182.882C202.797 177.226 206.033 173.151 207.817 173.151C211.199 173.151 217.208 178.8 217.931 180.452C216.478 177.547 211.902 172.212 215.669 172.212C216.717 172.212 225.219 183.73 229.834 186.526C231.101 187.291 237.083 188.03 245.359 188.789" fill="white"/>
<path d="M338.945 171.608C341.75 178.968 346.425 202.885 345.908 206.259C345.337 209.948 336.623 219.236 333.52 219.442C289.393 222.347 241.532 205.256 232.586 200.455C213.872 199.009 202.797 192.459 202.797 182.882C202.797 177.226 206.033 173.151 207.817 173.151C211.199 173.151 217.208 178.8 217.931 180.452C216.478 177.547 211.902 172.212 215.669 172.212C216.717 172.212 225.219 183.73 229.834 186.526C231.101 187.291 237.083 188.03 245.359 188.789" stroke="#780000" stroke-width="1.5" stroke-linecap="round" stroke-linejoin="round"/>
<path d="M245.354 188.821C267.105 190.82 304.74 192.999 314.415 196.405C313.195 194.047 310.397 187.259 308.878 182.965" stroke="#780000" stroke-width="1.5" stroke-linecap="round" stroke-linejoin="round"/>
<path d="M205.579 83.6149L174.287 89.495C170.827 90.1452 168.566 93.3909 169.237 96.7444L175.304 127.074C175.974 130.427 179.323 132.619 182.783 131.968L214.075 126.088C217.535 125.438 219.796 122.192 219.125 118.839L213.059 88.5098C212.388 85.1563 209.039 82.9647 205.579 83.6149Z" fill="white"/>
<path d="M199.832 136.829L203.733 126.94L191.829 128.978L199.832 136.829Z" fill="#780000"/>
<path d="M308.881 182.935C306.367 183.346 304.517 183.41 303.794 182.999C300.16 180.916 284.795 132.382 304.922 125.234C307.023 124.47 309.298 124.27 311.507 124.656" fill="white"/>
<path d="M308.881 182.935C306.367 183.346 304.517 183.41 303.794 182.999C300.16 180.916 284.795 132.382 304.922 125.234C307.023 124.47 309.298 124.27 311.507 124.656" stroke="#780000" stroke-width="1.5" stroke-linecap="round" stroke-linejoin="round"/>
<path d="M311.48 124.654C328.549 127.63 341.169 164.113 340.586 169.236C340.055 173.857 319.033 181.255 308.854 182.933" fill="white"/>
<path d="M311.48 124.654C328.549 127.63 341.169 164.113 340.586 169.236C340.055 173.857 319.033 181.255 308.854 182.933" stroke="#780000" stroke-width="1.5" stroke-linecap="round" stroke-linejoin="round"/>
<path d="M276.331 120.169C275.668 116.865 274.832 113.291 274.03 110.74" stroke="#780000" stroke-width="1.5" stroke-linecap="round" stroke-linejoin="round"/>
<path d="M295.806 117.013C296.1 117.994 296.482 118.949 296.946 119.867C295.759 122.129 283.557 128.705 277.714 127.297C277.409 125.684 276.912 123.023 276.322 120.169" fill="white"/>
<path d="M295.806 117.013C296.1 117.994 296.482 118.949 296.946 119.867C295.759 122.129 283.557 128.705 277.714 127.297C277.409 125.684 276.912 123.023 276.322 120.169" stroke="#780000" stroke-width="1.5" stroke-linecap="round" stroke-linejoin="round"/>
<path d="M292.751 97.7297C292.804 101.233 293.971 111.183 295.808 117.012" stroke="#780000" stroke-width="1.5" stroke-linecap="round" stroke-linejoin="round"/>
<path d="M283.661 107.654C281.836 108.757 279.851 109.589 277.772 110.122C263.567 113.779 248.214 102.75 243.493 85.4851C242.628 82.3553 242.16 79.1348 242.1 75.8952" stroke="#780000" stroke-width="1.5" stroke-linecap="round" stroke-linejoin="round"/>
<path d="M296.339 82.4656C296.385 87.7567 295.159 92.9855 292.758 97.7375" stroke="#780000" stroke-width="1.5" stroke-linecap="round" stroke-linejoin="round"/>
<path d="M281.716 78.4599C280.244 78.537 274.627 75.7603 273.38 67.4302C269.328 66.7874 251.463 68.6321 242.099 75.786C238.631 77.0715 235.819 78.1449 230.573 78.1449C228.086 78.1449 225.977 75.6253 225.977 73.8963C225.977 69.1335 228.086 64.5185 234.247 64.2099C229.061 64.1007 224.253 60.9962 224.253 58.7079C224.253 55.6677 231.382 46.3413 243.816 50.4292C240.899 48.3853 237.603 46.3927 237.603 44.458C237.603 41.1285 242.51 37.934 251.131 37.934C264.394 37.934 278.918 43.2753 282.048 47.0997C283.507 46.367 285.364 45.0044 288.912 45.0044C297.778 45.0044 300.749 72.8229 296.916 82.1493C295.967 82.7404 294.904 83.1404 293.792 83.3256" fill="#780000"/>
<path d="M281.716 78.4599C280.244 78.537 274.627 75.7603 273.38 67.4302C269.328 66.7874 251.463 68.6321 242.099 75.786C238.631 77.0715 235.819 78.1449 230.573 78.1449C228.086 78.1449 225.977 75.6253 225.977 73.8963C225.977 69.1335 228.086 64.5185 234.247 64.2099C229.061 64.1007 224.253 60.9962 224.253 58.7079C224.253 55.6677 231.382 46.3413 243.816 50.4292C240.899 48.3853 237.603 46.3927 237.603 44.458C237.603 41.1285 242.51 37.934 251.131 37.934C264.394 37.934 278.918 43.2753 282.048 47.0997C283.507 46.367 285.364 45.0044 288.912 45.0044C297.778 45.0044 300.749 72.8229 296.916 82.1493C295.967 82.7404 294.904 83.1404 293.792 83.3256" stroke="#780000" stroke-width="1.5" stroke-linecap="round" stroke-linejoin="round"/>
<path d="M180.975 336.159C215.414 302.302 252.039 266.562 262.697 256.166L262.833 256.244C267.235 258.736 273.898 259.487 281.42 259.058C288.973 258.628 297.516 256.999 305.773 254.616C314.031 252.232 322.029 249.084 328.491 245.601C334.343 242.446 339.038 238.962 341.464 235.442C342.845 237.763 344.175 241.037 345.243 244.283C346.469 248.013 347.313 251.595 347.494 253.502L348.24 253.431L347.494 253.502C348.743 266.633 344.114 278.443 336.201 288.889C328.282 299.345 317.098 308.402 305.32 315.984C285.146 328.971 263.367 337.552 253.547 341.421C251.898 342.071 250.586 342.588 249.676 342.97L249.576 343.012L249.493 343.08C243.552 347.913 214.566 368.912 186.242 388.942C172.086 398.953 158.107 408.713 147.272 416.08C141.854 419.764 137.226 422.846 133.757 425.061C132.021 426.169 130.582 427.056 129.482 427.692C128.347 428.348 127.653 428.687 127.366 428.766C126.822 428.917 126.17 428.817 125.383 428.39C124.594 427.961 123.736 427.236 122.839 426.259C121.048 424.308 119.219 421.483 117.595 418.468C115.975 415.459 114.581 412.3 113.65 409.707C113.185 408.41 112.84 407.268 112.64 406.366C112.54 405.915 112.479 405.537 112.455 405.238C112.435 404.985 112.445 404.825 112.459 404.738C112.468 404.726 112.479 404.71 112.493 404.69C112.554 404.606 112.647 404.486 112.779 404.328C113.041 404.014 113.425 403.581 113.928 403.034C114.932 401.94 116.387 400.414 118.238 398.509C121.937 394.7 127.2 389.394 133.555 383.046C146.265 370.352 163.332 353.503 180.975 336.159Z" fill="#BA381C" stroke="#780000" stroke-width="1.5"/>
<path d="M281.452 79.0644C281.892 77.8515 282.702 76.7966 283.774 76.0397C284.846 75.2827 286.13 74.8593 287.456 74.8255C288.782 74.7917 290.087 75.1492 291.199 75.8506C292.31 76.552 293.176 77.5642 293.681 78.753C294.185 79.9419 294.306 81.2514 294.025 82.508C293.745 83.7645 293.077 84.9089 292.111 85.7895C291.145 86.6701 289.925 87.2453 288.614 87.4389C287.302 87.6326 285.961 87.4355 284.768 86.8739" fill="white"/>
<path d="M281.452 79.0644C281.892 77.8515 282.702 76.7966 283.774 76.0397C284.846 75.2827 286.13 74.8593 287.456 74.8255C288.782 74.7917 290.087 75.1492 291.199 75.8506C292.31 76.552 293.176 77.5642 293.681 78.753C294.185 79.9419 294.306 81.2514 294.025 82.508C293.745 83.7645 293.077 84.9089 292.111 85.7895C291.145 86.6701 289.925 87.2453 288.614 87.4389C287.302 87.6326 285.961 87.4355 284.768 86.8739" stroke="#780000" stroke-width="1.5" stroke-linecap="round" stroke-linejoin="round"/>
<path d="M296.941 119.62C299.754 119.109 306.224 119.313 309.599 124.221" stroke="#780000" stroke-width="1.5"/>
<path d="M186.658 104.534L186.433 95.7854L179.543 96.9629L177.993 104.759C177.951 105.034 177.953 105.312 178.005 105.594C178.331 107.386 180.521 108.511 182.901 108.105C185.095 107.73 186.683 106.18 186.658 104.534ZM193.668 106.265C196.046 105.858 197.709 104.074 197.383 102.282C197.371 102.216 197.354 102.15 197.339 102.087L195.046 94.3134L188.156 95.4909L188.741 103.55C188.75 103.617 188.759 103.684 188.772 103.754C189.098 105.546 191.29 106.671 193.668 106.265ZM202.351 106.531L203.518 112.95L186.771 115.812L185.605 109.403C184.918 109.785 184.137 110.069 183.285 110.215C182.958 110.271 182.635 110.288 182.314 110.299L184.189 120.605C184.416 121.855 185.656 122.697 186.944 122.477L205.704 119.271C206.994 119.05 207.863 117.846 207.636 116.598L205.761 106.293C205.453 106.395 205.138 106.476 204.819 106.536C204.002 106.675 203.167 106.673 202.351 106.531ZM207.869 99.6536L203.657 92.8417L196.769 94.0189L199.64 102.302C200.19 103.865 202.231 104.801 204.435 104.425C206.813 104.018 208.476 102.234 208.15 100.442C208.099 100.16 208.003 99.8984 207.869 99.6536Z" fill="#780000"/>
<path d="M168.871 98.9195C172.159 98.9195 174.824 96.3367 174.824 93.1506C174.824 89.9645 172.159 87.3817 168.871 87.3817C165.584 87.3817 162.919 89.9645 162.919 93.1506C162.919 96.3367 165.584 98.9195 168.871 98.9195Z" fill="white"/>
</svg>
