<svg width="280" height="260" viewBox="0 0 280 260" fill="none" xmlns="http://www.w3.org/2000/svg">
    <path d="M36.5336 125.801C30.9444 92.6521 40.6855 53.9144 64.8878 38.4913C94.0445 22.3433 164.952 11.7529 234.731 60.8553C247.785 76.2784 246.299 103.864 240.948 125.979C235.548 148.165 226.215 164.954 213.184 185.005C200.152 205.055 183.274 228.437 161.158 233.829C139.043 239.221 111.461 226.595 87.2555 206.541C63.0495 186.487 42.1042 158.901 36.5336 125.801Z" fill="#4B7BE5" fill-opacity="0.5"/>
    <path d="M63.2162 231.55C79.5335 243.291 100.679 243.88 121.119 242.438C123.974 242.237 126.808 242.001 129.615 241.746C129.632 241.742 129.654 241.743 129.672 241.739C129.807 241.726 129.942 241.713 130.071 241.706C130.65 241.652 131.23 241.598 131.804 241.543L131.669 241.801L131.243 242.603C131.396 242.335 131.549 242.072 131.702 241.804C131.747 241.723 131.797 241.643 131.842 241.562C137.137 232.359 142.389 222.818 143.728 212.309C145.113 201.401 141.222 189.049 131.61 183.688C130.349 182.987 129.014 182.428 127.63 182.023C127.055 181.848 126.472 181.707 125.883 181.582C122.278 180.782 118.525 180.956 115.01 182.086C111.495 183.215 108.344 185.259 105.882 188.008C103.42 190.757 101.735 194.111 101.002 197.726C100.268 201.34 100.511 205.085 101.706 208.574C93.5571 200.228 95.0773 186.689 97.8883 175.373C100.705 164.058 104.114 151.467 98.386 141.303C95.2016 135.646 89.6017 132.136 83.3172 130.722C83.1245 130.681 82.9319 130.639 82.7388 130.603C75.251 129.088 67.4667 130.451 60.9407 134.418C48.9243 141.981 42.7526 156.321 40.7495 170.368C37.5221 192.973 44.6643 218.2 63.2162 231.55Z" fill="#4B7BE5"/>
    <path d="M68.4159 195.717C68.8913 200.702 70.0948 205.592 71.9883 210.232C73.7334 214.338 76.0855 218.161 78.9667 221.575C84.8523 228.62 92.6347 233.917 101.087 237.446C107.549 240.08 114.32 241.891 121.239 242.835C124.103 242.634 126.948 242.398 129.765 242.143C129.782 242.139 129.805 242.14 129.822 242.136C129.957 242.123 130.093 242.11 130.223 242.102C130.804 242.048 131.386 241.994 131.962 241.94L131.826 242.198L131.399 243C131.552 242.732 131.706 242.469 131.859 242.2C131.905 242.12 131.955 242.04 132 241.959C126.813 236.816 122.94 230.511 120.706 223.572C118.472 216.634 117.942 209.263 119.16 202.078C120.435 194.944 123.386 188.211 127.773 182.427C127.196 182.253 126.611 182.111 126.02 181.986C124.353 184.254 122.89 186.664 121.65 189.188C117.199 198.191 115.778 208.38 117.6 218.249C119.293 227.179 123.511 235.442 129.759 242.07C129.212 242.032 128.66 241.987 128.119 241.938C117.88 241.075 107.661 238.884 98.3737 234.397C90.4351 230.655 83.5431 225.028 78.3046 218.011C72.6799 210.291 70.2013 201.006 69.7756 191.569C69.3241 181.465 70.6415 171.185 72.9585 161.359C75.3245 151.286 78.9202 141.54 83.6655 132.336C83.7717 132.127 83.7931 131.886 83.7254 131.662C83.6577 131.438 83.506 131.248 83.3018 131.132C83.1316 131.018 82.9229 130.976 82.7212 131.014C82.6225 131.04 82.531 131.087 82.4535 131.153C82.3759 131.22 82.3144 131.302 82.2734 131.395C81.688 132.532 81.1135 133.67 80.5608 134.82C75.9581 144.403 72.5694 154.517 70.4727 164.931C68.4372 174.977 67.3508 185.487 68.4159 195.717Z" fill="white"/>
    <path d="M176.5 38.5C176.5 48.4411 168.441 56.5 158.5 56.5C148.559 56.5 140.5 48.4411 140.5 38.5C140.5 28.5589 148.559 20.5 158.5 20.5C168.441 20.5 176.5 28.5589 176.5 38.5Z" fill="#4B7BE5" stroke="#780000"/>
    <path d="M175.5 42C175.5 49.9928 168.8 56.5 160.5 56.5C152.2 56.5 145.5 49.9928 145.5 42C145.5 34.0072 152.2 27.5 160.5 27.5C168.8 27.5 175.5 34.0072 175.5 42Z" fill="#EDA392" stroke="#780000"/>
    <path d="M217.357 89.0426L217.623 89.052L217.78 88.8365C217.962 88.5853 218.164 88.3487 218.383 88.1288C219.238 87.2852 220.332 86.7199 221.519 86.5086C222.705 86.2973 223.929 86.4501 225.026 86.9466C226.123 87.4431 227.041 88.2594 227.66 89.2866C228.278 90.3138 228.566 91.5033 228.487 92.6971C228.408 93.8908 227.965 95.0327 227.217 95.9708C226.469 96.909 225.451 97.599 224.298 97.9486C223.144 98.2981 221.911 98.2904 220.763 97.9266C219.614 97.5627 218.604 96.8601 217.868 95.9128L217.697 95.6922L217.419 95.7225L183.041 99.4738C182.093 99.5773 181.137 99.3723 180.317 98.89C179.496 98.4077 178.856 97.6743 178.492 96.8004L173.661 85.2206L183.286 81.6213L186.554 87.7125L186.69 87.9657L186.977 87.9758L217.357 89.0426Z" stroke="#780000"/>
    <path d="M169.014 90.2823L169.014 90.2821C168.68 90.1365 168.384 89.9231 168.144 89.6574C167.905 89.3916 167.728 89.0797 167.625 88.7433L167.625 88.7432L163.271 74.5319L163.26 74.4959L163.244 74.4619C162.357 72.616 162.259 70.5047 162.971 68.5894C163.684 66.6737 165.15 65.1065 167.053 64.2356C168.957 63.3645 171.139 63.2628 173.12 63.9534C175.101 64.6439 176.715 66.0685 177.613 67.9102L177.629 67.9425L177.649 67.9722L186.083 80.3836C186.083 80.3836 186.083 80.3836 186.083 80.3836C186.283 80.6777 186.415 81.0093 186.47 81.3559C186.526 81.7024 186.504 82.0565 186.406 82.3943C186.308 82.7322 186.136 83.0465 185.9 83.3157C185.665 83.5849 185.372 83.8026 185.041 83.9531L171.137 90.2669L171.137 90.267C170.806 90.4177 170.444 90.4973 170.078 90.4999C169.711 90.5026 169.348 90.4282 169.014 90.2823Z" fill="#EDA392" stroke="#780000"/>
    <path d="M198.548 236L205 232.379L194.523 205L185 210.344L198.548 236Z" fill="#FFB8B8"/>
    <path d="M196 234.843L209.029 228.095L209.03 228.095C210.12 227.53 211.317 227.175 212.551 227.05C213.786 226.926 215.034 227.033 216.225 227.368C217.416 227.702 218.526 228.256 219.491 228.999C220.457 229.741 221.26 230.657 221.853 231.694L222 231.951L200.667 243L196 234.843Z" fill="#4B7BE5"/>
    <path d="M125.078 235.792L139.736 236.463L139.737 236.463C140.964 236.519 142.177 236.81 143.309 237.319C144.44 237.829 145.468 238.546 146.332 239.431C147.196 240.316 147.88 241.351 148.345 242.477C148.81 243.602 149.047 244.797 149.042 245.992L149.041 246.288L125.042 245.19L125.078 235.792Z" fill="#4B7BE5"/>
    <path d="M126.002 236H133.454L137 207L126 207.001L126.002 236Z" fill="#FFB8B8"/>
    <path d="M154.066 152.685C153.84 152.566 153.583 152.518 153.33 152.55C153.077 152.582 152.839 152.692 152.651 152.863C152.462 153.035 152.332 153.261 152.277 153.51L136.754 224.061C136.633 224.611 136.328 225.103 135.888 225.455C135.449 225.808 134.902 226 134.338 226H126.472L202.873 219.125C202.982 219.45 203.021 219.793 202.989 220.134C202.957 220.475 202.855 220.806 202.688 221.105C202.521 221.404 202.294 221.665 202.02 221.872C201.747 222.079 201.433 222.227 201.1 222.306L192.644 224.314C192.102 224.443 191.533 224.386 191.028 224.152C190.523 223.918 190.113 223.521 189.862 223.025L154.589 153.219C154.474 152.992 154.291 152.805 154.066 152.685ZM154.066 152.685L154.3 152.244C153.984 152.076 153.623 152.009 153.268 152.054C152.912 152.099 152.579 152.252 152.314 152.494C152.049 152.735 151.866 153.053 151.789 153.402L136.266 223.954C136.169 224.392 135.926 224.784 135.575 225.065C135.225 225.347 134.788 225.5 134.338 225.5H126.472H126.471C126.21 225.5 125.951 225.449 125.71 225.348C125.468 225.248 125.25 225.1 125.066 224.915L124.711 225.265L125.066 224.915C124.883 224.729 124.739 224.509 124.641 224.267L124.177 224.454L124.641 224.267C124.544 224.026 124.496 223.767 124.5 223.507L124.5 223.506C124.592 217.284 124.634 210.957 124.675 204.631C124.797 186.065 124.919 167.524 126.306 151.765C127.236 141.202 128.732 131.926 131.164 124.752C133.6 117.563 136.941 112.59 141.485 110.473L141.668 110.388L141.741 110.2L144.685 102.563L172.344 107.362L174.785 136.589L174.79 136.649L174.809 136.706L202.399 219.283C202.485 219.542 202.517 219.816 202.491 220.088C202.466 220.359 202.384 220.623 202.251 220.861C202.118 221.1 201.937 221.308 201.719 221.473C201.501 221.638 201.25 221.756 200.984 221.819L192.528 223.828C192.096 223.931 191.641 223.885 191.239 223.698C190.836 223.511 190.508 223.195 190.308 222.799L155.035 152.994C154.874 152.674 154.617 152.412 154.3 152.244L154.066 152.685Z" fill="#4B7BE5" stroke="#780000"/>
    <path d="M140.752 84.2777L140.752 84.277C140.242 81.1798 140.509 78.0025 141.53 75.0379C142.55 72.0734 144.29 69.4176 146.589 67.315L146.589 67.315L146.592 67.3128C148.838 65.2314 151.564 63.7571 154.519 63.0251C157.475 62.2932 160.564 62.3269 163.503 63.1233L163.634 62.6407L163.503 63.1233C163.679 63.1709 163.856 63.2206 164.034 63.2712C167.651 64.321 170.864 66.4707 173.239 69.4312C175.614 72.3922 177.036 76.0213 177.311 79.8284C177.909 88.1732 177.371 100.202 171.512 110.422L143.862 103.339L140.752 84.2777Z" fill="#EDA392" stroke="#780000"/>
    <path d="M172.343 29.9177C173.363 31.1386 173.741 32.8558 173.217 34.2024C170.245 35.8248 166.877 36.679 163.442 36.6657L161.788 36.6593L163.161 37.5809C164.056 38.181 165.022 38.6671 166.036 39.03C161.312 39.7463 156.487 39.644 151.789 38.7219L151.779 38.72L151.769 38.7185C150.602 38.5374 149.476 38.1631 148.441 37.6126C147.961 37.3531 147.545 36.9997 147.218 36.576C146.893 36.1554 146.663 35.6749 146.542 35.1653C146.394 34.3246 146.65 33.4945 147.174 32.7012C147.702 31.9017 148.482 31.1744 149.298 30.5766C151.827 28.7543 154.745 27.498 157.839 26.8996C160.933 26.3011 164.126 26.3757 167.187 27.1179C169.194 27.6203 171.117 28.4504 172.343 29.9177Z" fill="#4B7BE5" stroke="#780000"/>
    <path d="M157.797 20.9832L157.785 21.0213L157.78 21.0608C157.689 21.7178 157.228 22.2411 156.527 22.577C155.825 22.9141 154.943 23.027 154.168 22.8852C153.358 22.7369 152.588 22.4165 151.781 22.0471C151.647 21.9858 151.512 21.923 151.375 21.8594C150.703 21.5476 149.997 21.2195 149.261 20.985C144.738 19.5423 139.803 21.8264 136.659 25.1424C134.025 27.9212 132.303 31.3813 130.631 34.7403C130.314 35.3769 129.999 36.0098 129.679 36.6338C127.658 40.5863 125.254 44.453 121.542 46.6655C115.071 50.5215 105.968 47.9552 101.052 42.1253C97.1855 37.54 95.5674 31.4888 95.5019 25.3957C95.7523 26.1723 96.0661 26.9304 96.4416 27.6621C97.5946 29.909 99.2932 31.8372 101.385 33.2742C103.476 34.7113 105.895 35.6124 108.424 35.8972C110.953 36.182 113.515 35.8417 115.879 34.9066C119.45 33.4939 122.181 30.9355 124.482 27.9605C126.399 25.4812 128.04 22.6816 129.619 19.9864C129.93 19.4557 130.239 18.9291 130.547 18.4097C132.417 15.2541 134.698 12.0521 137.414 9.62504C140.128 7.2005 143.249 5.57314 146.815 5.50193C150.3 5.43232 153.578 7.25894 155.777 9.98174C157.975 12.7015 159.05 16.2563 158.219 19.5926L157.797 20.9832Z" fill="#4B7BE5" stroke="#780000"/>
    <path d="M124.454 138.915L124.638 138.804L124.683 138.593L137.366 79.697L149.395 84.8117L132.842 141.122L132.788 141.307L132.871 141.48C133.531 142.846 133.684 144.417 133.301 145.893C132.917 147.37 132.026 148.645 130.8 149.48C129.575 150.315 128.099 150.654 126.652 150.435C125.205 150.217 123.881 149.456 122.934 148.291L122.932 148.288L122.88 148.224C122.339 147.55 121.942 146.763 121.716 145.916C121.483 145.041 121.438 144.124 121.584 143.228C121.73 142.333 122.063 141.483 122.559 140.738C123.056 139.993 123.703 139.371 124.454 138.915Z" stroke="#780000"/>
    <path d="M131.822 87.373L131.822 87.3725C131.645 87.0721 131.539 86.7398 131.509 86.3983C131.479 86.0569 131.526 85.7129 131.647 85.3895L131.647 85.3894L136.801 71.6604L136.815 71.6246L136.823 71.5871C137.233 69.6267 138.438 67.8963 140.182 66.7797C141.926 65.6627 144.064 65.2534 146.126 65.645C148.187 66.0367 149.997 67.1955 151.162 68.8604C152.326 70.5243 152.753 72.5598 152.354 74.5218L152.347 74.5579L152.345 74.5948L151.562 89.2151C151.562 89.2152 151.562 89.2152 151.562 89.2152C151.543 89.5575 151.448 89.8928 151.282 90.1985C151.116 90.5043 150.882 90.7738 150.595 90.9876C150.308 91.2016 149.975 91.3545 149.619 91.435C149.262 91.5155 148.891 91.5213 148.532 91.452L133.528 88.5575L133.528 88.5575C133.169 88.4884 132.83 88.3459 132.536 88.1409C132.242 87.936 131.999 87.6737 131.822 87.373Z" fill="#EDA392" stroke="#780000"/>
    <path d="M239.368 81.5698L239.151 81.5402L239.968 75.6374C240.093 74.7313 239.851 73.8128 239.295 73.0841C238.739 72.3553 237.915 71.8759 237.003 71.7513L224.421 70.0321C223.509 69.9076 222.585 70.1481 221.852 70.7007C221.119 71.2534 220.636 72.0729 220.511 72.979L216.032 105.363C215.907 106.269 216.149 107.187 216.705 107.916C217.261 108.645 218.085 109.124 218.997 109.249L231.579 110.968C232.491 111.092 233.415 110.852 234.148 110.299C234.881 109.747 235.364 108.927 235.489 108.021L238.57 85.7419L238.787 85.7715L239.368 81.5698Z" fill="#3F3D56"/>
    <path d="M236.792 72.6972L235.171 72.4797C235.221 72.6681 235.222 72.8654 235.175 73.0543C235.128 73.2433 235.034 73.418 234.901 73.5631C234.768 73.7082 234.601 73.8192 234.414 73.8864C234.227 73.9536 234.026 73.9749 233.829 73.9484L226.717 72.994C226.52 72.9675 226.332 72.8941 226.171 72.7801C226.009 72.6662 225.879 72.5153 225.792 72.3406C225.704 72.166 225.662 71.973 225.669 71.7787C225.675 71.5844 225.731 71.3947 225.831 71.2263L224.317 71.0233C223.985 70.9786 223.646 70.9984 223.322 71.0814C222.997 71.1644 222.692 71.309 222.424 71.5071C222.157 71.7051 221.932 71.9526 221.762 72.2355C221.593 72.5184 221.482 72.8311 221.436 73.1558L217.024 104.491C216.978 104.815 216.998 105.146 217.083 105.463C217.168 105.78 217.317 106.077 217.519 106.338C217.722 106.6 217.976 106.819 218.266 106.985C218.555 107.15 218.876 107.258 219.208 107.303L231.683 108.977C232.354 109.067 233.035 108.893 233.576 108.493C234.116 108.093 234.471 107.5 234.564 106.844L238.976 75.5093C239.069 74.8536 238.89 74.189 238.481 73.6616C238.071 73.1342 237.463 72.7873 236.792 72.6971L236.792 72.6972Z" fill="#4B7BE5"/>
    <path d="M227.5 99C231.09 99 234 96.0899 234 92.5C234 88.9101 231.09 86 227.5 86C223.91 86 221 88.9101 221 92.5C221 96.0899 223.91 99 227.5 99Z" fill="#780000"/>
    <path d="M226.35 95C226.194 95.0003 226.043 94.9525 225.918 94.8637L225.91 94.8582L224.285 93.6753C224.209 93.6206 224.146 93.5523 224.098 93.4742C224.05 93.3961 224.019 93.3098 224.006 93.2203C223.994 93.1308 224 93.0398 224.024 92.9525C224.049 92.8652 224.091 92.7834 224.149 92.7117C224.207 92.64 224.279 92.5799 224.361 92.5347C224.443 92.4895 224.534 92.4603 224.629 92.4486C224.723 92.4369 224.818 92.4429 224.91 92.4665C225.002 92.49 225.088 92.5304 225.163 92.5856L226.216 93.353L228.705 90.2688C228.762 90.1972 228.834 90.1372 228.916 90.0921C228.998 90.047 229.089 90.0177 229.183 90.0059C229.277 89.9941 229.373 90 229.464 90.0233C229.556 90.0466 229.642 90.0869 229.717 90.1417L229.702 90.1617L229.718 90.142C229.869 90.2529 229.969 90.4165 229.994 90.5969C230.019 90.7773 229.968 90.9598 229.851 91.1044L226.924 94.7321C226.857 94.8157 226.77 94.8834 226.67 94.9298C226.57 94.9763 226.461 95.0003 226.35 95Z" fill="white"/>
</svg>
