<svg width="500" height="450" viewBox="0 0 500 450" fill="none" xmlns="http://www.w3.org/2000/svg">
<path d="M65.2385 217.732C55.2579 160.359 72.6527 93.3134 115.871 66.6196C167.937 38.6712 294.558 20.3416 419.162 105.327C442.472 132.02 439.82 179.764 430.264 218.041C420.621 256.439 403.956 285.498 380.685 320.201C357.415 354.903 327.274 395.371 287.783 404.704C248.292 414.037 199.038 392.183 155.813 357.474C112.588 322.765 75.186 275.021 65.2385 217.732Z" fill="#FEA895" fill-opacity="0.5"/>
<path d="M112.886 400.76C142.024 421.08 179.785 422.101 216.285 419.604C221.382 419.256 226.442 418.848 231.456 418.407C231.486 418.399 231.526 418.402 231.557 418.395C231.798 418.372 232.039 418.35 232.27 418.337C233.305 418.243 234.34 418.15 235.365 418.055L235.123 418.502L234.363 419.891C234.636 419.426 234.909 418.971 235.182 418.506C235.262 418.367 235.352 418.228 235.432 418.089C244.888 402.16 254.266 385.646 256.658 367.457C259.131 348.578 252.182 327.2 235.018 317.921C232.767 316.708 230.383 315.741 227.91 315.04C226.884 314.738 225.843 314.493 224.791 314.276C218.354 312.892 211.652 313.193 205.375 315.148C199.098 317.103 193.472 320.641 189.075 325.398C184.679 330.156 181.671 335.961 180.36 342.217C179.049 348.473 179.484 354.955 181.618 360.994C167.066 346.549 169.781 323.115 174.801 303.53C179.83 283.946 185.919 262.154 175.689 244.563C170.003 234.772 160.003 228.697 148.781 226.25C148.437 226.178 148.093 226.106 147.748 226.044C134.377 223.422 120.476 225.78 108.823 232.647C87.365 245.737 76.344 270.556 72.7671 294.868C67.0039 333.991 79.7578 377.654 112.886 400.76Z" fill="#780000"/>
<path d="M122.171 338.74C123.02 347.369 125.169 355.832 128.551 363.863C131.667 370.969 135.867 377.586 141.012 383.494C151.522 395.688 165.419 404.856 180.512 410.965C192.052 415.523 204.143 418.657 216.498 420.291C221.613 419.943 226.692 419.534 231.724 419.094C231.754 419.086 231.794 419.089 231.825 419.081C232.067 419.059 232.309 419.037 232.541 419.023C233.579 418.93 234.618 418.836 235.647 418.742L235.404 419.189L234.641 420.577C234.915 420.112 235.189 419.658 235.463 419.193C235.544 419.054 235.634 418.915 235.714 418.775C226.452 409.874 219.536 398.962 215.547 386.952C211.558 374.943 210.611 362.186 212.786 349.75C215.063 337.403 220.332 325.749 228.166 315.739C227.135 315.437 226.091 315.192 225.035 314.975C222.058 318.901 219.447 323.072 217.232 327.442C209.283 343.023 206.747 360.659 210 377.738C213.023 393.194 220.556 407.496 231.713 418.967C230.736 418.901 229.75 418.824 228.784 418.739C210.5 417.245 192.252 413.454 175.667 405.688C161.491 399.211 149.184 389.471 139.83 377.326C129.786 363.966 125.36 347.895 124.599 331.562C123.793 314.075 126.146 296.281 130.283 279.276C134.508 261.842 140.929 244.972 149.403 229.043C149.592 228.682 149.631 228.264 149.51 227.876C149.389 227.489 149.118 227.16 148.753 226.96C148.449 226.762 148.077 226.688 147.717 226.754C147.54 226.799 147.377 226.882 147.238 226.996C147.1 227.111 146.99 227.254 146.917 227.415C145.872 229.383 144.846 231.352 143.859 233.343C135.64 249.928 129.588 267.434 125.844 285.458C122.209 302.845 120.269 321.034 122.171 338.74Z" fill="white"/>
<path d="M315.572 66.6346C315.572 84.0276 301.021 98.1539 283.037 98.1539C265.053 98.1539 250.501 84.0276 250.501 66.6346C250.501 49.2417 265.053 35.1154 283.037 35.1154C301.021 35.1154 315.572 49.2417 315.572 66.6346Z" fill="#780000" stroke="#780000"/>
<path d="M313.786 72.6924C313.786 86.7247 301.648 98.1539 286.607 98.1539C271.566 98.1539 259.429 86.7247 259.429 72.6924C259.429 58.66 271.566 47.2308 286.607 47.2308C301.648 47.2308 313.786 58.66 313.786 72.6924Z" fill="white" stroke="#780000"/>
<path d="M388.413 153.756L388.152 153.747L333.902 151.901L333.619 151.891L333.482 151.643L327.484 140.808L309.598 147.291L318.371 167.675C319.052 169.259 320.251 170.59 321.789 171.467C323.328 172.344 325.123 172.718 326.904 172.529L388.293 166.037L388.565 166.008L388.736 166.221C390.098 167.92 391.967 169.182 394.096 169.835C396.226 170.489 398.512 170.503 400.65 169.875C402.787 169.247 404.673 168.008 406.057 166.325C407.441 164.643 408.259 162.597 408.405 160.46C408.551 158.323 408.018 156.193 406.875 154.352C405.732 152.511 404.033 151.046 402 150.154C399.966 149.262 397.698 148.987 395.498 149.367C393.297 149.747 391.271 150.763 389.689 152.276L388.413 153.756ZM388.413 153.756L388.57 153.547C388.907 153.097 389.281 152.672 389.687 152.278L388.413 153.756Z" fill="white" stroke="#780000"/>
<path d="M301.649 156.59L301.649 156.59C301.001 156.316 300.426 155.915 299.961 155.415C299.497 154.915 299.154 154.329 298.955 153.697L298.954 153.697L291.179 129.1L291.168 129.064L291.15 129.029C289.524 125.747 289.345 121.995 290.651 118.59C291.957 115.184 294.647 112.397 298.141 110.847C301.635 109.297 305.641 109.116 309.278 110.345C312.914 111.574 315.875 114.108 317.522 117.382L317.538 117.415L317.559 117.445L332.621 138.926C332.621 138.926 332.621 138.926 332.621 138.926C333.008 139.479 333.264 140.102 333.371 140.753C333.479 141.404 333.436 142.069 333.246 142.703C333.056 143.338 332.723 143.929 332.266 144.435C331.81 144.941 331.241 145.351 330.598 145.634L305.771 156.562L305.771 156.562C305.127 156.845 304.426 156.995 303.713 157C303.001 157.005 302.297 156.865 301.649 156.59Z" fill="#FFD5CC" stroke="#780000"/>
<path d="M354.55 408.462L366.072 402.194L347.362 354.808L330.357 364.057L354.55 408.462Z" fill="white"/>
<path d="M350.703 406.666L373.484 395.23L373.485 395.23L373.492 395.226C375.383 394.277 377.46 393.679 379.605 393.469C381.749 393.259 383.918 393.441 385.985 394.004C388.052 394.566 389.977 395.498 391.65 396.745C393.318 397.987 394.702 399.517 395.726 401.247L358.527 419.921L350.703 406.666ZM395.979 401.12L395.979 401.12L396.166 401.01L395.979 401.12Z" fill="#780000" stroke="#780000"/>
<path d="M223.858 408.619L249.491 409.756L249.492 409.756L249.501 409.756C251.627 409.851 253.733 410.34 255.698 411.197C257.662 412.053 259.444 413.261 260.944 414.749C262.443 416.237 263.629 417.976 264.435 419.866C265.239 421.753 265.648 423.752 265.641 425.75L223.797 423.895L223.858 408.619ZM265.829 425.759L265.829 425.759L266.147 425.756L265.829 425.759Z" fill="#780000" stroke="#BA381C"/>
<path d="M225.003 408.462H238.311L244.643 358.269L225 358.27L225.003 408.462Z" fill="white"/>
<path d="M312.508 236.375L312.513 236.436L312.533 236.495L361.801 379.418C361.971 379.912 362.033 380.435 361.983 380.954C361.933 381.472 361.772 381.976 361.51 382.432C361.247 382.889 360.888 383.289 360.455 383.606C360.022 383.923 359.525 384.151 358.994 384.273L343.894 387.749C343.033 387.948 342.128 387.859 341.327 387.499C340.526 387.139 339.877 386.53 339.483 385.773L276.495 264.956C276.241 264.468 275.839 264.072 275.347 263.819C274.854 263.565 274.294 263.466 273.743 263.533C273.192 263.6 272.674 263.831 272.26 264.196C271.846 264.562 271.557 265.045 271.435 265.58L243.716 387.688C243.526 388.524 243.046 389.276 242.351 389.816C241.655 390.357 240.787 390.654 239.89 390.654H225.842H225.842C225.321 390.654 224.805 390.555 224.325 390.361C223.845 390.167 223.411 389.883 223.048 389.527C222.685 389.17 222.399 388.748 222.207 388.286L221.746 388.478L222.207 388.286C222.016 387.824 221.921 387.33 221.929 386.833L221.929 386.833C222.093 376.072 222.167 365.125 222.241 354.18C222.459 322.043 222.677 289.931 225.156 262.64C226.817 244.349 229.491 228.26 233.847 215.804C238.207 203.335 244.218 194.605 252.481 190.875L252.665 190.792L252.74 190.604L258.112 177.099L308.124 185.509L312.508 236.375Z" fill="#BA381C" stroke="#780000"/>
<path d="M250.956 145.922L250.955 145.921C250.035 140.503 250.518 134.945 252.359 129.759C254.201 124.572 257.343 119.924 261.496 116.242L261.497 116.242L261.499 116.24C265.558 112.595 270.486 110.011 275.831 108.728C281.175 107.445 286.762 107.504 292.077 108.9L292.204 108.417L292.077 108.9C292.394 108.983 292.712 109.07 293.032 109.158C299.572 110.997 305.378 114.764 309.668 119.947C313.957 125.13 316.523 131.48 317.019 138.139C318.094 152.669 317.124 173.684 306.485 191.51L306.485 191.51L306.467 191.541L256.55 179.148L250.956 145.922Z" fill="white" stroke="#780000"/>
<path d="M308.063 51.5522C309.979 53.7752 310.704 56.9551 309.634 59.4485C304.237 62.3306 298.11 63.8487 291.859 63.8253L290.162 63.8189L291.585 64.7444C293.583 66.0442 295.786 67.0298 298.107 67.6684C289.131 69.1758 279.925 69.0795 270.973 67.3767L270.964 67.3749L270.954 67.3735C268.825 67.0532 266.771 66.3913 264.882 65.4177C263.977 64.9433 263.191 64.2968 262.573 63.522C261.958 62.7505 261.524 61.8687 261.297 60.934C261.007 59.3606 261.507 57.8295 262.48 56.4027C263.456 54.97 264.886 53.6805 266.368 52.6297C270.931 49.4425 276.195 47.2453 281.778 46.1987C287.361 45.1521 293.123 45.2827 298.646 46.5809C302.262 47.4579 305.794 48.9214 308.063 51.5522Z" fill="#780000" stroke="#780000"/>
<path d="M282.157 36.4192L282.145 36.4583L282.139 36.4988C281.957 37.7877 281.022 38.7826 279.689 39.4024C278.356 40.0224 276.694 40.2281 275.228 39.968C273.728 39.7018 272.314 39.1289 270.869 38.4882C270.626 38.3803 270.381 38.2703 270.135 38.1595C268.936 37.6199 267.702 37.0646 266.415 36.6669C258.544 34.2337 249.883 38.0788 244.326 43.7614C239.665 48.5273 236.618 54.4585 233.631 60.2727C233.063 61.3774 232.498 62.4779 231.924 63.5653C228.312 70.4105 223.979 77.1889 217.246 81.0777C205.48 87.874 189.012 83.3315 180.145 73.1388C172.553 64.4118 169.782 52.6733 170.18 41.1427C170.664 43.4182 171.466 45.6297 172.57 47.7156C174.601 51.5512 177.592 54.8414 181.273 57.293C184.954 59.7445 189.21 61.2812 193.661 61.7669C198.111 62.2525 202.618 61.6723 206.778 60.0774C213.063 57.6676 217.888 53.2966 221.974 48.1756C225.381 43.905 228.297 39.0834 231.118 34.4186C231.674 33.4987 232.226 32.5849 232.778 31.6826C236.128 26.2066 240.223 20.6284 245.116 16.3914C250.006 12.1572 255.667 9.28301 262.162 9.15728C268.537 9.03389 274.498 12.2697 278.485 17.0524C282.47 21.8328 284.436 28.1003 282.915 34.0039L282.157 36.4192Z" fill="#780000" stroke="#780000"/>
<path d="M222.03 240.122L222.217 240.011L222.264 239.799L245.011 137.42L267.247 146.584L237.596 244.348L237.538 244.538L237.627 244.716C238.842 247.157 239.123 249.96 238.418 252.596C237.712 255.231 236.068 257.514 233.799 259.013C231.529 260.512 228.791 261.123 226.104 260.73C223.416 260.337 220.965 258.968 219.215 256.881L219.212 256.879L219.117 256.765C218.119 255.558 217.387 254.151 216.97 252.636C216.54 251.075 216.457 249.437 216.725 247.839C216.994 246.241 217.608 244.722 218.525 243.389C219.441 242.055 220.638 240.94 222.03 240.122Z" fill="white" stroke="#780000"/>
<path d="M235.055 151.402L235.054 151.401C234.711 150.835 234.504 150.209 234.446 149.566C234.387 148.923 234.479 148.275 234.715 147.666L234.715 147.666L243.919 123.904L243.933 123.867L243.941 123.829C244.695 120.341 246.907 117.263 250.107 115.276C253.308 113.289 257.232 112.561 261.015 113.258C264.798 113.955 268.119 116.016 270.258 118.978C272.395 121.938 273.179 125.56 272.447 129.05L272.439 129.087L272.437 129.125L271.039 154.43C271.003 155.074 270.818 155.706 270.495 156.282C270.172 156.857 269.718 157.365 269.161 157.767C268.604 158.17 267.958 158.457 267.266 158.609C266.575 158.76 265.856 158.771 265.159 158.641L238.366 153.631L238.365 153.631C237.669 153.501 237.012 153.233 236.441 152.847C235.87 152.462 235.398 151.968 235.055 151.402Z" fill="#FFD5CC" stroke="#780000"/>
<path d="M427.443 141.179L427.055 141.127L428.513 130.911C428.737 129.343 428.305 127.753 427.312 126.492C426.319 125.23 424.847 124.401 423.219 124.185L400.751 121.209C399.123 120.994 397.473 121.41 396.164 122.367C394.854 123.323 393.993 124.742 393.769 126.31L385.772 182.358C385.548 183.927 385.98 185.516 386.973 186.778C387.966 188.039 389.438 188.869 391.066 189.084L413.534 192.06C415.162 192.275 416.812 191.859 418.121 190.903C419.431 189.946 420.292 188.528 420.516 186.959L426.018 148.399L426.405 148.451L427.443 141.179Z" fill="#3F3D56"/>
<path d="M422.842 125.822L419.949 125.446C420.037 125.772 420.039 126.113 419.955 126.44C419.871 126.767 419.703 127.07 419.466 127.321C419.229 127.572 418.931 127.764 418.597 127.88C418.263 127.997 417.904 128.034 417.552 127.988L404.852 126.336C404.499 126.29 404.164 126.163 403.876 125.966C403.588 125.769 403.356 125.507 403.199 125.205C403.043 124.903 402.967 124.569 402.98 124.232C402.992 123.896 403.091 123.568 403.269 123.276L400.566 122.925C399.973 122.848 399.368 122.882 398.788 123.026C398.208 123.169 397.664 123.42 397.186 123.762C396.709 124.105 396.307 124.533 396.004 125.023C395.702 125.513 395.504 126.054 395.422 126.616L387.543 180.849C387.461 181.411 387.497 181.983 387.649 182.532C387.801 183.08 388.065 183.595 388.428 184.047C388.79 184.499 389.243 184.879 389.76 185.166C390.278 185.452 390.85 185.639 391.444 185.717L413.719 188.614C414.919 188.77 416.135 188.468 417.099 187.776C418.064 187.084 418.699 186.058 418.864 184.923L426.743 130.689C426.908 129.554 426.59 128.404 425.858 127.491C425.127 126.579 424.042 125.978 422.842 125.822L422.842 125.822Z" fill="white"/>
<path d="M406.251 171.346C412.661 171.346 417.858 166.309 417.858 160.096C417.858 153.883 412.661 148.846 406.251 148.846C399.84 148.846 394.644 153.883 394.644 160.096C394.644 166.309 399.84 171.346 406.251 171.346Z" fill="#780000"/>
<path d="M404.196 164.423C403.918 164.423 403.648 164.341 403.425 164.187L403.411 164.178L400.508 162.13C400.373 162.036 400.26 161.917 400.175 161.782C400.089 161.647 400.034 161.498 400.011 161.343C399.989 161.188 400 161.03 400.043 160.879C400.087 160.728 400.163 160.587 400.266 160.462C400.369 160.338 400.498 160.234 400.645 160.156C400.792 160.078 400.954 160.027 401.122 160.007C401.291 159.987 401.462 159.997 401.625 160.038C401.789 160.079 401.943 160.149 402.077 160.244L403.958 161.572L408.401 156.234C408.504 156.111 408.633 156.007 408.779 155.929C408.926 155.851 409.088 155.8 409.256 155.779C409.424 155.759 409.594 155.769 409.758 155.81C409.921 155.85 410.075 155.919 410.209 156.014L410.182 156.049L410.21 156.015C410.481 156.207 410.658 156.49 410.703 156.802C410.748 157.115 410.656 157.43 410.449 157.681L405.222 163.959C405.101 164.104 404.946 164.221 404.768 164.302C404.59 164.382 404.394 164.424 404.196 164.423Z" fill="white"/>
</svg>
