<svg width="280" height="260" viewBox="0 0 280 260" fill="none" xmlns="http://www.w3.org/2000/svg">
    <path d="M63.3221 15.9376C41.3678 29.7513 25.8188 54.5654 28.2503 77.9552C30.7362 101.291 51.2092 123.25 58.2414 150.928C65.2737 178.607 58.9293 212.098 70.6743 229.134C82.3617 246.229 112.266 246.968 136.633 239.453C161.07 231.992 180.007 216.278 201.059 202.201C222.111 188.176 245.24 175.742 250.679 157.803C256.118 139.918 243.854 116.516 230.523 99.0693C217.245 81.5526 202.806 70.0177 187.891 53.8804C172.975 37.7432 157.528 17.0514 135.628 8.11224C113.677 -0.833358 85.2699 2.07596 63.3221 15.9376Z"
          fill="#4B7BE5" fill-opacity="0.5"/>
    <path d="M279.564 223.936L280.001 223.927C279.832 218.86 279.314 213.813 278.451 208.824C276.563 198.142 273.423 191.127 269.12 187.973L268.869 188.346C278.922 195.713 279.559 223.654 279.564 223.936Z"
          fill="#780000"/>
    <path d="M274.415 223.936L274.862 223.928C274.853 223.432 274.573 211.752 269.981 208.523L269.725 208.89C274.131 211.988 274.413 223.817 274.415 223.936Z"
          fill="#780000"/>
    <path d="M266.299 188.829C267.718 188.829 268.868 187.679 268.868 186.26C268.868 184.841 267.718 183.691 266.299 183.691C264.881 183.691 263.73 184.841 263.73 186.26C263.73 187.679 264.881 188.829 266.299 188.829Z"
          fill="#4B7BE5"/>
    <path d="M267.155 207.667C268.573 207.667 269.724 206.709 269.724 205.526C269.724 204.344 268.573 203.386 267.155 203.386C265.736 203.386 264.586 204.344 264.586 205.526C264.586 206.709 265.736 207.667 267.155 207.667Z"
          fill="#4B7BE5"/>
    <path d="M274.954 189.895C274.703 191.567 274.964 193.266 275.709 194.823C277.01 193.562 277.863 192.002 278.165 190.331C278.466 188.66 278.204 186.949 277.41 185.404C276.152 186.689 275.305 188.238 274.954 189.895Z"
          fill="#4B7BE5"/>
    <path d="M267.963 196.112C269.642 196.595 271.431 196.666 273.149 196.317C272.058 195.045 270.588 194.089 268.917 193.564C267.246 193.039 265.445 192.968 263.73 193.359C264.854 194.6 266.313 195.55 267.963 196.112Z"
          fill="#4B7BE5"/>
    <path d="M267.664 214.094C268.885 214.577 270.186 214.648 271.436 214.299C270.642 213.027 269.574 212.071 268.358 211.546C267.143 211.021 265.833 210.95 264.586 211.341C265.403 212.582 266.464 213.532 267.664 214.094Z"
          fill="#4B7BE5"/>
    <path d="M85.4432 223.936L84.7715 223.923C85.0313 216.564 85.8281 209.233 87.1559 201.987C90.0605 186.473 94.8903 176.284 101.511 171.704L101.897 172.245C86.4304 182.945 85.4511 223.527 85.4432 223.936Z"
          fill="#780000"/>
    <path d="M94.0044 223.936L93.334 223.923C93.3484 223.179 93.7674 205.659 100.655 200.816L101.04 201.366C94.4302 206.013 94.0076 223.757 94.0044 223.936Z"
          fill="#780000"/>
    <path d="M105.322 172.56C107.213 172.56 108.747 171.026 108.747 169.135C108.747 167.243 107.213 165.709 105.322 165.709C103.43 165.709 101.896 167.243 101.896 169.135C101.896 171.026 103.43 172.56 105.322 172.56Z"
          fill="#4B7BE5"/>
    <path d="M103.609 200.817C105.5 200.817 107.034 199.283 107.034 197.392C107.034 195.5 105.5 193.967 103.609 193.967C101.717 193.967 100.184 195.5 100.184 197.392C100.184 199.283 101.717 200.817 103.609 200.817Z"
          fill="#4B7BE5"/>
    <path d="M92.3386 174.364C92.7144 176.947 92.3241 179.573 91.2066 181.979C89.2547 180.031 87.9753 177.62 87.5225 175.037C87.0697 172.455 87.4629 169.81 88.6546 167.422C90.542 169.408 91.8124 171.802 92.3386 174.364Z"
          fill="#4B7BE5"/>
    <path d="M103.063 183.913C100.467 184.637 97.7031 184.743 95.0469 184.22C96.7334 182.312 99.0049 180.878 101.588 180.09C104.17 179.303 106.954 179.196 109.603 179.783C107.868 181.645 105.612 183.069 103.063 183.913Z"
          fill="#4B7BE5"/>
    <path d="M103.274 208.957C101.441 209.44 99.4902 209.51 97.6152 209.162C98.8057 207.889 100.409 206.933 102.232 206.408C104.055 205.884 106.02 205.812 107.89 206.203C106.665 207.445 105.073 208.394 103.274 208.957Z"
          fill="#4B7BE5"/>
    <path d="M27.9981 72.0603L28.0065 72.0629M27.9981 72.0603L27.9983 72.0603L28.0065 72.0629M27.9981 72.0603C27.998 72.0603 27.9978 72.0602 27.9975 72.0601C27.9955 72.0596 27.991 72.0584 27.9842 72.0568C27.969 72.0531 27.9423 72.0473 27.9058 72.0414C27.8324 72.0295 27.7208 72.0175 27.5821 72.0212C27.3065 72.0286 26.9236 72.0976 26.5124 72.3559C25.6981 72.8675 24.6312 74.2186 24.2207 77.7697C23.8063 81.3536 23.7585 86.5129 23.8161 90.7954C23.8448 92.9326 23.8996 94.8443 23.9473 96.2217C23.9711 96.9104 23.9931 97.4653 24.0092 97.8478C24.0172 98.0391 24.0238 98.1873 24.0283 98.2875L24.0335 98.4013L24.0349 98.4302L24.0352 98.4373L24.0353 98.4391L24.0353 98.4395C24.0353 98.4396 24.0353 98.4396 23.5359 98.4636M27.9981 72.0603L23.5359 98.4636M28.0065 72.0629L28.0196 72.0662M28.0065 72.0629L28.0196 72.0662M28.0196 72.0662L32.2118 73.118L33.7468 82.5427L32.067 102.867L19.2217 132.361L19.1463 132.534L19.2042 132.713C19.4339 133.426 19.454 134.191 19.2621 134.915C19.0702 135.639 18.6745 136.292 18.1226 136.796C17.5707 137.3 16.8861 137.633 16.1507 137.756C15.4153 137.88 14.66 137.788 13.9753 137.491C13.2905 137.195 12.7051 136.706 12.2893 136.084C11.8736 135.462 11.6451 134.733 11.6315 133.984C11.6179 133.235 11.8198 132.497 12.2127 131.861C12.6057 131.224 13.173 130.714 13.8466 130.393L14.043 130.299L14.1083 130.092L24.0128 98.6137L24.0396 98.5287M28.0196 72.0662L24.0396 98.5287M24.0396 98.5287L24.0353 98.4396M24.0396 98.5287L24.0353 98.4396M24.0353 98.4396L23.5359 98.4636M24.0353 98.4396L23.5359 98.4636"
          stroke="#780000"/>
    <path d="M77.7241 85.5358L77.2555 85.7103L77.2868 85.7943L77.3452 85.8621L98.9823 110.982L99.1241 111.147L99.3411 111.155C100.095 111.186 100.824 111.432 101.441 111.864C102.059 112.296 102.537 112.897 102.821 113.593C103.104 114.289 103.18 115.052 103.039 115.79C102.899 116.528 102.548 117.21 102.029 117.755C101.509 118.299 100.843 118.683 100.109 118.861C99.376 119.038 98.6069 119.001 97.8942 118.754C97.1815 118.507 96.5555 118.061 96.0912 117.469C95.6268 116.877 95.3437 116.164 95.2753 115.416L95.2581 115.227L95.1195 115.097L71.5353 92.9698L61.9445 74.8871L59.6465 65.5876L63.1263 62.9595L63.137 62.9514L63.1442 62.9454C63.1459 62.9441 63.1496 62.9411 63.1554 62.9368C63.1683 62.9274 63.1908 62.9114 63.2226 62.8914C63.2863 62.8512 63.3857 62.7958 63.5165 62.7442C63.7765 62.6417 64.1609 62.5538 64.6464 62.6298C65.6073 62.7802 67.1324 63.6061 68.9165 66.7185C70.7174 69.8604 72.8003 74.6002 74.4388 78.573C75.2566 80.5556 75.961 82.3405 76.4609 83.6298C76.7109 84.2744 76.9097 84.7949 77.0459 85.1541C77.114 85.3337 77.1665 85.473 77.2019 85.5672L77.242 85.6743L77.2522 85.7014L77.2547 85.7081L77.2553 85.7098L77.2555 85.7102C77.2555 85.7103 77.2555 85.7103 77.7241 85.5358Z"
          stroke="#780000"/>
    <path d="M80.4913 218.798L85.7125 218.798L88.1967 198.248L80.4902 198.248L80.4913 218.798Z" fill="#FFB7B7"/>
    <path d="M78.7773 217.086L89.2367 217.086H89.2372C91.0049 217.086 92.7003 217.785 93.9503 219.029C95.2003 220.273 95.9026 221.96 95.9027 223.72V223.935L78.7777 223.936L78.7773 217.086Z"
          fill="#4B7BE5"/>
    <path d="M12.8448 218.798L18.0661 218.798L20.5502 198.248L12.8438 198.248L12.8448 218.798Z" fill="#FFB7B7"/>
    <path d="M11.1309 217.086L21.5903 217.086H21.5907C23.3585 217.086 25.0538 217.785 26.3038 219.029C27.5538 220.273 28.2561 221.96 28.2562 223.72V223.935L11.1312 223.936L11.1309 217.086Z"
          fill="#4B7BE5"/>
    <path d="M59.4393 42.4072C59.4393 50.1704 53.146 56.4637 45.3827 56.4637C37.6195 56.4637 31.3262 50.1704 31.3262 42.4072C31.3262 34.6439 37.6195 28.3506 45.3827 28.3506C53.146 28.3506 59.4393 34.6439 59.4393 42.4072Z"
          fill="#4B7BE5" stroke="#780000"/>
    <path d="M34.9742 27.3892C35.7171 28.1321 36.016 29.2324 35.8407 30.4595C35.6654 31.6868 35.0161 33.0076 33.913 34.1107C32.8099 35.2138 31.4891 35.8631 30.2618 36.0384C29.0347 36.2137 27.9344 35.9148 27.1915 35.1719C26.4486 34.429 26.1498 33.3288 26.3251 32.1017C26.5004 30.8744 27.1497 29.5535 28.2528 28.4504C29.3559 27.3473 30.6767 26.6981 31.904 26.5227C33.1311 26.3474 34.2313 26.6463 34.9742 27.3892Z"
          fill="#4B7BE5" stroke="#780000"/>
    <path d="M56.7639 23.8178C58.1985 24.4307 59.293 25.4146 59.9129 26.4883C60.5327 27.5618 60.6652 28.6941 60.2524 29.6603C59.8397 30.6265 58.93 31.3137 57.7259 31.6081C56.5216 31.9025 55.054 31.792 53.6194 31.1792C52.1848 30.5664 51.0902 29.5824 50.4703 28.5088C49.8506 27.4353 49.7181 26.3029 50.1308 25.3367C50.5435 24.3705 51.4532 23.6833 52.6573 23.3889C53.8616 23.0945 55.3293 23.205 56.7639 23.8178Z"
          fill="#4B7BE5" stroke="#780000"/>
    <path d="M56.8551 51.6559C60.1168 45.6892 57.9239 38.2081 51.9572 34.9464C45.9905 31.6847 38.5093 33.8775 35.2476 39.8442C31.9859 45.811 34.1788 53.2921 40.1455 56.5538C46.1122 59.8155 53.5934 57.6226 56.8551 51.6559Z"
          fill="#FFB7B7"/>
    <path d="M33.3945 37.8756C36.2043 39.8168 39.5392 40.8499 42.9517 40.8363C41.7344 41.6823 40.3487 42.2538 38.8899 42.5113C43.427 43.4869 48.1161 43.5133 52.6639 42.5889C53.6748 42.4264 54.6502 42.0906 55.5474 41.5962C55.9944 41.3459 56.3839 41.0041 56.6906 40.593C56.9972 40.182 57.2141 39.7108 57.3272 39.2102C57.6294 37.4796 56.2841 35.9074 54.8861 34.8478C52.7457 33.2502 50.2778 32.1495 47.6609 31.6253C45.0441 31.1011 42.3437 31.1666 39.7552 31.8169C38.065 32.2548 36.3717 32.9948 35.2739 34.3555C34.176 35.7161 33.8508 37.8138 34.8968 39.2149L33.3945 37.8756Z"
          fill="#4B7BE5"/>
    <path d="M39.7631 61.6678L27.6126 71.6073L38.229 96.963L38.4316 101.02C38.4316 101.02 27.4107 111.198 20.5916 139.631C13.7726 168.063 0 205.843 0 205.843L27.5527 212.595L46.7094 148.277L71.1298 198.736L74.6038 213.661L95.9021 207.738L87.6823 167.687L67.5217 105.517L69.1773 88.3425C69.1773 88.3425 72.8665 79.7698 66.4575 70.6937L64.4472 62.1654L54.041 60.3887L39.7631 61.6678Z"
          fill="#4B7BE5"/>
    <path d="M244.908 151.509H160.109C159.563 151.509 159.04 151.293 158.656 150.912C158.271 150.531 158.055 150.016 158.055 149.479V121.145C158.055 120.608 158.271 120.093 158.656 119.712C159.04 119.331 159.563 119.115 160.109 119.115H244.908C245.455 119.115 245.977 119.331 246.362 119.712C246.747 120.093 246.962 120.608 246.963 121.145V149.479C246.962 150.016 246.747 150.531 246.362 150.912C245.977 151.293 245.454 151.509 244.908 151.509Z"
          fill="#4B7BE5" fill-opacity="0.5" stroke="#780000"/>
    <path d="M193.517 126.321H171.254V128.89H193.517V126.321Z" fill="white"/>
    <path d="M223.058 128.89C223.767 128.89 224.342 128.315 224.342 127.606C224.342 126.896 223.767 126.321 223.058 126.321C222.348 126.321 221.773 126.896 221.773 127.606C221.773 128.315 222.348 128.89 223.058 128.89Z"
          fill="#780000"/>
    <path d="M227.339 128.89C228.048 128.89 228.623 128.315 228.623 127.606C228.623 126.896 228.048 126.321 227.339 126.321C226.63 126.321 226.055 126.896 226.055 127.606C226.055 128.315 226.63 128.89 227.339 128.89Z"
          fill="#780000"/>
    <path d="M231.622 128.89C232.332 128.89 232.907 128.315 232.907 127.606C232.907 126.896 232.332 126.321 231.622 126.321C230.913 126.321 230.338 126.896 230.338 127.606C230.338 128.315 230.913 128.89 231.622 128.89Z"
          fill="#780000"/>
    <path d="M244.908 187.473H160.109C159.563 187.472 159.04 187.257 158.656 186.876C158.271 186.495 158.055 185.979 158.055 185.442V157.108C158.055 156.572 158.271 156.056 158.656 155.675C159.04 155.294 159.563 155.079 160.109 155.078H244.908C245.455 155.079 245.977 155.294 246.362 155.675C246.747 156.056 246.962 156.572 246.963 157.109V185.442C246.962 185.979 246.747 186.495 246.362 186.876C245.977 187.257 245.454 187.472 244.908 187.473Z"
          fill="#4B7BE5" fill-opacity="0.5" stroke="#780000"/>
    <path d="M193.517 162.285H171.254V164.853H193.517V162.285Z" fill="white"/>
    <path d="M223.058 164.853C223.767 164.853 224.342 164.278 224.342 163.569C224.342 162.86 223.767 162.285 223.058 162.285C222.348 162.285 221.773 162.86 221.773 163.569C221.773 164.278 222.348 164.853 223.058 164.853Z"
          fill="#780000"/>
    <path d="M227.339 164.853C228.048 164.853 228.623 164.278 228.623 163.569C228.623 162.86 228.048 162.285 227.339 162.285C226.63 162.285 226.055 162.86 226.055 163.569C226.055 164.278 226.63 164.853 227.339 164.853Z"
          fill="#780000"/>
    <path d="M231.622 164.853C232.332 164.853 232.907 164.278 232.907 163.569C232.907 162.86 232.332 162.285 231.622 162.285C230.913 162.285 230.338 162.86 230.338 163.569C230.338 164.278 230.913 164.853 231.622 164.853Z"
          fill="#780000"/>
    <path d="M244.908 224.292H160.109C159.567 224.292 159.046 224.073 158.66 223.681C158.274 223.288 158.055 222.755 158.055 222.197V193.137C158.055 192.579 158.274 192.045 158.66 191.653C159.046 191.261 159.567 191.042 160.109 191.042H244.908C245.451 191.042 245.972 191.261 246.358 191.653C246.744 192.045 246.962 192.579 246.963 193.137V222.197C246.962 222.755 246.744 223.288 246.358 223.681C245.972 224.073 245.45 224.292 244.908 224.292Z"
          fill="#4B7BE5" fill-opacity="0.5" stroke="#780000"/>
    <path d="M193.517 198.248H171.254V200.816H193.517V198.248Z" fill="white"/>
    <path d="M223.058 200.816C223.767 200.816 224.342 200.241 224.342 199.532C224.342 198.823 223.767 198.248 223.058 198.248C222.348 198.248 221.773 198.823 221.773 199.532C221.773 200.241 222.348 200.816 223.058 200.816Z"
          fill="#780000"/>
    <path d="M227.339 200.816C228.048 200.816 228.623 200.241 228.623 199.532C228.623 198.823 228.048 198.248 227.339 198.248C226.63 198.248 226.055 198.823 226.055 199.532C226.055 200.241 226.63 200.816 227.339 200.816Z"
          fill="#780000"/>
    <path d="M231.622 200.816C232.332 200.816 232.907 200.241 232.907 199.532C232.907 198.823 232.332 198.248 231.622 198.248C230.913 198.248 230.338 198.823 230.338 199.532C230.338 200.241 230.913 200.816 231.622 200.816Z"
          fill="#780000"/>
    <path d="M143.285 162.639L143.28 162.639C141.72 162.634 140.167 162.431 138.657 162.036C138.656 162.036 138.655 162.035 138.653 162.035L138.403 161.965L138.163 161.844C127.963 156.681 119.365 149.865 112.602 141.588C107.002 134.694 102.635 126.867 99.6991 118.457C96.1847 108.38 94.4939 97.7463 94.7074 87.0644L94.7074 87.064C94.7079 87.0376 94.7084 87.0118 94.7089 86.9867C94.7126 86.7998 94.7155 86.646 94.7155 86.5349C94.7155 81.493 97.4849 77.1069 101.723 75.324C105.11 73.8993 135.779 61.1817 138.201 60.1773L138.226 60.1671L138.243 60.1599L138.26 60.1514C142.244 58.136 146.534 59.8195 147.236 60.123L147.236 60.1231L147.244 60.1263C148.863 60.7948 177.384 72.572 183.535 75.529C189.694 78.4898 191.304 83.7873 191.304 86.3858C191.304 98.8327 189.169 110.455 184.964 120.934L184.964 120.934C181.569 129.415 176.756 137.245 170.737 144.082L170.737 144.082C164.929 150.681 159.121 155.148 154.756 157.969C152.573 159.38 150.751 160.378 149.471 161.026C148.831 161.349 148.326 161.585 147.98 161.741C147.649 161.889 147.469 161.962 147.451 161.969C146.111 162.434 144.702 162.66 143.285 162.639ZM140.301 156.71L140.357 156.738L140.419 156.752C140.948 156.872 141.814 157.02 142.748 157.067C143.672 157.112 144.715 157.062 145.569 156.747C147.584 156.005 157.437 150.833 166.631 140.387C179.354 125.933 185.799 107.77 185.808 86.4322L185.808 86.419L185.807 86.4058C185.779 85.8652 185.42 82.5896 181.176 80.549C175.133 77.644 145.64 65.4679 145.141 65.2618L145.137 65.26L145.061 65.2274L145.059 65.2266C144.705 65.0771 144.008 64.8598 143.214 64.7731C142.432 64.6875 141.484 64.7211 140.677 65.144L140.424 65.2628C139.672 65.5749 107.308 78.9948 103.834 80.4559C101.128 81.5944 100.212 84.3895 100.212 86.5349C100.212 86.6783 100.208 86.89 100.202 87.172L100.202 87.172C99.922 101.759 103.263 137.765 140.301 156.71Z"
          fill="#780000" stroke="#780000"/>
    <path d="M139.41 62.8276C139.41 62.8276 106.469 76.4999 102.939 77.986C99.41 79.4721 97.6453 83.0388 97.6453 86.6055C97.6453 90.1722 94.9982 136.713 139.41 159.215C139.41 159.215 143.44 160.342 146.498 159.215C149.557 158.088 188.38 139.065 188.38 86.4569C188.38 86.4569 188.38 81.1069 182.203 78.1346C176.027 75.1624 146.165 62.8276 146.165 62.8276C146.165 62.8276 142.498 61.1929 139.41 62.8276Z"
          fill="#4B7BE5"/>
    <path opacity="0.2" d="M142.996 73.2324V146.872C142.996 146.872 176.687 130.549 176.389 87.6366L142.996 73.2324Z"
          fill="#780000"/>
</svg>
