<svg width="500" height="450" viewBox="0 0 500 450" fill="none" xmlns="http://www.w3.org/2000/svg">
<path d="M113.075 27.5844C73.8711 51.4927 46.105 94.4401 50.447 134.922C54.8861 175.311 91.4448 213.317 104.002 261.222C116.56 309.127 105.231 367.092 126.204 396.578C147.074 426.165 200.475 427.444 243.987 414.438C287.624 401.525 321.441 374.326 359.033 349.964C396.626 325.69 437.927 304.169 447.639 273.121C457.352 242.166 435.453 201.662 411.646 171.466C387.936 141.149 362.153 121.185 335.518 93.2546C308.883 65.3247 281.3 29.5121 242.193 14.0404C202.995 -1.44234 152.267 3.59303 113.075 27.5844Z" fill="#FEA895" fill-opacity="0.5"/>
<path d="M499.22 387.581L500 387.566C499.698 378.797 498.773 370.06 497.232 361.425C493.861 342.938 488.255 330.796 480.57 325.337L480.122 325.983C498.074 338.734 499.211 387.094 499.22 387.581Z" fill="#780000"/>
<path d="M490.025 387.582L490.823 387.567C490.806 386.709 490.307 366.493 482.107 360.906L481.648 361.54C489.518 366.902 490.021 387.376 490.025 387.582Z" fill="#780000"/>
<path d="M475.532 326.82C478.066 326.82 480.12 324.829 480.12 322.374C480.12 319.918 478.066 317.927 475.532 317.927C472.999 317.927 470.945 319.918 470.945 322.374C470.945 324.829 472.999 326.82 475.532 326.82Z" fill="#4B7BE5"/>
<path d="M477.061 359.424C479.594 359.424 481.648 357.765 481.648 355.719C481.648 353.673 479.594 352.014 477.061 352.014C474.527 352.014 472.474 353.673 472.474 355.719C472.474 357.765 474.527 359.424 477.061 359.424Z" fill="#4B7BE5"/>
<path d="M490.988 328.665C490.54 331.558 491.005 334.499 492.335 337.193C494.659 335.011 496.182 332.312 496.721 329.419C497.26 326.527 496.792 323.565 495.373 320.891C493.126 323.115 491.614 325.796 490.988 328.665Z" fill="#4B7BE5"/>
<path d="M478.503 339.425C481.502 340.261 484.696 340.383 487.765 339.78C485.816 337.578 483.192 335.923 480.207 335.015C477.223 334.106 474.007 333.983 470.945 334.66C472.951 336.808 475.557 338.451 478.503 339.425Z" fill="#4B7BE5"/>
<path d="M477.97 370.547C480.151 371.384 482.474 371.506 484.706 370.902C483.289 368.7 481.38 367.045 479.21 366.137C477.039 365.229 474.7 365.105 472.474 365.782C473.932 367.93 475.828 369.574 477.97 370.547Z" fill="#4B7BE5"/>
<path d="M152.577 387.581L151.378 387.559C151.842 374.823 153.265 362.134 155.636 349.593C160.823 322.742 169.447 305.107 181.27 297.179L181.959 298.117C154.34 316.636 152.591 386.874 152.577 387.581Z" fill="#780000"/>
<path d="M167.863 387.581L166.666 387.559C166.692 386.272 167.44 355.948 179.74 347.567L180.427 348.518C168.624 356.561 167.869 387.272 167.863 387.581Z" fill="#780000"/>
<path d="M188.071 298.661C191.449 298.661 194.187 296.007 194.187 292.733C194.187 289.459 191.449 286.805 188.071 286.805C184.693 286.805 181.955 289.459 181.955 292.733C181.955 296.007 184.693 298.661 188.071 298.661Z" fill="#4B7BE5"/>
<path d="M185.013 347.567C188.391 347.567 191.129 344.913 191.129 341.639C191.129 338.365 188.391 335.711 185.013 335.711C181.635 335.711 178.896 338.365 178.896 341.639C178.896 344.913 181.635 347.567 185.013 347.567Z" fill="#4B7BE5"/>
<path d="M164.89 301.784C165.561 306.255 164.864 310.799 162.869 314.964C159.383 311.592 157.099 307.419 156.29 302.949C155.482 298.479 156.184 293.902 158.312 289.77C161.682 293.207 163.951 297.35 164.89 301.784Z" fill="#4B7BE5"/>
<path d="M184.039 318.311C179.404 319.565 174.468 319.749 169.725 318.843C172.736 315.54 176.792 313.058 181.404 311.695C186.016 310.333 190.987 310.148 195.718 311.163C192.619 314.385 188.591 316.85 184.039 318.311Z" fill="#4B7BE5"/>
<path d="M184.415 361.656C181.143 362.492 177.659 362.614 174.311 362.011C176.436 359.809 179.3 358.154 182.555 357.245C185.811 356.337 189.319 356.214 192.659 356.89C190.471 359.039 187.628 360.682 184.415 361.656Z" fill="#4B7BE5"/>
<path d="M50.1095 124.37L50.1102 124.37L50.1104 124.37L50.1105 124.37L50.1107 124.37L50.1206 124.373L50.1334 124.376L57.8687 126.257L60.6567 142.848L57.6485 178.126L34.6864 229.226L34.6065 229.403L34.668 229.588C35.0995 230.887 35.1372 232.278 34.7767 233.596C34.4163 234.914 33.6723 236.106 32.6318 237.026C31.5912 237.947 30.2982 238.558 28.9073 238.784C27.5163 239.01 26.088 238.841 24.794 238.298C23.5001 237.755 22.3966 236.862 21.614 235.727C20.8316 234.593 20.4027 233.264 20.3772 231.901C20.3517 230.538 20.7305 229.195 21.4698 228.034C22.2092 226.872 23.2784 225.941 24.5509 225.353L24.7492 225.261L24.8167 225.053L42.5033 170.572L42.5317 170.484L42.5271 170.393L42.0277 170.417C42.5271 170.393 42.5271 170.393 42.5271 170.392L42.5271 170.392L42.5269 170.389L42.5263 170.376L42.5239 170.326L42.5146 170.128C42.5065 169.955 42.4948 169.698 42.4804 169.366C42.4517 168.703 42.4123 167.742 42.3698 166.549C42.2846 164.164 42.1866 160.852 42.1352 157.15C42.0324 149.738 42.1172 140.788 42.8601 134.561C43.5986 128.37 45.5298 125.898 47.128 124.925C47.9328 124.435 48.6899 124.301 49.2422 124.286C49.519 124.279 49.744 124.302 49.8963 124.326C49.9724 124.338 50.0299 124.35 50.0662 124.359C50.0843 124.363 50.0971 124.366 50.1042 124.368L50.1095 124.37Z" fill="white" stroke="#780000"/>
<path d="M138.793 148.043L138.326 148.222L138.359 148.307L138.419 148.375L177.057 191.852L177.198 192.011L177.411 192.019C178.836 192.075 180.213 192.525 181.377 193.316C182.541 194.106 183.442 195.202 183.974 196.471C184.507 197.739 184.649 199.127 184.385 200.471C184.122 201.814 183.462 203.058 182.484 204.053C181.505 205.047 180.248 205.75 178.862 206.075C177.477 206.4 176.024 206.332 174.678 205.88C173.332 205.428 172.152 204.611 171.278 203.531C170.403 202.45 169.872 201.152 169.743 199.79L169.725 199.597L169.582 199.467L127.421 161.129L110.244 129.739L106.072 113.374L112.483 108.681L112.494 108.674L112.502 108.667L112.507 108.663C112.513 108.658 112.523 108.651 112.538 108.64C112.568 108.618 112.617 108.585 112.682 108.545C112.814 108.465 113.013 108.357 113.274 108.258C113.792 108.06 114.552 107.893 115.503 108.037C117.394 108.324 120.2 109.871 123.41 115.299C126.639 120.759 130.366 128.981 133.292 135.858C134.753 139.292 136.012 142.384 136.906 144.617C137.353 145.733 137.708 146.635 137.951 147.258C138.073 147.569 138.167 147.81 138.23 147.974L138.302 148.159L138.32 148.207L138.325 148.218L138.326 148.221L138.326 148.222C138.326 148.222 138.326 148.222 138.793 148.043Z" fill="white" stroke="#780000"/>
<path d="M156.928 343.621L152.616 378.189L144.234 378.189L144.232 343.622L156.928 343.621Z" fill="white" stroke="#780000"/>
<path d="M140.674 375.727L159.351 375.726H159.352C162.509 375.726 165.536 376.936 167.768 379.089C170 381.242 171.255 384.163 171.255 387.208V387.581L140.674 387.582L140.674 375.727Z" fill="#780000"/>
<path d="M36.1307 343.621L31.8196 378.189L23.4375 378.189L23.4356 343.622L36.1307 343.621Z" fill="white" stroke="#780000"/>
<path d="M19.876 375.727L38.5534 375.726H38.5542C41.7109 375.726 44.7383 376.936 46.9704 379.089C49.2026 381.242 50.4567 384.163 50.4569 387.208V387.581L19.8765 387.582L19.876 375.727Z" fill="#780000"/>
<path d="M106.533 73.397C106.533 87.0206 95.1334 98.0911 81.0387 98.0911C66.944 98.0911 55.5449 87.0206 55.5449 73.397C55.5449 59.7735 66.944 48.7029 81.0387 48.7029C95.1334 48.7029 106.533 59.7735 106.533 73.397Z" fill="#780000" stroke="#780000"/>
<path d="M62.7267 47.1409C64.1582 48.5284 64.7088 50.5601 64.3829 52.7715C64.0569 54.983 62.8547 57.3413 60.8316 59.302C58.8086 61.2628 56.3754 62.4281 54.0937 62.744C51.8122 63.0599 49.7159 62.5263 48.2844 61.1388C46.8528 59.7513 46.3023 57.7195 46.6282 55.5082C46.9542 53.2967 48.1564 50.9384 50.1794 48.9776C52.2025 47.0168 54.6356 45.8515 56.9173 45.5356C59.1989 45.2197 61.2951 45.7533 62.7267 47.1409Z" fill="#780000" stroke="#780000"/>
<path d="M101.514 40.8853C104.149 41.9759 106.173 43.7325 107.326 45.6684C108.479 47.6046 108.746 49.6859 107.954 51.4842C107.161 53.2825 105.425 54.5342 103.184 55.0652C100.944 55.5962 98.2352 55.3932 95.6009 54.3026C92.9666 53.2119 90.9426 51.4554 89.7894 49.5194C88.636 47.5832 88.3688 45.5019 89.1613 43.7037C89.9538 41.9054 91.6901 40.6536 93.9308 40.1226C96.1712 39.5917 98.8799 39.7946 101.514 40.8853Z" fill="#780000" stroke="#780000"/>
<path d="M92.5344 60.9195C102.952 66.4392 106.769 79.0907 101.084 89.1703C95.3995 99.2499 82.3513 102.966 71.9334 97.446C61.5155 91.9263 57.6985 79.2748 63.3834 69.1952C69.0684 59.1156 82.1165 55.3998 92.5344 60.9195Z" fill="white" stroke="#780000"/>
<path d="M76.6952 70.178C71.5549 70.198 66.5155 68.9074 62.073 66.4563C61.2132 64.3499 61.8043 61.6633 63.3711 59.7812C65.2299 57.5482 68.1282 56.3018 71.1092 55.553C75.661 54.4449 80.4096 54.3334 85.0112 55.2268C89.6129 56.1202 93.9517 57.9959 97.7141 60.7174C98.9335 61.6134 100.108 62.7109 100.909 63.9279C101.706 65.139 102.113 66.4342 101.878 67.7626C101.691 68.5542 101.336 69.3001 100.835 69.9521C100.33 70.6072 99.6893 71.153 98.9521 71.5532C97.4004 72.3818 95.7128 72.9449 93.9634 73.2174L93.9535 73.219L93.9437 73.2209C86.6564 74.6566 79.1641 74.7564 71.8518 73.5224C73.6724 72.9719 75.4012 72.154 76.9765 71.0927L78.3438 70.1716L76.6952 70.178Z" fill="#780000" stroke="#780000"/>
<path d="M133.587 369.181L127.503 343.85L127.49 343.795L127.464 343.744L83.8568 256.411L83.2986 255.293L82.9315 256.487L48.8607 367.358L0.666984 355.912C0.691655 355.846 0.718555 355.774 0.74765 355.696C0.93092 355.204 1.20123 354.477 1.54955 353.535C2.24618 351.65 3.25483 348.902 4.50322 345.452C6.99998 338.55 10.4558 328.836 14.2923 317.583C21.9642 295.081 31.1624 266.415 37.256 241.789C43.3325 217.232 51.2773 200.573 57.6922 190.062C60.8999 184.806 63.7256 181.087 65.745 178.685C66.7547 177.485 67.5629 176.613 68.1166 176.044C68.3935 175.759 68.6067 175.55 68.7496 175.413C68.8211 175.345 68.875 175.294 68.9105 175.261L68.9499 175.225L68.959 175.217L68.9609 175.215L68.9611 175.215L68.9612 175.215L69.1392 175.055L69.1269 174.817L68.7653 167.795L68.7607 167.705L68.7249 167.622L49.9191 124.089L71.1983 107.218L96.4821 105.023L114.676 108.033L118.188 122.473L118.211 122.569L118.27 122.649C123.915 130.398 125.107 137.919 124.894 143.499C124.788 146.292 124.329 148.6 123.898 150.207C123.683 151.011 123.474 151.638 123.321 152.062C123.244 152.275 123.181 152.436 123.138 152.543C123.116 152.596 123.1 152.636 123.089 152.662L123.077 152.691L123.074 152.697L123.073 152.698L123.073 152.698L133.587 369.181ZM133.587 369.181L170.666 359.188L156.092 290.359L133.587 369.181Z" fill="#BA381C" stroke="#780000"/>
<path d="M437.333 262.593H285.906C284.823 262.592 283.788 262.178 283.028 261.448L282.684 261.807L283.028 261.448C282.269 260.719 281.846 259.736 281.845 258.714V209.674C281.846 208.652 282.269 207.668 283.028 206.939C283.788 206.21 284.823 205.796 285.906 205.795H437.333C438.417 205.796 439.451 206.21 440.211 206.939C440.97 207.668 441.393 208.652 441.395 209.674V258.714C441.393 259.735 440.97 260.719 440.211 261.448C439.451 262.178 438.416 262.592 437.333 262.593Z" fill="white" stroke="#780000"/>
<path d="M345.563 218.633H305.808V223.079H345.563V218.633Z" fill="#780000"/>
<path d="M398.316 223.079C399.583 223.079 400.61 222.084 400.61 220.856C400.61 219.629 399.583 218.633 398.316 218.633C397.049 218.633 396.022 219.629 396.022 220.856C396.022 222.084 397.049 223.079 398.316 223.079Z" fill="#780000"/>
<path d="M405.961 223.079C407.227 223.079 408.254 222.084 408.254 220.856C408.254 219.629 407.227 218.633 405.961 218.633C404.694 218.633 403.667 219.629 403.667 220.856C403.667 222.084 404.694 223.079 405.961 223.079Z" fill="#780000"/>
<path d="M413.608 223.079C414.875 223.079 415.902 222.084 415.902 220.856C415.902 219.629 414.875 218.633 413.608 218.633C412.341 218.633 411.314 219.629 411.314 220.856C411.314 222.084 412.341 223.079 413.608 223.079Z" fill="#780000"/>
<path d="M437.333 324.837H285.906C284.823 324.836 283.788 324.422 283.028 323.692L282.684 324.051L283.028 323.692C282.269 322.964 281.846 321.98 281.845 320.958V271.918C281.846 270.896 282.269 269.912 283.028 269.184C283.788 268.454 284.823 268.04 285.906 268.039H437.333C438.417 268.04 439.451 268.454 440.211 269.184C440.97 269.913 441.393 270.896 441.395 271.918V320.958C441.393 321.98 440.97 322.963 440.211 323.692C439.451 324.422 438.416 324.836 437.333 324.837Z" fill="white" stroke="#780000"/>
<path d="M345.563 280.878H305.808V285.324H345.563V280.878Z" fill="#780000"/>
<path d="M398.316 285.324C399.583 285.324 400.61 284.328 400.61 283.101C400.61 281.873 399.583 280.878 398.316 280.878C397.049 280.878 396.022 281.873 396.022 283.101C396.022 284.328 397.049 285.324 398.316 285.324Z" fill="#780000"/>
<path d="M405.961 285.324C407.227 285.324 408.254 284.328 408.254 283.101C408.254 281.873 407.227 280.878 405.961 280.878C404.694 280.878 403.667 281.873 403.667 283.101C403.667 284.328 404.694 285.324 405.961 285.324Z" fill="#780000"/>
<path d="M413.608 285.324C414.875 285.324 415.902 284.328 415.902 283.101C415.902 281.873 414.875 280.878 413.608 280.878C412.341 280.878 411.314 281.873 411.314 283.101C411.314 284.328 412.341 285.324 413.608 285.324Z" fill="#780000"/>
<path d="M437.333 388.563H285.906C284.827 388.562 283.794 388.139 283.033 387.39C282.272 386.641 281.846 385.628 281.845 384.572V334.274C281.846 333.219 282.272 332.205 283.033 331.456C283.794 330.707 284.827 330.285 285.906 330.283H437.333C438.413 330.284 439.446 330.707 440.206 331.456C440.967 332.205 441.393 333.219 441.395 334.275V384.572C441.393 385.628 440.967 386.641 440.206 387.39C439.446 388.139 438.412 388.562 437.333 388.563Z" fill="white" stroke="#780000"/>
<path d="M345.563 343.121H305.808V347.567H345.563V343.121Z" fill="#780000"/>
<path d="M398.316 347.567C399.583 347.567 400.61 346.572 400.61 345.344C400.61 344.116 399.583 343.121 398.316 343.121C397.049 343.121 396.022 344.116 396.022 345.344C396.022 346.572 397.049 347.567 398.316 347.567Z" fill="#780000"/>
<path d="M405.961 347.567C407.227 347.567 408.254 346.572 408.254 345.344C408.254 344.116 407.227 343.121 405.961 343.121C404.694 343.121 403.667 344.116 403.667 345.344C403.667 346.572 404.694 347.567 405.961 347.567Z" fill="#780000"/>
<path d="M413.608 347.567C414.875 347.567 415.902 346.572 415.902 345.344C415.902 344.116 414.875 343.121 413.608 343.121C412.341 343.121 411.314 344.116 411.314 345.344C411.314 346.572 412.341 347.567 413.608 347.567Z" fill="#780000"/>
<path d="M255.857 281.857L255.852 281.857C253.031 281.847 250.222 281.492 247.492 280.799C247.491 280.798 247.49 280.798 247.489 280.798L246.996 280.665L246.533 280.437C246.533 280.437 246.533 280.437 246.533 280.437C228.272 271.479 212.875 259.65 200.763 245.283C190.734 233.318 182.916 219.732 177.658 205.138C171.368 187.657 168.342 169.211 168.725 150.682L168.725 150.681C168.725 150.636 168.726 150.591 168.727 150.548C168.734 150.223 168.739 149.961 168.739 149.772C168.739 140.924 173.756 133.187 181.488 130.034C187.54 127.566 242.359 105.534 246.636 103.815L246.673 103.8L246.69 103.793L246.707 103.785C253.997 100.211 261.814 103.196 263.079 103.726L263.079 103.726L263.086 103.729C265.97 104.883 316.916 125.273 327.913 130.397C339.068 135.595 342.004 144.906 342.004 149.514C342.004 171.097 338.184 191.257 330.657 209.439L330.657 209.44C324.578 224.157 315.962 237.744 305.184 249.609L305.554 249.945L305.184 249.609C294.785 261.06 284.386 268.814 276.565 273.712C272.655 276.161 269.39 277.896 267.092 279.022C265.944 279.585 265.037 279.996 264.413 280.267C264.101 280.403 263.859 280.504 263.694 280.572C263.537 280.636 263.455 280.668 263.442 280.673C261.003 281.493 258.437 281.894 255.857 281.857ZM250.719 270.906L250.774 270.933L250.834 270.946C251.761 271.15 253.283 271.402 254.924 271.481C256.554 271.56 258.352 271.469 259.802 270.952C263.333 269.692 280.873 260.778 297.253 242.742C319.903 217.801 331.387 186.451 331.404 149.594V149.581L331.403 149.567C331.356 148.705 330.755 143.189 323.349 139.739C312.569 134.716 259.901 113.641 259.022 113.289L259.02 113.288L259.014 113.286L258.874 113.228L258.872 113.227C258.275 112.982 257.068 112.616 255.692 112.471C254.328 112.326 252.727 112.39 251.386 113.074L250.919 113.287C249.844 113.719 191.789 137.051 185.572 139.586C180.946 141.472 179.339 146.126 179.339 149.772C179.339 150.024 179.332 150.395 179.323 150.881L179.823 150.891L179.323 150.882C178.823 176.092 184.784 238.219 250.719 270.906Z" fill="#780000" stroke="#780000"/>
<path d="M248.943 108.74C248.943 108.74 190.12 132.404 183.818 134.976C177.515 137.548 174.364 143.721 174.364 149.894C174.364 156.067 169.637 236.618 248.943 275.564C248.943 275.564 256.141 277.515 261.602 275.564C267.063 273.614 336.39 240.69 336.39 149.637C336.39 149.637 336.39 140.377 325.36 135.233C314.331 130.089 261.006 108.74 261.006 108.74C261.006 108.74 254.458 105.911 248.943 108.74Z" fill="white"/>
<path opacity="0.2" d="M255.35 126.749V254.201C255.35 254.201 315.511 225.95 314.979 151.679L255.35 126.749Z" fill="#EA7D5A"/>
</svg>
