<svg width="13" height="7" viewBox="0 0 13 7" fill="none" xmlns="http://www.w3.org/2000/svg">
<path d="M6.00329 4.88995L10.5409 0.256981C10.6203 0.175538 10.7146 0.110908 10.8186 0.0668061C10.9225 0.0227039 11.034 -4.23104e-08 11.1466 -3.73895e-08C11.2592 -3.24686e-08 11.3706 0.022704 11.4746 0.0668061C11.5785 0.110908 11.6729 0.175538 11.7523 0.256981C11.9122 0.421969 12.002 0.644668 12.002 0.876732C12.002 1.1088 11.9122 1.3315 11.7523 1.49648L6.61305 6.74532C6.45699 6.9039 6.24704 6.99504 6.02683 6.99977C5.80661 7.0045 5.59308 6.92246 5.43063 6.77072L0.251258 1.50011C0.171484 1.41896 0.108157 1.32258 0.0648946 1.21646C0.0216321 1.11034 -0.000720068 0.996573 -0.000886002 0.881643C-0.00105098 0.766714 0.0209751 0.652876 0.0639324 0.54663C0.10689 0.440384 0.169939 0.34381 0.249479 0.262424C0.32902 0.181037 0.423494 0.11643 0.527508 0.0722929C0.631522 0.0281554 0.743039 0.00535165 0.855691 0.00518317C1.0832 0.00484291 1.30153 0.0967222 1.46264 0.260609L6.00329 4.88995Z" fill="#212121" fill-opacity="0.4"/>
</svg>