<svg width="11" height="6" viewBox="0 0 11 6" fill="none" xmlns="http://www.w3.org/2000/svg">
<path opacity="0.2" d="M10.5009 0.870908C10.5013 0.982954 10.4766 1.09366 10.4286 1.1949C10.3805 1.29613 10.3105 1.38532 10.2234 1.45591L5.72344 5.07841C5.58924 5.18872 5.42091 5.24902 5.24719 5.24902C5.07347 5.24902 4.90514 5.18872 4.77094 5.07841L0.270939 1.32841C0.117777 1.2011 0.0214584 1.01817 0.00317363 0.819851C-0.0151112 0.621531 0.0461353 0.42407 0.173439 0.270908C0.300743 0.117745 0.483677 0.0214276 0.681996 0.00314283C0.880316 -0.015142 1.07778 0.046104 1.23094 0.173408L5.25094 3.52591L9.27094 0.285908C9.38103 0.194196 9.51508 0.135938 9.65725 0.118029C9.79941 0.100119 9.94373 0.123306 10.0731 0.184848C10.2025 0.24639 10.3116 0.34371 10.3874 0.465293C10.4632 0.586875 10.5026 0.727633 10.5009 0.870908Z" fill="#808080"/>
</svg>
