<svg width="500" height="450" viewBox="0 0 500 450" fill="none" xmlns="http://www.w3.org/2000/svg">
<path d="M99.3588 5.73191C45.3662 21.3049 -3.51335 72.0872 0.198636 121.743C3.77769 171.389 60.1119 219.889 95.8769 278.868C131.524 337.965 146.735 407.546 188.186 435.192C229.519 462.833 296.979 448.421 351.436 419.507C405.802 390.593 447.115 347.293 472.781 297.764C498.346 248.113 508.311 192.253 492.175 147.659C476.141 103.076 434.107 69.9008 393.02 52.0451C351.799 34.2909 311.509 32.1147 261.929 21.0564C212.222 9.998 153.223 -9.81574 99.3588 5.73191Z" fill="#FEA895" fill-opacity="0.5"/>
<path d="M77.4254 294.139L77.4255 294.139C87.7971 309.4 92.2324 320.509 92.2324 330.89C92.2324 352.228 87.743 369.214 81.3834 380.847C75.0063 392.512 66.8248 398.678 59.4821 398.678C51.3766 398.678 41.9773 393.029 34.5739 384.588C27.182 376.16 21.8828 365.061 21.8828 354.332C21.8828 345.078 23.8509 339.797 25.8225 335.383C26.0588 334.854 26.2961 334.336 26.5309 333.823C28.2602 330.046 29.849 326.576 29.849 321.377C29.849 297.976 33.8279 284.42 39.0283 276.726C44.2058 269.067 50.6213 267.179 55.6722 267.179C60.5166 267.179 63.9684 268.425 66.5087 270.362C69.0556 272.305 70.7302 274.976 71.9575 277.9C73.0613 280.529 73.7909 283.33 74.4763 285.961C74.5546 286.262 74.6324 286.56 74.7101 286.856C75.4581 289.704 76.2078 292.347 77.4254 294.139Z" stroke="#4B7BE5"/>
<path d="M59.8018 324.761V428.219" stroke="#4B7BE5" stroke-miterlimit="10" stroke-linecap="round"/>
<path d="M59.8018 350.172L74.4376 335.651" stroke="#4B7BE5" stroke-miterlimit="10" stroke-linecap="round"/>
<path d="M59.8018 377.397L45.166 362.877" stroke="#4B7BE5" stroke-miterlimit="10" stroke-linecap="round"/>
<path d="M385.353 287.523V428.036H92.8936V59.7618H385.353V274.335" fill="white"/>
<path d="M385.353 287.523V428.036H92.8936V59.7618H385.353V274.335" stroke="#780000" stroke-width="2.5" stroke-linecap="round" stroke-linejoin="round"/>
<path d="M111.525 150.015V80.2275H167.239V150.015H111.525Z" fill="#BA381C" stroke="#780000"/>
<path d="M210.317 150.015V80.2275H266.031V150.015H210.317Z" fill="#BA381C" stroke="#780000"/>
<path d="M309.109 150.015V80.2275H364.823V150.015H309.109Z" fill="#BA381C" stroke="#780000"/>
<path d="M383.618 410.069H94.5605V428.219H383.618V410.069Z" fill="#780000"/>
<path d="M203.843 309.999H125.615V428.699H203.843V309.999Z" fill="#780000"/>
<path d="M366.944 308.985H222.76V376.451H366.944V308.985Z" fill="#780000"/>
<path d="M403.76 212.604H71.9307V220.213H403.76V212.604Z" fill="#780000"/>
<path d="M403.76 148.689H71.9307V156.298H403.76V148.689Z" fill="#780000"/>
<path d="M403.76 46.7289H71.9307V64.4831H403.76V46.7289Z" fill="#780000"/>
<path d="M412.962 273.983L385.353 220.213H92.893L65.2832 273.983H412.962Z" fill="#780000"/>
<path d="M102.097 220.213H92.8936V273.983H102.097V220.213Z" fill="#4B7BE5"/>
<path d="M123.887 220.213H114.684V273.983H123.887V220.213Z" fill="#4B7BE5"/>
<path d="M145.673 220.213H136.47V273.983H145.673V220.213Z" fill="#4B7BE5"/>
<path d="M167.465 220.213H158.262V273.983H167.465V220.213Z" fill="#4B7BE5"/>
<path d="M189.252 220.213H180.049V273.983H189.252V220.213Z" fill="#4B7BE5"/>
<path d="M211.041 220.213H201.838V273.983H211.041V220.213Z" fill="#4B7BE5"/>
<path d="M232.829 220.213H223.626V273.983H232.829V220.213Z" fill="#4B7BE5"/>
<path d="M254.618 220.213H245.415V273.983H254.618V220.213Z" fill="#4B7BE5"/>
<path d="M276.405 220.213H267.202V273.983H276.405V220.213Z" fill="#4B7BE5"/>
<path d="M298.197 220.213H288.994V273.983H298.197V220.213Z" fill="#4B7BE5"/>
<path d="M319.983 220.213H310.779V273.983H319.983V220.213Z" fill="#4B7BE5"/>
<path d="M341.775 220.213H332.571V273.983H341.775V220.213Z" fill="#4B7BE5"/>
<path d="M363.56 220.213H354.356V273.983H363.56V220.213Z" fill="#4B7BE5"/>
<path d="M385.351 220.213H376.147V273.983H385.351V220.213Z" fill="#4B7BE5"/>
<path d="M362.343 313.043H227.361V372.393H362.343V313.043Z" fill="#BA381C"/>
<path d="M199.753 314.057H129.706V428.699H199.753V314.057Z" fill="#BA381C"/>
<path d="M289.806 313.043L229.984 372.393H269.799L329.62 313.043H289.806Z" fill="#4B7BE5"/>
<path d="M286.162 372.393L345.983 313.043H338.38L278.559 372.393H286.162Z" fill="#4B7BE5"/>
<path d="M362.343 313.043H354.228L294.407 372.393H312.236L362.343 322.681V313.043Z" fill="#4B7BE5"/>
</svg>
