<svg width="280" height="260" viewBox="0 0 280 260" fill="none" xmlns="http://www.w3.org/2000/svg">
    <path d="M74.0575 31.8771C50.0769 38.8487 28.3673 61.5825 30.016 83.8122C31.6056 106.037 56.6262 127.749 72.511 154.153C88.3436 180.609 95.0995 211.758 113.51 224.135C131.867 236.509 161.829 230.057 186.017 217.113C210.163 204.169 228.512 184.785 239.911 162.612C251.266 140.384 255.692 115.377 248.525 95.4141C241.403 75.4553 222.734 60.6037 204.486 52.6102C186.178 44.6621 168.283 43.6879 146.262 38.7374C124.185 33.7869 97.9812 24.9168 74.0575 31.8771Z"
          fill="#4B7BE5" fill-opacity="0.5"/>
    <path d="M64.084 161.143L64.084 161.143C68.68 167.959 70.6134 172.876 70.6134 177.441C70.6134 186.958 68.6266 194.515 65.8282 199.675C63.0118 204.868 59.4506 207.512 56.3454 207.512C52.8622 207.512 48.7575 205.052 45.4928 201.3C42.24 197.562 39.9238 192.655 39.9238 187.936C39.9238 183.841 40.7853 181.516 41.65 179.564C41.7539 179.33 41.8588 179.099 41.9629 178.87C42.7316 177.179 43.462 175.573 43.462 173.183C43.462 162.729 45.227 156.725 47.4923 153.347C49.7345 150.004 52.4919 149.196 54.6533 149.196C56.7533 149.196 58.224 149.739 59.2962 150.563C60.3754 151.393 61.095 152.541 61.6295 153.825C62.1118 154.983 62.4309 156.217 62.736 157.397C62.7707 157.532 62.8053 157.665 62.8398 157.798C63.1691 159.061 63.5119 160.294 64.084 161.143Z"
          stroke="#4B7BE5"/>
    <path d="M56.4883 174.697V221.013" stroke="#4B7BE5" stroke-miterlimit="10" stroke-linecap="round"/>
    <path d="M56.4883 186.073L62.9887 179.573" stroke="#4B7BE5" stroke-miterlimit="10" stroke-linecap="round"/>
    <path d="M56.4868 198.262L49.9863 191.761" stroke="#4B7BE5" stroke-miterlimit="10" stroke-linecap="round"/>
    <path d="M201.08 158.028V220.931H71.1855V56.0649H201.08V152.123" fill="#4B7BE5"/>
    <path d="M201.08 158.028V220.931H71.1855V56.0649H201.08V152.123" stroke="#780000" stroke-width="2.5"
          stroke-linecap="round" stroke-linejoin="round"/>
    <path d="M79.7402 96.1925V65.5029H103.929V96.1925H79.7402Z" fill="#BA381C" stroke="#780000"/>
    <path d="M123.617 96.1925V65.5029H147.806V96.1925H123.617Z" fill="#BA381C" stroke="#780000"/>
    <path d="M167.496 96.1925V65.5029H191.685V96.1925H167.496Z" fill="#BA381C" stroke="#780000"/>
    <path d="M200.309 212.888H71.9258V221.013H200.309V212.888Z" fill="#780000"/>
    <path d="M120.463 168.089H85.7188V221.228H120.463V168.089Z" fill="#780000"/>
    <path d="M192.904 167.635H128.865V197.838H192.904V167.635Z" fill="#780000"/>
    <path d="M209.255 124.488H61.875V127.895H209.255V124.488Z" fill="#780000"/>
    <path d="M209.255 95.875H61.875V99.2813H209.255V95.875Z" fill="#780000"/>
    <path d="M209.255 50.2305H61.875V58.1786H209.255V50.2305Z" fill="#780000"/>
    <path d="M213.342 151.966L201.079 127.895H71.1846L58.9219 151.966H213.342Z" fill="#780000"/>
    <path d="M75.2731 127.895H71.1855V151.966H75.2731V127.895Z" fill="#4B7BE5"/>
    <path d="M84.9509 127.895H80.8633V151.966H84.9509V127.895Z" fill="#4B7BE5"/>
    <path d="M94.6267 127.895H90.5391V151.966H94.6267V127.895Z" fill="#4B7BE5"/>
    <path d="M104.306 127.895H100.219V151.966H104.306V127.895Z" fill="#4B7BE5"/>
    <path d="M113.982 127.895H109.895V151.966H113.982V127.895Z" fill="#4B7BE5"/>
    <path d="M123.66 127.895H119.572V151.966H123.66V127.895Z" fill="#4B7BE5"/>
    <path d="M133.338 127.895H129.25V151.966H133.338V127.895Z" fill="#4B7BE5"/>
    <path d="M143.015 127.895H138.928V151.966H143.015V127.895Z" fill="#4B7BE5"/>
    <path d="M152.691 127.895H148.604V151.966H152.691V127.895Z" fill="#4B7BE5"/>
    <path d="M162.371 127.895H158.283V151.966H162.371V127.895Z" fill="#4B7BE5"/>
    <path d="M172.047 127.895H167.959V151.966H172.047V127.895Z" fill="#4B7BE5"/>
    <path d="M181.724 127.895H177.637V151.966H181.724V127.895Z" fill="#4B7BE5"/>
    <path d="M191.402 127.895H187.314V151.966H191.402V127.895Z" fill="#4B7BE5"/>
    <path d="M201.08 127.895H196.992V151.966H201.08V127.895Z" fill="#4B7BE5"/>
    <path d="M190.861 169.452H130.91V196.021H190.861V169.452Z" fill="#BA381C"/>
    <path d="M118.646 169.906H87.5352V221.228H118.646V169.906Z" fill="#BA381C"/>
    <path d="M158.644 169.452L132.074 196.021H149.758L176.327 169.452H158.644Z" fill="#4B7BE5"/>
    <path d="M157.025 196.021L183.595 169.452H180.218L153.648 196.021H157.025Z" fill="#4B7BE5"/>
    <path d="M190.861 169.452H187.257L160.688 196.021H168.606L190.861 173.766V169.452Z" fill="#4B7BE5"/>
</svg>
