<svg width="24" height="24" viewBox="0 0 24 24" fill="none" xmlns="http://www.w3.org/2000/svg">
<path d="M12.1631 3.00007C9.82865 2.99114 7.58622 3.90991 5.92912 5.55428C4.27203 7.19864 3.336 9.43391 3.32693 11.7684C3.32534 13.3656 3.76463 14.9323 4.59641 16.2959L2.99998 21L7.89235 19.4458C9.23404 20.1817 10.7436 20.5571 12.2737 20.5356C13.8037 20.514 15.3021 20.0961 16.6225 19.3227C17.9429 18.5493 19.0403 17.4468 19.8075 16.1228C20.5747 14.7988 20.9856 13.2985 21 11.7684C20.9955 10.6124 20.7634 9.46864 20.3168 8.40238C19.8703 7.33612 19.2181 6.36825 18.3976 5.55404C17.577 4.73982 16.6041 4.09521 15.5344 3.657C14.4647 3.21878 13.3191 2.99556 12.1631 3.00007ZM16.5573 15.0982C16.3494 15.6138 15.4092 16.084 14.9941 16.1057C14.579 16.1273 14.5677 16.4269 12.3085 15.4455C10.0492 14.464 8.69057 12.0767 8.58348 11.9227C8.47639 11.7687 7.70844 10.6752 7.74968 9.57398C7.75693 9.22469 7.83719 8.88078 7.98532 8.56437C8.13344 8.24795 8.34615 7.96605 8.60976 7.73677C8.68975 7.6556 8.78499 7.59104 8.89001 7.54681C8.99503 7.50257 9.10777 7.47954 9.22172 7.47901C9.39966 7.47602 9.51473 7.47369 9.64644 7.47901C9.77814 7.48434 9.9757 7.45141 10.1453 7.90639C10.3149 8.36137 10.7257 9.47952 10.7772 9.5936C10.8106 9.65313 10.8286 9.72007 10.8295 9.78832C10.8305 9.85657 10.8143 9.92397 10.7826 9.98439C10.7206 10.1171 10.64 10.2403 10.5431 10.3502C10.425 10.4766 10.295 10.6333 10.1899 10.7297C10.0725 10.8368 9.95009 10.9535 10.0735 11.1824C10.3914 11.7708 10.7949 12.3088 11.2708 12.7788C11.789 13.2717 12.3891 13.6706 13.0441 13.9578C13.2657 14.0785 13.398 14.0652 13.5354 13.9206C13.6727 13.7759 14.1234 13.2886 14.2827 13.0701C14.442 12.8516 14.5904 12.8945 14.7946 12.9767C14.9988 13.0588 16.0867 13.6418 16.3082 13.7622C16.5297 13.8826 16.6777 13.9442 16.7306 14.0396C16.7783 14.4019 16.718 14.7701 16.5573 15.0982Z" fill="#1DC449"/>
</svg>