<svg xmlns="http://www.w3.org/2000/svg" width="40" height="35" viewBox="0 0 40 35">
  <rect id="Rectangle_1369" data-name="Rectangle 1369" width="40" height="35" rx="4" fill="#4B7BE5"/>
  <path id="Icon_metro-bin" fill="#ffffff" data-name="Icon metro-bin" d="M5.58,7.333v10.81a1.084,1.084,0,0,0,1.081,1.081h9.729a1.084,1.084,0,0,0,1.081-1.081V7.333Zm3.243,9.729H7.742V9.495H8.823Zm2.162,0H9.9V9.495h1.081Zm2.162,0H12.065V9.495h1.081Zm2.162,0H14.227V9.495h1.081ZM17.741,4.09H14.227V2.739a.813.813,0,0,0-.811-.811H9.633a.813.813,0,0,0-.811.811V4.09H5.309A.813.813,0,0,0,4.5,4.9V6.252H18.551V4.9a.813.813,0,0,0-.811-.811Zm-4.594,0H9.9V3.023h3.243V4.09Z" transform="translate(8.501 7.072)"/>
</svg>
