<svg xmlns="http://www.w3.org/2000/svg" width="22" height="19" viewBox="0 0 22 19" fill="none">
<path d="M7.89756 1.40296e-06C7.57804 0.00432982 7.26364 0.228027 7.13949 0.467072L6.24034 2.25625H2.53838C1.1466 2.25625 0 3.4031 0 4.79463V15.5127C0 16.9045 1.14685 18.0511 2.53838 18.0511H19.4616C20.8534 18.0511 22 16.9042 22 15.5127V4.79463C22 3.40285 20.8531 2.25625 19.4616 2.25625H15.7597L14.8605 0.467072C14.7208 0.187693 14.4153 -0.000592925 14.1028 1.40296e-06H7.89756ZM8.42641 1.69242H13.5739L14.473 3.4816C14.6131 3.76098 14.9185 3.94927 15.2311 3.94867H19.4619C19.9453 3.94867 20.3081 4.31147 20.3081 4.79489V15.5129C20.3081 15.9963 19.9453 16.3591 19.4619 16.3591H2.53869C2.05528 16.3591 1.69247 15.9963 1.69247 15.5129V4.79489C1.69247 4.31148 2.05527 3.94867 2.53869 3.94867H6.76949C7.08212 3.94926 7.38749 3.76098 7.52756 3.4816L8.42671 1.69242H8.42641ZM11.0003 5.07702C8.20626 5.07702 5.92328 7.36004 5.92328 10.154C5.92328 12.9479 8.20631 15.231 11.0003 15.231C13.7942 15.231 16.0772 12.9479 16.0772 10.154C16.0772 7.36004 13.7942 5.07702 11.0003 5.07702ZM11.0003 6.76944C12.8795 6.76944 14.3848 8.27476 14.3848 10.154C14.3848 12.0333 12.8795 13.5386 11.0003 13.5386C9.12097 13.5386 7.61566 12.0333 7.61566 10.154C7.61566 8.27476 9.12117 6.76944 11.0003 6.76944Z" fill="white"/>
</svg>