
<svg width="18" height="17" viewBox="0 0 18 17" fill="none" xmlns="http://www.w3.org/2000/svg">
<path fill-rule="evenodd" clip-rule="evenodd" d="M5.61175 10.4141C4.12835 10.432 2.71058 11.0751 1.6626 12.2054C0.614628 13.3357 0.0199455 14.8632 0.00614342 16.4601C0.00614342 16.4601 0.00614342 16.4601 0.00614342 16.4664C-0.00518452 16.5371 -0.000803387 16.6097 0.0189281 16.6782C0.0189281 16.6782 0.0189281 16.6782 0.0189281 16.6856C0.0272196 16.7123 0.0377526 16.7382 0.0503978 16.7629C0.0581789 16.7772 0.0667162 16.791 0.0759673 16.8042C0.0838886 16.8163 0.0924247 16.8279 0.101537 16.8391C0.109404 16.8511 0.117927 16.8627 0.127106 16.874L0.152676 16.9016C0.164962 16.9115 0.177768 16.9207 0.19103 16.9291L0.2225 16.9503H0.228401C0.262468 16.9695 0.298889 16.9834 0.336579 16.9916H0.34248C0.395049 17.0031 0.449228 17.0031 0.501797 16.9916H17.5153C17.5809 17.0047 17.6485 17 17.712 16.9778C17.7713 16.9588 17.8258 16.9255 17.8713 16.8804L17.8841 16.8666C17.8841 16.8666 17.8841 16.8666 17.8841 16.8592L17.9097 16.8317L17.9156 16.8243L17.9343 16.7968C17.9343 16.7968 17.9343 16.7967 17.9343 16.7893C17.9343 16.7819 17.947 16.7661 17.9529 16.7544C17.966 16.7278 17.9766 16.6997 17.9844 16.6708C17.9992 16.614 18.0035 16.5547 17.9972 16.4961C17.9972 16.4961 17.9972 16.4961 17.9972 16.4887C17.9906 14.8867 17.399 13.3518 16.3503 12.2153C15.3015 11.0788 13.8796 10.4318 12.3916 10.4141H5.60585H5.61175Z" fill="#4B7BE5"/>
<path fill-rule="evenodd" clip-rule="evenodd" d="M8.64111 0.00222085C7.74557 -0.0259196 6.86202 0.213904 6.10364 0.691037C5.34526 1.16817 4.74658 1.86087 4.38428 2.68037C4.02199 3.49987 3.91257 4.40886 4.07006 5.29093C4.22755 6.17301 4.64476 6.98799 5.26826 7.63147C5.89176 8.27495 6.69315 8.71766 7.56979 8.90285C8.44642 9.08804 9.35838 9.00725 10.1888 8.67092C11.0193 8.33459 11.7305 7.758 12.2312 7.01497C12.732 6.27195 12.9995 5.39634 12.9996 4.50032C13.0158 3.32648 12.5663 2.19403 11.7494 1.35095C10.9325 0.50787 9.81482 0.0229079 8.64111 0.00222085Z" fill="#4B7BE5"/>
</svg>
