<svg width="22" height="19" viewBox="0 0 22 19" fill="none" xmlns="http://www.w3.org/2000/svg">
<path d="M7.54918 10.15C8.10619 10.15 8.6403 9.92866 9.03409 9.53491C9.42803 9.14097 9.64932 8.60683 9.64932 8.05C9.64932 7.49299 9.42802 6.95888 9.03409 6.56491C8.64033 6.17114 8.10619 5.94986 7.54918 5.94986C6.99235 5.94986 6.45819 6.17115 6.06426 6.56491C5.6705 6.95884 5.44922 7.49299 5.44922 8.05C5.44922 8.60683 5.67051 9.14098 6.06426 9.53491C6.4582 9.92868 6.99235 10.15 7.54918 10.15ZM7.54918 7.44995C7.79192 7.44995 8.01079 7.59609 8.10355 7.82035C8.1965 8.04461 8.14506 8.30254 7.97346 8.47415C7.80186 8.64575 7.54377 8.69719 7.31966 8.60424C7.0954 8.51147 6.94927 8.29261 6.94927 8.05004C6.94927 7.71853 7.21782 7.45 7.54918 7.45V7.44995Z" fill="white"/>
<path d="M11.674 8.97494C11.5444 8.77666 11.329 8.65127 11.0927 8.63645C10.8564 8.62163 10.6271 8.71929 10.4738 8.89995L7.72375 12.15L6.49884 11.2749C6.33666 11.1581 6.13454 11.111 5.9375 11.1438C5.74027 11.1767 5.56448 11.2869 5.44888 11.4498L3.22388 14.6249C3.11959 14.7764 3.07478 14.9611 3.09762 15.1435C3.12064 15.3259 3.20975 15.4937 3.34839 15.6147C3.48685 15.7357 3.6649 15.8016 3.84888 15.7999H14.6239C14.8876 15.7913 15.1272 15.645 15.2552 15.4145C15.3834 15.184 15.3809 14.9032 15.2489 14.6749L11.674 8.97494ZM5.27397 14.2999L6.24897 12.9499L7.39906 13.7749H7.39889C7.5513 13.8819 7.73825 13.9285 7.92309 13.9053C8.10794 13.8823 8.27744 13.7911 8.39898 13.6498L10.9489 10.6249L13.2489 14.2999L5.27397 14.2999Z" fill="white"/>
<path d="M19.0001 0H6.25009C5.45437 0 4.69125 0.315987 4.12866 0.878573C3.56607 1.4413 3.2499 2.20425 3.2499 3.00001V3.49996H3.00001C2.20429 3.49996 1.44134 3.81595 0.878573 4.37871C0.315983 4.94131 0 5.70439 0 6.49997V15.25C0 16.0457 0.315987 16.8087 0.878573 17.3714C1.4413 17.934 2.20425 18.25 3.00001 18.25H15.5C16.2956 18.25 17.0587 17.934 17.6213 17.3714C18.184 16.8087 18.5 16.0457 18.5 15.25V14.75H19C19.7957 14.75 20.5587 14.434 21.1214 13.8713C21.684 13.3087 22 12.5456 22 11.75V3.00001C22 2.20429 21.684 1.44134 21.1214 0.878573C20.5587 0.315983 19.7958 0 19 0H19.0001ZM17.0001 15.25C17.0001 15.6478 16.8421 16.0294 16.5608 16.3107C16.2795 16.5921 15.8979 16.7501 15.5002 16.7501H3.00014C2.60236 16.7501 2.2208 16.5921 1.93951 16.3107C1.65805 16.0294 1.50005 15.6478 1.50005 15.25V6.50001C1.50005 6.10224 1.65805 5.72068 1.93951 5.43939C2.22079 5.1581 2.60237 5.00011 3.00014 5.00011H15.5002C15.8979 5.00011 16.2795 5.1581 16.5608 5.43939C16.8421 5.72067 17.0001 6.10225 17.0001 6.50001V15.25ZM20.5 11.7501H20.5002C20.5002 12.1479 20.3422 12.5294 20.0607 12.8107C19.7794 13.092 19.3978 13.25 19.0001 13.25H18.5001V6.5C18.5001 5.70447 18.1841 4.94134 17.6214 4.37875C17.0588 3.81603 16.2957 3.5 15.5001 3.5H4.75009V3.00004C4.75009 2.60226 4.90809 2.22071 5.18937 1.93941C5.47065 1.65795 5.85223 1.49996 6.25017 1.49996H19.0002C19.398 1.49996 19.7795 1.65795 20.0608 1.93941C20.3423 2.2207 20.5003 2.60227 20.5003 3.00004L20.5 11.7501Z" fill="white"/>
</svg>