<svg width="23" height="17" viewBox="0 0 23 17" fill="none" xmlns="http://www.w3.org/2000/svg">
<path d="M21.9516 0H1.04837C0.770325 0 0.503668 0.113613 0.30706 0.315844C0.110453 0.518075 0 0.792359 0 1.07836V8.56597C0.000653219 8.85153 0.111394 9.12516 0.307931 9.32685C0.504468 9.52853 0.770752 9.64179 1.04837 9.64179H21.9516C22.2297 9.64179 22.4963 9.52818 22.6929 9.32595C22.8895 9.12372 23 8.84943 23 8.56343V1.07582C22.9993 0.790262 22.8886 0.516629 22.6921 0.314946C22.4955 0.113263 22.2292 -7.90472e-07 21.9516 0ZM9.12452 4.56716L8.06135 5.6303L8.30802 7.13239C8.32003 7.2145 8.31005 7.29842 8.27915 7.37514C8.24826 7.45185 8.19761 7.51845 8.13267 7.56777C8.06773 7.61708 7.99094 7.64726 7.91057 7.65504C7.8302 7.66282 7.74929 7.64792 7.67653 7.61194L6.36422 6.90149L5.05191 7.61194C4.97854 7.65153 4.89586 7.66922 4.81323 7.663C4.7306 7.65678 4.6513 7.6269 4.58432 7.57674C4.51733 7.52658 4.46533 7.45814 4.43418 7.37917C4.40304 7.3002 4.394 7.21383 4.40809 7.12985L4.65476 5.62776L3.60639 4.55448C3.54707 4.49495 3.50513 4.41953 3.48531 4.33676C3.4655 4.25399 3.4686 4.16716 3.49427 4.08611C3.51994 4.00505 3.56715 3.93301 3.63055 3.87812C3.69396 3.82323 3.77104 3.78769 3.85307 3.77552L5.30845 3.55224L5.96461 2.18463C6.00123 2.10809 6.05796 2.04363 6.12837 1.99855C6.19878 1.95348 6.28005 1.92959 6.36299 1.92959C6.44592 1.92959 6.5272 1.95348 6.59761 1.99855C6.66802 2.04363 6.72475 2.10809 6.76137 2.18463L7.41752 3.55224L8.88524 3.77298C8.96727 3.78515 9.04435 3.82069 9.10775 3.87558C9.17116 3.93047 9.21837 4.00252 9.24404 4.08357C9.26971 4.16462 9.27281 4.25145 9.25299 4.33422C9.23318 4.417 9.19124 4.49241 9.13192 4.55194L9.12452 4.56716ZM18.4094 6.08955H12.2425C11.9448 6.08955 11.6593 5.96792 11.4489 5.75141C11.2384 5.53491 11.1201 5.24126 11.1201 4.93507C11.1201 4.62889 11.2384 4.33524 11.4489 4.11873C11.6593 3.90223 11.9448 3.7806 12.2425 3.7806H18.4069C18.7046 3.7806 18.9901 3.90223 19.2005 4.11873C19.411 4.33524 19.5293 4.62889 19.5293 4.93507C19.5293 5.24126 19.411 5.53491 19.2005 5.75141C18.9901 5.96792 18.7046 6.08955 18.4069 6.08955H18.4094ZM18.8411 14.5007C18.8411 14.7807 18.7329 15.0492 18.5405 15.2471C18.3481 15.4451 18.087 15.5563 17.8149 15.5563H12.1932C12.0543 15.5633 11.9156 15.5412 11.7853 15.4914C11.655 15.4416 11.5359 15.365 11.4353 15.2665C11.3346 15.1679 11.2544 15.0493 11.1997 14.9179C11.1449 14.7865 11.1167 14.645 11.1167 14.502C11.1167 14.359 11.1449 14.2176 11.1997 14.0862C11.2544 13.9548 11.3346 13.8362 11.4353 13.7376C11.5359 13.639 11.655 13.5625 11.7853 13.5126C11.9156 13.4628 12.0543 13.4408 12.1932 13.4478H17.8149C18.0866 13.4478 18.3473 13.5586 18.5396 13.756C18.732 13.9534 18.8404 14.2212 18.8411 14.5007ZM9.43779 13.7396C9.46171 13.8138 9.46467 13.8935 9.44633 13.9694C9.42799 14.0453 9.38911 14.1143 9.33419 14.1684L8.36722 15.1401L8.59663 16.5128C8.60627 16.5726 8.60318 16.6339 8.58756 16.6923C8.57195 16.7507 8.54418 16.805 8.50618 16.8513C8.46818 16.8976 8.42086 16.9349 8.36748 16.9606C8.3141 16.9863 8.25594 16.9997 8.19702 17C8.13084 17.0001 8.06564 16.9835 8.00708 16.9518L6.81317 16.3022L5.61433 16.9493C5.54742 16.9862 5.47176 17.0029 5.39601 16.9977C5.32026 16.9924 5.24747 16.9654 5.18597 16.9196C5.12447 16.8738 5.07674 16.8111 5.04824 16.7388C5.01973 16.6664 5.0116 16.5872 5.02477 16.5103L5.25418 15.1376L4.28475 14.1658C4.2305 14.1116 4.1921 14.0429 4.17391 13.9674C4.15571 13.8919 4.15846 13.8126 4.18184 13.7387C4.20521 13.6647 4.24827 13.5989 4.30614 13.5489C4.36401 13.4988 4.43436 13.4664 4.50922 13.4554L5.84867 13.2549L6.44809 12.0066C6.48127 11.9363 6.53298 11.8772 6.59732 11.8357C6.66166 11.7943 6.73604 11.7724 6.81194 11.7724C6.88784 11.7724 6.96221 11.7943 7.02655 11.8357C7.09089 11.8772 7.1426 11.9363 7.17578 12.0066L7.7752 13.2549L9.11465 13.4554C9.18895 13.4669 9.25861 13.4997 9.31572 13.5499C9.37284 13.6002 9.41513 13.6659 9.43779 13.7396Z" fill="#34B751"/>
</svg>
