
<svg width="48" height="36" viewBox="0 0 48 36" fill="none" xmlns="http://www.w3.org/2000/svg">
<path d="M45.8121 0H2.1879C1.60763 0 1.05113 0.240592 0.640822 0.668846C0.230511 1.0971 0 1.67794 0 2.28358V18.1397C0.00136324 18.7444 0.232475 19.3239 0.642639 19.751C1.0528 20.1781 1.60853 20.4179 2.1879 20.4179H45.8121C46.3924 20.4179 46.9489 20.1773 47.3592 19.7491C47.7695 19.3208 48 18.74 48 18.1343V2.27821C47.9986 1.6735 47.7675 1.09404 47.3574 0.666945C46.9472 0.239851 46.3915 -1.67394e-06 45.8121 0ZM19.0425 9.67164L16.8237 11.923L17.3385 15.1039C17.3635 15.2778 17.3427 15.4555 17.2782 15.6179C17.2138 15.7804 17.1081 15.9214 16.9725 16.0259C16.837 16.1303 16.6767 16.1942 16.509 16.2107C16.3413 16.2272 16.1724 16.1956 16.0206 16.1194L13.2819 14.6149L10.5431 16.1194C10.39 16.2032 10.2175 16.2407 10.045 16.2275C9.87255 16.2143 9.70707 16.1511 9.56727 16.0449C9.42748 15.9386 9.31894 15.7937 9.25395 15.6265C9.18895 15.4592 9.17009 15.2764 9.19948 15.0985L9.71428 11.9176L7.52638 9.64478C7.40258 9.51872 7.31505 9.35901 7.2737 9.18372C7.23235 9.00844 7.23882 8.82458 7.29239 8.65293C7.34596 8.48129 7.44448 8.32872 7.57681 8.21249C7.70914 8.09625 7.87 8.02099 8.04118 7.99522L11.0785 7.52239L12.4479 4.62627C12.5243 4.46419 12.6427 4.32769 12.7896 4.23223C12.9366 4.13678 13.1062 4.08618 13.2793 4.08618C13.4524 4.08618 13.622 4.13678 13.7689 4.23223C13.9159 4.32769 14.0343 4.46419 14.1107 4.62627L15.4801 7.52239L18.5431 7.98985C18.7143 8.01562 18.8752 8.09088 19.0075 8.20711C19.1398 8.32335 19.2383 8.47592 19.2919 8.64756C19.3455 8.8192 19.352 9.00307 19.3106 9.17835C19.2692 9.35364 19.1817 9.51334 19.0579 9.6394L19.0425 9.67164ZM38.4196 12.8955H25.5495C24.9283 12.8955 24.3325 12.6379 23.8933 12.1795C23.454 11.721 23.2072 11.0991 23.2072 10.4507C23.2072 9.80235 23.454 9.18051 23.8933 8.72203C24.3325 8.26354 24.9283 8.00597 25.5495 8.00597H38.4144C39.0356 8.00597 39.6314 8.26354 40.0707 8.72203C40.51 9.18051 40.7568 9.80235 40.7568 10.4507C40.7568 11.0991 40.51 11.721 40.0707 12.1795C39.6314 12.6379 39.0356 12.8955 38.4144 12.8955H38.4196ZM39.3205 30.7075C39.3205 31.3003 39.0948 31.8688 38.6932 32.288C38.2916 32.7072 37.7469 32.9427 37.1789 32.9427H25.4466C25.1569 32.9575 24.8673 32.9108 24.5954 32.8053C24.3235 32.6998 24.075 32.5377 23.8649 32.329C23.6548 32.1202 23.4875 31.8691 23.3733 31.5908C23.259 31.3125 23.2001 31.0129 23.2001 30.7101C23.2001 30.4074 23.259 30.1078 23.3733 29.8295C23.4875 29.5512 23.6548 29.3001 23.8649 29.0913C24.075 28.8826 24.3235 28.7205 24.5954 28.615C24.8673 28.5095 25.1569 28.4628 25.4466 28.4776H37.1789C37.746 28.4776 38.2899 28.7124 38.6914 29.1304C39.0929 29.5484 39.3191 30.1156 39.3205 30.7075ZM19.6963 29.0955C19.7462 29.2527 19.7523 29.4215 19.7141 29.5822C19.6758 29.7429 19.5947 29.889 19.4801 30.0036L17.462 32.0615L17.9408 34.9684C17.9609 35.095 17.9545 35.2246 17.9219 35.3484C17.8893 35.4722 17.8313 35.5871 17.752 35.6852C17.6727 35.7833 17.574 35.8622 17.4626 35.9166C17.3512 35.9709 17.2298 35.9994 17.1068 36C16.9687 36.0001 16.8326 35.9651 16.7104 35.8979L14.2188 34.5224L11.7169 35.8925C11.5772 35.9707 11.4193 36.0062 11.2612 35.9951C11.1032 35.984 10.9513 35.9267 10.8229 35.8297C10.6946 35.7328 10.5949 35.6001 10.5354 35.4468C10.476 35.2935 10.459 35.1258 10.4865 34.963L10.9653 32.0561L8.94208 29.9982C8.82886 29.8835 8.74872 29.7379 8.71076 29.578C8.6728 29.4181 8.67853 29.2503 8.72731 29.0937C8.77609 28.937 8.86596 28.7978 8.98673 28.6917C9.1075 28.5857 9.25433 28.5171 9.41055 28.4937L12.2059 28.0693L13.4569 25.4257C13.5261 25.277 13.6341 25.1516 13.7683 25.0639C13.9026 24.9762 14.0578 24.9297 14.2162 24.9297C14.3746 24.9297 14.5298 24.9762 14.6641 25.0639C14.7984 25.1516 14.9063 25.277 14.9755 25.4257L16.2265 28.0693L19.0219 28.4937C19.1769 28.5182 19.3223 28.5876 19.4415 28.694C19.5607 28.8004 19.649 28.9395 19.6963 29.0955Z" fill="#34B751"/>
</svg>
