<svg width="194" height="170" viewBox="0 0 194 170" fill="none" xmlns="http://www.w3.org/2000/svg">
    <path d="M32.4629 35.528L29.0182 33.822L28.4675 30L25.7863 32.7657L22.0002 32.1126L23.7877 35.5263L22.0002 38.9416L25.788 38.2903L28.4693 41.0525L29.0199 37.2374L32.4629 35.528ZM26.0865 37.3666L23.5681 37.7992L24.7552 35.528L23.5681 33.2586L26.0865 33.6928L27.8688 31.8542L28.236 34.3941L30.5278 35.528L28.236 36.6653L27.8688 39.2036L26.0865 37.3666Z"
          fill="#4B7BE5"/>
    <path d="M141.236 100.502L140.001 102.86L142.615 102.41L144.466 104.316L144.849 101.681L147.225 100.501L144.849 99.3203L144.466 96.6855L142.615 98.5914L140.001 98.1416L141.236 100.502ZM143.867 98.538L144.065 99.8941L145.288 100.502L144.065 101.111L143.867 102.467L142.914 101.486L141.569 101.717L142.203 100.504L141.569 99.291L142.914 99.5219L143.867 98.538Z"
          fill="#C4C4C4"/>
    <path d="M101.471 6.58431L96.7068 5.02999L96.7068 5.68087e-08L93.7613 4.06673L89.0009 2.51413L91.9447 6.58431L89.0009 10.6528L93.7613 9.10016L96.7068 13.1669L96.7068 8.1369L101.471 6.58431ZM94.089 8.08693L91.2447 9.01401L93.0014 6.58431L91.2447 4.15289L94.089 5.07996L95.8474 2.64855L95.8474 5.6555L98.6916 6.58431L95.8474 7.51138L95.8474 10.5184L94.089 8.08693Z"
          fill="#C4C4C4"/>
    <path d="M159.999 76.8634C159.999 78.9932 161.725 80.7268 163.845 80.7268C165.966 80.7268 167.691 78.9932 167.691 76.8634C167.691 74.7335 165.966 73 163.845 73C161.725 73 159.999 74.7335 159.999 76.8634ZM166.834 76.8634C166.834 78.5194 165.494 79.8652 163.845 79.8652C162.197 79.8652 160.857 78.5194 160.857 76.8634C160.857 75.2074 162.197 73.8616 163.845 73.8616C165.494 73.8616 166.834 75.2074 166.834 76.8634Z"
          fill="#D3D3D3"/>
    <path opacity="0.5"
          d="M70.3447 170L69.9999 169.994C70.1333 166.398 70.5423 162.815 71.2239 159.275C72.715 151.694 75.1943 146.715 78.593 144.477L78.791 144.741C70.8515 149.97 70.3488 169.8 70.3447 170Z"
          fill="#212121"/>
    <path opacity="0.5"
          d="M74.6564 169.923L74.3116 169.916C74.319 169.558 74.5345 161.117 78.0774 158.784L78.2754 159.049C74.8755 161.288 74.6581 169.837 74.6564 169.923Z"
          fill="#212121"/>
    <path d="M80.7525 144.771C79.8004 144.771 79.0285 144.047 79.0285 143.154C79.0285 142.261 79.8004 141.537 80.7525 141.537C81.7047 141.537 82.4766 142.261 82.4766 143.154C82.4766 144.047 81.7047 144.771 80.7525 144.771Z"
          fill="#4B7BE5"/>
    <path d="M79.899 158.677C78.9468 158.677 78.175 157.953 78.175 157.06C78.175 156.167 78.9468 155.443 79.899 155.443C80.8512 155.443 81.623 156.167 81.623 157.06C81.623 157.953 80.8512 158.677 79.899 158.677Z"
          fill="#4B7BE5"/>
    <path opacity="0.2"
          d="M73.8518 145.74C74.1758 147.681 73.3313 149.418 73.3313 149.418C73.3313 149.418 71.9615 148.007 71.6375 146.065C71.3135 144.124 72.1579 142.388 72.1579 142.388C72.1579 142.388 73.5277 143.799 73.8518 145.74Z"
          fill="#212121"/>
    <path opacity="0.2"
          d="M79.4868 150.454C77.5054 151.092 75.5355 150.614 75.5355 150.614C75.5355 150.614 76.7782 149.103 78.7596 148.466C80.7411 147.829 82.7109 148.306 82.7109 148.306C82.7109 148.306 81.4683 149.817 79.4868 150.454Z"
          fill="#212121"/>
    <path opacity="0.2"
          d="M79.5507 162.77C78.6539 163.035 77.6989 163.073 76.7812 162.883C77.3639 162.187 78.1487 161.664 79.041 161.377C79.9333 161.09 80.8952 161.051 81.8105 161.264C81.2108 161.943 80.4316 162.463 79.5507 162.77V162.77Z"
          fill="#212121"/>
    <path d="M183.375 73.3849H183.156C180.779 73.3822 178.499 72.4481 176.818 70.7875C175.136 69.1269 174.19 66.8755 174.188 64.527V61.5024H147.5V61.0703H174.625V64.527C174.628 66.7235 175.498 68.8323 177.05 70.4053C178.602 71.9782 180.715 72.8911 182.938 72.95V61.0703H189.281C190.151 61.0694 190.985 60.7276 191.601 60.1201C192.216 59.5125 192.562 58.6888 192.563 57.8297V24.7748C192.562 23.9156 192.216 23.0919 191.601 22.4844C190.985 21.8769 190.151 21.5351 189.281 21.5341H105.719C104.849 21.5351 104.015 21.8769 103.4 22.4844C102.785 23.0919 102.438 23.9156 102.438 24.7748V48.7558H102V24.7748C102.001 23.8011 102.393 22.8675 103.09 22.179C103.788 21.4904 104.733 21.1031 105.719 21.1021H189.281C190.267 21.1031 191.213 21.4904 191.91 22.179C192.607 22.8675 192.999 23.8011 193 24.7748V57.8297C192.999 58.8034 192.607 59.7369 191.91 60.4255C191.213 61.114 190.267 61.5013 189.281 61.5024H183.375V73.3849Z"
          fill="#BEBEBE"/>
    <path d="M174.994 32.0438C174.967 31.2653 174.672 30.5287 174.173 29.9885C173.673 29.4482 173.006 29.1462 172.312 29.1458H122.684C121.971 29.1458 121.288 29.4635 120.785 30.0292C120.281 30.5949 119.998 31.3621 119.998 32.1621C119.998 32.962 120.281 33.7293 120.785 34.2949C121.288 34.8606 121.971 35.1784 122.684 35.1784H172.312C173.024 35.1773 173.707 34.8591 174.21 34.2937C174.714 33.7283 174.997 32.9617 174.998 32.1621C174.999 32.1226 174.997 32.0831 174.994 32.0438V32.0438Z"
          fill="#D3D3D3"/>
    <path d="M174.994 41.0927C174.967 40.3141 174.672 39.5775 174.173 39.0373C173.673 38.497 173.006 38.195 172.312 38.1946H122.684C121.971 38.1946 121.288 38.5124 120.785 39.078C120.281 39.6437 119.998 40.4109 119.998 41.2109C119.998 42.0109 120.281 42.7781 120.785 43.3438C121.288 43.9094 121.971 44.2272 122.684 44.2272H172.312C173.024 44.2261 173.707 43.908 174.21 43.3425C174.714 42.7771 174.997 42.0105 174.998 41.2109C174.999 41.1714 174.997 41.1319 174.994 41.0927V41.0927Z"
          fill="#D3D3D3"/>
    <path d="M174.996 50.1417C174.969 49.3632 174.678 48.6266 174.185 48.0864C173.691 47.5461 173.033 47.2441 172.347 47.2437H123.326C122.937 47.2437 122.553 47.341 122.201 47.5286C121.849 47.7163 121.537 47.9897 121.289 48.3295C121.179 48.4799 121.083 48.6415 121 48.8121H144.441C145.285 48.8133 146.094 49.195 146.691 49.8736C147.288 50.5521 147.623 51.4721 147.624 52.4317V53.2763H172.347C173.051 53.2752 173.725 52.957 174.222 52.3916C174.719 51.8262 174.999 51.0596 175 50.26C175.001 50.2205 174.999 50.181 174.996 50.1417Z"
          fill="#D3D3D3"/>
    <path d="M5.26467 169.624C5.38156 169.721 5.49851 169.815 5.61817 169.907H35.1423C35.3622 169.815 35.5812 169.72 35.7992 169.624C38.9161 168.242 41.8171 166.402 44.4098 164.162C46.1314 162.676 47.7152 161.142 48.8634 159.705C50.4652 157.698 51.9405 155.512 52.6266 153.021C53.3113 150.53 53.1068 147.674 51.5773 145.609C51.1036 144.973 50.5214 144.43 49.8585 144.005C49.7485 143.934 49.6372 143.866 49.5231 143.802C47.6202 142.759 45.4004 142.487 43.309 143.041C40.3515 143.819 37.8938 145.993 36.1402 148.542C34.3866 151.09 33.2482 154.016 32.1265 156.91C30.988 151.745 27.5407 147.119 22.884 144.767C18.2286 142.414 12.4446 142.443 7.8881 144.991C6.45442 145.797 5.15935 146.836 4.05385 148.067C3.94396 148.188 3.83673 148.311 3.73099 148.436C1.50843 151.057 0.118066 154.415 0.00396767 157.877C-0.0473307 160.113 0.399379 162.331 1.31053 164.366C2.22169 166.4 3.57359 168.198 5.26467 169.624V169.624Z"
          fill="#BEBEBE"/>
    <path d="M33.998 169.907H34.4182C34.4237 169.812 34.4308 169.719 34.4392 169.624C34.5861 167.77 34.8935 165.932 35.358 164.133C36.4236 160.025 38.2438 156.156 40.7234 152.729C43.196 149.291 46.3131 146.38 49.8969 144.16C49.9232 144.145 49.9456 144.124 49.9626 144.099C49.9796 144.073 49.9906 144.044 49.9949 144.014C50.0018 143.975 49.9974 143.934 49.9823 143.897C49.9671 143.86 49.9419 143.828 49.9094 143.804C49.877 143.781 49.8387 143.768 49.799 143.766C49.7594 143.764 49.72 143.773 49.6854 143.793C49.6758 143.799 49.6665 143.805 49.6575 143.812C47.627 145.064 45.7422 146.543 44.0385 148.222C40.991 151.231 38.5337 154.796 36.7963 158.729C35.2635 162.173 34.3247 165.858 34.0204 169.624C34.012 169.719 34.005 169.813 33.998 169.907Z"
          fill="#838383"/>
    <path d="M4.13663 149.189C4.13955 149.191 4.14274 149.192 4.14601 149.192C4.43991 149.247 4.73518 149.304 5.02778 149.366C7.4294 149.869 9.78036 150.596 12.0507 151.54C14.3151 152.482 16.4933 153.626 18.5597 154.96C20.6287 156.293 22.5798 157.807 24.3908 159.485C26.2019 161.161 27.8632 162.998 29.3551 164.974C30.4702 166.454 31.484 168.011 32.3895 169.634C32.4404 169.724 32.4901 169.816 32.5398 169.907H33.0001C32.9518 169.816 32.9021 169.724 32.8511 169.634C31.7557 167.646 30.4997 165.755 29.0961 163.979C27.5439 162.015 25.8233 160.195 23.9547 158.541C22.098 156.897 20.1052 155.42 17.9987 154.125C15.8834 152.826 13.6594 151.72 11.3528 150.82C9.11445 149.948 6.80347 149.283 4.44797 148.834C4.38224 148.821 4.31783 148.809 4.25203 148.797C4.00112 148.75 3.89372 149.136 4.13663 149.189Z"
          fill="#838383"/>
    <path d="M12.1508 163.152C15.0151 162.712 17.9239 162.785 20.7675 163.369C23.6028 163.948 26.34 165.018 28.8807 166.539C30.3084 167.396 31.6636 168.396 32.9294 169.528C33.1362 169.712 32.8434 170.036 32.6385 169.853C30.4174 167.879 27.9276 166.315 25.2638 165.221C22.621 164.128 19.8431 163.499 17.0284 163.354C15.4357 163.272 13.8396 163.353 12.2601 163.595C12.2076 163.609 12.1523 163.601 12.1053 163.571C12.0583 163.541 12.0232 163.492 12.0071 163.435C11.993 163.376 12.0001 163.313 12.027 163.261C12.0539 163.208 12.0984 163.169 12.1508 163.152H12.1508Z"
          fill="#838383"/>
    <path d="M143.363 49.2542H61.637C60.6728 49.2555 59.7485 49.6429 59.0668 50.3314C58.385 51.0199 58.0014 51.9533 58 52.9269V85.9818C58.0014 86.9554 58.385 87.8888 59.0668 88.5773C59.7485 89.2657 60.6728 89.6531 61.637 89.6545H67.4135V101.537H67.6274C69.9531 101.534 72.1827 100.6 73.8272 98.9398C75.4717 97.2792 76.3966 95.0276 76.3991 92.6791V89.6545H143.363C144.327 89.6531 145.252 89.2657 145.933 88.5773C146.615 87.8888 146.999 86.9554 147 85.9818V52.9269C146.999 51.9533 146.615 51.0199 145.933 50.3314C145.252 49.6429 144.327 49.2555 143.363 49.2542V49.2542ZM146.572 85.9818C146.571 86.8409 146.233 87.6646 145.631 88.2721C145.03 88.8796 144.214 89.2214 143.363 89.2224H75.9712V92.6791C75.9683 94.8755 75.1174 96.9842 73.5993 98.5572C72.0812 100.13 70.0156 101.043 67.8414 101.103V89.2224H61.637C60.7862 89.2214 59.9706 88.8796 59.369 88.2721C58.7674 87.6646 58.4289 86.8409 58.4279 85.9818V52.9269C58.4289 52.0678 58.7674 51.2441 59.369 50.6366C59.9706 50.029 60.7862 49.6873 61.637 49.6862H143.363C144.214 49.6873 145.03 50.029 145.631 50.6366C146.233 51.2441 146.571 52.0678 146.572 52.9269V85.9818Z"
          fill="#BEBEBE"/>
    <path d="M127.315 57.2979H77.6857C76.992 57.2982 76.3254 57.5499 75.8256 58.0001C75.3257 58.4503 75.0315 59.0641 75.0045 59.7129C75.0009 59.7456 74.9995 59.7786 75.0002 59.8114C75.0012 60.4778 75.2844 61.1166 75.7879 61.5878C76.2913 62.059 76.9738 62.3241 77.6857 62.325H127.315C128.027 62.325 128.71 62.0602 129.214 61.5888C129.717 61.1174 130 60.4781 130 59.8114C130 59.1448 129.717 58.5055 129.214 58.0341C128.71 57.5627 128.027 57.2979 127.315 57.2979Z"
          fill="#D3D3D3"/>
    <path d="M127.315 66.3467H77.6857C76.992 66.3471 76.3254 66.6491 75.8256 67.1894C75.3257 67.7296 75.0315 68.4662 75.0045 69.2448C75.0009 69.284 74.9995 69.3235 75.0002 69.363C75.0012 70.1626 75.2844 70.9292 75.7879 71.4946C76.2913 72.06 76.9738 72.3782 77.6857 72.3793H127.315C128.027 72.3793 128.71 72.0615 129.214 71.4959C129.717 70.9302 130 70.163 130 69.363C130 68.563 129.717 67.7958 129.214 67.2301C128.71 66.6645 128.027 66.3467 127.315 66.3467Z"
          fill="#D3D3D3"/>
    <path d="M127.315 76.4014H77.6857C76.992 76.4017 76.3254 76.6534 75.8256 77.1036C75.3257 77.5538 75.0315 78.1677 75.0045 78.8164C75.0009 78.8492 74.9995 78.8821 75.0002 78.915C75.0012 79.5813 75.2844 80.2201 75.7879 80.6913C76.2913 81.1625 76.9738 81.4276 77.6857 81.4286H127.315C128.027 81.4286 128.71 81.1637 129.214 80.6923C129.717 80.221 130 79.5816 130 78.915C130 78.2483 129.717 77.609 129.214 77.1376C128.71 76.6662 128.027 76.4014 127.315 76.4014Z"
          fill="#D3D3D3"/>
    <path d="M49.4973 123.763C49.3947 123.763 49.2923 123.756 49.1906 123.744C48.8402 123.702 48.5029 123.59 48.2007 123.414C47.8984 123.238 47.6382 123.002 47.437 122.722C47.2357 122.441 47.098 122.123 47.0329 121.788C46.9678 121.453 46.9768 121.109 47.0592 120.777C47.0787 120.7 47.1023 120.624 47.1299 120.55L39.5321 111.156C39.1976 110.739 39.0112 110.229 39.0005 109.702C38.9898 109.175 39.1554 108.658 39.4728 108.229L42.1342 104.659L45.6127 107.251L44.2152 109.569L49.7494 118.938C49.8607 118.948 49.9711 118.965 50.0799 118.99C50.6762 119.128 51.1992 119.473 51.5499 119.959C51.9006 120.445 52.0546 121.038 51.9828 121.626C51.911 122.214 51.6183 122.757 51.1603 123.15C50.7022 123.544 50.1105 123.762 49.4973 123.763L49.4973 123.763Z"
          fill="#FFB8B8"/>
    <path d="M61.0004 166.891L63.7107 166.89L65 156.836L61 156.836L61.0004 166.891Z" fill="#FFB8B8"/>
    <path d="M68.5156 169.907L60.2089 169.907L60.2088 166.681L65.3061 166.68C65.7275 166.68 66.1449 166.764 66.5343 166.926C66.9237 167.088 67.2775 167.326 67.5755 167.625C67.8735 167.925 68.11 168.281 68.2713 168.672C68.4326 169.064 68.5156 169.483 68.5156 169.907V169.907Z"
          fill="#4B7BE5"/>
    <path d="M39.0004 166.891L41.7107 166.89L43 156.836L39 156.836L39.0004 166.891Z" fill="#FFB8B8"/>
    <path d="M46.7422 169.907L38.4355 169.907L38.4353 166.681L43.5326 166.68C43.9541 166.68 44.3714 166.764 44.7608 166.926C45.1502 167.088 45.504 167.326 45.8021 167.625C46.1001 167.925 46.3365 168.281 46.4978 168.672C46.6591 169.064 46.7422 169.483 46.7422 169.907V169.907Z"
          fill="#4B7BE5"/>
    <path d="M41.002 105.38L46.5219 107.57L47.8696 103.662C48.0485 103.143 48.046 102.575 47.8624 102.057C47.6789 101.54 47.3261 101.108 46.8664 100.836V100.836C46.4015 100.561 45.8576 100.468 45.3331 100.575C44.8085 100.682 44.3379 100.981 44.0062 101.419L41.002 105.38Z"
          fill="#4B7BE5"/>
    <path d="M59.936 158.847C59.6986 158.847 59.4681 158.768 59.2807 158.624C59.0933 158.48 58.9596 158.278 58.9009 158.05C55.9362 146.817 52.9261 141.187 49.6982 134.676C49.6175 134.514 49.4867 134.381 49.3246 134.298C49.1626 134.214 48.9778 134.184 48.7972 134.211C48.6167 134.239 48.4497 134.323 48.3206 134.451C48.1915 134.579 48.107 134.745 48.0795 134.923L44.0785 157.823C44.0385 158.078 43.9062 158.311 43.7061 158.477C43.506 158.643 43.2519 158.731 42.9909 158.725L37.0508 158.582C36.9067 158.579 36.7647 158.547 36.6334 158.488C36.502 158.43 36.3841 158.345 36.2868 158.24C36.1839 158.139 36.1052 158.016 36.0565 157.881C36.0078 157.746 35.9902 157.602 36.0052 157.459C38.6956 139.887 40.8138 123.981 44.8874 119.129C45.0003 119.023 45.1297 118.936 45.2707 118.871L45.1471 118.852C45.1118 118.846 45.0177 118.832 45.0166 118.738L45.0154 118.648L45.1083 118.63C45.2567 118.625 45.4047 118.647 45.5449 118.695L54.8421 120.113C55.0997 120.152 55.334 120.283 55.5015 120.48C55.6689 120.678 55.7581 120.929 55.7523 121.187C56.2578 123.529 57.0323 127.064 57.1016 127.238C62.062 136.578 63.9869 143.933 65.9875 156.492C66.0289 156.758 65.9671 157.03 65.8143 157.253C65.6616 157.476 65.4293 157.633 65.1642 157.694L60.1781 158.82C60.0987 158.838 60.0175 158.847 59.936 158.847V158.847Z"
          fill="#212121"/>
    <path d="M55.5436 121.646C55.4572 121.646 55.371 121.636 55.2869 121.617L45.803 119.456C45.6577 119.424 45.5208 119.363 45.4009 119.278C45.281 119.193 45.1805 119.085 45.1058 118.961C45.0286 118.833 44.9793 118.691 44.9607 118.545C44.9421 118.398 44.9546 118.249 44.9975 118.107C46.0202 114.711 44.6792 110.501 43.0777 106.458C42.874 105.275 43.0735 104.061 43.6467 102.996C44.2199 101.931 45.1362 101.071 46.2598 100.544L46.2856 100.532L51.2648 100.772C52.0824 100.978 52.8408 101.358 53.4829 101.884C54.1251 102.411 54.6343 103.07 54.9723 103.812C56.8915 108.114 57.441 113.635 56.6521 120.69C56.6231 120.952 56.4938 121.195 56.2892 121.371C56.0846 121.548 55.819 121.646 55.5436 121.646L55.5436 121.646Z"
          fill="#4B7BE5"/>
    <path d="M55.9826 111.592C55.4868 111.593 55.0031 111.445 54.599 111.17L51.002 108.71L53.5683 105.487L55.8851 106.767L65.1946 101.615C65.204 101.512 65.2207 101.41 65.2448 101.31C65.3539 100.864 65.5982 100.46 65.9468 100.148C66.2954 99.8361 66.7326 99.6302 67.2031 99.5566C67.6736 99.4829 68.1564 99.5447 68.5903 99.7342C69.0242 99.9237 69.3898 100.232 69.6408 100.621C69.8918 101.01 70.017 101.462 70.0006 101.919C69.9841 102.376 69.8267 102.818 69.5483 103.189C69.2699 103.56 68.883 103.844 68.4365 104.004C67.99 104.165 67.5039 104.194 67.0398 104.09C66.963 104.072 66.8872 104.051 66.8127 104.026L57.4609 111.103C57.0394 111.42 56.5186 111.593 55.9826 111.592Z"
          fill="#FFB8B8"/>
    <path d="M50.6292 109.581L56 106.028L53.4759 102.551C53.1408 102.089 52.6486 101.758 52.0864 101.615C51.5242 101.472 50.9281 101.527 50.4036 101.77V101.77C49.8729 102.016 49.4502 102.439 49.2118 102.961C48.9733 103.484 48.9349 104.072 49.1034 104.62L50.6292 109.581Z"
          fill="#4B7BE5"/>
    <path d="M48 98.5208C50.7614 98.5208 53 96.0449 53 92.9908C53 89.9368 50.7614 87.4609 48 87.4609C45.2386 87.4609 43 89.9368 43 92.9908C43 96.0449 45.2386 98.5208 48 98.5208Z"
          fill="#FFB8B8"/>
    <path d="M48.1036 98.2516C47.3822 98.2482 46.8257 97.431 46.8581 96.6556C46.8904 95.8802 47.3744 95.198 47.9576 94.7411C48.5408 94.2842 49.2247 94.0059 49.875 93.6699C50.5254 93.334 51.17 92.915 51.5715 92.2701C51.8141 91.8481 51.9589 91.3695 51.9938 90.8747C52.0286 90.3799 51.9525 89.8833 51.7718 89.4268C51.3981 88.5136 50.7566 87.7574 49.9453 87.2741C48.7403 86.5151 47.3138 86.2724 45.9499 86.5944C44.586 86.9163 43.3849 87.7792 42.5859 89.0112L41.7624 91.4237C40.9233 92.5093 40.7902 94.1215 41.306 95.4199C41.8218 96.7182 42.9201 97.695 44.1594 98.1594C45.4168 98.5942 46.7628 98.6376 48.0422 98.2847"
          fill="#212121"/>
    <path d="M43 90.3222C42.6105 89.7619 42.0791 89.2997 41.4528 88.9761C40.8264 88.6526 40.1244 88.4778 39.4085 88.4671C38.6926 88.4564 37.9849 88.6101 37.3477 88.9147C36.7106 89.2193 36.1636 89.6654 35.7549 90.2137C35.0709 91.1315 34.8224 92.263 34.3521 93.2911C33.5002 95.1323 31.9508 96.6163 30 97.4594C31.7081 97.7396 33.4098 96.9292 34.7754 95.932C36.1409 94.9349 37.3419 93.7178 38.8713 92.9551C40.0744 92.3572 41.426 92.0677 42.7882 92.116"
          fill="#212121"/>
</svg>
