<svg width="38" height="38" viewBox="0 0 38 38" fill="none" xmlns="http://www.w3.org/2000/svg">
<rect width="38" height="38" rx="7" fill="white"/>
<path d="M30.0019 27.2503C30.0041 27.6094 29.9263 27.9654 29.7729 28.2979C29.6196 28.6304 29.3938 28.9329 29.1083 29.1882C28.8229 29.4434 28.4834 29.6465 28.1092 29.7856C27.7351 29.9248 27.3337 29.9974 26.9278 29.9993C26.8007 30.0002 26.6736 29.9938 26.5474 29.9802C25.7823 29.8801 25.085 29.5359 24.5868 29.0123C24.0886 28.4888 23.824 27.8222 23.8427 27.1379V10.8612C23.8244 10.1764 24.0898 9.50934 24.589 8.98576C25.0881 8.46218 25.7865 8.11829 26.5524 8.01893C26.987 7.97342 27.4275 8.01019 27.8448 8.1268C28.262 8.2434 28.6465 8.43718 28.9727 8.69528C29.2988 8.95338 29.5593 9.2699 29.7367 9.62384C29.9141 9.97778 30.0044 10.3611 30.0017 10.7483L30.0019 27.2503Z" fill="#F9AB00"/>
<path d="M18.9303 16.4648C18.1048 16.5043 17.3293 16.8221 16.768 17.351C16.2066 17.88 15.9035 18.5785 15.9227 19.2988V26.5381C15.9227 28.5029 16.915 29.6953 18.3685 29.9485C18.7673 30.019 19.1781 30.0203 19.5774 29.9524C19.9767 29.8846 20.3568 29.7488 20.6959 29.5528C21.035 29.3569 21.3265 29.1047 21.5537 28.8105C21.7809 28.5164 21.9394 28.1861 22.0201 27.8386C22.0622 27.6596 22.0829 27.4773 22.0818 27.2946V19.1745C22.0826 18.8194 22.0031 18.4676 21.8479 18.1392C21.6927 17.8108 21.4647 17.5122 21.1771 17.2606C20.8895 17.009 20.5478 16.8092 20.1716 16.6727C19.7953 16.5361 19.3919 16.4655 18.9844 16.4648C18.9661 16.4648 18.9476 16.4648 18.9303 16.4648Z" fill="#E37400"/>
<rect x="14.1602" y="24.0781" width="5.92266" height="6.15994" rx="2.96133" transform="rotate(90 14.1602 24.0781)" fill="#E37400"/>
</svg>
