<svg width="7" height="10" viewBox="0 0 7 10" fill="none" xmlns="http://www.w3.org/2000/svg">
<path opacity="0.6" d="M1.87054 5.00286e-05C1.99861 -0.000313333 2.12516 0.0232357 2.24088 0.0689663C2.35659 0.114697 2.45854 0.181446 2.53923 0.264311L6.67997 4.54962C6.80607 4.67742 6.875 4.83772 6.875 5.00315C6.875 5.16858 6.80607 5.32888 6.67997 5.45668L2.39349 9.74199C2.24797 9.88784 2.03887 9.97957 1.81218 9.99698C1.58548 10.0144 1.35977 9.95607 1.1847 9.83484C1.00963 9.71361 0.899528 9.5394 0.878628 9.35054C0.857727 9.16168 0.927735 8.97364 1.07325 8.82779L4.90537 4.99958L1.20185 1.17137C1.09701 1.06653 1.03042 0.938871 1.00995 0.803492C0.989477 0.668113 1.01598 0.53068 1.08633 0.407458C1.15667 0.284236 1.26792 0.180379 1.40689 0.10818C1.54587 0.0359788 1.70676 -0.0015445 1.87054 5.00286e-05Z" fill="#212121"/>
</svg>