
<svg width="76" height="76" viewBox="0 0 76 76" fill="none" xmlns="http://www.w3.org/2000/svg">
<circle cx="38" cy="38" r="38" fill="#F8F8F8"/>
<path d="M38 22C34.8355 22 31.7421 22.9384 29.1109 24.6965C26.4797 26.4546 24.4289 28.9534 23.2179 31.8771C22.0069 34.8007 21.6901 38.0177 22.3074 41.1214C22.9248 44.2251 24.4487 47.0761 26.6863 49.3137C28.9239 51.5513 31.7749 53.0752 34.8786 53.6926C37.9823 54.3099 41.1993 53.9931 44.1229 52.7821C47.0466 51.5711 49.5454 49.5203 51.3035 46.8891C53.0616 44.2579 54 41.1645 54 38C53.9953 33.758 52.308 29.6911 49.3085 26.6915C46.3089 23.692 42.242 22.0047 38 22ZM36.4696 29.9091C36.4696 29.5033 36.6308 29.114 36.9178 28.827C37.2048 28.5401 37.594 28.3788 37.9999 28.3788C38.4058 28.3788 38.795 28.5401 39.082 28.827C39.369 29.114 39.5302 29.5033 39.5302 29.9091V40.4157C39.5302 40.8216 39.369 41.2108 39.082 41.4978C38.795 41.7848 38.4058 41.946 37.9999 41.946C37.594 41.946 37.2048 41.7848 36.9178 41.4978C36.6308 41.2108 36.4696 40.8216 36.4696 40.4157V29.9091ZM38.0001 47.6209C37.6974 47.6209 37.4016 47.5311 37.1499 47.363C36.8982 47.1948 36.7021 46.9558 36.5863 46.6762C36.4704 46.3966 36.4401 46.0889 36.4992 45.792C36.5582 45.4952 36.704 45.2225 36.918 45.0085C37.132 44.7945 37.4047 44.6487 37.7015 44.5897C37.9984 44.5306 38.3061 44.5609 38.5857 44.6768C38.8653 44.7926 39.1043 44.9887 39.2725 45.2404C39.4406 45.492 39.5304 45.7879 39.5304 46.0906C39.5304 46.2915 39.4908 46.4905 39.4139 46.6762C39.337 46.8619 39.2243 47.0306 39.0822 47.1727C38.9401 47.3148 38.7714 47.4275 38.5857 47.5044C38.4 47.5813 38.2011 47.6209 38.0001 47.6209Z" fill="#FF9E67"/>
</svg>