<svg width="25" height="22" viewBox="0 0 25 22" fill="none" xmlns="http://www.w3.org/2000/svg">
<path d="M18.3846 21.8644L14.4359 17.783H8.58974C3.84615 17.783 -1.90735e-06 13.8077 -1.90735e-06 8.90477C-1.90735e-06 4.00185 3.84615 0 8.58974 0H16.3846C21.1282 0 25 3.97534 25 8.87827C25 12.8006 22.5385 16.1399 19.1282 17.306V21.5464C19.1026 21.9439 18.641 22.1559 18.3846 21.8644Z" fill="#111156"/>
<path d="M18 5.79507C18 5.34453 17.641 5 17.2308 5H7.5641C7.1282 5 6.79487 5.37103 6.79487 5.79507C6.79487 6.24561 7.15384 6.59014 7.5641 6.59014H17.2308C17.641 6.61664 18 6.24561 18 5.79507ZM18 8.89584C18 8.4453 17.641 8.10077 17.2308 8.10077H7.5641C7.1282 8.10077 6.79487 8.4718 6.79487 8.89584C6.79487 9.34638 7.15384 9.69091 7.5641 9.69091H17.2308C17.641 9.69091 18 9.34638 18 8.89584ZM17.2308 11.2015H11.9487C11.5128 11.2015 11.1795 11.5726 11.1795 11.9966C11.1795 12.4471 11.5385 12.7917 11.9487 12.7917H17.2308C17.6667 12.7917 18 12.4206 18 11.9966C18 11.5461 17.641 11.2015 17.2308 11.2015Z" fill="#97C0FF"/>
</svg>
