<svg width="76" height="76" viewBox="0 0 76 76" fill="none" xmlns="http://www.w3.org/2000/svg">
<circle cx="38" cy="38" r="38" fill="#F8F8F8"/>
<path d="M38 22C34.8355 22 31.7421 22.9384 29.1109 24.6965C26.4797 26.4546 24.4289 28.9534 23.2179 31.8771C22.0069 34.8007 21.6901 38.0177 22.3074 41.1214C22.9248 44.2251 24.4487 47.0761 26.6863 49.3137C28.9239 51.5513 31.7749 53.0752 34.8786 53.6926C37.9823 54.3099 41.1993 53.9931 44.1229 52.7821C47.0466 51.5711 49.5454 49.5203 51.3035 46.8891C53.0616 44.2579 54 41.1645 54 38C54 35.8988 53.5861 33.8183 52.7821 31.8771C51.978 29.9359 50.7994 28.172 49.3137 26.6863C47.828 25.2006 46.0641 24.022 44.1229 23.2179C42.1817 22.4139 40.1012 22 38 22Z" fill="#34B751"/>
<path d="M43.374 32.5192L35.8501 40.3936L32.7261 36.748C32.6048 36.6076 32.4596 36.495 32.2988 36.4165C32.1381 36.3381 31.9649 36.2954 31.7892 36.2909C31.6135 36.2864 31.4388 36.3201 31.2749 36.3902C31.111 36.4603 30.9612 36.5654 30.8341 36.6994C30.707 36.8335 30.605 36.9939 30.534 37.1715C30.463 37.349 30.4244 37.5403 30.4203 37.7344C30.4162 37.9285 30.4468 38.1216 30.5102 38.3026C30.5737 38.4837 30.6688 38.6491 30.7901 38.7895L34.8381 43.4558C34.9573 43.5941 35.1006 43.7041 35.2594 43.7793C35.4183 43.8545 35.5893 43.8933 35.7621 43.8933C35.932 43.9025 36.1019 43.8727 36.2609 43.8058C36.42 43.7389 36.5647 43.6363 36.6861 43.5045L45.178 34.6093C45.4258 34.3432 45.5692 33.9802 45.5774 33.5985C45.5857 33.2168 45.458 32.8467 45.222 32.5678C45.1058 32.4264 44.9648 32.3125 44.8076 32.2331C44.6504 32.1537 44.4802 32.1104 44.3074 32.1059C44.1346 32.1013 43.9627 32.1356 43.8023 32.2067C43.6418 32.2777 43.4961 32.3841 43.374 32.5192Z" fill="white"/>
</svg>