<svg width="22" height="22" viewBox="0 0 22 22" fill="none" xmlns="http://www.w3.org/2000/svg">
<path d="M11.1994 8.1793e-05C8.34612 -0.010828 5.60538 1.11211 3.58004 3.12189C1.5547 5.13167 0.410661 7.86367 0.399576 10.7169C0.397637 12.6691 0.934548 14.5839 1.95117 16.2505L-2.17035e-05 22L5.97954 20.1004C7.61938 20.9998 9.46438 21.4587 11.3345 21.4324C13.2046 21.406 15.0359 20.8953 16.6497 19.95C18.2636 19.0047 19.6048 17.6573 20.5425 16.039C21.4802 14.4208 21.9824 12.5871 22 10.7169C21.9945 9.30406 21.7108 7.90612 21.165 6.60291C20.6193 5.29971 19.8222 4.11676 18.8193 3.1216C17.8163 2.12645 16.6272 1.33859 15.3198 0.802995C14.0124 0.267403 12.6122 -0.00542723 11.1994 8.1793e-05ZM16.57 14.7867C16.3159 15.4168 15.1668 15.9916 14.6595 16.018C14.1522 16.0444 14.1383 16.4107 11.377 15.2111C8.61568 14.0116 6.95515 11.0937 6.82425 10.9055C6.69336 10.7173 5.75476 9.38077 5.80517 8.03486C5.81402 7.60795 5.91213 7.18762 6.09317 6.80089C6.27421 6.41417 6.53418 6.06961 6.85637 5.78938C6.95414 5.69018 7.07054 5.61128 7.1989 5.55721C7.32726 5.50315 7.46505 5.47499 7.60433 5.47435C7.8218 5.47069 7.96245 5.46785 8.12342 5.47435C8.28439 5.48085 8.52585 5.44061 8.73317 5.9967C8.94048 6.55278 9.4425 7.91942 9.50551 8.05885C9.54632 8.13161 9.5683 8.21342 9.56943 8.29683C9.57057 8.38025 9.55083 8.46263 9.51201 8.53648C9.43629 8.69873 9.33774 8.84931 9.21933 8.98362C9.07503 9.13809 8.91609 9.32955 8.78763 9.44743C8.64414 9.57832 8.49455 9.721 8.64536 10.0007C9.03397 10.7199 9.52714 11.3774 10.1087 11.9518C10.7422 12.5543 11.4756 13.0419 12.2762 13.3929C12.5469 13.5404 12.7087 13.5242 12.8766 13.3473C13.0445 13.1705 13.5953 12.575 13.79 12.3079C13.9847 12.0409 14.166 12.0933 14.4156 12.1937C14.6652 12.2941 15.9948 13.0067 16.2655 13.1539C16.5363 13.301 16.7172 13.3762 16.7818 13.4929C16.8401 13.9356 16.7665 14.3857 16.57 14.7867Z" fill="#1DC449"/>
</svg>
