<svg width="22" height="22" viewBox="0 0 22 22" fill="none" xmlns="http://www.w3.org/2000/svg">
<path d="M2.57158 0V17.5022H1.75024C1.10867 17.5024 0.48816 17.7312 6.82864e-06 18.1475V1.76C-0.000636087 1.52951 0.0441249 1.30116 0.131734 1.08797C0.219344 0.874788 0.348086 0.680946 0.510611 0.517515C0.673135 0.354084 0.866258 0.224264 1.07895 0.135469C1.29165 0.0466736 1.51975 0.000641124 1.75024 0H2.57158Z" fill="#060B29"/>
<path d="M16.6218 0V1.46667H12.2218V3.87689L10.5155 2.17067L7.05907 5.62711L8.7653 7.33334H6.35506V12.2222H8.7653L7.05907 13.9285L10.5155 17.3849L12.2218 15.6787V17.5022H3.54883V0H16.6218Z" fill="#060B29"/>
<path d="M3.91114 20.5328V19.5551H16.6223V18.4795H1.75024C1.36239 18.4808 0.986048 18.6113 0.680618 18.8504C0.375189 19.0894 0.158077 19.4233 0.0635627 19.7995C0.0226547 19.9426 0.00127596 20.0906 6.82863e-06 20.2395C-0.000636087 20.47 0.0441249 20.6983 0.131734 20.9115C0.219344 21.1247 0.348086 21.3186 0.51061 21.482C0.673134 21.6454 0.866258 21.7752 1.07895 21.864C1.29165 21.9528 1.51975 21.9989 1.75024 21.9995H16.6223V20.5328H3.91114Z" fill="#060B29"/>
<path d="M22.0007 11.2434V8.31002H19.8398C19.7207 7.90827 19.5567 7.52123 19.3509 7.15624L20.8812 5.62602L18.8083 3.55314L17.2878 5.08336C16.9228 4.87754 16.5358 4.71354 16.134 4.59447V2.44336H13.2007V4.60425C12.7989 4.72332 12.4119 4.88732 12.0469 5.09313L10.5167 3.56291L8.44377 5.6358L9.974 7.16602C9.76818 7.53101 9.60418 7.91805 9.48511 8.3198H7.33398V11.2531H9.49488C9.61395 11.6549 9.77795 12.0419 9.98377 12.4069L8.45355 13.9371L10.5264 16.01L12.0567 14.4798C12.4217 14.6856 12.8087 14.8496 13.2105 14.9687V17.11H16.1438V14.9491C16.5455 14.8301 16.9326 14.6661 17.2976 14.4602L18.8278 15.9905L20.9007 13.9176L19.3607 12.3971C19.5665 12.0321 19.7305 11.6451 19.8496 11.2434H22.0007ZM14.6673 12.71C14.0872 12.71 13.5201 12.538 13.0377 12.2157C12.5553 11.8933 12.1793 11.4352 11.9573 10.8992C11.7353 10.3632 11.6772 9.77343 11.7904 9.20442C11.9036 8.63541 12.1829 8.11274 12.5932 7.70251C13.0034 7.29227 13.5261 7.0129 14.0951 6.89972C14.6641 6.78653 15.2539 6.84462 15.7899 7.06664C16.3259 7.28866 16.784 7.66463 17.1063 8.14701C17.4287 8.6294 17.6007 9.19653 17.6007 9.77668C17.6007 10.5547 17.2916 11.3008 16.7415 11.8509C16.1914 12.401 15.4453 12.71 14.6673 12.71Z" fill="#4B7BE5"/>
</svg>
