<svg width="15" height="16" viewBox="0 0 15 16" fill="none" xmlns="http://www.w3.org/2000/svg">
    <g opacity="0.6">
        <path d="M8.75 5H2.5C1.81063 5 1.25 5.598 1.25 6.33333V13C1.25 13.7353 1.81063 14.3333 2.5 14.3333H8.75C9.43938 14.3333 10 13.7353 10 13V6.33333C10 5.598 9.43938 5 8.75 5Z"
              fill="#4B7BE5"/>
        <path d="M12.5 1H6.25C5.91848 1 5.60054 1.14048 5.36612 1.39052C5.1317 1.64057 5 1.97971 5 2.33333V3.66667H10C10.3315 3.66667 10.6495 3.80714 10.8839 4.05719C11.1183 4.30724 11.25 4.64638 11.25 5V10.3333H12.5C12.8315 10.3333 13.1495 10.1929 13.3839 9.94281C13.6183 9.69276 13.75 9.35362 13.75 9V2.33333C13.75 1.97971 13.6183 1.64057 13.3839 1.39052C13.1495 1.14048 12.8315 1 12.5 1Z"
              fill="#4B7BE5"/>
    </g>
</svg>
