<svg width="192" height="130" viewBox="0 0 192 130" fill="none" xmlns="http://www.w3.org/2000/svg">
<rect x="15" y="11" width="162" height="102" rx="10" fill="#4B7BE5"/>
<g filter="url(#filter0_d_8610_68754)">
<rect x="15" y="11" width="162" height="100" rx="10" fill="white"/>
</g>
<path d="M96.532 53.9432C93.9268 53.9432 91.8069 51.7726 91.8069 49.1046V41.9004C91.8069 41.5867 91.8652 41.2846 91.9639 41H77.9718C76.3329 41 75 42.3651 75 44.0425V79.9568C75 81.6347 76.3329 82.9997 77.9718 82.9997H101.473C103.111 82.9997 104.444 81.6347 104.444 79.9568V53.7813C104.166 53.8832 103.872 53.9432 103.567 53.9432H96.532ZM80.6402 48.6369H89.6289C90.1125 48.6369 90.5039 49.0381 90.5039 49.533C90.5039 50.0278 90.1125 50.429 89.6289 50.429H80.6402C80.1566 50.429 79.7652 50.0278 79.7652 49.533C79.7652 49.0381 80.1566 48.6369 80.6402 48.6369ZM97.7145 76.9983H80.6402C80.1566 76.9983 79.7652 76.5971 79.7652 76.1022C79.7652 75.6074 80.1566 75.2062 80.6402 75.2062H97.7145C98.1981 75.2062 98.5895 75.6074 98.5895 76.1022C98.5895 76.5971 98.1981 76.9983 97.7145 76.9983ZM97.7145 70.0032H80.6402C80.1566 70.0032 79.7652 69.602 79.7652 69.1072C79.7652 68.6123 80.1566 68.2111 80.6402 68.2111H97.7145C98.1981 68.2111 98.5895 68.6123 98.5895 69.1072C98.5895 69.602 98.1981 70.0032 97.7145 70.0032ZM97.7145 63.0086H80.6402C80.1566 63.0086 79.7652 62.6074 79.7652 62.1125C79.7652 61.6177 80.1566 61.2165 80.6402 61.2165H97.7145C98.1981 61.2165 98.5895 61.6177 98.5895 62.1125C98.5895 62.6074 98.1981 63.0086 97.7145 63.0086ZM97.7145 56.0139H80.6402C80.1566 56.0139 79.7652 55.6127 79.7652 55.1179C79.7652 54.6231 80.1566 54.2219 80.6402 54.2219H97.7145C98.1981 54.2219 98.5895 54.6231 98.5895 55.1179C98.5895 55.6127 98.1981 56.0139 97.7145 56.0139Z" fill="#060B29"/>
<path d="M96.5323 52.1504H103.567C103.926 52.1504 104.241 51.9264 104.381 51.5948C104.512 51.2633 104.442 50.878 104.188 50.6182L95.0537 41.2635C94.8 41.0037 94.4237 40.932 94.1 41.0664C93.7675 41.2097 93.5575 41.5323 93.5575 41.8997V49.1039C93.5575 50.7795 94.8874 52.1504 96.5323 52.1504Z" fill="#4B7BE5"/>
<path d="M112.551 44.0779H108.483C107.372 44.0779 106.506 45.1262 106.506 46.4524V49.9828H114.538V46.4524C114.538 45.1262 113.663 44.0779 112.551 44.0779Z" fill="#4B7BE5"/>
<path d="M106.506 51.7751V60.7535C106.506 67.5724 107.582 74.1762 109.69 80.3857C109.813 80.7442 110.145 80.9861 110.522 80.9861C110.889 80.9861 111.222 80.7442 111.344 80.3857C113.461 74.1762 114.538 67.5724 114.538 60.7535V51.7751H107.381H106.506Z" fill="#060B29"/>
<path d="M116.659 50.1706C116.51 50.0541 116.326 49.9824 116.125 49.9824H114.541V51.7745H115.25V63.4052C115.25 63.9069 115.644 64.3012 116.125 64.3012C116.606 64.3012 117 63.9069 117 63.4052V50.8785C117 50.5917 116.869 50.3319 116.659 50.1706Z" fill="#4B7BE5"/>
<defs>
<filter id="filter0_d_8610_68754" x="0" y="0" width="192" height="130" filterUnits="userSpaceOnUse" color-interpolation-filters="sRGB">
<feFlood flood-opacity="0" result="BackgroundImageFix"/>
<feColorMatrix in="SourceAlpha" type="matrix" values="0 0 0 0 0 0 0 0 0 0 0 0 0 0 0 0 0 0 127 0" result="hardAlpha"/>
<feOffset dy="4"/>
<feGaussianBlur stdDeviation="7.5"/>
<feComposite in2="hardAlpha" operator="out"/>
<feColorMatrix type="matrix" values="0 0 0 0 0 0 0 0 0 0 0 0 0 0 0 0 0 0 0.08 0"/>
<feBlend mode="normal" in2="BackgroundImageFix" result="effect1_dropShadow_8610_68754"/>
<feBlend mode="normal" in="SourceGraphic" in2="effect1_dropShadow_8610_68754" result="shape"/>
</filter>
</defs>
</svg>
