<svg width="192" height="130" viewBox="0 0 192 130" fill="none" xmlns="http://www.w3.org/2000/svg">
<rect x="15" y="11" width="162" height="102" rx="10" fill="#4B7BE5"/>
<g filter="url(#filter0_d_8610_68757)">
<rect x="15" y="11" width="162" height="100" rx="10" fill="white"/>
</g>
<path d="M108.642 65.1496H117V42.6853C117 42.2382 116.822 41.8097 116.506 41.4936C116.19 41.1776 115.762 41 115.315 41H93.4176C92.9716 41.0015 92.5442 41.1794 92.2292 41.4955C91.9143 41.8115 91.7374 42.2393 91.7374 42.6853V54.9749L99.1978 60.4245C99.5245 60.6713 99.7428 61.0357 99.8054 61.4407C99.868 61.8454 99.7706 62.2588 99.5337 62.5928L98.6727 63.7687C98.4489 64.0653 98.1278 64.2733 97.7656 64.3561C97.4034 64.4385 97.0237 64.3905 96.6933 64.2203L94.693 66.9555L106.243 75.4343H106.679V67.0921C106.68 66.5735 106.888 66.0773 107.257 65.7126C107.625 65.3478 108.124 65.1453 108.642 65.1497L108.642 65.1496ZM114.086 54.6496H101.807C101.662 54.6496 101.545 54.5321 101.545 54.3871C101.545 54.242 101.662 54.1245 101.807 54.1245H114.086C114.231 54.1245 114.349 54.242 114.349 54.3871C114.349 54.5321 114.231 54.6496 114.086 54.6496ZM114.349 58.5241H114.349C114.349 58.5937 114.321 58.6603 114.272 58.7094C114.223 58.7589 114.156 58.7863 114.086 58.7863H104.489C104.346 58.7838 104.23 58.6677 104.227 58.5241C104.227 58.3791 104.344 58.2615 104.489 58.2615H114.086C114.16 58.2539 114.234 58.2784 114.289 58.3286C114.344 58.3784 114.375 58.4494 114.375 58.5241L114.349 58.5241ZM106.558 45.9242L114.087 45.9238C114.231 45.9238 114.349 46.0413 114.349 46.1864C114.349 46.3314 114.231 46.4489 114.087 46.4489H106.558C106.413 46.4489 106.295 46.3314 106.295 46.1864C106.295 46.0413 106.413 45.9238 106.558 45.9238V45.9242ZM104.862 49.9876L114.087 49.9873C114.156 49.9873 114.223 50.0151 114.272 50.0642C114.321 50.1136 114.349 50.1803 114.349 50.2499C114.349 50.3194 114.321 50.3861 114.272 50.4355C114.223 50.4846 114.156 50.5124 114.087 50.5124H104.862C104.718 50.5095 104.602 50.3938 104.599 50.2499C104.602 50.107 104.719 49.9924 104.862 49.9928V49.9876ZM94.8927 51.4994C94.7477 51.4994 94.6301 51.3818 94.6301 51.2368V43.8555C94.6301 43.7105 94.7477 43.5929 94.8927 43.5929H102.3C102.37 43.5929 102.437 43.6208 102.486 43.6698C102.535 43.7189 102.563 43.7859 102.563 43.8555V51.2368C102.563 51.3064 102.535 51.3734 102.486 51.4225C102.437 51.4715 102.37 51.4994 102.3 51.4994L94.8927 51.4994ZM101.807 62.9181C101.662 62.9181 101.545 62.8005 101.545 62.6555C101.545 62.5105 101.662 62.3929 101.807 62.3929H114.086C114.231 62.3929 114.349 62.5105 114.349 62.6555C114.349 62.8005 114.231 62.9181 114.086 62.9181H101.807Z" fill="#060B29"/>
<path d="M91.7371 71.0089V73.7705V73.7702C91.7371 74.2162 91.914 74.6443 92.2289 74.9599C92.5439 75.276 92.9713 75.454 93.4173 75.4554H98.1L91.8316 70.8774L91.7371 71.0089Z" fill="black"/>
<path d="M107.219 67.0921V74.8203L116.364 65.6746H108.642C108.265 65.6746 107.904 65.824 107.638 66.0895C107.371 66.3553 107.22 66.7157 107.219 67.0921L107.219 67.0921Z" fill="#060B29"/>
<path d="M95.1543 44.1184H102.011V50.975H95.1543V44.1184Z" fill="#060B29"/>
<path d="M91.7373 60.629L89.0599 58.6658L82.2141 68.0052L87.9416 72.2053L89.417 73.2867L91.7373 70.1211L96.2575 63.9473L91.7373 60.629Z" fill="#4B7BE5"/>
<path d="M89.3484 73.8862H89.3169L89.233 73.8283L81.6624 68.2527C81.4862 68.1275 81.2753 68.0594 81.0588 68.0587C80.7304 68.055 80.4209 68.2117 80.2294 68.4787L79.3684 69.6494C79.0436 70.1101 79.141 70.7452 79.5889 71.0879L87.2694 76.7001C87.7305 77.0245 88.3654 76.9271 88.7079 76.4796L89.5689 75.3037V75.3033C89.89 74.8434 89.793 74.2124 89.3484 73.8704L89.3484 73.8862Z" fill="#4B7BE5"/>
<path d="M89.1281 58.0669L91.7531 59.9778L96.8299 63.6999V63.7003C97.2898 64.0215 97.9212 63.9244 98.2632 63.4798L99.1242 62.3039V62.3036C99.4486 61.8429 99.3512 61.2078 98.9037 60.8651L91.7531 55.6151L91.228 55.2266L91.2283 55.2269C91.0537 55.0973 90.842 55.0273 90.6245 55.0273H90.467C90.1982 55.0717 89.9572 55.2181 89.795 55.4368L88.934 56.6127C88.7707 56.8306 88.7026 57.1052 88.7451 57.374C88.7773 57.6461 88.915 57.8948 89.1281 58.0669L89.1281 58.0669Z" fill="#4B7BE5"/>
<path d="M94.3828 67.3967L94.073 67.8219L92.1409 70.4469L98.966 75.45L108.416 82.3644C108.819 82.6556 109.321 82.7753 109.812 82.6988C110.304 82.6223 110.745 82.3549 111.041 81.955C111.329 81.5507 111.447 81.0498 111.371 80.559C111.294 80.0686 111.029 79.6274 110.631 79.33L105.381 75.4713L94.3828 67.3967Z" fill="#4B7BE5"/>
<path d="M88.7606 79.136H76.9322C76.2419 79.136 75.604 79.504 75.259 80.1021C74.9137 80.6997 74.9137 81.4361 75.259 82.0338C75.604 82.6314 76.2419 82.9999 76.9322 82.9999H88.7606C89.4506 82.9999 90.0885 82.6315 90.4339 82.0338C90.7789 81.4361 90.7789 80.6997 90.4339 80.1021C90.0885 79.5041 89.4506 79.136 88.7606 79.136Z" fill="#060B29"/>
<defs>
<filter id="filter0_d_8610_68757" x="0" y="0" width="192" height="130" filterUnits="userSpaceOnUse" color-interpolation-filters="sRGB">
<feFlood flood-opacity="0" result="BackgroundImageFix"/>
<feColorMatrix in="SourceAlpha" type="matrix" values="0 0 0 0 0 0 0 0 0 0 0 0 0 0 0 0 0 0 127 0" result="hardAlpha"/>
<feOffset dy="4"/>
<feGaussianBlur stdDeviation="7.5"/>
<feComposite in2="hardAlpha" operator="out"/>
<feColorMatrix type="matrix" values="0 0 0 0 0 0 0 0 0 0 0 0 0 0 0 0 0 0 0.08 0"/>
<feBlend mode="normal" in2="BackgroundImageFix" result="effect1_dropShadow_8610_68757"/>
<feBlend mode="normal" in="SourceGraphic" in2="effect1_dropShadow_8610_68757" result="shape"/>
</filter>
</defs>
</svg>
