<svg width="192" height="130" viewBox="0 0 192 130" fill="none" xmlns="http://www.w3.org/2000/svg">
<rect x="15" y="11" width="162" height="102" rx="10" fill="#4B7BE5"/>
<g filter="url(#filter0_d_8610_68753)">
<rect x="15" y="11" width="162" height="100" rx="10" fill="white"/>
</g>
<path d="M103.953 67.4085C103.953 72.6812 98.5093 76.4197 96.6156 77.5701C96.2368 77.8098 95.7161 77.8098 95.3374 77.5701C93.444 76.4196 88 72.6809 88 67.4085V62.759C88 62.1358 88.426 61.6086 89.0414 61.5129C92.213 60.9856 94.1067 59.5476 95.0533 58.4931C95.5741 57.918 96.4259 57.918 96.9467 58.4931C97.9409 59.5476 99.7871 60.9856 102.959 61.5129C103.574 61.6089 104 62.1361 104 62.759V67.4085H103.953Z" fill="#4B7BE5"/>
<path d="M98.0251 66.2277L95.1379 68.7248L94.0151 67.7537C93.574 67.3722 92.8121 67.3722 92.331 67.7537C91.8898 68.1352 91.8898 68.7942 92.331 69.2104L94.2557 70.8751C94.4962 71.0831 94.7771 71.1872 95.0979 71.1872C95.4188 71.1872 95.6993 71.0831 95.9402 70.8751L99.6693 67.6497C100.11 67.2682 100.11 66.6092 99.6693 66.193C99.2282 65.8461 98.4662 65.8461 98.0251 66.2276V66.2277Z" fill="white"/>
<path d="M88.4958 51.3452H103.316C103.882 51.3452 104.354 50.9029 104.354 50.3725V46.4378C104.354 45.9074 103.882 45.4652 103.316 45.4652H100.861C100.72 42.9895 98.596 41 95.9056 41C93.2152 41 91.0914 42.9894 90.9498 45.4652H88.4955C87.9292 45.4652 87.4571 45.9074 87.4571 46.4378V50.3725C87.4574 50.9033 87.9292 51.3452 88.4958 51.3452ZM95.9056 43.8735C96.944 43.8735 97.7933 44.6691 97.7933 45.6418C97.7933 46.6144 96.944 47.41 95.9056 47.41C94.8673 47.41 94.0179 46.6144 94.0179 45.6418C94.0179 44.6695 94.8673 43.8735 95.9056 43.8735Z" fill="#060B29"/>
<path d="M109.687 48.1621H107.138V50.3726C107.138 52.362 105.439 53.9536 103.316 53.9536H88.4955C86.3717 53.9536 84.6726 52.362 84.6726 50.3726V48.1621H82.3128C81.0383 48.1621 80 49.1347 80 50.3285V80.8337C80 82.0274 81.0383 83.0001 82.3128 83.0001H109.687C110.962 83.0001 112 82.0274 112 80.8337V50.3285C112 49.1347 110.961 48.1621 109.687 48.1621ZM103.882 67.5263C103.882 72.3896 98.4542 75.8378 96.566 76.8989C96.1884 77.12 95.6692 77.12 95.2916 76.8989C93.4039 75.8378 87.9759 72.3893 87.9759 67.5263V63.2379C87.9759 62.663 88.4006 62.1767 89.0143 62.0885C92.1765 61.6021 94.0646 60.2758 95.0084 59.3031C95.5276 58.7727 96.377 58.7727 96.8962 59.3031C97.8875 60.2758 99.7282 61.6022 102.89 62.0885C103.504 62.177 103.929 62.6633 103.929 63.2379V67.5263H103.882Z" fill="#060B29"/>
<defs>
<filter id="filter0_d_8610_68753" x="0" y="0" width="192" height="130" filterUnits="userSpaceOnUse" color-interpolation-filters="sRGB">
<feFlood flood-opacity="0" result="BackgroundImageFix"/>
<feColorMatrix in="SourceAlpha" type="matrix" values="0 0 0 0 0 0 0 0 0 0 0 0 0 0 0 0 0 0 127 0" result="hardAlpha"/>
<feOffset dy="4"/>
<feGaussianBlur stdDeviation="7.5"/>
<feComposite in2="hardAlpha" operator="out"/>
<feColorMatrix type="matrix" values="0 0 0 0 0 0 0 0 0 0 0 0 0 0 0 0 0 0 0.08 0"/>
<feBlend mode="normal" in2="BackgroundImageFix" result="effect1_dropShadow_8610_68753"/>
<feBlend mode="normal" in="SourceGraphic" in2="effect1_dropShadow_8610_68753" result="shape"/>
</filter>
</defs>
</svg>
