<svg width="192" height="130" viewBox="0 0 192 130" fill="none" xmlns="http://www.w3.org/2000/svg">
<rect x="15" y="11" width="162" height="102" rx="10" fill="#4B7BE5"/>
<g filter="url(#filter0_d_8610_68752)">
<rect x="15" y="11" width="162" height="100" rx="10" fill="white"/>
</g>
<path d="M112.358 41H79.6421C77.0779 41 75 43.0779 75 45.6421V78.3579C75 80.9221 77.0779 83 79.6421 83H112.358C114.922 83 117 80.9221 117 78.3579V45.6421C117 43.0779 114.922 41 112.358 41ZM110.236 63.7684H112.579C112.225 67.04 110.943 70.0021 108.998 72.4337L107.318 70.7537C106.611 70.0463 105.505 70.0463 104.798 70.7537C104.091 71.4611 104.091 72.5663 104.798 73.2737L106.478 74.9537C104.046 76.8989 101.084 78.2253 97.8126 78.5347V76.1916C97.8126 75.2189 97.0168 74.4232 96.0442 74.4232C95.0716 74.4232 94.2758 75.2189 94.2758 76.1916V78.5347C91.0042 78.1811 88.0421 76.8989 85.6105 74.9537L87.2905 73.2737C87.9979 72.5663 87.9979 71.4611 87.2905 70.7537C86.5832 70.0463 85.4779 70.0463 84.7705 70.7537L83.0905 72.4337C81.1453 70.0021 79.8189 67.04 79.4653 63.7684H81.8084C82.7811 63.7684 83.5768 62.9726 83.5768 62C83.5768 61.0274 82.7811 60.2316 81.8084 60.2316H79.4653C79.8189 56.96 81.1011 53.9979 83.0905 51.5663L84.7705 53.2463C85.1242 53.6 85.5663 53.7768 86.0526 53.7768C86.4947 53.7768 86.9811 53.6 87.3347 53.2463C88.0421 52.5389 88.0421 51.4337 87.3347 50.7263L85.6547 49.0463C88.0863 47.1011 91.0484 45.7747 94.32 45.4653V47.8084C94.32 48.7811 95.1158 49.5768 96.0884 49.5768C97.0611 49.5768 97.8568 48.7811 97.8568 47.8084V45.4653C101.128 45.8189 104.091 47.1011 106.522 49.0463L104.842 50.7263C104.135 51.4337 104.135 52.5389 104.842 53.2463C105.196 53.6 105.638 53.7768 106.124 53.7768C106.566 53.7768 107.053 53.6 107.406 53.2463L109.086 51.5663C111.032 53.9979 112.358 56.96 112.667 60.2316H110.324C109.352 60.2316 108.556 61.0274 108.556 62C108.556 62.9726 109.219 63.7684 110.236 63.7684Z" fill="#060B29"/>
<path d="M103.07 60.232H97.7652V53.6888C97.7652 52.7162 96.9694 51.9204 95.9967 51.9204C95.0241 51.9204 94.2283 52.7162 94.2283 53.6888V62.0004C94.2283 62.973 95.0241 63.7688 95.9967 63.7688H103.07C104.043 63.7688 104.839 62.973 104.839 62.0004C104.839 61.0278 104.087 60.232 103.07 60.232Z" fill="#4B7BE5"/>
<defs>
<filter id="filter0_d_8610_68752" x="0" y="0" width="192" height="130" filterUnits="userSpaceOnUse" color-interpolation-filters="sRGB">
<feFlood flood-opacity="0" result="BackgroundImageFix"/>
<feColorMatrix in="SourceAlpha" type="matrix" values="0 0 0 0 0 0 0 0 0 0 0 0 0 0 0 0 0 0 127 0" result="hardAlpha"/>
<feOffset dy="4"/>
<feGaussianBlur stdDeviation="7.5"/>
<feComposite in2="hardAlpha" operator="out"/>
<feColorMatrix type="matrix" values="0 0 0 0 0 0 0 0 0 0 0 0 0 0 0 0 0 0 0.08 0"/>
<feBlend mode="normal" in2="BackgroundImageFix" result="effect1_dropShadow_8610_68752"/>
<feBlend mode="normal" in="SourceGraphic" in2="effect1_dropShadow_8610_68752" result="shape"/>
</filter>
</defs>
</svg>
