<svg width="192" height="130" viewBox="0 0 192 130" fill="none" xmlns="http://www.w3.org/2000/svg">
<rect x="15" y="11" width="162" height="102" rx="10" fill="#4B7BE5"/>
<g filter="url(#filter0_d_8610_68755)">
<rect x="15" y="11" width="162" height="100" rx="10" fill="white"/>
</g>
<path d="M105.5 50.1167V58.5673H113.889L105.5 50.1167Z" fill="#060B29"/>
<path d="M104.136 61.3674C103.378 61.3674 102.771 60.7566 102.771 59.9928L102.771 49.0474H97.9201V49.302C97.9201 57.8038 88.8242 62.742 87.763 63.302C87.2575 63.5566 86.6513 63.7093 86.045 63.7093C85.7418 63.7093 85.4387 63.6585 85.1356 63.6074L85.1352 85.091C85.1352 85.8037 85.6911 86.3637 86.3985 86.3637H113.737C114.444 86.3637 115 85.8037 115 85.091V61.3674L104.136 61.3674ZM107.976 81.5274H92.0584C91.3005 81.5274 90.6939 80.9166 90.6939 80.1528C90.6939 79.3893 91.3002 78.7782 92.0584 78.7782H107.976C108.734 78.7782 109.341 79.389 109.341 80.1528C109.391 80.9163 108.785 81.5274 107.977 81.5274H107.976ZM107.976 75.0619H92.0584C91.3005 75.0619 90.6939 74.4511 90.6939 73.6873C90.6939 72.9238 91.3002 72.3126 92.0584 72.3126H107.976C108.734 72.3126 109.341 72.9234 109.341 73.6873C109.391 74.4511 108.785 75.0619 107.977 75.0619H107.976ZM107.976 68.6474H92.0584C91.3005 68.6474 90.6939 68.0366 90.6939 67.2728C90.6939 66.5093 91.3002 65.8982 92.0584 65.8982H107.976C108.734 65.8982 109.341 66.509 109.341 67.2728C109.341 68.0363 108.785 68.6474 107.977 68.6474H107.976Z" fill="#060B29"/>
<path d="M86.0448 60.9093C86.1964 60.9093 86.348 60.8585 86.4995 60.8074C86.8534 60.6547 95.0904 56.2765 95.0904 49.3019V43.4983C95.0904 42.9891 94.6861 42.5821 94.2314 42.5309C88.6222 41.9709 87.0054 38.7127 86.9042 38.56C86.7526 38.2035 86.3987 38 86.0452 38C85.6913 38 85.3377 38.2035 85.1862 38.56C85.1358 38.7127 83.4681 41.9201 77.859 42.5309C77.3535 42.5817 77 42.989 77 43.4983V49.3019C77 56.2764 85.2874 60.6037 85.6413 60.8074C85.7417 60.9093 85.8933 60.9093 86.0449 60.9093H86.0448ZM84.0237 52.9676L81.7498 50.6767C81.1939 50.1167 81.1939 49.2513 81.7498 48.6913C82.3057 48.1313 83.1647 48.1313 83.7206 48.6913L85.0343 50.0148L88.42 46.6039C88.9759 46.0439 89.835 46.0439 90.3908 46.6039C90.9467 47.1639 90.9467 48.0294 90.3908 48.5894L86.045 52.9676C85.7923 53.2222 85.4387 53.3749 85.0848 53.3749C84.6301 53.3749 84.2765 53.2222 84.0238 52.9676H84.0237Z" fill="#4B7BE5"/>
<defs>
<filter id="filter0_d_8610_68755" x="0" y="0" width="192" height="130" filterUnits="userSpaceOnUse" color-interpolation-filters="sRGB">
<feFlood flood-opacity="0" result="BackgroundImageFix"/>
<feColorMatrix in="SourceAlpha" type="matrix" values="0 0 0 0 0 0 0 0 0 0 0 0 0 0 0 0 0 0 127 0" result="hardAlpha"/>
<feOffset dy="4"/>
<feGaussianBlur stdDeviation="7.5"/>
<feComposite in2="hardAlpha" operator="out"/>
<feColorMatrix type="matrix" values="0 0 0 0 0 0 0 0 0 0 0 0 0 0 0 0 0 0 0.08 0"/>
<feBlend mode="normal" in2="BackgroundImageFix" result="effect1_dropShadow_8610_68755"/>
<feBlend mode="normal" in="SourceGraphic" in2="effect1_dropShadow_8610_68755" result="shape"/>
</filter>
</defs>
</svg>
