<svg width="192" height="130" viewBox="0 0 192 130" fill="none" xmlns="http://www.w3.org/2000/svg">
<rect x="15" y="11" width="162" height="102" rx="10" fill="#4B7BE5"/>
<g filter="url(#filter0_d_8610_68756)">
<rect x="15" y="11" width="162" height="100" rx="10" fill="white"/>
</g>
<path d="M100.896 57.8003C97.3654 57.8003 94.5984 55.7647 94.5984 53.1663C94.5984 52.3935 95.2254 51.7664 95.998 51.7664C96.7705 51.7664 97.3975 52.3935 97.3975 53.1663C97.3975 54.0315 98.8937 55.0003 100.896 55.0003C102.908 55.0003 104.409 54.0315 104.409 53.1663C104.409 52.3935 105.036 51.7664 105.809 51.7664C106.581 51.7664 107.208 52.3935 107.208 53.1663C107.208 55.7647 104.436 57.8003 100.896 57.8003Z" fill="black"/>
<path d="M91.1008 57.8003C87.5613 57.8003 84.7888 55.7647 84.7888 53.1663C84.7888 52.3935 85.4158 51.7664 86.1884 51.7664C86.9609 51.7664 87.5879 52.3935 87.5879 53.1663C87.5879 54.0315 89.0896 55.0003 91.1008 55.0003C93.1035 55.0003 94.5996 54.0315 94.5996 53.1663C94.5996 52.3935 95.2266 51.7664 95.9992 51.7664C96.7717 51.7664 97.3987 52.3935 97.3987 53.1663C97.3987 55.7647 94.6318 57.8003 91.1008 57.8003Z" fill="black"/>
<path d="M80.6036 65.1642C79.831 65.1642 79.204 64.537 79.204 63.7642V54.8799L80.6932 54.9751C80.8877 54.9877 81.0822 55.0003 81.2894 55.0003C83.2921 55.0003 84.7882 54.0315 84.7882 53.1663C84.7882 52.3935 85.4152 51.7664 86.1878 51.7664C86.9603 51.7664 87.5873 52.3935 87.5873 53.1663C87.5873 55.5869 85.1871 57.5189 82.0031 57.7723V63.7642C82.0031 64.537 81.3761 65.1642 80.6036 65.1642Z" fill="#060B29"/>
<path d="M112.794 82.9999H86.2023C85.4297 82.9999 84.8027 82.3727 84.8027 81.5999C84.8027 80.8271 85.4297 80.2 86.2023 80.2H109.995V57.7723C106.811 57.5189 104.41 55.5869 104.41 53.1663C104.41 52.3935 105.037 51.7664 105.81 51.7664C106.582 51.7664 107.209 52.3935 107.209 53.1663C107.209 54.0315 108.706 55.0003 110.708 55.0003C110.915 55.0003 111.11 54.9877 111.305 54.9751L112.794 54.8799V82.9999Z" fill="#060B29"/>
<path d="M104.396 64.7991H102.996C101.452 64.7991 100.197 66.0549 100.197 67.599V70.399C100.197 71.9432 101.452 73.199 102.996 73.199H104.396C105.939 73.199 107.195 71.9432 107.195 70.399V67.599C107.195 66.0549 105.939 64.7991 104.396 64.7991Z" fill="#060B29"/>
<path d="M116.747 52.2264L112.122 41H79.8769L75.257 52.2152C75.0106 52.799 74.9421 53.3562 75.0484 53.8658C75.4683 55.9252 77.6474 57.4918 80.5151 57.769C80.7684 57.7858 81.0217 57.7998 81.2904 57.7998C83.2904 57.7998 85.0454 57.1474 86.1902 56.1086C87.3392 57.1474 89.0971 57.7998 91.1012 57.7998C93.0998 57.7998 94.8534 57.1474 95.9996 56.11C97.1459 57.1474 98.8995 57.7998 100.898 57.7998C102.902 57.7998 104.66 57.1474 105.809 56.1086C106.954 57.1474 108.709 57.7998 110.709 57.7998C110.978 57.7998 111.231 57.7858 111.529 57.7648C114.351 57.4918 116.528 55.9266 116.951 53.8686C117.057 53.3534 116.989 52.7962 116.747 52.2264Z" fill="#4B7BE5"/>
<path d="M86.203 60.5984C83.8784 60.5984 81.6629 61.297 79.8085 62.6116C76.8022 64.6933 75.0066 68.1275 75.0066 71.7982C75.0066 75.469 76.8022 78.9031 79.7959 80.9779C81.6629 82.2995 83.8784 82.9981 86.203 82.9981C92.3764 82.9981 97.3994 77.9735 97.3994 71.7982C97.3994 65.6229 92.3764 60.5984 86.203 60.5984Z" fill="#060B29"/>
<rect x="84.45" y="64.7991" width="3.49995" height="8.74988" rx="1.74997" fill="white"/>
<rect x="84.45" y="75.2988" width="3.49995" height="3.49995" rx="1.74997" fill="white"/>
<defs>
<filter id="filter0_d_8610_68756" x="0" y="0" width="192" height="130" filterUnits="userSpaceOnUse" color-interpolation-filters="sRGB">
<feFlood flood-opacity="0" result="BackgroundImageFix"/>
<feColorMatrix in="SourceAlpha" type="matrix" values="0 0 0 0 0 0 0 0 0 0 0 0 0 0 0 0 0 0 127 0" result="hardAlpha"/>
<feOffset dy="4"/>
<feGaussianBlur stdDeviation="7.5"/>
<feComposite in2="hardAlpha" operator="out"/>
<feColorMatrix type="matrix" values="0 0 0 0 0 0 0 0 0 0 0 0 0 0 0 0 0 0 0.08 0"/>
<feBlend mode="normal" in2="BackgroundImageFix" result="effect1_dropShadow_8610_68756"/>
<feBlend mode="normal" in="SourceGraphic" in2="effect1_dropShadow_8610_68756" result="shape"/>
</filter>
</defs>
</svg>
