<svg width="20" height="20" viewBox="0 0 20 20" fill="none" xmlns="http://www.w3.org/2000/svg">
<path d="M18.9474 4.75556V2.22222C18.9474 1 18 0 16.8421 0H2.10526C0.936842 0 0 1 0 2.22222V17.7778C0 19 0.936842 20 2.10526 20H16.8421C18 20 18.9474 19 18.9474 17.7778V15.2444C19.5684 14.8556 20 14.1556 20 13.3333V6.66667C20 5.84444 19.5684 5.14444 18.9474 4.75556ZM17.8947 6.66667V13.3333H10.5263V6.66667H17.8947ZM2.10526 17.7778V2.22222H16.8421V4.44444H10.5263C9.36842 4.44444 8.42105 5.44444 8.42105 6.66667V13.3333C8.42105 14.5556 9.36842 15.5556 10.5263 15.5556H16.8421V17.7778H2.10526Z" fill="#808080" fill-opacity="0.5"/>
</svg>
