<svg width="22" height="22" viewBox="0 0 22 22" fill="none" xmlns="http://www.w3.org/2000/svg">
<path d="M15.6322 12.4318L18.1421 11.0825L18.1469 11.0799L20.2176 9.9666L18.2313 7.98027L11.4891 11.5955L13.4923 13.5821L15.6322 12.4318ZM15.6322 12.4318C15.5625 12.4689 15.5121 12.531 15.4897 12.606C15.4672 12.681 15.4755 12.7603 15.5129 12.8291C15.5649 12.9236 15.6645 12.9822 15.7728 12.9822C15.8216 12.9822 15.8705 12.97 15.9134 12.947M15.6322 12.4318C15.6752 12.4083 15.7236 12.3966 15.772 12.3966C15.8807 12.3966 15.9803 12.4552 16.0323 12.5502C16.0697 12.6189 16.078 12.6978 16.0556 12.7728C16.0331 12.8478 15.9827 12.9099 15.9134 12.947M15.9134 12.947L17.9898 11.8308V16.6262L11.2954 20.2157V12.2318L13.2305 14.1513C13.2864 14.2068 13.3604 14.2372 13.4392 14.2372C13.488 14.2372 13.5364 14.2247 13.5798 14.2017L15.9134 12.947ZM18.7014 7.61871L20.9143 5.40586C20.9798 5.34031 21.0104 5.24805 20.9968 5.1568C20.9833 5.06551 20.9271 4.9859 20.8454 4.94195L13.5799 1.03578C13.4649 0.974023 13.3227 0.994453 13.2303 1.08617L10.9998 3.29863L8.76954 1.08633C8.71401 1.03086 8.63958 1 8.56122 1C8.51199 1 8.46355 1.01246 8.42024 1.03594L6.0866 2.29016C6.01729 2.32766 5.96688 2.38937 5.94444 2.46437C5.92199 2.53937 5.93026 2.61867 5.96767 2.68742C6.01965 2.78195 6.11929 2.84098 6.22758 2.84098C6.27641 2.84098 6.32524 2.82848 6.36817 2.80543L8.50766 1.65508L10.5109 3.64215L3.76875 7.25691L1.78245 5.27059L6.50876 2.72927C6.57846 2.69216 6.62887 2.63044 6.65131 2.55544C6.67376 2.48044 6.66549 2.40114 6.62768 2.33239C6.5761 2.23786 6.47646 2.17888 6.36817 2.17888C6.31934 2.17888 6.2709 2.19134 6.22758 2.21439L1.15473 4.94211C1.07321 4.98543 1.0165 5.06594 1.00312 5.15695C0.989726 5.24754 1.02048 5.34051 1.08581 5.40578L3.29847 7.61879L1.08566 9.8316C1.02017 9.89715 0.989608 9.98941 1.00315 10.0807C1.01674 10.172 1.07286 10.2516 1.15461 10.2955L3.41949 11.5132V16.8C3.41945 16.8102 3.41996 16.8202 3.42099 16.8302C3.42142 16.8345 3.42225 16.8386 3.42284 16.8428C3.42359 16.8479 3.42418 16.853 3.4252 16.8581C3.42646 16.8645 3.42819 16.8706 3.42985 16.8768C3.43063 16.8797 3.43123 16.8826 3.43209 16.8854C3.43402 16.8917 3.43634 16.8979 3.43867 16.904C3.43969 16.9068 3.44056 16.9095 3.4417 16.9122C3.44398 16.9178 3.44662 16.923 3.44922 16.9284C3.45084 16.9317 3.45229 16.935 3.45403 16.9382C3.45639 16.9426 3.45903 16.9468 3.46155 16.951C3.46399 16.955 3.46631 16.9591 3.46891 16.963C3.47108 16.9663 3.47352 16.9694 3.47584 16.9725C3.47919 16.9771 3.4825 16.9818 3.48612 16.9862C3.48813 16.9887 3.49037 16.9909 3.49246 16.9933C3.49664 16.9981 3.50081 17.0029 3.5053 17.0073C3.50762 17.0096 3.51018 17.0118 3.51259 17.0141C3.51707 17.0182 3.52149 17.0225 3.52625 17.0264C3.53086 17.0302 3.53574 17.0336 3.54055 17.0371C3.54338 17.0391 3.54602 17.0413 3.54893 17.0433C3.5574 17.049 3.56618 17.0543 3.57524 17.0591L10.858 20.964C10.8685 20.9697 10.8795 20.9746 10.8907 20.9791C10.8931 20.98 10.8956 20.9809 10.8981 20.9818C10.9063 20.9848 10.9146 20.9874 10.9231 20.9896C10.9262 20.9905 10.9292 20.9913 10.9323 20.992C10.9406 20.9939 10.949 20.9954 10.9575 20.9966C10.9604 20.997 10.9632 20.9976 10.9661 20.9979C10.9772 20.9992 10.9885 21 11 21C11.0114 21 11.0227 20.9992 11.0338 20.9979C11.0367 20.9976 11.0396 20.997 11.0425 20.9966C11.051 20.9954 11.0594 20.9939 11.0676 20.992C11.0707 20.9913 11.0738 20.9905 11.0768 20.9896C11.0853 20.9874 11.0936 20.9848 11.1018 20.9818C11.1043 20.9809 11.1068 20.98 11.1092 20.9791C11.1204 20.9746 11.1313 20.9697 11.1418 20.964L18.4246 17.0591C18.4337 17.0543 18.4424 17.049 18.4509 17.0433C18.4538 17.0413 18.4565 17.0391 18.4593 17.0371C18.4641 17.0336 18.469 17.0301 18.4736 17.0264C18.4784 17.0225 18.4828 17.0182 18.4873 17.0141C18.4897 17.0118 18.4922 17.0097 18.4945 17.0073C18.499 17.0029 18.5032 16.9981 18.5074 16.9933C18.5095 16.9909 18.5117 16.9887 18.5137 16.9862C18.5173 16.9818 18.5207 16.9771 18.524 16.9725C18.5263 16.9694 18.5288 16.9663 18.5309 16.963C18.5335 16.9591 18.5359 16.9551 18.5383 16.951C18.5409 16.9468 18.5435 16.9426 18.5458 16.9382C18.5475 16.935 18.549 16.9317 18.5506 16.9284C18.5532 16.923 18.5559 16.9178 18.5581 16.9122C18.5593 16.9095 18.5602 16.9068 18.5612 16.904C18.5635 16.8979 18.5658 16.8918 18.5678 16.8854C18.5686 16.8826 18.5692 16.8797 18.57 16.8768C18.5716 16.8706 18.5734 16.8645 18.5746 16.8581C18.5757 16.853 18.5763 16.8479 18.577 16.8428C18.5776 16.8386 18.5785 16.8345 18.5789 16.8302C18.5799 16.8202 18.5804 16.8101 18.5804 16.8V11.5132L20.8451 10.2955C20.9266 10.2518 20.9833 10.1713 20.9967 10.0807C21.0101 9.98969 20.9794 9.89672 20.9144 9.83148L18.7014 7.61871ZM13.4921 1.65512L20.2174 5.27078L18.2311 7.25703L11.4891 3.64203L13.4921 1.65512ZM3.85429 11.0805L1.78257 9.96668L3.76883 7.98043L10.5109 11.5954L8.50782 13.5823L3.85681 11.0818L3.85429 11.0805ZM10.7046 20.2157L4.01015 16.6262V11.8307L8.42012 14.2017C8.46442 14.2255 8.51278 14.2371 8.56075 14.2371C8.63726 14.2371 8.71287 14.2076 8.7697 14.1513L10.7046 12.232V20.2157ZM11 11.1916L4.33658 7.61879L11.0002 4.04594L17.6636 7.61875L11 11.1916Z" stroke="#808080" stroke-opacity="0.5"/>
</svg>
