<svg width="32" height="32" viewBox="0 0 32 32" fill="none" xmlns="http://www.w3.org/2000/svg">
<path d="M13.5086 11.0514L8.85714 32H5.71429C4.19876 32 2.74531 31.398 1.67368 30.3263C0.602039 29.2547 0 27.8012 0 26.2857V8.97143L13.5086 11.0514ZM32 13.9086V26.2857C32 27.8012 31.398 29.2547 30.3263 30.3263C29.2547 31.398 27.8012 32 26.2857 32H11.2L15.7714 11.4286L32 13.9086ZM26.2857 0H5.71429C4.19876 0 2.74531 0.602039 1.67368 1.67368C0.602039 2.74531 0 4.19876 0 5.71429V6.67429L32 11.5886V5.71429C32 4.19876 31.398 2.74531 30.3263 1.67368C29.2547 0.602039 27.8012 0 26.2857 0Z" fill="#060B29"/>
<path d="M26.4061 23.1641L24.1204 26.1355L21.8347 23.1641C21.4423 22.6958 21.1781 22.1337 21.0679 21.5327C20.9578 20.9318 21.0054 20.3125 21.2061 19.7355C21.4011 19.1959 21.7411 18.7205 22.1887 18.3617C22.6363 18.0028 23.1742 17.7742 23.7433 17.7012H24.1547H24.5661C25.1352 17.7742 25.6731 18.0028 26.1207 18.3617C26.5683 18.7205 26.9083 19.1959 27.1033 19.7355C27.2949 20.3183 27.3314 20.941 27.2092 21.5422C27.0869 22.1434 26.8102 22.7024 26.4061 23.1641ZM25.2633 21.1412C25.2618 20.8769 25.1687 20.6213 24.9998 20.4179C24.831 20.2145 24.5969 20.0759 24.3374 20.0257C24.0779 19.9756 23.809 20.0169 23.5765 20.1427C23.3441 20.2685 23.1624 20.471 23.0624 20.7157C22.9625 20.9604 22.9505 21.2321 23.0284 21.4847C23.1063 21.7373 23.2694 21.955 23.4898 22.1009C23.7102 22.2468 23.9744 22.3117 24.2373 22.2847C24.5003 22.2576 24.7457 22.1403 24.9319 21.9526C25.1282 21.7284 25.2342 21.4392 25.229 21.1412H25.2633ZM29.1604 18.9355C28.8057 18.0216 28.2107 17.2206 27.4381 16.617C26.6656 16.0135 25.7444 15.63 24.7719 15.5069C24.3197 15.4612 23.864 15.4612 23.4119 15.5069C22.4373 15.628 21.5136 16.0107 20.739 16.6143C19.9643 17.218 19.3675 18.0201 19.0119 18.9355C18.6719 19.8769 18.5806 20.8901 18.7467 21.8771C18.9129 22.8641 19.331 23.7916 19.9604 24.5698L24.0861 29.8612L28.2119 24.5698C28.8413 23.7916 29.2594 22.8641 29.4255 21.8771C29.5917 20.8901 29.5004 19.8769 29.1604 18.9355Z" fill="#4B7BE5"/>
</svg>
