<svg width="110" height="110" viewBox="0 0 110 110" fill="none" xmlns="http://www.w3.org/2000/svg">
<rect x="15" y="12" width="80" height="80" rx="10" fill="#4B7BE5"/>
<g filter="url(#filter0_d_5597_4481)">
<rect x="15" y="11" width="80" height="80" rx="10" fill="white"/>
</g>
<path d="M52.5086 46.0514L47.8571 67H44.7143C43.1988 67 41.7453 66.398 40.6737 65.3263C39.602 64.2547 39 62.8012 39 61.2857V43.9714L52.5086 46.0514ZM71 48.9086V61.2857C71 62.8012 70.398 64.2547 69.3263 65.3263C68.2547 66.398 66.8012 67 65.2857 67H50.2L54.7714 46.4286L71 48.9086ZM65.2857 35H44.7143C43.1988 35 41.7453 35.602 40.6737 36.6737C39.602 37.7453 39 39.1988 39 40.7143V41.6743L71 46.5886V40.7143C71 39.1988 70.398 37.7453 69.3263 36.6737C68.2547 35.602 66.8012 35 65.2857 35Z" fill="#060B29"/>
<path d="M65.4061 58.1641L63.1204 61.1355L60.8347 58.1641C60.4423 57.6958 60.1781 57.1337 60.0679 56.5327C59.9578 55.9318 60.0054 55.3125 60.2061 54.7355C60.4011 54.1959 60.7411 53.7205 61.1887 53.3617C61.6363 53.0028 62.1742 52.7742 62.7433 52.7012H63.1547H63.5661C64.1352 52.7742 64.6731 53.0028 65.1207 53.3617C65.5683 53.7205 65.9083 54.1959 66.1033 54.7355C66.2949 55.3183 66.3314 55.941 66.2092 56.5422C66.0869 57.1434 65.8102 57.7024 65.4061 58.1641ZM64.2633 56.1412C64.2618 55.8769 64.1687 55.6213 63.9998 55.4179C63.831 55.2145 63.5969 55.0759 63.3374 55.0257C63.0779 54.9756 62.809 55.0169 62.5765 55.1427C62.3441 55.2685 62.1624 55.471 62.0624 55.7157C61.9625 55.9604 61.9505 56.2321 62.0284 56.4847C62.1063 56.7373 62.2694 56.955 62.4898 57.1009C62.7102 57.2468 62.9744 57.3117 63.2373 57.2847C63.5003 57.2576 63.7457 57.1403 63.9319 56.9526C64.1282 56.7284 64.2342 56.4392 64.229 56.1412H64.2633ZM68.1604 53.9355C67.8057 53.0216 67.2107 52.2206 66.4381 51.617C65.6656 51.0135 64.7444 50.63 63.7719 50.5069C63.3197 50.4612 62.864 50.4612 62.4119 50.5069C61.4373 50.628 60.5136 51.0107 59.739 51.6143C58.9643 52.218 58.3675 53.0201 58.0119 53.9355C57.6719 54.8769 57.5806 55.8901 57.7467 56.8771C57.9129 57.8641 58.331 58.7916 58.9604 59.5698L63.0861 64.8612L67.2119 59.5698C67.8413 58.7916 68.2594 57.8641 68.4255 56.8771C68.5917 55.8901 68.5004 54.8769 68.1604 53.9355Z" fill="#4B7BE5"/>
<defs>
<filter id="filter0_d_5597_4481" x="0" y="0" width="110" height="110" filterUnits="userSpaceOnUse" color-interpolation-filters="sRGB">
<feFlood flood-opacity="0" result="BackgroundImageFix"/>
<feColorMatrix in="SourceAlpha" type="matrix" values="0 0 0 0 0 0 0 0 0 0 0 0 0 0 0 0 0 0 127 0" result="hardAlpha"/>
<feOffset dy="4"/>
<feGaussianBlur stdDeviation="7.5"/>
<feComposite in2="hardAlpha" operator="out"/>
<feColorMatrix type="matrix" values="0 0 0 0 0 0 0 0 0 0 0 0 0 0 0 0 0 0 0.08 0"/>
<feBlend mode="normal" in2="BackgroundImageFix" result="effect1_dropShadow_5597_4481"/>
<feBlend mode="normal" in="SourceGraphic" in2="effect1_dropShadow_5597_4481" result="shape"/>
</filter>
</defs>
</svg>
