<svg width="42" height="42" viewBox="0 0 42 42" fill="none" xmlns="http://www.w3.org/2000/svg">
<path d="M20.5033 22.0664V41.9997H4.19599C3.92448 41.9997 3.69922 41.7788 3.69922 41.4977V25.8215H17.2975C17.7943 25.8215 18.2645 25.5671 18.5493 25.1321L20.5033 22.0664Z" fill="#060B29"/>
<path d="M38.3002 25.8215V41.4977C38.3002 41.7788 38.075 41.9997 37.8034 41.9997H21.4961V22.0664L23.4501 25.1455C23.7282 25.5671 24.1919 25.8215 24.6953 25.8215H38.3002Z" fill="#060B29"/>
<path d="M41.94 24.5569C41.854 24.7175 41.6884 24.8179 41.5029 24.8179H24.6987C24.5332 24.8179 24.3742 24.7309 24.2815 24.5904L21.0028 19.4297L17.7175 24.5904C17.6248 24.7309 17.4725 24.8179 17.3002 24.8179H0.49615C0.317299 24.8179 0.151709 24.7175 0.0656019 24.5569C-0.0271352 24.3962 -0.020505 24.2021 0.0788624 24.0482L3.78144 18.2315C3.87417 18.091 4.02651 18.0039 4.19872 18.0039H37.8069C37.9725 18.0039 38.1314 18.091 38.2242 18.2315L41.9201 24.0482C42.0196 24.2021 42.0261 24.3962 41.94 24.5569Z" fill="#060B29"/>
<path d="M21.3427 10.3812V9.07152C21.3427 8.82963 21.172 8.62213 20.9367 8.57795L19.9625 8.39508C19.7839 8.36154 19.6435 8.22988 19.5825 8.05687C19.5331 7.91638 19.4772 7.77895 19.4151 7.64486C19.3383 7.47929 19.3456 7.28714 19.4479 7.13636L20.0097 6.30853C20.1451 6.10893 20.1204 5.84009 19.9508 5.66917L19.0333 4.74433C18.8643 4.574 18.5994 4.54918 18.4023 4.68522L17.5819 5.2515C17.4327 5.35447 17.2428 5.36168 17.0793 5.28407C16.9454 5.22055 16.8082 5.16335 16.668 5.11214C16.4983 5.05023 16.3698 4.9086 16.3368 4.72943L16.1556 3.74606C16.1118 3.50833 15.9065 3.33594 15.6672 3.33594H14.3749C14.1355 3.33594 13.9302 3.50844 13.8865 3.74626L13.7055 4.73068C13.6723 4.91124 13.542 5.05313 13.3708 5.11471C13.2316 5.16477 13.0954 5.22127 12.9626 5.28419C12.799 5.36164 12.6093 5.35451 12.4601 5.25157L11.6401 4.68553C11.4428 4.54937 11.1775 4.57439 11.0086 4.7451L10.0907 5.67268C9.92137 5.84381 9.89695 6.11269 10.0327 6.31211L10.5935 7.13622C10.6961 7.28707 10.7035 7.47948 10.6267 7.64526C10.5646 7.77923 10.5088 7.91653 10.4594 8.05689C10.3984 8.2299 10.258 8.36156 10.0794 8.3951L9.10526 8.57796C8.86992 8.62214 8.69922 8.82964 8.69922 9.07153V10.3812C8.69922 10.6231 8.86991 10.8306 9.10525 10.8748L10.0802 11.0578C10.2584 11.0913 10.3987 11.2223 10.4598 11.3947C10.5092 11.5338 10.5648 11.6705 10.6268 11.8039C10.7036 11.9695 10.6963 12.1617 10.594 12.3126L10.0319 13.1408C9.89659 13.3402 9.92115 13.6087 10.0903 13.7797L11.0077 14.7067C11.177 14.8779 11.4431 14.9026 11.6404 14.7654L12.4556 14.1989C12.6051 14.0951 12.7957 14.0875 12.9598 14.1656C13.0938 14.2294 13.2314 14.2871 13.3718 14.3379C13.5425 14.3998 13.6723 14.5412 13.7055 14.7213L13.8863 15.7028C13.9301 15.9405 14.1354 16.1129 14.3747 16.1129H15.6674C15.9066 16.1129 16.1118 15.9406 16.1557 15.703L16.3366 14.7233C16.3697 14.5442 16.4983 14.4026 16.668 14.3408C16.8088 14.2895 16.9469 14.2321 17.0813 14.1678C17.246 14.089 17.4375 14.0955 17.5877 14.1999L18.4015 14.7654C18.5989 14.9026 18.8649 14.8779 19.0343 14.7067L19.9516 13.7797C20.1208 13.6087 20.1453 13.3402 20.01 13.1408L19.448 12.3126C19.3456 12.1617 19.3383 11.9695 19.4152 11.8039C19.4771 11.6704 19.5328 11.5338 19.5821 11.3947C19.6433 11.2223 19.7835 11.0913 19.9618 11.0578L20.9367 10.8748C21.172 10.8306 21.3427 10.6231 21.3427 10.3812ZM15.4014 11.6567C14.0349 11.9156 12.8578 10.7368 13.1068 9.35574C13.2457 8.58543 13.8626 7.95126 14.6222 7.79695C15.9991 7.51724 17.1966 8.72004 16.9315 10.116C16.7856 10.8846 16.1626 11.5125 15.4014 11.6567Z" fill="#4B7BE5"/>
<path d="M31.3498 4.99747V4.27623C31.3498 4.03434 31.1791 3.82684 30.9438 3.78266L30.4219 3.68469C30.2464 3.65175 30.1103 3.52279 30.0467 3.35428C30.0264 3.30043 30.0047 3.24724 29.9818 3.19472C29.9101 3.03056 29.9165 2.84374 30.0169 2.69577L30.3185 2.25141C30.4539 2.05182 30.4292 1.78297 30.2596 1.61205L29.7541 1.10249C29.5851 0.932166 29.3201 0.907346 29.123 1.04338L28.6822 1.34764C28.5358 1.44874 28.351 1.45509 28.1889 1.38246C28.1359 1.35875 28.0823 1.33635 28.028 1.31524C27.8625 1.25089 27.7363 1.11325 27.7039 0.937092L27.6068 0.410125C27.563 0.172392 27.3577 0 27.1184 0H26.4073C26.168 0 25.9626 0.172499 25.9189 0.410326L25.822 0.937728C25.7894 1.11505 25.6618 1.25266 25.495 1.3169C25.4415 1.3375 25.3887 1.35943 25.3366 1.38269C25.1744 1.45502 24.9899 1.44882 24.8436 1.3478L24.403 1.04369C24.2057 0.90752 23.9404 0.932541 23.7715 1.10325L23.2656 1.61449C23.0963 1.78562 23.0719 2.0545 23.2076 2.25392L23.5081 2.69562C23.6089 2.84365 23.6153 3.03073 23.5436 3.19511C23.5207 3.2475 23.4992 3.30057 23.4789 3.35428C23.4153 3.52279 23.2792 3.65175 23.1037 3.68469L22.5818 3.78266C22.3465 3.82684 22.1758 4.03434 22.1758 4.27623V4.99747C22.1758 5.23936 22.3465 5.44685 22.5818 5.49103L23.1044 5.58915C23.2795 5.62202 23.4155 5.75024 23.4793 5.91827C23.4994 5.97141 23.5209 6.02401 23.5436 6.076C23.6154 6.24018 23.6091 6.42722 23.5086 6.57526L23.2068 7.01995C23.0715 7.21935 23.0961 7.48788 23.2652 7.65885L23.7706 8.16955C23.9399 8.34069 24.206 8.36536 24.4033 8.22823L24.84 7.92481C24.9867 7.82283 25.1721 7.81612 25.3349 7.88924C25.388 7.91309 25.4418 7.93561 25.4962 7.95673C25.6623 8.0212 25.7893 8.15827 25.8219 8.33509L25.9188 8.86075C25.9626 9.09848 26.1679 9.27087 26.4072 9.27087H27.1186C27.3578 9.27087 27.5631 9.09858 27.6069 8.86095L27.7038 8.33659C27.7363 8.16045 27.8624 8.02296 28.0279 7.95872C28.0827 7.93748 28.1368 7.91489 28.1901 7.89089C28.3534 7.81747 28.5393 7.82313 28.6865 7.92544L29.1223 8.22823C29.3196 8.36536 29.5857 8.34068 29.755 8.16954L30.2604 7.65884C30.4295 7.48788 30.4541 7.21934 30.3188 7.01995L30.017 6.57525C29.9165 6.42721 29.9102 6.24018 29.982 6.07599C30.0047 6.024 30.0262 5.97141 30.0463 5.91827C30.1101 5.75023 30.2461 5.62202 30.4212 5.58915L30.9438 5.49103C31.1791 5.44686 31.3498 5.23936 31.3498 4.99747ZM26.7642 6.06358C25.9833 6.06358 25.3496 5.42605 25.3496 4.63684C25.3496 3.84767 25.9833 3.20732 26.7642 3.20732C27.5423 3.20732 28.176 3.84767 28.176 4.63684C28.176 5.42605 27.5423 6.06358 26.7642 6.06358Z" fill="#4B7BE5"/>
</svg>
