<svg width="42" height="42" viewBox="0 0 42 42" fill="none" xmlns="http://www.w3.org/2000/svg">
<path d="M18.2071 11.8418H15.3633V13.2349H18.2071V11.8418Z" fill="#4B7BE5"/>
<path d="M28.8752 0H24.6095V4.17928C24.6095 4.54875 24.4597 4.90308 24.1931 5.16434C23.9264 5.4256 23.5647 5.57237 23.1876 5.57237H17.5001C17.123 5.57237 16.7613 5.4256 16.4946 5.16434C16.228 4.90308 16.0782 4.54875 16.0782 4.17928V0H11.8125V16.7171H28.8752V0ZM19.6329 13.9309C19.6329 14.1157 19.558 14.2928 19.4247 14.4235C19.2913 14.5541 19.1105 14.6275 18.922 14.6275H14.6563C14.4677 14.6275 14.2869 14.5541 14.1536 14.4235C14.0202 14.2928 13.9453 14.1157 13.9453 13.9309V11.1447C13.9453 10.96 14.0202 10.7828 14.1536 10.6522C14.2869 10.5216 14.4677 10.4482 14.6563 10.4482H18.922C19.1105 10.4482 19.2913 10.5216 19.4247 10.6522C19.558 10.7828 19.6329 10.96 19.6329 11.1447V13.9309Z" fill="#060B29"/>
<path d="M23.1837 0H17.4961V4.17928H23.1837V0Z" fill="#4B7BE5"/>
<path d="M11.0644 33.1108C10.7297 32.8861 10.3179 32.8005 9.91893 32.8726C9.52 32.9448 9.16651 33.1689 8.93585 33.4959L8.06894 34.7304C7.84632 35.0579 7.76414 35.4581 7.84013 35.8445C7.91613 36.2309 8.1442 36.5726 8.4751 36.7956C8.806 37.0187 9.21317 37.1053 9.60867 37.0367C10.0042 36.9681 10.3563 36.7499 10.5889 36.4291C10.3671 36.7568 10.2856 37.1569 10.3621 37.543C10.4386 37.9291 10.6669 38.2702 10.9978 38.4929C11.3288 38.7155 11.7358 38.8017 12.131 38.733C12.5262 38.6642 12.8781 38.446 13.1106 38.1254L13.544 37.5078C13.3214 37.8353 13.2392 38.2355 13.3152 38.6219C13.3912 39.0083 13.6193 39.35 13.9502 39.573C14.2811 39.7961 14.6883 39.8826 15.0838 39.8141C15.4793 39.7455 15.8314 39.5272 16.064 39.2065C15.8414 39.534 15.7592 39.9342 15.8352 40.3206C15.9112 40.707 16.1393 41.0487 16.4702 41.2717C16.8011 41.4948 17.2083 41.5813 17.6038 41.5128C17.9993 41.4442 18.3514 41.226 18.5841 40.9052L19.0175 40.2883C19.135 40.1263 19.2184 39.9431 19.263 39.7492C19.3075 39.5554 19.3122 39.3547 19.2769 39.1591C19.2415 38.9634 19.1668 38.7766 19.0571 38.6094C18.9473 38.4423 18.8048 38.2982 18.6377 38.1856C18.4706 38.073 18.2823 37.994 18.0838 37.9533C17.8852 37.9127 17.6804 37.9111 17.4813 37.9487C17.2821 37.9863 17.0926 38.0623 16.9237 38.1723C16.7548 38.2824 16.6099 38.4242 16.4975 38.5896L16.931 37.972C17.1608 37.6446 17.2484 37.2411 17.1746 36.8504C17.1008 36.4597 16.8716 36.1137 16.5375 35.8885C16.2033 35.6634 15.7915 35.5775 15.3927 35.6498C14.9939 35.7221 14.6408 35.9467 14.4109 36.2741C14.5284 36.1121 14.6119 35.9288 14.6564 35.735C14.7009 35.5411 14.7056 35.3405 14.6703 35.1448C14.6349 34.9491 14.5602 34.7623 14.4505 34.5952C14.3408 34.4281 14.1982 34.284 14.0311 34.1714C13.864 34.0587 13.6757 33.9798 13.4772 33.9391C13.2787 33.8984 13.0739 33.8968 12.8747 33.9344C12.6755 33.972 12.486 34.0481 12.3171 34.1581C12.1482 34.2681 12.0033 34.41 11.8909 34.5754L11.4575 35.1922C11.6855 34.8647 11.7722 34.4621 11.6985 34.0722C11.6249 33.6823 11.397 33.3367 11.0644 33.1108Z" fill="#060B29"/>
<path d="M12.9844 27.7048C13.4203 28.9069 17.1212 28.9061 19.3611 25.016L26.545 29.4296C26.9071 29.2101 27.2467 28.9566 27.5588 28.6728C27.9227 28.3524 28.2394 27.984 28.5 27.5783L29.1651 27.9531C28.9053 28.3683 28.5917 28.7487 28.232 29.0848C27.9334 29.374 27.6093 29.6368 27.2634 29.8701L32.4479 33.0555V33.05L32.8143 33.2754C33.5169 32.1602 34.508 31.2467 35.6871 30.6277L31.4421 22.1729C30.3323 22.5541 28.1069 22.6719 23.8748 20.9867C17.4642 18.4371 13.7342 25.2018 12.9844 27.7048Z" fill="#060B29"/>
<path d="M7.91663 33.6258L8.3073 33.0722C8.53456 32.7491 8.84417 32.4899 9.20538 32.3203C9.56659 32.1508 9.96681 32.0768 10.3662 32.1057C10.7657 32.1347 11.1504 32.2655 11.4822 32.4853C11.8141 32.7051 12.0814 33.0062 12.2576 33.3585C12.4109 33.2957 12.5705 33.249 12.7339 33.2193C13.311 33.1125 13.908 33.2286 14.3997 33.5433C14.8914 33.8581 15.2397 34.347 15.3717 34.9078C15.7018 34.863 16.0378 34.8897 16.3562 34.9859C16.6745 35.0821 16.9675 35.2455 17.2145 35.4646C17.4615 35.6836 17.6565 35.9531 17.7858 36.2539C17.915 36.5548 17.9755 36.8797 17.9628 37.2059C18.3553 37.2392 18.7322 37.3719 19.0565 37.591V37.591C19.5316 37.9136 19.8647 38.4002 19.9889 38.9533C20.1132 39.5064 20.0194 40.0851 19.7265 40.5733L21.7799 41.7872C22.1275 41.9911 22.5432 42.0519 22.9364 41.9565C23.3296 41.8611 23.6683 41.6171 23.8786 41.2779C24.0884 40.9418 24.1541 40.5381 24.0614 40.1547C23.9688 39.7714 23.7252 39.4394 23.3838 39.2312L24.6753 39.9936C24.8474 40.0997 25.0394 40.1712 25.2401 40.2038C25.4408 40.2363 25.6461 40.2294 25.8439 40.1833C26.0418 40.1371 26.2283 40.0528 26.3926 39.9353C26.5568 39.8177 26.6954 39.6692 26.8004 39.4985C26.9053 39.3278 26.9744 39.1383 27.0037 38.941C27.033 38.7438 27.0219 38.5429 26.9709 38.35C26.92 38.157 26.8303 37.976 26.707 37.8174C26.5838 37.6589 26.4296 37.526 26.2533 37.4266L27.5633 38.1992C27.7351 38.301 27.9257 38.3687 28.1242 38.3984C28.3226 38.4281 28.5251 38.4191 28.7201 38.3721C28.915 38.3251 29.0986 38.241 29.2604 38.1245C29.4221 38.008 29.5589 37.8614 29.6628 37.6931C29.7668 37.5248 29.8358 37.3381 29.8661 37.1436C29.8964 36.9492 29.8873 36.7508 29.8393 36.5598C29.7914 36.3688 29.7055 36.1889 29.5865 36.0304C29.4676 35.8719 29.318 35.7379 29.1462 35.6361L31.1061 36.7907C31.4536 36.9946 31.8694 37.0555 32.2626 36.96C32.6558 36.8646 32.9945 36.6207 33.2047 36.2814C33.3478 36.0482 33.4244 35.7817 33.4267 35.5096C33.4262 35.2497 33.3569 34.9944 33.2256 34.7686C33.0943 34.5428 32.9055 34.3543 32.6776 34.2213L19.54 26.1462C17.8522 28.5289 15.6421 29.2755 14.1658 29.145C13.7657 29.1476 13.3734 29.0366 13.0363 28.8254C12.6992 28.6142 12.4319 28.3118 12.2665 27.9548L12.1858 27.7254L12.256 27.4882C12.6496 26.2794 13.2153 25.1311 13.9366 24.0773C12.9824 23.7729 12.0866 23.3151 11.2858 22.7227L5.76953 32.0766L7.91663 33.6258Z" fill="#060B29"/>
<path d="M0.405476 30.443L3.79563 32.3481C3.88751 32.4001 3.98895 32.4339 4.09416 32.4474C4.19937 32.461 4.30627 32.4541 4.40876 32.4271C4.51124 32.4002 4.6073 32.3537 4.69143 32.2903C4.77555 32.227 4.8461 32.148 4.89904 32.0579L10.7543 22.1266C10.8075 22.0365 10.842 21.937 10.8559 21.8338C10.8697 21.7306 10.8626 21.6258 10.835 21.5253C10.8074 21.4248 10.7599 21.3306 10.695 21.2481C10.6302 21.1657 10.5494 21.0966 10.4573 21.0448L7.06228 19.1381C6.87684 19.0338 6.65676 19.0059 6.45035 19.0605C6.24394 19.1151 6.06805 19.2476 5.96129 19.4291L0.108435 29.3611C0.0552516 29.4512 0.0207445 29.5507 0.00689198 29.6539C-0.00696053 29.7571 0.000113874 29.862 0.0277101 29.9625C0.0553062 30.063 0.102881 30.1572 0.167707 30.2396C0.232532 30.3221 0.313333 30.3912 0.405476 30.443V30.443Z" fill="#4B7BE5"/>
<path d="M36.8254 31.1892C36.8722 31.2825 36.9373 31.3658 37.0169 31.4343C37.0966 31.5029 37.1892 31.5554 37.2896 31.5889C37.3899 31.6224 37.4961 31.6362 37.6019 31.6295C37.7077 31.6228 37.8111 31.5957 37.9062 31.5499L41.5498 29.7942C41.645 29.7484 41.73 29.6846 41.8 29.6066C41.87 29.5286 41.9236 29.4378 41.9578 29.3395C41.992 29.2411 42.006 29.1372 41.9992 29.0335C41.9924 28.9298 41.9647 28.8285 41.9179 28.7353L36.752 18.4458C36.7052 18.3526 36.6401 18.2693 36.5605 18.2007C36.4808 18.1321 36.3882 18.0796 36.2878 18.0461C36.1874 18.0126 36.0813 17.9989 35.9755 18.0056C35.8697 18.0123 35.7663 18.0393 35.6712 18.0852L32.0292 19.8393C31.934 19.8851 31.849 19.9488 31.779 20.0269C31.709 20.1049 31.6554 20.1957 31.6212 20.294C31.587 20.3923 31.573 20.4963 31.5798 20.6C31.5866 20.7036 31.6143 20.805 31.6611 20.8982L36.8254 31.1892ZM39.0234 27.4613L39.7167 28.8421L38.3776 29.4874L37.6843 28.1066L39.0234 27.4613Z" fill="#4B7BE5"/>
</svg>
