<svg width="41" height="41" viewBox="0 0 41 41" fill="none" xmlns="http://www.w3.org/2000/svg">
<path d="M22.3711 35.8754L40.1155 31.8925C40.4107 31.8259 40.6667 31.6479 40.827 31.3978C40.9874 31.1477 41.0389 30.8458 40.9704 30.5587C40.9019 30.2716 40.7189 30.0227 40.4616 29.8668C40.2044 29.7109 39.894 29.6608 39.5987 29.7274L36.8972 30.3326C36.6244 29.2641 37.4709 32.8361 32.6454 12.318C32.5454 11.8974 32.2783 11.5323 31.9024 11.3024C31.5265 11.0726 31.0724 10.9967 30.6392 11.0914L24.1342 12.5545L25.6008 18.7911C25.6507 19.0027 25.6124 19.225 25.4941 19.4091C25.3759 19.5933 25.1875 19.7245 24.9701 19.7739L20.8969 20.6902C20.6804 20.7359 20.4541 20.6973 20.2666 20.5826C20.079 20.468 19.9452 20.2864 19.8938 20.0769L18.4271 13.8328C12.5156 15.1785 12.8378 15.1083 12.1395 15.276L9.06479 2.22411C8.98825 1.86492 8.83962 1.52392 8.62741 1.22064C8.41519 0.917355 8.14356 0.657738 7.82805 0.456642C7.51255 0.255546 7.15936 0.116917 6.7887 0.0486884C6.41803 -0.01954 6.03717 -0.0160287 5.66791 0.0590208L0.842357 1.14526C0.55724 1.22023 0.313179 1.39988 0.16159 1.64636C0.0100008 1.89285 -0.0372796 2.18693 0.0297094 2.46664C0.0966985 2.74635 0.272727 2.98986 0.520709 3.14587C0.768691 3.30187 1.06927 3.35819 1.35911 3.30296L6.17706 2.21672C6.33255 2.20182 6.48797 2.2457 6.61108 2.33926C6.73418 2.43282 6.81551 2.56888 6.8382 2.7192L13.366 30.4368C14.3222 30.0364 15.3638 29.8667 16.402 29.9422C17.4402 30.0176 18.4443 30.3359 19.3287 30.8701C20.2132 31.4042 20.9517 32.1383 21.4814 33.0098C22.0112 33.8813 22.3164 34.8644 22.3711 35.8754ZM25.1677 28.4712L32.007 26.9934C32.293 26.9493 32.5854 27.0126 32.8251 27.1705C33.0647 27.3285 33.2336 27.5691 33.2974 27.8437C33.3612 28.1183 33.3152 28.4062 33.1687 28.649C33.0222 28.8918 32.7862 29.0713 32.5086 29.1511L25.6692 30.6289C24.2428 31.0073 23.6782 28.7971 25.1677 28.4712Z" fill="#060B29"/>
<path d="M20.7299 35.1189C20.5109 34.1929 20.0142 33.3509 19.3029 32.6994C18.5916 32.0479 17.6975 31.6162 16.7338 31.4589C15.7701 31.3016 14.7801 31.4257 13.8889 31.8157C12.9978 32.2057 12.2457 32.8439 11.7277 33.6496C11.2097 34.4553 10.9491 35.3923 10.9789 36.3421C11.0086 37.2918 11.3275 38.2117 11.895 38.9852C12.4625 39.7587 13.2532 40.3512 14.1671 40.6876C15.081 41.0241 16.077 41.0894 17.0291 40.8753C17.6609 40.7339 18.2579 40.4728 18.786 40.1069C19.314 39.741 19.7627 39.2775 20.1064 38.7429C20.4501 38.2083 20.6821 37.6131 20.7891 36.9913C20.896 36.3694 20.876 35.7332 20.7299 35.1189ZM15.9196 37.6757C15.619 37.6757 15.3251 37.589 15.0752 37.4266C14.8252 37.2642 14.6304 37.0334 14.5154 36.7634C14.4004 36.4933 14.3703 36.1962 14.4289 35.9095C14.4876 35.6228 14.6323 35.3595 14.8449 35.1528C15.0574 34.9461 15.3282 34.8053 15.6231 34.7483C15.9179 34.6913 16.2235 34.7206 16.5012 34.8324C16.7789 34.9443 17.0163 35.1337 17.1833 35.3767C17.3503 35.6198 17.4394 35.9055 17.4394 36.1978C17.4382 36.5894 17.2777 36.9646 16.9929 37.2415C16.7082 37.5184 16.3223 37.6745 15.9196 37.6757Z" fill="#4B7BE5"/>
</svg>
