<svg width="42" height="43" viewBox="0 0 42 43" fill="none" xmlns="http://www.w3.org/2000/svg">
<path d="M0.511795 0H10.2367V8.40293H0.015625V0.495457C0.015625 0.224627 0.240615 0 0.511795 0Z" fill="#060B29"/>
<path d="M34.5249 0.495457V8.40293H24.2773V0H34.0287C34.3001 0 34.5249 0.224627 34.5249 0.495457Z" fill="#060B29"/>
<path d="M23.2829 17.9356C23.2829 18.1139 23.1837 18.279 23.0316 18.3649C22.9521 18.4112 22.8728 18.431 22.7867 18.431C22.6942 18.431 22.6082 18.4046 22.5288 18.3583L17.2694 15.161L11.9769 18.3583C11.8247 18.4508 11.6329 18.4574 11.4741 18.3649C11.3154 18.279 11.2227 18.1139 11.2227 17.9356V0H23.2829V17.9356H23.2829Z" fill="#4B7BE5"/>
<path d="M34.5267 9.39258V19.8434C33.4617 19.5263 32.337 19.3546 31.1661 19.3546C24.6365 19.3546 19.3307 24.6527 19.3307 31.1663C19.3307 31.4305 19.3374 31.6947 19.3572 31.9524L18.2657 31.9722H0.496169C0.22499 31.9722 0 31.7476 0 31.4768V9.39258H10.2343V17.9343C10.2343 18.476 10.5321 18.978 10.9753 19.2224C11.2068 19.348 11.4583 19.4207 11.7228 19.4207C11.9941 19.4207 12.2653 19.348 12.4969 19.2026L17.2734 16.3158L22.0299 19.2092C22.2681 19.3479 22.5261 19.4206 22.7907 19.4206C23.0554 19.4206 23.3067 19.3546 23.5251 19.2224C23.9881 18.9648 24.2792 18.4694 24.2792 17.9343V9.39258H34.5267Z" fill="#060B29"/>
<path d="M31.1634 20.3457C25.1828 20.3457 20.3203 25.2012 20.3203 31.1665C20.3203 37.1384 25.1828 42.0005 31.1634 42.0005C37.1372 42.0005 41.9996 37.1384 41.9996 31.1665C41.9996 25.2012 37.1372 20.3457 31.1634 20.3457ZM37.7987 37.1053L37.2497 36.5571C37.0578 36.3589 36.7403 36.3589 36.5484 36.5571C36.3565 36.7486 36.3565 37.0591 36.5484 37.2573L37.0975 37.8056C35.6355 39.1136 33.7434 39.946 31.6595 40.0583V39.2788C31.6595 39.0079 31.4345 38.7833 31.1634 38.7833C30.8854 38.7833 30.6672 39.0079 30.6672 39.2788V40.0583C28.5766 39.946 26.6846 39.1136 25.2159 37.8056L25.7649 37.2573C25.9634 37.0591 25.9634 36.7486 25.7649 36.5571C25.5731 36.3589 25.2621 36.3589 25.0637 36.5571L24.5146 37.1053C23.2048 35.6388 22.3778 33.7495 22.2587 31.6685H23.046C23.3172 31.6685 23.5422 31.4505 23.5422 31.1731C23.5422 30.9022 23.3172 30.6776 23.046 30.6776H22.2587C22.3712 28.5967 23.2048 26.7008 24.5146 25.2408L25.0703 25.7957C25.2748 25.9999 25.5996 25.9798 25.7716 25.7957C25.9701 25.6042 25.9701 25.287 25.7716 25.0955L25.2225 24.5406C26.6846 23.2326 28.5766 22.4002 30.6672 22.2879V23.074C30.6672 23.3449 30.8854 23.5695 31.1634 23.5695C31.4345 23.5695 31.6595 23.3449 31.6595 23.074V22.2879C33.7434 22.4002 35.6355 23.2326 37.0975 24.5406L36.5484 25.0955C36.3565 25.287 36.3565 25.6042 36.5484 25.7957C36.7419 25.989 37.0546 25.9905 37.2497 25.7957L37.7987 25.2408C39.1152 26.7008 39.9422 28.5967 40.0547 30.6776H39.2741C39.0027 30.6776 38.7779 30.9022 38.7779 31.1731C38.7779 31.4505 39.0027 31.6685 39.2741 31.6685H40.0547C39.9422 33.7495 39.1087 35.6454 37.7987 37.1053Z" fill="#4B7BE5"/>
<path d="M35.2514 31.1731C35.2514 31.444 35.0265 31.6686 34.7553 31.6686H33.0815C32.8632 32.4547 32.1488 33.0361 31.2953 33.0361C30.2699 33.0361 29.4297 32.1971 29.4297 31.1731C29.4297 30.321 30.0119 29.6009 30.7992 29.3829V25.558C30.7992 25.2871 31.0241 25.0625 31.2953 25.0625C31.5665 25.0625 31.7915 25.2871 31.7915 25.558V29.3829C32.4133 29.5612 32.9029 30.0501 33.0815 30.6777H34.7553C35.0265 30.6777 35.2514 30.9023 35.2514 31.1731Z" fill="#060B29"/>
</svg>
