<svg width="14" height="14" viewBox="0 0 14 14" fill="none" xmlns="http://www.w3.org/2000/svg">
<path d="M7 0C5.14348 0 3.36301 0.737498 2.05025 2.05025C0.737498 3.36301 0 5.14348 0 7C0 8.85652 0.737498 10.637 2.05025 11.9497C3.36301 13.2625 5.14348 14 7 14C8.85652 14 10.637 13.2625 11.9497 11.9497C13.2625 10.637 14 8.85652 14 7C14 5.14348 13.2625 3.36301 11.9497 2.05025C10.637 0.737498 8.85652 0 7 0ZM4.51773 3.81828C4.61138 3.81821 4.70408 3.83693 4.79036 3.87333C4.87664 3.90973 4.95474 3.96307 5.02004 4.0302L7 6.01016L8.97996 4.0302C9.10679 3.89981 9.27939 3.8239 9.46121 3.81855C9.60221 3.8144 9.74119 3.85293 9.85991 3.92911C9.97864 4.00529 10.0716 4.11556 10.1266 4.24547C10.1815 4.37538 10.196 4.51887 10.168 4.65714C10.14 4.7954 10.071 4.92199 9.9698 5.02031L7.98984 7L9.9698 8.97996C10.0361 9.04468 10.0888 9.1219 10.125 9.20715C10.1613 9.29241 10.1802 9.384 10.1807 9.47662C10.1813 9.56924 10.1635 9.66106 10.1283 9.74674C10.0931 9.83242 10.0413 9.91027 9.97578 9.97577C9.91029 10.0413 9.83245 10.0931 9.74678 10.1283C9.66111 10.1636 9.5693 10.1814 9.47668 10.1809C9.38406 10.1803 9.29246 10.1614 9.20719 10.1253C9.12193 10.0891 9.04469 10.0363 8.97996 9.97008L7 7.99012L5.02004 9.97008C4.95531 10.0363 4.87807 10.0891 4.79281 10.1253C4.70754 10.1614 4.61594 10.1803 4.52332 10.1809C4.4307 10.1814 4.33889 10.1636 4.25322 10.1283C4.16755 10.0931 4.08971 10.0413 4.02422 9.97577C3.95874 9.91027 3.9069 9.83242 3.87172 9.74674C3.83653 9.66106 3.8187 9.56924 3.81926 9.47662C3.81981 9.384 3.83875 9.29241 3.87495 9.20715C3.91116 9.1219 3.96393 9.04468 4.0302 8.97996L6.01016 7L4.0302 5.02031C3.93034 4.92324 3.86171 4.79859 3.83307 4.6623C3.80444 4.52601 3.8171 4.38428 3.86944 4.25523C3.92179 4.12617 4.01143 4.01566 4.12691 3.93783C4.2424 3.85999 4.37847 3.81837 4.51773 3.81828Z" fill="#FF4545"/>
</svg>
