<svg width="12" height="14" viewBox="0 0 12 14" fill="none" xmlns="http://www.w3.org/2000/svg">
<path d="M11.9961 2.06275C11.9961 2.05447 11.9961 2.04619 11.9961 2.03791C11.9961 1.89546 11.8806 1.80105 11.7449 1.78946C10.8907 1.71989 10.0399 1.56585 9.20082 1.32734C8.35 1.08717 7.54943 0.772465 6.76895 0.37163C6.55624 0.262312 6.35024 0.138086 6.13586 0.0320804C5.98345 -0.0441113 5.87291 0.030424 5.74394 0.0999903C5.66355 0.144712 5.58148 0.187776 5.50109 0.232498C4.72899 0.649895 3.94349 0.981164 3.10439 1.23955C2.63711 1.38365 2.16145 1.50291 1.68077 1.59567C1.19507 1.69008 0.749559 1.75136 0.258829 1.78946C0.123167 1.80105 0.00760255 1.89381 0.00760255 2.03791V3.92448C0.00760255 4.5953 -0.0141704 5.27109 0.0159768 5.9419C0.0796209 7.34151 0.491633 8.71959 1.21182 9.92706C1.91358 11.1031 2.89838 12.1018 4.06408 12.8323C4.6486 13.1983 5.23479 13.5644 5.81931 13.9288C5.83774 13.9404 5.85783 13.952 5.87626 13.9652C5.94995 14.0116 6.05714 14.0116 6.12916 13.9652C6.66008 13.6339 7.18934 13.3027 7.72026 12.9714C7.79563 12.925 7.871 12.877 7.94637 12.8306C8.8893 12.2393 9.70663 11.4774 10.3615 10.583C10.9929 9.72002 11.4585 8.73284 11.7265 7.70094C11.9241 6.93902 11.9995 6.16054 11.9995 5.37544V3.56174C11.9961 3.06153 12.0045 2.56131 11.9961 2.06275ZM8.96635 4.90835L8.52419 5.34562C7.8777 5.98497 7.23288 6.62266 6.58639 7.26201L5.36041 8.47445C5.23312 8.60033 5.01539 8.60033 4.88643 8.47445C4.80938 8.39826 4.73234 8.32207 4.6553 8.24587C4.116 7.71253 3.57502 7.17753 3.03572 6.64419C2.90341 6.51334 2.91346 6.30795 3.03572 6.17545C3.15798 6.04294 3.38576 6.05288 3.5097 6.17545C3.58675 6.25164 3.66379 6.32783 3.74083 6.40402C4.20141 6.85952 4.662 7.31501 5.12258 7.77216C5.19125 7.70425 5.25991 7.63634 5.32858 7.56843L7.26638 5.65204C7.67504 5.2479 8.0837 4.84375 8.49236 4.4396C8.62468 4.30875 8.83236 4.31869 8.96635 4.4396C9.10033 4.56052 9.09028 4.78578 8.96635 4.90835Z" fill="#FF9E67"/>
</svg>