<svg width="17" height="18" viewBox="0 0 17 18" fill="none" xmlns="http://www.w3.org/2000/svg">
<path opacity="0.4" d="M11.5835 17.3283C10.4221 17.1598 9.31812 16.7151 8.36406 16.0314C7.25869 15.2615 6.24332 14.3697 5.33691 13.373C4.22359 12.1832 3.08991 11.0087 2.10743 9.69641C1.33406 8.64261 0.642242 7.53785 0.264842 6.26813C0.00246265 5.46082 -0.0661789 4.60316 0.0643508 3.76443C0.234372 2.7633 0.764577 1.9491 1.49042 1.26748C1.78967 0.99988 2.11476 0.762386 2.46099 0.558692C2.66694 0.427798 2.9069 0.360216 3.1509 0.364129C3.39502 0.368041 3.63262 0.44333 3.83431 0.580862C4.80072 1.15588 5.54138 2.04417 5.93347 3.09809C6.00069 3.24665 6.0269 3.41039 6.00923 3.57247C5.99157 3.73454 5.93074 3.8888 5.83316 4.01934C5.59011 4.34742 5.33684 4.66694 5.09214 4.99502C4.87624 5.28561 4.65192 5.57122 4.45985 5.87711V5.87723C4.36097 6.01654 4.30856 6.18361 4.3101 6.35446C4.31164 6.52543 4.36701 6.69143 4.46826 6.82908C4.95272 7.5089 5.42175 8.20928 5.94875 8.85688C6.90212 10.0371 7.9578 11.1308 9.10356 12.1255C9.35847 12.3447 9.63212 12.5386 9.9041 12.7374C10.0199 12.8274 10.1591 12.8823 10.3053 12.8956C10.4514 12.9088 10.5983 12.8799 10.7285 12.8122C11.0199 12.6685 11.3035 12.5096 11.5783 12.3362C11.959 12.0931 12.333 11.8433 12.7069 11.6037C12.8611 11.505 13.0395 11.4509 13.2225 11.4473C13.4054 11.4436 13.5859 11.4907 13.7438 11.5833C14.7082 12.0617 15.4943 12.8359 15.9874 13.7928C16.1261 14.0319 16.1886 14.3074 16.1667 14.5828C16.1448 14.8582 16.0396 15.1204 15.865 15.3345C14.925 16.5685 13.7234 17.3299 12.1256 17.364C11.9443 17.3614 11.7634 17.3495 11.5834 17.3283L11.5835 17.3283Z" fill="#212121"/>
</svg>
