<svg width="30" height="30" viewBox="0 0 30 30" fill="none" xmlns="http://www.w3.org/2000/svg">
<path d="M17.1241 13.9166C18.8272 13.9166 20.4605 13.2399 21.6648 12.0353C22.869 10.8306 23.5456 9.19695 23.5456 7.49341C23.5456 5.78986 22.8691 4.15612 21.6648 2.95156C20.4605 1.747 18.8272 1.07025 17.1241 1.07025C15.421 1.07025 13.7877 1.74694 12.5834 2.95156C11.3792 4.15618 10.7026 5.78986 10.7026 7.49341C10.7026 9.19695 11.3791 10.8307 12.5834 12.0353C13.7877 13.2398 15.421 13.9166 17.1241 13.9166ZM13.1534 6.73303C13.3543 6.53039 13.6279 6.41641 13.9134 6.41641C14.1989 6.41641 14.4724 6.53039 14.6733 6.73303L16.0539 8.12471L19.0078 5.15923V5.15947C19.2792 4.88778 19.675 4.78168 20.0458 4.88108C20.4166 4.98049 20.7064 5.27035 20.8058 5.64122C20.9052 6.01209 20.7991 6.40802 20.5275 6.67951L16.8136 10.3944H16.8138C16.6129 10.597 16.3394 10.711 16.0539 10.711C15.7684 10.711 15.4949 10.597 15.2939 10.3944L13.1534 8.25331C12.9508 8.05234 12.8369 7.77874 12.8369 7.49317C12.8369 7.2076 12.9508 6.93401 13.1534 6.73304L13.1534 6.73303ZM9.00097 20.3397H23.9845C24.7 20.3397 25.3951 20.1008 25.9594 19.6604C26.5237 19.2203 26.9248 18.604 27.099 17.9096L29.9671 6.68005C30.0483 6.35985 29.9772 6.02006 29.7746 5.75934C29.5634 5.49171 29.2375 5.34068 28.8969 5.35264H25.4078C25.5879 6.05233 25.6813 6.7713 25.6861 7.49369C25.6861 10.5533 24.0542 13.3806 21.4051 14.9103C18.756 16.4404 15.4922 16.4404 12.8431 14.9103C10.194 13.3805 8.56207 10.5531 8.56207 7.49369C8.56684 6.7713 8.66026 6.05233 8.84038 5.35264H6.42155L5.71513 2.47298C5.54885 1.769 5.14966 1.14173 4.58249 0.692723C4.01536 0.243964 3.31324 0 2.59012 0H1.07024C0.687765 0 0.334453 0.204067 0.143337 0.535264C-0.0477791 0.86646 -0.0477791 1.2746 0.143337 1.60579C0.334453 1.93698 0.687777 2.14105 1.07024 2.14105H2.59012C2.83594 2.13436 3.07674 2.21274 3.27171 2.36304C3.46665 2.51311 3.60378 2.72578 3.6604 2.96546L7.38475 18.9377L6.11121 20.2116C5.50991 20.814 5.17214 21.6303 5.17214 22.4817C5.17238 23.3328 5.51018 24.1491 6.1117 24.7513C6.71324 25.3535 7.52908 25.6921 8.38002 25.6928C8.05584 26.587 8.14423 27.5789 8.62202 28.4014C9.09981 29.2241 9.91733 29.7923 10.8545 29.9534C11.7919 30.1144 12.7523 29.8518 13.4771 29.2358C14.2019 28.6201 14.6164 27.7146 14.609 26.7633C14.6076 26.397 14.5388 26.034 14.4057 25.6928H18.3549C17.9977 26.6773 18.1427 27.7741 18.7438 28.6317C19.3446 29.4894 20.326 30 21.3731 30C22.4199 30 23.4013 29.4893 24.0023 28.6317C24.6032 27.7741 24.7484 26.6773 24.391 25.6928H26.7563C27.1388 25.6928 27.4921 25.4887 27.6832 25.1575C27.8744 24.8264 27.8744 24.4182 27.6832 24.087C27.4921 23.7558 27.1388 23.5518 26.7563 23.5518H8.37982C8.09481 23.5534 7.82081 23.4414 7.61872 23.2402C7.41685 23.0389 7.30313 22.7656 7.30338 22.4803C7.30362 22.1952 7.41757 21.9221 7.62015 21.7211L9.00097 20.3397ZM21.4049 25.6924C21.6887 25.6924 21.961 25.8052 22.1617 26.0059C22.3624 26.2066 22.4751 26.479 22.4751 26.7629C22.4751 27.0468 22.3624 27.3192 22.1617 27.5199C21.961 27.7206 21.6887 27.8334 21.4049 27.8334C21.1211 27.8334 20.8487 27.7206 20.6481 27.5199C20.4474 27.3192 20.3346 27.0468 20.3346 26.7629C20.3346 26.479 20.4474 26.2066 20.6481 26.0059C20.8487 25.8052 21.1211 25.6924 21.4049 25.6924ZM11.4301 25.6924C11.7142 25.6924 11.9863 25.8052 12.187 26.0059C12.3876 26.2066 12.5004 26.479 12.5004 26.7629C12.5004 27.0468 12.3876 27.3192 12.187 27.5199C11.9863 27.7206 11.7142 27.8334 11.4301 27.8334C11.1463 27.8334 10.8742 27.7206 10.6736 27.5199C10.4726 27.3192 10.3599 27.0468 10.3599 26.7629C10.3599 26.479 10.4726 26.2066 10.6736 26.0059C10.8742 25.8052 11.1463 25.6924 11.4301 25.6924Z" fill="white"/>
</svg>
