<svg width="34" height="30" viewBox="0 0 34 30" fill="none" xmlns="http://www.w3.org/2000/svg">
<path d="M29.124 23.2911C29.124 23.2911 29.124 23.3068 29.1081 23.2911C28.6819 23.7167 28.1004 23.9557 27.4945 23.954H27.2388L27.095 23.9224C26.664 23.8508 26.2609 23.6647 25.9288 23.3836C25.5964 23.1028 25.3482 22.7378 25.21 22.3281L25.0983 21.9966C24.6988 21.8862 24.2996 21.7915 23.8842 21.7125L23.8839 21.7123C24.0904 21.1429 24.2664 20.5634 24.4113 19.9756L24.2419 19.4705H24.2514L23.5326 17.3394C23.4722 17.365 23.4064 17.376 23.3409 17.3711C23.2362 17.373 23.1323 17.3512 23.0373 17.3077C22.845 17.2232 22.6915 17.0715 22.606 16.8816C22.5208 16.6905 22.5208 16.4728 22.606 16.2817C22.6915 16.0917 22.845 15.9401 23.0373 15.8555L22.3664 13.8822C22.2291 13.4635 22.2101 13.0158 22.3115 12.5875C22.413 12.1591 22.6308 11.766 22.9414 11.451C22.9846 11.4084 23.0373 11.3753 23.0835 11.3357C23.2869 11.1589 23.5193 11.0174 23.7705 10.9172L23.8026 10.9079C24.0288 10.8236 24.267 10.7752 24.5085 10.7642C24.55 10.7642 24.5916 10.7515 24.6331 10.7515H24.6333C24.8941 10.7537 25.1526 10.7964 25.4 10.8779L33.8993 13.6721V12.1092C33.8993 11.6905 33.731 11.2888 33.4315 10.9929C33.1318 10.6969 32.7256 10.5304 32.3018 10.5304H31.4198C30.8643 8.76459 29.9789 7.11692 28.8093 5.673L28.7948 5.65565H28.7951C26.9007 3.29631 24.3293 1.55758 21.4177 0.667536C18.5062 -0.222512 15.3903 -0.222512 12.4785 0.667536C9.56716 1.55758 6.99542 3.29638 5.10108 5.65565V5.66501C3.92543 7.1114 3.03614 8.76351 2.47949 10.5353H1.59747C1.174 10.5353 0.767514 10.7016 0.46804 10.9975C0.168273 11.2937 0 11.6951 0 12.1139V17.8918C0 18.3105 0.168273 18.712 0.46804 19.0082C0.767528 19.3041 1.174 19.4704 1.59747 19.4704H2.47949C3.02971 21.2207 3.90618 22.8538 5.06428 24.2853C6.91468 26.6147 9.42373 28.348 12.2726 29.2652C15.1215 30.1825 18.1824 30.2422 21.0664 29.4373C23.9502 28.632 26.5266 26.9982 28.4688 24.7432H28.4846C28.8201 24.3583 29.1296 23.9522 29.4112 23.5278L29.5071 23.3857C29.4199 23.3202 29.3396 23.2461 29.2675 23.1646C29.2237 23.2109 29.1755 23.2533 29.1237 23.291L29.124 23.2911ZM22.8807 19.4708V19.4705C22.7158 20.1362 22.5065 20.7901 22.2544 21.4282C20.764 21.1922 19.2587 21.0603 17.7493 21.0334V19.4705L22.8807 19.4708ZM17.5096 17.1341C17.2881 17.3664 16.9427 17.4361 16.6468 17.3078C16.3487 17.1867 16.1534 16.9004 16.1517 16.5815V13.4241V13.4244C16.1517 12.9883 16.5092 12.6348 16.9504 12.6348C17.3917 12.6348 17.7492 12.9883 17.7492 13.4244V14.6715L17.9888 14.4504C18.1345 14.299 18.3367 14.2134 18.5479 14.2134C18.7593 14.2134 18.9616 14.299 19.107 14.4504L19.3466 14.6715L19.3469 13.4244C19.3469 12.9883 19.7043 12.6348 20.1456 12.6348C20.5866 12.6348 20.9443 12.9883 20.9443 13.4244V16.5818V16.5815C20.9427 16.9003 20.7474 17.1866 20.449 17.3078C20.354 17.3513 20.2504 17.373 20.1456 17.3711C19.9336 17.3739 19.7305 17.2877 19.5865 17.1341L18.5481 16.1237L17.5096 17.1341ZM17.7492 2.3326C19.3291 3.63254 20.6282 5.2337 21.5691 7.04022C20.3028 7.21422 19.0274 7.3158 17.7492 7.3447V2.3326ZM16.1518 2.3326V7.34468C14.8742 7.31577 13.5993 7.21446 12.3337 7.04158C13.2734 5.23421 14.5719 3.63199 16.1518 2.33092V2.3326ZM16.1518 8.96289V10.5414L11.0092 10.5417C11.177 9.873 11.387 9.21533 11.6386 8.57301C13.133 8.79848 14.6405 8.92732 16.1518 8.95815L16.1518 8.96289ZM10.2567 17.308C9.95836 17.1869 9.76307 16.9006 9.7614 16.5818V13.4243V13.4246C9.7614 12.9885 10.1191 12.6351 10.5601 12.6351C11.0014 12.6351 11.3591 12.9885 11.3591 13.4246V14.6717L11.5987 14.4506C11.7444 14.2992 11.9464 14.2136 12.1578 14.2136C12.3693 14.2136 12.5713 14.2992 12.717 14.4506L12.9566 14.6717V13.4246C12.9566 12.9885 13.3143 12.6351 13.7553 12.6351C14.1966 12.6351 14.554 12.9885 14.554 13.4246V16.582V16.5818C14.5526 16.9005 14.357 17.1869 14.0589 17.308C13.9639 17.3515 13.86 17.3733 13.7553 17.3713C13.5435 17.3741 13.3402 17.2879 13.1961 17.1343L12.1578 16.124L11.1194 17.1343H11.1192C10.8988 17.3686 10.5522 17.4382 10.2566 17.308L10.2567 17.308ZM16.1518 19.4708V21.0337C14.6371 21.0607 13.1265 21.1925 11.6304 21.4285C11.3825 20.7892 11.1749 20.1356 11.0092 19.4708L16.1518 19.4708ZM16.1518 22.6122V27.6816C14.5599 26.3706 13.2553 24.7527 12.3175 22.9266C13.5876 22.7422 14.8683 22.6373 16.1518 22.6125V22.6122ZM17.7492 27.675V22.6125C19.0333 22.6293 20.3145 22.735 21.5835 22.9283C20.6463 24.7524 19.3417 26.3679 17.7492 27.6752V27.675ZM17.7492 10.5358V8.95697C19.2606 8.92421 20.7684 8.79317 22.2624 8.5655C22.5143 9.20804 22.7244 9.86544 22.8918 10.5342L17.7492 10.5358ZM24.5149 10.5358C24.3447 9.76936 24.124 9.01476 23.8552 8.27666C25.2404 7.99503 26.6035 7.61595 27.9338 7.14164C28.6963 8.18089 29.3018 9.32423 29.731 10.5358H24.5149ZM26.8378 5.83613V5.83586C25.6557 6.23174 24.448 6.5483 23.2225 6.78313C22.3449 4.93946 21.1294 3.27199 19.6375 1.86549C22.3937 2.42572 24.9082 3.81212 26.838 5.83586L26.8378 5.83613ZM14.2619 1.86415C12.7711 3.27177 11.5542 4.93812 10.6722 6.78016C9.44889 6.54506 8.24308 6.22874 7.06323 5.83289C8.99223 3.80944 11.5063 2.42359 14.2616 1.86422L14.2619 1.86415ZM5.96732 7.14164C7.29231 7.6146 8.64989 7.99229 10.0301 8.27201C9.75984 9.01173 9.53836 9.76773 9.36702 10.5358H4.17013C4.59944 9.32423 5.20483 8.18089 5.96732 7.14164ZM3.86644 17.3079C3.56834 17.1867 3.37277 16.9004 3.37137 16.5816V13.4242V13.4245C3.37137 12.9884 3.72881 12.6349 4.17009 12.6349C4.61111 12.6349 4.96881 12.9884 4.96881 13.4245V14.6716L5.2084 14.4505C5.35411 14.2991 5.55609 14.2135 5.76754 14.2135C5.97899 14.2135 6.18097 14.2991 6.32667 14.4505L6.56627 14.6716V13.4245C6.56627 12.9884 6.92398 12.6349 7.36527 12.6349C7.80629 12.6349 8.16399 12.9884 8.16399 13.4245V16.5819V16.5816C8.16231 16.9004 7.96702 17.1867 7.66864 17.3079C7.57365 17.3514 7.46973 17.3731 7.36525 17.3712C7.15324 17.3739 6.95015 17.2878 6.80612 17.1342L5.76777 16.1238L4.72941 17.1342H4.72913C4.50848 17.3684 4.16192 17.4381 3.8663 17.3079L3.86644 17.3079ZM9.36702 19.4707C9.53724 20.2307 9.75538 20.9796 10.0203 21.7124C8.64042 21.9886 7.28398 22.3688 5.96256 22.8492C5.21369 21.8135 4.62166 20.6754 4.20515 19.4707H9.36702ZM7.02964 24.1436C8.2142 23.7428 9.42614 23.4262 10.6561 23.1965C11.5382 25.0493 12.7589 26.725 14.2572 28.1393C11.4866 27.5815 8.96028 26.1852 7.02964 24.1436ZM19.6341 28.1534L19.6344 28.1536C21.1416 26.7395 22.3663 25.0579 23.2449 23.1966C24.4766 23.4262 25.6891 23.748 26.8714 24.1596C24.9497 26.2169 22.4148 27.6157 19.6346 28.1536L19.6341 28.1534ZM33.9966 19.4072L33.9968 19.4075C34.0183 19.6385 33.9297 19.8659 33.7572 20.0231L31.6165 22.1385C31.4574 22.3092 31.227 22.3965 30.9933 22.3755C30.7565 22.3563 30.5403 22.2351 30.4024 22.0438L30.3703 21.9964L29.6833 21.0492L29.2679 20.481L28.8684 21.0492L28.1497 22.0438C27.9953 22.2489 27.7532 22.3714 27.4947 22.3755C27.4515 22.378 27.408 22.3728 27.3668 22.3596C27.0701 22.3221 26.8216 22.1195 26.728 21.8387L26.4564 21.0494L25.9293 19.4709L23.8844 13.3772H23.8841C23.7913 13.0947 23.8668 12.785 24.0791 12.5749C24.2914 12.3651 24.6051 12.2908 24.8907 12.3825L33.4534 15.1925C33.6453 15.2591 33.805 15.3943 33.9008 15.5713C33.944 15.6495 33.9713 15.7353 33.9808 15.824C34.012 15.9914 33.9835 16.1643 33.9008 16.3135C33.8479 16.423 33.7648 16.5161 33.6612 16.5816L32.0796 17.7023L33.6612 18.823V18.8233C33.7568 18.8916 33.8381 18.9772 33.9008 19.076C33.9496 19.1812 33.9819 19.293 33.9966 19.4075L33.9966 19.4072Z" fill="white"/>
</svg>
