<svg width="37" height="23" viewBox="0 0 37 23" fill="none" xmlns="http://www.w3.org/2000/svg">
<path d="M29.0812 4.21269H28.1878V4.3663C28.1926 4.44625 28.1798 4.52626 28.1501 4.60146C28.1204 4.67666 28.0745 4.74545 28.0151 4.80363C27.9557 4.86182 27.8841 4.90816 27.8046 4.93984C27.7252 4.97151 27.6397 4.98785 27.5532 4.98785C27.4667 4.98785 27.3812 4.97151 27.3018 4.93984C27.2223 4.90816 27.1507 4.86182 27.0913 4.80363C27.0319 4.74545 26.986 4.67666 26.9563 4.60146C26.9266 4.52626 26.9138 4.44625 26.9186 4.3663V4.21269H4.23904V4.3663C4.24389 4.44625 4.23107 4.52626 4.20137 4.60146C4.17167 4.67666 4.12571 4.74545 4.06631 4.80363C4.0069 4.86182 3.9353 4.90816 3.85589 4.93984C3.77648 4.97151 3.69092 4.98785 3.60445 4.98785C3.51798 4.98785 3.43242 4.97151 3.35301 4.93984C3.27359 4.90816 3.20199 4.86182 3.14259 4.80363C3.08319 4.74545 3.03723 4.67666 3.00753 4.60146C2.97783 4.52626 2.96501 4.44625 2.96985 4.3663V4.21083H2.08442C1.80332 4.17543 1.5172 4.20079 1.24846 4.28493C0.97973 4.36907 0.735695 4.50971 0.535491 4.69582C0.335286 4.88192 0.184353 5.10844 0.0945232 5.35761C0.00469389 5.60677 -0.02159 5.87182 0.0177322 6.13197V21.0088C0.0177322 21.155 0.0177322 21.2753 0.0277258 21.3974C0.0349956 21.8151 0.218107 22.2137 0.538055 22.5083C0.858004 22.8028 1.2895 22.97 1.74064 22.9743C2.01646 22.9854 2.46018 22.9928 2.96985 22.9947V22.8466C2.96501 22.7667 2.97783 22.6867 3.00753 22.6115C3.03723 22.5363 3.08319 22.4675 3.14259 22.4093C3.20199 22.3511 3.27359 22.3048 3.35301 22.2731C3.43242 22.2414 3.51798 22.2251 3.60445 22.2251C3.69092 22.2251 3.77648 22.2414 3.85589 22.2731C3.9353 22.3048 4.0069 22.3511 4.06631 22.4093C4.12571 22.4675 4.17167 22.5363 4.20137 22.6115C4.23107 22.6867 4.24389 22.7667 4.23904 22.8466V22.9984C5.17845 22.9984 6.13584 22.9984 6.71947 22.9836L6.83539 22.9984V22.8392C6.86347 22.1352 7.17953 21.4674 7.71953 20.9711C8.25953 20.4749 8.98307 20.1873 9.74354 20.1666C10.5025 20.1613 11.2363 20.4184 11.8012 20.8878C12.3661 21.3571 12.7214 22.0049 12.7976 22.7041C12.8066 22.8001 12.826 22.8949 12.8556 22.9873C12.954 22.98 13.0529 22.98 13.1514 22.9873H26.9106V22.8466C26.9058 22.7667 26.9186 22.6867 26.9483 22.6115C26.978 22.5363 27.0239 22.4675 27.0833 22.4093C27.1428 22.3511 27.2144 22.3048 27.2938 22.2731C27.3732 22.2414 27.4587 22.2251 27.5452 22.2251C27.6317 22.2251 27.7172 22.2414 27.7966 22.2731C27.8761 22.3048 27.9477 22.3511 28.0071 22.4093C28.0665 22.4675 28.1124 22.5363 28.1421 22.6115C28.1718 22.6867 28.1847 22.7667 28.1798 22.8466V22.9873H29.1072C29.3827 23.0182 29.6622 22.9904 29.9243 22.906C30.1864 22.8216 30.4242 22.6829 30.6195 22.5004C30.8149 22.3179 30.9626 22.0965 31.0514 21.853C31.1402 21.6096 31.1678 21.3506 31.1319 21.0958V6.11532C31.1706 5.85739 31.1443 5.59467 31.055 5.34774C30.9657 5.10081 30.8159 4.87639 30.6172 4.69208C30.4186 4.50777 30.1765 4.36857 29.91 4.28539C29.6435 4.20222 29.3598 4.17733 29.0812 4.21269ZM4.23705 20.4369C4.24189 20.5168 4.22907 20.5968 4.19937 20.672C4.16967 20.7472 4.12371 20.816 4.06431 20.8742C4.00491 20.9324 3.93331 20.9787 3.85389 21.0104C3.77448 21.0421 3.68892 21.0584 3.60245 21.0584C3.51598 21.0584 3.43042 21.0421 3.35101 21.0104C3.27159 20.9787 3.2 20.9324 3.14059 20.8742C3.08119 20.816 3.03523 20.7472 3.00553 20.672C2.97583 20.5968 2.96301 20.5168 2.96785 20.4369V18.8304C2.96301 18.7504 2.97583 18.6704 3.00553 18.5952C3.03523 18.52 3.08119 18.4512 3.14059 18.393C3.2 18.3348 3.27159 18.2885 3.35101 18.2568C3.43042 18.2252 3.51598 18.2088 3.60245 18.2088C3.68892 18.2088 3.77448 18.2252 3.85389 18.2568C3.93331 18.2885 4.00491 18.3348 4.06431 18.393C4.12371 18.4512 4.16967 18.52 4.19937 18.5952C4.22907 18.6704 4.24189 18.7504 4.23705 18.8304V20.4369ZM4.23705 16.4188C4.24189 16.4987 4.22907 16.5787 4.19937 16.6539C4.16967 16.7291 4.12371 16.7979 4.06431 16.8561C4.00491 16.9143 3.93331 16.9606 3.85389 16.9923C3.77448 17.024 3.68892 17.0403 3.60245 17.0403C3.51598 17.0403 3.43042 17.024 3.35101 16.9923C3.27159 16.9606 3.2 16.9143 3.14059 16.8561C3.08119 16.7979 3.03523 16.7291 3.00553 16.6539C2.97583 16.5787 2.96301 16.4987 2.96785 16.4188V14.8141C2.96301 14.7342 2.97583 14.6541 3.00553 14.579C3.03523 14.5038 3.08119 14.435 3.14059 14.3768C3.2 14.3186 3.27159 14.2723 3.35101 14.2406C3.43042 14.2089 3.51598 14.1926 3.60245 14.1926C3.68892 14.1926 3.77448 14.2089 3.85389 14.2406C3.93331 14.2723 4.00491 14.3186 4.06431 14.3768C4.12371 14.435 4.16967 14.5038 4.19937 14.579C4.22907 14.6541 4.24189 14.7342 4.23705 14.8141V16.4188ZM4.23705 12.3988C4.24189 12.4787 4.22907 12.5588 4.19937 12.634C4.16967 12.7092 4.12371 12.778 4.06431 12.8361C4.00491 12.8943 3.93331 12.9407 3.85389 12.9723C3.77448 13.004 3.68892 13.0204 3.60245 13.0204C3.51598 13.0204 3.43042 13.004 3.35101 12.9723C3.27159 12.9407 3.2 12.8943 3.14059 12.8361C3.08119 12.778 3.03523 12.7092 3.00553 12.634C2.97583 12.5588 2.96301 12.4787 2.96785 12.3988V10.7923C2.96301 10.7124 2.97583 10.6323 3.00553 10.5571C3.03523 10.482 3.08119 10.4132 3.14059 10.355C3.2 10.2968 3.27159 10.2504 3.35101 10.2188C3.43042 10.1871 3.51598 10.1708 3.60245 10.1708C3.68892 10.1708 3.77448 10.1871 3.85389 10.2188C3.93331 10.2504 4.00491 10.2968 4.06431 10.355C4.12371 10.4132 4.16967 10.482 4.19937 10.5571C4.22907 10.6323 4.24189 10.7124 4.23705 10.7923V12.3988ZM4.23705 8.3807C4.24189 8.46065 4.22907 8.54066 4.19937 8.61586C4.16967 8.69106 4.12371 8.75985 4.06431 8.81804C4.00491 8.87622 3.93331 8.92256 3.85389 8.95424C3.77448 8.98591 3.68892 9.00225 3.60245 9.00225C3.51598 9.00225 3.43042 8.98591 3.35101 8.95424C3.27159 8.92256 3.2 8.87622 3.14059 8.81804C3.08119 8.75985 3.03523 8.69106 3.00553 8.61586C2.97583 8.54066 2.96301 8.46065 2.96785 8.3807V6.77605C2.96301 6.69611 2.97583 6.61609 3.00553 6.5409C3.03523 6.4657 3.08119 6.39691 3.14059 6.33872C3.2 6.28054 3.27159 6.23419 3.35101 6.20252C3.43042 6.17084 3.51598 6.15451 3.60245 6.15451C3.68892 6.15451 3.77448 6.17084 3.85389 6.20252C3.93331 6.23419 4.00491 6.28054 4.06431 6.33872C4.12371 6.39691 4.16967 6.4657 4.19937 6.5409C4.22907 6.61609 4.24189 6.69611 4.23705 6.77605V8.3807ZM9.88945 12.2489V11.4827C9.88945 10.9388 10.1228 10.4172 10.5381 10.0326C10.9534 9.64802 11.5167 9.43196 12.104 9.43196C12.6914 9.43196 13.2547 9.64802 13.67 10.0326C14.0853 10.4172 14.3186 10.9388 14.3186 11.4827V12.2581C14.3186 12.802 14.0853 13.3236 13.67 13.7082C13.2547 14.0928 12.6914 14.3088 12.104 14.3088C11.5167 14.3088 10.9534 14.0928 10.5381 13.7082C10.1228 13.3236 9.88945 12.802 9.88945 12.2581V12.2489ZM13.0774 18.5583C13.0396 18.6161 12.9899 18.6665 12.9311 18.7066C12.8722 18.7466 12.8055 18.7756 12.7346 18.7917C12.6637 18.8079 12.59 18.8109 12.5179 18.8007C12.4457 18.7905 12.3764 18.7673 12.3139 18.7323C12.2514 18.6973 12.197 18.6512 12.1538 18.5967C12.1105 18.5423 12.0793 18.4804 12.0618 18.4148C12.0444 18.3491 12.0411 18.281 12.0521 18.2141C12.0631 18.1473 12.0882 18.0831 12.126 18.0253L18.2481 8.65647C18.2859 8.59863 18.3357 8.54824 18.3945 8.50819C18.4533 8.46814 18.5201 8.43921 18.591 8.42306C18.6619 8.4069 18.7355 8.40384 18.8077 8.41404C18.8799 8.42424 18.9492 8.4475 19.0116 8.4825C19.0741 8.5175 19.1285 8.56355 19.1718 8.61802C19.215 8.67249 19.2463 8.73432 19.2637 8.79997C19.2812 8.86562 19.2845 8.93381 19.2735 9.00065C19.2624 9.06749 19.2373 9.13166 19.1995 9.18951L13.0774 18.5583ZM21.2602 16.3207C21.2691 16.595 21.2184 16.8683 21.1112 17.1241C21.004 17.38 20.8423 17.6134 20.6359 17.8104C20.4295 18.0074 20.1824 18.164 19.9094 18.2709C19.6364 18.3779 19.343 18.433 19.0466 18.433C18.7502 18.433 18.4568 18.3779 18.1838 18.2709C17.9108 18.164 17.6638 18.0074 17.4573 17.8104C17.2509 17.6134 17.0893 17.38 16.982 17.1241C16.8748 16.8683 16.8241 16.595 16.833 16.3207V15.5544C16.8241 15.2801 16.8748 15.0068 16.982 14.751C17.0893 14.4951 17.2509 14.2617 17.4573 14.0647C17.6638 13.8677 17.9108 13.7111 18.1838 13.6042C18.4568 13.4972 18.7502 13.4421 19.0466 13.4421C19.343 13.4421 19.6364 13.4972 19.9094 13.6042C20.1824 13.7111 20.4295 13.8677 20.6359 14.0647C20.8423 14.2617 21.004 14.4951 21.1112 14.751C21.2184 15.0068 21.2691 15.2801 21.2602 15.5544V16.3207ZM28.1878 20.4369C28.1926 20.5168 28.1798 20.5968 28.1501 20.672C28.1204 20.7472 28.0745 20.816 28.0151 20.8742C27.9557 20.9324 27.8841 20.9787 27.8046 21.0104C27.7252 21.0421 27.6397 21.0584 27.5532 21.0584C27.4667 21.0584 27.3812 21.0421 27.3018 21.0104C27.2223 20.9787 27.1507 20.9324 27.0913 20.8742C27.0319 20.816 26.986 20.7472 26.9563 20.672C26.9266 20.5968 26.9138 20.5168 26.9186 20.4369V18.8304C26.9138 18.7504 26.9266 18.6704 26.9563 18.5952C26.986 18.52 27.0319 18.4512 27.0913 18.393C27.1507 18.3348 27.2223 18.2885 27.3018 18.2568C27.3812 18.2252 27.4667 18.2088 27.5532 18.2088C27.6397 18.2088 27.7252 18.2252 27.8046 18.2568C27.8841 18.2885 27.9557 18.3348 28.0151 18.393C28.0745 18.4512 28.1204 18.52 28.1501 18.5952C28.1798 18.6704 28.1926 18.7504 28.1878 18.8304V20.4369ZM28.1878 16.4188C28.1926 16.4987 28.1798 16.5787 28.1501 16.6539C28.1204 16.7291 28.0745 16.7979 28.0151 16.8561C27.9557 16.9143 27.8841 16.9606 27.8046 16.9923C27.7252 17.024 27.6397 17.0403 27.5532 17.0403C27.4667 17.0403 27.3812 17.024 27.3018 16.9923C27.2223 16.9606 27.1507 16.9143 27.0913 16.8561C27.0319 16.7979 26.986 16.7291 26.9563 16.6539C26.9266 16.5787 26.9138 16.4987 26.9186 16.4188V14.8141C26.9138 14.7342 26.9266 14.6541 26.9563 14.579C26.986 14.5038 27.0319 14.435 27.0913 14.3768C27.1507 14.3186 27.2223 14.2723 27.3018 14.2406C27.3812 14.2089 27.4667 14.1926 27.5532 14.1926C27.6397 14.1926 27.7252 14.2089 27.8046 14.2406C27.8841 14.2723 27.9557 14.3186 28.0151 14.3768C28.0745 14.435 28.1204 14.5038 28.1501 14.579C28.1798 14.6541 28.1926 14.7342 28.1878 14.8141V16.4188ZM28.1878 12.3988C28.1926 12.4787 28.1798 12.5588 28.1501 12.634C28.1204 12.7092 28.0745 12.778 28.0151 12.8361C27.9557 12.8943 27.8841 12.9407 27.8046 12.9723C27.7252 13.004 27.6397 13.0204 27.5532 13.0204C27.4667 13.0204 27.3812 13.004 27.3018 12.9723C27.2223 12.9407 27.1507 12.8943 27.0913 12.8361C27.0319 12.778 26.986 12.7092 26.9563 12.634C26.9266 12.5588 26.9138 12.4787 26.9186 12.3988V10.7923C26.9138 10.7124 26.9266 10.6323 26.9563 10.5571C26.986 10.482 27.0319 10.4132 27.0913 10.355C27.1507 10.2968 27.2223 10.2504 27.3018 10.2188C27.3812 10.1871 27.4667 10.1708 27.5532 10.1708C27.6397 10.1708 27.7252 10.1871 27.8046 10.2188C27.8841 10.2504 27.9557 10.2968 28.0151 10.355C28.0745 10.4132 28.1204 10.482 28.1501 10.5571C28.1798 10.6323 28.1926 10.7124 28.1878 10.7923V12.3988ZM28.1878 8.3807C28.1926 8.46065 28.1798 8.54066 28.1501 8.61586C28.1204 8.69106 28.0745 8.75985 28.0151 8.81804C27.9557 8.87622 27.8841 8.92256 27.8046 8.95424C27.7252 8.98591 27.6397 9.00225 27.5532 9.00225C27.4667 9.00225 27.3812 8.98591 27.3018 8.95424C27.2223 8.92256 27.1507 8.87622 27.0913 8.81804C27.0319 8.75985 26.986 8.69106 26.9563 8.61586C26.9266 8.54066 26.9138 8.46065 26.9186 8.3807V6.77605C26.9138 6.69611 26.9266 6.61609 26.9563 6.5409C26.986 6.4657 27.0319 6.39691 27.0913 6.33872C27.1507 6.28054 27.2223 6.23419 27.3018 6.20252C27.3812 6.17084 27.4667 6.15451 27.5532 6.15451C27.6397 6.15451 27.7252 6.17084 27.8046 6.20252C27.8841 6.23419 27.9557 6.28054 28.0151 6.33872C28.0745 6.39691 28.1204 6.4657 28.1501 6.5409C28.1798 6.61609 28.1926 6.69611 28.1878 6.77605V8.3807Z" fill="white"/>
<path d="M19.0486 14.6719C18.7566 14.6724 18.4768 14.78 18.2704 14.9711C18.064 15.1622 17.9478 15.4214 17.9473 15.6917V16.4598C17.9642 16.7191 18.0873 16.9627 18.2916 17.1408C18.4959 17.319 18.766 17.4181 19.0466 17.4181C19.3272 17.4181 19.5972 17.319 19.8015 17.1408C20.0058 16.9627 20.129 16.7191 20.1459 16.4598V15.6843C20.1438 15.4157 20.0274 15.1588 19.8219 14.9692C19.6165 14.7797 19.3386 14.6728 19.0486 14.6719Z" fill="white"/>
<path d="M13.2606 12.3492V11.4336C13.242 11.1281 13.107 10.8411 12.8829 10.6313C12.6589 10.4215 12.3628 10.3047 12.0551 10.3047C11.7474 10.3047 11.4513 10.4215 11.2272 10.6313C11.0032 10.8411 10.8681 11.1281 10.8496 11.4336V12.3492C10.8681 12.6547 11.0032 12.9417 11.2272 13.1515C11.4513 13.3613 11.7474 13.4781 12.0551 13.4781C12.3628 13.4781 12.6589 13.3613 12.8829 13.1515C13.107 12.9417 13.242 12.6547 13.2606 12.3492Z" fill="white"/>
<path d="M34.0863 0H6.79169C6.28439 0 5.79786 0.18661 5.43915 0.518779C5.08043 0.850947 4.87891 1.30146 4.87891 1.77122V3.12786H29.2314C30.0747 3.13127 30.8824 3.44299 31.4787 3.99518C32.0751 4.54736 32.4117 5.2953 32.4154 6.0762V18.7857H34.0883C34.3395 18.7857 34.5882 18.7399 34.8203 18.6509C35.0524 18.5619 35.2632 18.4314 35.4408 18.2669C35.6185 18.1024 35.7594 17.9072 35.8555 17.6923C35.9516 17.4774 36.0011 17.2471 36.0011 17.0145V1.77122C36.0006 1.30129 35.7986 0.850782 35.4396 0.518667C35.0805 0.186551 34.5938 -2.56018e-07 34.0863 0Z" fill="white"/>
</svg>
