<svg width="35" height="30" viewBox="0 0 35 30" fill="none" xmlns="http://www.w3.org/2000/svg">
<path d="M25.3122 7.24764C25.3122 6.16585 24.4468 5.30066 23.3653 5.30066L5.3004 5.30041V3.02872C5.3004 2.55989 5.69705 2.16327 6.16585 2.16327H27.548C28.0168 2.16327 28.4135 2.55992 28.4135 3.02872V13.9181C29.1708 14.0263 29.8919 14.2066 30.5408 14.4951V3.02877C30.5408 1.37 29.1705 0 27.512 0H6.16591C4.50714 0 3.13714 1.33407 3.13714 3.02877V5.30047H1.94698C0.865189 5.30047 0 6.16591 0 7.24745V9.33879H25.3124L25.3122 7.24764Z" fill="white"/>
<path d="M25.3124 14.0216V12.2188H0V20.6202C0 21.702 0.865447 22.5672 1.94698 22.5672H18.1008C18.2452 18.3484 21.3102 14.8508 25.3123 14.0215L25.3124 14.0216ZM6.31008 19.0336C6.31008 19.2499 6.12974 19.4303 5.91343 19.4303H3.24511C3.0288 19.4303 2.84846 19.2499 2.84846 19.0336V17.6274C2.84846 17.4111 3.0288 17.2307 3.24511 17.2307H5.91343C6.12974 17.2307 6.31008 17.4111 6.31008 17.6274V19.0336ZM11.6827 19.0336C11.6827 19.2499 11.5024 19.4303 11.2861 19.4303H8.61775C8.40145 19.4303 8.22111 19.2499 8.22111 19.0336V17.6274C8.22111 17.4111 8.40145 17.2307 8.61775 17.2307H11.2861C11.5024 17.2307 11.6827 17.4111 11.6827 17.6274V19.0336ZM17.0552 19.0336C17.0552 19.2499 16.8748 19.4303 16.6585 19.4303H13.9902C13.7739 19.4303 13.5936 19.2499 13.5936 19.0336V17.6274C13.5936 17.4111 13.7739 17.2307 13.9902 17.2307H16.6585C16.8748 17.2307 17.0552 17.4111 17.0552 17.6274V19.0336Z" fill="white"/>
<path d="M27.1522 15.7969C23.222 15.7969 20.0488 18.97 20.0488 22.9002C20.0488 26.8304 23.222 30.0036 27.1522 30.0036C31.0824 30.0036 34.2555 26.8304 34.2555 22.9002C34.2555 18.97 31.0824 15.7969 27.1522 15.7969ZM30.5057 21.7825L26.9359 25.3523C26.7556 25.5326 26.5033 25.6408 26.2507 25.6408C25.9982 25.6408 25.7459 25.5326 25.5656 25.3523L23.7987 23.5854C23.402 23.1887 23.402 22.5758 23.7987 22.2151C24.1953 21.8545 24.8083 21.8185 25.1689 22.2151L26.2507 23.2969L29.1354 20.4122C29.5321 20.0156 30.145 20.0156 30.5057 20.4122C30.8661 20.8089 30.8661 21.4219 30.5057 21.7825Z" fill="white"/>
</svg>
