<svg width="13" height="14" viewBox="0 0 13 14" fill="none" xmlns="http://www.w3.org/2000/svg">
<path d="M7.44261 5.97061C6.94213 5.42478 6.26346 5.11816 5.55583 5.11816C4.84819 5.11816 4.16952 5.42478 3.66905 5.97061L1.78166 8.02919C1.28117 8.57524 1 9.31586 1 10.0881C1 10.8603 1.28117 11.601 1.78166 12.147C2.28214 12.6931 2.96095 12.9998 3.66874 12.9998C4.37654 12.9998 5.05534 12.6931 5.55583 12.147L6.49922 11.1177" stroke="#34B751" stroke-width="1.5" stroke-linecap="round" stroke-linejoin="round"/>
<path d="M5.55664 8.02924C6.05712 8.57506 6.73579 8.88168 7.44342 8.88168C8.15105 8.88168 8.82972 8.57506 9.3302 8.02924L11.2176 5.97066C11.7181 5.4246 11.9992 4.68399 11.9992 3.91174C11.9992 3.1395 11.7181 2.39889 11.2176 1.85283C10.7171 1.30677 10.0383 1 9.33051 1C8.62271 1 7.94391 1.30677 7.44342 1.85283L6.50003 2.88212" stroke="#34B751" stroke-width="1.5" stroke-linecap="round" stroke-linejoin="round"/>
</svg>
