<svg width="34" height="26" viewBox="0 0 34 26" fill="none" xmlns="http://www.w3.org/2000/svg">
<path d="M8.25316 25.0874L5.90759 25.4383C5.82385 25.4506 5.74078 25.4565 5.65897 25.4565C4.94846 25.4565 4.31902 25.0048 4.1967 24.3674L2.2878 14.4463L0.155591 3.36362L0.0379239 2.75028C-0.208632 1.46911 0.77301 0.250677 2.22665 0.0333158C3.67829 -0.183402 5.06008 0.680016 5.30803 1.95884L5.42039 2.54228L7.58255 13.7785L9.4682 23.5802C9.6044 24.2907 9.05936 24.9667 8.25316 25.0874Z" fill="white"/>
<path d="M33.9614 2.79745L33.8391 3.4342L31.6989 14.558L29.8026 24.4147C29.7362 24.7586 29.5221 25.0596 29.1984 25.2624C28.9445 25.4211 28.6481 25.5037 28.343 25.5037C28.2593 25.5037 28.1755 25.4979 28.0917 25.485L25.7462 25.1347C25.3553 25.0761 25.0138 24.8874 24.7844 24.6021C24.5544 24.3174 24.4647 23.9712 24.5311 23.6268L26.4254 13.7812L28.5856 2.552L28.6906 2.0066C28.8102 1.38741 29.1964 0.846112 29.7779 0.482321C30.3602 0.117945 31.068 -0.0243876 31.7726 0.080489C32.4764 0.185951 33.0919 0.526273 33.5054 1.03942C33.9188 1.55257 34.0811 2.17709 33.9614 2.79745Z" fill="white"/>
<path d="M33.8366 3.43365L31.6964 14.5574L30.6555 14.3822C29.2478 14.145 27.8367 13.9447 26.423 13.7806C23.3183 13.4215 20.2031 13.2405 17.0878 13.2381C13.9154 13.2346 10.743 13.4162 7.58119 13.783C6.1575 13.9476 4.7358 14.1503 3.31676 14.3899L2.31712 14.5592L2.28658 14.4508L0.154297 3.36804L4.51116 2.67739C4.81356 2.63226 5.11603 2.58896 5.41909 2.54676C9.29273 2.01132 13.1909 1.74538 17.0878 1.75006C20.9275 1.75474 24.7667 2.02185 28.5831 2.55144C28.8756 2.59188 29.1673 2.63402 29.4591 2.67739L33.8366 3.43365Z" fill="white"/>
</svg>
