<svg width="32" height="30" viewBox="0 0 32 30" fill="none" xmlns="http://www.w3.org/2000/svg">
<path d="M24.8917 18.5947V18.592L22.7951 13.2023L22.7909 13.1936C22.778 13.1639 22.7632 13.135 22.7465 13.1072C22.7365 13.0889 22.7287 13.0693 22.7177 13.0532C22.7015 13.0303 22.6839 13.0085 22.6651 12.9878C22.651 12.969 22.636 12.9509 22.6201 12.9337C22.602 12.9168 22.5832 12.9009 22.5638 12.8862C22.544 12.8669 22.5234 12.8488 22.5018 12.8321C22.484 12.8196 22.4633 12.8104 22.4446 12.7998C22.4187 12.7841 22.392 12.7696 22.3645 12.7568L22.3556 12.752C22.3361 12.7438 22.3167 12.7407 22.2972 12.7346C22.2707 12.725 22.2437 12.7173 22.2162 12.711C22.1904 12.7064 22.1646 12.703 22.1386 12.7013C22.1135 12.698 22.0883 12.696 22.0632 12.6953C22.036 12.6953 22.0107 12.6992 21.9818 12.7018C21.9529 12.7045 21.9339 12.7057 21.9102 12.7105C21.8814 12.717 21.853 12.7252 21.8253 12.7354C21.807 12.7419 21.788 12.7445 21.7697 12.752L21.7608 12.7568C21.7335 12.7694 21.7068 12.7836 21.6812 12.7996C21.6617 12.8104 21.6413 12.8196 21.6235 12.8319C21.6057 12.8444 21.5836 12.865 21.5637 12.8816C21.5437 12.8983 21.5233 12.913 21.5052 12.9313C21.4874 12.9497 21.4768 12.967 21.462 12.9854C21.4433 13.0068 21.4257 13.03 21.4095 13.0537C21.3985 13.0703 21.3905 13.0899 21.3806 13.1077C21.3642 13.1359 21.3492 13.1654 21.3358 13.1953L21.3316 13.204L19.2354 18.5937V18.5964L18.179 21.3121C18.0968 21.5126 18.0966 21.7385 18.1783 21.9392C18.2599 22.1398 18.4164 22.2983 18.6128 22.3792C18.8092 22.46 19.0289 22.4561 19.2227 22.3688C19.4163 22.2814 19.5676 22.1176 19.6427 21.9141L20.4959 19.7211H23.6335L24.4867 21.9141C24.5617 22.1176 24.7129 22.2814 24.9064 22.3688C25.1003 22.4561 25.3199 22.46 25.5163 22.3792C25.7127 22.2983 25.8692 22.1398 25.9509 21.9392C26.0323 21.7385 26.0323 21.5126 25.9502 21.3121L24.8917 18.5947ZM21.1241 18.0978L22.0622 15.6864L22.9999 18.0978H21.1241Z" fill="white"/>
<path d="M28.4205 9.72971H19.9107V3.68098C19.9096 2.70511 19.532 1.76957 18.8609 1.07941C18.19 0.38925 17.28 0.00123552 16.3311 0H3.57968C2.63072 0.00120655 1.72076 0.389238 1.04988 1.07941C0.378761 1.76957 0.00121097 2.70511 9.54098e-06 3.68098V11.8811C-0.00163306 12.6091 0.208854 13.3208 0.60445 13.9243C1.86595 16.4216 7.68449 20.1136 7.74756 20.1513C7.87169 20.2276 8.01319 20.2686 8.1575 20.2703C8.42008 20.2722 8.66624 20.1388 8.81312 19.9148C8.96002 19.6911 8.98818 19.4064 8.88821 19.1568C8.46607 17.9865 8.13918 16.7825 7.91043 15.5567H12.0891V21.6108C12.0905 22.5861 12.4681 23.5212 13.1394 24.2104C13.8105 24.8996 14.7203 25.2867 15.6687 25.2864H24.0896C23.8608 26.5123 23.5339 27.7162 23.1118 28.8865C23.0118 29.1361 23.04 29.4208 23.1869 29.6445C23.3338 29.8685 23.5799 30.0019 23.8425 30C23.9868 29.9983 24.1283 29.9573 24.2524 29.881C24.3156 29.8431 30.1343 26.1513 31.3955 23.654C31.7912 23.0505 32.0017 22.3389 32 21.6108V13.4107C31.9988 12.4348 31.6213 11.4993 30.9501 10.8091C30.2792 10.119 29.3694 9.73094 28.4205 9.72971ZM10.0656 11.762C9.05286 12.3636 7.89714 12.6631 6.72791 12.6269H6.71219C6.2769 12.6269 5.92375 12.2639 5.92375 11.8161C5.92375 11.3684 6.2769 11.0053 6.71219 11.0053H6.72791C7.4239 11.0214 8.11586 10.8928 8.76211 10.6269C8.23296 9.9833 7.81695 9.24971 7.53227 8.45941C7.37551 8.04146 7.57779 7.57187 7.98421 7.41064C8.39063 7.24944 8.84726 7.45769 9.00404 7.87564C9.23776 8.54554 9.59866 9.16114 10.0656 9.68642C10.7095 8.88333 11.1115 7.90456 11.222 6.87006H6.71219C6.27691 6.87006 5.92375 6.50712 5.92375 6.05925C5.92375 5.61161 6.27691 5.24844 6.71219 5.24844H9.1878L9.18804 3.82685C9.18804 3.37922 9.54096 3.01604 9.97648 3.01604C10.4118 3.01604 10.7649 3.37922 10.7649 3.82685V5.24844H13.2354C13.6706 5.24844 14.0238 5.61161 14.0238 6.05925C14.0238 6.50712 13.6706 6.87006 13.2354 6.87006H12.8095C12.6917 8.24358 12.1855 9.55126 11.3534 10.6323C11.8664 10.8565 12.4155 10.9813 12.9726 10.9999C12.5929 11.441 12.3256 11.9723 12.1945 12.5457C11.4403 12.4368 10.7159 12.1701 10.0656 11.762ZM30.4233 21.6109C30.4275 22.0294 30.3022 22.4382 30.0657 22.7786C30.0344 22.824 30.0079 22.873 29.9868 22.9244C29.3666 24.1353 27.0381 25.9785 25.2719 27.2434C25.6241 25.8489 25.8027 24.6759 25.8133 24.6001C25.8485 24.3674 25.7835 24.1305 25.6347 23.9514C25.4838 23.7726 25.2658 23.6684 25.0356 23.665H15.6686C15.1383 23.6655 14.6293 23.4492 14.2539 23.0641C13.8785 22.679 13.667 22.1563 13.6659 21.611V13.4108C13.6666 12.865 13.8777 12.3415 14.2532 11.9554C14.6286 11.5693 15.1376 11.3522 15.6686 11.3514H28.42C28.951 11.3522 29.46 11.5693 29.8354 11.9554C30.2108 12.3415 30.422 12.865 30.4227 13.4108L30.4233 21.6109Z" fill="white"/>
</svg>
