<svg width="22" height="15" viewBox="0 0 22 15" fill="none" xmlns="http://www.w3.org/2000/svg">
<path d="M21.2006 2.19188L15.6716 7.57968C15.6618 7.58843 15.6541 7.59907 15.6488 7.61092C15.6435 7.62276 15.6407 7.63557 15.6407 7.64851C15.6407 7.66145 15.6435 7.67425 15.6488 7.6861C15.6541 7.69794 15.6618 7.70858 15.6716 7.71733L19.5406 11.66C19.6028 11.7185 19.6522 11.7887 19.6859 11.8664C19.7197 11.9442 19.7371 12.0277 19.7371 12.1122C19.7371 12.1967 19.7197 12.2803 19.6859 12.358C19.6522 12.4357 19.6028 12.5059 19.5406 12.5644C19.4136 12.6843 19.2442 12.7513 19.0679 12.7513C18.8916 12.7513 18.7222 12.6843 18.5952 12.5644L14.7416 8.63632C14.7216 8.61738 14.6948 8.60679 14.667 8.60679C14.6392 8.60679 14.6125 8.61738 14.5924 8.63632L13.652 9.55068C12.8672 10.3125 11.8073 10.7396 10.7028 10.739C9.57353 10.7373 8.49089 10.2972 7.69168 9.51503L6.78729 8.635C6.76727 8.61606 6.74053 8.60547 6.71271 8.60547C6.68489 8.60547 6.65815 8.61606 6.63813 8.635L2.78489 12.5644C2.6579 12.6843 2.48846 12.7513 2.31215 12.7513C2.13585 12.7513 1.96641 12.6843 1.83942 12.5644C1.7773 12.5059 1.72787 12.4357 1.69411 12.358C1.66035 12.2803 1.64294 12.1967 1.64294 12.1122C1.64294 12.0277 1.66035 11.9442 1.69411 11.8664C1.72787 11.7887 1.7773 11.7185 1.83942 11.66L5.70849 7.71733C5.72588 7.69846 5.73551 7.67394 5.73551 7.64851C5.73551 7.62308 5.72588 7.59855 5.70849 7.57968L0.174754 2.19188C0.160849 2.17731 0.142781 2.16721 0.122918 2.16288C0.103055 2.15855 0.0823216 2.16021 0.0634343 2.16763C0.044547 2.17505 0.0283861 2.18789 0.0170681 2.20447C0.0057501 2.22105 -0.000197243 2.24059 4.99146e-06 2.26054V13.0411C0.00656875 13.463 0.183146 13.8653 0.491185 14.1601C0.799224 14.4548 1.2137 14.6181 1.64413 14.6143H19.7309C20.1613 14.6181 20.5758 14.4548 20.8838 14.1601C21.1919 13.8653 21.3684 13.463 21.375 13.0411V2.26054C21.3742 2.24108 21.3677 2.22228 21.3562 2.20638C21.3448 2.19047 21.3289 2.17815 21.3104 2.1709C21.292 2.16365 21.2718 2.16177 21.2524 2.16549C21.2329 2.16921 21.2149 2.17837 21.2006 2.19188Z" fill="#4B7BE5"/>
<path d="M10.686 9.8499C11.0618 9.85024 11.4337 9.77501 11.7787 9.62887C12.1236 9.48273 12.4344 9.26878 12.6917 9.00024L20.7389 0.727073C20.4545 0.493013 20.0951 0.36448 19.7238 0.363969H1.6532C1.28157 0.36358 0.921806 0.492217 0.637695 0.727073L8.68493 9.00024C8.94172 9.26818 9.25171 9.48178 9.59584 9.6279C9.93996 9.77402 10.3109 9.84957 10.686 9.8499Z" fill="#4B7BE5"/>
</svg>
