<svg width="21" height="18" viewBox="0 0 21 18" fill="none" xmlns="http://www.w3.org/2000/svg">
<path d="M10.7039 0.364086C5.02827 0.364086 0.434732 3.83141 0.434732 8.11569C0.434732 9.79406 1.14151 11.3621 2.35603 12.6209C1.87017 13.5928 1.11919 14.9179 0.21385 15.9559C-0.316213 16.5522 0.21385 17.5017 0.98688 17.3472C3.23952 16.9276 5.35958 16.0663 6.92756 15.3155C8.09803 15.6688 9.37892 15.8676 10.7041 15.8676C16.3797 15.8676 20.9733 12.4002 20.9733 8.11596C20.9731 3.8316 16.3797 0.363968 10.7041 0.363968L10.7039 0.364086ZM15.5846 10.9425H5.82331C5.46992 10.9425 5.20495 10.6553 5.20495 10.3241C5.20495 9.97073 5.49209 9.70576 5.82331 9.70576H15.5846C15.938 9.70576 16.2029 9.9929 16.2029 10.3241C16.2251 10.6553 15.938 10.9425 15.5846 10.9425ZM15.5846 6.5477H5.82331C5.46992 6.5477 5.20495 6.26056 5.20495 5.92934C5.20495 5.57595 5.49209 5.31098 5.82331 5.31098H15.5846C15.938 5.31098 16.2029 5.59812 16.2029 5.92934C16.2251 6.26069 15.938 6.5477 15.5846 6.5477Z" fill="#4B7BE5"/>
</svg>
