<svg width="33" height="30" viewBox="0 0 33 30" fill="none" xmlns="http://www.w3.org/2000/svg">
<path d="M12.3106 0H1.5073C0.653009 0 0 0.653246 0 1.5073V4.12011C0 4.37133 0.20102 4.62255 0.502439 4.62255H12.3101L12.3106 0Z" fill="white"/>
<path d="M15.8288 8.19V0H13.3164V8.19C14.2711 7.53676 14.3213 7.38616 14.5725 7.38616C14.824 7.38593 14.9243 7.53653 15.8288 8.18977V8.19Z" fill="white"/>
<path d="M25.4271 15.5239C26.3315 15.5239 27.1856 15.6747 27.9395 15.9259V5.67569H16.8347V9.19301C16.8347 9.39403 16.7343 9.54463 16.5333 9.64525C16.3825 9.74564 16.1817 9.69545 16.0309 9.59505L14.5738 8.48931L13.1167 9.54436C12.9659 9.64476 12.7651 9.69519 12.6143 9.59456C12.4634 9.49416 12.3631 9.34334 12.3631 9.14232V5.625L1.1582 5.62523V23.7641C1.1582 24.6183 1.81145 25.2714 2.66551 25.2714H17.8901C17.7393 24.6181 17.6389 23.9649 17.6389 23.2616C17.6392 19.0409 21.1562 15.5234 25.4274 15.5234L25.4271 15.5239ZM8.84572 22.7089H5.78066C5.47924 22.7089 5.27822 22.4577 5.27822 22.2065C5.27822 21.9051 5.47924 21.7041 5.78066 21.7041H8.84572C9.14713 21.7041 9.34816 21.9051 9.34816 22.2065C9.34839 22.4577 9.09717 22.7089 8.84572 22.7089ZM8.84572 20.1967H5.78066C5.47924 20.1967 5.27822 19.9455 5.27822 19.6943C5.27822 19.3929 5.47924 19.1919 5.78066 19.1919H8.84572C9.14713 19.1919 9.34816 19.3929 9.34816 19.6943C9.34839 19.9455 9.09717 20.1967 8.84572 20.1967Z" fill="white"/>
<path d="M25.4246 16.5312C21.7063 16.5312 18.6914 19.5461 18.6914 23.2645C18.6914 26.9828 21.7063 29.9977 25.4246 29.9977C29.1429 29.9977 32.1578 26.9828 32.1578 23.2645C32.1581 19.5965 29.1432 16.5312 25.4246 16.5312ZM28.8415 21.4053L24.0681 25.9274C23.8671 26.1284 23.5657 26.1284 23.3647 25.9274L21.9578 24.5205C21.7567 24.3195 21.7567 24.0181 21.9578 23.817C22.1588 23.616 22.4602 23.616 22.6612 23.817L23.6661 24.8721L28.0879 20.7015C28.2889 20.5005 28.5903 20.5005 28.7913 20.7015C29.0426 20.9028 29.0426 21.2042 28.8415 21.4052L28.8415 21.4053Z" fill="white"/>
<path d="M29.0923 4.17033V1.5073C29.0923 0.653009 28.4391 0 27.585 0H16.832V4.67298H28.6397C28.891 4.67275 29.092 4.42153 29.092 4.17031L29.0923 4.17033Z" fill="white"/>
</svg>
