<svg width="30" height="30" viewBox="0 0 30 30" fill="none" xmlns="http://www.w3.org/2000/svg">
<path d="M14.3568 16.2858L11.7854 18.2143V10.7143H18.214V18.2143L15.6426 16.2858C15.4572 16.1466 15.2314 16.0715 14.9997 16.0715C14.7679 16.0715 14.5422 16.1466 14.3568 16.2858ZM17.9461 8.5715L16.0711 0.235811C16.0659 0.157126 16.0659 0.0784467 16.0711 0H12.8568V0.117906L11.9141 8.57114L17.9461 8.5715ZM29.5929 8.5715L26.1963 1.77866C25.9292 1.24319 25.5176 0.793075 25.0084 0.478872C24.4993 0.164859 23.9126 -0.00111447 23.3142 7.94077e-05H18.2142L20.1212 8.57148L29.5929 8.5715ZM10.7143 9.78583e-05H6.68565C6.08728 -0.00109791 5.50065 0.164877 4.99145 0.47889C4.48228 0.793142 4.07069 1.24321 3.80357 1.77868L0.407021 8.57152H9.76029L10.7143 9.78583e-05ZM30 10.7143V26.7857C30 27.6383 29.6614 28.4557 29.0587 29.0587C28.4558 29.6614 27.6383 30 26.7857 30H3.21429C2.36167 30 1.54427 29.6614 0.941327 29.0587C0.338645 28.4558 0 27.6383 0 26.7857V10.7143H9.64286V20.3572C9.64357 20.555 9.69882 20.7489 9.80285 20.9173C9.90689 21.0854 10.0554 21.2217 10.2321 21.3107C10.4034 21.3906 10.5926 21.4236 10.7808 21.4068C10.969 21.3899 11.1493 21.3234 11.3036 21.2143L15 18.4822L18.6429 21.2143C18.8282 21.3535 19.054 21.4286 19.2857 21.4286C19.4538 21.4315 19.6201 21.3911 19.7679 21.3107C19.9446 21.2217 20.0931 21.0854 20.1971 20.9173C20.3012 20.7489 20.3564 20.555 20.3571 20.3572V10.7143H30ZM25.7143 24.6429C25.7143 24.3588 25.6014 24.0861 25.4005 23.8852C25.1996 23.6843 24.927 23.5714 24.6429 23.5714H20.3571C19.9743 23.5714 19.6206 23.7757 19.4292 24.1072C19.2379 24.4386 19.2379 24.8471 19.4292 25.1786C19.6206 25.5101 19.9743 25.7143 20.3571 25.7143H24.6429C24.927 25.7143 25.1996 25.6014 25.4005 25.4005C25.6014 25.1996 25.7143 24.927 25.7143 24.6429Z" fill="white"/>
</svg>
