<svg width="31" height="31" viewBox="0 0 31 31" fill="none" xmlns="http://www.w3.org/2000/svg">
<path d="M3.01121 16.0313C2.39991 17.6251 2.39991 20.7189 3.01121 22.3127C3.24632 22.8752 3.8106 23.2502 4.4219 23.2502H9.82955V15.0938H4.4219C3.8106 15.0938 3.24632 15.5156 3.01121 16.0313Z" fill="white"/>
<path d="M10.7695 23.4379C12.2272 23.8597 16.0361 25.0785 18.6224 26.9536V11.4844C16.0361 13.3594 12.2272 14.5782 10.7695 15.0001V23.4379Z" fill="white"/>
<path d="M8.55813 27.1485V24.1953H4.98438V29.5392C4.98438 29.8205 5.21949 30.008 5.45461 30.008H8.32301C9.02836 30.008 9.54561 29.258 9.21645 28.6017L8.55813 27.1485Z" fill="white"/>
<path d="M23.0912 15.9299V10.7735C23.0912 9.92971 22.4329 9.27344 21.5864 9.27344H21.0692C20.2228 9.27344 19.5645 9.92971 19.5645 10.7735V27.6021C19.5645 28.4459 20.2698 29.1021 21.0692 29.1021H21.5864C22.4329 29.1021 23.0912 28.399 23.0912 27.6021V22.4926C24.69 22.2582 25.9596 20.8988 25.9596 19.2112C25.9596 17.5237 24.737 16.1174 23.0912 15.9299Z" fill="white"/>
<path d="M29.5321 18.75H27.8862C27.6041 18.75 27.416 18.9375 27.416 19.2188C27.416 19.5 27.6041 19.6875 27.8862 19.6875H29.5321C29.8142 19.6875 30.0023 19.5 30.0023 19.2188C30.0023 18.9375 29.7672 18.75 29.5321 18.75Z" fill="white"/>
<path d="M27.5526 21.0947C27.4115 20.8604 27.1294 20.8135 26.8942 20.9541C26.6591 21.0947 26.6121 21.376 26.7532 21.6104L27.7877 23.1104C27.9288 23.3448 28.2109 23.3917 28.446 23.251C28.6811 23.1104 28.7281 22.8292 28.5871 22.5948L27.5526 21.0947Z" fill="white"/>
<path d="M27.5526 17.3448L28.5871 15.8447C28.7281 15.6104 28.6811 15.3291 28.446 15.1885C28.2109 15.0478 27.9288 15.0947 27.7877 15.3291L26.7532 16.8292C26.6121 17.0635 26.6591 17.3448 26.8942 17.4854C27.1294 17.5792 27.4115 17.5323 27.5526 17.3448Z" fill="white"/>
<path d="M11.3796 12.4222C11.6147 12.6566 12.0849 12.5629 12.179 12.1879L12.5552 10.5941H14.4831C15.2355 10.5941 15.8938 9.98467 15.8938 9.18777V1.40629C15.8938 0.656269 15.2825 0 14.4831 0H1.41069C0.658323 0 0 0.609393 0 1.40629V9.23465C0 9.98467 0.6113 10.6409 1.41069 10.6409H9.54568L11.3796 12.4222ZM3.47971 2.95321H12.3671C12.6022 2.95321 12.8373 3.18759 12.8373 3.42198C12.8373 3.65636 12.6022 3.89074 12.3671 3.89074H3.47971C3.19757 3.89074 3.00948 3.65636 3.00948 3.42198C3.00948 3.14072 3.24459 2.95321 3.47971 2.95321ZM3.00948 7.12521C3.00948 6.89083 3.19757 6.65645 3.47971 6.65645H12.3671C12.6022 6.65645 12.8373 6.84395 12.8373 7.12521C12.8373 7.40647 12.6022 7.59398 12.3671 7.59398H3.47971C3.24459 7.59398 3.00948 7.40647 3.00948 7.12521Z" fill="white"/>
</svg>
