<svg width="35" height="30" viewBox="0 0 35 30" fill="none" xmlns="http://www.w3.org/2000/svg">
<path d="M33.4047 0H1.59535C1.17223 0 0.766451 0.17675 0.467266 0.491367C0.168081 0.805984 0 1.2327 0 1.67763V13.3263C0.000994029 13.7706 0.169513 14.1963 0.468591 14.51C0.767668 14.8238 1.17288 15 1.59535 15H33.4047C33.8278 15 34.2335 14.8233 34.5327 14.5086C34.8319 14.194 35 13.7673 35 13.3224V1.67368C34.999 1.22943 34.8305 0.803734 34.5314 0.48997C34.2323 0.176207 33.8271 -1.22976e-06 33.4047 0ZM13.8851 7.10526L12.2673 8.75921L12.6426 11.0961C12.6609 11.2238 12.6457 11.3544 12.5987 11.4737C12.5517 11.593 12.4746 11.6967 12.3758 11.7734C12.277 11.8501 12.1601 11.897 12.0378 11.9092C11.9155 11.9213 11.7924 11.8981 11.6817 11.8421L9.68468 10.7368L7.68769 11.8421C7.57604 11.9037 7.45022 11.9312 7.32448 11.9215C7.19873 11.9119 7.07807 11.8654 6.97613 11.7873C6.8742 11.7093 6.79506 11.6028 6.74767 11.48C6.70028 11.3571 6.68652 11.2228 6.70796 11.0921L7.08333 8.75526L5.48799 7.08553C5.39772 6.99292 5.33389 6.87559 5.30374 6.74681C5.27359 6.61804 5.27831 6.48297 5.31737 6.35687C5.35643 6.23077 5.42826 6.11869 5.52476 6.03329C5.62125 5.9479 5.73854 5.89262 5.86336 5.87368L8.07808 5.52631L9.07658 3.39868C9.1323 3.27961 9.21863 3.17933 9.32578 3.10921C9.43292 3.03908 9.5566 3.00191 9.68281 3.00191C9.80901 3.00191 9.93269 3.03908 10.0398 3.10921C10.147 3.17933 10.2333 3.27961 10.289 3.39868L11.2875 5.52631L13.521 5.86974C13.6458 5.88867 13.7631 5.94396 13.8596 6.02935C13.9561 6.11474 14.028 6.22682 14.067 6.35292C14.1061 6.47902 14.1108 6.6141 14.0806 6.74287C14.0505 6.87164 13.9867 6.98897 13.8964 7.08158L13.8851 7.10526ZM28.0143 9.47368H18.6299C18.1769 9.47368 17.7425 9.28446 17.4222 8.94763C17.1019 8.61081 16.9219 8.15397 16.9219 7.67763C16.9219 7.20129 17.1019 6.74445 17.4222 6.40763C17.7425 6.0708 18.1769 5.88158 18.6299 5.88158H28.0105C28.4635 5.88158 28.8979 6.0708 29.2182 6.40763C29.5385 6.74445 29.7185 7.20129 29.7185 7.67763C29.7185 8.15397 29.5385 8.61081 29.2182 8.94763C28.8979 9.28446 28.4635 9.47368 28.0105 9.47368H28.0143Z" fill="white"/>
<path d="M30 25.8168C30 26.2853 29.8067 26.7347 29.4625 27.066C29.1184 27.3974 28.6516 27.5835 28.1649 27.5835H18.1118C17.8635 27.5952 17.6154 27.5583 17.3824 27.4749C17.1494 27.3915 16.9365 27.2634 16.7565 27.0984C16.5764 26.9334 16.4331 26.7349 16.3352 26.5149C16.2373 26.295 16.1868 26.0582 16.1868 25.8189C16.1868 25.5796 16.2373 25.3428 16.3352 25.1228C16.4331 24.9029 16.5764 24.7044 16.7565 24.5394C16.9365 24.3744 17.1494 24.2463 17.3824 24.1629C17.6154 24.0795 17.8635 24.0426 18.1118 24.0543H28.1649C28.6509 24.0543 29.1169 24.2398 29.461 24.5702C29.805 24.9007 29.9988 25.3489 30 25.8168ZM13.1845 24.5427C13.2272 24.6669 13.2325 24.8003 13.1997 24.9274C13.1669 25.0544 13.0974 25.1699 12.9992 25.2604L11.27 26.887L11.6802 29.1846C11.6975 29.2847 11.692 29.3872 11.664 29.485C11.6361 29.5828 11.5865 29.6736 11.5185 29.7512C11.4506 29.8287 11.3659 29.8911 11.2705 29.9341C11.175 29.977 11.071 29.9995 10.9656 30C10.8473 30.0001 10.7307 29.9724 10.626 29.9193L8.49095 28.8321L6.3471 29.9151C6.22744 29.9768 6.09215 30.0049 5.95669 29.9961C5.82123 29.9874 5.69107 29.9421 5.58109 29.8654C5.47111 29.7888 5.38575 29.6839 5.33478 29.5627C5.2838 29.4416 5.26926 29.3091 5.29282 29.1803L5.70306 26.8827L3.96946 25.2562C3.87244 25.1655 3.80377 25.0504 3.77124 24.924C3.73871 24.7977 3.74363 24.665 3.78542 24.5412C3.82722 24.4174 3.90423 24.3073 4.00772 24.2235C4.1112 24.1397 4.23701 24.0855 4.37088 24.067L6.76616 23.7315L7.83809 21.642C7.89742 21.5245 7.9899 21.4254 8.10496 21.3561C8.22002 21.2868 8.35301 21.25 8.48874 21.25C8.62447 21.25 8.75747 21.2868 8.87252 21.3561C8.98758 21.4254 9.08006 21.5245 9.13939 21.642L10.2113 23.7315L12.6066 24.067C12.7395 24.0864 12.864 24.1412 12.9662 24.2253C13.0683 24.3094 13.1439 24.4193 13.1845 24.5427Z" fill="white"/>
</svg>
