<svg width="38" height="36" viewBox="0 0 38 36" fill="none" xmlns="http://www.w3.org/2000/svg">
<path d="M22.3562 29.2225L23.3042 30.1952V21.5234H20.3652V30.1952L21.3132 29.2225C21.4509 29.0808 21.6389 29.001 21.8347 29.001C22.0305 29.001 22.2185 29.0808 22.3562 29.2225H22.3562Z" fill="white"/>
<path d="M32.8547 11.0547H25.0746C24.6688 11.0547 24.3398 11.3897 24.3398 11.8029C24.3398 12.2161 24.6688 12.5511 25.0746 12.5511H32.8547C34.8751 12.5511 36.5283 14.564 36.5283 17.0405C36.5611 17.8939 36.3571 18.7397 35.9402 19.4806C35.5229 20.2215 34.9096 20.8281 34.1699 21.2306C34.3674 20.9536 34.3549 20.5755 34.1401 20.3123C33.9249 20.0491 33.5622 19.9683 33.2588 20.1156L30.3198 21.612C30.0745 21.7403 29.92 21.9972 29.92 22.2781C29.92 22.559 30.0745 22.8159 30.3198 22.9442L33.2588 24.4406C33.3601 24.4964 33.4739 24.5248 33.5894 24.5228C33.9279 24.5208 34.2214 24.2833 34.2998 23.9479C34.3782 23.6126 34.2215 23.2658 33.92 23.1085L33.5894 22.9515C36.0655 22.525 37.9977 20.0408 37.9977 17.0405C37.9977 13.741 35.6905 11.0547 32.8547 11.0547Z" fill="white"/>
<path d="M24.7754 21.5234V25.2646H29.5511L27.7143 21.5234H24.7754Z" fill="white"/>
<path d="M14.1211 25.2646H18.8968V21.5234H15.9579L14.1211 25.2646Z" fill="white"/>
<path d="M19.3526 32.6995C19.0781 32.5845 18.8987 32.313 18.897 32.011V26.7734H13.7539V35.0039H29.918V26.7734H24.7749V32.011C24.7732 32.313 24.5938 32.5845 24.3193 32.6995C24.232 32.7412 24.1366 32.7619 24.0401 32.7592C23.845 32.7602 23.657 32.6824 23.5186 32.5421L21.8359 30.8212L20.1533 32.5421C19.9421 32.7546 19.6262 32.8167 19.3526 32.6995L19.3526 32.6995Z" fill="white"/>
<path d="M13.2491 6.27344C12.1529 6.66371 11.0004 6.86453 9.83957 6.86764C8.67838 6.86522 7.52558 6.6644 6.43002 6.27344C6.25752 7.25482 6.15604 8.24757 6.12695 9.24412H13.5522C13.519 8.24792 13.4176 7.25517 13.2491 6.27344Z" fill="white"/>
<path d="M9.85102 0.515625C8.72195 0.515625 7.51746 2.10493 6.82031 4.71327C8.78014 5.42562 10.9219 5.42562 12.8817 4.71327C12.1694 2.10537 10.9648 0.515625 9.85102 0.515625Z" fill="white"/>
<path d="M7.57696 20.0584C6.54123 18.9052 5.79741 17.5121 5.41017 16C4.61259 16.4633 3.89144 17.052 3.27344 17.7436C4.49282 18.8732 5.97337 19.6695 7.57696 20.0584Z" fill="white"/>
<path d="M5.00809 14.4312C4.7747 13.2359 4.64007 12.0227 4.60659 10.8047H0C0.148834 12.9083 0.923067 14.9162 2.21995 16.5606C3.02498 15.696 3.96772 14.9761 5.00812 14.4312H5.00809Z" fill="white"/>
<path d="M19.6976 9.27154C19.5487 7.16796 18.7745 5.16005 17.4776 3.51562C16.6726 4.38642 15.7302 5.11428 14.6895 5.66815C14.9144 6.85658 15.0412 8.06186 15.0683 9.27154H19.6976Z" fill="white"/>
<path d="M5.00812 5.63726C3.96598 5.08543 3.02326 4.3572 2.21995 3.48438C0.919084 5.13541 0.144435 7.15187 0 9.26375H4.60659C4.64008 8.04578 4.7747 6.83257 5.00809 5.63726H5.00812Z" fill="white"/>
<path d="M14.2879 4.05841C15.0801 3.59373 15.7961 3.00507 16.4094 2.31478C15.1934 1.18905 13.7186 0.393028 12.1211 0C13.1568 1.15325 13.9006 2.54626 14.2879 4.05841Z" fill="white"/>
<path d="M5.39493 4.05841C5.78662 2.54485 6.53586 1.15148 7.57696 0C5.97328 0.388901 4.49282 1.18526 3.27344 2.31478C3.88668 3.00508 4.60279 3.59378 5.39493 4.05841Z" fill="white"/>
<path d="M6.43002 13.7988C8.63638 13.0065 11.0424 13.0065 13.2491 13.7988C13.4176 12.8171 13.519 11.8243 13.5522 10.8281H6.12695C6.15604 11.8247 6.25752 12.8174 6.43002 13.7988Z" fill="white"/>
<path d="M14.2879 16C13.9006 17.5121 13.1568 18.9052 12.1211 20.0584C13.7186 19.6654 15.1934 18.8694 16.4094 17.7436C15.7961 17.0533 15.08 16.4646 14.2879 16Z" fill="white"/>
<path d="M9.85137 19.554C10.9726 19.554 12.1775 17.9647 12.8821 15.3563C10.9061 14.6312 8.7436 14.6312 6.76758 15.3563C7.51003 17.9642 8.71485 19.554 9.85137 19.554Z" fill="white"/>
<path d="M19.7011 10.8047H15.0718C15.0393 12.0148 14.9074 13.2201 14.6777 14.4081C15.7186 14.962 16.6612 15.6898 17.4659 16.5606C18.7682 14.9179 19.5478 12.91 19.701 10.8047H19.7011Z" fill="white"/>
</svg>
