<svg width="35" height="30" viewBox="0 0 35 30" fill="none" xmlns="http://www.w3.org/2000/svg">
<path d="M32.6315 17.4219H0.729311C0.326453 17.4219 0 17.7702 0 18.2V24.3883C0 24.8181 0.326453 25.1665 0.729311 25.1665H3.08395C3.08395 22.2465 5.30661 19.8749 8.05021 19.8749C10.7799 19.8749 13.0165 22.2465 13.0165 25.1665H21.9905C21.9905 22.2465 24.2131 19.8749 26.9567 19.8749C29.6864 19.8749 31.923 22.2465 31.923 25.1665H34.2707C34.6805 25.1665 35 24.8181 35 24.3883V19.9342C34.9792 18.5484 33.9303 17.4219 32.6315 17.4219Z" fill="white"/>
<path d="M28.8343 1.9375H19.1314C18.7136 1.9375 18.375 2.30401 18.375 2.7563V15.4905H33.25V7.9576C33.25 7.77824 33.1996 7.60668 33.0987 7.45852L29.4322 2.27282C29.2881 2.06227 29.072 1.9375 28.8343 1.9375ZM29.886 8.37089V10.2112C29.886 10.6635 29.5475 11.03 29.1297 11.03H22.4953C22.0775 11.03 21.739 10.6635 21.739 10.2112V5.58699C21.739 5.1269 22.0775 4.76819 22.4953 4.76819H27.1631C27.4081 4.76819 27.6242 4.88516 27.7682 5.08791L29.7275 7.87182C29.8356 8.01218 29.886 8.19154 29.886 8.37089Z" fill="white"/>
<path d="M10.5 0H7.875V3.87229H10.5V0Z" fill="white"/>
<path d="M1.62873 0C1.21346 0 0.876953 0.36436 0.876953 0.813995V15.4892H17.502V0.813995C17.502 0.36436 17.1654 0 16.7502 0H12.0104V4.18626C12.0104 4.6359 11.6739 5.00026 11.2586 5.00026H7.12028C6.69785 5.00026 6.3685 4.6359 6.3685 4.18626V0H1.62873Z" fill="white"/>
<path d="M27.7163 29.1057C29.6101 28.6109 30.7828 26.5114 30.3356 24.4162C29.8884 22.321 27.9907 21.0235 26.0969 21.5183C24.2032 22.013 23.0305 24.1126 23.4776 26.2078C23.9248 28.303 25.8225 29.6004 27.7163 29.1057Z" fill="white"/>
<path d="M8.72996 29.1057C10.6237 28.6109 11.7964 26.5114 11.3493 24.4162C10.9021 22.321 9.00438 21.0235 7.11061 21.5183C5.21684 22.013 4.04415 24.1126 4.49132 26.2078C4.93849 28.303 6.8362 29.6004 8.72996 29.1057Z" fill="white"/>
</svg>
