<svg width="30" height="30" viewBox="0 0 30 30" fill="none" xmlns="http://www.w3.org/2000/svg">
<path d="M4.14281 24.2109H1.64238C1.20737 24.2109 0.790157 24.3839 0.48237 24.6918C0.174787 24.9995 0.00195312 25.4169 0.00195312 25.8521V29.5285C0.00195312 29.6528 0.051334 29.7721 0.139214 29.86C0.227095 29.948 0.346362 29.9974 0.47065 29.9974H5.31457C5.43886 29.9974 5.55812 29.948 5.646 29.86C5.73388 29.7721 5.78327 29.6528 5.78327 29.5285V25.8521C5.78327 25.4169 5.61043 24.9995 5.30285 24.6918C4.99527 24.3839 4.57805 24.2109 4.14284 24.2109H4.14281Z" fill="white"/>
<path d="M12.2131 14.5234H9.71269C9.27769 14.5234 8.86026 14.6964 8.55268 15.0041C8.2451 15.312 8.07227 15.7294 8.07227 16.1646V29.5288C8.07227 29.6531 8.12165 29.7725 8.20953 29.8604C8.29741 29.9483 8.41667 29.9977 8.54096 29.9977H13.3849C13.5092 29.9977 13.6284 29.9483 13.7163 29.8604C13.8042 29.7725 13.8536 29.6531 13.8536 29.5288V16.1646C13.8536 15.7294 13.6807 15.312 13.3732 15.0041C13.0656 14.6964 12.6482 14.5234 12.2131 14.5234H12.2131Z" fill="white"/>
<path d="M20.2854 19.3672H17.785C17.3499 19.3672 16.9325 19.5401 16.6249 19.8478C16.3174 20.1558 16.1445 20.5732 16.1445 21.0084V29.5307C16.1445 29.6551 16.1939 29.7744 16.2818 29.8623C16.3697 29.9502 16.4889 29.9996 16.6132 29.9996H21.4571C21.5814 29.9996 21.7007 29.9502 21.7886 29.8623C21.8765 29.7744 21.9258 29.6551 21.9258 29.5307V21.0084C21.9258 20.5732 21.753 20.1557 21.4454 19.8478C21.1378 19.5401 20.7204 19.3672 20.2854 19.3672H20.2854Z" fill="white"/>
<path d="M28.3577 9.67188H25.8572C25.422 9.67188 25.0048 9.84479 24.6972 10.1527C24.3896 10.4604 24.2168 10.8778 24.2168 11.313V29.5255C24.2168 29.6498 24.2662 29.7692 24.3541 29.8571C24.4419 29.945 24.5612 29.9944 24.6855 29.9944H29.5294C29.6537 29.9944 29.773 29.945 29.8608 29.8571C29.9487 29.7692 29.9981 29.6498 29.9981 29.5255V11.313C29.9981 10.8778 29.8253 10.4604 29.5177 10.1527C29.2099 9.84479 28.7927 9.67188 28.3577 9.67188H28.3577Z" fill="white"/>
<path d="M25.6441 5.38177C26.4856 5.87748 27.5203 5.91453 28.3951 5.48037C29.2697 5.046 29.8661 4.19904 29.9801 3.22875C30.0944 2.25851 29.711 1.2962 28.9609 0.670697C28.211 0.0449844 27.196 -0.159299 26.2624 0.127244C25.3289 0.414035 24.6033 1.153 24.3336 2.09184C24.0637 3.03073 24.2861 4.04261 24.9247 4.78156L20.5001 10.0848C19.9146 9.73756 19.2247 9.60945 18.5537 9.72333C17.8825 9.83699 17.2736 10.1853 16.835 10.7062L13.6479 8.79306C13.9004 8.15524 13.918 7.44828 13.6973 6.79872C13.4763 6.14916 13.0317 5.59944 12.4429 5.24795C11.8539 4.89668 11.159 4.76627 10.4829 4.88056C9.80665 4.99486 9.19316 5.34612 8.75226 5.87176C8.31139 6.39719 8.07182 7.06246 8.07664 7.74847C8.08125 8.43468 8.33004 9.09657 8.77803 9.61596L4.35594 14.9195C3.51437 14.4235 2.4797 14.3865 1.60488 14.8209C0.73026 15.2552 0.133916 16.102 0.0198758 17.0723C-0.0943685 18.0425 0.288956 19.0048 1.03906 19.6305C1.78898 20.2563 2.80399 20.4605 3.73763 20.1738C4.67106 19.8872 5.39671 19.148 5.66642 18.2092C5.93634 17.2703 5.71391 16.2586 5.07532 15.5196L9.49993 10.2186C10.085 10.5663 10.7742 10.6953 11.4454 10.5823C12.1164 10.4694 12.7257 10.1219 13.165 9.60194L16.3498 11.515C16.0966 12.1529 16.0786 12.8602 16.2994 13.51C16.5199 14.16 16.9646 14.7099 17.5538 15.0616C18.1428 15.4133 18.8379 15.5437 19.5144 15.4294C20.1906 15.3149 20.8043 14.9634 21.2452 14.4376C21.6861 13.9117 21.9254 13.2461 21.9202 12.5596C21.9152 11.8734 21.666 11.2113 21.2174 10.6921L25.6441 5.38177Z" fill="white"/>
</svg>
