<svg width="30" height="30" viewBox="0 0 30 30" fill="none" xmlns="http://www.w3.org/2000/svg">
<mask id="path-1-inside-1_12021_43892" fill="white">
<path d="M29.7154 16.1998C29.9025 15.8272 30 15.416 30 14.999C30 14.5821 29.9025 14.1709 29.7154 13.7983L29.3222 13.0199C29.2366 12.8514 29.2062 12.6603 29.2354 12.4736L29.368 11.6115C29.4308 11.1994 29.3963 10.7784 29.2675 10.382C29.1386 9.98562 28.9189 9.62482 28.6259 9.3284L28.0117 8.70948C27.8785 8.57562 27.7907 8.40331 27.7607 8.21686L27.6217 7.35636C27.5549 6.9497 27.3951 6.56397 27.1546 6.22929C26.9141 5.8946 26.5996 5.62001 26.2355 5.42695L25.4792 4.9817L25.435 4.95643C25.2665 4.87031 25.1295 4.7333 25.0434 4.56487L24.6439 3.78963C24.4412 3.41661 24.1553 3.09527 23.8084 2.85049C23.4615 2.60572 23.0629 2.44408 22.6435 2.37809L21.7893 2.23915C21.6028 2.20913 21.4305 2.12132 21.2967 1.9881L20.6714 1.37391C20.3748 1.08065 20.0138 0.860807 19.6171 0.731958C19.2204 0.603108 18.7991 0.568819 18.3868 0.631831L17.5263 0.764458C17.3396 0.79358 17.1484 0.763198 16.98 0.677619L16.2 0.284473C15.8276 0.0974167 15.4167 0 15 0C14.5833 0 14.1724 0.0974167 13.8001 0.284473L13.0217 0.677619C12.8527 0.763426 12.661 0.793812 12.4738 0.764458L11.6133 0.631831C11.201 0.568694 10.7796 0.602922 10.3829 0.731779C9.98618 0.860635 9.62513 1.08054 9.32861 1.37391L8.70969 1.9881C8.57589 2.1214 8.40355 2.20923 8.21707 2.23915L7.35657 2.37809C6.93716 2.44408 6.53857 2.60572 6.19167 2.85049C5.84477 3.09527 5.55887 3.41661 5.3561 3.78963L4.95664 4.56487C4.87052 4.7333 4.73351 4.87031 4.56508 4.95643L3.78984 5.3559C3.41682 5.55866 3.09548 5.84456 2.8507 6.19146C2.60593 6.53836 2.44429 6.93695 2.3783 7.35636L2.23936 8.21054C2.20944 8.39702 2.12161 8.56937 1.98831 8.70316L1.37412 9.3284C1.08075 9.62492 0.860844 9.98597 0.731987 10.3827C0.603131 10.7794 0.568902 11.2008 0.632039 11.6131L0.764667 12.4736C0.793789 12.6603 0.763407 12.8514 0.677827 13.0199L0.284682 13.7998C0.0974885 14.1724 0 14.5836 0 15.0006C0 15.4176 0.0974885 15.8288 0.284682 16.2013L0.677827 16.9797C0.763304 17.1482 0.79368 17.3393 0.764667 17.526L0.632039 18.3865C0.569284 18.7986 0.6037 19.2196 0.732543 19.616C0.861385 20.0124 1.08109 20.3732 1.37412 20.6696L1.98831 21.2886C2.12161 21.4224 2.20944 21.5947 2.23936 21.7812L2.3783 22.6417C2.44406 23.0614 2.60559 23.4603 2.85038 23.8075C3.09517 24.1547 3.41663 24.4408 3.78984 24.6437L4.56508 25.0432C4.73351 25.1293 4.87052 25.2663 4.95664 25.4347L5.3561 26.21C5.55887 26.583 5.84477 26.9044 6.19167 27.1491C6.53857 27.3939 6.93716 27.5555 7.35657 27.6215L8.21707 27.7605C8.40351 27.7905 8.57583 27.8783 8.70969 28.0115L9.32861 28.6257C9.62503 28.9187 9.98583 29.1384 10.3822 29.2673C10.7786 29.3961 11.1996 29.4305 11.6117 29.3678L12.4738 29.2352C12.6605 29.206 12.8516 29.2364 13.0201 29.322L13.7985 29.7151C14.1711 29.9023 14.5823 29.9998 14.9992 29.9998C15.4162 29.9998 15.8274 29.9023 16.2 29.7151L16.9784 29.322C17.1469 29.2365 17.338 29.2061 17.5247 29.2352L18.3868 29.3678C18.7988 29.4305 19.2198 29.3961 19.6162 29.2673C20.0126 29.1384 20.3734 28.9187 20.6698 28.6257L21.2888 28.0115C21.4225 27.8781 21.5949 27.7903 21.7814 27.7605L22.6419 27.6215C23.0486 27.5548 23.4344 27.395 23.7691 27.1545C24.1038 26.914 24.3783 26.5994 24.5713 26.2353L25.0166 25.479L25.0418 25.4347C25.1279 25.2663 25.2649 25.1292 25.4334 25.0432L26.2086 24.6437C26.579 24.4525 26.8996 24.1773 27.1447 23.8401C27.3898 23.5029 27.5526 23.113 27.6202 22.7017L27.7591 21.8412C27.7891 21.6547 27.8769 21.4824 28.0101 21.3486L28.6417 20.6554C28.9296 20.3592 29.145 20.0004 29.271 19.607C29.397 19.2137 29.4302 18.7965 29.368 18.3881L29.2354 17.526C29.2062 17.3393 29.2366 17.1482 29.3222 16.9797L29.7154 16.1998Z"/>
</mask>
<path d="M29.7154 16.1998C29.9025 15.8272 30 15.416 30 14.999C30 14.5821 29.9025 14.1709 29.7154 13.7983L29.3222 13.0199C29.2366 12.8514 29.2062 12.6603 29.2354 12.4736L29.368 11.6115C29.4308 11.1994 29.3963 10.7784 29.2675 10.382C29.1386 9.98562 28.9189 9.62482 28.6259 9.3284L28.0117 8.70948C27.8785 8.57562 27.7907 8.40331 27.7607 8.21686L27.6217 7.35636C27.5549 6.9497 27.3951 6.56397 27.1546 6.22929C26.9141 5.8946 26.5996 5.62001 26.2355 5.42695L25.4792 4.9817L25.435 4.95643C25.2665 4.87031 25.1295 4.7333 25.0434 4.56487L24.6439 3.78963C24.4412 3.41661 24.1553 3.09527 23.8084 2.85049C23.4615 2.60572 23.0629 2.44408 22.6435 2.37809L21.7893 2.23915C21.6028 2.20913 21.4305 2.12132 21.2967 1.9881L20.6714 1.37391C20.3748 1.08065 20.0138 0.860807 19.6171 0.731958C19.2204 0.603108 18.7991 0.568819 18.3868 0.631831L17.5263 0.764458C17.3396 0.79358 17.1484 0.763198 16.98 0.677619L16.2 0.284473C15.8276 0.0974167 15.4167 0 15 0C14.5833 0 14.1724 0.0974167 13.8001 0.284473L13.0217 0.677619C12.8527 0.763426 12.661 0.793812 12.4738 0.764458L11.6133 0.631831C11.201 0.568694 10.7796 0.602922 10.3829 0.731779C9.98618 0.860635 9.62513 1.08054 9.32861 1.37391L8.70969 1.9881C8.57589 2.1214 8.40355 2.20923 8.21707 2.23915L7.35657 2.37809C6.93716 2.44408 6.53857 2.60572 6.19167 2.85049C5.84477 3.09527 5.55887 3.41661 5.3561 3.78963L4.95664 4.56487C4.87052 4.7333 4.73351 4.87031 4.56508 4.95643L3.78984 5.3559C3.41682 5.55866 3.09548 5.84456 2.8507 6.19146C2.60593 6.53836 2.44429 6.93695 2.3783 7.35636L2.23936 8.21054C2.20944 8.39702 2.12161 8.56937 1.98831 8.70316L1.37412 9.3284C1.08075 9.62492 0.860844 9.98597 0.731987 10.3827C0.603131 10.7794 0.568902 11.2008 0.632039 11.6131L0.764667 12.4736C0.793789 12.6603 0.763407 12.8514 0.677827 13.0199L0.284682 13.7998C0.0974885 14.1724 0 14.5836 0 15.0006C0 15.4176 0.0974885 15.8288 0.284682 16.2013L0.677827 16.9797C0.763304 17.1482 0.79368 17.3393 0.764667 17.526L0.632039 18.3865C0.569284 18.7986 0.6037 19.2196 0.732543 19.616C0.861385 20.0124 1.08109 20.3732 1.37412 20.6696L1.98831 21.2886C2.12161 21.4224 2.20944 21.5947 2.23936 21.7812L2.3783 22.6417C2.44406 23.0614 2.60559 23.4603 2.85038 23.8075C3.09517 24.1547 3.41663 24.4408 3.78984 24.6437L4.56508 25.0432C4.73351 25.1293 4.87052 25.2663 4.95664 25.4347L5.3561 26.21C5.55887 26.583 5.84477 26.9044 6.19167 27.1491C6.53857 27.3939 6.93716 27.5555 7.35657 27.6215L8.21707 27.7605C8.40351 27.7905 8.57583 27.8783 8.70969 28.0115L9.32861 28.6257C9.62503 28.9187 9.98583 29.1384 10.3822 29.2673C10.7786 29.3961 11.1996 29.4305 11.6117 29.3678L12.4738 29.2352C12.6605 29.206 12.8516 29.2364 13.0201 29.322L13.7985 29.7151C14.1711 29.9023 14.5823 29.9998 14.9992 29.9998C15.4162 29.9998 15.8274 29.9023 16.2 29.7151L16.9784 29.322C17.1469 29.2365 17.338 29.2061 17.5247 29.2352L18.3868 29.3678C18.7988 29.4305 19.2198 29.3961 19.6162 29.2673C20.0126 29.1384 20.3734 28.9187 20.6698 28.6257L21.2888 28.0115C21.4225 27.8781 21.5949 27.7903 21.7814 27.7605L22.6419 27.6215C23.0486 27.5548 23.4344 27.395 23.7691 27.1545C24.1038 26.914 24.3783 26.5994 24.5713 26.2353L25.0166 25.479L25.0418 25.4347C25.1279 25.2663 25.2649 25.1292 25.4334 25.0432L26.2086 24.6437C26.579 24.4525 26.8996 24.1773 27.1447 23.8401C27.3898 23.5029 27.5526 23.113 27.6202 22.7017L27.7591 21.8412C27.7891 21.6547 27.8769 21.4824 28.0101 21.3486L28.6417 20.6554C28.9296 20.3592 29.145 20.0004 29.271 19.607C29.397 19.2137 29.4302 18.7965 29.368 18.3881L29.2354 17.526C29.2062 17.3393 29.2366 17.1482 29.3222 16.9797L29.7154 16.1998Z" stroke="white" stroke-width="3" mask="url(#path-1-inside-1_12021_43892)"/>
<path fill-rule="evenodd" clip-rule="evenodd" d="M9.4435 6.6875C11.088 5.58594 13.0216 5 15.0001 5C17.6486 5.00781 20.1857 6.07031 22.0587 7.94531C23.9318 9.8125 24.9884 12.3516 25.0001 15C25.0001 16.9766 24.4142 18.9141 23.3146 20.5547C22.2169 22.2031 20.6544 23.4844 18.8263 24.2422C17.0001 24.9922 14.9884 25.1953 13.049 24.8047C11.8634 24.5703 10.7384 24.125 9.72085 23.4922C9.07436 23.0938 8.4728 22.6172 7.92983 22.0703C6.5314 20.6719 5.57827 18.8906 5.19155 16.9531C4.80679 15.0078 5.00405 13 5.76186 11.1719C6.51772 9.34375 7.80093 7.78125 9.4435 6.6875ZM19.4357 20.5703L21.2208 13.4297C21.2736 13.2266 21.2521 13.0078 21.1583 12.8203C21.1134 12.7266 21.0548 12.6484 20.9845 12.5781C20.9083 12.5078 20.8205 12.4453 20.7208 12.3984C20.5294 12.3125 20.3146 12.2969 20.1134 12.3516C19.9103 12.4141 19.7365 12.5391 19.6193 12.7109C19.422 13.0078 18.5158 14.1016 17.6818 14.1016C17.5353 14.1016 17.0763 13.7578 16.6056 12.6953C16.1798 11.7344 15.9396 10.6953 15.8966 9.64062C15.8966 9.52344 15.8732 9.40625 15.8283 9.30469L15.7169 9.10938L15.6349 9.00781L15.463 8.875L15.3458 8.82031C15.2384 8.77344 15.1212 8.75 15.0041 8.75C14.8869 8.75 14.7716 8.77344 14.6623 8.82031C14.5548 8.85938 14.4552 8.92969 14.3732 9.00781C14.2892 9.09375 14.2248 9.19531 14.1798 9.30469C14.1349 9.40625 14.1115 9.52344 14.1115 9.64062C14.0666 10.6953 13.8244 11.7344 13.3947 12.6953C12.924 13.7656 12.465 14.1094 12.3185 14.1094C11.506 14.1094 10.6251 13.0781 10.381 12.7188C10.2638 12.5469 10.09 12.4141 9.88882 12.3594C9.68569 12.3047 9.47085 12.3203 9.27944 12.3984C9.15444 12.4531 9.04507 12.5391 8.95718 12.6484L8.84194 12.8281C8.74819 13.0156 8.72671 13.2266 8.77554 13.4297L10.5626 20.5703C10.6115 20.7656 10.7228 20.9375 10.8791 21.0625C11.0373 21.1797 11.2287 21.25 11.4279 21.25H18.5705C18.7697 21.25 18.963 21.1797 19.1193 21.0625C19.2755 20.9375 19.3869 20.7656 19.4357 20.5703Z" fill="white"/>
</svg>
