<svg width="32" height="30" viewBox="0 0 32 30" fill="none" xmlns="http://www.w3.org/2000/svg">
<path d="M32 8.64733V1.41216C32 1.12987 31.7511 0.882812 31.4665 0.882812H0.533264C0.248889 0.882812 0 1.12987 0 1.41216V8.64733H32ZM13.2624 3.8118C14.0803 3.8118 14.7557 4.48226 14.7557 5.29416C14.7557 6.10606 14.0803 6.77652 13.2624 6.77652C12.4444 6.77652 11.769 6.10606 11.769 5.29416C11.769 4.4825 12.4444 3.8118 13.2624 3.8118ZM8.88906 3.8118C9.70697 3.8118 10.3824 4.48226 10.3824 5.29416C10.3824 6.10606 9.70697 6.77652 8.88906 6.77652C8.07114 6.77652 7.39572 6.10606 7.39572 5.29416C7.39572 4.4825 8.07114 3.8118 8.88906 3.8118ZM4.51576 3.8118C5.33367 3.8118 6.00909 4.48226 6.00909 5.29416C6.00909 6.10606 5.33367 6.77652 4.51576 6.77652C3.69784 6.77652 3.02242 6.10606 3.02242 5.29416C3.02242 4.4825 3.69784 3.8118 4.51576 3.8118Z" fill="white"/>
<path d="M0 9.70312V28.5853C0 28.8676 0.248889 29.1147 0.533507 29.1147H31.4667C31.7511 29.1147 32 28.8676 32 28.5853V9.70312H0ZM16.1423 25.3031H4.83592C4.55155 25.3031 4.30266 25.0561 4.30266 24.7738C4.30266 24.4915 4.55155 24.2445 4.83592 24.2445H16.1423C16.4267 24.2445 16.6756 24.4915 16.6756 24.7738C16.6756 25.0561 16.4267 25.3031 16.1423 25.3031ZM16.1423 21.7738H4.83592C4.55155 21.7738 4.30266 21.5268 4.30266 21.2445C4.30266 20.9622 4.55155 20.7151 4.83592 20.7151H16.1423C16.4267 20.7151 16.6756 20.9622 16.6756 21.2445C16.6756 21.5268 16.4267 21.7738 16.1423 21.7738ZM27.6977 17.7149C27.6977 17.9972 27.4488 18.2443 27.1644 18.2443H4.83528C4.55091 18.2443 4.30202 17.9972 4.30202 17.7149V13.1267C4.30202 12.8444 4.55091 12.5974 4.83528 12.5974H27.1644C27.4488 12.5974 27.6977 12.8444 27.6977 13.1267V17.7149Z" fill="white"/>
</svg>
