<svg width="22" height="27" viewBox="0 0 22 27" fill="none" xmlns="http://www.w3.org/2000/svg">
<path fill-rule="evenodd" clip-rule="evenodd" d="M10.9507 0.000704494C10.9273 0.00296096 10.904 0.00634579 10.8808 0.0108587C10.7484 0.0307159 10.6248 0.0878035 10.5249 0.175585C10.5215 0.178744 10.518 0.182355 10.5146 0.185739C10.4494 0.231546 9.21544 1.09827 7.33767 2.02184C5.41111 2.96892 2.90307 3.89676 0.686185 3.89676H0V13.5478C0 18.4762 2.73543 21.8679 5.41511 23.9607C8.09485 26.0541 10.7844 26.9303 10.7844 26.9303L10.998 27L11.2156 26.9303C11.2156 26.9303 13.9054 26.0541 16.5849 23.9607C19.2646 21.8674 22 18.4759 22 13.5478V3.89676H21.3086C19.0913 3.89676 16.5874 2.96892 14.6606 2.02092C12.7699 1.09076 11.512 0.204225 11.4637 0.170143L11.4639 0.170368C11.3615 0.0810094 11.2344 0.0236936 11.0986 0.00586689H11.0883C11.0678 0.00315904 11.0471 0.00157955 11.0264 0.000676949H11.016C10.9941 -0.00022565 10.972 -0.00022565 10.9502 0.000676949L10.9507 0.000704494ZM10.9991 6.7455C12.8223 6.7455 14.571 7.45562 15.8602 8.71949C17.1494 9.98336 17.8735 11.6976 17.8735 13.485C17.8735 15.2723 17.1494 16.9866 15.8602 18.2505C14.571 19.5143 12.8223 20.2242 10.9991 20.2242C9.17588 20.2242 7.42721 19.5143 6.13799 18.2505C4.84876 16.9866 4.1244 15.2723 4.1244 13.485C4.1244 11.6976 4.84876 9.98336 6.13799 8.71949C7.42721 7.45562 9.17588 6.7455 10.9991 6.7455ZM14.7627 10.1099C14.4945 10.1169 14.2397 10.2259 14.0524 10.4141L9.97178 14.4196L7.94694 12.4346H7.94717C7.75428 12.2405 7.49026 12.1304 7.21408 12.1288C6.93786 12.1273 6.6727 12.2344 6.47751 12.426C6.28255 12.6178 6.17414 12.8782 6.17644 13.149C6.17897 13.4198 6.29199 13.6784 6.49017 13.8666L9.24145 16.5636V16.5638C9.43479 16.7525 9.69651 16.8585 9.96929 16.8585C10.2421 16.8585 10.5038 16.7525 10.6969 16.5638L15.5079 11.8423C15.7058 11.6519 15.817 11.3915 15.8167 11.1196C15.8163 10.8479 15.7044 10.5877 15.5062 10.3977C15.3078 10.2077 15.0399 10.1042 14.7628 10.11L14.7627 10.1099Z" fill="#4B7BE5"/>
</svg>
