<svg width="24" height="29" viewBox="0 0 24 29" fill="none" xmlns="http://www.w3.org/2000/svg">
<path fill-rule="evenodd" clip-rule="evenodd" d="M11.9463 0.000756679C11.9207 0.00318029 11.8953 0.00681585 11.8699 0.0116631C11.7256 0.0329912 11.5907 0.0943075 11.4817 0.188592C11.478 0.191985 11.4742 0.195863 11.4704 0.199498C11.3994 0.248698 10.0532 1.17963 8.00473 2.17161C5.90302 3.18884 3.16699 4.18541 0.748565 4.18541H0V14.5513C0 19.8448 2.9841 23.4877 5.90739 25.7356C8.83075 27.984 11.7648 28.9251 11.7648 28.9251L11.9979 29L12.2352 28.9251C12.2352 28.9251 15.1695 27.984 18.0926 25.7356C21.016 23.4872 24 19.8445 24 14.5513V4.18541H23.2457C20.8268 4.18541 18.0954 3.18884 15.9934 2.17062C13.9309 1.17156 12.5586 0.219352 12.5058 0.182746L12.5061 0.182988C12.3944 0.0870101 12.2558 0.0254487 12.1076 0.00630148H12.0963C12.074 0.00339304 12.0514 0.00169655 12.0288 0.000727094H12.0175C11.9936 -0.000242365 11.9695 -0.000242365 11.9456 0.000727094L11.9463 0.000756679ZM11.999 7.24517C13.988 7.24517 15.8956 8.00789 17.302 9.36538C18.7084 10.7229 19.4984 12.5641 19.4984 14.4839C19.4984 16.4036 18.7084 18.2449 17.302 19.6024C15.8956 20.9598 13.988 21.7223 11.999 21.7223C10.0101 21.7223 8.10242 20.9598 6.69599 19.6024C5.28956 18.2449 4.49934 16.4036 4.49934 14.4839C4.49934 12.5641 5.28956 10.7229 6.69599 9.36538C8.10242 8.00789 10.0101 7.24517 11.999 7.24517ZM16.1048 10.8588C15.8122 10.8663 15.5343 10.9834 15.3298 11.1855L10.8783 15.4877L8.66938 13.3557H8.66963C8.45921 13.1472 8.1712 13.029 7.8699 13.0273C7.56858 13.0256 7.27931 13.1407 7.06637 13.3465C6.85369 13.5525 6.73542 13.8322 6.73793 14.123C6.74069 14.4139 6.86398 14.6916 7.08018 14.8937L10.0816 17.7905V17.7908C10.2925 17.9934 10.578 18.1073 10.8756 18.1073C11.1731 18.1073 11.4586 17.9934 11.6693 17.7908L16.9177 12.7196C17.1336 12.515 17.2549 12.2353 17.2546 11.9432C17.2541 11.6514 17.1321 11.372 16.9159 11.1679C16.6995 10.9638 16.4072 10.8526 16.1049 10.8589L16.1048 10.8588Z" fill="#4B7BE5"/>
</svg>
