<svg width="17" height="18" viewBox="0 0 17 18" fill="none" xmlns="http://www.w3.org/2000/svg">
<path d="M8.49743 0.36403C6.33254 0.355752 4.25303 1.20777 2.71632 2.73268C1.17962 4.25758 0.311585 6.33046 0.303174 8.49534C0.301703 9.97654 0.709079 11.4294 1.48043 12.6939L-1.65144e-05 17.0563L4.53692 15.615C5.78114 16.2974 7.18101 16.6456 8.59993 16.6256C10.0189 16.6056 11.4084 16.2181 12.6328 15.5009C13.8573 14.7837 14.8749 13.7613 15.5864 12.5334C16.2979 11.3056 16.6789 9.91433 16.6923 8.49534C16.6881 7.42334 16.4729 6.36267 16.0588 5.37387C15.6447 4.38507 15.0399 3.48752 14.2789 2.73246C13.518 1.97739 12.6157 1.37961 11.6237 0.973233C10.6317 0.566858 9.56942 0.35985 8.49743 0.36403ZM12.5723 11.5833C12.3796 12.0613 11.5076 12.4975 11.1227 12.5175C10.7378 12.5375 10.7273 12.8154 8.6322 11.9053C6.53707 10.9951 5.27715 8.78125 5.17784 8.63844C5.07853 8.49564 4.36637 7.48154 4.40462 6.46035C4.41134 6.13644 4.48577 5.81751 4.62313 5.52409C4.7605 5.23066 4.95775 4.96923 5.20221 4.75661C5.27638 4.68134 5.36471 4.62148 5.4621 4.58045C5.55949 4.53943 5.66403 4.51807 5.76971 4.51758C5.93472 4.51481 6.04143 4.51265 6.16357 4.51758C6.28571 4.52252 6.46891 4.49198 6.62621 4.91391C6.7835 5.33583 7.16441 6.37276 7.21221 6.47855C7.24318 6.53375 7.25985 6.59583 7.26072 6.65912C7.26158 6.72241 7.2466 6.78492 7.21715 6.84095C7.1597 6.96406 7.08492 7.0783 6.99508 7.18021C6.88559 7.29741 6.765 7.44268 6.66753 7.53213C6.55866 7.63144 6.44516 7.7397 6.55958 7.95189C6.85444 8.49757 7.22862 8.99648 7.66991 9.43233C8.15052 9.88942 8.70699 10.2594 9.31444 10.5257C9.51985 10.6377 9.6426 10.6253 9.76998 10.4912C9.89736 10.357 10.3153 9.90514 10.463 9.70251C10.6108 9.49987 10.7483 9.53966 10.9377 9.61584C11.1271 9.69202 12.1359 10.2327 12.3413 10.3443C12.5467 10.456 12.684 10.5131 12.733 10.6016C12.7773 10.9375 12.7214 11.279 12.5723 11.5833Z" fill="#1DC449"/>
</svg>
