<svg width="23" height="16" viewBox="0 0 23 16" fill="none" xmlns="http://www.w3.org/2000/svg">
<path d="M22.5 13.625V2.375C22.5 1.3375 21.6335 0.5 20.56 0.5H2.44004C1.36655 0.5 0.5 1.3375 0.5 2.375V13.625C0.5 14.6625 1.36655 15.5 2.44004 15.5H20.56C21.6335 15.5 22.5 14.6625 22.5 13.625ZM20.8057 2.2375C21.2325 2.65 20.9997 3.075 20.7669 3.2875L15.5159 7.9375L20.56 13.0125C20.7152 13.1875 20.8186 13.4625 20.6376 13.65C20.4694 13.85 20.0814 13.8375 19.9133 13.7125L14.2613 9.05L11.4935 11.4875L8.73868 9.05L3.08671 13.7125C2.91858 13.8375 2.53057 13.85 2.36243 13.65C2.18136 13.4625 2.28483 13.1875 2.44004 13.0125L7.48413 7.9375L2.2331 3.2875C2.00029 3.075 1.76749 2.65 2.1943 2.2375C2.62111 1.825 3.06085 2.025 3.42299 2.325L11.4935 8.625L19.577 2.325C19.9392 2.025 20.3789 1.825 20.8057 2.2375Z" fill="white"/>
</svg>
