<svg width="17" height="20" viewBox="0 0 17 20" fill="none" xmlns="http://www.w3.org/2000/svg">
<path fill-rule="evenodd" clip-rule="evenodd" d="M7.36028 20H0V13.4231C0 11.8936 0.739493 10.8486 1.78357 10.309L1.18612 12.209L1.89632 11.9676L3.6511 14.9531L5.40587 11.9676L6.11607 12.209L5.50837 10.276C6.26007 10.6023 6.95685 11.1324 7.49524 11.8709L9.65832 13.564L13.0863 11.6161C14.5639 10.7776 15.8381 13.0239 14.3613 13.862L10.1821 16.2357C9.7413 16.4856 9.17509 16.4614 8.75091 16.1302L7.36028 15.042V20ZM16.6025 3.99082V9.52384H11.9012V6.31352H9.85942V9.52384H8.27403V3.98887C8.70064 4.24074 9.25611 4.27783 9.75057 4.01376C9.91726 3.92468 10.0581 3.80851 10.1708 3.67233C10.5975 4.18387 11.3633 4.36496 12.0208 4.01376C12.1875 3.92468 12.3283 3.80851 12.4408 3.67233C12.8677 4.18387 13.6335 4.36496 14.2908 4.01376C14.4577 3.92468 14.5983 3.80851 14.711 3.67233C15.1379 4.18387 15.9037 4.36521 16.561 4.01376C16.5751 4.00644 16.5888 3.99863 16.6025 3.99082ZM8.27403 0H9.79206V2.73368C9.79206 3.73774 8.27403 3.73774 8.27403 2.73368V0ZM15.0847 0H16.6025V2.73368C16.6025 3.73774 15.0847 3.73774 15.0847 2.73368V0ZM12.8145 0H14.3323V2.73368C14.3323 3.73774 12.8145 3.73774 12.8145 2.73368V0ZM10.5442 0H12.0623V2.73368C12.0623 3.73774 10.5442 3.73774 10.5442 2.73368V0ZM2.19359 10.1289C3.08049 9.80158 4.1253 9.79621 5.11007 10.1242L3.6511 14.9531L2.19359 10.1289ZM3.6262 2.54332C5.37023 2.54332 6.78406 3.95739 6.78406 5.70142C6.78406 7.44521 5.37023 8.85903 3.6262 8.85903C1.88217 8.85903 0.46859 7.44521 0.46859 5.70142C0.46859 3.95739 1.88217 2.54332 3.6262 2.54332Z" fill="#EA7D5A"/>
</svg>