<svg width="110" height="110" viewBox="0 0 110 110" fill="none" xmlns="http://www.w3.org/2000/svg">
<rect x="15" y="12" width="80" height="80" rx="10" fill="#4B7BE5"/>
<g filter="url(#filter0_d_8568_58201)">
<rect x="15" y="11" width="80" height="80" rx="10" fill="white"/>
</g>
<path d="M55.4054 44.8615C53.4205 44.8615 51.8053 43.2078 51.8053 41.175V35.686C51.8053 35.447 51.8498 35.2168 51.925 35H41.2642C40.0156 35 39 36.0401 39 37.3181V64.6815C39 65.9599 40.0156 67 41.2642 67H59.1702C60.4182 67 61.4337 65.9599 61.4337 64.6815V44.7382C61.222 44.8158 60.9978 44.8615 60.7652 44.8615H55.4054ZM43.2973 40.8186H50.1459C50.5144 40.8186 50.8125 41.1243 50.8125 41.5013C50.8125 41.8784 50.5144 42.184 50.1459 42.184H43.2973C42.9288 42.184 42.6307 41.8784 42.6307 41.5013C42.6307 41.1243 42.9288 40.8186 43.2973 40.8186ZM56.3064 62.4274H43.2973C42.9288 62.4274 42.6307 62.1217 42.6307 61.7447C42.6307 61.3677 42.9288 61.062 43.2973 61.062H56.3064C56.6749 61.062 56.973 61.3677 56.973 61.7447C56.973 62.1217 56.6749 62.4274 56.3064 62.4274ZM56.3064 57.0978H43.2973C42.9288 57.0978 42.6307 56.7921 42.6307 56.4151C42.6307 56.0381 42.9288 55.7324 43.2973 55.7324H56.3064C56.6749 55.7324 56.973 56.0381 56.973 56.4151C56.973 56.7921 56.6749 57.0978 56.3064 57.0978ZM56.3064 51.7685H43.2973C42.9288 51.7685 42.6307 51.4629 42.6307 51.0858C42.6307 50.7088 42.9288 50.4031 43.2973 50.4031H56.3064C56.6749 50.4031 56.973 50.7088 56.973 51.0858C56.973 51.4629 56.6749 51.7685 56.3064 51.7685ZM56.3064 46.4393H43.2973C42.9288 46.4393 42.6307 46.1336 42.6307 45.7566C42.6307 45.3795 42.9288 45.0739 43.2973 45.0739H56.3064C56.6749 45.0739 56.973 45.3795 56.973 45.7566C56.973 46.1336 56.6749 46.4393 56.3064 46.4393Z" fill="#060B29"/>
<path d="M55.4057 43.4956H60.7654C61.0387 43.4956 61.2787 43.3249 61.3854 43.0723C61.4854 42.8197 61.4321 42.5262 61.2387 42.3282L54.2791 35.2008C54.0858 35.0028 53.7991 34.9482 53.5525 35.0506C53.2991 35.1598 53.1392 35.4056 53.1392 35.6855V41.1744C53.1392 42.4511 54.1524 43.4956 55.4057 43.4956Z" fill="#4B7BE5"/>
<path d="M67.6108 37.3451H64.511C63.6644 37.3451 63.0044 38.1438 63.0044 39.1542V41.844H69.1241V39.1542C69.1241 38.1438 68.4574 37.3451 67.6108 37.3451Z" fill="#4B7BE5"/>
<path d="M63.0044 43.2096V50.0503C63.0044 55.2457 63.8243 60.2772 65.4309 65.0083C65.5242 65.2814 65.7776 65.4657 66.0642 65.4657C66.3442 65.4657 66.5976 65.2814 66.6909 65.0083C68.3041 60.2772 69.1241 55.2457 69.1241 50.0503V43.2096H63.671H63.0044Z" fill="#060B29"/>
<path d="M70.7402 41.9871C70.6269 41.8984 70.4869 41.8438 70.3336 41.8438H69.127V43.2092H69.6669V52.0707C69.6669 52.453 69.9669 52.7534 70.3336 52.7534C70.7002 52.7534 71.0002 52.453 71.0002 52.0707V42.5265C71.0002 42.308 70.9002 42.11 70.7402 41.9871Z" fill="#4B7BE5"/>
<defs>
<filter id="filter0_d_8568_58201" x="0" y="0" width="110" height="110" filterUnits="userSpaceOnUse" color-interpolation-filters="sRGB">
<feFlood flood-opacity="0" result="BackgroundImageFix"/>
<feColorMatrix in="SourceAlpha" type="matrix" values="0 0 0 0 0 0 0 0 0 0 0 0 0 0 0 0 0 0 127 0" result="hardAlpha"/>
<feOffset dy="4"/>
<feGaussianBlur stdDeviation="7.5"/>
<feComposite in2="hardAlpha" operator="out"/>
<feColorMatrix type="matrix" values="0 0 0 0 0 0 0 0 0 0 0 0 0 0 0 0 0 0 0.08 0"/>
<feBlend mode="normal" in2="BackgroundImageFix" result="effect1_dropShadow_8568_58201"/>
<feBlend mode="normal" in="SourceGraphic" in2="effect1_dropShadow_8568_58201" result="shape"/>
</filter>
</defs>
</svg>
