<svg width="23" height="20" viewBox="0 0 23 20" fill="none" xmlns="http://www.w3.org/2000/svg">
<path d="M18.8864 4.46969C19.0115 4.31933 19.1891 4.22509 19.3815 4.20704C19.5802 4.19021 19.7774 4.25594 19.9288 4.38942L22.0248 6.22393C22.1749 6.35516 22.2679 6.54208 22.2836 6.74315C22.2992 6.94422 22.2361 7.14283 22.1081 7.29563L21.2338 8.34143L18.0173 5.50916L18.8864 4.46969Z" fill="#4B7BE5"/>
<path d="M12.0455 12.6525L17.0539 6.66175L20.2745 9.48925L15.2673 15.4786C15.1527 15.6145 14.9943 15.7042 14.8206 15.7315L12.7278 16.0681C12.513 16.1028 12.2936 16.0391 12.128 15.8938C11.9623 15.7485 11.8671 15.5362 11.8676 15.3134L11.8644 13.1439C11.8657 12.9629 11.9298 12.7887 12.0455 12.6525Z" fill="#4B7BE5"/>
<path d="M0.678771 0C0.498056 0.000890684 0.324947 0.0858623 0.197758 0.236035C0.0704366 0.386208 -0.000757191 0.589641 6.07447e-06 0.801292V19.1987C-0.000754504 19.4103 0.0704366 19.6138 0.197758 19.764C0.324927 19.9141 0.498037 19.9991 0.678771 20H16.3954C16.5771 20.0007 16.7515 19.9166 16.8799 19.7661C17.0084 19.6157 17.0802 19.4114 17.0796 19.1987V15.2629L15.7179 16.8576C15.7165 16.8591 15.7151 16.8607 15.7138 16.8623C15.3698 17.2618 14.915 17.5057 14.432 17.5497L12.4954 17.7335C11.2656 17.8511 10.1934 16.5968 10.2912 15.1569V15.1523L10.4429 12.8828C10.4433 12.8787 10.4438 12.8744 10.4443 12.8703C10.4861 12.3022 10.7001 11.7692 11.0472 11.3693L17.0794 4.30532V0.801322C17.0801 0.588622 17.0082 0.3843 16.8798 0.233967C16.7512 0.0834389 16.5769 -0.000640439 16.3953 7.09773e-05L0.678771 0ZM3.06931 3.10497C3.09106 3.1039 3.11282 3.1039 3.13457 3.10497H13.9398C14.1233 3.10034 14.3005 3.18228 14.4316 3.33245C14.5628 3.48263 14.6367 3.68837 14.6367 3.90304C14.6367 4.11788 14.5628 4.32363 14.4316 4.47382C14.3005 4.62399 14.1233 4.70593 13.9398 4.70113H3.13457C2.89453 4.70825 2.66878 4.56717 2.54039 4.32953C2.412 4.09172 2.39983 3.79246 2.50829 3.54164C2.6166 3.29064 2.82974 3.12474 3.06931 3.10497ZM3.1345 6.9038H11.8007C12.7096 6.9038 12.7096 8.50153 11.8007 8.50153H3.1345C2.22559 8.50153 2.22559 6.9038 3.1345 6.9038ZM3.06924 10.7101C3.09115 10.7089 3.1126 10.7089 3.1345 10.7101H8.8699C9.77881 10.7101 9.77881 12.3062 8.8699 12.3062H3.1345C2.22559 12.3572 2.16032 10.761 3.06924 10.7101ZM3.1345 14.5104H8.38662C9.29553 14.5104 9.29553 16.1065 8.38662 16.1065H3.1345C2.22559 16.1065 2.22559 14.5104 3.1345 14.5104Z" fill="#060B29"/>
</svg>
