<svg width="74" height="70" viewBox="0 0 74 70" fill="none" xmlns="http://www.w3.org/2000/svg">
<g filter="url(#filter0_d_196_17381)">
<rect x="15" y="11" width="44" height="40" rx="10" fill="white"/>
<rect x="15.5" y="11.5" width="43" height="39" rx="9.5" stroke="#212121" stroke-opacity="0.1"/>
<path d="M46.8864 25.4697C47.0115 25.3193 47.1891 25.2251 47.3815 25.207C47.5802 25.1902 47.7774 25.2559 47.9288 25.3894L50.0248 27.2239C50.1749 27.3552 50.2679 27.5421 50.2836 27.7431C50.2992 27.9442 50.2361 28.1428 50.1081 28.2956L49.2338 29.3414L46.0173 26.5092L46.8864 25.4697Z" fill="#97C0FF"/>
<path d="M40.0455 33.6525L45.0539 27.6618L48.2745 30.4893L43.2673 36.4786C43.1527 36.6145 42.9943 36.7042 42.8206 36.7315L40.7278 37.0681C40.513 37.1028 40.2936 37.0391 40.128 36.8938C39.9623 36.7485 39.8671 36.5362 39.8676 36.3134L39.8644 34.1439C39.8657 33.9629 39.9298 33.7887 40.0455 33.6525Z" fill="#97C0FF"/>
<path d="M28.6788 21C28.4981 21.0009 28.3249 21.0859 28.1978 21.236C28.0704 21.3862 27.9992 21.5896 28 21.8013V40.1987C27.9992 40.4103 28.0704 40.6138 28.1978 40.764C28.3249 40.9141 28.498 40.9991 28.6788 41H44.3954C44.5771 41.0007 44.7515 40.9166 44.8799 40.7661C45.0084 40.6157 45.0802 40.4114 45.0796 40.1987V36.2629L43.7179 37.8576C43.7165 37.8591 43.7151 37.8607 43.7138 37.8623C43.3698 38.2618 42.915 38.5057 42.432 38.5497L40.4954 38.7335C39.2656 38.8511 38.1934 37.5968 38.2912 36.1569V36.1523L38.4429 33.8828C38.4433 33.8787 38.4438 33.8744 38.4443 33.8703C38.4861 33.3022 38.7001 32.7692 39.0472 32.3693L45.0794 25.3053V21.8013C45.0801 21.5886 45.0082 21.3843 44.8798 21.234C44.7512 21.0834 44.5769 20.9994 44.3953 21.0001L28.6788 21ZM31.0693 24.105C31.0911 24.1039 31.1128 24.1039 31.1346 24.105H41.9398C42.1233 24.1003 42.3005 24.1823 42.4316 24.3325C42.5628 24.4826 42.6367 24.6884 42.6367 24.903C42.6367 25.1179 42.5628 25.3236 42.4316 25.4738C42.3005 25.624 42.1233 25.7059 41.9398 25.7011H31.1346C30.8945 25.7083 30.6688 25.5672 30.5404 25.3295C30.412 25.0917 30.3998 24.7925 30.5083 24.5416C30.6166 24.2906 30.8297 24.1247 31.0693 24.105ZM31.1345 27.9038H39.8007C40.7096 27.9038 40.7096 29.5015 39.8007 29.5015H31.1345C30.2256 29.5015 30.2256 27.9038 31.1345 27.9038ZM31.0692 31.7101C31.0911 31.7089 31.1126 31.7089 31.1345 31.7101H36.8699C37.7788 31.7101 37.7788 33.3062 36.8699 33.3062H31.1345C30.2256 33.3572 30.1603 31.761 31.0692 31.7101ZM31.1345 35.5104H36.3866C37.2955 35.5104 37.2955 37.1065 36.3866 37.1065H31.1345C30.2256 37.1065 30.2256 35.5104 31.1345 35.5104Z" fill="#111156"/>
</g>
<defs>
<filter id="filter0_d_196_17381" x="0" y="0" width="74" height="70" filterUnits="userSpaceOnUse" color-interpolation-filters="sRGB">
<feFlood flood-opacity="0" result="BackgroundImageFix"/>
<feColorMatrix in="SourceAlpha" type="matrix" values="0 0 0 0 0 0 0 0 0 0 0 0 0 0 0 0 0 0 127 0" result="hardAlpha"/>
<feOffset dy="4"/>
<feGaussianBlur stdDeviation="7.5"/>
<feComposite in2="hardAlpha" operator="out"/>
<feColorMatrix type="matrix" values="0 0 0 0 0 0 0 0 0 0 0 0 0 0 0 0 0 0 0.06 0"/>
<feBlend mode="normal" in2="BackgroundImageFix" result="effect1_dropShadow_196_17381"/>
<feBlend mode="normal" in="SourceGraphic" in2="effect1_dropShadow_196_17381" result="shape"/>
</filter>
</defs>
</svg>
