<svg width="22" height="22" viewBox="0 0 22 22" fill="none" xmlns="http://www.w3.org/2000/svg">
    <path d="M21.8708 6.74571C21.7491 6.58363 21.5581 6.48828 21.3555 6.48828H16.7468C16.439 4.66164 14.8464 3.26562 12.9336 3.26562C11.0208 3.26562 9.4282 4.66164 9.12042 6.48828H5.11423L4.27204 0.553996C4.22696 0.236199 3.95493 0 3.63391 0H0.644531C0.288578 0 0 0.288578 0 0.644531C0 1.00048 0.288578 1.28906 0.644531 1.28906H3.07441L3.91656 7.22322V7.22326V7.22339L4.8895 14.0769C4.99507 14.8158 5.35442 15.4939 5.90347 15.9969C5.47362 16.3518 5.19922 16.8886 5.19922 17.4883C5.19922 18.3787 5.80443 19.1301 6.62496 19.3537C6.53709 19.5745 6.48828 19.8148 6.48828 20.0664C6.48828 21.1326 7.35569 22 8.42187 22C9.48806 22 10.3555 21.1326 10.3555 20.0664C10.3555 19.8405 10.3161 19.6236 10.2446 19.4219H15.6226C15.551 19.6236 15.5117 19.8405 15.5117 20.0664C15.5117 21.1326 16.3791 22 17.4453 22C18.5115 22 19.3789 21.1326 19.3789 20.0664C19.3789 19.0002 18.5115 18.1328 17.4453 18.1328H7.13281C6.77742 18.1328 6.48828 17.8437 6.48828 17.4883C6.48828 17.1329 6.77742 16.8438 7.13281 16.8438H16.7897C18.2209 16.8438 19.4951 15.8826 19.8877 14.5089L21.9745 7.31234C22.0309 7.11764 21.9925 6.90774 21.8708 6.74571Z"
          fill="#111156"/>
    <path d="M12.9336 2.62109C10.4458 2.62109 8.42188 4.64505 8.42188 7.13281C8.42188 9.62057 10.4458 11.6445 12.9336 11.6445C15.4214 11.6445 17.4453 9.62057 17.4453 7.13281C17.4453 4.64505 15.4214 2.62109 12.9336 2.62109ZM14.6784 6.94405L12.7448 8.87764C12.619 9.0035 12.454 9.06641 12.2891 9.06641C12.1241 9.06641 11.9591 9.0035 11.8333 8.8776L11.1888 8.23307C10.9371 7.98136 10.9371 7.57329 11.1888 7.32157C11.4405 7.06986 11.8486 7.06986 12.1003 7.32157L12.2891 7.51034L13.767 6.03251C14.0186 5.7808 14.4268 5.7808 14.6785 6.03251C14.9301 6.28427 14.9301 6.69234 14.6784 6.94405Z"
          fill="#97C0FF"/>
</svg>
