<svg width="20" height="20" viewBox="0 0 20 20" fill="none" xmlns="http://www.w3.org/2000/svg">
    <path d="M18.75 20H1.25C0.559387 20 0 19.4406 0 18.75V1.25C0 0.559387 0.559387 0 1.25 0H18.75C19.4406 0 20 0.559387 20 1.25V18.75C20 19.4406 19.4406 20 18.75 20Z"
          fill="#111156"/>
    <path d="M14.375 8.66745L11.875 7.00119L10 8.25119L8.125 7.00119L5.625 8.66745V0H14.375V8.66745Z" fill="#97C1FF"/>
    <path d="M7.5 17.5H6.25V16.25H7.5V17.5ZM5 17.5H2.5V16.25H5V17.5Z" fill="white"/>
    <path d="M2.5 13.75H8.75V15H2.5V13.75Z" fill="white"/>
    <path d="M8.125 2.5H9.375V3.75H8.125V2.5Z" fill="white"/>
    <path d="M10.625 2.5H11.875V3.75H10.625V2.5Z" fill="white"/>
    <path d="M19 15C19 17.2091 17.2091 19 15 19C12.7909 19 11 17.2091 11 15C11 12.7909 12.7909 11 15 11C17.2091 11 19 12.7909 19 15Z"
          fill="#97C1FF"/>
    <path d="M16.875 15.625H14.375V12.5H15.625V14.375H16.875V15.625Z" fill="white"/>
</svg>
