<svg width="110" height="110" viewBox="0 0 110 110" fill="none" xmlns="http://www.w3.org/2000/svg">
<rect x="15" y="12" width="80" height="80" rx="10" fill="#4B7BE5"/>
<g filter="url(#filter0_d)">
<rect x="15" y="11" width="80" height="80" rx="10" fill="white"/>
</g>
<path d="M54.6215 51.8125V66.9998H42.1969C41.99 66.9998 41.8184 66.8315 41.8184 66.6173V54.6735H52.179C52.5574 54.6735 52.9157 54.4797 53.1327 54.1483L54.6215 51.8125Z" fill="#060B29"/>
<path d="M68.1801 54.6735V66.6173C68.1801 66.8315 68.0085 66.9998 67.8016 66.9998H55.377V51.8125L56.8657 54.1585C57.0776 54.4797 57.4309 54.6735 57.8144 54.6735H68.1801Z" fill="#060B29"/>
<path d="M70.9543 53.7105C70.8887 53.8329 70.7626 53.9094 70.6213 53.9094H57.8181C57.6919 53.9094 57.5708 53.8431 57.5002 53.736L55.0021 49.8041L52.4991 53.736C52.4284 53.8431 52.3123 53.9094 52.1811 53.9094H39.378C39.2418 53.9094 39.1156 53.8329 39.05 53.7105C38.9793 53.5881 38.9844 53.4402 39.0601 53.3229L41.8811 48.8912C41.9518 48.7841 42.0678 48.7178 42.199 48.7178H67.8053C67.9314 48.7178 68.0525 48.7841 68.1232 48.8912L70.9391 53.3229C71.0149 53.4402 71.0199 53.5881 70.9543 53.7105Z" fill="#060B29"/>
<path d="M55.2601 42.9078V41.91C55.2601 41.7257 55.13 41.5676 54.9507 41.534L54.2085 41.3946C54.0724 41.3691 53.9654 41.2688 53.919 41.1369C53.8813 41.0299 53.8388 40.9252 53.7914 40.823C53.7329 40.6969 53.7385 40.5505 53.8164 40.4356L54.2445 39.8049C54.3477 39.6528 54.3288 39.448 54.1996 39.3177L53.5005 38.6131C53.3718 38.4833 53.1699 38.4644 53.0198 38.5681L52.3947 38.9995C52.281 39.078 52.1364 39.0835 52.0118 39.0243C51.9098 38.9759 51.8053 38.9324 51.6984 38.8933C51.5691 38.8462 51.4712 38.7383 51.446 38.6018L51.308 37.8525C51.2746 37.6714 51.1182 37.54 50.9359 37.54H49.9513C49.7689 37.54 49.6125 37.6715 49.5791 37.8527L49.4413 38.6027C49.416 38.7403 49.3167 38.8484 49.1863 38.8953C49.0802 38.9334 48.9764 38.9765 48.8752 39.0244C48.7506 39.0834 48.606 39.078 48.4924 38.9996L47.8676 38.5683C47.7173 38.4646 47.5152 38.4836 47.3865 38.6137L46.6871 39.3204C46.5581 39.4508 46.5395 39.6557 46.6429 39.8076L47.0702 40.4355C47.1484 40.5504 47.154 40.697 47.0955 40.8233C47.0482 40.9254 47.0057 41.03 46.968 41.137C46.9216 41.2688 46.8146 41.3691 46.6785 41.3946L45.9363 41.534C45.757 41.5676 45.627 41.7257 45.627 41.91V42.9079C45.627 43.0921 45.757 43.2502 45.9363 43.2839L46.6791 43.4234C46.8149 43.4489 46.9218 43.5487 46.9684 43.6801C47.006 43.7861 47.0484 43.8901 47.0956 43.9918C47.1541 44.118 47.1485 44.2645 47.0706 44.3794L46.6423 45.0104C46.5392 45.1623 46.5579 45.3669 46.6868 45.4972L47.3858 46.2035C47.5148 46.3339 47.7175 46.3527 47.8679 46.2482L48.489 45.8166C48.6028 45.7375 48.7481 45.7317 48.8731 45.7912C48.9752 45.8398 49.0801 45.8838 49.187 45.9225C49.3171 45.9696 49.416 46.0774 49.4413 46.2146L49.579 46.9624C49.6124 47.1435 49.7688 47.2749 49.9511 47.2749H50.936C51.1183 47.2749 51.2747 47.1436 51.3081 46.9625L51.4459 46.2162C51.4711 46.0796 51.5691 45.9718 51.6984 45.9247C51.8057 45.8856 51.9109 45.8418 52.0133 45.7929C52.1388 45.7329 52.2847 45.7378 52.3991 45.8173L53.0192 46.2482C53.1695 46.3527 53.3723 46.3339 53.5013 46.2035L54.2002 45.4972C54.3291 45.3669 54.3478 45.1623 54.2447 45.0104L53.8165 44.3794C53.7385 44.2645 53.733 44.118 53.7915 43.9918C53.8387 43.8901 53.8811 43.7861 53.9187 43.6801C53.9653 43.5487 54.0721 43.4489 54.2079 43.4234L54.9507 43.2839C55.13 43.2502 55.2601 43.0921 55.2601 42.9078ZM50.7334 43.8797C49.6923 44.0769 48.7954 43.1788 48.9851 42.1266C49.091 41.5397 49.5609 41.0565 50.1397 40.9389C51.1888 40.7258 52.1012 41.6422 51.8992 42.7058C51.788 43.2914 51.3134 43.7698 50.7334 43.8797Z" fill="#4B7BE5"/>
<path d="M62.8862 38.8076V38.2581C62.8862 38.0738 62.7562 37.9157 62.5769 37.882L62.1792 37.8074C62.0456 37.7823 61.9418 37.684 61.8934 37.5556C61.8779 37.5146 61.8614 37.4741 61.8439 37.4341C61.7893 37.309 61.7942 37.1667 61.8707 37.0539L62.1004 36.7154C62.2036 36.5633 62.1848 36.3585 62.0556 36.2282L61.6704 35.84C61.5417 35.7102 61.3398 35.6913 61.1896 35.795L60.8538 36.0268C60.7422 36.1038 60.6014 36.1086 60.4779 36.0533C60.4376 36.0352 60.3967 36.0182 60.3553 36.0021C60.2292 35.9531 60.1331 35.8482 60.1084 35.714L60.0344 35.3125C60.001 35.1313 59.8446 35 59.6623 35H59.1205C58.9381 35 58.7817 35.1314 58.7484 35.3126L58.6745 35.7145C58.6497 35.8496 58.5525 35.9544 58.4254 36.0034C58.3847 36.019 58.3444 36.0358 58.3047 36.0535C58.1812 36.1086 58.0406 36.1039 57.9291 36.0269L57.5934 35.7952C57.4431 35.6914 57.241 35.7105 57.1123 35.8406L56.7268 36.2301C56.5978 36.3605 56.5792 36.5653 56.6826 36.7173L56.9116 37.0538C56.9884 37.1666 56.9933 37.3091 56.9386 37.4344C56.9212 37.4743 56.9048 37.5147 56.8893 37.5556C56.8409 37.684 56.7372 37.7823 56.6035 37.8074L56.2058 37.882C56.0265 37.9157 55.8965 38.0738 55.8965 38.2581V38.8076C55.8965 38.9919 56.0265 39.15 56.2058 39.1836L56.604 39.2584C56.7374 39.2834 56.8411 39.3811 56.8896 39.5092C56.905 39.5496 56.9213 39.5897 56.9386 39.6293C56.9933 39.7544 56.9885 39.8969 56.912 40.0097L56.682 40.3485C56.5789 40.5005 56.5977 40.7051 56.7265 40.8353L57.1116 41.2244C57.2406 41.3548 57.4433 41.3736 57.5937 41.2691L57.9263 41.0379C58.0382 40.9603 58.1794 40.9551 58.3034 41.0108C58.3439 41.029 58.3848 41.0462 58.4263 41.0623C58.5529 41.1114 58.6497 41.2158 58.6745 41.3505L58.7483 41.751C58.7817 41.9322 58.9381 42.0635 59.1204 42.0635H59.6624C59.8447 42.0635 60.0011 41.9323 60.0345 41.7512L60.1083 41.3517C60.1331 41.2175 60.2291 41.1127 60.3552 41.0638C60.397 41.0476 60.4382 41.0304 60.4789 41.0121C60.6032 40.9562 60.7449 40.9605 60.8571 41.0384L61.189 41.2691C61.3394 41.3736 61.5421 41.3548 61.6711 41.2244L62.0562 40.8353C62.1851 40.705 62.2038 40.5004 62.1007 40.3485L61.8707 40.0097C61.7942 39.8969 61.7894 39.7544 61.8441 39.6293C61.8614 39.5897 61.8777 39.5496 61.8931 39.5092C61.9417 39.3811 62.0453 39.2834 62.1787 39.2584L62.5769 39.1836C62.7562 39.15 62.8862 38.9919 62.8862 38.8076ZM59.3924 39.6199C58.7974 39.6199 58.3146 39.1341 58.3146 38.5328C58.3146 37.9316 58.7974 37.4437 59.3924 37.4437C59.9853 37.4437 60.4681 37.9316 60.4681 38.5328C60.4681 39.1341 59.9853 39.6199 59.3924 39.6199Z" fill="#4B7BE5"/>
<defs>
<filter id="filter0_d" x="0" y="0" width="110" height="110" filterUnits="userSpaceOnUse" color-interpolation-filters="sRGB">
<feFlood flood-opacity="0" result="BackgroundImageFix"/>
<feColorMatrix in="SourceAlpha" type="matrix" values="0 0 0 0 0 0 0 0 0 0 0 0 0 0 0 0 0 0 127 0" result="hardAlpha"/>
<feOffset dy="4"/>
<feGaussianBlur stdDeviation="7.5"/>
<feComposite in2="hardAlpha" operator="out"/>
<feColorMatrix type="matrix" values="0 0 0 0 0 0 0 0 0 0 0 0 0 0 0 0 0 0 0.08 0"/>
<feBlend mode="normal" in2="BackgroundImageFix" result="effect1_dropShadow"/>
<feBlend mode="normal" in="SourceGraphic" in2="effect1_dropShadow" result="shape"/>
</filter>
</defs>
</svg>
