<svg width="20" height="19" viewBox="0 0 20 19" fill="none" xmlns="http://www.w3.org/2000/svg">
    <path d="M6.625 8.85851C6.625 9.15626 6.50647 9.44182 6.29549 9.65236C6.08452 9.8629 5.79837 9.98118 5.5 9.98118C5.20163 9.98118 4.91548 9.8629 4.7045 9.65236C4.49353 9.44182 4.375 9.15626 4.375 8.85851C4.375 8.56076 4.49353 8.2752 4.7045 8.06466C4.91548 7.85412 5.20163 7.73584 5.5 7.73584C5.79837 7.73584 6.08452 7.85412 6.29549 8.06466C6.50647 8.2752 6.625 8.56076 6.625 8.85851ZM11.125 8.85851C11.125 9.15626 11.0065 9.44182 10.7955 9.65236C10.5845 9.8629 10.2984 9.98118 10 9.98118C9.70163 9.98118 9.41548 9.8629 9.2045 9.65236C8.99352 9.44182 8.875 9.15626 8.875 8.85851C8.875 8.56076 8.99352 8.2752 9.2045 8.06466C9.41548 7.85412 9.70163 7.73584 10 7.73584C10.2984 7.73584 10.5845 7.85412 10.7955 8.06466C11.0065 8.2752 11.125 8.56076 11.125 8.85851ZM14.5 9.98118C14.7984 9.98118 15.0845 9.8629 15.2955 9.65236C15.5065 9.44182 15.625 9.15626 15.625 8.85851C15.625 8.56076 15.5065 8.2752 15.2955 8.06466C15.0845 7.85412 14.7984 7.73584 14.5 7.73584C14.2016 7.73584 13.9155 7.85412 13.7045 8.06466C13.4935 8.2752 13.375 8.56076 13.375 8.85851C13.375 9.15626 13.4935 9.44182 13.7045 9.65236C13.9155 9.8629 14.2016 9.98118 14.5 9.98118Z"
          fill="#4B7BE5" stroke="#4B7BE5" stroke-width="0.5"/>
    <path d="M3.43563 17.6189L3.45812 17.6144C5.51687 17.2068 6.77462 16.6691 7.35962 16.3738C8.22091 16.6031 9.10861 16.7186 10 16.7174C14.9703 16.7174 19 13.1989 19 8.85868C19 4.51844 14.9703 1 10 1C5.02975 1 1 4.51844 1 8.85868C1 10.8346 1.83588 12.6421 3.21625 14.023C3.11968 14.91 2.9219 15.7831 2.62675 16.6253L2.62337 16.6377C2.5395 16.8789 2.44795 17.1174 2.34888 17.3528C2.26 17.5616 2.43212 17.7951 2.656 17.7592C2.91662 17.7166 3.17653 17.6699 3.43563 17.6189ZM4.33562 14.1296C4.35138 13.9652 4.33062 13.7994 4.27481 13.644C4.219 13.4886 4.12952 13.3473 4.01275 13.2304C2.82025 12.0358 2.125 10.5068 2.125 8.85868C2.125 5.27512 5.5045 2.12267 10 2.12267C14.4955 2.12267 17.875 5.27512 17.875 8.85868C17.875 12.4434 14.4955 15.5947 10 15.5947C9.20699 15.5958 8.41725 15.4932 7.651 15.2893C7.38322 15.2177 7.09839 15.2473 6.85113 15.3724C6.41575 15.5924 5.45612 16.0123 3.88787 16.3749C4.10666 15.642 4.25656 14.8903 4.33562 14.1296Z"
          fill="#4B7BE5" stroke="#4B7BE5" stroke-width="0.5"/>
</svg>
