<svg width="46" height="43" viewBox="0 0 46 43" fill="none" xmlns="http://www.w3.org/2000/svg">
<path d="M36.0248 43.0004C38.5116 43.0004 40.5275 41.021 40.5275 38.5793C40.5275 36.1376 38.5116 34.1582 36.0248 34.1582C33.5379 34.1582 31.522 36.1376 31.522 38.5793C31.522 41.021 33.5379 43.0004 36.0248 43.0004Z" fill="#F5603F"/>
<path d="M11.2601 43.0004C13.7469 43.0004 15.7629 41.021 15.7629 38.5793C15.7629 36.1376 13.7469 34.1582 11.2601 34.1582C8.77329 34.1582 6.75732 36.1376 6.75732 38.5793C6.75732 41.021 8.77329 43.0004 11.2601 43.0004Z" fill="#F5603F"/>
<path d="M40.525 29.7373H11.257C9.45584 29.7373 8.33014 27.7478 9.45584 26.2004L13.5083 20.895L6.75417 1H0" stroke="#060B29" stroke-width="2" stroke-miterlimit="10"/>
<path d="M42.775 3.21484H7.65332L13.5069 23.1099H35.7957C36.6963 23.1099 37.5968 22.6678 37.822 21.7835L44.8013 6.30963C45.4767 4.76224 44.351 3.21484 42.775 3.21484ZM27.0153 18.6888V14.2676H18.0097V12.0571H27.0153V7.63596L33.7695 13.1624L27.0153 18.6888Z" fill="#060B29"/>
</svg>
