<svg width="74" height="75" viewBox="0 0 74 75" fill="none" xmlns="http://www.w3.org/2000/svg">
<g filter="url(#filter0_d)">
<rect x="15" y="12" width="44" height="44" rx="5" fill="#4B7BE5"/>
</g>
<g filter="url(#filter1_d)">
<rect x="15" y="11" width="44" height="44" rx="5" fill="white"/>
</g>
<path d="M44.8125 45C46.2492 45 47.414 43.8689 47.414 42.4736C47.414 41.0784 46.2492 39.9473 44.8125 39.9473C43.3757 39.9473 42.2109 41.0784 42.2109 42.4736C42.2109 43.8689 43.3757 45 44.8125 45Z" fill="#4B7BE5"/>
<path d="M30.5058 45C31.9426 45 33.1073 43.8689 33.1073 42.4736C33.1073 41.0784 31.9426 39.9473 30.5058 39.9473C29.069 39.9473 27.9043 41.0784 27.9043 42.4736C27.9043 43.8689 29.069 45 30.5058 45Z" fill="#4B7BE5"/>
<path d="M47.4136 37.4213H30.5038C29.4632 37.4213 28.8128 36.2844 29.4632 35.4002L31.8045 32.3686L27.9023 21H24" stroke="#060B29" stroke-width="2" stroke-miterlimit="10"/>
<path d="M48.7137 22.2646H28.4219L31.8038 33.6332H44.6813C45.2016 33.6332 45.7219 33.3806 45.852 32.8753L49.8844 24.0331C50.2746 23.1489 49.6242 22.2646 48.7137 22.2646ZM39.6084 31.1069V28.5805H34.4054V27.3174H39.6084V24.791L43.5107 27.9489L39.6084 31.1069Z" fill="#060B29"/>
<defs>
<filter id="filter0_d" x="0" y="1" width="74" height="74" filterUnits="userSpaceOnUse" color-interpolation-filters="sRGB">
<feFlood flood-opacity="0" result="BackgroundImageFix"/>
<feColorMatrix in="SourceAlpha" type="matrix" values="0 0 0 0 0 0 0 0 0 0 0 0 0 0 0 0 0 0 127 0" result="hardAlpha"/>
<feOffset dy="4"/>
<feGaussianBlur stdDeviation="7.5"/>
<feComposite in2="hardAlpha" operator="out"/>
<feColorMatrix type="matrix" values="0 0 0 0 0 0 0 0 0 0 0 0 0 0 0 0 0 0 0.08 0"/>
<feBlend mode="normal" in2="BackgroundImageFix" result="effect1_dropShadow"/>
<feBlend mode="normal" in="SourceGraphic" in2="effect1_dropShadow" result="shape"/>
</filter>
<filter id="filter1_d" x="0" y="0" width="74" height="74" filterUnits="userSpaceOnUse" color-interpolation-filters="sRGB">
<feFlood flood-opacity="0" result="BackgroundImageFix"/>
<feColorMatrix in="SourceAlpha" type="matrix" values="0 0 0 0 0 0 0 0 0 0 0 0 0 0 0 0 0 0 127 0" result="hardAlpha"/>
<feOffset dy="4"/>
<feGaussianBlur stdDeviation="7.5"/>
<feComposite in2="hardAlpha" operator="out"/>
<feColorMatrix type="matrix" values="0 0 0 0 0 0 0 0 0 0 0 0 0 0 0 0 0 0 0.08 0"/>
<feBlend mode="normal" in2="BackgroundImageFix" result="effect1_dropShadow"/>
<feBlend mode="normal" in="SourceGraphic" in2="effect1_dropShadow" result="shape"/>
</filter>
</defs>
</svg>
