<svg width="35" height="35" viewBox="0 0 35 35" fill="none" xmlns="http://www.w3.org/2000/svg">
<path d="M17.5 0C14.0388 0 10.6554 1.02636 7.77753 2.94928C4.89967 4.87221 2.65665 7.60533 1.33212 10.803C0.00758229 14.0007 -0.338976 17.5194 0.336265 20.9141C1.01151 24.3087 2.67822 27.4269 5.12564 29.8744C7.57306 32.3218 10.6913 33.9885 14.0859 34.6637C17.4806 35.339 20.9993 34.9924 24.197 33.6679C27.3947 32.3434 30.1278 30.1003 32.0507 27.2225C33.9736 24.3446 35 20.9612 35 17.5C35 15.2019 34.5473 12.9262 33.6679 10.803C32.7884 8.67984 31.4994 6.75066 29.8744 5.12563C28.2493 3.50061 26.3202 2.21157 24.197 1.33211C22.0738 0.452651 19.7981 0 17.5 0ZM26.46 12.6624L15.2113 23.9613H15.2029C14.9451 24.2297 14.5978 24.3943 14.2267 24.4239C13.8492 24.3966 13.4966 24.2249 13.2422 23.9446L8.53088 19.2333C8.49899 19.202 8.47366 19.1647 8.45636 19.1236C8.43907 19.0824 8.43016 19.0382 8.43016 18.9936C8.43016 18.9489 8.43907 18.9048 8.45636 18.8636C8.47366 18.8224 8.49899 18.7852 8.53088 18.7539L10.0283 17.2565C10.0587 17.2247 10.0952 17.1993 10.1357 17.182C10.1762 17.1647 10.2197 17.1558 10.2638 17.1558C10.3078 17.1558 10.3513 17.1647 10.3918 17.182C10.4323 17.1993 10.4688 17.2247 10.4992 17.2565L14.2351 20.9924L24.4992 10.6522C24.5299 10.6205 24.5665 10.5953 24.607 10.5779C24.6475 10.5605 24.6911 10.5514 24.7351 10.551C24.7794 10.5496 24.8235 10.558 24.8642 10.5755C24.905 10.593 24.9414 10.6191 24.971 10.6522L26.4433 12.1739C26.4782 12.2038 26.5065 12.2406 26.5264 12.282C26.5463 12.3235 26.5574 12.3685 26.559 12.4145C26.5605 12.4604 26.5526 12.5061 26.5355 12.5488C26.5185 12.5915 26.4928 12.6302 26.46 12.6624Z" fill="#0AB00F"/>
</svg>
