<svg width="6" height="10" viewBox="0 0 6 10" fill="none" xmlns="http://www.w3.org/2000/svg">
<path d="M0.995539 4.91536e-05C1.12361 -0.000314185 1.25016 0.0232349 1.36588 0.0689655C1.48159 0.114696 1.58354 0.181446 1.66423 0.26431L5.80498 4.54962C5.93107 4.67742 6 4.83772 6 5.00315C6 5.16858 5.93107 5.32888 5.80498 5.45668L1.51849 9.74199C1.37297 9.88784 1.16387 9.97956 0.937177 9.99698C0.710485 10.0144 0.484775 9.95607 0.309701 9.83483C0.134626 9.7136 0.0245285 9.5394 0.00362783 9.35054C-0.0172729 9.16168 0.0527354 8.97364 0.198252 8.82779L4.03037 4.99958L0.326847 1.17137C0.222014 1.06653 0.155422 0.93887 0.13495 0.803491C0.114478 0.668112 0.140983 0.530679 0.21133 0.407457C0.281676 0.284235 0.392919 0.180378 0.531896 0.108179C0.670872 0.0359779 0.831766 -0.0015454 0.995539 4.91536e-05Z" fill="#212121" fill-opacity="0.4"/>
</svg>
