<svg width="6" height="10" viewBox="0 0 6 10" fill="none" xmlns="http://www.w3.org/2000/svg">
<path d="M0.995538 4.91536e-05C1.12361 -0.000313231 1.25016 0.0232359 1.36588 0.0689665C1.48159 0.114697 1.58354 0.181447 1.66423 0.264311L5.80498 4.54962C5.93107 4.67742 6 4.83772 6 5.00315C6 5.16858 5.93107 5.32888 5.80498 5.45668L1.51849 9.74199C1.37297 9.88784 1.16387 9.97956 0.937176 9.99698C0.710484 10.0144 0.484774 9.95607 0.309699 9.83483C0.134625 9.7136 0.0245271 9.5394 0.0036264 9.35054C-0.0172743 9.16168 0.052734 8.97364 0.19825 8.82779L4.03037 4.99958L0.326846 1.17137C0.222013 1.06653 0.155421 0.938871 0.134949 0.803492C0.114477 0.668113 0.140982 0.53068 0.211328 0.407458C0.281675 0.284235 0.392918 0.180379 0.531895 0.10818C0.670871 0.0359788 0.831765 -0.00154445 0.995538 4.91536e-05Z" fill="#4B7BE5"/>
</svg>
