<svg width="16" height="16" viewBox="0 0 16 16" fill="none" xmlns="http://www.w3.org/2000/svg">
<path d="M8 0C6.41775 0 4.87103 0.469192 3.55544 1.34824C2.23985 2.22729 1.21447 3.47672 0.608967 4.93853C0.00346627 6.40034 -0.15496 8.00887 0.153721 9.56072C0.462403 11.1126 1.22433 12.538 2.34315 13.6569C3.46197 14.7757 4.88743 15.5376 6.43928 15.8463C7.99113 16.155 9.59966 15.9965 11.0615 15.391C12.5233 14.7855 13.7727 13.7602 14.6518 12.4446C15.5308 11.129 16 9.58225 16 8C16 5.87827 15.1571 3.84344 13.6569 2.34315C12.1566 0.842854 10.1217 0 8 0ZM11.8343 11.0229C11.8941 11.0741 11.9427 11.1371 11.977 11.208C12.0113 11.2789 12.0306 11.3561 12.0336 11.4348C12.0366 11.5135 12.0234 11.592 11.9947 11.6653C11.9659 11.7387 11.9223 11.8053 11.8667 11.8609C11.811 11.9166 11.7444 11.9602 11.671 11.9889C11.5977 12.0177 11.5192 12.0309 11.4405 12.0279C11.3618 12.0248 11.2846 12.0056 11.2137 11.9713C11.1428 11.937 11.0798 11.8884 11.0286 11.8286L8 8.80571L4.97715 11.8286C4.86783 11.9222 4.72722 11.9711 4.5834 11.9655C4.43959 11.96 4.30316 11.9004 4.2014 11.7986C4.09963 11.6968 4.04001 11.5604 4.03445 11.4166C4.0289 11.2728 4.07782 11.1322 4.17143 11.0229L7.19429 8L4.16572 4.97714C4.0721 4.86783 4.02318 4.72721 4.02874 4.5834C4.03429 4.43958 4.09391 4.30316 4.19568 4.20139C4.29745 4.09962 4.43387 4.04 4.57769 4.03445C4.7215 4.02889 4.86212 4.07781 4.97143 4.17143L8 7.19428L11.0229 4.17143C11.1322 4.07781 11.2728 4.02889 11.4166 4.03445C11.5604 4.04 11.6968 4.09962 11.7986 4.20139C11.9004 4.30316 11.96 4.43958 11.9656 4.5834C11.9711 4.72721 11.9222 4.86783 11.8286 4.97714L8.80572 8L11.8343 11.0229Z" fill="#212121" fill-opacity="0.2"/>
</svg>
