<svg width="74" height="70" viewBox="0 0 74 70" fill="none" xmlns="http://www.w3.org/2000/svg">
<g filter="url(#filter0_d_196_17342)">
<rect x="15" y="11" width="44" height="40" rx="10" fill="white"/>
<rect x="15.5" y="11.5" width="43" height="39" rx="9.5" stroke="#212121" stroke-opacity="0.1"/>
<path d="M24.2172 32.8333H32.032C32.1522 32.8333 32.2439 32.7361 32.2495 32.6218C32.2495 32.4389 32.261 32.2504 32.2897 32.0619C32.2953 32.0218 32.3012 31.9876 32.3127 31.9476L32.3242 31.8734C32.3472 31.7305 32.3699 31.6162 32.3985 31.5076C32.41 31.4619 32.4272 31.4162 32.4443 31.3647L32.4673 31.2905C32.5074 31.1532 32.5417 31.0619 32.5762 30.9762C32.5992 30.9247 32.6219 30.879 32.6449 30.8219L32.6792 30.7533C32.7364 30.6275 32.7765 30.5477 32.8223 30.4676C32.8509 30.416 32.8852 30.3648 32.9197 30.3132L32.9539 30.2561C33.0168 30.1533 33.0684 30.0732 33.1257 29.999C33.1658 29.9474 33.2059 29.8962 33.2517 29.8446C33.3491 29.7247 33.4178 29.6446 33.4863 29.5704C33.5379 29.5189 33.5893 29.4676 33.6409 29.422C33.7439 29.3248 33.8242 29.2561 33.9042 29.1878C33.9729 29.1306 34.0417 29.0791 34.1332 29.0164C34.2075 28.9592 34.2362 28.8505 34.196 28.7648C33.99 28.2791 33.7038 27.8106 33.3603 27.4106C33.2859 27.3193 33.1484 27.3078 33.0569 27.382C32.0034 28.2506 30.6755 28.7304 29.3071 28.7304C27.9387 28.7304 26.6107 28.2503 25.5573 27.382C25.4658 27.3078 25.3339 27.3193 25.2595 27.4106C24.4465 28.3649 24 29.5819 24 30.839V32.6333C24.0056 32.7361 24.103 32.8333 24.2175 32.8333L24.2172 32.8333Z" fill="#111156"/>
<path d="M29.5717 27.3333C31.62 27.3333 33.2859 25.6887 33.2859 23.6667C33.2859 21.6446 31.62 20 29.5717 20C27.5234 20 25.8574 21.6446 25.8574 23.6667C25.8574 25.6887 27.5234 27.3333 29.5717 27.3333Z" fill="#97C0FF"/>
<path d="M42.5714 41.7836V39.9948C42.5714 38.7416 42.1027 37.5284 41.2492 36.577C41.1711 36.486 41.0268 36.4746 40.9366 36.5486C39.8307 37.4145 38.4366 37.8928 37.0001 37.8928C35.5636 37.8928 34.1694 37.4142 33.0635 36.5486C32.9675 36.4746 32.829 36.486 32.7509 36.577C31.8974 37.5284 31.4287 38.7416 31.4287 39.9948V41.7836C31.4287 41.9031 31.5309 42 31.657 42H42.355C42.4693 41.9944 42.5715 41.8975 42.5715 41.7836H42.5714Z" fill="#111156"/>
<path d="M40.0753 29.1935C40.1555 29.2619 40.2299 29.3303 40.3043 29.3985C40.3846 29.4783 40.4419 29.5239 40.4933 29.575C40.5621 29.649 40.6308 29.7288 40.6993 29.8084C40.7737 29.8995 40.8139 29.9508 40.854 30.0022C40.9113 30.0762 40.9629 30.156 41.0143 30.2415L41.066 30.3213C41.1002 30.3727 41.1289 30.4238 41.1634 30.4752C41.2091 30.555 41.2437 30.6346 41.2835 30.7145L41.3408 30.8284C41.3638 30.8739 41.3866 30.9253 41.4096 30.9764C41.4438 31.0675 41.4725 31.1529 41.507 31.2498L41.5471 31.3693C41.5643 31.4148 41.5814 31.4603 41.5929 31.5117C41.6215 31.6201 41.6445 31.734 41.6617 31.8479L41.6847 31.9504C41.6903 31.9845 41.7018 32.0244 41.7077 32.0643C41.7307 32.2522 41.7478 32.4402 41.7478 32.6225C41.7478 32.742 41.8452 32.8333 41.9654 32.8333H49.7828C49.9029 32.8333 50.0004 32.7364 50.0004 32.6169V30.8281C50.0004 29.5749 49.5537 28.3617 48.7404 27.4103C48.666 27.3193 48.5285 27.3079 48.4426 27.3819C47.3887 28.2478 46.0603 28.7261 44.6915 28.7261C43.3227 28.7261 41.9942 28.2475 40.9404 27.3819C40.8489 27.3079 40.717 27.3193 40.6369 27.4103C40.2989 27.8091 40.007 28.2763 39.8009 28.7604C39.7608 28.8514 39.8066 28.9712 39.8868 29.0282C39.9382 29.091 40.007 29.1424 40.0755 29.1935L40.0753 29.1935Z" fill="#111156"/>
<path d="M33.2852 32.8233C33.2852 32.9693 33.2962 33.1153 33.3125 33.2558C33.531 35.1051 35.115 36.5 36.9995 36.5C38.8839 36.5 40.4679 35.1051 40.6864 33.2558C40.7027 33.1153 40.7137 32.9693 40.7137 32.8233C40.7137 31.5256 40.009 30.309 38.8675 29.6493C37.7531 29.0058 36.2457 29.0058 35.1259 29.6493C33.9899 30.309 33.2852 31.5256 33.2852 32.8233H33.2852Z" fill="#97C0FF"/>
<path d="M44.4281 27.3333C46.4764 27.3333 48.1424 25.6887 48.1424 23.6667C48.1424 21.6446 46.4764 20 44.4281 20C42.3799 20 40.7139 21.6446 40.7139 23.6667C40.7139 25.6887 42.3799 27.3333 44.4281 27.3333Z" fill="#97C0FF"/>
</g>
<defs>
<filter id="filter0_d_196_17342" x="0" y="0" width="74" height="70" filterUnits="userSpaceOnUse" color-interpolation-filters="sRGB">
<feFlood flood-opacity="0" result="BackgroundImageFix"/>
<feColorMatrix in="SourceAlpha" type="matrix" values="0 0 0 0 0 0 0 0 0 0 0 0 0 0 0 0 0 0 127 0" result="hardAlpha"/>
<feOffset dy="4"/>
<feGaussianBlur stdDeviation="7.5"/>
<feComposite in2="hardAlpha" operator="out"/>
<feColorMatrix type="matrix" values="0 0 0 0 0 0 0 0 0 0 0 0 0 0 0 0 0 0 0.06 0"/>
<feBlend mode="normal" in2="BackgroundImageFix" result="effect1_dropShadow_196_17342"/>
<feBlend mode="normal" in="SourceGraphic" in2="effect1_dropShadow_196_17342" result="shape"/>
</filter>
</defs>
</svg>
