<svg xmlns="http://www.w3.org/2000/svg" width="14" height="16" viewBox="0 0 14 16" fill="none">
<path d="M10.015 0H1.431C1.0518 0.00105554 0.688432 0.15216 0.420296 0.420296C0.15216 0.688432 0.00105554 1.0518 0 1.431V11.445H1.431V1.431H10.015V0ZM12.161 2.861H4.292C3.9128 2.86206 3.54943 3.01316 3.2813 3.2813C3.01316 3.54943 2.86206 3.9128 2.861 4.292V14.307C2.86206 14.6862 3.01316 15.0496 3.2813 15.3177C3.54943 15.5858 3.9128 15.7369 4.292 15.738H12.161C12.5402 15.7369 12.9036 15.5858 13.1717 15.3177C13.4398 15.0496 13.5909 14.6862 13.592 14.307V4.292C13.5909 3.9128 13.4398 3.54943 13.1717 3.2813C12.9036 3.01316 12.5402 2.86206 12.161 2.861ZM12.161 14.306H4.292V4.292H12.161V14.306Z" fill="#4B7BE5"/>
</svg>
