<svg width="74" height="75" viewBox="0 0 74 75" fill="none" xmlns="http://www.w3.org/2000/svg">
<g filter="url(#filter0_d)">
<rect x="15" y="12" width="44" height="44" rx="5" fill="#4B7BE5"/>
</g>
<g filter="url(#filter1_d)">
<rect x="15" y="11" width="44" height="44" rx="5" fill="white"/>
</g>
<path d="M37 21C34.6266 21 32.3066 21.7038 30.3332 23.0224C28.3598 24.3409 26.8217 26.2151 25.9135 28.4078C25.0052 30.6005 24.7676 33.0133 25.2306 35.3411C25.6936 37.6689 26.8365 39.807 28.5147 41.4853C30.193 43.1635 32.3311 44.3064 34.6589 44.7694C36.9867 45.2324 39.3995 44.9948 41.5922 44.0865C43.7849 43.1783 45.6591 41.6402 46.9776 39.6668C48.2962 37.6934 49 35.3734 49 33C49 29.8174 47.7357 26.7652 45.4853 24.5147C43.2348 22.2643 40.1826 21 37 21ZM34 38.6614C33.9847 38.7505 33.9416 38.8324 33.877 38.8955C33.8123 38.9586 33.7294 38.9997 33.64 39.0129H33.5714C33.4916 39.0134 33.4131 38.9916 33.345 38.95C33.2768 38.9083 33.2217 38.8485 33.1857 38.7771L32.7143 37.8257L32.2429 38.7814C32.2042 38.8658 32.1393 38.9354 32.0577 38.9797C31.9762 39.024 31.8825 39.0406 31.7907 39.0271C31.6989 39.0135 31.6139 38.9706 31.5486 38.9046C31.4833 38.8387 31.4412 38.7534 31.4286 38.6614L31 36.0686C30.991 36.0123 30.9932 35.9548 31.0064 35.8993C31.0196 35.8439 31.0436 35.7916 31.077 35.7454C31.1105 35.6993 31.1527 35.6601 31.2012 35.6303C31.2498 35.6004 31.3037 35.5804 31.36 35.5714C31.4163 35.5624 31.4738 35.5646 31.5292 35.5778C31.5847 35.591 31.637 35.615 31.6831 35.6485C31.7293 35.6819 31.7684 35.7241 31.7983 35.7726C31.8281 35.8212 31.8481 35.8751 31.8571 35.9314L32.0671 37.2171L32.3329 36.6814C32.368 36.609 32.4227 36.5479 32.491 36.5051C32.5592 36.4623 32.6381 36.4397 32.7186 36.4397C32.7991 36.4397 32.878 36.4623 32.9462 36.5051C33.0144 36.5479 33.0692 36.609 33.1043 36.6814L33.37 37.2171L33.58 35.9314C33.5884 35.8757 33.6077 35.8221 33.6368 35.7738C33.6659 35.7256 33.7042 35.6835 33.7496 35.6501C33.795 35.6166 33.8465 35.5925 33.9013 35.579C33.956 35.5655 34.0128 35.5629 34.0686 35.5714C34.1252 35.5797 34.1795 35.5993 34.2284 35.629C34.2774 35.6586 34.3199 35.6978 34.3534 35.7441C34.387 35.7904 34.4109 35.843 34.4238 35.8987C34.4367 35.9545 34.4383 36.0122 34.4286 36.0686L34 38.6614ZM38.2857 38.6614C38.2704 38.7505 38.2274 38.8324 38.1627 38.8955C38.0981 38.9586 38.0151 38.9997 37.9257 39.0129H37.8571C37.7773 39.0134 37.6988 38.9916 37.6307 38.95C37.5625 38.9083 37.5074 38.8485 37.4714 38.7771L37 37.8257L36.5286 38.7814C36.49 38.8658 36.425 38.9354 36.3435 38.9797C36.2619 39.024 36.1682 39.0406 36.0764 39.0271C35.9846 39.0135 35.8996 38.9706 35.8343 38.9046C35.7691 38.8387 35.7269 38.7534 35.7143 38.6614L35.2857 36.0686C35.2767 36.0123 35.2789 35.9548 35.2921 35.8993C35.3053 35.8439 35.3293 35.7916 35.3628 35.7454C35.3962 35.6993 35.4384 35.6601 35.4869 35.6303C35.5355 35.6004 35.5894 35.5804 35.6457 35.5714C35.702 35.5624 35.7595 35.5646 35.8149 35.5778C35.8704 35.591 35.9227 35.615 35.9688 35.6485C36.015 35.6819 36.0541 35.7241 36.084 35.7726C36.1139 35.8212 36.1339 35.8751 36.1429 35.9314L36.3529 37.2171L36.6186 36.6814C36.6537 36.609 36.7085 36.5479 36.7767 36.5051C36.8449 36.4623 36.9238 36.4397 37.0043 36.4397C37.0848 36.4397 37.1637 36.4623 37.2319 36.5051C37.3001 36.5479 37.3549 36.609 37.39 36.6814L37.6557 37.2171L37.8657 35.9314C37.8747 35.8751 37.8947 35.8212 37.9246 35.7726C37.9544 35.7241 37.9936 35.6819 38.0397 35.6485C38.0859 35.615 38.1382 35.591 38.1936 35.5778C38.2491 35.5646 38.3066 35.5624 38.3629 35.5714C38.4191 35.5804 38.4731 35.6004 38.5216 35.6303C38.5702 35.6601 38.6124 35.6993 38.6458 35.7454C38.6793 35.7916 38.7033 35.8439 38.7165 35.8993C38.7297 35.9548 38.7319 36.0123 38.7229 36.0686L38.2857 38.6614ZM42.5714 38.6614C42.5561 38.7505 42.5131 38.8324 42.4484 38.8955C42.3838 38.9586 42.3008 38.9997 42.2114 39.0129H42.1429C42.063 39.0134 41.9846 38.9916 41.9164 38.95C41.8482 38.9083 41.7931 38.8485 41.7571 38.7771L41.2857 37.8257L40.8143 38.7814C40.7757 38.8658 40.7107 38.9354 40.6292 38.9797C40.5476 39.024 40.4539 39.0406 40.3621 39.0271C40.2703 39.0135 40.1854 38.9706 40.1201 38.9046C40.0548 38.8387 40.0126 38.7534 40 38.6614L39.5714 36.0686C39.5624 36.0123 39.5646 35.9548 39.5778 35.8993C39.591 35.8439 39.615 35.7916 39.6485 35.7454C39.6819 35.6993 39.7241 35.6601 39.7726 35.6303C39.8212 35.6004 39.8752 35.5804 39.9314 35.5714C39.9877 35.5624 40.0452 35.5646 40.1007 35.5778C40.1561 35.591 40.2084 35.615 40.2546 35.6485C40.3007 35.6819 40.3399 35.7241 40.3697 35.7726C40.3996 35.8212 40.4196 35.8751 40.4286 35.9314L40.6386 37.2171L40.9043 36.6814C40.9394 36.609 40.9942 36.5479 41.0624 36.5051C41.1306 36.4623 41.2095 36.4397 41.29 36.4397C41.3705 36.4397 41.4494 36.4623 41.5176 36.5051C41.5858 36.5479 41.6406 36.609 41.6757 36.6814L41.9414 37.2171L42.1514 35.9314C42.1696 35.8178 42.2322 35.716 42.3254 35.6485C42.4187 35.581 42.5349 35.5532 42.6486 35.5714C42.7622 35.5896 42.864 35.6522 42.9315 35.7454C42.999 35.8387 43.0268 35.9549 43.0086 36.0686L42.5714 38.6614ZM47.7143 33.4286H26.2857C26.1721 33.4286 26.063 33.3834 25.9827 33.303C25.9023 33.2227 25.8571 33.1137 25.8571 33C25.8571 32.8863 25.9023 32.7773 25.9827 32.697C26.063 32.6166 26.1721 32.5714 26.2857 32.5714H30.1429C30.1952 30.6172 30.6214 28.691 31.3986 26.8971C30.7108 26.5333 30.0605 26.1027 29.4571 25.6114C29.3918 25.5557 29.3446 25.4816 29.3219 25.3988C29.2991 25.316 29.3017 25.2282 29.3294 25.1469C29.3572 25.0656 29.4087 24.9945 29.4773 24.9428C29.5459 24.8912 29.6285 24.8613 29.7143 24.8571C29.8124 24.8567 29.9077 24.89 29.9843 24.9514C30.5394 25.4043 31.1364 25.8032 31.7671 26.1429C32.5412 24.5942 33.6097 23.2113 34.9129 22.0714L35.02 21.9771C35.0918 21.9073 35.1858 21.8649 35.2857 21.8571C35.3824 21.8577 35.476 21.8909 35.5514 21.9514C35.5735 21.9692 35.5936 21.9894 35.6114 22.0114C35.6835 22.0981 35.7185 22.2097 35.7089 22.322C35.6992 22.4343 35.6458 22.5383 35.56 22.6114C34.2966 23.6902 33.2633 25.0121 32.5214 26.4986C33.7994 27.065 35.1743 27.3808 36.5714 27.4286V22.2857C36.5714 22.172 36.6166 22.063 36.697 21.9827C36.7773 21.9023 36.8863 21.8571 37 21.8571C37.1137 21.8571 37.2227 21.9023 37.303 21.9827C37.3834 22.063 37.4286 22.172 37.4286 22.2857V27.4286C38.8193 27.3813 40.1882 27.0685 41.4614 26.5071C40.7189 25.0333 39.6904 23.7221 38.4357 22.65C38.3929 22.6134 38.3578 22.5688 38.3323 22.5186C38.3068 22.4684 38.2914 22.4137 38.287 22.3576C38.2826 22.3015 38.2893 22.2451 38.3068 22.1916C38.3242 22.138 38.352 22.0885 38.3886 22.0457C38.4092 22.0208 38.4322 21.9978 38.4571 21.9771C38.5332 21.9163 38.6276 21.8831 38.725 21.8831C38.8224 21.8831 38.9168 21.9163 38.9929 21.9771L39.0914 22.0629C40.3933 23.2063 41.4602 24.592 42.2329 26.1429C42.857 25.8077 43.4482 25.4146 43.9986 24.9686C44.0872 24.897 44.2007 24.8635 44.314 24.8756C44.4274 24.8876 44.5312 24.9442 44.6029 25.0329C44.6745 25.1215 44.7079 25.235 44.6959 25.3483C44.6838 25.4616 44.6272 25.5655 44.5386 25.6371C43.9352 26.1284 43.2849 26.559 42.5971 26.9229C43.3722 28.7086 43.7998 30.6256 43.8571 32.5714H47.7143C47.828 32.5714 47.937 32.6166 48.0173 32.697C48.0977 32.7773 48.1429 32.8863 48.1429 33C48.1429 33.1137 48.0977 33.2227 48.0173 33.303C47.937 33.3834 47.828 33.4286 47.7143 33.4286Z" fill="#060B29"/>
<path d="M34.0055 38.6619C33.9901 38.7509 33.9471 38.8328 33.8824 38.896C33.8178 38.9591 33.7348 39.0001 33.6455 39.0133H33.5769C33.497 39.0138 33.4186 38.9921 33.3504 38.9504C33.2823 38.9088 33.2271 38.8489 33.1912 38.7776L32.7197 37.8261L32.2483 38.7819C32.2097 38.8662 32.1447 38.9358 32.0632 38.9801C31.9816 39.0244 31.8879 39.041 31.7961 39.0275C31.7043 39.014 31.6194 38.971 31.5541 38.9051C31.4888 38.8391 31.4467 38.7538 31.434 38.6619L31.0055 36.069C30.9964 36.0127 30.9986 35.9552 31.0118 35.8998C31.0251 35.8443 31.0491 35.792 31.0825 35.7459C31.1159 35.6997 31.1581 35.6606 31.2067 35.6307C31.2552 35.6009 31.3092 35.5809 31.3655 35.5719C31.4217 35.5629 31.4792 35.565 31.5347 35.5782C31.5901 35.5915 31.6424 35.6155 31.6886 35.6489C31.7347 35.6823 31.7739 35.7245 31.8037 35.7731C31.8336 35.8216 31.8536 35.8756 31.8626 35.9319L32.0726 37.2176L32.3383 36.6819C32.3734 36.6094 32.4282 36.5483 32.4964 36.5055C32.5646 36.4628 32.6435 36.4401 32.724 36.4401C32.8045 36.4401 32.8834 36.4628 32.9516 36.5055C33.0198 36.5483 33.0746 36.6094 33.1097 36.6819L33.3755 37.2176L33.5855 35.9319C33.5938 35.8761 33.6131 35.8226 33.6422 35.7743C33.6713 35.726 33.7097 35.6839 33.755 35.6505C33.8004 35.617 33.852 35.5929 33.9067 35.5794C33.9614 35.5659 34.0183 35.5633 34.074 35.5719C34.1306 35.5802 34.185 35.5997 34.2339 35.6294C34.2828 35.659 34.3253 35.6982 34.3589 35.7445C34.3924 35.7909 34.4163 35.8434 34.4292 35.8992C34.4422 35.9549 34.4438 36.0126 34.434 36.069L34.0055 38.6619ZM38.2912 38.6619C38.2759 38.7509 38.2328 38.8328 38.1682 38.896C38.1035 38.9591 38.0206 39.0001 37.9312 39.0133H37.8626C37.7827 39.0138 37.7043 38.9921 37.6361 38.9504C37.568 38.9088 37.5128 38.8489 37.4769 38.7776L37.0054 37.8261L36.534 38.7819C36.4954 38.8662 36.4304 38.9358 36.3489 38.9801C36.2674 39.0244 36.1736 39.041 36.0818 39.0275C35.99 39.014 35.9051 38.971 35.8398 38.9051C35.7745 38.8391 35.7324 38.7538 35.7197 38.6619L35.2912 36.069C35.2822 36.0127 35.2843 35.9552 35.2975 35.8998C35.3108 35.8443 35.3348 35.792 35.3682 35.7459C35.4016 35.6997 35.4438 35.6606 35.4924 35.6307C35.5409 35.6009 35.5949 35.5809 35.6512 35.5719C35.7074 35.5629 35.7649 35.565 35.8204 35.5782C35.8758 35.5915 35.9281 35.6155 35.9743 35.6489C36.0205 35.6823 36.0596 35.7245 36.0894 35.7731C36.1193 35.8216 36.1393 35.8756 36.1483 35.9319L36.3583 37.2176L36.624 36.6819C36.6591 36.6094 36.7139 36.5483 36.7821 36.5055C36.8503 36.4628 36.9292 36.4401 37.0097 36.4401C37.0902 36.4401 37.1691 36.4628 37.2373 36.5055C37.3056 36.5483 37.3604 36.6094 37.3954 36.6819L37.6612 37.2176L37.8712 35.9319C37.8802 35.8756 37.9002 35.8216 37.93 35.7731C37.9599 35.7245 37.999 35.6823 38.0452 35.6489C38.0913 35.6155 38.1436 35.5915 38.1991 35.5782C38.2545 35.565 38.312 35.5629 38.3683 35.5719C38.4246 35.5809 38.4785 35.6009 38.5271 35.6307C38.5756 35.6606 38.6178 35.6997 38.6513 35.7459C38.6847 35.792 38.7087 35.8443 38.7219 35.8998C38.7351 35.9552 38.7373 36.0127 38.7283 36.069L38.2912 38.6619ZM42.5769 38.6619C42.5616 38.7509 42.5185 38.8328 42.4539 38.896C42.3892 38.9591 42.3063 39.0001 42.2169 39.0133H42.1483C42.0684 39.0138 41.99 38.9921 41.9218 38.9504C41.8537 38.9088 41.7985 38.8489 41.7626 38.7776L41.2912 37.8261L40.8197 38.7819C40.7811 38.8662 40.7162 38.9358 40.6346 38.9801C40.5531 39.0244 40.4594 39.041 40.3675 39.0275C40.2757 39.014 40.1908 38.971 40.1255 38.9051C40.0602 38.8391 40.0181 38.7538 40.0054 38.6619L39.5769 36.069C39.5679 36.0127 39.57 35.9552 39.5833 35.8998C39.5965 35.8443 39.6205 35.792 39.6539 35.7459C39.6873 35.6997 39.7295 35.6606 39.7781 35.6307C39.8266 35.6009 39.8806 35.5809 39.9369 35.5719C39.9932 35.5629 40.0507 35.565 40.1061 35.5782C40.1615 35.5915 40.2138 35.6155 40.26 35.6489C40.3062 35.6823 40.3453 35.7245 40.3752 35.7731C40.405 35.8216 40.425 35.8756 40.434 35.9319L40.644 37.2176L40.9097 36.6819C40.9448 36.6094 40.9996 36.5483 41.0678 36.5055C41.1361 36.4628 41.2149 36.4401 41.2954 36.4401C41.376 36.4401 41.4548 36.4628 41.5231 36.5055C41.5913 36.5483 41.6461 36.6094 41.6812 36.6819L41.9469 37.2176L42.1569 35.9319C42.1751 35.8182 42.2377 35.7164 42.3309 35.6489C42.4241 35.5814 42.5404 35.5537 42.654 35.5719C42.7677 35.59 42.8695 35.6526 42.937 35.7459C43.0045 35.8391 43.0322 35.9553 43.014 36.069L42.5769 38.6619Z" fill="#4B7BE5"/>
<path d="M31.0039 32.5718H36.5753V28.2861C35.0591 28.235 33.5666 27.8946 32.1782 27.2832C31.4573 28.9564 31.0589 30.7507 31.0039 32.5718Z" fill="#97C0FF"/>
<path d="M37.4336 28.2852V32.571H43.005C42.9506 30.7461 42.5537 28.9478 41.835 27.2695C40.4461 27.8859 38.9521 28.2306 37.4336 28.2852Z" fill="#97C0FF"/>
<defs>
<filter id="filter0_d" x="0" y="1" width="74" height="74" filterUnits="userSpaceOnUse" color-interpolation-filters="sRGB">
<feFlood flood-opacity="0" result="BackgroundImageFix"/>
<feColorMatrix in="SourceAlpha" type="matrix" values="0 0 0 0 0 0 0 0 0 0 0 0 0 0 0 0 0 0 127 0" result="hardAlpha"/>
<feOffset dy="4"/>
<feGaussianBlur stdDeviation="7.5"/>
<feComposite in2="hardAlpha" operator="out"/>
<feColorMatrix type="matrix" values="0 0 0 0 0 0 0 0 0 0 0 0 0 0 0 0 0 0 0.08 0"/>
<feBlend mode="normal" in2="BackgroundImageFix" result="effect1_dropShadow"/>
<feBlend mode="normal" in="SourceGraphic" in2="effect1_dropShadow" result="shape"/>
</filter>
<filter id="filter1_d" x="0" y="0" width="74" height="74" filterUnits="userSpaceOnUse" color-interpolation-filters="sRGB">
<feFlood flood-opacity="0" result="BackgroundImageFix"/>
<feColorMatrix in="SourceAlpha" type="matrix" values="0 0 0 0 0 0 0 0 0 0 0 0 0 0 0 0 0 0 127 0" result="hardAlpha"/>
<feOffset dy="4"/>
<feGaussianBlur stdDeviation="7.5"/>
<feComposite in2="hardAlpha" operator="out"/>
<feColorMatrix type="matrix" values="0 0 0 0 0 0 0 0 0 0 0 0 0 0 0 0 0 0 0.08 0"/>
<feBlend mode="normal" in2="BackgroundImageFix" result="effect1_dropShadow"/>
<feBlend mode="normal" in="SourceGraphic" in2="effect1_dropShadow" result="shape"/>
</filter>
</defs>
</svg>
