<svg width="20" height="22" viewBox="0 0 20 22" fill="none" xmlns="http://www.w3.org/2000/svg">
    <path d="M19.4634 0.0277178C19.1574 -0.0600057 18.8303 0.0654902 18.6616 0.335463C18.4021 0.750675 17.9724 0.988823 17.4827 0.988823C16.9931 0.988823 16.5634 0.750675 16.3039 0.335463C16.1735 0.126811 15.9448 7.81749e-05 15.6988 7.81749e-05C15.4527 7.81749e-05 15.224 0.126811 15.0936 0.335463C14.8341 0.750675 14.4045 0.988823 13.9148 0.988823C13.4251 0.988823 12.9955 0.750675 12.736 0.335463C12.6056 0.126811 12.3769 7.81749e-05 12.1308 7.81749e-05C11.8848 7.81749e-05 11.6561 0.126811 11.5257 0.335463C11.2662 0.750675 10.8365 0.988823 10.3469 0.988823C9.8572 0.988823 9.42753 0.750675 9.16802 0.335463C9.03763 0.126811 8.80895 7.81749e-05 8.5629 7.81749e-05C8.31686 7.81749e-05 8.08818 0.126811 7.95778 0.335463C7.69827 0.750675 7.2686 0.988823 6.77894 0.988823C6.28927 0.988823 5.8596 0.750675 5.60009 0.335463C5.43135 0.0654902 5.10424 -0.0600533 4.79826 0.0277178C4.49227 0.115489 4.28138 0.39531 4.28138 0.713664V16.2913L2.14062 22H16.4123C18.3797 22 19.9803 20.3994 19.9803 18.4321V0.713664C19.9803 0.39531 19.7694 0.115441 19.4634 0.0277178Z"
          fill="#111156"/>
    <path d="M0 19.859V17.0046C0 16.6105 0.319449 16.291 0.713588 16.291H4.28153V19.859C4.28153 21.0413 3.32308 21.9997 2.14076 21.9997C0.958443 21.9997 0 21.0413 0 19.859Z"
          fill="#41417C"/>
    <path opacity="0.7"
          d="M7.85031 16.4818H16.4134C16.8074 16.4818 17.1269 16.1623 17.1269 15.7682C17.1269 15.3741 16.8074 15.0546 16.4134 15.0546H7.85031C7.45622 15.0546 7.13672 15.3741 7.13672 15.7682C7.13672 16.1623 7.45622 16.4818 7.85031 16.4818ZM12.1318 10.7255C11.7384 10.7255 11.4182 10.4054 11.4182 10.0119C11.4182 9.6178 11.0987 9.2983 10.7047 9.2983C10.3106 9.2983 9.99107 9.6178 9.99107 10.0119C9.99107 10.9422 10.5877 11.7353 11.4182 12.0299V12.9138C11.4182 13.3079 11.7377 13.6274 12.1318 13.6274C12.5259 13.6274 12.8454 13.3079 12.8454 12.9138V12.0299C13.676 11.7353 14.2726 10.9422 14.2726 10.0119C14.2726 8.83147 13.3122 7.87113 12.1318 7.87113C11.7384 7.87113 11.4182 7.55101 11.4182 7.15754C11.4182 6.76407 11.7384 6.44395 12.1318 6.44395C12.5253 6.44395 12.8454 6.76407 12.8454 7.15754C12.8454 7.55163 13.1649 7.87113 13.559 7.87113C13.9531 7.87113 14.2726 7.55163 14.2726 7.15754C14.2726 6.22726 13.676 5.43408 12.8454 5.13951V4.30319C12.8454 3.9091 12.5259 3.5896 12.1318 3.5896C11.7377 3.5896 11.4182 3.9091 11.4182 4.30319V5.13951C10.5877 5.43408 9.99107 6.22726 9.99107 7.15754C9.99107 8.33795 10.9514 9.2983 12.1318 9.2983C12.5253 9.2983 12.8454 9.61842 12.8454 10.0119C12.8454 10.4054 12.5253 10.7255 12.1318 10.7255ZM16.4134 17.9089H7.85031C7.45622 17.9089 7.13672 18.2284 7.13672 18.6225C7.13672 19.0166 7.45622 19.3361 7.85031 19.3361H16.4134C16.8074 19.3361 17.1269 19.0166 17.1269 18.6225C17.1269 18.2284 16.8074 17.9089 16.4134 17.9089Z"
          fill="#97C0FF"/>
</svg>
