<svg width="24" height="22" viewBox="0 0 24 22" fill="none" xmlns="http://www.w3.org/2000/svg">
<path d="M6.08294 8.48807C6.08294 6.69856 7.54979 5.24761 9.3589 5.24761C10.7769 5.24761 11.9992 6.16655 12.4393 7.42404L16.4242 3.48229L14.5173 1.59605C14.2973 1.3784 13.9306 1.3784 13.7106 1.59605L12.7815 2.51498C12.2926 2.24898 11.7792 2.03133 11.2169 1.88624V0.580381C11.2169 0.241825 10.948 0 10.6302 0H8.08763C7.74537 0 7.50089 0.241825 7.50089 0.580381V1.88624C6.9386 2.03133 6.4252 2.24898 5.93625 2.51498L5.00725 1.59605C4.78722 1.3784 4.42051 1.3784 4.20048 1.59605L2.41581 3.36137C2.19579 3.57902 2.19579 3.94175 2.41581 4.1594L3.34482 5.07833C3.0759 5.56198 2.85587 6.06982 2.70918 6.62602H1.36457C1.02231 6.62602 0.777832 6.89202 0.777832 7.2064V9.6972C0.777832 10.0358 1.02231 10.2776 1.36457 10.2776H2.68474C2.83142 10.8338 3.05145 11.3416 3.32037 11.8253L2.39137 12.7442C2.14689 12.9618 2.17134 13.3246 2.39137 13.5422L4.29827 15.4285L8.28321 11.4867C6.98749 11.0998 6.08294 9.89066 6.08294 8.48807Z" fill="#34B751"/>
<path d="M16.8915 6.31156L8.17899 14.9297L11.9302 18.6403L20.6428 10.0221L16.8915 6.31156Z" fill="#34B751"/>
<path d="M23.7586 5.85335L21.1427 3.24164C20.8249 2.92727 20.3359 2.92727 20.0181 3.24164L18.3068 4.93442L22.0717 8.65853L23.783 6.96575C24.0764 6.65138 24.0764 6.14354 23.7586 5.85335Z" fill="#34B751"/>
<path d="M5.81427 17.2915C5.71648 17.3883 5.64314 17.5333 5.59425 17.6784L4.81193 21.0398C4.68969 21.596 5.20309 22.1038 5.76538 21.9829L9.16358 21.2091C9.31026 21.1849 9.4325 21.1124 9.55474 20.9914L10.5326 20.0241L6.79217 16.3242L5.81427 17.2915Z" fill="#34B751"/>
</svg>
