<svg width="74" height="75" viewBox="0 0 74 75" fill="none" xmlns="http://www.w3.org/2000/svg">
<g filter="url(#filter0_d)">
<rect x="15" y="12" width="44" height="44" rx="5" fill="#4B7BE5"/>
</g>
<g filter="url(#filter1_d)">
<rect x="15" y="11" width="44" height="44" rx="5" fill="white"/>
</g>
<path d="M46.8495 26.084H46.0554V26.2223C46.0597 26.2943 46.0483 26.3663 46.0219 26.4341C45.9955 26.5018 45.9546 26.5637 45.9018 26.6161C45.849 26.6685 45.7854 26.7102 45.7148 26.7387C45.6442 26.7673 45.5682 26.782 45.4913 26.782C45.4144 26.782 45.3384 26.7673 45.2678 26.7387C45.1972 26.7102 45.1336 26.6685 45.0808 26.6161C45.028 26.5637 44.9871 26.5018 44.9607 26.4341C44.9343 26.3663 44.9229 26.2943 44.9272 26.2223V26.084H24.768V26.2223C24.7723 26.2943 24.7609 26.3663 24.7345 26.4341C24.7081 26.5018 24.6672 26.5637 24.6144 26.6161C24.5616 26.6685 24.498 26.7102 24.4274 26.7387C24.3568 26.7673 24.2808 26.782 24.2039 26.782C24.127 26.782 24.051 26.7673 23.9804 26.7387C23.9098 26.7102 23.8462 26.6685 23.7934 26.6161C23.7406 26.5637 23.6997 26.5018 23.6733 26.4341C23.6469 26.3663 23.6355 26.2943 23.6398 26.2223V26.0823H22.8528C22.6029 26.0505 22.3486 26.0733 22.1097 26.1491C21.8709 26.2248 21.6539 26.3514 21.476 26.519C21.298 26.6866 21.1639 26.8905 21.084 27.1149C21.0042 27.3392 20.9808 27.5779 21.0158 27.8121V41.2073C21.0158 41.3389 21.0158 41.4472 21.0246 41.5572C21.0311 41.9333 21.1939 42.2922 21.4783 42.5574C21.7627 42.8226 22.1462 42.9732 22.5472 42.9771C22.7924 42.9871 23.1868 42.9937 23.6398 42.9954V42.8621C23.6355 42.7901 23.6469 42.7181 23.6733 42.6504C23.6997 42.5826 23.7406 42.5207 23.7934 42.4683C23.8462 42.4159 23.9098 42.3742 23.9804 42.3457C24.051 42.3172 24.127 42.3024 24.2039 42.3024C24.2808 42.3024 24.3568 42.3172 24.4274 42.3457C24.498 42.3742 24.5616 42.4159 24.6144 42.4683C24.6672 42.5207 24.7081 42.5826 24.7345 42.6504C24.7609 42.7181 24.7723 42.7901 24.768 42.8621V42.9987C25.603 42.9987 26.454 42.9987 26.9728 42.9854L27.0758 42.9987V42.8554C27.1008 42.2215 27.3817 41.6202 27.8617 41.1734C28.3417 40.7266 28.9848 40.4676 29.6608 40.449C30.3354 40.4442 30.9876 40.6757 31.4897 41.0983C31.9919 41.5209 32.3077 42.1042 32.3754 42.7338C32.3834 42.8202 32.4007 42.9056 32.427 42.9887C32.5145 42.9822 32.6024 42.9822 32.6899 42.9887H44.9201V42.8621C44.9158 42.7901 44.9272 42.7181 44.9536 42.6504C44.98 42.5826 45.0209 42.5207 45.0737 42.4683C45.1265 42.4159 45.1901 42.3742 45.2607 42.3457C45.3313 42.3172 45.4073 42.3024 45.4842 42.3024C45.5611 42.3024 45.6371 42.3172 45.7077 42.3457C45.7783 42.3742 45.8419 42.4159 45.8947 42.4683C45.9475 42.5207 45.9884 42.5826 46.0148 42.6504C46.0412 42.7181 46.0526 42.7901 46.0483 42.8621V42.9887H46.8726C47.1175 43.0166 47.3659 42.9916 47.5989 42.9156C47.8319 42.8396 48.0432 42.7147 48.2169 42.5504C48.3905 42.386 48.5218 42.1867 48.6008 41.9675C48.6797 41.7483 48.7042 41.515 48.6723 41.2856V27.7971C48.7067 27.5649 48.6833 27.3283 48.604 27.106C48.5246 26.8837 48.3914 26.6816 48.2148 26.5157C48.0382 26.3497 47.8231 26.2244 47.5862 26.1495C47.3493 26.0746 47.0972 26.0522 46.8495 26.084ZM24.7662 40.6923C24.7705 40.7643 24.7591 40.8364 24.7327 40.9041C24.7063 40.9718 24.6655 41.0337 24.6127 41.0861C24.5599 41.1385 24.4962 41.1802 24.4256 41.2088C24.355 41.2373 24.279 41.252 24.2021 41.252C24.1253 41.252 24.0492 41.2373 23.9786 41.2088C23.908 41.1802 23.8444 41.1385 23.7916 41.0861C23.7388 41.0337 23.6979 40.9718 23.6715 40.9041C23.6451 40.8364 23.6337 40.7643 23.638 40.6923V39.2458C23.6337 39.1739 23.6451 39.1018 23.6715 39.0341C23.6979 38.9664 23.7388 38.9044 23.7916 38.8521C23.8444 38.7997 23.908 38.7579 23.9786 38.7294C24.0492 38.7009 24.1253 38.6862 24.2021 38.6862C24.279 38.6862 24.355 38.7009 24.4256 38.7294C24.4962 38.7579 24.5599 38.7997 24.6127 38.8521C24.6655 38.9044 24.7063 38.9664 24.7327 39.0341C24.7591 39.1018 24.7705 39.1739 24.7662 39.2458V40.6923ZM24.7662 37.0744C24.7705 37.1464 24.7591 37.2184 24.7327 37.2862C24.7063 37.3539 24.6655 37.4158 24.6127 37.4682C24.5599 37.5206 24.4962 37.5623 24.4256 37.5908C24.355 37.6193 24.279 37.6341 24.2021 37.6341C24.1253 37.6341 24.0492 37.6193 23.9786 37.5908C23.908 37.5623 23.8444 37.5206 23.7916 37.4682C23.7388 37.4158 23.6979 37.3539 23.6715 37.2862C23.6451 37.2184 23.6337 37.1464 23.638 37.0744V35.6296C23.6337 35.5576 23.6451 35.4855 23.6715 35.4178C23.6979 35.3501 23.7388 35.2882 23.7916 35.2358C23.8444 35.1834 23.908 35.1417 23.9786 35.1132C24.0492 35.0846 24.1253 35.0699 24.2021 35.0699C24.279 35.0699 24.355 35.0846 24.4256 35.1132C24.4962 35.1417 24.5599 35.1834 24.6127 35.2358C24.6655 35.2882 24.7063 35.3501 24.7327 35.4178C24.7591 35.4855 24.7705 35.5576 24.7662 35.6296V37.0744ZM24.7662 33.4548C24.7705 33.5268 24.7591 33.5989 24.7327 33.6666C24.7063 33.7343 24.6655 33.7962 24.6127 33.8486C24.5599 33.901 24.4962 33.9427 24.4256 33.9712C24.355 33.9998 24.279 34.0145 24.2021 34.0145C24.1253 34.0145 24.0492 33.9998 23.9786 33.9712C23.908 33.9427 23.8444 33.901 23.7916 33.8486C23.7388 33.7962 23.6979 33.7343 23.6715 33.6666C23.6451 33.5989 23.6337 33.5268 23.638 33.4548V32.0083C23.6337 31.9363 23.6451 31.8643 23.6715 31.7966C23.6979 31.7289 23.7388 31.6669 23.7916 31.6145C23.8444 31.5622 23.908 31.5204 23.9786 31.4919C24.0492 31.4634 24.1253 31.4487 24.2021 31.4487C24.279 31.4487 24.355 31.4634 24.4256 31.4919C24.4962 31.5204 24.5599 31.5622 24.6127 31.6145C24.6655 31.6669 24.7063 31.7289 24.7327 31.7966C24.7591 31.8643 24.7705 31.9363 24.7662 32.0083V33.4548ZM24.7662 29.8369C24.7705 29.9089 24.7591 29.9809 24.7327 30.0486C24.7063 30.1164 24.6655 30.1783 24.6127 30.2307C24.5599 30.2831 24.4962 30.3248 24.4256 30.3533C24.355 30.3818 24.279 30.3966 24.2021 30.3966C24.1253 30.3966 24.0492 30.3818 23.9786 30.3533C23.908 30.3248 23.8444 30.2831 23.7916 30.2307C23.7388 30.1783 23.6979 30.1164 23.6715 30.0486C23.6451 29.9809 23.6337 29.9089 23.638 29.8369V28.3921C23.6337 28.3201 23.6451 28.248 23.6715 28.1803C23.6979 28.1126 23.7388 28.0507 23.7916 27.9983C23.8444 27.9459 23.908 27.9042 23.9786 27.8757C24.0492 27.8471 24.1253 27.8324 24.2021 27.8324C24.279 27.8324 24.355 27.8471 24.4256 27.8757C24.4962 27.9042 24.5599 27.9459 24.6127 27.9983C24.6655 28.0507 24.7063 28.1126 24.7327 28.1803C24.7591 28.248 24.7705 28.3201 24.7662 28.3921V29.8369ZM29.7905 33.3198V32.6299C29.7905 32.1402 29.9979 31.6706 30.367 31.3243C30.7362 30.978 31.2369 30.7835 31.759 30.7835C32.281 30.7835 32.7817 30.978 33.1509 31.3243C33.52 31.6706 33.7274 32.1402 33.7274 32.6299V33.3282C33.7274 33.8179 33.52 34.2875 33.1509 34.6338C32.7817 34.9801 32.281 35.1746 31.759 35.1746C31.2369 35.1746 30.7362 34.9801 30.367 34.6338C29.9979 34.2875 29.7905 33.8179 29.7905 33.3282V33.3198ZM32.6242 39.0009C32.5906 39.0529 32.5464 39.0983 32.4941 39.1344C32.4418 39.1704 32.3824 39.1965 32.3194 39.211C32.2564 39.2256 32.1909 39.2283 32.1268 39.2192C32.0626 39.21 32.001 39.189 31.9455 39.1575C31.89 39.126 31.8416 39.0845 31.8032 39.0355C31.7647 38.9864 31.7369 38.9308 31.7214 38.8717C31.7059 38.8125 31.703 38.7511 31.7128 38.691C31.7226 38.6308 31.7449 38.573 31.7785 38.5209L37.2203 30.0852C37.2539 30.0331 37.2981 29.9878 37.3504 29.9517C37.4026 29.9156 37.462 29.8896 37.525 29.875C37.588 29.8605 37.6535 29.8577 37.7176 29.8669C37.7818 29.8761 37.8434 29.897 37.8989 29.9286C37.9545 29.9601 38.0028 30.0015 38.0413 30.0506C38.0797 30.0996 38.1075 30.1553 38.123 30.2144C38.1385 30.2735 38.1414 30.3349 38.1317 30.3951C38.1219 30.4553 38.0995 30.5131 38.0659 30.5652L32.6242 39.0009ZM39.8976 36.9861C39.9055 37.2331 39.8605 37.4791 39.7652 37.7095C39.6699 37.94 39.5262 38.1501 39.3427 38.3274C39.1592 38.5048 38.9396 38.6458 38.697 38.7421C38.4543 38.8384 38.1935 38.888 37.93 38.888C37.6665 38.888 37.4057 38.8384 37.1631 38.7421C36.9204 38.6458 36.7008 38.5048 36.5173 38.3274C36.3339 38.1501 36.1902 37.94 36.0949 37.7095C35.9995 37.4791 35.9545 37.2331 35.9624 36.9861V36.2962C35.9545 36.0491 35.9995 35.8031 36.0949 35.5727C36.1902 35.3423 36.3339 35.1322 36.5173 34.9548C36.7008 34.7775 36.9204 34.6364 37.1631 34.5402C37.4057 34.4439 37.6665 34.3942 37.93 34.3942C38.1935 34.3942 38.4543 34.4439 38.697 34.5402C38.9396 34.6364 39.1592 34.7775 39.3427 34.9548C39.5262 35.1322 39.6699 35.3423 39.7652 35.5727C39.8605 35.8031 39.9055 36.0491 39.8976 36.2962V36.9861ZM46.0554 40.6923C46.0597 40.7643 46.0483 40.8364 46.0219 40.9041C45.9955 40.9718 45.9546 41.0337 45.9018 41.0861C45.849 41.1385 45.7854 41.1802 45.7148 41.2088C45.6442 41.2373 45.5682 41.252 45.4913 41.252C45.4144 41.252 45.3384 41.2373 45.2678 41.2088C45.1972 41.1802 45.1336 41.1385 45.0808 41.0861C45.028 41.0337 44.9871 40.9718 44.9607 40.9041C44.9343 40.8364 44.9229 40.7643 44.9272 40.6923V39.2458C44.9229 39.1739 44.9343 39.1018 44.9607 39.0341C44.9871 38.9664 45.028 38.9044 45.0808 38.8521C45.1336 38.7997 45.1972 38.7579 45.2678 38.7294C45.3384 38.7009 45.4144 38.6862 45.4913 38.6862C45.5682 38.6862 45.6442 38.7009 45.7148 38.7294C45.7854 38.7579 45.849 38.7997 45.9018 38.8521C45.9546 38.9044 45.9955 38.9664 46.0219 39.0341C46.0483 39.1018 46.0597 39.1739 46.0554 39.2458V40.6923ZM46.0554 37.0744C46.0597 37.1464 46.0483 37.2184 46.0219 37.2862C45.9955 37.3539 45.9546 37.4158 45.9018 37.4682C45.849 37.5206 45.7854 37.5623 45.7148 37.5908C45.6442 37.6193 45.5682 37.6341 45.4913 37.6341C45.4144 37.6341 45.3384 37.6193 45.2678 37.5908C45.1972 37.5623 45.1336 37.5206 45.0808 37.4682C45.028 37.4158 44.9871 37.3539 44.9607 37.2862C44.9343 37.2184 44.9229 37.1464 44.9272 37.0744V35.6296C44.9229 35.5576 44.9343 35.4855 44.9607 35.4178C44.9871 35.3501 45.028 35.2882 45.0808 35.2358C45.1336 35.1834 45.1972 35.1417 45.2678 35.1132C45.3384 35.0846 45.4144 35.0699 45.4913 35.0699C45.5682 35.0699 45.6442 35.0846 45.7148 35.1132C45.7854 35.1417 45.849 35.1834 45.9018 35.2358C45.9546 35.2882 45.9955 35.3501 46.0219 35.4178C46.0483 35.4855 46.0597 35.5576 46.0554 35.6296V37.0744ZM46.0554 33.4548C46.0597 33.5268 46.0483 33.5989 46.0219 33.6666C45.9955 33.7343 45.9546 33.7962 45.9018 33.8486C45.849 33.901 45.7854 33.9427 45.7148 33.9712C45.6442 33.9998 45.5682 34.0145 45.4913 34.0145C45.4144 34.0145 45.3384 33.9998 45.2678 33.9712C45.1972 33.9427 45.1336 33.901 45.0808 33.8486C45.028 33.7962 44.9871 33.7343 44.9607 33.6666C44.9343 33.5989 44.9229 33.5268 44.9272 33.4548V32.0083C44.9229 31.9363 44.9343 31.8643 44.9607 31.7966C44.9871 31.7289 45.028 31.6669 45.0808 31.6145C45.1336 31.5622 45.1972 31.5204 45.2678 31.4919C45.3384 31.4634 45.4144 31.4487 45.4913 31.4487C45.5682 31.4487 45.6442 31.4634 45.7148 31.4919C45.7854 31.5204 45.849 31.5622 45.9018 31.6145C45.9546 31.6669 45.9955 31.7289 46.0219 31.7966C46.0483 31.8643 46.0597 31.9363 46.0554 32.0083V33.4548ZM46.0554 29.8369C46.0597 29.9089 46.0483 29.9809 46.0219 30.0486C45.9955 30.1164 45.9546 30.1783 45.9018 30.2307C45.849 30.2831 45.7854 30.3248 45.7148 30.3533C45.6442 30.3818 45.5682 30.3966 45.4913 30.3966C45.4144 30.3966 45.3384 30.3818 45.2678 30.3533C45.1972 30.3248 45.1336 30.2831 45.0808 30.2307C45.028 30.1783 44.9871 30.1164 44.9607 30.0486C44.9343 29.9809 44.9229 29.9089 44.9272 29.8369V28.3921C44.9229 28.3201 44.9343 28.248 44.9607 28.1803C44.9871 28.1126 45.028 28.0507 45.0808 27.9983C45.1336 27.9459 45.1972 27.9042 45.2678 27.8757C45.3384 27.8471 45.4144 27.8324 45.4913 27.8324C45.5682 27.8324 45.6442 27.8471 45.7148 27.8757C45.7854 27.9042 45.849 27.9459 45.9018 27.9983C45.9546 28.0507 45.9955 28.1126 46.0219 28.1803C46.0483 28.248 46.0597 28.3201 46.0554 28.3921V29.8369Z" fill="#060B29"/>
<path d="M37.932 35.6191C37.6726 35.6196 37.4238 35.7165 37.2404 35.8886C37.0569 36.0607 36.9536 36.294 36.9531 36.5374V37.229C36.9681 37.4625 37.0776 37.6818 37.2592 37.8422C37.4408 38.0026 37.6808 38.0919 37.9303 38.0919C38.1797 38.0919 38.4197 38.0026 38.6013 37.8422C38.7829 37.6818 38.8924 37.4625 38.9074 37.229V36.5307C38.9055 36.2889 38.8021 36.0576 38.6194 35.8869C38.4368 35.7162 38.1898 35.62 37.932 35.6191Z" fill="#4B7BE5"/>
<path d="M32.7394 33.7494V33.0495C32.7244 32.8159 32.6149 32.5966 32.4333 32.4362C32.2517 32.2758 32.0117 32.1865 31.7623 32.1865C31.5129 32.1865 31.2729 32.2758 31.0913 32.4362C30.9097 32.5966 30.8002 32.8159 30.7852 33.0495V33.7494C30.8002 33.9829 30.9097 34.2023 31.0913 34.3626C31.2729 34.523 31.5129 34.6123 31.7623 34.6123C32.0117 34.6123 32.2517 34.523 32.4333 34.3626C32.6149 34.2023 32.7244 33.9829 32.7394 33.7494Z" fill="#4B7BE5"/>
<path d="M51.2976 23H27.0362C26.5852 23 26.1528 23.168 25.8339 23.4671C25.5151 23.7662 25.3359 24.1718 25.3359 24.5948V25.8163H46.9822C47.7318 25.8194 48.4498 26.1001 48.9798 26.5973C49.5099 27.0945 49.8091 27.7679 49.8124 28.471V39.9147H51.2994C51.5227 39.9147 51.7438 39.8735 51.95 39.7933C52.1563 39.7132 52.3438 39.5957 52.5016 39.4476C52.6595 39.2995 52.7847 39.1237 52.8702 38.9302C52.9556 38.7367 52.9996 38.5293 52.9996 38.3199V24.5948C52.9991 24.1717 52.8196 23.766 52.5005 23.467C52.1813 23.168 51.7487 23 51.2976 23Z" fill="#97C0FF"/>
<defs>
<filter id="filter0_d" x="0" y="1" width="74" height="74" filterUnits="userSpaceOnUse" color-interpolation-filters="sRGB">
<feFlood flood-opacity="0" result="BackgroundImageFix"/>
<feColorMatrix in="SourceAlpha" type="matrix" values="0 0 0 0 0 0 0 0 0 0 0 0 0 0 0 0 0 0 127 0" result="hardAlpha"/>
<feOffset dy="4"/>
<feGaussianBlur stdDeviation="7.5"/>
<feComposite in2="hardAlpha" operator="out"/>
<feColorMatrix type="matrix" values="0 0 0 0 0 0 0 0 0 0 0 0 0 0 0 0 0 0 0.08 0"/>
<feBlend mode="normal" in2="BackgroundImageFix" result="effect1_dropShadow"/>
<feBlend mode="normal" in="SourceGraphic" in2="effect1_dropShadow" result="shape"/>
</filter>
<filter id="filter1_d" x="0" y="0" width="74" height="74" filterUnits="userSpaceOnUse" color-interpolation-filters="sRGB">
<feFlood flood-opacity="0" result="BackgroundImageFix"/>
<feColorMatrix in="SourceAlpha" type="matrix" values="0 0 0 0 0 0 0 0 0 0 0 0 0 0 0 0 0 0 127 0" result="hardAlpha"/>
<feOffset dy="4"/>
<feGaussianBlur stdDeviation="7.5"/>
<feComposite in2="hardAlpha" operator="out"/>
<feColorMatrix type="matrix" values="0 0 0 0 0 0 0 0 0 0 0 0 0 0 0 0 0 0 0.08 0"/>
<feBlend mode="normal" in2="BackgroundImageFix" result="effect1_dropShadow"/>
<feBlend mode="normal" in="SourceGraphic" in2="effect1_dropShadow" result="shape"/>
</filter>
</defs>
</svg>
