<svg width="26" height="25" viewBox="0 0 26 25" fill="none" xmlns="http://www.w3.org/2000/svg">
<path d="M0 20.9086C0 21.9937 0.431061 23.0344 1.19836 23.8017C1.96565 24.569 3.00632 25 4.09144 25H18.7914C19.8765 25 20.9172 24.569 21.6845 23.8017C22.4518 23.0344 22.8828 21.9937 22.8828 20.9086V16.1742C22.8828 15.8642 22.7597 15.5668 22.5405 15.3476C22.3212 15.1284 22.0239 15.0052 21.7139 15.0052C21.4038 15.0052 21.1065 15.1284 20.8873 15.3476C20.668 15.5668 20.5449 15.8642 20.5449 16.1742V20.9086C20.5449 21.3736 20.3601 21.8196 20.0313 22.1485C19.7025 22.4773 19.2565 22.6621 18.7914 22.6621H4.09144C3.62639 22.6621 3.18039 22.4773 2.85155 22.1485C2.52271 21.8196 2.33797 21.3736 2.33797 20.9086V6.20863C2.33797 5.74358 2.52271 5.29757 2.85155 4.96873C3.18039 4.63989 3.62639 4.45515 4.09144 4.45515H8.82582C9.13586 4.45515 9.43319 4.33199 9.65242 4.11277C9.87164 3.89354 9.99481 3.5962 9.99481 3.28617C9.99481 2.97614 9.87164 2.6788 9.65242 2.45957C9.43319 2.24035 9.13586 2.11719 8.82582 2.11719H4.09144C3.00632 2.11719 1.96565 2.54825 1.19836 3.31554C0.431061 4.08284 0 5.12351 0 6.20863V20.9086Z" fill="#00B2FF"/>
<path d="M24.0245 0.977696C23.39 0.35126 22.5343 0 21.6427 0C20.7511 0 19.8954 0.35126 19.2609 0.977696L8.30167 11.9369C8.16002 12.0838 8.05927 12.2651 8.00943 12.463L7.07424 15.7653C7.00208 16.0261 6.99126 16.3001 7.04262 16.5658C7.09398 16.8314 7.20613 17.0816 7.37029 17.2967C7.53445 17.5118 7.74617 17.686 7.98887 17.8057C8.23157 17.9253 8.49867 17.9872 8.76927 17.9864L9.23686 17.928L12.5685 16.9928C12.7663 16.9429 12.9477 16.8422 13.0945 16.7005L24.0245 5.7413C24.6509 5.10683 25.0022 4.25111 25.0022 3.3595C25.0022 2.46789 24.6509 1.61217 24.0245 0.977696ZM22.3587 2.6435C22.548 2.83962 22.6538 3.10155 22.6538 3.37411C22.6538 3.64668 22.548 3.9086 22.3587 4.10473H22.3295L20.8682 2.6435H20.8975C21.0936 2.45422 21.3555 2.34844 21.6281 2.34844C21.9006 2.34844 22.1626 2.45422 22.3587 2.6435ZM11.6333 14.8301L9.58755 15.3854L10.172 13.3689L19.2024 4.3093L20.6637 5.77053L11.6333 14.8301Z" fill="#00B2FF"/>
</svg>
