<svg width="14" height="14" viewBox="0 0 14 14" fill="none" xmlns="http://www.w3.org/2000/svg">
<path d="M7 14C8.38447 14 9.73784 13.5895 10.889 12.8203C12.0401 12.0511 12.9373 10.9579 13.4672 9.67878C13.997 8.3997 14.1356 6.99224 13.8655 5.63437C13.5954 4.2765 12.9287 3.02922 11.9497 2.05025C10.9708 1.07129 9.7235 0.404599 8.36563 0.134502C7.00776 -0.135594 5.6003 0.00302887 4.32121 0.532843C3.04213 1.06266 1.94888 1.95986 1.17971 3.11101C0.41054 4.26215 -2.86102e-06 5.61553 -2.86102e-06 7C-2.86102e-06 8.85652 0.737495 10.637 2.05025 11.9497C3.363 13.2625 5.14348 14 7 14ZM6.3 3.5L7.7 3.5V7.7H6.3V3.5ZM6.3 9.1H7.7L7.7 10.5H6.3L6.3 9.1Z" fill="#FF5A5A"/>
</svg>
