<svg width="29" height="14" viewBox="0 0 29 14" fill="none" xmlns="http://www.w3.org/2000/svg">
<g>
<path opacity="0.8" d="M28.2949 6.91176L26.3393 6.52941L25.4227 3.85294C25.0865 2.91176 24.1699 2.26471 23.1309 2.26471H21.5726V0.882353C21.5726 0.382353 21.1448 0 20.6559 0H8.52508C8.00563 0 7.6084 0.411765 7.6084 0.882353V10.5882C7.6084 11.0882 8.03619 11.4706 8.52508 11.4706H9.53344C9.53344 12.8824 10.7251 14 12.1613 14C13.5974 14 14.7891 12.8529 14.7891 11.4706H21.817C21.817 12.8824 23.0087 14 24.4449 14C25.9116 14 27.0727 12.8529 27.0727 11.4706H28.081C28.6005 11.4706 28.9977 11.0588 28.9977 10.5882V7.7647C29.0283 7.35294 28.7227 7 28.2949 6.91176ZM12.1613 12.6765C11.489 12.6765 10.9085 12.1471 10.9085 11.4706C10.9085 10.8235 11.4585 10.2647 12.1613 10.2647C12.8641 10.2647 13.4141 10.7941 13.4141 11.4706C13.4141 12.1471 12.8641 12.6765 12.1613 12.6765ZM21.5726 6.29412V3.58824H23.1309C23.5587 3.58824 23.956 3.85294 24.1087 4.26471L24.8115 6.29412H21.5726ZM24.4754 12.6765C23.8032 12.6765 23.2226 12.1471 23.2226 11.4706C23.2226 10.8235 23.7726 10.2647 24.4754 10.2647C25.1477 10.2647 25.7282 10.7941 25.7282 11.4706C25.6977 12.1471 25.1477 12.6765 24.4754 12.6765Z" fill="#4B7BE5"/>
<path opacity="0.8" d="M5.37789 2.05859H0.733349C0.336118 2.05859 0 2.38212 0 2.76448C0 3.14683 0.336118 3.47036 0.733349 3.47036H5.37789C5.77512 3.47036 6.11124 3.14683 6.11124 2.76448C6.11124 2.38212 5.80568 2.05859 5.37789 2.05859Z" fill="#4B7BE5"/>
<path opacity="0.8" d="M5.37789 5.0293H1.89448C1.49725 5.0293 1.16113 5.35283 1.16113 5.73518C1.16113 6.11753 1.49725 6.44106 1.89448 6.44106H5.37789C5.77512 6.44106 6.11124 6.11753 6.11124 5.73518C6.14179 5.32341 5.80567 5.0293 5.37789 5.0293Z" fill="#4B7BE5"/>
<path opacity="0.8" d="M5.37789 7.9707H3.05561C2.65838 7.9707 2.32227 8.29423 2.32227 8.67659C2.32227 9.05894 2.65838 9.38247 3.05561 9.38247H5.37789C5.77512 9.38247 6.11123 9.05894 6.11123 8.67659C6.11123 8.29423 5.80567 7.9707 5.37789 7.9707Z" fill="##4B7BE5"/>
</g>
</svg>