<svg width="74" height="75" viewBox="0 0 74 75" fill="none" xmlns="http://www.w3.org/2000/svg">
<g filter="url(#filter0_d_10368_41419)">
<rect x="15" y="12" width="44" height="44" rx="5" fill="#4B7BE5"/>
</g>
<g filter="url(#filter1_d_10368_41419)">
<rect x="15" y="11" width="44" height="44" rx="5" fill="white"/>
</g>
<path d="M49 41.6667C49 43.508 47.508 45 45.6667 45H28.3333C26.4927 45 25 43.508 25 41.6667V24.3333C25 22.492 26.4927 21 28.3333 21H45.6667C47.508 21 49 22.492 49 24.3333V41.6667Z" fill="#3F51B5"/>
<path d="M43.912 33.6666H41.6667V42.3333H38.3334V33.6666H36.3334V31H38.3334V29.3933C38.3347 27.0546 39.306 25.6666 42.0614 25.6666H44.3334V28.3333H42.8087C41.736 28.3333 41.6667 28.7333 41.6667 29.482V31H44.3334L43.912 33.6666Z" fill="white"/>
<defs>
<filter id="filter0_d_10368_41419" x="0" y="1" width="74" height="74" filterUnits="userSpaceOnUse" color-interpolation-filters="sRGB">
<feFlood flood-opacity="0" result="BackgroundImageFix"/>
<feColorMatrix in="SourceAlpha" type="matrix" values="0 0 0 0 0 0 0 0 0 0 0 0 0 0 0 0 0 0 127 0" result="hardAlpha"/>
<feOffset dy="4"/>
<feGaussianBlur stdDeviation="7.5"/>
<feComposite in2="hardAlpha" operator="out"/>
<feColorMatrix type="matrix" values="0 0 0 0 0 0 0 0 0 0 0 0 0 0 0 0 0 0 0.08 0"/>
<feBlend mode="normal" in2="BackgroundImageFix" result="effect1_dropShadow_10368_41419"/>
<feBlend mode="normal" in="SourceGraphic" in2="effect1_dropShadow_10368_41419" result="shape"/>
</filter>
<filter id="filter1_d_10368_41419" x="0" y="0" width="74" height="74" filterUnits="userSpaceOnUse" color-interpolation-filters="sRGB">
<feFlood flood-opacity="0" result="BackgroundImageFix"/>
<feColorMatrix in="SourceAlpha" type="matrix" values="0 0 0 0 0 0 0 0 0 0 0 0 0 0 0 0 0 0 127 0" result="hardAlpha"/>
<feOffset dy="4"/>
<feGaussianBlur stdDeviation="7.5"/>
<feComposite in2="hardAlpha" operator="out"/>
<feColorMatrix type="matrix" values="0 0 0 0 0 0 0 0 0 0 0 0 0 0 0 0 0 0 0.08 0"/>
<feBlend mode="normal" in2="BackgroundImageFix" result="effect1_dropShadow_10368_41419"/>
<feBlend mode="normal" in="SourceGraphic" in2="effect1_dropShadow_10368_41419" result="shape"/>
</filter>
</defs>
</svg>
