<svg width="74" height="70" viewBox="0 0 74 70" fill="none" xmlns="http://www.w3.org/2000/svg">
<g filter="url(#filter0_d_196_17353)">
<rect x="15" y="11" width="44" height="40" rx="10" fill="white"/>
<rect x="15.5" y="11.5" width="43" height="39" rx="9.5" stroke="#212121" stroke-opacity="0.08"/>
<path d="M34.0447 20C32.5356 19.9997 31.0508 20.3794 29.7278 21.1037C28.4047 21.8281 27.2861 22.8737 26.4755 24.144C25.6648 25.4143 25.1884 26.868 25.0902 28.3708C24.992 29.8736 25.2752 31.3768 25.9136 32.7414L25.0463 36.1341C24.9827 36.3833 24.9846 36.6447 25.052 36.893C25.1194 37.1412 25.25 37.3678 25.431 37.5509C25.612 37.7339 25.8374 37.8672 26.0852 37.9377C26.3331 38.0083 26.595 38.0137 26.8455 37.9535C27.7427 37.7386 29.122 37.4079 30.3506 37.1154C31.5704 37.6643 32.8978 37.934 34.2356 37.9047C35.5734 37.8755 36.8877 37.5479 38.0822 36.9461C39.2767 36.3444 40.3212 35.4836 41.1392 34.4268C41.9572 33.37 42.528 32.1441 42.8097 30.8387C43.0915 29.5333 43.077 28.1815 42.7675 26.8824C42.458 25.5833 41.8612 24.3697 41.0209 23.3306C40.1805 22.2914 39.1179 21.453 37.9108 20.8767C36.7038 20.3004 35.3828 20.0009 34.0447 20Z" fill="#111156"/>
<path d="M40.0248 41.4884C37.6682 41.4884 35.5256 40.5823 33.9238 39.1008H34.0435C34.9024 39.1008 35.7362 38.9945 36.5329 38.794C37.5665 39.3694 38.758 39.6977 40.026 39.6977C41.1744 39.6977 42.2583 39.4291 43.2189 38.9516L43.5096 38.8071L43.8266 38.8823C44.9283 39.1449 46.1772 39.4136 47.1043 39.6105C46.8938 38.714 46.6079 37.5142 46.3363 36.4458L46.2526 36.1163L46.4081 35.8143C46.932 34.8003 47.2044 33.6757 47.2024 32.5349C47.2031 31.3374 46.9025 30.1588 46.3284 29.1072C45.7543 28.0556 44.9249 27.1646 43.9163 26.5158C43.7053 25.6631 43.3836 24.8416 42.9593 24.0721C44.1468 24.4825 45.2348 25.1372 46.1528 25.9938C47.0707 26.8503 47.7982 27.8898 48.2881 29.0447C48.7779 30.1997 49.0193 31.4444 48.9965 32.6984C48.9738 33.9523 48.6874 35.1875 48.1559 36.324C48.4585 37.5274 48.766 38.831 48.9598 39.6702C49.0167 39.9135 49.0111 40.1671 48.9437 40.4077C48.8763 40.6482 48.7492 40.868 48.5741 41.0465C48.399 41.225 48.1817 41.3566 47.9421 41.429C47.7026 41.5015 47.4486 41.5124 47.2036 41.4609C46.334 41.2794 44.9666 40.9882 43.7189 40.6969C42.5581 41.2202 41.2986 41.4901 40.0248 41.4884Z" fill="#111156"/>
<path d="M32.3693 24.3653C32.8884 24.0883 33.4471 24 33.9914 24C34.6206 24 35.3528 24.2065 35.9437 24.6888C36.5622 25.195 36.9821 25.971 36.9821 26.9833C36.9821 28.1472 36.1579 28.7788 35.6937 29.1345L35.592 29.2133C35.0848 29.6108 34.8886 29.8233 34.8886 30.2662C34.8886 30.5037 34.7941 30.7314 34.6258 30.8993C34.4576 31.0672 34.2294 31.1616 33.9914 31.1616C33.7535 31.1616 33.5252 31.0672 33.357 30.8993C33.1887 30.7314 33.0942 30.5037 33.0942 30.2662C33.0942 28.9125 33.9447 28.2272 34.4843 27.8046C35.098 27.3235 35.1877 27.2161 35.1877 26.9833C35.1877 26.5094 35.0094 26.2407 34.8049 26.0748C34.5728 25.8925 34.2867 25.7921 33.9914 25.7895C33.6385 25.7895 33.3957 25.848 33.2138 25.9447C33.0428 26.0354 32.8621 26.1954 32.6875 26.5177C32.6313 26.6212 32.5553 26.7126 32.4637 26.7867C32.3721 26.8609 32.2668 26.9163 32.1538 26.9498C32.0408 26.9834 31.9222 26.9944 31.805 26.9822C31.6877 26.97 31.5739 26.9349 31.4703 26.8788C31.3666 26.8228 31.275 26.7469 31.2007 26.6555C31.1264 26.5642 31.0708 26.4591 31.0372 26.3463C31.0036 26.2335 30.9926 26.1152 31.0048 25.9982C31.017 25.8811 31.0522 25.7676 31.1084 25.6641C31.4242 25.084 31.8405 24.6458 32.3693 24.3641V24.3653Z" fill="#97C0FF"/>
<path d="M33.9892 34.7429C34.3065 34.7429 34.6108 34.6171 34.8351 34.3933C35.0595 34.1694 35.1855 33.8657 35.1855 33.5491C35.1855 33.2325 35.0595 32.9289 34.8351 32.705C34.6108 32.4811 34.3065 32.3553 33.9892 32.3553C33.672 32.3553 33.3677 32.4811 33.1433 32.705C32.919 32.9289 32.793 33.2325 32.793 33.5491C32.793 33.8657 32.919 34.1694 33.1433 34.3933C33.3677 34.6171 33.672 34.7429 33.9892 34.7429V34.7429Z" fill="#97C0FF"/>
</g>
<defs>
<filter id="filter0_d_196_17353" x="0" y="0" width="74" height="70" filterUnits="userSpaceOnUse" color-interpolation-filters="sRGB">
<feFlood flood-opacity="0" result="BackgroundImageFix"/>
<feColorMatrix in="SourceAlpha" type="matrix" values="0 0 0 0 0 0 0 0 0 0 0 0 0 0 0 0 0 0 127 0" result="hardAlpha"/>
<feOffset dy="4"/>
<feGaussianBlur stdDeviation="7.5"/>
<feComposite in2="hardAlpha" operator="out"/>
<feColorMatrix type="matrix" values="0 0 0 0 0 0 0 0 0 0 0 0 0 0 0 0 0 0 0.06 0"/>
<feBlend mode="normal" in2="BackgroundImageFix" result="effect1_dropShadow_196_17353"/>
<feBlend mode="normal" in="SourceGraphic" in2="effect1_dropShadow_196_17353" result="shape"/>
</filter>
</defs>
</svg>
