<svg width="300" height="215" viewBox="0 0 300 215" fill="none" xmlns="http://www.w3.org/2000/svg">
<g clip-path="url(#clip0_9115_60518)">
<path d="M60.4747 198.437C57.222 203.02 50.8703 204.099 46.2872 200.847C41.7042 197.594 40.6257 191.242 43.8783 186.659C47.1308 182.076 53.4826 180.997 58.0656 184.25C62.6487 187.503 63.7272 193.854 60.4747 198.437Z" fill="#E9F5FC"/>
<path d="M48.4747 200.437C45.222 205.02 38.8703 206.099 34.2872 202.847C29.7042 199.594 28.6257 193.242 31.8783 188.659C35.1308 184.076 41.4826 182.997 46.0656 186.25C50.6487 189.503 51.7272 195.854 48.4747 200.437Z" fill="#E9F5FC"/>
<path d="M70.2791 197.92C67.9413 201.213 63.3756 201.989 60.0817 199.651C56.7875 197.313 56.0121 192.747 58.35 189.453C60.6879 186.159 65.2536 185.384 68.5477 187.721C71.8416 190.059 72.617 194.625 70.2791 197.92Z" fill="#E9F5FC"/>
<path d="M37.8547 88.4275C37.8547 88.6635 37.6635 88.8545 37.4273 88.8545C37.1912 88.8545 37 88.6635 37 88.4275C37 88.1915 37.1912 88 37.4273 88C37.6635 88 37.8547 88.1915 37.8547 88.4275Z" fill="white"/>
<path d="M37.1084 94.5544C37.1084 94.8599 36.8602 95.1084 36.5543 95.1084C36.248 95.1084 36 94.8599 36 94.5544C36 94.2479 36.248 93.9999 36.5543 93.9999C36.8602 93.9999 37.1084 94.2479 37.1084 94.5544Z" fill="white"/>
<path d="M26.0428 137.021C26.0428 137.586 25.5855 138.043 25.0215 138.043C24.4572 138.043 24 137.586 24 137.021C24 136.457 24.4572 136 25.0215 136C25.5855 136 26.0428 136.457 26.0428 137.021Z" fill="white"/>
<g clip-path="url(#clip1_9115_60518)">
<path d="M0 216H300V52H0V216Z" fill="#141929"/>
<g clip-path="url(#clip2_9115_60518)">
<path d="M150.625 219.25C117.196 219.25 90 192.054 90 158.625C90 125.196 117.196 98 150.625 98C184.053 98 211.25 125.196 211.25 158.625C211.25 192.054 184.053 219.25 150.625 219.25ZM236.25 158.625C236.25 111.412 197.839 73 150.625 73C103.411 73 65 111.412 65 158.625C65 194.063 86.64 224.541 117.399 237.54H183.85C214.61 224.541 236.25 194.063 236.25 158.625Z" fill="#1C244A" fill-opacity="0.6"/>
<path d="M225.169 98.3583C221.14 98.2833 217.82 95.4228 217.004 91.6483C217.137 96.6378 221.175 100.686 226.216 100.78L226.262 98.3063C225.903 98.3453 225.539 98.3648 225.169 98.3583Z" fill="#7692BB"/>
<path d="M229.996 82.7206C232.358 84.2726 233.899 86.9646 233.842 90.0006C233.762 94.3336 230.458 97.8476 226.261 98.3066L226.215 100.781C231.401 100.877 235.683 96.7511 235.779 91.5651C235.853 87.5961 233.451 84.1586 229.996 82.7206Z" fill="#4860B6"/>
<path d="M225.315 98.3594C225.275 98.3594 225.235 98.3594 225.195 98.3589C225.187 98.3584 225.178 98.3584 225.17 98.3584C221.141 98.2834 217.82 95.4229 217.004 91.6484C217.002 91.5544 217 91.4599 217 91.3654C217 91.3159 217.001 91.2664 217.002 91.2169C217.097 86.0899 221.281 81.9999 226.387 81.9999C226.446 81.9999 226.506 82.0004 226.565 82.0014L226.262 98.3064C226.253 98.3074 226.243 98.3084 226.234 98.3089C226.233 98.3094 226.233 98.3094 226.232 98.3094C226.216 98.3109 226.2 98.3129 226.185 98.3144C226.16 98.3169 226.135 98.3194 226.109 98.3214C225.848 98.3459 225.583 98.3594 225.315 98.3594Z" fill="#F4F9FD"/>
<path d="M226.262 98.3066L226.565 82.0016C227.781 82.0241 228.938 82.2796 229.997 82.7206C232.318 84.2456 233.845 86.8706 233.844 89.8406C233.844 89.8936 233.844 89.9466 233.843 90.0006C233.763 94.3336 230.459 97.8476 226.262 98.3066Z" fill="#BAD6ED"/>
<path d="M222.886 86.8925C222.896 86.3685 223.329 85.9515 223.853 85.961C224.281 85.969 224.638 86.26 224.748 86.652C224.747 86.0225 224.243 85.507 223.611 85.4955C222.971 85.4835 222.441 85.993 222.43 86.6335C222.418 87.2655 222.915 87.788 223.544 87.813C223.156 87.688 222.878 87.321 222.886 86.8925Z" fill="#899BD7"/>
<path d="M224.754 86.6762L224.753 86.6517C224.642 86.2597 224.286 85.9687 223.857 85.9607C223.333 85.9512 222.901 86.3682 222.891 86.8922C222.883 87.3207 223.16 87.6877 223.548 87.8127L223.572 87.8142C224.213 87.8262 224.742 87.3167 224.754 86.6762Z" fill="#DEE7F1"/>
<path d="M219.892 93.2621C219.909 92.3111 220.695 91.5541 221.647 91.5711C222.424 91.5856 223.072 92.1136 223.273 92.8261C223.27 91.6831 222.356 90.7466 221.208 90.7256C220.045 90.7036 219.084 91.6291 219.063 92.7921C219.042 93.9401 219.943 94.8886 221.085 94.9341C220.381 94.7066 219.878 94.0401 219.892 93.2621Z" fill="#899BD7"/>
<path d="M223.277 92.8701L223.276 92.8261C223.075 92.1136 222.427 91.5856 221.65 91.5711C220.698 91.5541 219.912 92.3111 219.895 93.2621C219.881 94.0401 220.384 94.7066 221.088 94.9341L221.132 94.9371C222.295 94.9586 223.256 94.0336 223.277 92.8701Z" fill="#DEE7F1"/>
<path d="M223.828 98.7426C223.838 98.2181 224.27 97.8016 224.794 97.8111C225.222 97.8191 225.579 98.1101 225.69 98.5021C225.688 97.8726 225.185 97.3571 224.552 97.3456C223.912 97.3336 223.383 97.8431 223.371 98.4836C223.36 99.1156 223.856 99.6381 224.485 99.6631C224.097 99.5376 223.82 99.1711 223.828 98.7426Z" fill="#223053"/>
<path d="M225.691 98.5264L225.69 98.5019C225.579 98.1099 225.223 97.8189 224.795 97.8109C224.271 97.8014 223.838 98.2179 223.828 98.7424C223.82 99.1709 224.098 99.5374 224.485 99.6629L224.51 99.6644C225.15 99.6759 225.679 99.1664 225.691 98.5264Z" fill="#899BD7"/>
<path d="M229.721 86.2425C229.728 85.8815 230.026 85.5945 230.386 85.601C230.681 85.607 230.926 85.807 231.003 86.077C231.002 85.644 230.655 85.2885 230.22 85.2805C229.779 85.2725 229.415 85.6235 229.406 86.064C229.399 86.4995 229.74 86.859 230.173 86.876C229.906 86.79 229.716 86.5375 229.721 86.2425Z" fill="#455DB4"/>
<path d="M231.001 86.0933L231.001 86.0768C230.924 85.8068 230.679 85.6068 230.384 85.6008C230.024 85.5943 229.726 85.8813 229.719 86.2423C229.714 86.5373 229.904 86.7898 230.171 86.8758L230.188 86.8773C230.629 86.8853 230.993 86.5343 231.001 86.0933Z" fill="#899BD7"/>
<path d="M226.467 91.5078C226.482 90.6893 227.158 90.0383 227.976 90.0538C228.645 90.0658 229.202 90.5198 229.375 91.1323C229.372 90.1498 228.586 89.3443 227.598 89.3258C226.598 89.3073 225.772 90.1028 225.754 91.1033C225.735 92.0903 226.511 92.9063 227.493 92.9453C226.887 92.7498 226.454 92.1768 226.467 91.5078Z" fill="#455DB4"/>
<path d="M229.378 91.1709L229.377 91.1324C229.204 90.5199 228.648 90.0659 227.979 90.0539C227.16 90.0384 226.485 90.6894 226.469 91.5079C226.457 92.1769 226.89 92.7499 227.495 92.9454L227.533 92.9479C228.534 92.9664 229.36 92.1709 229.378 91.1709Z" fill="#899BD7"/>
<path d="M230.53 96.6645C230.541 96.069 231.032 95.596 231.628 95.607C232.113 95.6165 232.518 95.946 232.644 96.3915C232.642 95.677 232.07 95.0915 231.353 95.078C230.626 95.0645 230.026 95.643 230.012 96.3705C229.999 97.088 230.562 97.681 231.276 97.7095C230.836 97.5675 230.521 97.1505 230.53 96.6645Z" fill="#223053"/>
<path d="M232.643 96.4192L232.642 96.3917C232.516 95.9462 232.111 95.6167 231.626 95.6072C231.03 95.5962 230.539 96.0692 230.528 96.6647C230.519 97.1507 230.834 97.5677 231.274 97.7097L231.302 97.7117C232.029 97.7252 232.629 97.1462 232.643 96.4192Z" fill="#899BD7"/>
<path d="M69.7434 80.8722C69.7434 81.3532 69.3531 81.7437 68.8716 81.7437C68.3902 81.7437 68 81.3532 68 80.8722C68 80.3907 68.3902 80.0001 68.8716 80.0001C69.3531 80.0001 69.7434 80.3907 69.7434 80.8722Z" fill="white" fill-opacity="0.6"/>
</g>
<g clip-path="url(#clip3_9115_60518)">
<path d="M150.625 194.25C130.95 194.25 115 178.3 115 158.625C115 138.95 130.95 123 150.625 123C170.3 123 186.25 138.95 186.25 158.625C186.25 178.3 170.3 194.25 150.625 194.25ZM150.625 98C117.196 98 90 125.196 90 158.625C90 192.054 117.196 219.25 150.625 219.25C184.053 219.25 211.25 192.054 211.25 158.625C211.25 125.196 184.053 98 150.625 98Z" fill="#1F2853" fill-opacity="0.8"/>
</g>
<path d="M150.5 121C129.789 121 113 137.789 113 158.5C113 179.211 129.789 196 150.5 196C171.211 196 188 179.211 188 158.5C188 137.789 171.211 121 150.5 121Z" fill="#222C5C"/>
<path d="M88.2344 154.152V208.642L167.588 208.219L129.649 182.578L136.045 176.182L104.564 144.701L95.1074 143.856L88.2344 154.152Z" fill="#171D3B"/>
<path d="M88.2355 154.152L84.8115 145.806L76.6595 150.935L73.3605 143.246L26 190.607V208.642H88.2355V206.84V154.152Z" fill="#2E4085"/>
<path d="M88.2344 154.151L95.1074 143.855L104.564 144.7L103.335 143.472L88.2344 128.371V140.879V154.151Z" fill="#D5EDFA"/>
<path d="M84.8103 145.805L88.2343 154.151V128.371L77.5588 139.047L73.3594 143.246L76.6583 150.934L84.8103 145.805Z" fill="#E9F5FC"/>
<g clip-path="url(#clip4_9115_60518)">
<path d="M239.346 148L229 163.536V239H300V195.804L260.579 156.289L239.346 148Z" fill="#171D3B"/>
<path d="M229 239V164.29L223.894 151.823L215.294 162.58L206.822 148L156.364 198.555L116 238.996L229 239Z" fill="#2E4085"/>
<path d="M229 164L239.484 148.425L261 156.735L252.035 147.845L229 125V143.922V164Z" fill="#D5EDFA"/>
<path d="M223.935 151.374L229 164V125L213.211 141.15L207 147.503L215.404 162.268L223.935 151.374Z" fill="#E9F5FC"/>
</g>
<path d="M150.5 172.12V215.228H240.725L150.5 172.12Z" fill="#D5EDFA"/>
<path d="M147.006 170.716L55.4688 215.475H150.462V172.367L147.006 170.716Z" fill="#E9F5FC"/>
<path d="M143.447 181.397C143.447 186.377 139.409 190.415 134.429 190.415C129.448 190.415 125.41 186.377 125.41 181.397C125.41 176.416 129.448 172.378 134.429 172.378C139.409 172.378 143.447 176.416 143.447 181.397Z" fill="#E9F5FC"/>
<path d="M120.86 186.58C120.86 189.678 118.349 192.19 115.251 192.19C112.152 192.19 109.641 189.678 109.641 186.58C109.641 183.482 112.152 180.97 115.251 180.97C118.349 180.97 120.86 183.482 120.86 186.58Z" fill="#E9F5FC"/>
<path d="M131.687 183.46C131.687 187.499 128.412 190.774 124.373 190.774C120.333 190.774 117.059 187.499 117.059 183.46C117.059 179.421 120.333 176.146 124.373 176.146C128.412 176.146 131.687 179.421 131.687 183.46Z" fill="#E9F5FC"/>
<path d="M149.819 181.847C149.819 185.887 146.544 189.161 142.505 189.161C138.466 189.161 135.191 185.887 135.191 181.847C135.191 177.808 138.466 174.533 142.505 174.533C146.544 174.533 149.819 177.808 149.819 181.847Z" fill="#E9F5FC"/>
<path d="M113.663 192.191C113.663 196.23 110.388 199.505 106.349 199.505C102.31 199.505 99.0352 196.23 99.0352 192.191C99.0352 188.151 102.31 184.876 106.349 184.876C110.388 184.876 113.663 188.151 113.663 192.191Z" fill="#E9F5FC"/>
<path d="M148.669 160.025C148.669 161.728 147.289 163.108 145.586 163.108C143.884 163.108 142.504 161.728 142.504 160.025C142.504 158.323 143.884 156.943 145.586 156.943C147.289 156.943 148.669 158.323 148.669 160.025Z" fill="#E9F5FC"/>
<path d="M150.274 165.623C150.274 167.691 148.38 169.367 146.044 169.367C143.707 169.367 141.812 167.691 141.812 165.623C141.812 163.554 143.707 161.878 146.044 161.878C148.38 161.878 150.274 163.554 150.274 165.623Z" fill="#E9F5FC"/>
<path d="M147.773 173.233C147.066 175.528 144.391 176.74 141.798 175.942C139.205 175.143 137.677 172.635 138.384 170.34C139.091 168.046 141.766 166.833 144.359 167.631C146.951 168.43 148.48 170.938 147.773 173.233Z" fill="#E9F5FC"/>
<path d="M103.366 202.473C100.483 206.535 94.8536 207.49 90.7916 204.608C86.7301 201.725 85.7743 196.096 88.6566 192.034C91.5391 187.973 97.1686 187.017 101.231 189.899C105.292 192.782 106.248 198.411 103.366 202.473Z" fill="#E9F5FC"/>
<path d="M86.7481 202.635C83.4954 207.218 77.1437 208.297 72.5606 205.045C67.9776 201.792 66.8991 195.44 70.1517 190.857C73.4042 186.274 79.756 185.195 84.339 188.448C88.9221 191.701 90.0006 198.052 86.7481 202.635Z" fill="#E9F5FC"/>
<path d="M108.299 206.529C105.961 209.823 101.396 210.598 98.1016 208.26C94.8071 205.922 94.0316 201.357 96.3696 198.063C98.7076 194.769 103.273 193.993 106.567 196.331C109.862 198.669 110.637 203.235 108.299 206.529Z" fill="#E9F5FC"/>
<path d="M119.991 188.068C119.006 189.456 117.082 189.782 115.693 188.797C114.305 187.812 113.978 185.888 114.963 184.499C115.949 183.111 117.873 182.784 119.261 183.77C120.649 184.755 120.976 186.679 119.991 188.068Z" fill="#E9F5FC"/>
<path d="M118.061 193.561C116.864 195.248 114.348 195.519 112.443 194.166C110.537 192.814 109.963 190.35 111.16 188.664C112.357 186.977 114.872 186.706 116.778 188.058C118.683 189.411 119.258 191.874 118.061 193.561Z" fill="#E9F5FC"/>
<path d="M111.619 198.32C109.714 199.782 106.831 199.223 105.179 197.071C103.527 194.919 103.732 191.989 105.637 190.527C107.542 189.065 110.425 189.624 112.077 191.776C113.729 193.928 113.524 196.858 111.619 198.32Z" fill="#E9F5FC"/>
<path d="M156.703 181.397C156.703 186.377 160.741 190.415 165.721 190.415C170.702 190.415 174.74 186.377 174.74 181.397C174.74 176.416 170.702 172.378 165.721 172.378C160.741 172.378 156.703 176.416 156.703 181.397Z" fill="#D5EDFA"/>
<path d="M179.289 186.58C179.289 189.678 181.801 192.19 184.899 192.19C187.997 192.19 190.509 189.678 190.509 186.58C190.509 183.482 187.997 180.97 184.899 180.97C181.801 180.97 179.289 183.482 179.289 186.58Z" fill="#D5EDFA"/>
<path d="M168.461 183.46C168.461 187.499 171.736 190.774 175.775 190.774C179.814 190.774 183.089 187.499 183.089 183.46C183.089 179.421 179.814 176.146 175.775 176.146C171.736 176.146 168.461 179.421 168.461 183.46Z" fill="#D5EDFA"/>
<path d="M150.328 181.847C150.328 185.887 153.603 189.161 157.642 189.161C161.682 189.161 164.956 185.887 164.956 181.847C164.956 177.808 161.682 174.533 157.642 174.533C153.603 174.533 150.328 177.808 150.328 181.847Z" fill="#D5EDFA"/>
<path d="M180.438 183.46C180.438 187.499 183.712 190.774 187.752 190.774C191.791 190.774 195.066 187.499 195.066 183.46C195.066 179.421 191.791 176.146 187.752 176.146C183.712 176.146 180.438 179.421 180.438 183.46Z" fill="#D5EDFA"/>
<path d="M186.484 192.191C186.484 196.23 189.759 199.505 193.798 199.505C197.838 199.505 201.112 196.23 201.112 192.191C201.112 188.151 197.838 184.876 193.798 184.876C189.759 184.876 186.484 188.151 186.484 192.191Z" fill="#D5EDFA"/>
<path d="M152.188 155.449C152.188 157.152 153.568 158.532 155.27 158.532C156.972 158.532 158.353 157.152 158.353 155.449C158.353 153.747 156.972 152.367 155.27 152.367C153.568 152.367 152.188 153.747 152.188 155.449Z" fill="#D5EDFA"/>
<path d="M153.617 165.505C153.617 167.208 154.997 168.588 156.7 168.588C158.402 168.588 159.782 167.208 159.782 165.505C159.782 163.803 158.402 162.423 156.7 162.423C154.997 162.423 153.617 163.803 153.617 165.505Z" fill="#D5EDFA"/>
<path d="M151.039 161.036C151.039 163.104 152.934 164.781 155.27 164.781C157.607 164.781 159.501 163.104 159.501 161.036C159.501 158.968 157.607 157.291 155.27 157.291C152.934 157.291 151.039 158.968 151.039 161.036Z" fill="#D5EDFA"/>
<path d="M152.946 171.353C153.654 173.648 156.329 174.86 158.921 174.061C161.514 173.262 163.043 170.754 162.336 168.46C161.628 166.165 158.953 164.952 156.361 165.751C153.768 166.55 152.239 169.058 152.946 171.353Z" fill="#D5EDFA"/>
<path d="M155.091 174.637C155.798 176.932 158.473 178.145 161.065 177.346C163.658 176.547 165.187 174.039 164.479 171.744C163.772 169.45 161.097 168.237 158.505 169.036C155.912 169.835 154.384 172.342 155.091 174.637Z" fill="#D5EDFA"/>
<path d="M200.033 202.521C203.194 206.37 208.877 206.928 212.726 203.768C216.575 200.607 217.134 194.924 213.973 191.075C210.812 187.226 205.129 186.668 201.28 189.829C197.431 192.989 196.873 198.672 200.033 202.521Z" fill="#D5EDFA"/>
<path d="M220.782 192.193C222.749 194.588 226.283 194.935 228.678 192.968C231.073 191.003 231.42 187.467 229.453 185.073C227.488 182.678 223.952 182.331 221.558 184.298C219.163 186.264 218.816 189.798 220.782 192.193Z" fill="#D5EDFA"/>
<path d="M210.431 196.653C212.995 199.775 217.604 200.228 220.725 197.664C223.847 195.101 224.3 190.492 221.737 187.37C219.173 184.248 214.565 183.796 211.443 186.359C208.321 188.922 207.868 193.531 210.431 196.653Z" fill="#D5EDFA"/>
<path d="M195.396 206.913C197.96 210.035 202.569 210.488 205.69 207.924C208.812 205.361 209.265 200.752 206.701 197.631C204.138 194.508 199.53 194.056 196.407 196.619C193.286 199.182 192.833 203.791 195.396 206.913Z" fill="#D5EDFA"/>
<path d="M221.662 199.327C224.225 202.449 228.834 202.902 231.956 200.338C235.078 197.775 235.53 193.166 232.967 190.044C230.403 186.922 225.795 186.469 222.673 189.033C219.551 191.596 219.098 196.205 221.662 199.327Z" fill="#D5EDFA"/>
<path d="M232.662 196.328C235.225 199.449 239.833 199.902 242.956 197.338C246.077 194.775 246.53 190.166 243.967 187.044C241.403 183.923 236.794 183.47 233.672 186.033C230.551 188.597 230.098 193.205 232.662 196.328Z" fill="#D5EDFA"/>
<path d="M180.083 185.331C181.163 186.647 183.105 186.838 184.421 185.757C185.737 184.677 185.928 182.735 184.847 181.419C183.767 180.104 181.825 179.913 180.509 180.993C179.193 182.073 179.003 184.016 180.083 185.331Z" fill="#D5EDFA"/>
<path d="M187.568 192.196C188.648 193.511 190.59 193.702 191.906 192.622C193.221 191.542 193.412 189.599 192.332 188.283C191.252 186.968 189.309 186.777 187.994 187.858C186.678 188.938 186.487 190.881 187.568 192.196Z" fill="#D5EDFA"/>
<path d="M182.741 190.379C184.054 191.977 186.581 192.07 188.388 190.588C190.193 189.105 190.594 186.607 189.281 185.009C187.969 183.41 185.441 183.317 183.635 184.799C181.829 186.282 181.429 188.78 182.741 190.379Z" fill="#D5EDFA"/>
<path d="M190.762 197.14C192.765 198.465 195.602 197.705 197.099 195.442C198.596 193.179 198.186 190.271 196.183 188.946C194.18 187.621 191.344 188.381 189.846 190.644C188.35 192.907 188.76 195.815 190.762 197.14Z" fill="#D5EDFA"/>
<path d="M194.497 198.32C196.5 199.645 199.337 198.885 200.833 196.622C202.33 194.36 201.92 191.451 199.917 190.127C197.915 188.802 195.078 189.562 193.581 191.825C192.084 194.088 192.494 196.996 194.497 198.32Z" fill="#D5EDFA"/>
<path d="M146 211H151V101H146V211Z" fill="#E9F5FC"/>
<path d="M151 211H155V101H151V211Z" fill="#D5EDFA"/>
<path d="M158.328 127.243L158.465 126.096L158.468 126.098L158.328 127.243Z" fill="#EF294C"/>
<path d="M149 195H147.398L147 103C147.628 104.807 148.28 106.457 148.839 107.79L149 195Z" fill="#F9F3FA"/>
<path d="M153.602 195H152L152.161 107.79C152.72 106.457 153.373 104.806 154 103L153.602 195Z" fill="#EFE8F6"/>
<path d="M150.543 199.229H149.109H150.499L150.557 139.792C150.562 139.799 150.566 139.804 150.569 139.809L150.543 199.229Z" fill="#F9F3FA"/>
<path d="M150.928 195H149.221L149 107C150.04 108.832 150.844 110.073 151 110.311L150.928 195Z" fill="#FCF2F9"/>
<path d="M150.598 159.514L150.59 139.808C150.592 139.805 150.595 139.801 150.598 139.797V159.514Z" fill="#F6F4FB"/>
<path d="M152.054 199.229H150.619L150.602 159.515V139.797C150.603 139.796 150.604 139.794 150.605 139.792L150.664 199.229H152.054Z" fill="#EFE8F6"/>
<path d="M151.89 195H151.036L151 110.311C151.078 110.073 151.48 108.833 152 107L151.89 195Z" fill="#F7E7F5"/>
<path d="M89.1295 120.725C90.043 120.725 90.783 119.984 90.783 119.071C90.783 118.158 90.043 117.418 89.1295 117.418C88.2165 117.418 87.4766 118.158 87.4766 119.071C87.4766 119.984 88.2165 120.725 89.1295 120.725Z" fill="white"/>
<path d="M109.291 84.1854C109.291 84.6369 108.925 85.0029 108.474 85.0029C108.022 85.0029 107.656 84.6369 107.656 84.1854C107.656 83.7339 108.022 83.3679 108.474 83.3679C108.925 83.3679 109.291 83.7339 109.291 84.1854Z" fill="white"/>
<path d="M91.5022 144.828C91.5022 145.158 91.2342 145.426 90.9037 145.426C90.5727 145.426 90.3047 145.158 90.3047 144.828C90.3047 144.497 90.5727 144.229 90.9037 144.229C91.2342 144.229 91.5022 144.497 91.5022 144.828Z" fill="white"/>
<path d="M219.691 124.239C219.691 124.71 219.309 125.092 218.838 125.092C218.366 125.092 217.984 124.71 217.984 124.239C217.984 123.768 218.366 123.386 218.838 123.386C219.309 123.386 219.691 123.768 219.691 124.239Z" fill="white"/>
<path d="M267.184 151.092C267.184 151.695 266.695 152.184 266.092 152.184C265.489 152.184 265 151.695 265 151.092C265 150.489 265.489 150 266.092 150C266.695 150 267.184 150.489 267.184 151.092Z" fill="white"/>
<path d="M179.983 197.121L179.855 197.021C179.958 196.94 180.063 196.861 180.159 196.775C180.2 196.838 180.236 196.904 180.279 196.966C180.179 197.016 180.081 197.07 179.983 197.121ZM300 209.128V186.666C296.694 184.374 292.344 182.98 287.575 182.98C280.442 182.98 274.242 186.094 271.08 190.675C269.23 189.973 267.142 189.569 264.925 189.569C261.26 189.569 257.941 190.654 255.493 192.41C253.775 191.766 251.842 191.396 249.789 191.396C243.956 191.396 239.049 194.321 237.537 198.31C235.937 197.771 234.168 197.463 232.299 197.463C228.318 197.463 224.765 198.826 222.429 200.959C221.119 195.739 215.181 191.66 207.965 191.236C203.111 190.951 198.669 192.28 195.494 194.577C195.699 192.287 194.138 190.01 191.246 188.858C187.804 187.485 183.627 188.16 181.226 190.315C180.509 189.199 179.334 188.233 177.757 187.605C175.678 186.775 173.333 186.7 171.271 187.241C170.266 182.769 165.066 179.358 158.784 179.358C155.321 179.358 152.186 180.396 149.899 182.073C148.007 181.236 145.806 180.747 143.447 180.747C138.28 180.747 133.843 183.056 131.869 186.363C130.373 185.851 128.713 185.557 126.959 185.557C121.879 185.557 117.563 187.956 115.902 191.314C114.181 190.937 112.361 190.731 110.477 190.731C101.71 190.731 94.3193 195.109 92.006 201.092H89.942C87.6873 197.593 82.9053 195.172 77.3527 195.172C73.28 195.172 69.6253 196.48 67.0713 198.552C65.3219 194.862 60.6153 192.212 55.0667 192.212C52.6953 192.212 50.4833 192.705 48.5818 193.545C47.2331 193.146 45.7667 192.919 44.2268 192.919C40.9802 192.919 38.0403 193.898 35.9075 195.481C32.5911 191.172 26.3656 188.268 19.2261 188.268C9.29347 188.268 1.12187 193.885 0.107552 201.092H0V202.605V216.358H300V209.128Z" fill="white"/>
<path d="M279.942 118.971C279.942 119.507 279.507 119.942 278.971 119.942C278.434 119.942 278 119.507 278 118.971C278 118.435 278.434 118 278.971 118C279.507 118 279.942 118.435 279.942 118.971Z" fill="white"/>
<path d="M262.942 78.9714C262.942 79.5074 262.507 79.9424 261.971 79.9424C261.434 79.9424 261 79.5074 261 78.9714C261 78.4349 261.434 77.9999 261.971 77.9999C262.507 77.9999 262.942 78.4349 262.942 78.9714Z" fill="white" fill-opacity="0.5"/>
<path d="M157.441 17.7881H150.059V79.3359H157.839C159.058 70.1694 161.898 47.4272 161.997 36.6455C162.05 30.8986 159.924 23.9343 157.441 17.7881Z" fill="#EE244F"/>
<path d="M160.174 17.7881H157.441C159.925 23.9343 162.05 30.8986 161.998 36.6455C161.899 47.4272 159.059 70.1694 157.839 79.3359H161.998L165.675 50.2402C167.089 39.0497 165.12 27.8059 160.174 17.7881Z" fill="#D8213D"/>
<path d="M150.059 2.99978V14.459H156.031C153.946 9.74764 151.85 5.83533 150.729 3.82594L150.059 2.99978Z" fill="#EE244F"/>
<path d="M153.152 6.81114L150.73 3.82594C151.852 5.83533 153.948 9.74764 156.033 14.459H158.405C156.869 11.7992 155.122 9.23838 153.152 6.81114Z" fill="#D8213D"/>
<path d="M139.949 17.7881C135.002 27.8059 133.032 39.0497 134.448 50.2402L138.126 79.3359H150.068L150.23 17.7881H139.949Z" fill="#EF2F56"/>
<path d="M150.059 14.4594V17.7881H160.174C159.618 16.6636 159.033 15.5512 158.403 14.4594H150.059Z" fill="#CB1E27"/>
<path d="M150.059 14.4594H141.553C140.922 15.5512 140.337 16.6636 139.781 17.7881H150.059V14.4594Z" fill="#D8213D"/>
<path d="M146.807 6.81114C144.838 9.23838 143.09 11.7992 141.555 14.459H150.061V2.99978L146.807 6.81114Z" fill="#EF2F62"/>
<path d="M149.898 87.249H153.887C158.367 87.249 161.999 83.7415 161.999 79.4149V79.336H149.898V87.249Z" fill="#F9B126"/>
<path d="M160.387 57.9334L171.762 66.434C173.67 67.8593 175.022 69.8647 175.602 72.1242L179.667 87.9673C180.112 89.7045 179.77 92.3944 177.917 92.4175L176.858 91.4135C175.758 91.4276 174.744 90.833 174.25 89.8823L168.768 79.3356H157.84L160.387 57.9334Z" fill="#EF2F56"/>
<path d="M160.147 60.3754L171.762 68.1086C173.67 69.5334 175.022 71.5383 175.602 73.7988L179.667 89.6414C180.112 91.3791 178.766 93.064 176.913 93.0871L176.858 93.0882C175.758 93.1017 174.744 92.5071 174.25 91.5569L168.768 81.0097L157.84 79.3358L160.147 60.3754Z" fill="#CB1E27"/>
<path d="M150.058 87.249H146.068C141.589 87.249 137.957 83.7415 137.957 79.4149V79.336H150.058V87.249Z" fill="#FBC95C"/>
<path d="M149.9 39.2312C146.662 39.2312 144.036 36.696 144.036 33.5676C144.036 30.4398 146.662 27.9041 149.9 27.9041L149.98 27.9081V25.8058L149.9 25.8018C145.459 25.8018 141.859 29.2792 141.859 33.5676C141.859 37.8566 145.459 41.3335 149.9 41.3335L149.98 41.33V39.2277L149.9 39.2312Z" fill="#B61D23"/>
<path d="M157.937 33.5677C157.937 29.3054 154.38 25.8481 149.977 25.8059V27.9082C153.177 27.9504 155.76 30.466 155.76 33.5677C155.76 36.67 153.177 39.1856 149.977 39.2278V41.3301C154.38 41.2879 157.937 37.8301 157.937 33.5677Z" fill="#CB1E27"/>
<path d="M144.035 33.5679C144.035 36.6962 146.661 39.2314 149.899 39.2314L149.979 39.2279V27.9083L149.899 27.9043C146.661 27.9043 144.035 30.44 144.035 33.5679Z" fill="#171D3B"/>
<path d="M155.76 33.5675C155.76 30.4658 153.177 27.9501 149.977 27.908V39.2275C153.177 39.1854 155.76 36.6697 155.76 33.5675Z" fill="#1F2853"/>
<path d="M148.005 31.4978C148.005 31.9111 147.67 32.2466 147.257 32.2466C146.843 32.2466 146.508 31.9111 146.508 31.4978C146.508 31.0844 146.843 30.749 147.257 30.749C147.67 30.749 148.005 31.0844 148.005 31.4978Z" fill="#F4F5F5"/>
<path d="M137.483 59.4941C137.417 58.6007 137.351 57.6912 137.286 56.7686C137.137 54.6035 136.988 52.3666 136.865 50.09C136.738 47.8145 136.627 45.5007 136.561 43.183C136.481 40.8667 136.466 38.5439 136.505 36.2548C136.534 35.6557 136.549 35.1213 136.608 34.5367C136.661 33.9587 136.722 33.3871 136.811 32.8297C136.969 31.7082 137.201 30.6159 137.46 29.5517C138.527 25.2963 140.197 21.5593 141.8 18.4792C141.922 18.2451 142.045 18.0146 142.167 17.7881H142.599C142.457 18.0744 142.315 18.3672 142.172 18.6655C140.69 21.7798 139.173 25.5429 138.281 29.7405C138.065 30.7886 137.878 31.8609 137.764 32.9522C137.696 33.4991 137.66 34.045 137.628 34.591C137.591 35.1288 137.595 35.729 137.588 36.2659C137.622 38.5254 137.712 40.8235 137.866 43.1222C138.007 45.4214 138.192 47.7195 138.393 49.9805C138.589 52.2421 138.81 54.4659 139.029 56.6179C139.084 57.1548 139.14 57.6871 139.195 58.2145L137.483 59.4941Z" fill="#F14B81"/>
<path d="M142.601 17.7881H142.168C142.826 16.5652 143.473 15.4528 144.082 14.4594H144.369C143.805 15.4543 143.207 16.5672 142.601 17.7881Z" fill="#ED3C6C"/>
<path d="M144.369 14.459H144.082C144.845 13.2135 145.548 12.1548 146.135 11.297C147.283 9.63012 148.008 8.72963 148.008 8.72963C148.008 8.72963 147.316 9.65573 146.231 11.3603C145.694 12.2075 145.057 13.2461 144.369 14.459Z" fill="#F24D8B"/>
<path d="M139.571 57.9334L128.194 66.434C126.288 67.8593 124.934 69.8647 124.355 72.1242L120.29 87.9673C119.844 89.7045 119.685 92.3944 121.537 92.4175L123.099 91.4135C124.2 91.4276 125.213 90.833 125.707 89.8823L131.189 79.3356L141.946 79.314L139.571 57.9334Z" fill="#EE244F"/>
<path d="M139.8 60.0074L128.193 68.508C126.287 69.9328 124.934 71.9382 124.354 74.1977L120.289 90.0408C119.843 91.7785 121.19 93.4635 123.043 93.4866L123.098 93.4876C124.199 93.5011 125.212 92.907 125.706 91.9563L131.188 81.4091L141.945 79.3144L139.8 60.0074Z" fill="#D8213D"/>
<path d="M157.839 79.3359L150.059 79.3254V70.2658L157.976 78.1833L157.839 79.3359Z" fill="#EE2146"/>
<path d="M149.897 79.3247L141.945 79.3142L139.801 60.0072L149.922 70.128L149.897 79.3247Z" fill="#EF294C"/>
<path d="M150.06 113.708V90.0815H149.994C146.415 90.0815 143.479 94.1017 143.524 99.4936C143.573 105.261 150.06 113.708 150.06 113.708Z" fill="#EE2A38"/>
<path d="M150.059 113.708V90.0815H150.124C153.703 90.0815 156.64 94.1017 156.594 99.4936C156.545 105.261 150.059 113.708 150.059 113.708Z" fill="#EE252F"/>
<path d="M149.88 106.737L150.059 106.913V90.7852H150.014C147.571 90.7852 145.59 93.6348 145.59 97.1489L145.597 97.2097C146.072 101.087 147.617 104.524 149.88 106.737Z" fill="#FBCA62"/>
<path d="M150.237 106.737L150.059 106.913V90.7852H150.103C152.546 90.7852 154.527 93.6348 154.527 97.1489L154.519 97.2097C154.045 101.087 152.5 104.524 150.237 106.737Z" fill="#FBC442"/>
<path d="M150.017 100.93L149.995 100.897C148.586 98.734 147.889 96.1842 148.004 93.6058L148.014 93.4064C148.067 92.2071 148.857 91.1665 149.998 90.7913L150.017 90.7853V100.93Z" fill="#FBFAB3"/>
<path d="M150.059 100.86V90.8003C151.185 91.182 151.964 92.2161 152.017 93.4064L152.025 93.6058C152.14 96.1696 151.452 98.7058 150.059 100.86Z" fill="#F7F679"/>
<path d="M203.541 70.7705C203.541 71.1965 203.196 71.5415 202.77 71.5415C202.345 71.5415 202 71.1965 202 70.7705C202 70.345 202.345 70 202.77 70C203.196 70 203.541 70.345 203.541 70.7705Z" fill="white"/>
<path d="M30.7434 68.8722C30.7434 69.3532 30.3531 69.7437 29.8716 69.7437C29.3902 69.7437 29 69.3532 29 68.8722C29 68.3907 29.3902 68.0001 29.8716 68.0001C30.3531 68.0001 30.7434 68.3907 30.7434 68.8722Z" fill="white" fill-opacity="0.4"/>
<path d="M38.635 125.817C38.635 126.269 38.269 126.635 37.8175 126.635C37.366 126.635 37 126.269 37 125.817C37 125.366 37.366 125 37.8175 125C38.269 125 38.635 125.366 38.635 125.817Z" fill="white"/>
</g>
</g>
<defs>
<clipPath id="clip0_9115_60518">
<rect width="300" height="215" fill="white"/>
</clipPath>
<clipPath id="clip1_9115_60518">
<rect width="300" height="215" fill="white"/>
</clipPath>
<clipPath id="clip2_9115_60518">
<rect width="171" height="143" fill="white" transform="translate(65 73)"/>
</clipPath>
<clipPath id="clip3_9115_60518">
<rect width="121" height="118" fill="white" transform="translate(90 98)"/>
</clipPath>
<clipPath id="clip4_9115_60518">
<rect width="184" height="91" fill="white" transform="translate(116 125)"/>
</clipPath>
</defs>
</svg>
