<svg width="74" height="75" viewBox="0 0 74 75" fill="none" xmlns="http://www.w3.org/2000/svg">
<g filter="url(#filter0_d_9537_50739)">
<rect x="15" y="12" width="44" height="44" rx="5" fill="#4B7BE5"/>
</g>
<g filter="url(#filter1_d_9537_50739)">
<rect x="15" y="11" width="44" height="44" rx="5" fill="white"/>
</g>
<path d="M37.4993 35.9105C40.5697 35.9105 42.7469 31.2739 42.7469 28.7976C42.7469 26.0578 40.4022 23.8448 37.4993 23.8448C34.5964 23.8448 32.2517 26.0578 32.2517 28.7976C32.2517 31.2739 34.4289 35.9105 37.4993 35.9105Z" fill="#97C0FF"/>
<path d="M38.784 36.4641H36.2161C31.4151 36.4641 27.5073 40.1523 27.5073 44.6835C27.5073 44.947 27.7865 45.2104 28.0656 45.2104H46.9903C47.2695 45.2104 47.5486 44.947 47.5486 44.6835C47.4928 40.1523 43.585 36.4641 38.784 36.4641Z" fill="#97C0FF"/>
<path d="M46.5437 27.5861H45.7621C45.483 23.7398 42.0777 21 37.5 21C32.9223 21 29.517 23.7398 29.2379 27.5861H28.4563C27.1165 27.5861 26 28.6398 26 29.9044V30.9581C26 32.2227 27.1165 33.2764 28.4563 33.2764H29.7961C30.0752 33.2764 30.3544 33.0657 30.3544 32.7496V28.113C30.3544 24.5828 33.3131 22.1065 37.5 22.1065C41.6869 22.1065 44.6456 24.5828 44.6456 28.113V32.7496C44.6456 33.0657 44.9248 33.2764 45.2039 33.2764H46.5437C47.8835 33.2764 49 32.2227 49 30.9581V29.9044C49 28.5872 47.8835 27.5861 46.5437 27.5861Z" fill="#060B29"/>
<path d="M29.7398 34.4357L29.684 34.3303H28.4558L28.6791 34.8045C28.9582 35.4895 29.6281 35.911 30.4097 35.911H33.0335C33.3684 35.911 33.5917 35.7002 33.5917 35.3841C33.5917 35.068 33.3684 34.8572 33.0335 34.8572H30.4097C30.1306 34.8572 29.8514 34.6991 29.7398 34.4357Z" fill="#060B29"/>
<defs>
<filter id="filter0_d_9537_50739" x="0" y="1" width="74" height="74" filterUnits="userSpaceOnUse" color-interpolation-filters="sRGB">
<feFlood flood-opacity="0" result="BackgroundImageFix"/>
<feColorMatrix in="SourceAlpha" type="matrix" values="0 0 0 0 0 0 0 0 0 0 0 0 0 0 0 0 0 0 127 0" result="hardAlpha"/>
<feOffset dy="4"/>
<feGaussianBlur stdDeviation="7.5"/>
<feComposite in2="hardAlpha" operator="out"/>
<feColorMatrix type="matrix" values="0 0 0 0 0 0 0 0 0 0 0 0 0 0 0 0 0 0 0.08 0"/>
<feBlend mode="normal" in2="BackgroundImageFix" result="effect1_dropShadow_9537_50739"/>
<feBlend mode="normal" in="SourceGraphic" in2="effect1_dropShadow_9537_50739" result="shape"/>
</filter>
<filter id="filter1_d_9537_50739" x="0" y="0" width="74" height="74" filterUnits="userSpaceOnUse" color-interpolation-filters="sRGB">
<feFlood flood-opacity="0" result="BackgroundImageFix"/>
<feColorMatrix in="SourceAlpha" type="matrix" values="0 0 0 0 0 0 0 0 0 0 0 0 0 0 0 0 0 0 127 0" result="hardAlpha"/>
<feOffset dy="4"/>
<feGaussianBlur stdDeviation="7.5"/>
<feComposite in2="hardAlpha" operator="out"/>
<feColorMatrix type="matrix" values="0 0 0 0 0 0 0 0 0 0 0 0 0 0 0 0 0 0 0.08 0"/>
<feBlend mode="normal" in2="BackgroundImageFix" result="effect1_dropShadow_9537_50739"/>
<feBlend mode="normal" in="SourceGraphic" in2="effect1_dropShadow_9537_50739" result="shape"/>
</filter>
</defs>
</svg>
