<svg width="39" height="35" viewBox="0 0 39 35" fill="none" xmlns="http://www.w3.org/2000/svg">
<path d="M15.0996 7.34003C15.0998 5.39338 15.8746 3.52651 17.2536 2.15002C18.6327 0.773538 20.5031 0.000165131 22.4533 0H31.6457C33.5959 0.000165131 35.4663 0.773538 36.8454 2.15002C38.2244 3.52651 38.9992 5.39338 38.9994 7.34003C38.9992 9.28667 38.2244 11.1535 36.8454 12.53C35.4663 13.9065 33.5959 14.6799 31.6457 14.68H22.4533V11.0097H31.6457C32.6209 11.0097 33.5562 10.623 34.2458 9.93471C34.9354 9.24639 35.3228 8.31283 35.3228 7.3394C35.3228 6.36597 34.9354 5.43241 34.2458 4.74409C33.5562 4.05577 32.6209 3.66908 31.6457 3.66908H22.4533C21.4781 3.66908 20.5428 4.05577 19.8532 4.74409C19.1636 5.43241 18.7762 6.36597 18.7762 7.3394L15.0996 7.34003Z" fill="#34B751"/>
<path d="M18.4087 18.5763C19.0982 19.2646 19.4856 20.1982 19.4856 21.1715C19.4856 22.1449 19.0982 23.0784 18.4087 23.7667L11.9084 30.2549C11.2188 30.9431 10.2836 31.3298 9.30839 31.3298C8.3332 31.3298 7.39795 30.9431 6.70835 30.2549C6.01882 29.5665 5.63145 28.633 5.63145 27.6597C5.63145 26.6863 6.01882 25.7528 6.70835 25.0645L13.2086 18.5763L10.6089 15.9814L4.10863 22.4696C2.72971 23.8463 1.95508 25.7133 1.95508 27.66C1.95508 29.6067 2.72971 31.4737 4.10863 32.8504C5.4879 34.2267 7.35838 34.9999 9.30871 34.9999C11.259 34.9999 13.1295 34.2267 14.5088 32.8504L21.009 26.3622C22.388 24.9855 23.1626 23.1185 23.1626 21.1718C23.1626 19.2251 22.388 17.3581 21.009 15.9814L18.4087 18.5763Z" fill="#34B751"/>
<path d="M6.47336 8.83183L7.77344 7.53418L4.09643 3.86402L2.79635 5.16168L6.47336 8.83183Z" fill="#34B751"/>
<path d="M12.5584 1.07324H11.0811V6.23436H12.5584V1.07324Z" fill="#34B751"/>
<path d="M5.17076 12.1323H0V13.6069H5.17076V12.1323Z" fill="#34B751"/>
</svg>
