<svg width="31" height="35" viewBox="0 0 31 35" fill="none" xmlns="http://www.w3.org/2000/svg">
<path d="M8.4506 6.99122L6.42513 4.93046C6.19421 4.69541 5.91992 4.50893 5.61797 4.38169C5.31603 4.25446 4.99234 4.18896 4.66545 4.18896C4.33856 4.18896 4.01488 4.25446 3.71293 4.38169C3.41098 4.50893 3.1367 4.69541 2.90577 4.93046L1.43784 6.42532C0.973541 6.8993 0.712891 7.54078 0.712891 8.20947C0.712891 8.87816 0.973541 9.51964 1.43784 9.99362L3.46729 12.062C3.65787 12.2555 3.91631 12.3643 4.18579 12.3643C4.45527 12.3643 4.71371 12.2555 4.90429 12.062C5.30359 11.6594 8.05229 8.85523 8.4481 8.45312C8.5429 8.35739 8.61818 8.24359 8.66963 8.11825C8.72108 7.99291 8.74768 7.8585 8.74791 7.7227C8.74814 7.5869 8.722 7.45239 8.67098 7.32687C8.61996 7.20135 8.54507 7.08729 8.4506 6.99122Z" fill="#34B751"/>
<path d="M15.527 0.206543C15.2574 0.206543 14.999 0.315314 14.8084 0.508928C14.6178 0.702542 14.5107 0.965139 14.5107 1.23895V4.54255C14.5107 4.81636 14.6178 5.07896 14.8084 5.27257C14.999 5.46619 15.2574 5.57496 15.527 5.57496C15.7965 5.57496 16.055 5.46619 16.2455 5.27257C16.4361 5.07896 16.5432 4.81636 16.5432 4.54255V1.23895C16.5432 1.10337 16.5169 0.969123 16.4658 0.843865C16.4148 0.718608 16.3399 0.604796 16.2455 0.508928C16.1512 0.41306 16.0392 0.337014 15.9159 0.28513C15.7926 0.233247 15.6604 0.206543 15.527 0.206543Z" fill="#34B751"/>
<path d="M18.0334 0H13.0201C12.7506 0 12.4921 0.108771 12.3016 0.302385C12.111 0.495999 12.0039 0.758596 12.0039 1.03241C12.0039 1.30622 12.111 1.56882 12.3016 1.76243C12.4921 1.95604 12.7506 2.06481 13.0201 2.06481H18.0334C18.3029 2.06481 18.5614 1.95604 18.752 1.76243C18.9425 1.56882 19.0496 1.30622 19.0496 1.03241C19.0496 0.758596 18.9425 0.495999 18.752 0.302385C18.5614 0.108771 18.3029 0 18.0334 0Z" fill="#34B751"/>
<path d="M15.5404 0H13.0338C12.7643 0 12.5058 0.108771 12.3152 0.302385C12.1246 0.495999 12.0176 0.758596 12.0176 1.03241C12.0176 1.30622 12.1246 1.56882 12.3152 1.76243C12.5058 1.95604 12.7643 2.06481 13.0338 2.06481H15.5404V0Z" fill="#34B751"/>
<path d="M26.4693 8.12788C23.9354 5.54925 20.5996 3.94316 17.0306 3.58334C13.4616 3.22352 9.88017 4.13225 6.8968 6.15465C3.91342 8.17704 1.71273 11.1879 0.669801 14.6741C-0.37313 18.1603 -0.193752 21.9061 1.17736 25.273C2.54848 28.6399 5.02647 31.4195 8.189 33.1382C11.3515 34.8568 15.0028 35.408 18.5206 34.6979C22.0384 33.9879 25.2049 32.0604 27.4805 29.244C29.7561 26.4277 30.9999 22.8968 30.9999 19.2531C31.0074 17.1864 30.6107 15.1387 29.833 13.2288C29.0553 11.319 27.9119 9.58518 26.4693 8.12788Z" fill="#34B751"/>
<path d="M15.6361 3.51766C13.5912 3.51112 11.5651 3.91503 9.67426 4.70621C7.78342 5.49739 6.06505 6.66024 4.61782 8.12799C3.17193 9.58463 2.02429 11.3177 1.2411 13.2273C0.457914 15.1368 0.0546875 17.1851 0.0546875 19.2538C0.0546875 21.3224 0.457914 23.3707 1.2411 25.2802C2.02429 27.1898 3.17193 28.9229 4.61782 30.3795C6.06513 31.8471 7.78354 33.0098 9.67437 33.8008C11.5652 34.5918 13.5912 34.9955 15.6361 34.9888V3.51766Z" fill="#34B751"/>
<path d="M15.5266 7.22096C13.2029 7.19452 10.9239 7.8704 8.97908 9.16273C7.03428 10.4551 5.51149 12.3055 4.60416 14.479C3.69684 16.6525 3.44593 19.051 3.88332 21.3697C4.3207 23.6884 5.42664 25.8226 7.06063 27.5014C8.69462 29.1801 10.7829 30.3275 13.0602 30.7979C15.3375 31.2682 17.701 31.0402 19.8505 30.1429C22 29.2456 23.8384 27.7194 25.1322 25.7583C26.4261 23.7971 27.1169 21.4895 27.1169 19.1286C27.1307 15.9892 25.9182 12.9724 23.7454 10.7401C21.5725 8.50773 18.6168 7.24215 15.5266 7.22096Z" fill="white"/>
<path d="M15.6371 7.2207C12.5284 7.2207 9.54715 8.47526 7.34903 10.7084C5.1509 12.9415 3.91602 15.9703 3.91602 19.1284C3.91602 22.2865 5.1509 25.3153 7.34903 27.5484C9.54715 29.7815 12.5284 31.036 15.6371 31.036V7.2207Z" fill="white"/>
<path d="M15.527 9.7992C15.6604 9.7992 15.7926 9.7725 15.9159 9.72062C16.0392 9.66873 16.1512 9.59269 16.2455 9.49682C16.3399 9.40095 16.4148 9.28714 16.4658 9.16188C16.5169 9.03662 16.5432 8.90237 16.5432 8.7668V7.26585C16.2083 7.23644 15.8694 7.22021 15.527 7.22021C15.1846 7.22021 14.8457 7.23593 14.5107 7.26585V8.7668C14.5107 9.04061 14.6178 9.30321 14.8084 9.49682C14.999 9.69043 15.2574 9.7992 15.527 9.7992Z" fill="#34B751"/>
<path d="M15.5279 28.457C15.3944 28.457 15.2623 28.4837 15.1389 28.5357C15.0156 28.5876 14.9036 28.6637 14.8092 28.7596C14.7148 28.8555 14.64 28.9694 14.5889 29.0947C14.5379 29.22 14.5117 29.3543 14.5117 29.4899V30.9909C14.8466 31.0203 15.1855 31.0365 15.5279 31.0365C15.8703 31.0365 16.2093 31.0208 16.5442 30.9909V29.4899C16.5442 29.3543 16.518 29.22 16.467 29.0947C16.4159 28.9694 16.3411 28.8555 16.2467 28.7596C16.1523 28.6637 16.0403 28.5876 15.917 28.5357C15.7936 28.4837 15.6614 28.457 15.5279 28.457Z" fill="#34B751"/>
<path d="M27.0732 18.0962H25.6178C25.3483 18.0962 25.0898 18.205 24.8992 18.3986C24.7086 18.5922 24.6016 18.8548 24.6016 19.1286C24.6016 19.4024 24.7086 19.665 24.8992 19.8586C25.0898 20.0522 25.3483 20.161 25.6178 20.161H27.0732C27.1022 19.8208 27.1177 19.4765 27.1177 19.1286C27.1177 18.7807 27.1012 18.4364 27.0732 18.0962Z" fill="#34B751"/>
<path d="M6.45311 19.1286C6.45311 18.8548 6.34604 18.5922 6.15546 18.3986C5.96488 18.205 5.7064 18.0962 5.43688 18.0962H3.98192C3.95297 18.4364 3.9375 18.7807 3.9375 19.1286C3.9375 19.4765 3.95297 19.8208 3.98192 20.161H5.43738C5.70681 20.1609 5.96517 20.0521 6.15564 19.8585C6.34611 19.6649 6.45311 19.4023 6.45311 19.1286Z" fill="#34B751"/>
<path d="M18.0187 18.5329H16.5852V14.3576C16.5852 14.0838 16.4781 13.8212 16.2875 13.6276C16.097 13.434 15.8385 13.3252 15.569 13.3252C15.2994 13.3252 15.041 13.434 14.8504 13.6276C14.6598 13.8212 14.5527 14.0838 14.5527 14.3576V19.5653C14.5527 19.8391 14.6598 20.1017 14.8504 20.2953C15.041 20.4889 15.2994 20.5977 15.569 20.5977H18.0187C18.2882 20.5977 18.5467 20.4889 18.7373 20.2953C18.9278 20.1017 19.0349 19.8391 19.0349 19.5653C19.0349 19.2915 18.9278 19.0289 18.7373 18.8353C18.5467 18.6416 18.2882 18.5329 18.0187 18.5329Z" fill="#34B751"/>
</svg>
