<svg width="110" height="110" viewBox="0 0 110 110" fill="none" xmlns="http://www.w3.org/2000/svg">
<rect x="15" y="12" width="80" height="80" rx="10" fill="#4B7BE5"/>
<g filter="url(#filter0_d_8568_58249)">
<rect x="15" y="11" width="80" height="80" rx="10" fill="white"/>
</g>
<path d="M60.9647 55.1201C60.9647 59.1372 56.882 61.9856 55.4617 62.862C55.1776 63.0447 54.787 63.0447 54.503 62.862C53.083 61.9855 49 59.137 49 55.1201V51.5778C49 51.1029 49.3195 50.7012 49.7811 50.6283C52.1598 50.2266 53.58 49.131 54.29 48.3276C54.6806 47.8895 55.3195 47.8895 55.71 48.3276C56.4557 49.131 57.8403 50.2266 60.2189 50.6283C60.6805 50.7014 61 51.1032 61 51.5778V55.1201H60.9647Z" fill="#4B7BE5"/>
<path d="M56.5188 54.2204L54.3534 56.123L53.5113 55.3831C53.1804 55.0924 52.609 55.0924 52.2481 55.3831C51.9173 55.6738 51.9173 56.1759 52.2481 56.4929L53.6917 57.7612C53.8721 57.9197 54.0827 57.999 54.3233 57.999C54.564 57.999 54.7744 57.9197 54.955 57.7612L57.7519 55.3039C58.0827 55.0132 58.0827 54.5111 57.7519 54.1941C57.421 53.9297 56.8496 53.9297 56.5188 54.2204V54.2204Z" fill="white"/>
<path d="M49.3717 42.8818H60.4866C60.9113 42.8818 61.2654 42.5449 61.2654 42.1408V39.143C61.2654 38.7388 60.9113 38.4019 60.4866 38.4019H58.6459C58.5397 36.5157 56.9468 35 54.929 35C52.9112 35 51.3184 36.5157 51.2122 38.4019H49.3714C48.9467 38.4019 48.5927 38.7389 48.5927 39.143V42.1408C48.5929 42.5451 48.9467 42.8818 49.3717 42.8818ZM54.929 37.1893C55.7078 37.1893 56.3448 37.7955 56.3448 38.5365C56.3448 39.2775 55.7078 39.8837 54.929 39.8837C54.1503 39.8837 53.5132 39.2775 53.5132 38.5365C53.5132 37.7957 54.1503 37.1893 54.929 37.1893Z" fill="#060B29"/>
<path d="M65.2652 40.4566H63.3538V42.1408C63.3538 43.6565 62.0795 44.869 60.4866 44.869H49.3716C47.7788 44.869 46.5045 43.6565 46.5045 42.1408V40.4566H44.7346C43.7788 40.4566 43 41.1976 43 42.1071V65.3485C43 66.258 43.7788 66.999 44.7346 66.999H65.2654C66.2212 66.999 67 66.258 67 65.3485V42.1071C67 41.1976 66.221 40.4566 65.2652 40.4566ZM60.9113 55.2098C60.9113 58.9151 56.8406 61.5422 55.4245 62.3506C55.1413 62.5191 54.7519 62.5191 54.4687 62.3506C53.0529 61.5422 48.982 58.9149 48.982 55.2098V51.9425C48.982 51.5046 49.3005 51.1341 49.7607 51.0668C52.1324 50.6963 53.5484 49.6858 54.2563 48.9448C54.6457 48.5406 55.2827 48.5406 55.6721 48.9448C56.4156 49.6858 57.7961 50.6963 60.1677 51.0668C60.628 51.1343 60.9465 51.5048 60.9465 51.9425V55.2098H60.9113Z" fill="#060B29"/>
<defs>
<filter id="filter0_d_8568_58249" x="0" y="0" width="110" height="110" filterUnits="userSpaceOnUse" color-interpolation-filters="sRGB">
<feFlood flood-opacity="0" result="BackgroundImageFix"/>
<feColorMatrix in="SourceAlpha" type="matrix" values="0 0 0 0 0 0 0 0 0 0 0 0 0 0 0 0 0 0 127 0" result="hardAlpha"/>
<feOffset dy="4"/>
<feGaussianBlur stdDeviation="7.5"/>
<feComposite in2="hardAlpha" operator="out"/>
<feColorMatrix type="matrix" values="0 0 0 0 0 0 0 0 0 0 0 0 0 0 0 0 0 0 0.08 0"/>
<feBlend mode="normal" in2="BackgroundImageFix" result="effect1_dropShadow_8568_58249"/>
<feBlend mode="normal" in="SourceGraphic" in2="effect1_dropShadow_8568_58249" result="shape"/>
</filter>
</defs>
</svg>
