<svg width="110" height="110" viewBox="0 0 110 110" fill="none" xmlns="http://www.w3.org/2000/svg">
<rect x="15" y="12" width="80" height="80" rx="10" fill="#4B7BE5"/>
<g filter="url(#filter0_d_8568_58236)">
<rect x="15" y="11" width="80" height="80" rx="10" fill="white"/>
</g>
<path d="M64.6293 53.3977H70.9966V36.2839C70.9966 35.9433 70.8613 35.6168 70.6206 35.3761C70.3798 35.1353 70.0534 35 69.7127 35H53.031C52.6912 35.0011 52.3656 35.1367 52.1257 35.3775C51.8857 35.6182 51.751 35.9441 51.751 36.2839V45.6464L57.4345 49.798C57.6834 49.9861 57.8496 50.2637 57.8973 50.5722C57.945 50.8805 57.8708 51.1955 57.6903 51.4499L57.0344 52.3457C56.864 52.5717 56.6193 52.7302 56.3434 52.7932C56.0675 52.856 55.7781 52.8195 55.5265 52.6897L54.0026 54.7735L62.8017 61.2329H63.1337V54.8776C63.1348 54.4825 63.2932 54.1045 63.5739 53.8266C63.8548 53.5487 64.2348 53.3945 64.6296 53.3978L64.6293 53.3977ZM68.777 45.3986H59.4223C59.3118 45.3986 59.2223 45.3091 59.2223 45.1986C59.2223 45.0881 59.3118 44.9985 59.4223 44.9985H68.777C68.8872 44.9985 68.9768 45.0881 68.9768 45.1986C68.9768 45.3091 68.8872 45.3986 68.777 45.3986ZM68.977 48.3503H68.9768C68.9768 48.4033 68.9558 48.4541 68.9182 48.4915C68.8808 48.5291 68.83 48.55 68.777 48.55H61.4657C61.3563 48.5481 61.2679 48.4597 61.2659 48.3503C61.2659 48.2398 61.3552 48.1503 61.4657 48.1503H68.777C68.8334 48.1444 68.8894 48.1631 68.9313 48.2013C68.9734 48.2393 68.9971 48.2934 68.9969 48.3503L68.977 48.3503ZM63.0416 38.7513L68.7771 38.7511C68.8873 38.7511 68.9768 38.8406 68.9768 38.9511C68.9768 39.0616 68.8873 39.1511 68.7771 39.1511H63.0416C62.9311 39.1511 62.8416 39.0616 62.8416 38.9511C62.8416 38.8406 62.9311 38.7511 63.0416 38.7511V38.7513ZM61.7496 41.847L68.7771 41.8467C68.8301 41.8467 68.8809 41.8679 68.9182 41.9053C68.9559 41.943 68.9768 41.9938 68.9768 42.0468C68.9768 42.0998 68.9559 42.1505 68.9182 42.1882C68.8809 42.2256 68.8301 42.2468 68.7771 42.2468H61.7496C61.64 42.2446 61.5518 42.1564 61.5496 42.0468C61.5518 41.938 61.6408 41.8506 61.7496 41.8509V41.847ZM54.1547 42.9987C54.0443 42.9987 53.9547 42.9091 53.9547 42.7986V37.1754C53.9547 37.0649 54.0443 36.9754 54.1547 36.9754H59.7981C59.8511 36.9754 59.9022 36.9966 59.9396 37.0339C59.977 37.0713 59.9982 37.1224 59.9982 37.1754V42.7986C59.9982 42.8516 59.977 42.9027 59.9396 42.9401C59.9022 42.9775 59.8511 42.9987 59.7981 42.9987L54.1547 42.9987ZM59.4223 51.6977C59.3118 51.6977 59.2223 51.6082 59.2223 51.4977C59.2223 51.3872 59.3118 51.2976 59.4223 51.2976H68.777C68.8872 51.2976 68.9768 51.3872 68.9768 51.4977C68.9768 51.6082 68.8872 51.6977 68.777 51.6977H59.4223Z" fill="#060B29"/>
<path d="M51.7507 57.8615V59.9654V59.9651C51.7507 60.3049 51.8855 60.631 52.1254 60.8715C52.3653 61.1123 52.6909 61.2478 53.0307 61.249H56.5981L51.8227 57.7614L51.7507 57.8615Z" fill="black"/>
<path d="M63.5452 54.8776V60.7651L70.5123 53.7976H64.629C64.3422 53.7976 64.0672 53.9114 63.8641 54.1137C63.661 54.3163 63.5463 54.5908 63.5452 54.8776L63.5452 54.8776Z" fill="#060B29"/>
<path d="M54.354 37.3756H59.5775V42.5991H54.354V37.3756Z" fill="#060B29"/>
<path d="M51.7509 49.9538L49.7112 48.4582L44.4958 55.5732L48.8592 58.7729L49.9832 59.5968L51.7509 57.1852L55.1945 52.4818L51.7509 49.9538Z" fill="#4B7BE5"/>
<path d="M49.9309 60.0534H49.9069L49.843 60.0094L44.0755 55.7617C43.9413 55.6663 43.7806 55.6144 43.6157 55.6139C43.3655 55.6111 43.1297 55.7305 42.9838 55.9339L42.3279 56.8258C42.0805 57.1768 42.1547 57.6606 42.4959 57.9217L48.3471 62.1971C48.6984 62.4443 49.1821 62.3701 49.443 62.0292L50.0989 61.1333V61.1331C50.3436 60.7827 50.2696 60.3019 49.9309 60.0414L49.9309 60.0534Z" fill="#4B7BE5"/>
<path d="M49.7631 48.0019L51.7629 49.4577L55.6305 52.2933V52.2936C55.9809 52.5382 56.4619 52.4643 56.7225 52.1256L57.3784 51.2298V51.2295C57.6255 50.8785 57.5513 50.3947 57.2104 50.1336L51.7629 46.1341L51.3629 45.8381L51.3631 45.8383C51.2301 45.7396 51.0688 45.6863 50.9031 45.6863H50.7831C50.5783 45.72 50.3948 45.8316 50.2712 45.9982L49.6153 46.894C49.4909 47.06 49.439 47.2693 49.4713 47.474C49.4959 47.6813 49.6008 47.8708 49.7631 48.0019L49.7631 48.0019Z" fill="#4B7BE5"/>
<path d="M53.7663 55.1097L53.5303 55.4336L52.0583 57.4334L57.2578 61.2449L64.4571 66.5125C64.7642 66.7343 65.1464 66.8255 65.5209 66.7672C65.8953 66.7089 66.2314 66.5052 66.4568 66.2005C66.6764 65.8925 66.7665 65.5109 66.7082 65.137C66.6499 64.7635 66.4476 64.4273 66.1447 64.2008L62.1451 61.2611L53.7663 55.1097Z" fill="#4B7BE5"/>
<path d="M49.4832 64.053H40.472C39.9461 64.053 39.4601 64.3334 39.1973 64.789C38.9342 65.2443 38.9342 65.8053 39.1973 66.2606C39.4601 66.7159 39.9461 66.9966 40.472 66.9966H49.4832C50.0088 66.9966 50.4948 66.7159 50.7579 66.2606C51.0207 65.8053 51.0207 65.2443 50.7579 64.789C50.4948 64.3334 50.0088 64.053 49.4832 64.053Z" fill="#060B29"/>
<defs>
<filter id="filter0_d_8568_58236" x="0" y="0" width="110" height="110" filterUnits="userSpaceOnUse" color-interpolation-filters="sRGB">
<feFlood flood-opacity="0" result="BackgroundImageFix"/>
<feColorMatrix in="SourceAlpha" type="matrix" values="0 0 0 0 0 0 0 0 0 0 0 0 0 0 0 0 0 0 127 0" result="hardAlpha"/>
<feOffset dy="4"/>
<feGaussianBlur stdDeviation="7.5"/>
<feComposite in2="hardAlpha" operator="out"/>
<feColorMatrix type="matrix" values="0 0 0 0 0 0 0 0 0 0 0 0 0 0 0 0 0 0 0.08 0"/>
<feBlend mode="normal" in2="BackgroundImageFix" result="effect1_dropShadow_8568_58236"/>
<feBlend mode="normal" in="SourceGraphic" in2="effect1_dropShadow_8568_58236" result="shape"/>
</filter>
</defs>
</svg>
