<svg width="20" height="20" viewBox="0 0 20 20" fill="none" xmlns="http://www.w3.org/2000/svg">
    <rect width="20" height="20" rx="3" fill="#111156"/>
    <path opacity="0.6"
          d="M10.1497 0H7.76172V5.25495C7.76172 5.56612 8.0944 5.76723 8.37427 5.62526L9.95788 4.82223C10.0783 4.76115 10.2212 4.76115 10.3417 4.82223L11.9253 5.62526C12.2052 5.76723 12.5378 5.56612 12.5378 5.25495V0H10.1497Z"
          fill="#97C0FF"/>
    <path opacity="0.6"
          d="M13.614 16.7165H6.68622C6.45611 16.7165 6.26953 16.5263 6.26953 16.2917V13.2608C6.26953 13.0262 6.45611 12.8359 6.68622 12.8359H13.614C13.8441 12.8359 14.0307 13.0262 14.0307 13.2608V16.2917C14.0307 16.5263 13.8441 16.7165 13.614 16.7165Z"
          fill="#97C0FF"/>
</svg>
