<svg width="74" height="75" viewBox="0 0 74 75" fill="none" xmlns="http://www.w3.org/2000/svg">
<g filter="url(#filter0_d_13197_48585)">
<rect x="15" y="12" width="44" height="44" rx="10" fill="#4B7BE5"/>
</g>
<g filter="url(#filter1_d_13197_48585)">
<rect x="15" y="11" width="44" height="44" rx="10" fill="white"/>
</g>
<path d="M32.3665 39.6372C31.5655 39.6372 30.9102 40.3122 30.9102 41.1372C30.9102 41.2497 31.4199 41.5497 32.3665 41.5497C33.3132 41.5497 33.8229 41.2497 33.8229 41.1372C33.8229 40.3122 33.1675 39.6372 32.3665 39.6372Z" fill="#97C0FF"/>
<path d="M32.3664 31.0122C32.6681 31.0122 32.9126 30.7604 32.9126 30.4497C32.9126 30.139 32.6681 29.8872 32.3664 29.8872C32.0648 29.8872 31.8203 30.139 31.8203 30.4497C31.8203 30.7604 32.0648 31.0122 32.3664 31.0122Z" fill="#97C0FF"/>
<path d="M31.8636 21.2249L28.2227 24.9749H31.8636V21.2249Z" fill="#060B29"/>
<path d="M32.3664 38.8872C32.6681 38.8872 32.9126 38.6354 32.9126 38.3247C32.9126 38.014 32.6681 37.7622 32.3664 37.7622C32.0648 37.7622 31.8203 38.014 31.8203 38.3247C31.8203 38.6354 32.0648 38.8872 32.3664 38.8872Z" fill="#97C0FF"/>
<path d="M32.3665 31.7622C31.5655 31.7622 30.9102 32.4372 30.9102 33.2622C30.9102 33.3747 31.4199 33.6747 32.3665 33.6747C33.3132 33.6747 33.8229 33.3747 33.8229 33.2622C33.8229 32.4372 33.1675 31.7622 32.3665 31.7622Z" fill="#97C0FF"/>
<path d="M36.0828 27.7125L33.8983 26.2125C33.607 26.025 33.425 25.65 33.425 25.275C33.425 24.9 33.607 24.5625 33.8983 24.3375L36.0828 22.8375C36.2649 22.725 36.4833 22.65 36.7018 22.65H45.9497V22.125C45.9497 21.4875 45.4764 21 44.8574 21H32.5875V25.35C32.5875 25.575 32.4419 25.725 32.2235 25.725H28V43.875C28 44.5125 28.5097 45 29.0923 45H44.8574C45.4764 45 45.9497 44.5125 45.9497 43.875V27.9H36.7018C36.4833 27.9 36.2649 27.825 36.0828 27.7125ZM32.3691 42.3C31.8594 42.3 31.3496 42.225 30.9855 42.075C30.2938 41.8125 30.1845 41.3625 30.1845 41.1375C30.1845 40.275 30.6579 39.525 31.386 39.15C31.204 38.925 31.0948 38.625 31.0948 38.325C31.0948 37.6125 31.6773 37.0125 32.3691 37.0125C33.0609 37.0125 33.6434 37.6125 33.6434 38.325C33.6434 38.625 33.5342 38.925 33.3521 39.15C34.0439 39.525 34.5536 40.275 34.5536 41.1375C34.5536 42 33.3885 42.3 32.3691 42.3ZM32.3691 34.425C31.8594 34.425 31.3496 34.35 30.9855 34.2C30.2938 33.9375 30.1845 33.4875 30.1845 33.2625C30.1845 32.4 30.6579 31.65 31.386 31.275C31.204 31.05 31.0948 30.75 31.0948 30.45C31.0948 29.7375 31.6773 29.1375 32.3691 29.1375C33.0609 29.1375 33.6434 29.7375 33.6434 30.45C33.6434 30.75 33.5342 31.05 33.3521 31.275C34.0439 31.65 34.5536 32.4 34.5536 33.2625C34.5536 34.125 33.3885 34.425 32.3691 34.425ZM43.0734 41.1375H36.2284C36.0464 41.1375 35.8644 40.95 35.8644 40.7625C35.8644 40.5375 36.0464 40.3875 36.2284 40.3875H43.0734C43.2554 40.3875 43.4374 40.5375 43.4374 40.7625C43.4374 40.9875 43.2554 41.1375 43.0734 41.1375ZM35.8644 38.5125C35.8644 38.2875 36.0464 38.1375 36.2284 38.1375H39.6145C39.8329 38.1375 39.9786 38.2875 39.9786 38.5125C39.9786 38.7 39.8329 38.8875 39.6145 38.8875H36.2284C36.0464 38.8875 35.8644 38.7375 35.8644 38.5125ZM43.4374 32.8875C43.4374 33.075 43.2554 33.2625 43.0734 33.2625H36.2284C36.0464 33.2625 35.8644 33.075 35.8644 32.8875C35.8644 32.6625 36.0464 32.5125 36.2284 32.5125H43.0734C43.2554 32.5125 43.4374 32.6625 43.4374 32.8875ZM39.9786 30.6375C39.9786 30.825 39.8329 31.0125 39.6145 31.0125H36.2284C36.0464 31.0125 35.8644 30.825 35.8644 30.6375C35.8644 30.4125 36.0464 30.2625 36.2284 30.2625H39.6145C39.8329 30.2625 39.9786 30.4125 39.9786 30.6375Z" fill="#060B29"/>
<path d="M51.2718 23.3989H50.0703V27.1489H51.2718C51.6723 27.1489 52 26.7739 52 26.3614V24.1864C52 23.7739 51.6723 23.3989 51.2718 23.3989Z" fill="#060B29"/>
<path d="M49.3476 23.3989H37.7695V27.1489H49.3476V23.3989Z" fill="#060B29"/>
<path d="M34.8555 25.2739C34.8555 25.3864 34.9283 25.4989 35.0375 25.5739L37.04 26.9614V23.5864L35.0375 24.9739C34.9283 25.0489 34.8555 25.1614 34.8555 25.2739Z" fill="#4B7BE5"/>
<defs>
<filter id="filter0_d_13197_48585" x="0" y="1" width="74" height="74" filterUnits="userSpaceOnUse" color-interpolation-filters="sRGB">
<feFlood flood-opacity="0" result="BackgroundImageFix"/>
<feColorMatrix in="SourceAlpha" type="matrix" values="0 0 0 0 0 0 0 0 0 0 0 0 0 0 0 0 0 0 127 0" result="hardAlpha"/>
<feOffset dy="4"/>
<feGaussianBlur stdDeviation="7.5"/>
<feComposite in2="hardAlpha" operator="out"/>
<feColorMatrix type="matrix" values="0 0 0 0 0 0 0 0 0 0 0 0 0 0 0 0 0 0 0.08 0"/>
<feBlend mode="normal" in2="BackgroundImageFix" result="effect1_dropShadow_13197_48585"/>
<feBlend mode="normal" in="SourceGraphic" in2="effect1_dropShadow_13197_48585" result="shape"/>
</filter>
<filter id="filter1_d_13197_48585" x="0" y="0" width="74" height="74" filterUnits="userSpaceOnUse" color-interpolation-filters="sRGB">
<feFlood flood-opacity="0" result="BackgroundImageFix"/>
<feColorMatrix in="SourceAlpha" type="matrix" values="0 0 0 0 0 0 0 0 0 0 0 0 0 0 0 0 0 0 127 0" result="hardAlpha"/>
<feOffset dy="4"/>
<feGaussianBlur stdDeviation="7.5"/>
<feComposite in2="hardAlpha" operator="out"/>
<feColorMatrix type="matrix" values="0 0 0 0 0 0 0 0 0 0 0 0 0 0 0 0 0 0 0.08 0"/>
<feBlend mode="normal" in2="BackgroundImageFix" result="effect1_dropShadow_13197_48585"/>
<feBlend mode="normal" in="SourceGraphic" in2="effect1_dropShadow_13197_48585" result="shape"/>
</filter>
</defs>
</svg>
