<svg width="110" height="110" viewBox="0 0 110 110" fill="none" xmlns="http://www.w3.org/2000/svg">
<rect x="15" y="12" width="80" height="80" rx="10" fill="#4B7BE5"/>
<g filter="url(#filter0_d)">
<rect x="15" y="11" width="80" height="80" rx="10" fill="white"/>
</g>
<path d="M52.7415 43.585H50.4395V44.7127H52.7415V43.585Z" fill="#4B7BE5"/>
<path d="M61.375 34H57.9219V37.3832C57.9219 37.6823 57.8006 37.9691 57.5848 38.1806C57.3689 38.3921 57.0761 38.5109 56.7708 38.5109H52.1667C51.8614 38.5109 51.5686 38.3921 51.3528 38.1806C51.1369 37.9691 51.0156 37.6823 51.0156 37.3832V34H47.5625V47.5328H61.375V34ZM53.8932 45.2773C53.8932 45.4268 53.8326 45.5703 53.7247 45.676C53.6167 45.7818 53.4704 45.8412 53.3177 45.8412H49.8646C49.7119 45.8412 49.5656 45.7818 49.4576 45.676C49.3497 45.5703 49.2891 45.4268 49.2891 45.2773V43.0218C49.2891 42.8723 49.3497 42.7289 49.4576 42.6231C49.5656 42.5174 49.7119 42.458 49.8646 42.458H53.3177C53.4704 42.458 53.6167 42.5174 53.7247 42.6231C53.8326 42.7289 53.8932 42.8723 53.8932 43.0218V45.2773Z" fill="#060B29"/>
<path d="M56.7702 34H52.166V37.3832H56.7702V34Z" fill="#4B7BE5"/>
<path d="M46.9547 60.8028C46.6838 60.621 46.3504 60.5516 46.0275 60.6101C45.7045 60.6685 45.4184 60.8499 45.2316 61.1146L44.5299 62.1139C44.3496 62.3791 44.2831 62.7031 44.3446 63.0159C44.4062 63.3287 44.5908 63.6052 44.8586 63.7858C45.1265 63.9663 45.4561 64.0364 45.7763 63.9809C46.0965 63.9254 46.3815 63.7487 46.5698 63.4891C46.3902 63.7544 46.3243 64.0783 46.3862 64.3908C46.4481 64.7033 46.633 64.9795 46.9009 65.1597C47.1687 65.3399 47.4982 65.4097 47.8182 65.3541C48.1381 65.2985 48.4229 65.1218 48.6111 64.8623L48.962 64.3623C48.7818 64.6274 48.7153 64.9514 48.7768 65.2642C48.8383 65.577 49.023 65.8536 49.2908 66.0341C49.5587 66.2147 49.8883 66.2848 50.2085 66.2293C50.5286 66.1737 50.8137 65.9971 51.002 65.7374C50.8218 66.0026 50.7553 66.3265 50.8168 66.6393C50.8783 66.9521 51.0629 67.2287 51.3308 67.4092C51.5987 67.5898 51.9283 67.6599 52.2485 67.6044C52.5686 67.5489 52.8537 67.3722 53.042 67.1125L53.3929 66.6132C53.488 66.4821 53.5555 66.3337 53.5916 66.1768C53.6276 66.0198 53.6315 65.8574 53.6028 65.699C53.5742 65.5406 53.5138 65.3894 53.4249 65.2541C53.3361 65.1188 53.2207 65.0022 53.0854 64.911C52.9502 64.8198 52.7977 64.7559 52.637 64.723C52.4763 64.69 52.3105 64.6888 52.1493 64.7192C51.9881 64.7496 51.8346 64.8112 51.6979 64.9003C51.5612 64.9893 51.4439 65.1042 51.3529 65.2381L51.7038 64.7381C51.8898 64.473 51.9608 64.1464 51.901 63.8301C51.8413 63.5139 51.6558 63.2338 51.3853 63.0515C51.1147 62.8692 50.7814 62.7997 50.4586 62.8582C50.1357 62.9168 49.8498 63.0985 49.6638 63.3636C49.7589 63.2325 49.8265 63.0841 49.8625 62.9272C49.8985 62.7702 49.9024 62.6078 49.8738 62.4494C49.8451 62.291 49.7847 62.1398 49.6958 62.0045C49.607 61.8692 49.4916 61.7526 49.3563 61.6614C49.2211 61.5702 49.0686 61.5063 48.9079 61.4734C48.7472 61.4404 48.5814 61.4392 48.4202 61.4696C48.259 61.5 48.1055 61.5616 47.9688 61.6507C47.8321 61.7397 47.7148 61.8546 47.6238 61.9885L47.2729 62.4878C47.4575 62.2226 47.5277 61.8967 47.4681 61.5811C47.4085 61.2655 47.2239 60.9857 46.9547 60.8028Z" fill="#060B29"/>
<path d="M48.5137 56.4279C48.8665 57.401 51.8625 57.4003 53.6757 54.2512L59.4912 57.8241C59.7844 57.6464 60.0592 57.4412 60.3119 57.2115C60.6065 56.9521 60.8629 56.6539 61.0738 56.3254L61.6122 56.6289C61.4019 56.965 61.148 57.2729 60.8568 57.545C60.6151 57.7791 60.3527 57.9919 60.0727 58.1807L64.2697 60.7594V60.7549L64.5663 60.9374C65.1351 60.0346 65.9374 59.2951 66.8919 58.794L63.4555 51.9497C62.5571 52.2583 60.7556 52.3537 57.3297 50.9895C52.1402 48.9255 49.1207 54.4017 48.5137 56.4279Z" fill="#060B29"/>
<path d="M44.41 61.2208L44.7262 60.7727C44.9102 60.5111 45.1608 60.3013 45.4533 60.164C45.7457 60.0267 46.0696 59.9668 46.393 59.9903C46.7163 60.0137 47.0278 60.1196 47.2964 60.2976C47.565 60.4755 47.7814 60.7192 47.9241 61.0044C48.0482 60.9536 48.1774 60.9158 48.3096 60.8918C48.7768 60.8053 49.2601 60.8993 49.6581 61.154C50.0562 61.4088 50.3382 61.8046 50.445 62.2586C50.7122 62.2224 50.9842 62.244 51.2419 62.3218C51.4996 62.3997 51.7368 62.532 51.9368 62.7093C52.1367 62.8867 52.2946 63.1048 52.3992 63.3483C52.5039 63.5919 52.5528 63.8549 52.5425 64.119C52.8602 64.1459 53.1654 64.2533 53.4279 64.4307C53.8125 64.6919 54.0821 65.0858 54.1827 65.5335C54.2833 65.9812 54.2074 66.4497 53.9702 66.8449L55.6325 67.8276C55.9139 67.9926 56.2505 68.0419 56.5688 67.9646C56.8871 67.8874 57.1612 67.6899 57.3314 67.4153C57.5013 67.1432 57.5545 66.8164 57.4795 66.5061C57.4044 66.1957 57.2073 65.927 56.9309 65.7585L57.9764 66.3756C58.1157 66.4616 58.2712 66.5194 58.4336 66.5458C58.5961 66.5721 58.7622 66.5665 58.9224 66.5292C59.0826 66.4918 59.2336 66.4236 59.3665 66.3284C59.4995 66.2332 59.6117 66.113 59.6967 65.9748C59.7816 65.8366 59.8376 65.6832 59.8613 65.5236C59.885 65.3639 59.876 65.2013 59.8347 65.0451C59.7935 64.8889 59.7209 64.7423 59.6211 64.614C59.5214 64.4856 59.3965 64.3781 59.2538 64.2976L60.3143 64.923C60.4534 65.0055 60.6076 65.0603 60.7683 65.0843C60.929 65.1083 61.0929 65.1011 61.2507 65.063C61.4085 65.025 61.5571 64.9569 61.6881 64.8625C61.819 64.7682 61.9297 64.6496 62.0139 64.5133C62.098 64.3771 62.1539 64.2259 62.1784 64.0685C62.203 63.9111 62.1956 63.7505 62.1568 63.5959C62.1179 63.4413 62.0484 63.2957 61.9521 63.1674C61.8559 63.0391 61.7347 62.9306 61.5957 62.8482L63.1822 63.7829C63.4635 63.9479 63.8001 63.9972 64.1184 63.9199C64.4367 63.8427 64.7109 63.6452 64.8811 63.3706C64.9969 63.1818 65.0589 62.966 65.0608 62.7458C65.0604 62.5354 65.0043 62.3287 64.898 62.1459C64.7917 61.9632 64.6389 61.8105 64.4544 61.7029L53.8193 55.1659C52.453 57.0948 50.6639 57.6991 49.4688 57.5935C49.1449 57.5956 48.8273 57.5058 48.5544 57.3348C48.2816 57.1638 48.0651 56.919 47.9313 56.63L47.8659 56.4444L47.9228 56.2523C48.2414 55.2738 48.6994 54.3442 49.2832 53.4912C48.5108 53.2448 47.7856 52.8741 47.1374 52.3945L42.6719 59.9667L44.41 61.2208Z" fill="#060B29"/>
<path d="M38.3282 58.6436L41.0726 60.1858C41.147 60.228 41.2291 60.2553 41.3143 60.2663C41.3995 60.2772 41.486 60.2717 41.569 60.2498C41.6519 60.228 41.7297 60.1904 41.7978 60.1391C41.8659 60.0878 41.923 60.0238 41.9658 59.9509L46.7058 51.9114C46.7488 51.8385 46.7768 51.7579 46.788 51.6744C46.7992 51.5908 46.7935 51.506 46.7711 51.4246C46.7488 51.3432 46.7103 51.267 46.6578 51.2002C46.6053 51.1335 46.5399 51.0775 46.4653 51.0356L43.717 49.4921C43.5669 49.4077 43.3888 49.3852 43.2217 49.4293C43.0546 49.4735 42.9122 49.5808 42.8258 49.7277L38.0878 57.7678C38.0447 57.8408 38.0168 57.9213 38.0056 58.0049C37.9944 58.0884 38.0001 58.1733 38.0224 58.2546C38.0448 58.336 38.0833 58.4123 38.1358 58.479C38.1882 58.5458 38.2536 58.6017 38.3282 58.6436Z" fill="#4B7BE5"/>
<path d="M67.8103 59.248C67.8481 59.3234 67.9008 59.3908 67.9653 59.4464C68.0298 59.5019 68.1048 59.5444 68.186 59.5715C68.2673 59.5986 68.3532 59.6098 68.4388 59.6044C68.5245 59.5989 68.6082 59.577 68.6852 59.5399L71.6348 58.1187C71.7118 58.0816 71.7806 58.03 71.8373 57.9668C71.8939 57.9036 71.9373 57.8301 71.965 57.7505C71.9927 57.6709 72.0041 57.5868 71.9985 57.5028C71.993 57.4189 71.9706 57.3369 71.9327 57.2615L67.7508 48.9319C67.7129 48.8565 67.6603 48.7891 67.5958 48.7335C67.5313 48.678 67.4563 48.6355 67.3751 48.6084C67.2938 48.5813 67.2079 48.5701 67.1223 48.5756C67.0366 48.581 66.9529 48.6029 66.8759 48.64L63.9276 50.06C63.8506 50.0971 63.7818 50.1487 63.7251 50.2118C63.6685 50.275 63.6251 50.3485 63.5974 50.4281C63.5697 50.5077 63.5583 50.5919 63.5639 50.6758C63.5694 50.7597 63.5918 50.8417 63.6297 50.9172L67.8103 59.248ZM69.5895 56.2301L70.1508 57.3479L69.0668 57.8703L68.5055 56.7525L69.5895 56.2301Z" fill="#4B7BE5"/>
<defs>
<filter id="filter0_d" x="0" y="0" width="110" height="110" filterUnits="userSpaceOnUse" color-interpolation-filters="sRGB">
<feFlood flood-opacity="0" result="BackgroundImageFix"/>
<feColorMatrix in="SourceAlpha" type="matrix" values="0 0 0 0 0 0 0 0 0 0 0 0 0 0 0 0 0 0 127 0" result="hardAlpha"/>
<feOffset dy="4"/>
<feGaussianBlur stdDeviation="7.5"/>
<feComposite in2="hardAlpha" operator="out"/>
<feColorMatrix type="matrix" values="0 0 0 0 0 0 0 0 0 0 0 0 0 0 0 0 0 0 0.08 0"/>
<feBlend mode="normal" in2="BackgroundImageFix" result="effect1_dropShadow"/>
<feBlend mode="normal" in="SourceGraphic" in2="effect1_dropShadow" result="shape"/>
</filter>
</defs>
</svg>
