<svg width="328" height="51" viewBox="0 0 328 51" fill="none" xmlns="http://www.w3.org/2000/svg">
<rect width="328" height="51" fill="#212121"/>
<g clip-path="url(#clip0_8150_84045)">
<path d="M68.0486 2.64251C67.9739 2.71793 67.9739 2.83811 68.0486 2.91353L77.727 12.659C77.7638 12.696 77.8107 12.7152 77.8601 12.7152C77.9096 12.7152 77.9565 12.696 77.9932 12.659C78.068 12.5835 78.068 12.4634 77.9932 12.3879L68.3174 2.64251C68.2439 2.56708 68.1234 2.56708 68.0486 2.64251Z" fill="#383838"/>
<path d="M86.7202 0.0570507L84.1596 2.6433C84.0848 2.71873 84.0848 2.84018 84.1596 2.91433C84.1964 2.9514 84.2458 2.97058 84.294 2.97058C84.3422 2.97058 84.3916 2.9514 84.4283 2.91433L86.9864 0.328076C87.0612 0.252649 87.0612 0.131199 86.9864 0.0570507C86.9129 -0.0196548 86.7925 -0.0183763 86.7202 0.0570507Z" fill="#383838"/>
<path d="M71.9452 0.0565702C71.8704 0.131997 71.8704 0.252169 71.9452 0.327596L80.9353 9.40952C80.972 9.44659 81.0215 9.46577 81.0696 9.46577C81.1178 9.46577 81.1672 9.44659 81.204 9.40952C81.2788 9.33409 81.2788 9.21392 81.204 9.13849L72.2114 0.0565702C72.1391 -0.0188567 72.02 -0.0188567 71.9452 0.0565702Z" fill="#383838"/>
<path d="M78.3768 0.0565702C78.302 0.131997 78.302 0.252169 78.3768 0.327596L84.1584 6.15848C84.1952 6.19556 84.2446 6.21473 84.2928 6.21473C84.341 6.21473 84.3904 6.19556 84.4272 6.15848C84.502 6.08306 84.502 5.96289 84.4272 5.88746L78.6455 0.0565702C78.5733 -0.0188567 78.4516 -0.0188567 78.3768 0.0565702Z" fill="#383838"/>
<path d="M58.3926 15.9011C58.4294 15.9382 58.4775 15.9574 58.527 15.9574C58.5764 15.9574 58.6246 15.9382 58.6613 15.9011L68.3195 6.15572C68.3942 6.0803 68.3942 5.96012 68.3195 5.8847C68.2447 5.80927 68.1242 5.80927 68.0494 5.8847L58.3926 15.6301C58.3191 15.7055 58.3191 15.8257 58.3926 15.9011Z" fill="#383838"/>
<path d="M67.3835 0.056732L64.8318 2.64298C64.7583 2.71841 64.7583 2.83986 64.833 2.91401C64.8698 2.95108 64.918 2.96898 64.9661 2.96898C65.0156 2.96898 65.0638 2.9498 65.1005 2.91273L67.6523 0.326477C67.7271 0.25105 67.7271 0.1296 67.6523 0.0554518C67.5775 -0.0186968 67.457 -0.018695 67.3835 0.056732Z" fill="#383838"/>
<path d="M84.2936 45.2033C84.3417 45.2033 84.3912 45.1842 84.4279 45.1471C84.5027 45.0717 84.5027 44.9515 84.4279 44.8761L74.7648 35.123C74.69 35.0475 74.5695 35.0475 74.4948 35.123C74.42 35.1984 74.42 35.3186 74.4948 35.394L84.1579 45.1471C84.196 45.1842 84.2454 45.2033 84.2936 45.2033Z" fill="#383838"/>
<path d="M48.721 2.64251C48.6462 2.71793 48.6462 2.83811 48.721 2.91353L58.3918 12.659C58.4286 12.696 58.4767 12.7152 58.5262 12.7152C58.5756 12.7152 58.6238 12.696 58.6605 12.659C58.7353 12.5835 58.7353 12.4634 58.6605 12.3879L48.9898 2.64251C48.9162 2.56708 48.7958 2.56708 48.721 2.64251Z" fill="#383838"/>
<path d="M52.6107 0.0565702C52.5359 0.131997 52.5359 0.252169 52.6107 0.327596L61.6008 9.40952C61.6375 9.44659 61.687 9.46577 61.7352 9.46577C61.7833 9.46577 61.8328 9.44659 61.8695 9.40952C61.9443 9.33409 61.9443 9.21392 61.8695 9.13849L52.8782 0.0565702C52.8047 -0.0188567 52.6842 -0.0188567 52.6107 0.0565702Z" fill="#383838"/>
<path d="M59.051 0.0565702C58.9762 0.131997 58.9762 0.252169 59.051 0.327596L64.8327 6.15848C64.8695 6.19556 64.9164 6.21473 64.9658 6.21473C65.0152 6.21473 65.0621 6.19556 65.0989 6.15848C65.1737 6.08306 65.1737 5.96289 65.0989 5.88746L59.3172 0.0565702C59.245 -0.0188567 59.1258 -0.0188567 59.051 0.0565702Z" fill="#383838"/>
<path d="M110.203 28.6308C110.128 28.5554 110.01 28.5554 109.936 28.6308L100.272 38.3839C100.198 38.4593 100.198 38.5795 100.272 38.6549C100.309 38.692 100.356 38.7112 100.406 38.7112C100.455 38.7112 100.502 38.692 100.539 38.6549L110.202 28.9018C110.277 28.8264 110.277 28.7062 110.203 28.6308Z" fill="#383838"/>
<path d="M94.1002 15.6308C94.0254 15.5554 93.905 15.5554 93.8302 15.6308C93.7554 15.7062 93.7554 15.8264 93.8302 15.9018L103.488 25.6485C103.525 25.6856 103.572 25.7048 103.621 25.7048C103.671 25.7048 103.718 25.6856 103.755 25.6485C103.829 25.5731 103.829 25.4529 103.755 25.3775L94.1002 15.6308Z" fill="#383838"/>
<path d="M106.719 25.3803L97.0537 35.1257C96.9789 35.2012 96.9789 35.3213 97.0537 35.3968C97.0905 35.4338 97.1399 35.453 97.1881 35.453C97.2363 35.453 97.2857 35.4338 97.3225 35.3968L106.986 25.6513C107.06 25.5759 107.06 25.4557 106.986 25.3803C106.911 25.3049 106.793 25.3062 106.719 25.3803Z" fill="#383838"/>
<path d="M39.0581 15.9011C39.0949 15.9382 39.1431 15.9574 39.1925 15.9574C39.2419 15.9574 39.2901 15.9382 39.3269 15.9011L48.99 6.15572C49.0648 6.0803 49.0648 5.96012 48.99 5.8847C48.9153 5.80927 48.7961 5.80927 48.7213 5.8847L39.0581 15.6301C38.9846 15.7055 38.9846 15.8257 39.0581 15.9011Z" fill="#383838"/>
<path d="M81.7773 51.0005C81.8267 51.0005 81.8736 50.9814 81.9104 50.9443L87.6515 45.1479C87.7263 45.0725 87.7263 44.9523 87.6515 44.8769C87.5767 44.8015 87.4563 44.8015 87.3815 44.8769L81.6429 50.6733C81.5681 50.7487 81.5681 50.8689 81.6429 50.9443C81.6809 50.9814 81.7278 51.0005 81.7773 51.0005Z" fill="#383838"/>
<path d="M100.406 48.4574C100.455 48.4574 100.502 48.4382 100.539 48.4011C100.614 48.3257 100.614 48.2055 100.539 48.1301L90.8757 38.3847C90.8009 38.3093 90.6805 38.3093 90.6057 38.3847C90.5309 38.4601 90.5309 38.5803 90.6057 38.6557L100.271 48.4011C100.309 48.4382 100.356 48.4574 100.406 48.4574Z" fill="#383838"/>
<path d="M106.719 5.8847L97.0537 15.6301C96.9789 15.7055 96.9789 15.8257 97.0537 15.9011C97.0905 15.9382 97.1399 15.9574 97.1881 15.9574C97.2363 15.9574 97.2857 15.9382 97.3225 15.9011L106.986 6.15572C107.06 6.0803 107.06 5.96012 106.986 5.8847C106.911 5.80927 106.793 5.80927 106.719 5.8847Z" fill="#383838"/>
<path d="M91.2709 0.0565702C91.1961 0.131997 91.1961 0.252169 91.2709 0.327596L100.271 9.40952C100.308 9.44659 100.355 9.46577 100.404 9.46577C100.454 9.46577 100.501 9.44659 100.537 9.40952C100.612 9.33409 100.612 9.21392 100.537 9.13849L91.5397 0.0565702C91.4674 -0.0188567 91.3457 -0.0188567 91.2709 0.0565702Z" fill="#383838"/>
<path d="M97.7064 0.0565702C97.6316 0.131997 97.6316 0.252169 97.7064 0.327596L103.488 6.15848C103.525 6.19556 103.572 6.21473 103.621 6.21473C103.671 6.21473 103.717 6.19556 103.754 6.15848C103.829 6.08306 103.829 5.96289 103.754 5.88746L97.9726 0.0565702C97.9003 -0.0188567 97.7812 -0.0188567 97.7064 0.0565702Z" fill="#383838"/>
<path d="M110.203 9.1347C110.128 9.05927 110.01 9.05927 109.936 9.1347L100.272 18.8801C100.198 18.9555 100.198 19.0757 100.272 19.1511C100.309 19.1882 100.356 19.2074 100.406 19.2074C100.455 19.2074 100.502 19.1882 100.539 19.1511L110.202 9.40572C110.277 9.33029 110.277 9.21012 110.203 9.1347Z" fill="#383838"/>
<path d="M87.3831 2.64251C87.3083 2.71793 87.3083 2.83811 87.3831 2.91353L97.0539 12.659C97.0907 12.696 97.1401 12.7152 97.1883 12.7152C97.2364 12.7152 97.2859 12.696 97.3226 12.659C97.3974 12.5835 97.3974 12.4634 97.3226 12.3879L87.6519 2.64251C87.5783 2.56708 87.4579 2.56708 87.3831 2.64251Z" fill="#383838"/>
<path d="M106.053 0.0565702L103.488 2.64282C103.413 2.71825 103.413 2.83842 103.488 2.91385C103.525 2.95092 103.572 2.9701 103.621 2.9701C103.671 2.9701 103.718 2.95092 103.754 2.91385L106.319 0.327596C106.394 0.252169 106.394 0.131997 106.319 0.0565702C106.244 -0.0188567 106.127 -0.0188567 106.053 0.0565702Z" fill="#383838"/>
<path d="M77.7272 15.9011C77.764 15.9382 77.8109 15.9574 77.8603 15.9574C77.9097 15.9574 77.9567 15.9382 77.9934 15.9011L87.6515 6.15572C87.7263 6.0803 87.7263 5.96012 87.6515 5.8847C87.5767 5.80927 87.4563 5.80927 87.3815 5.8847L77.7259 15.6301C77.6524 15.7055 77.6524 15.8257 77.7272 15.9011Z" fill="#383838"/>
<path d="M113.434 31.8808C113.359 31.8054 113.241 31.8054 113.167 31.8808L103.488 41.6262C103.413 41.7016 103.413 41.8218 103.488 41.8972C103.525 41.9343 103.572 41.9535 103.621 41.9535C103.671 41.9535 103.718 41.9343 103.754 41.8972L113.433 32.1518C113.508 32.0777 113.508 31.9562 113.434 31.8808Z" fill="#383838"/>
<path d="M4.45395 51.0005C4.50339 51.0005 4.55156 50.9814 4.58832 50.9443L10.3282 45.1479C10.403 45.0725 10.403 44.9523 10.3282 44.8769C10.2534 44.8015 10.1342 44.8015 10.0594 44.8769L4.31958 50.6733C4.24479 50.7487 4.24479 50.8689 4.31958 50.9443C4.35634 50.9814 4.40451 51.0005 4.45395 51.0005Z" fill="#383838"/>
<path d="M107.693 50.9432L110.202 48.3979C110.276 48.3212 110.276 48.2023 110.201 48.1269C110.126 48.0515 110.007 48.0515 109.932 48.1269L107.423 50.6722C107.349 50.7489 107.349 50.8678 107.423 50.9432C107.46 50.9803 107.51 50.9995 107.558 50.9995C107.606 50.9995 107.657 50.9803 107.693 50.9432Z" fill="#383838"/>
<path d="M0.0551421 44.7963L3.61212 48.3964C3.64889 48.4335 3.69832 48.4526 3.74649 48.4526C3.79466 48.4526 3.8441 48.4335 3.88086 48.3977C3.95565 48.3222 3.95565 48.2008 3.88086 48.1254L0.32388 44.5253C0.24909 44.4499 0.128665 44.4499 0.0551421 44.5253C-0.0183807 44.6007 -0.0183807 44.7209 0.0551421 44.7963Z" fill="#383838"/>
<path d="M0.0551421 5.81069L3.61212 9.41073C3.64889 9.44781 3.69832 9.46699 3.74649 9.46699C3.79466 9.46699 3.8441 9.44781 3.88086 9.41201C3.95565 9.33658 3.95565 9.21513 3.88086 9.14099L0.32388 5.54095C0.24909 5.46552 0.128665 5.46552 0.0551421 5.54095C-0.0183807 5.61637 -0.0183807 5.73526 0.0551421 5.81069Z" fill="#383838"/>
<path d="M48.0546 0.056732L45.4965 2.64298C45.423 2.71841 45.423 2.83986 45.4965 2.91401C45.5332 2.95108 45.5827 2.96898 45.6309 2.96898C45.6803 2.96898 45.7285 2.9498 45.7652 2.91273L48.3233 0.326477C48.3968 0.25105 48.3968 0.1296 48.3233 0.0554518C48.2485 -0.0186968 48.1281 -0.018695 48.0546 0.056732Z" fill="#383838"/>
<path d="M113.434 12.3847C113.359 12.3093 113.241 12.3093 113.167 12.3847L103.488 22.1301C103.413 22.2043 103.413 22.3257 103.488 22.4011C103.525 22.4382 103.572 22.4574 103.621 22.4574C103.671 22.4574 103.718 22.4382 103.754 22.4011L113.433 12.6557C113.508 12.5816 113.508 12.4601 113.434 12.3847Z" fill="#383838"/>
<path d="M0.0581148 31.8101L0.404179 32.154C0.440941 32.191 0.489111 32.2089 0.537281 32.2089C0.586719 32.2089 0.636156 32.1885 0.672918 32.1514C0.74644 32.076 0.745173 31.9545 0.670382 31.8804L0.324318 31.5365C0.249528 31.4611 0.129103 31.4636 0.0555798 31.539C-0.017943 31.6145 -0.0166756 31.7372 0.0581148 31.8101Z" fill="#383838"/>
<path d="M20.3812 0.0565702C20.3064 0.131997 20.3064 0.252169 20.3812 0.327596L26.1641 6.15848C26.2009 6.19556 26.249 6.21473 26.2985 6.21473C26.3479 6.21473 26.3961 6.19556 26.4329 6.15848C26.5076 6.08306 26.5076 5.96289 26.4329 5.88746L20.6499 0.0565702C20.5751 -0.0188567 20.456 -0.0188567 20.3812 0.0565702Z" fill="#383838"/>
<path d="M19.7304 15.9011C19.7672 15.9382 19.8154 15.9574 19.8648 15.9574C19.9142 15.9574 19.9624 15.9382 19.9992 15.9011L29.6623 6.15572C29.7371 6.0803 29.7371 5.96012 29.6623 5.8847C29.5876 5.80927 29.4684 5.80927 29.3936 5.8847L19.7304 15.6301C19.6569 15.7055 19.6569 15.8257 19.7304 15.9011Z" fill="#383838"/>
<path d="M29.3933 2.64251C29.3185 2.71793 29.3185 2.83811 29.3933 2.91353L39.0578 12.659C39.0945 12.696 39.1427 12.7152 39.1921 12.7152C39.2416 12.7152 39.2897 12.696 39.3265 12.659C39.4013 12.5835 39.4013 12.4634 39.3265 12.3879L29.6621 2.64251C29.5885 2.56708 29.4681 2.56708 29.3933 2.64251Z" fill="#383838"/>
<path d="M33.2753 0.0565702C33.2005 0.131997 33.2005 0.252169 33.2753 0.327596L42.2743 9.40952C42.311 9.44659 42.3592 9.46577 42.4086 9.46577C42.4581 9.46577 42.5062 9.44659 42.543 9.40952C42.6178 9.33409 42.6178 9.21392 42.543 9.13849L33.5441 0.0565702C33.4693 -0.0188567 33.3489 -0.0188567 33.2753 0.0565702Z" fill="#383838"/>
<path d="M28.7293 0.0565702L26.1649 2.64282C26.0901 2.71825 26.0901 2.83842 26.1649 2.91385C26.2017 2.95092 26.2499 2.9701 26.2993 2.9701C26.3487 2.9701 26.3969 2.95092 26.4337 2.91385L28.9981 0.327596C29.0729 0.252169 29.0729 0.131997 28.9981 0.0565702C28.9233 -0.0188567 28.8041 -0.0188567 28.7293 0.0565702Z" fill="#383838"/>
<path d="M0.0560928 25.3081L3.61307 28.903C3.64984 28.9401 3.69801 28.9592 3.74744 28.9592C3.79561 28.9592 3.84505 28.9401 3.88181 28.903C3.9566 28.8288 3.9566 28.7074 3.88181 28.632L0.324831 25.037C0.250041 24.9616 0.130883 24.9616 0.0560928 25.037C-0.0186976 25.1112 -0.0186976 25.2326 0.0560928 25.3081Z" fill="#383838"/>
<path d="M0.0560928 18.8081L6.83667 25.6464C6.87343 25.6834 6.9216 25.7026 6.97104 25.7026C7.02047 25.7026 7.06865 25.6834 7.10541 25.6464C7.1802 25.5709 7.1802 25.4508 7.10541 25.3753L0.324831 18.537C0.250041 18.4616 0.130883 18.4616 0.0560928 18.537C-0.0186976 18.6125 -0.0186976 18.7339 0.0560928 18.8081Z" fill="#383838"/>
<path d="M13.9476 0.0565702C13.8728 0.131997 13.8728 0.252169 13.9476 0.327596L22.9466 9.40952C22.9833 9.44659 23.0315 9.46577 23.0809 9.46577C23.1304 9.46577 23.1785 9.44659 23.2153 9.40952C23.2901 9.33409 23.2901 9.21392 23.2153 9.13849L14.2164 0.0565702C14.1416 -0.0188567 14.0212 -0.0188567 13.9476 0.0565702Z" fill="#383838"/>
<path d="M10.0598 2.64251C9.98503 2.71793 9.98503 2.83811 10.0598 2.91353L19.7306 12.659C19.7674 12.696 19.8155 12.7152 19.865 12.7152C19.9144 12.7152 19.9626 12.696 19.9993 12.659C20.0741 12.5835 20.0741 12.4634 19.9993 12.3879L10.3286 2.64251C10.255 2.56708 10.1346 2.56708 10.0598 2.64251Z" fill="#383838"/>
<path d="M0.324831 12.0418C0.250041 11.9664 0.130883 11.9664 0.0560928 12.0418C-0.0186976 12.1172 -0.0186976 12.2374 0.0560928 12.3128L0.402157 12.6618C0.438919 12.6989 0.487089 12.7181 0.536526 12.7181C0.585964 12.7181 0.634134 12.6989 0.670896 12.6618C0.745686 12.5864 0.745686 12.4662 0.670896 12.3908L0.324831 12.0418Z" fill="#383838"/>
<path d="M39.7166 0.0565702C39.6418 0.131997 39.6418 0.252169 39.7166 0.327596L45.4982 6.15848C45.535 6.19556 45.5832 6.21473 45.6326 6.21473C45.682 6.21473 45.7302 6.19556 45.767 6.15848C45.8418 6.08306 45.8418 5.96289 45.767 5.88746L39.9853 0.0565702C39.9105 -0.0188567 39.7901 -0.0188567 39.7166 0.0565702Z" fill="#383838"/>
<path d="M23.0806 38.7112C23.13 38.7112 23.1782 38.692 23.215 38.6549L32.8794 28.9018C32.9542 28.8264 32.9542 28.7062 32.8794 28.6308C32.8046 28.5554 32.6855 28.5554 32.6107 28.6308L22.9462 38.3839C22.8714 38.4593 22.8714 38.5795 22.9462 38.6549C22.9843 38.692 23.0324 38.7112 23.0806 38.7112Z" fill="#383838"/>
<path d="M6.97061 22.4574C7.02005 22.4574 7.06822 22.4382 7.10498 22.4011L16.7758 12.6557C16.8506 12.5803 16.8506 12.4601 16.7758 12.3847C16.701 12.3093 16.5818 12.3093 16.507 12.3847L6.83624 22.1301C6.76145 22.2055 6.76145 22.3257 6.83624 22.4011C6.87427 22.4382 6.92244 22.4574 6.97061 22.4574Z" fill="#383838"/>
<path d="M39.1925 35.4535C39.2419 35.4535 39.2901 35.4343 39.3268 35.3972L48.99 25.6518C49.0648 25.5764 49.0648 25.4562 48.99 25.3808C48.9152 25.3054 48.7961 25.3054 48.7213 25.3808L39.0581 35.1262C38.9833 35.2016 38.9833 35.3218 39.0581 35.3972C39.0961 35.4343 39.1443 35.4535 39.1925 35.4535Z" fill="#383838"/>
<path d="M42.4086 28.9587C42.458 28.9587 42.5062 28.9395 42.5429 28.9024C42.6177 28.827 42.6177 28.7068 42.5429 28.6314L32.8798 18.8847C32.805 18.8093 32.6858 18.8093 32.611 18.8847C32.5362 18.9601 32.5362 19.0803 32.611 19.1557L42.2742 28.9024C42.3122 28.9395 42.3604 28.9587 42.4086 28.9587Z" fill="#383838"/>
<path d="M39.1921 32.2087C39.2416 32.2087 39.2897 32.1895 39.3265 32.1524C39.4013 32.077 39.4013 31.9568 39.3265 31.8814L29.6621 22.1347C29.5873 22.0593 29.4681 22.0593 29.3933 22.1347C29.3185 22.2101 29.3185 22.3303 29.3933 22.4057L39.0578 32.1524C39.0958 32.1895 39.144 32.2087 39.1921 32.2087Z" fill="#383838"/>
<path d="M13.5523 9.1347C13.4775 9.05927 13.3583 9.05927 13.2835 9.1347L3.61273 18.8801C3.53794 18.9555 3.53794 19.0757 3.61273 19.1511C3.64949 19.1882 3.69766 19.2074 3.7471 19.2074C3.79654 19.2074 3.84471 19.1882 3.88147 19.1511L13.5523 9.40572C13.627 9.33029 13.627 9.21012 13.5523 9.1347Z" fill="#383838"/>
<path d="M19.7304 35.3972C19.7672 35.4343 19.8154 35.4535 19.8648 35.4535C19.9142 35.4535 19.9624 35.4343 19.9992 35.3972L29.6623 25.6518C29.7371 25.5764 29.7371 25.4562 29.6623 25.3808C29.5876 25.3054 29.4684 25.3054 29.3936 25.3808L19.7304 35.1262C19.6569 35.2016 19.6569 35.3231 19.7304 35.3972Z" fill="#383838"/>
<path d="M64.9663 41.9535C65.0157 41.9535 65.0626 41.9343 65.0994 41.8972L74.7651 32.1518C74.8399 32.0764 74.8399 31.9562 74.7651 31.8808C74.6903 31.8054 74.5699 31.8054 74.4951 31.8808L64.8319 41.6262C64.7571 41.7016 64.7571 41.8218 64.8319 41.8972C64.8699 41.9343 64.9168 41.9535 64.9663 41.9535Z" fill="#383838"/>
<path d="M26.2983 41.9535C26.3477 41.9535 26.3959 41.9343 26.4327 41.8972L36.1098 32.1518C36.1846 32.0764 36.1846 31.9562 36.1098 31.8808C36.035 31.8054 35.9158 31.8054 35.8411 31.8808L26.1639 41.6262C26.0892 41.7016 26.0892 41.8218 26.1639 41.8972C26.202 41.9343 26.2501 41.9535 26.2983 41.9535Z" fill="#383838"/>
<path d="M61.7372 38.7112C61.7854 38.7112 61.8348 38.692 61.8716 38.6549L71.5474 28.9018C71.6222 28.8264 71.6222 28.7062 71.5474 28.6308C71.4726 28.5554 71.3547 28.5554 71.2799 28.6308L61.6016 38.3839C61.5268 38.4593 61.5268 38.5795 61.6016 38.6549C61.6383 38.692 61.6878 38.7112 61.7372 38.7112Z" fill="#383838"/>
<path d="M58.526 35.4535C58.5754 35.4535 58.6236 35.4343 58.6603 35.3972L68.3184 25.6518C68.3932 25.5764 68.3932 25.4562 68.3184 25.3808C68.2437 25.3054 68.1232 25.3054 68.0484 25.3808L58.3916 35.1262C58.3168 35.2016 58.3168 35.3218 58.3916 35.3972C58.4296 35.4343 58.4778 35.4535 58.526 35.4535Z" fill="#383838"/>
<path d="M42.4083 38.7112C42.4577 38.7112 42.5059 38.692 42.5427 38.6549L52.2134 28.9018C52.2882 28.8264 52.2882 28.7062 52.2134 28.6308C52.1387 28.5554 52.0195 28.5554 51.9447 28.6308L42.2739 38.3839C42.1991 38.4593 42.1991 38.5795 42.2739 38.6549C42.312 38.692 42.3601 38.7112 42.4083 38.7112Z" fill="#383838"/>
<path d="M45.6318 41.9535C45.6812 41.9535 45.7294 41.9343 45.7662 41.8972L55.437 32.1518C55.5117 32.0764 55.5117 31.9562 55.437 31.8808C55.3622 31.8054 55.243 31.8054 55.1682 31.8808L45.4974 41.6262C45.4226 41.7016 45.4226 41.8218 45.4974 41.8972C45.5355 41.9343 45.5836 41.9535 45.6318 41.9535Z" fill="#383838"/>
<path d="M58.5262 32.2087C58.5756 32.2087 58.6238 32.1895 58.6605 32.1524C58.7353 32.077 58.7353 31.9568 58.6605 31.8814L48.9898 22.1347C48.915 22.0593 48.7958 22.0593 48.721 22.1347C48.6462 22.2101 48.6462 22.3303 48.721 22.4057L58.3918 32.1524C58.4298 32.1895 58.478 32.2087 58.5262 32.2087Z" fill="#383838"/>
<path d="M61.737 28.9587C61.7852 28.9587 61.8346 28.9395 61.8714 28.9024C61.9462 28.827 61.9462 28.7068 61.8714 28.6314L52.2133 18.8847C52.1385 18.8093 52.0193 18.8093 51.9445 18.8847C51.8697 18.9601 51.8697 19.0803 51.9445 19.1557L61.6014 28.9024C61.6381 28.9395 61.6876 28.9587 61.737 28.9587Z" fill="#383838"/>
<path d="M23.2152 28.6314L13.5521 18.8847C13.4773 18.8093 13.3581 18.8093 13.2833 18.8847C13.2085 18.9601 13.2085 19.0803 13.2833 19.1557L22.9465 28.9024C22.9833 28.9395 23.0314 28.9587 23.0809 28.9587C23.1303 28.9587 23.1785 28.9395 23.2152 28.9024C23.29 28.827 23.29 28.7068 23.2152 28.6314Z" fill="#383838"/>
<path d="M90.6061 48.1269L88.0898 50.6722C88.0163 50.7476 88.0163 50.8678 88.0911 50.9432C88.1279 50.9803 88.176 50.9995 88.2242 50.9995C88.2736 50.9995 88.3218 50.9803 88.3586 50.9432L90.8748 48.3979C90.9496 48.3225 90.9496 48.2023 90.8748 48.1269C90.8 48.0515 90.6809 48.0515 90.6061 48.1269Z" fill="#383838"/>
<path d="M100.978 50.9443C101.014 50.9814 101.064 51.0005 101.112 51.0005C101.16 51.0005 101.21 50.9814 101.246 50.9443L106.985 45.1479C107.06 45.0725 107.06 44.9523 106.985 44.8769C106.91 44.8015 106.792 44.8015 106.717 44.8769L100.976 50.6733C100.903 50.7487 100.903 50.8701 100.978 50.9443Z" fill="#383838"/>
<path d="M94.1002 35.123C94.0254 35.0475 93.905 35.0475 93.8302 35.123C93.7554 35.1984 93.7554 35.3186 93.8302 35.394L103.488 45.1471C103.525 45.1842 103.572 45.2033 103.621 45.2033C103.671 45.2033 103.718 45.1842 103.755 45.1471C103.829 45.0717 103.829 44.9515 103.755 44.8761L94.1002 35.123Z" fill="#383838"/>
<path d="M96.4822 51.0016C96.5316 51.0016 96.5785 50.9824 96.6153 50.9453C96.6901 50.8699 96.6901 50.7497 96.6153 50.6743L87.6531 41.6269C87.5783 41.5515 87.4579 41.5515 87.3831 41.6269C87.3083 41.7023 87.3083 41.8225 87.3831 41.8979L96.3478 50.9453C96.3859 50.9824 96.4328 51.0016 96.4822 51.0016Z" fill="#383838"/>
<path d="M0.402798 15.9011C0.43956 15.9382 0.48773 15.9574 0.537167 15.9574C0.586605 15.9574 0.634775 15.9382 0.671537 15.9011L10.3284 6.15572C10.4032 6.0803 10.4032 5.96012 10.3284 5.8847C10.2536 5.80927 10.1344 5.80927 10.0596 5.8847L0.402798 15.6301C0.329276 15.7055 0.329276 15.8257 0.402798 15.9011Z" fill="#383838"/>
<path d="M1.05347 0.0565702C0.978678 0.131997 0.978678 0.252169 1.05347 0.327596L6.83641 6.15848C6.87318 6.19556 6.92135 6.21473 6.97078 6.21473C7.02022 6.21473 7.06839 6.19556 7.10515 6.15848C7.17994 6.08306 7.17994 5.96289 7.10515 5.88746L1.32221 0.0565702C1.24742 -0.0188567 1.12699 -0.0188567 1.05347 0.0565702Z" fill="#383838"/>
<path d="M7.10598 2.91289L9.66407 0.326637C9.73759 0.25121 9.73759 0.12976 9.66407 0.0556114C9.58928 -0.0185371 9.46885 -0.0185371 9.39533 0.0556114L6.83725 2.64186C6.76372 2.71729 6.76372 2.83874 6.83725 2.91289C6.87401 2.94996 6.92345 2.96786 6.97162 2.96786C7.01979 2.96914 7.06922 2.94996 7.10598 2.91289Z" fill="#383838"/>
<path d="M32.6111 48.1269L30.1012 50.6722C30.0276 50.7489 30.0276 50.8678 30.1012 50.9432C30.1379 50.9803 30.1874 50.9995 30.2355 50.9995C30.285 50.9995 30.3331 50.9803 30.3699 50.9432L32.8798 48.3979C32.9533 48.3212 32.9533 48.2023 32.8798 48.1269C32.805 48.0515 32.6846 48.0515 32.6111 48.1269Z" fill="#383838"/>
<path d="M13.2829 48.1269L10.7667 50.6722C10.6932 50.7476 10.6932 50.8678 10.7667 50.9432C10.8035 50.9803 10.8529 50.9995 10.9011 50.9995C10.9505 50.9995 10.9987 50.9803 11.0354 50.9432L13.5517 48.3979C13.6252 48.3225 13.6252 48.2023 13.5517 48.1269C13.4769 48.0515 13.3565 48.0515 13.2829 48.1269Z" fill="#383838"/>
<path d="M19.1586 51.0016C19.208 51.0016 19.2562 50.9824 19.293 50.9453C19.3678 50.8699 19.3678 50.7497 19.293 50.6743L10.3295 41.6269C10.2547 41.5515 10.1356 41.5515 10.0608 41.6269C9.986 41.7023 9.986 41.8225 10.0608 41.8979L19.0242 50.9453C19.061 50.9824 19.1092 51.0016 19.1586 51.0016Z" fill="#383838"/>
<path d="M38.4855 51.0016C38.5349 51.0016 38.5831 50.9824 38.6198 50.9453C38.6946 50.8699 38.6946 50.7497 38.6198 50.6743L29.664 41.6269C29.5892 41.5515 29.4701 41.5515 29.3953 41.6269C29.3205 41.7023 29.3205 41.8225 29.3953 41.8979L38.3511 50.9453C38.3879 50.9824 38.436 51.0016 38.4855 51.0016Z" fill="#383838"/>
<path d="M77.1541 51.0016C77.2022 51.0016 77.2517 50.9824 77.2884 50.9453C77.3632 50.8699 77.3632 50.7497 77.2884 50.6743L68.3187 41.6269C68.2439 41.5515 68.1234 41.5515 68.0486 41.6269C67.9739 41.7023 67.9739 41.8225 68.0486 41.8979L77.0184 50.9453C77.0552 50.9824 77.1059 51.0016 77.1541 51.0016Z" fill="#383838"/>
<path d="M71.28 48.1269L68.7574 50.6722C68.6827 50.7476 68.6827 50.8678 68.7574 50.9432C68.7942 50.9803 68.8411 50.9995 68.8906 50.9995C68.94 50.9995 68.9869 50.9803 69.0237 50.9432L71.5462 48.3979C71.621 48.3225 71.621 48.2023 71.5462 48.1269C71.4715 48.0515 71.3536 48.0515 71.28 48.1269Z" fill="#383838"/>
<path d="M81.0702 48.4574C81.1184 48.4574 81.1678 48.4382 81.2046 48.4011C81.2794 48.3257 81.2794 48.2055 81.2046 48.1301L71.5465 38.3847C71.4717 38.3093 71.3538 38.3093 71.279 38.3847C71.2042 38.4601 71.2042 38.5803 71.279 38.6557L80.9346 48.4011C80.9726 48.4382 81.022 48.4574 81.0702 48.4574Z" fill="#383838"/>
<path d="M51.9451 48.1269L49.4289 50.6722C49.3553 50.7476 49.3553 50.8678 49.4289 50.9432C49.4656 50.9803 49.5151 50.9995 49.5632 50.9995C49.6127 50.9995 49.6608 50.9803 49.6976 50.9432L52.2139 48.3979C52.2874 48.3225 52.2874 48.2023 52.2139 48.1269C52.1391 48.0515 52.0186 48.0515 51.9451 48.1269Z" fill="#383838"/>
<path d="M57.8207 51.0016C57.8701 51.0016 57.9183 50.9824 57.9551 50.9453C58.0299 50.8699 58.0299 50.7497 57.9551 50.6743L48.9916 41.6269C48.9168 41.5515 48.7977 41.5515 48.7229 41.6269C48.6481 41.7023 48.6481 41.8225 48.7229 41.8979L57.6863 50.9453C57.7231 50.9824 57.7713 51.0016 57.8207 51.0016Z" fill="#383838"/>
<path d="M6.97061 41.9535C7.02005 41.9535 7.06822 41.9343 7.10498 41.8972L16.7758 32.1518C16.8506 32.0764 16.8506 31.9562 16.7758 31.8808C16.701 31.8054 16.5818 31.8054 16.507 31.8808L6.83624 41.6262C6.76145 41.7016 6.76145 41.8218 6.83624 41.8972C6.87427 41.9343 6.92244 41.9535 6.97061 41.9535Z" fill="#383838"/>
<path d="M0.402798 35.3972C0.43956 35.4343 0.48773 35.4535 0.537167 35.4535C0.586605 35.4535 0.634775 35.4343 0.671537 35.3972L10.3284 25.6518C10.4032 25.5764 10.4032 25.4562 10.3284 25.3808C10.2536 25.3054 10.1344 25.3054 10.0596 25.3808L0.402798 35.1262C0.329276 35.2016 0.329276 35.3231 0.402798 35.3972Z" fill="#383838"/>
<path d="M26.2981 45.2033C26.3475 45.2033 26.3957 45.1842 26.4325 45.1471C26.5073 45.0717 26.5073 44.9515 26.4325 44.8761L16.7756 35.123C16.7008 35.0475 16.5817 35.0475 16.5069 35.123C16.4321 35.1984 16.4321 35.3186 16.5069 35.394L26.1637 45.1471C26.2018 45.1842 26.2499 45.2033 26.2981 45.2033Z" fill="#383838"/>
<path d="M23.0809 48.4574C23.1303 48.4574 23.1785 48.4382 23.2152 48.4011C23.29 48.3257 23.29 48.2055 23.2152 48.1301L13.5521 38.3847C13.4773 38.3093 13.3581 38.3093 13.2833 38.3847C13.2085 38.4601 13.2085 38.5803 13.2833 38.6557L22.9465 48.4011C22.9845 48.4382 23.0327 48.4574 23.0809 48.4574Z" fill="#383838"/>
<path d="M3.7471 38.7112C3.79654 38.7112 3.84471 38.692 3.88147 38.6549L13.5523 28.9018C13.627 28.8264 13.627 28.7062 13.5523 28.6308C13.4775 28.5554 13.3583 28.5554 13.2835 28.6308L3.61273 38.3839C3.53794 38.4593 3.53794 38.5795 3.61273 38.6549C3.65076 38.692 3.69893 38.7112 3.7471 38.7112Z" fill="#383838"/>
<path d="M32.6107 9.1347L22.9462 18.8801C22.8714 18.9555 22.8714 19.0757 22.9462 19.1511C22.983 19.1882 23.0312 19.2074 23.0806 19.2074C23.13 19.2074 23.1782 19.1882 23.215 19.1511L32.8794 9.40572C32.9542 9.33029 32.9542 9.21012 32.8794 9.1347C32.8046 9.05927 32.6855 9.05927 32.6107 9.1347Z" fill="#383838"/>
<path d="M16.5069 15.6298C16.4321 15.7053 16.4321 15.8254 16.5069 15.9009L26.1637 25.6476C26.2005 25.6846 26.2487 25.7038 26.2981 25.7038C26.3475 25.7038 26.3957 25.6846 26.4325 25.6476C26.5073 25.5721 26.5073 25.452 26.4325 25.3765L16.7756 15.6298C16.7021 15.5557 16.5817 15.5557 16.5069 15.6298Z" fill="#383838"/>
<path d="M19.7306 32.1524C19.7674 32.1895 19.8155 32.2087 19.865 32.2087C19.9144 32.2087 19.9626 32.1895 19.9993 32.1524C20.0741 32.077 20.0741 31.9568 19.9993 31.8814L10.3286 22.1347C10.2538 22.0593 10.1346 22.0593 10.0598 22.1347C9.98503 22.2101 9.98503 22.3303 10.0598 22.4057L19.7306 32.1524Z" fill="#383838"/>
<path d="M64.9659 45.2033C65.0154 45.2033 65.0623 45.1842 65.099 45.1471C65.1738 45.0717 65.1738 44.9515 65.099 44.8761L55.4359 35.123C55.3611 35.0475 55.2419 35.0475 55.1671 35.123C55.0923 35.1984 55.0923 35.3186 55.1671 35.394L64.8316 45.1471C64.8696 45.1842 64.9165 45.2033 64.9659 45.2033Z" fill="#383838"/>
<path d="M35.8411 12.3847L26.1639 22.1301C26.0892 22.2055 26.0892 22.3257 26.1639 22.4011C26.2007 22.4382 26.2489 22.4574 26.2983 22.4574C26.3477 22.4574 26.3959 22.4382 26.4327 22.4011L36.1098 12.6557C36.1846 12.5803 36.1846 12.4601 36.1098 12.3847C36.035 12.3093 35.9158 12.3093 35.8411 12.3847Z" fill="#383838"/>
<path d="M61.737 48.4574C61.7852 48.4574 61.8346 48.4382 61.8714 48.4011C61.9462 48.3257 61.9462 48.2055 61.8714 48.1301L52.2133 38.3847C52.1385 38.3093 52.0193 38.3093 51.9445 38.3847C51.8697 38.4601 51.8697 38.5803 51.9445 38.6557L61.6014 48.4011C61.6381 48.4382 61.6876 48.4574 61.737 48.4574Z" fill="#383838"/>
<path d="M62.4428 51.0005C62.4923 51.0005 62.5392 50.9814 62.5759 50.9443L68.3171 45.1479C68.3919 45.0725 68.3919 44.9523 68.3171 44.8769C68.2423 44.8015 68.1218 44.8015 68.0471 44.8769L62.3085 50.6733C62.2337 50.7487 62.2337 50.8689 62.3085 50.9443C62.3465 50.9814 62.3934 51.0005 62.4428 51.0005Z" fill="#383838"/>
<path d="M77.8604 32.2087C77.9099 32.2087 77.9568 32.1895 77.9935 32.1524C78.0683 32.077 78.0683 31.9568 77.9935 31.8814L68.3177 22.1347C68.2429 22.0593 68.1225 22.0593 68.0477 22.1347C67.9729 22.2101 67.9729 22.3303 68.0477 22.4057L77.7261 32.1524C77.7641 32.1895 77.811 32.2087 77.8604 32.2087Z" fill="#383838"/>
<path d="M43.1151 51.0005C43.1646 51.0005 43.2128 50.9814 43.2495 50.9443L48.9894 45.1479C49.0642 45.0725 49.0642 44.9523 48.9894 44.8769C48.9146 44.8015 48.7954 44.8015 48.7206 44.8769L42.9808 50.6733C42.906 50.7487 42.906 50.8689 42.9808 50.9443C43.0175 50.9814 43.0657 51.0005 43.1151 51.0005Z" fill="#383838"/>
<path d="M42.4086 48.4574C42.458 48.4574 42.5062 48.4382 42.5429 48.4011C42.6177 48.3257 42.6177 48.2055 42.5429 48.1301L32.8798 38.3847C32.805 38.3093 32.6858 38.3093 32.611 38.3847C32.5362 38.4601 32.5362 38.5803 32.611 38.6557L42.2742 48.4011C42.3122 48.4382 42.3604 48.4574 42.4086 48.4574Z" fill="#383838"/>
<path d="M23.7874 51.0005C23.8369 51.0005 23.8851 50.9814 23.9218 50.9443L29.6617 45.1479C29.7365 45.0725 29.7365 44.9523 29.6617 44.8769C29.5869 44.8015 29.4677 44.8015 29.3929 44.8769L23.6531 50.6733C23.5783 50.7487 23.5783 50.8689 23.6531 50.9443C23.6898 50.9814 23.738 51.0005 23.7874 51.0005Z" fill="#383838"/>
<path d="M45.6316 45.2033C45.681 45.2033 45.7292 45.1842 45.766 45.1471C45.8408 45.0717 45.8408 44.9515 45.766 44.8761L36.1091 35.123C36.0343 35.0475 35.9152 35.0475 35.8404 35.123C35.7656 35.1984 35.7656 35.3186 35.8404 35.394L45.4972 45.1471C45.5353 45.1842 45.5834 45.2033 45.6316 45.2033Z" fill="#383838"/>
<path d="M97.1886 32.2087C97.2367 32.2087 97.2862 32.1895 97.3229 32.1524C97.3977 32.077 97.3977 31.9568 97.3229 31.8814L87.6521 22.1347C87.5774 22.0593 87.4569 22.0593 87.3821 22.1347C87.3074 22.2101 87.3074 22.3303 87.3821 22.4057L97.0529 32.1524C97.091 32.1895 97.1404 32.2087 97.1886 32.2087Z" fill="#383838"/>
<path d="M100.406 28.9587C100.455 28.9587 100.502 28.9395 100.539 28.9024C100.614 28.827 100.614 28.7068 100.539 28.6314L90.8757 18.8847C90.8009 18.8093 90.6805 18.8093 90.6057 18.8847C90.5309 18.9601 90.5309 19.0803 90.6057 19.1557L100.271 28.9024C100.309 28.9395 100.356 28.9587 100.406 28.9587Z" fill="#383838"/>
<path d="M94.1004 12.3847C94.0256 12.3093 93.9052 12.3093 93.8304 12.3847L84.1596 22.1301C84.0848 22.2055 84.0848 22.3257 84.1596 22.4011C84.1964 22.4382 84.2458 22.4574 84.294 22.4574C84.3422 22.4574 84.3916 22.4382 84.4283 22.4011L94.0991 12.6557C94.1739 12.5803 94.1739 12.4601 94.1004 12.3847Z" fill="#383838"/>
<path d="M35.8404 15.6298C35.7656 15.7053 35.7656 15.8254 35.8404 15.9009L45.4972 25.6476C45.534 25.6846 45.5822 25.7038 45.6316 25.7038C45.681 25.7038 45.7292 25.6846 45.766 25.6476C45.8408 25.5721 45.8408 25.452 45.766 25.3765L36.1091 15.6298C36.0356 15.5557 35.9152 15.5557 35.8404 15.6298Z" fill="#383838"/>
<path d="M81.0702 28.9587C81.1184 28.9587 81.1678 28.9395 81.2046 28.9024C81.2794 28.827 81.2794 28.7068 81.2046 28.6314L71.5465 18.8847C71.4717 18.8093 71.3538 18.8093 71.279 18.8847C71.2042 18.9601 71.2042 19.0803 71.279 19.1557L80.9346 28.9024C80.9726 28.9395 81.022 28.9587 81.0702 28.9587Z" fill="#383838"/>
<path d="M81.0707 38.7112C81.1189 38.7112 81.1683 38.692 81.2051 38.6549L90.8759 28.9018C90.9506 28.8264 90.9506 28.7062 90.8759 28.6308C90.8011 28.5554 90.6806 28.5554 90.6058 28.6308L80.9351 38.3839C80.8603 38.4593 80.8603 38.5795 80.9351 38.6549C80.9731 38.692 81.0225 38.7112 81.0707 38.7112Z" fill="#383838"/>
<path d="M77.8604 35.4535C77.9099 35.4535 77.9568 35.4343 77.9935 35.3972L87.6516 25.6518C87.7264 25.5764 87.7264 25.4562 87.6516 25.3808C87.5769 25.3054 87.4564 25.3054 87.3816 25.3808L77.7261 35.1262C77.6513 35.2016 77.6513 35.3218 77.7261 35.3972C77.7641 35.4343 77.811 35.4535 77.8604 35.4535Z" fill="#383838"/>
<path d="M84.2943 41.9535C84.3424 41.9535 84.3919 41.9343 84.4286 41.8972L94.0994 32.1518C94.1742 32.0764 94.1742 31.9562 94.0994 31.8808C94.0246 31.8054 93.9042 31.8054 93.8294 31.8808L84.1586 41.6262C84.0838 41.7016 84.0838 41.8218 84.1586 41.8972C84.1967 41.9343 84.2461 41.9535 84.2943 41.9535Z" fill="#383838"/>
<path d="M55.168 15.6298C55.0932 15.7053 55.0932 15.8254 55.168 15.9009L64.8325 25.6476C64.8692 25.6846 64.9161 25.7038 64.9656 25.7038C65.015 25.7038 65.0619 25.6846 65.0987 25.6476C65.1735 25.5721 65.1735 25.452 65.0987 25.3765L55.4355 15.6298C55.3632 15.5557 55.2428 15.5557 55.168 15.6298Z" fill="#383838"/>
<path d="M55.1682 12.3847L45.4974 22.1301C45.4226 22.2055 45.4226 22.3257 45.4974 22.4011C45.5342 22.4382 45.5824 22.4574 45.6318 22.4574C45.6812 22.4574 45.7294 22.4382 45.7662 22.4011L55.437 12.6557C55.5117 12.5803 55.5117 12.4601 55.437 12.3847C55.3622 12.3093 55.243 12.3093 55.1682 12.3847Z" fill="#383838"/>
<path d="M51.9447 9.1347L42.2739 18.8801C42.1991 18.9555 42.1991 19.0757 42.2739 19.1511C42.3107 19.1882 42.3589 19.2074 42.4083 19.2074C42.4577 19.2074 42.5059 19.1882 42.5427 19.1511L52.2134 9.40572C52.2882 9.33029 52.2882 9.21012 52.2134 9.1347C52.1387 9.05927 52.0195 9.05927 51.9447 9.1347Z" fill="#383838"/>
<path d="M74.4961 12.3847L64.8329 22.1301C64.7581 22.2055 64.7581 22.3257 64.8329 22.4011C64.8696 22.4382 64.9166 22.4574 64.966 22.4574C65.0154 22.4574 65.0623 22.4382 65.0991 22.4011L74.7648 12.6557C74.8396 12.5803 74.8396 12.4601 74.7648 12.3847C74.69 12.3093 74.5708 12.3093 74.4961 12.3847Z" fill="#383838"/>
<path d="M74.4957 15.6298C74.4209 15.7053 74.4209 15.8254 74.4957 15.9009L84.1589 25.6476C84.1957 25.6846 84.2451 25.7038 84.2933 25.7038C84.3414 25.7038 84.3909 25.6846 84.4276 25.6476C84.5024 25.5721 84.5024 25.452 84.4276 25.3765L74.7645 15.6298C74.6909 15.5557 74.5705 15.5557 74.4957 15.6298Z" fill="#383838"/>
<path d="M90.6068 9.1347L80.936 18.8801C80.8612 18.9555 80.8612 19.0757 80.936 19.1511C80.9728 19.1882 81.0222 19.2074 81.0704 19.2074C81.1186 19.2074 81.168 19.1882 81.2048 19.1511L90.8756 9.40572C90.9504 9.33029 90.9504 9.21012 90.8756 9.1347C90.8008 9.05927 90.6816 9.05927 90.6068 9.1347Z" fill="#383838"/>
<path d="M71.2799 9.1347L61.6016 18.8801C61.5268 18.9555 61.5268 19.0757 61.6016 19.1511C61.6383 19.1882 61.6878 19.2074 61.7359 19.2074C61.7841 19.2074 61.8335 19.1882 61.8703 19.1511L71.5462 9.40572C71.6209 9.33029 71.6209 9.21012 71.5462 9.1347C71.4714 9.05927 71.3535 9.05927 71.2799 9.1347Z" fill="#383838"/>
<path d="M0.0560928 38.3042L6.83667 45.1488C6.87343 45.1859 6.9216 45.2051 6.97104 45.2051C7.02047 45.2051 7.06865 45.1859 7.10541 45.1488C7.1802 45.0734 7.1802 44.9532 7.10541 44.8778L0.324831 38.0331C0.250041 37.9577 0.130883 37.9577 0.0560928 38.0331C-0.0186976 38.1086 -0.0186976 38.2287 0.0560928 38.3042Z" fill="#383838"/>
<path d="M166.045 2.64251C165.97 2.71793 165.97 2.83811 166.045 2.91353L175.723 12.659C175.76 12.696 175.807 12.7152 175.856 12.7152C175.906 12.7152 175.953 12.696 175.99 12.659C176.064 12.5835 176.064 12.4634 175.99 12.3879L166.314 2.64251C166.24 2.56708 166.12 2.56708 166.045 2.64251Z" fill="#383838"/>
<path d="M184.716 0.0570507L182.156 2.6433C182.081 2.71873 182.081 2.84018 182.156 2.91433C182.193 2.9514 182.242 2.97058 182.29 2.97058C182.338 2.97058 182.388 2.9514 182.425 2.91433L184.983 0.328076C185.057 0.252649 185.057 0.131199 184.983 0.0570507C184.909 -0.0196548 184.789 -0.0183763 184.716 0.0570507Z" fill="#383838"/>
<path d="M169.941 0.0565702C169.867 0.131997 169.867 0.252169 169.941 0.327596L178.932 9.40952C178.968 9.44659 179.018 9.46577 179.066 9.46577C179.114 9.46577 179.164 9.44659 179.2 9.40952C179.275 9.33409 179.275 9.21392 179.2 9.13849L170.208 0.0565702C170.135 -0.0188567 170.016 -0.0188567 169.941 0.0565702Z" fill="#383838"/>
<path d="M176.373 0.0565702C176.298 0.131997 176.298 0.252169 176.373 0.327596L182.155 6.15848C182.191 6.19556 182.241 6.21473 182.289 6.21473C182.337 6.21473 182.387 6.19556 182.423 6.15848C182.498 6.08306 182.498 5.96289 182.423 5.88746L176.642 0.0565702C176.57 -0.0188567 176.448 -0.0188567 176.373 0.0565702Z" fill="#383838"/>
<path d="M156.389 15.9011C156.426 15.9382 156.474 15.9574 156.523 15.9574C156.573 15.9574 156.621 15.9382 156.658 15.9011L166.316 6.15572C166.391 6.0803 166.391 5.96012 166.316 5.8847C166.241 5.80927 166.121 5.80927 166.046 5.8847L156.389 15.6301C156.315 15.7055 156.315 15.8257 156.389 15.9011Z" fill="#383838"/>
<path d="M165.38 0.056732L162.828 2.64298C162.755 2.71841 162.755 2.83986 162.829 2.91401C162.866 2.95108 162.914 2.96898 162.962 2.96898C163.012 2.96898 163.06 2.9498 163.097 2.91273L165.649 0.326477C165.723 0.25105 165.723 0.1296 165.649 0.0554518C165.574 -0.0186968 165.453 -0.018695 165.38 0.056732Z" fill="#383838"/>
<path d="M182.29 45.2033C182.338 45.2033 182.387 45.1842 182.424 45.1471C182.499 45.0717 182.499 44.9515 182.424 44.8761L172.761 35.123C172.686 35.0475 172.566 35.0475 172.491 35.123C172.416 35.1984 172.416 35.3186 172.491 35.394L182.154 45.1471C182.192 45.1842 182.242 45.2033 182.29 45.2033Z" fill="#383838"/>
<path d="M146.717 2.64251C146.642 2.71793 146.642 2.83811 146.717 2.91353L156.388 12.659C156.425 12.696 156.473 12.7152 156.522 12.7152C156.572 12.7152 156.62 12.696 156.657 12.659C156.732 12.5835 156.732 12.4634 156.657 12.3879L146.986 2.64251C146.913 2.56708 146.792 2.56708 146.717 2.64251Z" fill="#383838"/>
<path d="M150.607 0.0565702C150.532 0.131997 150.532 0.252169 150.607 0.327596L159.597 9.40952C159.634 9.44659 159.683 9.46577 159.731 9.46577C159.78 9.46577 159.829 9.44659 159.866 9.40952C159.941 9.33409 159.941 9.21392 159.866 9.13849L150.874 0.0565702C150.801 -0.0188567 150.681 -0.0188567 150.607 0.0565702Z" fill="#383838"/>
<path d="M157.047 0.0565702C156.973 0.131997 156.973 0.252169 157.047 0.327596L162.829 6.15848C162.866 6.19556 162.913 6.21473 162.962 6.21473C163.012 6.21473 163.058 6.19556 163.095 6.15848C163.17 6.08306 163.17 5.96289 163.095 5.88746L157.314 0.0565702C157.241 -0.0188567 157.122 -0.0188567 157.047 0.0565702Z" fill="#383838"/>
<path d="M208.199 28.6308C208.125 28.5554 208.007 28.5554 207.932 28.6308L198.269 38.3839C198.194 38.4593 198.194 38.5795 198.269 38.6549C198.306 38.692 198.352 38.7112 198.402 38.7112C198.451 38.7112 198.498 38.692 198.535 38.6549L208.198 28.9018C208.273 28.8264 208.273 28.7062 208.199 28.6308Z" fill="#383838"/>
<path d="M192.096 15.6308C192.022 15.5554 191.901 15.5554 191.826 15.6308C191.752 15.7062 191.752 15.8264 191.826 15.9018L201.485 25.6485C201.521 25.6856 201.568 25.7048 201.618 25.7048C201.667 25.7048 201.714 25.6856 201.751 25.6485C201.826 25.5731 201.826 25.4529 201.751 25.3775L192.096 15.6308Z" fill="#383838"/>
<path d="M204.716 25.3803L195.05 35.1257C194.975 35.2012 194.975 35.3213 195.05 35.3968C195.087 35.4338 195.136 35.453 195.184 35.453C195.233 35.453 195.282 35.4338 195.319 35.3968L204.982 25.6513C205.057 25.5759 205.057 25.4557 204.982 25.3803C204.907 25.3049 204.789 25.3062 204.716 25.3803Z" fill="#383838"/>
<path d="M137.054 15.9011C137.091 15.9382 137.139 15.9574 137.189 15.9574C137.238 15.9574 137.286 15.9382 137.323 15.9011L146.986 6.15572C147.061 6.0803 147.061 5.96012 146.986 5.8847C146.912 5.80927 146.792 5.80927 146.718 5.8847L137.054 15.6301C136.981 15.7055 136.981 15.8257 137.054 15.9011Z" fill="#383838"/>
<path d="M179.774 51.0005C179.823 51.0005 179.87 50.9814 179.907 50.9443L185.648 45.1479C185.723 45.0725 185.723 44.9523 185.648 44.8769C185.573 44.8015 185.453 44.8015 185.378 44.8769L179.639 50.6733C179.564 50.7487 179.564 50.8689 179.639 50.9443C179.677 50.9814 179.724 51.0005 179.774 51.0005Z" fill="#383838"/>
<path d="M198.402 48.4574C198.452 48.4574 198.498 48.4382 198.535 48.4011C198.61 48.3257 198.61 48.2055 198.535 48.1301L188.872 38.3847C188.797 38.3093 188.677 38.3093 188.602 38.3847C188.527 38.4601 188.527 38.5803 188.602 38.6557L198.268 48.4011C198.306 48.4382 198.353 48.4574 198.402 48.4574Z" fill="#383838"/>
<path d="M204.716 5.8847L195.05 15.6301C194.975 15.7055 194.975 15.8257 195.05 15.9011C195.087 15.9382 195.136 15.9574 195.184 15.9574C195.233 15.9574 195.282 15.9382 195.319 15.9011L204.982 6.15572C205.057 6.0803 205.057 5.96012 204.982 5.8847C204.907 5.80927 204.789 5.80927 204.716 5.8847Z" fill="#383838"/>
<path d="M189.267 0.0565702C189.192 0.131997 189.192 0.252169 189.267 0.327596L198.267 9.40952C198.304 9.44659 198.351 9.46577 198.401 9.46577C198.45 9.46577 198.497 9.44659 198.534 9.40952C198.608 9.33409 198.608 9.21392 198.534 9.13849L189.536 0.0565702C189.464 -0.0188567 189.342 -0.0188567 189.267 0.0565702Z" fill="#383838"/>
<path d="M195.703 0.0565702C195.628 0.131997 195.628 0.252169 195.703 0.327596L201.484 6.15848C201.521 6.19556 201.568 6.21473 201.617 6.21473C201.667 6.21473 201.714 6.19556 201.751 6.15848C201.825 6.08306 201.825 5.96289 201.751 5.88746L195.969 0.0565702C195.897 -0.0188567 195.777 -0.0188567 195.703 0.0565702Z" fill="#383838"/>
<path d="M208.199 9.1347C208.125 9.05927 208.007 9.05927 207.932 9.1347L198.269 18.8801C198.194 18.9555 198.194 19.0757 198.269 19.1511C198.306 19.1882 198.352 19.2074 198.402 19.2074C198.451 19.2074 198.498 19.1882 198.535 19.1511L208.198 9.40572C208.273 9.33029 208.273 9.21012 208.199 9.1347Z" fill="#383838"/>
<path d="M185.379 2.64251C185.305 2.71793 185.305 2.83811 185.379 2.91353L195.05 12.659C195.087 12.696 195.136 12.7152 195.185 12.7152C195.233 12.7152 195.282 12.696 195.319 12.659C195.394 12.5835 195.394 12.4634 195.319 12.3879L185.648 2.64251C185.575 2.56708 185.454 2.56708 185.379 2.64251Z" fill="#383838"/>
<path d="M204.049 0.0565702L201.484 2.64282C201.41 2.71825 201.41 2.83842 201.484 2.91385C201.521 2.95092 201.568 2.9701 201.618 2.9701C201.667 2.9701 201.714 2.95092 201.751 2.91385L204.315 0.327596C204.39 0.252169 204.39 0.131997 204.315 0.0565702C204.24 -0.0188567 204.124 -0.0188567 204.049 0.0565702Z" fill="#383838"/>
<path d="M175.723 15.9011C175.76 15.9382 175.807 15.9574 175.857 15.9574C175.906 15.9574 175.953 15.9382 175.99 15.9011L185.648 6.15572C185.723 6.0803 185.723 5.96012 185.648 5.8847C185.573 5.80927 185.453 5.80927 185.378 5.8847L175.722 15.6301C175.649 15.7055 175.649 15.8257 175.723 15.9011Z" fill="#383838"/>
<path d="M211.43 31.8808C211.356 31.8054 211.238 31.8054 211.163 31.8808L201.484 41.6262C201.41 41.7016 201.41 41.8218 201.484 41.8972C201.521 41.9343 201.568 41.9535 201.618 41.9535C201.667 41.9535 201.714 41.9343 201.751 41.8972L211.429 32.1518C211.504 32.0777 211.504 31.9562 211.43 31.8808Z" fill="#383838"/>
<path d="M205.69 50.9432L208.198 48.3979C208.272 48.3212 208.272 48.2023 208.197 48.1269C208.122 48.0515 208.003 48.0515 207.928 48.1269L205.42 50.6722C205.345 50.7489 205.345 50.8678 205.42 50.9432C205.457 50.9803 205.506 50.9995 205.554 50.9995C205.602 50.9995 205.653 50.9803 205.69 50.9432Z" fill="#383838"/>
<path d="M146.051 0.056732L143.493 2.64298C143.419 2.71841 143.419 2.83986 143.493 2.91401C143.53 2.95108 143.579 2.96898 143.627 2.96898C143.677 2.96898 143.725 2.9498 143.762 2.91273L146.32 0.326477C146.393 0.25105 146.393 0.1296 146.32 0.0554518C146.245 -0.0186968 146.124 -0.018695 146.051 0.056732Z" fill="#383838"/>
<path d="M211.43 12.3847C211.356 12.3093 211.238 12.3093 211.163 12.3847L201.484 22.1301C201.41 22.2043 201.41 22.3257 201.484 22.4011C201.521 22.4382 201.568 22.4574 201.618 22.4574C201.667 22.4574 201.714 22.4382 201.751 22.4011L211.429 12.6557C211.504 12.5816 211.504 12.4601 211.43 12.3847Z" fill="#383838"/>
<path d="M118.377 0.0565702C118.303 0.131997 118.303 0.252169 118.377 0.327596L124.16 6.15848C124.197 6.19556 124.245 6.21473 124.295 6.21473C124.344 6.21473 124.392 6.19556 124.429 6.15848C124.504 6.08306 124.504 5.96289 124.429 5.88746L118.646 0.0565702C118.571 -0.0188567 118.452 -0.0188567 118.377 0.0565702Z" fill="#383838"/>
<path d="M117.727 15.9011C117.763 15.9382 117.812 15.9574 117.861 15.9574C117.911 15.9574 117.959 15.9382 117.995 15.9011L127.659 6.15572C127.733 6.0803 127.733 5.96012 127.659 5.8847C127.584 5.80927 127.465 5.80927 127.39 5.8847L117.727 15.6301C117.653 15.7055 117.653 15.8257 117.727 15.9011Z" fill="#383838"/>
<path d="M127.39 2.64251C127.315 2.71793 127.315 2.83811 127.39 2.91353L137.054 12.659C137.091 12.696 137.139 12.7152 137.188 12.7152C137.238 12.7152 137.286 12.696 137.323 12.659C137.398 12.5835 137.398 12.4634 137.323 12.3879L127.658 2.64251C127.585 2.56708 127.464 2.56708 127.39 2.64251Z" fill="#383838"/>
<path d="M131.272 0.0565702C131.197 0.131997 131.197 0.252169 131.272 0.327596L140.271 9.40952C140.307 9.44659 140.355 9.46577 140.405 9.46577C140.454 9.46577 140.503 9.44659 140.539 9.40952C140.614 9.33409 140.614 9.21392 140.539 9.13849L131.54 0.0565702C131.466 -0.0188567 131.345 -0.0188567 131.272 0.0565702Z" fill="#383838"/>
<path d="M126.726 0.0565702L124.161 2.64282C124.086 2.71825 124.086 2.83842 124.161 2.91385C124.198 2.95092 124.246 2.9701 124.296 2.9701C124.345 2.9701 124.393 2.95092 124.43 2.91385L126.994 0.327596C127.069 0.252169 127.069 0.131997 126.994 0.0565702C126.92 -0.0188567 126.8 -0.0188567 126.726 0.0565702Z" fill="#383838"/>
<path d="M111.944 0.0565702C111.869 0.131997 111.869 0.252169 111.944 0.327596L120.943 9.40952C120.98 9.44659 121.028 9.46577 121.077 9.46577C121.127 9.46577 121.175 9.44659 121.212 9.40952C121.286 9.33409 121.286 9.21392 121.212 9.13849L112.213 0.0565702C112.138 -0.0188567 112.017 -0.0188567 111.944 0.0565702Z" fill="#383838"/>
<path d="M108.056 2.64251C107.981 2.71793 107.981 2.83811 108.056 2.91353L117.727 12.659C117.764 12.696 117.812 12.7152 117.861 12.7152C117.911 12.7152 117.959 12.696 117.996 12.659C118.07 12.5835 118.07 12.4634 117.996 12.3879L108.325 2.64251C108.251 2.56708 108.131 2.56708 108.056 2.64251Z" fill="#383838"/>
<path d="M137.713 0.0565702C137.638 0.131997 137.638 0.252169 137.713 0.327596L143.495 6.15848C143.531 6.19556 143.579 6.21473 143.629 6.21473C143.678 6.21473 143.726 6.19556 143.763 6.15848C143.838 6.08306 143.838 5.96289 143.763 5.88746L137.982 0.0565702C137.907 -0.0188567 137.786 -0.0188567 137.713 0.0565702Z" fill="#383838"/>
<path d="M121.077 38.7112C121.126 38.7112 121.174 38.692 121.211 38.6549L130.876 28.9018C130.95 28.8264 130.95 28.7062 130.876 28.6308C130.801 28.5554 130.682 28.5554 130.607 28.6308L120.943 38.3839C120.868 38.4593 120.868 38.5795 120.943 38.6549C120.981 38.692 121.029 38.7112 121.077 38.7112Z" fill="#383838"/>
<path d="M137.189 35.4535C137.238 35.4535 137.286 35.4343 137.323 35.3972L146.986 25.6518C147.061 25.5764 147.061 25.4562 146.986 25.3808C146.912 25.3054 146.792 25.3054 146.718 25.3808L137.054 35.1262C136.98 35.2016 136.98 35.3218 137.054 35.3972C137.092 35.4343 137.141 35.4535 137.189 35.4535Z" fill="#383838"/>
<path d="M140.405 28.9587C140.454 28.9587 140.502 28.9395 140.539 28.9024C140.614 28.827 140.614 28.7068 140.539 28.6314L130.876 18.8847C130.801 18.8093 130.682 18.8093 130.607 18.8847C130.533 18.9601 130.533 19.0803 130.607 19.1557L140.27 28.9024C140.309 28.9395 140.357 28.9587 140.405 28.9587Z" fill="#383838"/>
<path d="M137.188 32.2087C137.238 32.2087 137.286 32.1895 137.323 32.1524C137.398 32.077 137.398 31.9568 137.323 31.8814L127.658 22.1347C127.584 22.0593 127.464 22.0593 127.39 22.1347C127.315 22.2101 127.315 22.3303 127.39 22.4057L137.054 32.1524C137.092 32.1895 137.14 32.2087 137.188 32.2087Z" fill="#383838"/>
<path d="M117.727 35.3972C117.763 35.4343 117.812 35.4535 117.861 35.4535C117.911 35.4535 117.959 35.4343 117.995 35.3972L127.659 25.6518C127.733 25.5764 127.733 25.4562 127.659 25.3808C127.584 25.3054 127.465 25.3054 127.39 25.3808L117.727 35.1262C117.653 35.2016 117.653 35.3231 117.727 35.3972Z" fill="#383838"/>
<path d="M162.963 41.9535C163.012 41.9535 163.059 41.9343 163.096 41.8972L172.761 32.1518C172.836 32.0764 172.836 31.9562 172.761 31.8808C172.687 31.8054 172.566 31.8054 172.491 31.8808L162.828 41.6262C162.753 41.7016 162.753 41.8218 162.828 41.8972C162.866 41.9343 162.913 41.9535 162.963 41.9535Z" fill="#383838"/>
<path d="M124.295 41.9535C124.344 41.9535 124.392 41.9343 124.429 41.8972L134.106 32.1518C134.181 32.0764 134.181 31.9562 134.106 31.8808C134.031 31.8054 133.912 31.8054 133.837 31.8808L124.16 41.6262C124.085 41.7016 124.085 41.8218 124.16 41.8972C124.198 41.9343 124.246 41.9535 124.295 41.9535Z" fill="#383838"/>
<path d="M159.733 38.7112C159.782 38.7112 159.831 38.692 159.868 38.6549L169.544 28.9018C169.618 28.8264 169.618 28.7062 169.544 28.6308C169.469 28.5554 169.351 28.5554 169.276 28.6308L159.598 38.3839C159.523 38.4593 159.523 38.5795 159.598 38.6549C159.635 38.692 159.684 38.7112 159.733 38.7112Z" fill="#383838"/>
<path d="M156.522 35.4535C156.572 35.4535 156.62 35.4343 156.657 35.3972L166.315 25.6518C166.39 25.5764 166.39 25.4562 166.315 25.3808C166.24 25.3054 166.12 25.3054 166.045 25.3808L156.388 35.1262C156.313 35.2016 156.313 35.3218 156.388 35.3972C156.426 35.4343 156.474 35.4535 156.522 35.4535Z" fill="#383838"/>
<path d="M140.405 38.7112C140.454 38.7112 140.502 38.692 140.539 38.6549L150.21 28.9018C150.285 28.8264 150.285 28.7062 150.21 28.6308C150.135 28.5554 150.016 28.5554 149.941 28.6308L140.27 38.3839C140.195 38.4593 140.195 38.5795 140.27 38.6549C140.308 38.692 140.356 38.7112 140.405 38.7112Z" fill="#383838"/>
<path d="M143.628 41.9535C143.678 41.9535 143.726 41.9343 143.762 41.8972L153.433 32.1518C153.508 32.0764 153.508 31.9562 153.433 31.8808C153.358 31.8054 153.239 31.8054 153.164 31.8808L143.494 41.6262C143.419 41.7016 143.419 41.8218 143.494 41.8972C143.532 41.9343 143.58 41.9535 143.628 41.9535Z" fill="#383838"/>
<path d="M156.522 32.2087C156.572 32.2087 156.62 32.1895 156.657 32.1524C156.732 32.077 156.732 31.9568 156.657 31.8814L146.986 22.1347C146.911 22.0593 146.792 22.0593 146.717 22.1347C146.642 22.2101 146.642 22.3303 146.717 22.4057L156.388 32.1524C156.426 32.1895 156.474 32.2087 156.522 32.2087Z" fill="#383838"/>
<path d="M159.733 28.9587C159.781 28.9587 159.831 28.9395 159.868 28.9024C159.942 28.827 159.942 28.7068 159.868 28.6314L150.21 18.8847C150.135 18.8093 150.016 18.8093 149.941 18.8847C149.866 18.9601 149.866 19.0803 149.941 19.1557L159.598 28.9024C159.634 28.9395 159.684 28.9587 159.733 28.9587Z" fill="#383838"/>
<path d="M121.212 28.6314L111.548 18.8847C111.474 18.8093 111.354 18.8093 111.28 18.8847C111.205 18.9601 111.205 19.0803 111.28 19.1557L120.943 28.9024C120.98 28.9395 121.028 28.9587 121.077 28.9587C121.127 28.9587 121.175 28.9395 121.212 28.9024C121.286 28.827 121.286 28.7068 121.212 28.6314Z" fill="#383838"/>
<path d="M188.602 48.1269L186.086 50.6722C186.013 50.7476 186.013 50.8678 186.087 50.9432C186.124 50.9803 186.172 50.9995 186.22 50.9995C186.27 50.9995 186.318 50.9803 186.355 50.9432L188.871 48.3979C188.946 48.3225 188.946 48.2023 188.871 48.1269C188.796 48.0515 188.677 48.0515 188.602 48.1269Z" fill="#383838"/>
<path d="M198.974 50.9443C199.011 50.9814 199.06 51.0005 199.108 51.0005C199.156 51.0005 199.206 50.9814 199.243 50.9443L204.981 45.1479C205.056 45.0725 205.056 44.9523 204.981 44.8769C204.906 44.8015 204.788 44.8015 204.714 44.8769L198.973 50.6733C198.899 50.7487 198.899 50.8701 198.974 50.9443Z" fill="#383838"/>
<path d="M192.096 35.123C192.022 35.0475 191.901 35.0475 191.826 35.123C191.752 35.1984 191.752 35.3186 191.826 35.394L201.485 45.1471C201.521 45.1842 201.568 45.2033 201.618 45.2033C201.667 45.2033 201.714 45.1842 201.751 45.1471C201.826 45.0717 201.826 44.9515 201.751 44.8761L192.096 35.123Z" fill="#383838"/>
<path d="M194.478 51.0016C194.528 51.0016 194.575 50.9824 194.612 50.9453C194.686 50.8699 194.686 50.7497 194.612 50.6743L185.649 41.6269C185.575 41.5515 185.454 41.5515 185.379 41.6269C185.305 41.7023 185.305 41.8225 185.379 41.8979L194.344 50.9453C194.382 50.9824 194.429 51.0016 194.478 51.0016Z" fill="#383838"/>
<path d="M130.607 48.1269L128.097 50.6722C128.024 50.7489 128.024 50.8678 128.097 50.9432C128.134 50.9803 128.184 50.9995 128.232 50.9995C128.281 50.9995 128.329 50.9803 128.366 50.9432L130.876 48.3979C130.95 48.3212 130.95 48.2023 130.876 48.1269C130.801 48.0515 130.681 48.0515 130.607 48.1269Z" fill="#383838"/>
<path d="M117.155 51.0016C117.204 51.0016 117.252 50.9824 117.289 50.9453C117.364 50.8699 117.364 50.7497 117.289 50.6743L108.326 41.6269C108.251 41.5515 108.132 41.5515 108.057 41.6269C107.982 41.7023 107.982 41.8225 108.057 41.8979L117.021 50.9453C117.057 50.9824 117.105 51.0016 117.155 51.0016Z" fill="#383838"/>
<path d="M136.482 51.0016C136.531 51.0016 136.579 50.9824 136.616 50.9453C136.691 50.8699 136.691 50.7497 136.616 50.6743L127.66 41.6269C127.585 41.5515 127.466 41.5515 127.392 41.6269C127.317 41.7023 127.317 41.8225 127.392 41.8979L136.347 50.9453C136.384 50.9824 136.432 51.0016 136.482 51.0016Z" fill="#383838"/>
<path d="M175.15 51.0016C175.199 51.0016 175.248 50.9824 175.285 50.9453C175.36 50.8699 175.36 50.7497 175.285 50.6743L166.315 41.6269C166.24 41.5515 166.12 41.5515 166.045 41.6269C165.97 41.7023 165.97 41.8225 166.045 41.8979L175.015 50.9453C175.051 50.9824 175.102 51.0016 175.15 51.0016Z" fill="#383838"/>
<path d="M169.276 48.1269L166.754 50.6722C166.679 50.7476 166.679 50.8678 166.754 50.9432C166.79 50.9803 166.837 50.9995 166.887 50.9995C166.936 50.9995 166.983 50.9803 167.02 50.9432L169.543 48.3979C169.617 48.3225 169.617 48.2023 169.543 48.1269C169.468 48.0515 169.35 48.0515 169.276 48.1269Z" fill="#383838"/>
<path d="M179.066 48.4574C179.115 48.4574 179.164 48.4382 179.201 48.4011C179.276 48.3257 179.276 48.2055 179.201 48.1301L169.543 38.3847C169.468 38.3093 169.35 38.3093 169.275 38.3847C169.2 38.4601 169.2 38.5803 169.275 38.6557L178.931 48.4011C178.969 48.4382 179.018 48.4574 179.066 48.4574Z" fill="#383838"/>
<path d="M149.941 48.1269L147.425 50.6722C147.352 50.7476 147.352 50.8678 147.425 50.9432C147.462 50.9803 147.511 50.9995 147.56 50.9995C147.609 50.9995 147.657 50.9803 147.694 50.9432L150.21 48.3979C150.284 48.3225 150.284 48.2023 150.21 48.1269C150.135 48.0515 150.015 48.0515 149.941 48.1269Z" fill="#383838"/>
<path d="M155.817 51.0016C155.866 51.0016 155.915 50.9824 155.951 50.9453C156.026 50.8699 156.026 50.7497 155.951 50.6743L146.988 41.6269C146.913 41.5515 146.794 41.5515 146.719 41.6269C146.644 41.7023 146.644 41.8225 146.719 41.8979L155.683 50.9453C155.719 50.9824 155.768 51.0016 155.817 51.0016Z" fill="#383838"/>
<path d="M124.294 45.2033C124.344 45.2033 124.392 45.1842 124.429 45.1471C124.504 45.0717 124.504 44.9515 124.429 44.8761L114.772 35.123C114.697 35.0475 114.578 35.0475 114.503 35.123C114.428 35.1984 114.428 35.3186 114.503 35.394L124.16 45.1471C124.198 45.1842 124.246 45.2033 124.294 45.2033Z" fill="#383838"/>
<path d="M121.077 48.4574C121.127 48.4574 121.175 48.4382 121.212 48.4011C121.286 48.3257 121.286 48.2055 121.212 48.1301L111.548 38.3847C111.474 38.3093 111.354 38.3093 111.28 38.3847C111.205 38.4601 111.205 38.5803 111.28 38.6557L120.943 48.4011C120.981 48.4382 121.029 48.4574 121.077 48.4574Z" fill="#383838"/>
<path d="M130.607 9.1347L120.943 18.8801C120.868 18.9555 120.868 19.0757 120.943 19.1511C120.979 19.1882 121.027 19.2074 121.077 19.2074C121.126 19.2074 121.174 19.1882 121.211 19.1511L130.876 9.40572C130.95 9.33029 130.95 9.21012 130.876 9.1347C130.801 9.05927 130.682 9.05927 130.607 9.1347Z" fill="#383838"/>
<path d="M114.503 15.6298C114.428 15.7053 114.428 15.8254 114.503 15.9009L124.16 25.6476C124.197 25.6846 124.245 25.7038 124.294 25.7038C124.344 25.7038 124.392 25.6846 124.429 25.6476C124.504 25.5721 124.504 25.452 124.429 25.3765L114.772 15.6298C114.698 15.5557 114.578 15.5557 114.503 15.6298Z" fill="#383838"/>
<path d="M117.727 32.1524C117.764 32.1895 117.812 32.2087 117.861 32.2087C117.911 32.2087 117.959 32.1895 117.996 32.1524C118.07 32.077 118.07 31.9568 117.996 31.8814L108.325 22.1347C108.25 22.0593 108.131 22.0593 108.056 22.1347C107.981 22.2101 107.981 22.3303 108.056 22.4057L117.727 32.1524Z" fill="#383838"/>
<path d="M162.962 45.2033C163.012 45.2033 163.059 45.1842 163.095 45.1471C163.17 45.0717 163.17 44.9515 163.095 44.8761L153.432 35.123C153.357 35.0475 153.238 35.0475 153.163 35.123C153.089 35.1984 153.089 35.3186 153.163 35.394L162.828 45.1471C162.866 45.1842 162.913 45.2033 162.962 45.2033Z" fill="#383838"/>
<path d="M133.837 12.3847L124.16 22.1301C124.085 22.2055 124.085 22.3257 124.16 22.4011C124.197 22.4382 124.245 22.4574 124.295 22.4574C124.344 22.4574 124.392 22.4382 124.429 22.4011L134.106 12.6557C134.181 12.5803 134.181 12.4601 134.106 12.3847C134.031 12.3093 133.912 12.3093 133.837 12.3847Z" fill="#383838"/>
<path d="M159.733 48.4574C159.781 48.4574 159.831 48.4382 159.868 48.4011C159.942 48.3257 159.942 48.2055 159.868 48.1301L150.21 38.3847C150.135 38.3093 150.016 38.3093 149.941 38.3847C149.866 38.4601 149.866 38.5803 149.941 38.6557L159.598 48.4011C159.634 48.4382 159.684 48.4574 159.733 48.4574Z" fill="#383838"/>
<path d="M160.439 51.0005C160.489 51.0005 160.535 50.9814 160.572 50.9443L166.313 45.1479C166.388 45.0725 166.388 44.9523 166.313 44.8769C166.239 44.8015 166.118 44.8015 166.043 44.8769L160.305 50.6733C160.23 50.7487 160.23 50.8689 160.305 50.9443C160.343 50.9814 160.39 51.0005 160.439 51.0005Z" fill="#383838"/>
<path d="M175.857 32.2087C175.906 32.2087 175.953 32.1895 175.99 32.1524C176.065 32.077 176.065 31.9568 175.99 31.8814L166.314 22.1347C166.239 22.0593 166.119 22.0593 166.044 22.1347C165.969 22.2101 165.969 22.3303 166.044 22.4057L175.722 32.1524C175.76 32.1895 175.807 32.2087 175.857 32.2087Z" fill="#383838"/>
<path d="M141.111 51.0005C141.161 51.0005 141.209 50.9814 141.246 50.9443L146.986 45.1479C147.06 45.0725 147.06 44.9523 146.986 44.8769C146.911 44.8015 146.792 44.8015 146.717 44.8769L140.977 50.6733C140.902 50.7487 140.902 50.8689 140.977 50.9443C141.014 50.9814 141.062 51.0005 141.111 51.0005Z" fill="#383838"/>
<path d="M140.405 48.4574C140.454 48.4574 140.502 48.4382 140.539 48.4011C140.614 48.3257 140.614 48.2055 140.539 48.1301L130.876 38.3847C130.801 38.3093 130.682 38.3093 130.607 38.3847C130.533 38.4601 130.533 38.5803 130.607 38.6557L140.27 48.4011C140.309 48.4382 140.357 48.4574 140.405 48.4574Z" fill="#383838"/>
<path d="M121.784 51.0005C121.833 51.0005 121.881 50.9814 121.918 50.9443L127.658 45.1479C127.733 45.0725 127.733 44.9523 127.658 44.8769C127.583 44.8015 127.464 44.8015 127.389 44.8769L121.649 50.6733C121.575 50.7487 121.575 50.8689 121.649 50.9443C121.686 50.9814 121.734 51.0005 121.784 51.0005Z" fill="#383838"/>
<path d="M143.628 45.2033C143.677 45.2033 143.725 45.1842 143.762 45.1471C143.837 45.0717 143.837 44.9515 143.762 44.8761L134.105 35.123C134.031 35.0475 133.911 35.0475 133.837 35.123C133.762 35.1984 133.762 35.3186 133.837 35.394L143.494 45.1471C143.532 45.1842 143.58 45.2033 143.628 45.2033Z" fill="#383838"/>
<path d="M195.185 32.2087C195.233 32.2087 195.282 32.1895 195.319 32.1524C195.394 32.077 195.394 31.9568 195.319 31.8814L185.648 22.1347C185.574 22.0593 185.453 22.0593 185.378 22.1347C185.304 22.2101 185.304 22.3303 185.378 22.4057L195.049 32.1524C195.087 32.1895 195.137 32.2087 195.185 32.2087Z" fill="#383838"/>
<path d="M198.402 28.9587C198.452 28.9587 198.498 28.9395 198.535 28.9024C198.61 28.827 198.61 28.7068 198.535 28.6314L188.872 18.8847C188.797 18.8093 188.677 18.8093 188.602 18.8847C188.527 18.9601 188.527 19.0803 188.602 19.1557L198.268 28.9024C198.306 28.9395 198.353 28.9587 198.402 28.9587Z" fill="#383838"/>
<path d="M192.097 12.3847C192.022 12.3093 191.901 12.3093 191.827 12.3847L182.156 22.1301C182.081 22.2055 182.081 22.3257 182.156 22.4011C182.193 22.4382 182.242 22.4574 182.29 22.4574C182.338 22.4574 182.388 22.4382 182.425 22.4011L192.095 12.6557C192.17 12.5803 192.17 12.4601 192.097 12.3847Z" fill="#383838"/>
<path d="M133.837 15.6298C133.762 15.7053 133.762 15.8254 133.837 15.9009L143.494 25.6476C143.53 25.6846 143.578 25.7038 143.628 25.7038C143.677 25.7038 143.725 25.6846 143.762 25.6476C143.837 25.5721 143.837 25.452 143.762 25.3765L134.105 15.6298C134.032 15.5557 133.911 15.5557 133.837 15.6298Z" fill="#383838"/>
<path d="M179.066 28.9587C179.115 28.9587 179.164 28.9395 179.201 28.9024C179.276 28.827 179.276 28.7068 179.201 28.6314L169.543 18.8847C169.468 18.8093 169.35 18.8093 169.275 18.8847C169.2 18.9601 169.2 19.0803 169.275 19.1557L178.931 28.9024C178.969 28.9395 179.018 28.9587 179.066 28.9587Z" fill="#383838"/>
<path d="M179.067 38.7112C179.115 38.7112 179.165 38.692 179.201 38.6549L188.872 28.9018C188.947 28.8264 188.947 28.7062 188.872 28.6308C188.797 28.5554 188.677 28.5554 188.602 28.6308L178.931 38.3839C178.857 38.4593 178.857 38.5795 178.931 38.6549C178.969 38.692 179.019 38.7112 179.067 38.7112Z" fill="#383838"/>
<path d="M175.857 35.4535C175.906 35.4535 175.953 35.4343 175.99 35.3972L185.648 25.6518C185.723 25.5764 185.723 25.4562 185.648 25.3808C185.573 25.3054 185.453 25.3054 185.378 25.3808L175.722 35.1262C175.648 35.2016 175.648 35.3218 175.722 35.3972C175.76 35.4343 175.807 35.4535 175.857 35.4535Z" fill="#383838"/>
<path d="M182.291 41.9535C182.339 41.9535 182.388 41.9343 182.425 41.8972L192.096 32.1518C192.17 32.0764 192.17 31.9562 192.096 31.8808C192.021 31.8054 191.9 31.8054 191.826 31.8808L182.155 41.6262C182.08 41.7016 182.08 41.8218 182.155 41.8972C182.193 41.9343 182.242 41.9535 182.291 41.9535Z" fill="#383838"/>
<path d="M153.164 15.6298C153.09 15.7053 153.09 15.8254 153.164 15.9009L162.829 25.6476C162.866 25.6846 162.912 25.7038 162.962 25.7038C163.011 25.7038 163.058 25.6846 163.095 25.6476C163.17 25.5721 163.17 25.452 163.095 25.3765L153.432 15.6298C153.36 15.5557 153.239 15.5557 153.164 15.6298Z" fill="#383838"/>
<path d="M153.164 12.3847L143.494 22.1301C143.419 22.2055 143.419 22.3257 143.494 22.4011C143.53 22.4382 143.579 22.4574 143.628 22.4574C143.678 22.4574 143.726 22.4382 143.762 22.4011L153.433 12.6557C153.508 12.5803 153.508 12.4601 153.433 12.3847C153.358 12.3093 153.239 12.3093 153.164 12.3847Z" fill="#383838"/>
<path d="M149.941 9.1347L140.27 18.8801C140.195 18.9555 140.195 19.0757 140.27 19.1511C140.307 19.1882 140.355 19.2074 140.405 19.2074C140.454 19.2074 140.502 19.1882 140.539 19.1511L150.21 9.40572C150.285 9.33029 150.285 9.21012 150.21 9.1347C150.135 9.05927 150.016 9.05927 149.941 9.1347Z" fill="#383838"/>
<path d="M172.492 12.3847L162.829 22.1301C162.754 22.2055 162.754 22.3257 162.829 22.4011C162.866 22.4382 162.913 22.4574 162.962 22.4574C163.012 22.4574 163.059 22.4382 163.095 22.4011L172.761 12.6557C172.836 12.5803 172.836 12.4601 172.761 12.3847C172.686 12.3093 172.567 12.3093 172.492 12.3847Z" fill="#383838"/>
<path d="M172.492 15.6298C172.417 15.7053 172.417 15.8254 172.492 15.9009L182.155 25.6476C182.192 25.6846 182.241 25.7038 182.29 25.7038C182.338 25.7038 182.387 25.6846 182.424 25.6476C182.499 25.5721 182.499 25.452 182.424 25.3765L172.761 15.6298C172.687 15.5557 172.567 15.5557 172.492 15.6298Z" fill="#383838"/>
<path d="M188.603 9.1347L178.932 18.8801C178.858 18.9555 178.858 19.0757 178.932 19.1511C178.969 19.1882 179.019 19.2074 179.067 19.2074C179.115 19.2074 179.164 19.1882 179.201 19.1511L188.872 9.40572C188.947 9.33029 188.947 9.21012 188.872 9.1347C188.797 9.05927 188.678 9.05927 188.603 9.1347Z" fill="#383838"/>
<path d="M169.276 9.1347L159.598 18.8801C159.523 18.9555 159.523 19.0757 159.598 19.1511C159.635 19.1882 159.684 19.2074 159.732 19.2074C159.78 19.2074 159.83 19.1882 159.867 19.1511L169.542 9.40572C169.617 9.33029 169.617 9.21012 169.542 9.1347C169.468 9.05927 169.35 9.05927 169.276 9.1347Z" fill="#383838"/>
<path d="M264.045 2.64251C263.97 2.71793 263.97 2.83811 264.045 2.91353L273.723 12.659C273.76 12.696 273.807 12.7152 273.856 12.7152C273.906 12.7152 273.953 12.696 273.99 12.659C274.064 12.5835 274.064 12.4634 273.99 12.3879L264.314 2.64251C264.24 2.56708 264.12 2.56708 264.045 2.64251Z" fill="#383838"/>
<path d="M282.716 0.0570507L280.156 2.6433C280.081 2.71873 280.081 2.84018 280.156 2.91433C280.193 2.9514 280.242 2.97058 280.29 2.97058C280.338 2.97058 280.388 2.9514 280.425 2.91433L282.983 0.328076C283.057 0.252649 283.057 0.131199 282.983 0.0570507C282.909 -0.0196548 282.789 -0.0183763 282.716 0.0570507Z" fill="#383838"/>
<path d="M267.941 0.0565702C267.867 0.131997 267.867 0.252169 267.941 0.327596L276.932 9.40952C276.968 9.44659 277.018 9.46577 277.066 9.46577C277.114 9.46577 277.164 9.44659 277.2 9.40952C277.275 9.33409 277.275 9.21392 277.2 9.13849L268.208 0.0565702C268.135 -0.0188567 268.016 -0.0188567 267.941 0.0565702Z" fill="#383838"/>
<path d="M274.373 0.0565702C274.298 0.131997 274.298 0.252169 274.373 0.327596L280.155 6.15848C280.191 6.19556 280.241 6.21473 280.289 6.21473C280.337 6.21473 280.387 6.19556 280.423 6.15848C280.498 6.08306 280.498 5.96289 280.423 5.88746L274.642 0.0565702C274.57 -0.0188567 274.448 -0.0188567 274.373 0.0565702Z" fill="#383838"/>
<path d="M254.389 15.9011C254.426 15.9382 254.474 15.9574 254.523 15.9574C254.573 15.9574 254.621 15.9382 254.658 15.9011L264.316 6.15572C264.391 6.0803 264.391 5.96012 264.316 5.8847C264.241 5.80927 264.121 5.80927 264.046 5.8847L254.389 15.6301C254.315 15.7055 254.315 15.8257 254.389 15.9011Z" fill="#383838"/>
<path d="M263.38 0.056732L260.828 2.64298C260.755 2.71841 260.755 2.83986 260.829 2.91401C260.866 2.95108 260.914 2.96898 260.962 2.96898C261.012 2.96898 261.06 2.9498 261.097 2.91273L263.649 0.326477C263.723 0.25105 263.723 0.1296 263.649 0.0554518C263.574 -0.0186968 263.453 -0.018695 263.38 0.056732Z" fill="#383838"/>
<path d="M280.29 45.2033C280.338 45.2033 280.387 45.1842 280.424 45.1471C280.499 45.0717 280.499 44.9515 280.424 44.8761L270.761 35.123C270.686 35.0475 270.566 35.0475 270.491 35.123C270.416 35.1984 270.416 35.3186 270.491 35.394L280.154 45.1471C280.192 45.1842 280.242 45.2033 280.29 45.2033Z" fill="#383838"/>
<path d="M244.717 2.64251C244.642 2.71793 244.642 2.83811 244.717 2.91353L254.388 12.659C254.425 12.696 254.473 12.7152 254.522 12.7152C254.572 12.7152 254.62 12.696 254.657 12.659C254.732 12.5835 254.732 12.4634 254.657 12.3879L244.986 2.64251C244.913 2.56708 244.792 2.56708 244.717 2.64251Z" fill="#383838"/>
<path d="M248.607 0.0565702C248.532 0.131997 248.532 0.252169 248.607 0.327596L257.597 9.40952C257.634 9.44659 257.683 9.46577 257.731 9.46577C257.78 9.46577 257.829 9.44659 257.866 9.40952C257.941 9.33409 257.941 9.21392 257.866 9.13849L248.874 0.0565702C248.801 -0.0188567 248.681 -0.0188567 248.607 0.0565702Z" fill="#383838"/>
<path d="M255.047 0.0565702C254.973 0.131997 254.973 0.252169 255.047 0.327596L260.829 6.15848C260.866 6.19556 260.913 6.21473 260.962 6.21473C261.012 6.21473 261.058 6.19556 261.095 6.15848C261.17 6.08306 261.17 5.96289 261.095 5.88746L255.314 0.0565702C255.241 -0.0188567 255.122 -0.0188567 255.047 0.0565702Z" fill="#383838"/>
<path d="M306.199 28.6308C306.125 28.5554 306.007 28.5554 305.932 28.6308L296.269 38.3839C296.194 38.4593 296.194 38.5795 296.269 38.6549C296.306 38.692 296.352 38.7112 296.402 38.7112C296.451 38.7112 296.498 38.692 296.535 38.6549L306.198 28.9018C306.273 28.8264 306.273 28.7062 306.199 28.6308Z" fill="#383838"/>
<path d="M290.096 15.6308C290.022 15.5554 289.901 15.5554 289.826 15.6308C289.752 15.7062 289.752 15.8264 289.826 15.9018L299.485 25.6485C299.521 25.6856 299.568 25.7048 299.618 25.7048C299.667 25.7048 299.714 25.6856 299.751 25.6485C299.826 25.5731 299.826 25.4529 299.751 25.3775L290.096 15.6308Z" fill="#383838"/>
<path d="M302.716 25.3803L293.05 35.1257C292.975 35.2012 292.975 35.3213 293.05 35.3968C293.087 35.4338 293.136 35.453 293.184 35.453C293.233 35.453 293.282 35.4338 293.319 35.3968L302.982 25.6513C303.057 25.5759 303.057 25.4557 302.982 25.3803C302.907 25.3049 302.789 25.3062 302.716 25.3803Z" fill="#383838"/>
<path d="M235.054 15.9011C235.091 15.9382 235.139 15.9574 235.189 15.9574C235.238 15.9574 235.286 15.9382 235.323 15.9011L244.986 6.15572C245.061 6.0803 245.061 5.96012 244.986 5.8847C244.912 5.80927 244.792 5.80927 244.718 5.8847L235.054 15.6301C234.981 15.7055 234.981 15.8257 235.054 15.9011Z" fill="#383838"/>
<path d="M277.774 51.0005C277.823 51.0005 277.87 50.9814 277.907 50.9443L283.648 45.1479C283.723 45.0725 283.723 44.9523 283.648 44.8769C283.573 44.8015 283.453 44.8015 283.378 44.8769L277.639 50.6733C277.564 50.7487 277.564 50.8689 277.639 50.9443C277.677 50.9814 277.724 51.0005 277.774 51.0005Z" fill="#383838"/>
<path d="M296.402 48.4574C296.452 48.4574 296.498 48.4382 296.535 48.4011C296.61 48.3257 296.61 48.2055 296.535 48.1301L286.872 38.3847C286.797 38.3093 286.677 38.3093 286.602 38.3847C286.527 38.4601 286.527 38.5803 286.602 38.6557L296.268 48.4011C296.306 48.4382 296.353 48.4574 296.402 48.4574Z" fill="#383838"/>
<path d="M302.716 5.8847L293.05 15.6301C292.975 15.7055 292.975 15.8257 293.05 15.9011C293.087 15.9382 293.136 15.9574 293.184 15.9574C293.233 15.9574 293.282 15.9382 293.319 15.9011L302.982 6.15572C303.057 6.0803 303.057 5.96012 302.982 5.8847C302.907 5.80927 302.789 5.80927 302.716 5.8847Z" fill="#383838"/>
<path d="M287.267 0.0565702C287.192 0.131997 287.192 0.252169 287.267 0.327596L296.267 9.40952C296.304 9.44659 296.351 9.46577 296.401 9.46577C296.45 9.46577 296.497 9.44659 296.534 9.40952C296.608 9.33409 296.608 9.21392 296.534 9.13849L287.536 0.0565702C287.464 -0.0188567 287.342 -0.0188567 287.267 0.0565702Z" fill="#383838"/>
<path d="M293.703 0.0565702C293.628 0.131997 293.628 0.252169 293.703 0.327596L299.484 6.15848C299.521 6.19556 299.568 6.21473 299.617 6.21473C299.667 6.21473 299.714 6.19556 299.751 6.15848C299.825 6.08306 299.825 5.96289 299.751 5.88746L293.969 0.0565702C293.897 -0.0188567 293.777 -0.0188567 293.703 0.0565702Z" fill="#383838"/>
<path d="M306.199 9.1347C306.125 9.05927 306.007 9.05927 305.932 9.1347L296.269 18.8801C296.194 18.9555 296.194 19.0757 296.269 19.1511C296.306 19.1882 296.352 19.2074 296.402 19.2074C296.451 19.2074 296.498 19.1882 296.535 19.1511L306.198 9.40572C306.273 9.33029 306.273 9.21012 306.199 9.1347Z" fill="#383838"/>
<path d="M283.379 2.64251C283.305 2.71793 283.305 2.83811 283.379 2.91353L293.05 12.659C293.087 12.696 293.136 12.7152 293.185 12.7152C293.233 12.7152 293.282 12.696 293.319 12.659C293.394 12.5835 293.394 12.4634 293.319 12.3879L283.648 2.64251C283.575 2.56708 283.454 2.56708 283.379 2.64251Z" fill="#383838"/>
<path d="M302.049 0.0565702L299.484 2.64282C299.41 2.71825 299.41 2.83842 299.484 2.91385C299.521 2.95092 299.568 2.9701 299.618 2.9701C299.667 2.9701 299.714 2.95092 299.751 2.91385L302.315 0.327596C302.39 0.252169 302.39 0.131997 302.315 0.0565702C302.24 -0.0188567 302.124 -0.0188567 302.049 0.0565702Z" fill="#383838"/>
<path d="M273.723 15.9011C273.76 15.9382 273.807 15.9574 273.857 15.9574C273.906 15.9574 273.953 15.9382 273.99 15.9011L283.648 6.15572C283.723 6.0803 283.723 5.96012 283.648 5.8847C283.573 5.80927 283.453 5.80927 283.378 5.8847L273.722 15.6301C273.649 15.7055 273.649 15.8257 273.723 15.9011Z" fill="#383838"/>
<path d="M309.43 31.8808C309.356 31.8054 309.238 31.8054 309.163 31.8808L299.484 41.6262C299.41 41.7016 299.41 41.8218 299.484 41.8972C299.521 41.9343 299.568 41.9535 299.618 41.9535C299.667 41.9535 299.714 41.9343 299.751 41.8972L309.429 32.1518C309.504 32.0777 309.504 31.9562 309.43 31.8808Z" fill="#383838"/>
<path d="M303.69 50.9432L306.198 48.3979C306.272 48.3212 306.272 48.2023 306.197 48.1269C306.122 48.0515 306.003 48.0515 305.928 48.1269L303.42 50.6722C303.345 50.7489 303.345 50.8678 303.42 50.9432C303.457 50.9803 303.506 50.9995 303.554 50.9995C303.602 50.9995 303.653 50.9803 303.69 50.9432Z" fill="#383838"/>
<path d="M244.051 0.056732L241.493 2.64298C241.419 2.71841 241.419 2.83986 241.493 2.91401C241.53 2.95108 241.579 2.96898 241.627 2.96898C241.677 2.96898 241.725 2.9498 241.762 2.91273L244.32 0.326477C244.393 0.25105 244.393 0.1296 244.32 0.0554518C244.245 -0.0186968 244.124 -0.018695 244.051 0.056732Z" fill="#383838"/>
<path d="M309.43 12.3847C309.356 12.3093 309.238 12.3093 309.163 12.3847L299.484 22.1301C299.41 22.2043 299.41 22.3257 299.484 22.4011C299.521 22.4382 299.568 22.4574 299.618 22.4574C299.667 22.4574 299.714 22.4382 299.751 22.4011L309.429 12.6557C309.504 12.5816 309.504 12.4601 309.43 12.3847Z" fill="#383838"/>
<path d="M216.377 0.0565702C216.303 0.131997 216.303 0.252169 216.377 0.327596L222.16 6.15848C222.197 6.19556 222.245 6.21473 222.295 6.21473C222.344 6.21473 222.392 6.19556 222.429 6.15848C222.504 6.08306 222.504 5.96289 222.429 5.88746L216.646 0.0565702C216.571 -0.0188567 216.452 -0.0188567 216.377 0.0565702Z" fill="#383838"/>
<path d="M215.727 15.9011C215.763 15.9382 215.812 15.9574 215.861 15.9574C215.911 15.9574 215.959 15.9382 215.995 15.9011L225.659 6.15572C225.733 6.0803 225.733 5.96012 225.659 5.8847C225.584 5.80927 225.465 5.80927 225.39 5.8847L215.727 15.6301C215.653 15.7055 215.653 15.8257 215.727 15.9011Z" fill="#383838"/>
<path d="M225.39 2.64251C225.315 2.71793 225.315 2.83811 225.39 2.91353L235.054 12.659C235.091 12.696 235.139 12.7152 235.188 12.7152C235.238 12.7152 235.286 12.696 235.323 12.659C235.398 12.5835 235.398 12.4634 235.323 12.3879L225.658 2.64251C225.585 2.56708 225.464 2.56708 225.39 2.64251Z" fill="#383838"/>
<path d="M229.272 0.0565702C229.197 0.131997 229.197 0.252169 229.272 0.327596L238.271 9.40952C238.307 9.44659 238.355 9.46577 238.405 9.46577C238.454 9.46577 238.503 9.44659 238.539 9.40952C238.614 9.33409 238.614 9.21392 238.539 9.13849L229.54 0.0565702C229.466 -0.0188567 229.345 -0.0188567 229.272 0.0565702Z" fill="#383838"/>
<path d="M224.726 0.0565702L222.161 2.64282C222.086 2.71825 222.086 2.83842 222.161 2.91385C222.198 2.95092 222.246 2.9701 222.296 2.9701C222.345 2.9701 222.393 2.95092 222.43 2.91385L224.994 0.327596C225.069 0.252169 225.069 0.131997 224.994 0.0565702C224.92 -0.0188567 224.8 -0.0188567 224.726 0.0565702Z" fill="#383838"/>
<path d="M209.944 0.0565702C209.869 0.131997 209.869 0.252169 209.944 0.327596L218.943 9.40952C218.98 9.44659 219.028 9.46577 219.077 9.46577C219.127 9.46577 219.175 9.44659 219.212 9.40952C219.286 9.33409 219.286 9.21392 219.212 9.13849L210.213 0.0565702C210.138 -0.0188567 210.017 -0.0188567 209.944 0.0565702Z" fill="#383838"/>
<path d="M206.056 2.64251C205.981 2.71793 205.981 2.83811 206.056 2.91353L215.727 12.659C215.764 12.696 215.812 12.7152 215.861 12.7152C215.911 12.7152 215.959 12.696 215.996 12.659C216.07 12.5835 216.07 12.4634 215.996 12.3879L206.325 2.64251C206.251 2.56708 206.131 2.56708 206.056 2.64251Z" fill="#383838"/>
<path d="M235.713 0.0565702C235.638 0.131997 235.638 0.252169 235.713 0.327596L241.495 6.15848C241.531 6.19556 241.579 6.21473 241.629 6.21473C241.678 6.21473 241.726 6.19556 241.763 6.15848C241.838 6.08306 241.838 5.96289 241.763 5.88746L235.982 0.0565702C235.907 -0.0188567 235.786 -0.0188567 235.713 0.0565702Z" fill="#383838"/>
<path d="M219.077 38.7112C219.126 38.7112 219.174 38.692 219.211 38.6549L228.876 28.9018C228.95 28.8264 228.95 28.7062 228.876 28.6308C228.801 28.5554 228.682 28.5554 228.607 28.6308L218.943 38.3839C218.868 38.4593 218.868 38.5795 218.943 38.6549C218.981 38.692 219.029 38.7112 219.077 38.7112Z" fill="#383838"/>
<path d="M235.189 35.4535C235.238 35.4535 235.286 35.4343 235.323 35.3972L244.986 25.6518C245.061 25.5764 245.061 25.4562 244.986 25.3808C244.912 25.3054 244.792 25.3054 244.718 25.3808L235.054 35.1262C234.98 35.2016 234.98 35.3218 235.054 35.3972C235.092 35.4343 235.141 35.4535 235.189 35.4535Z" fill="#383838"/>
<path d="M238.405 28.9587C238.454 28.9587 238.502 28.9395 238.539 28.9024C238.614 28.827 238.614 28.7068 238.539 28.6314L228.876 18.8847C228.801 18.8093 228.682 18.8093 228.607 18.8847C228.533 18.9601 228.533 19.0803 228.607 19.1557L238.27 28.9024C238.309 28.9395 238.357 28.9587 238.405 28.9587Z" fill="#383838"/>
<path d="M235.188 32.2087C235.238 32.2087 235.286 32.1895 235.323 32.1524C235.398 32.077 235.398 31.9568 235.323 31.8814L225.658 22.1347C225.584 22.0593 225.464 22.0593 225.39 22.1347C225.315 22.2101 225.315 22.3303 225.39 22.4057L235.054 32.1524C235.092 32.1895 235.14 32.2087 235.188 32.2087Z" fill="#383838"/>
<path d="M215.727 35.3972C215.763 35.4343 215.812 35.4535 215.861 35.4535C215.911 35.4535 215.959 35.4343 215.995 35.3972L225.659 25.6518C225.733 25.5764 225.733 25.4562 225.659 25.3808C225.584 25.3054 225.465 25.3054 225.39 25.3808L215.727 35.1262C215.653 35.2016 215.653 35.3231 215.727 35.3972Z" fill="#383838"/>
<path d="M260.963 41.9535C261.012 41.9535 261.059 41.9343 261.096 41.8972L270.761 32.1518C270.836 32.0764 270.836 31.9562 270.761 31.8808C270.687 31.8054 270.566 31.8054 270.491 31.8808L260.828 41.6262C260.753 41.7016 260.753 41.8218 260.828 41.8972C260.866 41.9343 260.913 41.9535 260.963 41.9535Z" fill="#383838"/>
<path d="M222.295 41.9535C222.344 41.9535 222.392 41.9343 222.429 41.8972L232.106 32.1518C232.181 32.0764 232.181 31.9562 232.106 31.8808C232.031 31.8054 231.912 31.8054 231.837 31.8808L222.16 41.6262C222.085 41.7016 222.085 41.8218 222.16 41.8972C222.198 41.9343 222.246 41.9535 222.295 41.9535Z" fill="#383838"/>
<path d="M257.733 38.7112C257.782 38.7112 257.831 38.692 257.868 38.6549L267.544 28.9018C267.618 28.8264 267.618 28.7062 267.544 28.6308C267.469 28.5554 267.351 28.5554 267.276 28.6308L257.598 38.3839C257.523 38.4593 257.523 38.5795 257.598 38.6549C257.635 38.692 257.684 38.7112 257.733 38.7112Z" fill="#383838"/>
<path d="M254.522 35.4535C254.572 35.4535 254.62 35.4343 254.657 35.3972L264.315 25.6518C264.39 25.5764 264.39 25.4562 264.315 25.3808C264.24 25.3054 264.12 25.3054 264.045 25.3808L254.388 35.1262C254.313 35.2016 254.313 35.3218 254.388 35.3972C254.426 35.4343 254.474 35.4535 254.522 35.4535Z" fill="#383838"/>
<path d="M238.405 38.7112C238.454 38.7112 238.502 38.692 238.539 38.6549L248.21 28.9018C248.285 28.8264 248.285 28.7062 248.21 28.6308C248.135 28.5554 248.016 28.5554 247.941 28.6308L238.27 38.3839C238.195 38.4593 238.195 38.5795 238.27 38.6549C238.308 38.692 238.356 38.7112 238.405 38.7112Z" fill="#383838"/>
<path d="M241.628 41.9535C241.678 41.9535 241.726 41.9343 241.762 41.8972L251.433 32.1518C251.508 32.0764 251.508 31.9562 251.433 31.8808C251.358 31.8054 251.239 31.8054 251.164 31.8808L241.494 41.6262C241.419 41.7016 241.419 41.8218 241.494 41.8972C241.532 41.9343 241.58 41.9535 241.628 41.9535Z" fill="#383838"/>
<path d="M254.522 32.2087C254.572 32.2087 254.62 32.1895 254.657 32.1524C254.732 32.077 254.732 31.9568 254.657 31.8814L244.986 22.1347C244.911 22.0593 244.792 22.0593 244.717 22.1347C244.642 22.2101 244.642 22.3303 244.717 22.4057L254.388 32.1524C254.426 32.1895 254.474 32.2087 254.522 32.2087Z" fill="#383838"/>
<path d="M257.733 28.9587C257.781 28.9587 257.831 28.9395 257.868 28.9024C257.942 28.827 257.942 28.7068 257.868 28.6314L248.21 18.8847C248.135 18.8093 248.016 18.8093 247.941 18.8847C247.866 18.9601 247.866 19.0803 247.941 19.1557L257.598 28.9024C257.634 28.9395 257.684 28.9587 257.733 28.9587Z" fill="#383838"/>
<path d="M219.212 28.6314L209.548 18.8847C209.474 18.8093 209.354 18.8093 209.28 18.8847C209.205 18.9601 209.205 19.0803 209.28 19.1557L218.943 28.9024C218.98 28.9395 219.028 28.9587 219.077 28.9587C219.127 28.9587 219.175 28.9395 219.212 28.9024C219.286 28.827 219.286 28.7068 219.212 28.6314Z" fill="#383838"/>
<path d="M286.602 48.1269L284.086 50.6722C284.013 50.7476 284.013 50.8678 284.087 50.9432C284.124 50.9803 284.172 50.9995 284.22 50.9995C284.27 50.9995 284.318 50.9803 284.355 50.9432L286.871 48.3979C286.946 48.3225 286.946 48.2023 286.871 48.1269C286.796 48.0515 286.677 48.0515 286.602 48.1269Z" fill="#383838"/>
<path d="M296.974 50.9443C297.011 50.9814 297.06 51.0005 297.108 51.0005C297.156 51.0005 297.206 50.9814 297.243 50.9443L302.981 45.1479C303.056 45.0725 303.056 44.9523 302.981 44.8769C302.906 44.8015 302.788 44.8015 302.714 44.8769L296.973 50.6733C296.899 50.7487 296.899 50.8701 296.974 50.9443Z" fill="#383838"/>
<path d="M290.096 35.123C290.022 35.0475 289.901 35.0475 289.826 35.123C289.752 35.1984 289.752 35.3186 289.826 35.394L299.485 45.1471C299.521 45.1842 299.568 45.2033 299.618 45.2033C299.667 45.2033 299.714 45.1842 299.751 45.1471C299.826 45.0717 299.826 44.9515 299.751 44.8761L290.096 35.123Z" fill="#383838"/>
<path d="M292.478 51.0016C292.528 51.0016 292.575 50.9824 292.612 50.9453C292.686 50.8699 292.686 50.7497 292.612 50.6743L283.649 41.6269C283.575 41.5515 283.454 41.5515 283.379 41.6269C283.305 41.7023 283.305 41.8225 283.379 41.8979L292.344 50.9453C292.382 50.9824 292.429 51.0016 292.478 51.0016Z" fill="#383838"/>
<path d="M228.607 48.1269L226.097 50.6722C226.024 50.7489 226.024 50.8678 226.097 50.9432C226.134 50.9803 226.184 50.9995 226.232 50.9995C226.281 50.9995 226.329 50.9803 226.366 50.9432L228.876 48.3979C228.95 48.3212 228.95 48.2023 228.876 48.1269C228.801 48.0515 228.681 48.0515 228.607 48.1269Z" fill="#383838"/>
<path d="M215.155 51.0016C215.204 51.0016 215.252 50.9824 215.289 50.9453C215.364 50.8699 215.364 50.7497 215.289 50.6743L206.326 41.6269C206.251 41.5515 206.132 41.5515 206.057 41.6269C205.982 41.7023 205.982 41.8225 206.057 41.8979L215.021 50.9453C215.057 50.9824 215.105 51.0016 215.155 51.0016Z" fill="#383838"/>
<path d="M234.482 51.0016C234.531 51.0016 234.579 50.9824 234.616 50.9453C234.691 50.8699 234.691 50.7497 234.616 50.6743L225.66 41.6269C225.585 41.5515 225.466 41.5515 225.392 41.6269C225.317 41.7023 225.317 41.8225 225.392 41.8979L234.347 50.9453C234.384 50.9824 234.432 51.0016 234.482 51.0016Z" fill="#383838"/>
<path d="M273.15 51.0016C273.199 51.0016 273.248 50.9824 273.285 50.9453C273.36 50.8699 273.36 50.7497 273.285 50.6743L264.315 41.6269C264.24 41.5515 264.12 41.5515 264.045 41.6269C263.97 41.7023 263.97 41.8225 264.045 41.8979L273.015 50.9453C273.051 50.9824 273.102 51.0016 273.15 51.0016Z" fill="#383838"/>
<path d="M267.276 48.1269L264.754 50.6722C264.679 50.7476 264.679 50.8678 264.754 50.9432C264.79 50.9803 264.837 50.9995 264.887 50.9995C264.936 50.9995 264.983 50.9803 265.02 50.9432L267.543 48.3979C267.617 48.3225 267.617 48.2023 267.543 48.1269C267.468 48.0515 267.35 48.0515 267.276 48.1269Z" fill="#383838"/>
<path d="M277.066 48.4574C277.115 48.4574 277.164 48.4382 277.201 48.4011C277.276 48.3257 277.276 48.2055 277.201 48.1301L267.543 38.3847C267.468 38.3093 267.35 38.3093 267.275 38.3847C267.2 38.4601 267.2 38.5803 267.275 38.6557L276.931 48.4011C276.969 48.4382 277.018 48.4574 277.066 48.4574Z" fill="#383838"/>
<path d="M247.941 48.1269L245.425 50.6722C245.352 50.7476 245.352 50.8678 245.425 50.9432C245.462 50.9803 245.511 50.9995 245.56 50.9995C245.609 50.9995 245.657 50.9803 245.694 50.9432L248.21 48.3979C248.284 48.3225 248.284 48.2023 248.21 48.1269C248.135 48.0515 248.015 48.0515 247.941 48.1269Z" fill="#383838"/>
<path d="M253.817 51.0016C253.866 51.0016 253.915 50.9824 253.951 50.9453C254.026 50.8699 254.026 50.7497 253.951 50.6743L244.988 41.6269C244.913 41.5515 244.794 41.5515 244.719 41.6269C244.644 41.7023 244.644 41.8225 244.719 41.8979L253.683 50.9453C253.719 50.9824 253.768 51.0016 253.817 51.0016Z" fill="#383838"/>
<path d="M222.294 45.2033C222.344 45.2033 222.392 45.1842 222.429 45.1471C222.504 45.0717 222.504 44.9515 222.429 44.8761L212.772 35.123C212.697 35.0475 212.578 35.0475 212.503 35.123C212.428 35.1984 212.428 35.3186 212.503 35.394L222.16 45.1471C222.198 45.1842 222.246 45.2033 222.294 45.2033Z" fill="#383838"/>
<path d="M219.077 48.4574C219.127 48.4574 219.175 48.4382 219.212 48.4011C219.286 48.3257 219.286 48.2055 219.212 48.1301L209.548 38.3847C209.474 38.3093 209.354 38.3093 209.28 38.3847C209.205 38.4601 209.205 38.5803 209.28 38.6557L218.943 48.4011C218.981 48.4382 219.029 48.4574 219.077 48.4574Z" fill="#383838"/>
<path d="M228.607 9.1347L218.943 18.8801C218.868 18.9555 218.868 19.0757 218.943 19.1511C218.979 19.1882 219.027 19.2074 219.077 19.2074C219.126 19.2074 219.174 19.1882 219.211 19.1511L228.876 9.40572C228.95 9.33029 228.95 9.21012 228.876 9.1347C228.801 9.05927 228.682 9.05927 228.607 9.1347Z" fill="#383838"/>
<path d="M212.503 15.6298C212.428 15.7053 212.428 15.8254 212.503 15.9009L222.16 25.6476C222.197 25.6846 222.245 25.7038 222.294 25.7038C222.344 25.7038 222.392 25.6846 222.429 25.6476C222.504 25.5721 222.504 25.452 222.429 25.3765L212.772 15.6298C212.698 15.5557 212.578 15.5557 212.503 15.6298Z" fill="#383838"/>
<path d="M215.727 32.1524C215.764 32.1895 215.812 32.2087 215.861 32.2087C215.911 32.2087 215.959 32.1895 215.996 32.1524C216.07 32.077 216.07 31.9568 215.996 31.8814L206.325 22.1347C206.25 22.0593 206.131 22.0593 206.056 22.1347C205.981 22.2101 205.981 22.3303 206.056 22.4057L215.727 32.1524Z" fill="#383838"/>
<path d="M260.962 45.2033C261.012 45.2033 261.059 45.1842 261.095 45.1471C261.17 45.0717 261.17 44.9515 261.095 44.8761L251.432 35.123C251.357 35.0475 251.238 35.0475 251.163 35.123C251.089 35.1984 251.089 35.3186 251.163 35.394L260.828 45.1471C260.866 45.1842 260.913 45.2033 260.962 45.2033Z" fill="#383838"/>
<path d="M231.837 12.3847L222.16 22.1301C222.085 22.2055 222.085 22.3257 222.16 22.4011C222.197 22.4382 222.245 22.4574 222.295 22.4574C222.344 22.4574 222.392 22.4382 222.429 22.4011L232.106 12.6557C232.181 12.5803 232.181 12.4601 232.106 12.3847C232.031 12.3093 231.912 12.3093 231.837 12.3847Z" fill="#383838"/>
<path d="M257.733 48.4574C257.781 48.4574 257.831 48.4382 257.868 48.4011C257.942 48.3257 257.942 48.2055 257.868 48.1301L248.21 38.3847C248.135 38.3093 248.016 38.3093 247.941 38.3847C247.866 38.4601 247.866 38.5803 247.941 38.6557L257.598 48.4011C257.634 48.4382 257.684 48.4574 257.733 48.4574Z" fill="#383838"/>
<path d="M258.439 51.0005C258.489 51.0005 258.535 50.9814 258.572 50.9443L264.313 45.1479C264.388 45.0725 264.388 44.9523 264.313 44.8769C264.239 44.8015 264.118 44.8015 264.043 44.8769L258.305 50.6733C258.23 50.7487 258.23 50.8689 258.305 50.9443C258.343 50.9814 258.39 51.0005 258.439 51.0005Z" fill="#383838"/>
<path d="M273.857 32.2087C273.906 32.2087 273.953 32.1895 273.99 32.1524C274.065 32.077 274.065 31.9568 273.99 31.8814L264.314 22.1347C264.239 22.0593 264.119 22.0593 264.044 22.1347C263.969 22.2101 263.969 22.3303 264.044 22.4057L273.722 32.1524C273.76 32.1895 273.807 32.2087 273.857 32.2087Z" fill="#383838"/>
<path d="M239.111 51.0005C239.161 51.0005 239.209 50.9814 239.246 50.9443L244.986 45.1479C245.06 45.0725 245.06 44.9523 244.986 44.8769C244.911 44.8015 244.792 44.8015 244.717 44.8769L238.977 50.6733C238.902 50.7487 238.902 50.8689 238.977 50.9443C239.014 50.9814 239.062 51.0005 239.111 51.0005Z" fill="#383838"/>
<path d="M238.405 48.4574C238.454 48.4574 238.502 48.4382 238.539 48.4011C238.614 48.3257 238.614 48.2055 238.539 48.1301L228.876 38.3847C228.801 38.3093 228.682 38.3093 228.607 38.3847C228.533 38.4601 228.533 38.5803 228.607 38.6557L238.27 48.4011C238.309 48.4382 238.357 48.4574 238.405 48.4574Z" fill="#383838"/>
<path d="M219.784 51.0005C219.833 51.0005 219.881 50.9814 219.918 50.9443L225.658 45.1479C225.733 45.0725 225.733 44.9523 225.658 44.8769C225.583 44.8015 225.464 44.8015 225.389 44.8769L219.649 50.6733C219.575 50.7487 219.575 50.8689 219.649 50.9443C219.686 50.9814 219.734 51.0005 219.784 51.0005Z" fill="#383838"/>
<path d="M241.628 45.2033C241.677 45.2033 241.725 45.1842 241.762 45.1471C241.837 45.0717 241.837 44.9515 241.762 44.8761L232.105 35.123C232.031 35.0475 231.911 35.0475 231.837 35.123C231.762 35.1984 231.762 35.3186 231.837 35.394L241.494 45.1471C241.532 45.1842 241.58 45.2033 241.628 45.2033Z" fill="#383838"/>
<path d="M293.185 32.2087C293.233 32.2087 293.282 32.1895 293.319 32.1524C293.394 32.077 293.394 31.9568 293.319 31.8814L283.648 22.1347C283.574 22.0593 283.453 22.0593 283.378 22.1347C283.304 22.2101 283.304 22.3303 283.378 22.4057L293.049 32.1524C293.087 32.1895 293.137 32.2087 293.185 32.2087Z" fill="#383838"/>
<path d="M296.402 28.9587C296.452 28.9587 296.498 28.9395 296.535 28.9024C296.61 28.827 296.61 28.7068 296.535 28.6314L286.872 18.8847C286.797 18.8093 286.677 18.8093 286.602 18.8847C286.527 18.9601 286.527 19.0803 286.602 19.1557L296.268 28.9024C296.306 28.9395 296.353 28.9587 296.402 28.9587Z" fill="#383838"/>
<path d="M290.097 12.3847C290.022 12.3093 289.901 12.3093 289.827 12.3847L280.156 22.1301C280.081 22.2055 280.081 22.3257 280.156 22.4011C280.193 22.4382 280.242 22.4574 280.29 22.4574C280.338 22.4574 280.388 22.4382 280.425 22.4011L290.095 12.6557C290.17 12.5803 290.17 12.4601 290.097 12.3847Z" fill="#383838"/>
<path d="M231.837 15.6298C231.762 15.7053 231.762 15.8254 231.837 15.9009L241.494 25.6476C241.53 25.6846 241.578 25.7038 241.628 25.7038C241.677 25.7038 241.725 25.6846 241.762 25.6476C241.837 25.5721 241.837 25.452 241.762 25.3765L232.105 15.6298C232.032 15.5557 231.911 15.5557 231.837 15.6298Z" fill="#383838"/>
<path d="M277.066 28.9587C277.115 28.9587 277.164 28.9395 277.201 28.9024C277.276 28.827 277.276 28.7068 277.201 28.6314L267.543 18.8847C267.468 18.8093 267.35 18.8093 267.275 18.8847C267.2 18.9601 267.2 19.0803 267.275 19.1557L276.931 28.9024C276.969 28.9395 277.018 28.9587 277.066 28.9587Z" fill="#383838"/>
<path d="M277.067 38.7112C277.115 38.7112 277.165 38.692 277.201 38.6549L286.872 28.9018C286.947 28.8264 286.947 28.7062 286.872 28.6308C286.797 28.5554 286.677 28.5554 286.602 28.6308L276.931 38.3839C276.857 38.4593 276.857 38.5795 276.931 38.6549C276.969 38.692 277.019 38.7112 277.067 38.7112Z" fill="#383838"/>
<path d="M273.857 35.4535C273.906 35.4535 273.953 35.4343 273.99 35.3972L283.648 25.6518C283.723 25.5764 283.723 25.4562 283.648 25.3808C283.573 25.3054 283.453 25.3054 283.378 25.3808L273.722 35.1262C273.648 35.2016 273.648 35.3218 273.722 35.3972C273.76 35.4343 273.807 35.4535 273.857 35.4535Z" fill="#383838"/>
<path d="M280.291 41.9535C280.339 41.9535 280.388 41.9343 280.425 41.8972L290.096 32.1518C290.17 32.0764 290.17 31.9562 290.096 31.8808C290.021 31.8054 289.9 31.8054 289.826 31.8808L280.155 41.6262C280.08 41.7016 280.08 41.8218 280.155 41.8972C280.193 41.9343 280.242 41.9535 280.291 41.9535Z" fill="#383838"/>
<path d="M251.164 15.6298C251.09 15.7053 251.09 15.8254 251.164 15.9009L260.829 25.6476C260.866 25.6846 260.912 25.7038 260.962 25.7038C261.011 25.7038 261.058 25.6846 261.095 25.6476C261.17 25.5721 261.17 25.452 261.095 25.3765L251.432 15.6298C251.36 15.5557 251.239 15.5557 251.164 15.6298Z" fill="#383838"/>
<path d="M251.164 12.3847L241.494 22.1301C241.419 22.2055 241.419 22.3257 241.494 22.4011C241.53 22.4382 241.579 22.4574 241.628 22.4574C241.678 22.4574 241.726 22.4382 241.762 22.4011L251.433 12.6557C251.508 12.5803 251.508 12.4601 251.433 12.3847C251.358 12.3093 251.239 12.3093 251.164 12.3847Z" fill="#383838"/>
<path d="M247.941 9.1347L238.27 18.8801C238.195 18.9555 238.195 19.0757 238.27 19.1511C238.307 19.1882 238.355 19.2074 238.405 19.2074C238.454 19.2074 238.502 19.1882 238.539 19.1511L248.21 9.40572C248.285 9.33029 248.285 9.21012 248.21 9.1347C248.135 9.05927 248.016 9.05927 247.941 9.1347Z" fill="#383838"/>
<path d="M270.492 12.3847L260.829 22.1301C260.754 22.2055 260.754 22.3257 260.829 22.4011C260.866 22.4382 260.913 22.4574 260.962 22.4574C261.012 22.4574 261.059 22.4382 261.095 22.4011L270.761 12.6557C270.836 12.5803 270.836 12.4601 270.761 12.3847C270.686 12.3093 270.567 12.3093 270.492 12.3847Z" fill="#383838"/>
<path d="M270.492 15.6298C270.417 15.7053 270.417 15.8254 270.492 15.9009L280.155 25.6476C280.192 25.6846 280.241 25.7038 280.29 25.7038C280.338 25.7038 280.387 25.6846 280.424 25.6476C280.499 25.5721 280.499 25.452 280.424 25.3765L270.761 15.6298C270.687 15.5557 270.567 15.5557 270.492 15.6298Z" fill="#383838"/>
<path d="M286.603 9.1347L276.932 18.8801C276.858 18.9555 276.858 19.0757 276.932 19.1511C276.969 19.1882 277.019 19.2074 277.067 19.2074C277.115 19.2074 277.164 19.1882 277.201 19.1511L286.872 9.40572C286.947 9.33029 286.947 9.21012 286.872 9.1347C286.797 9.05927 286.678 9.05927 286.603 9.1347Z" fill="#383838"/>
<path d="M267.276 9.1347L257.598 18.8801C257.523 18.9555 257.523 19.0757 257.598 19.1511C257.635 19.1882 257.684 19.2074 257.732 19.2074C257.78 19.2074 257.83 19.1882 257.867 19.1511L267.542 9.40572C267.617 9.33029 267.617 9.21012 267.542 9.1347C267.468 9.05927 267.35 9.05927 267.276 9.1347Z" fill="#383838"/>
<path d="M314.377 0.0565702C314.303 0.131997 314.303 0.252169 314.377 0.327596L320.16 6.15848C320.197 6.19556 320.245 6.21473 320.295 6.21473C320.344 6.21473 320.392 6.19556 320.429 6.15848C320.504 6.08306 320.504 5.96289 320.429 5.88746L314.646 0.0565702C314.571 -0.0188567 314.452 -0.0188567 314.377 0.0565702Z" fill="#383838"/>
<path d="M313.727 15.9011C313.763 15.9382 313.812 15.9574 313.861 15.9574C313.911 15.9574 313.959 15.9382 313.995 15.9011L323.659 6.15572C323.733 6.0803 323.733 5.96012 323.659 5.8847C323.584 5.80927 323.465 5.80927 323.39 5.8847L313.727 15.6301C313.653 15.7055 313.653 15.8257 313.727 15.9011Z" fill="#383838"/>
<path d="M323.39 2.64251C323.315 2.71793 323.315 2.83811 323.39 2.91353L333.054 12.659C333.091 12.696 333.139 12.7152 333.188 12.7152C333.238 12.7152 333.286 12.696 333.323 12.659C333.398 12.5835 333.398 12.4634 333.323 12.3879L323.658 2.64251C323.585 2.56708 323.464 2.56708 323.39 2.64251Z" fill="#383838"/>
<path d="M327.272 0.0565702C327.197 0.131997 327.197 0.252169 327.272 0.327596L336.271 9.40952C336.307 9.44659 336.355 9.46577 336.405 9.46577C336.454 9.46577 336.503 9.44659 336.539 9.40952C336.614 9.33409 336.614 9.21392 336.539 9.13849L327.54 0.0565702C327.466 -0.0188567 327.345 -0.0188567 327.272 0.0565702Z" fill="#383838"/>
<path d="M322.726 0.0565702L320.161 2.64282C320.086 2.71825 320.086 2.83842 320.161 2.91385C320.198 2.95092 320.246 2.9701 320.296 2.9701C320.345 2.9701 320.393 2.95092 320.43 2.91385L322.994 0.327596C323.069 0.252169 323.069 0.131997 322.994 0.0565702C322.92 -0.0188567 322.8 -0.0188567 322.726 0.0565702Z" fill="#383838"/>
<path d="M307.944 0.0565702C307.869 0.131997 307.869 0.252169 307.944 0.327596L316.943 9.40952C316.98 9.44659 317.028 9.46577 317.077 9.46577C317.127 9.46577 317.175 9.44659 317.212 9.40952C317.286 9.33409 317.286 9.21392 317.212 9.13849L308.213 0.0565702C308.138 -0.0188567 308.017 -0.0188567 307.944 0.0565702Z" fill="#383838"/>
<path d="M304.056 2.64251C303.981 2.71793 303.981 2.83811 304.056 2.91353L313.727 12.659C313.764 12.696 313.812 12.7152 313.861 12.7152C313.911 12.7152 313.959 12.696 313.996 12.659C314.07 12.5835 314.07 12.4634 313.996 12.3879L304.325 2.64251C304.251 2.56708 304.131 2.56708 304.056 2.64251Z" fill="#383838"/>
<path d="M317.077 38.7112C317.126 38.7112 317.174 38.692 317.211 38.6549L326.876 28.9018C326.95 28.8264 326.95 28.7062 326.876 28.6308C326.801 28.5554 326.682 28.5554 326.607 28.6308L316.943 38.3839C316.868 38.4593 316.868 38.5795 316.943 38.6549C316.981 38.692 317.029 38.7112 317.077 38.7112Z" fill="#383838"/>
<path d="M336.405 28.9587C336.454 28.9587 336.502 28.9395 336.539 28.9024C336.614 28.827 336.614 28.7068 336.539 28.6314L326.876 18.8847C326.801 18.8093 326.682 18.8093 326.607 18.8847C326.533 18.9601 326.533 19.0803 326.607 19.1557L336.27 28.9024C336.309 28.9395 336.357 28.9587 336.405 28.9587Z" fill="#383838"/>
<path d="M333.188 32.2087C333.238 32.2087 333.286 32.1895 333.323 32.1524C333.398 32.077 333.398 31.9568 333.323 31.8814L323.658 22.1347C323.584 22.0593 323.464 22.0593 323.39 22.1347C323.315 22.2101 323.315 22.3303 323.39 22.4057L333.054 32.1524C333.092 32.1895 333.14 32.2087 333.188 32.2087Z" fill="#383838"/>
<path d="M313.727 35.3972C313.763 35.4343 313.812 35.4535 313.861 35.4535C313.911 35.4535 313.959 35.4343 313.995 35.3972L323.659 25.6518C323.733 25.5764 323.733 25.4562 323.659 25.3808C323.584 25.3054 323.465 25.3054 323.39 25.3808L313.727 35.1262C313.653 35.2016 313.653 35.3231 313.727 35.3972Z" fill="#383838"/>
<path d="M320.295 41.9535C320.344 41.9535 320.392 41.9343 320.429 41.8972L330.106 32.1518C330.181 32.0764 330.181 31.9562 330.106 31.8808C330.031 31.8054 329.912 31.8054 329.837 31.8808L320.16 41.6262C320.085 41.7016 320.085 41.8218 320.16 41.8972C320.198 41.9343 320.246 41.9535 320.295 41.9535Z" fill="#383838"/>
<path d="M317.212 28.6314L307.548 18.8847C307.474 18.8093 307.354 18.8093 307.28 18.8847C307.205 18.9601 307.205 19.0803 307.28 19.1557L316.943 28.9024C316.98 28.9395 317.028 28.9587 317.077 28.9587C317.127 28.9587 317.175 28.9395 317.212 28.9024C317.286 28.827 317.286 28.7068 317.212 28.6314Z" fill="#383838"/>
<path d="M326.607 48.1269L324.097 50.6722C324.024 50.7489 324.024 50.8678 324.097 50.9432C324.134 50.9803 324.184 50.9995 324.232 50.9995C324.281 50.9995 324.329 50.9803 324.366 50.9432L326.876 48.3979C326.95 48.3212 326.95 48.2023 326.876 48.1269C326.801 48.0515 326.681 48.0515 326.607 48.1269Z" fill="#383838"/>
<path d="M313.155 51.0016C313.204 51.0016 313.252 50.9824 313.289 50.9453C313.364 50.8699 313.364 50.7497 313.289 50.6743L304.326 41.6269C304.251 41.5515 304.132 41.5515 304.057 41.6269C303.982 41.7023 303.982 41.8225 304.057 41.8979L313.021 50.9453C313.057 50.9824 313.105 51.0016 313.155 51.0016Z" fill="#383838"/>
<path d="M332.482 51.0016C332.531 51.0016 332.579 50.9824 332.616 50.9453C332.691 50.8699 332.691 50.7497 332.616 50.6743L323.66 41.6269C323.585 41.5515 323.466 41.5515 323.392 41.6269C323.317 41.7023 323.317 41.8225 323.392 41.8979L332.347 50.9453C332.384 50.9824 332.432 51.0016 332.482 51.0016Z" fill="#383838"/>
<path d="M320.294 45.2033C320.344 45.2033 320.392 45.1842 320.429 45.1471C320.504 45.0717 320.504 44.9515 320.429 44.8761L310.772 35.123C310.697 35.0475 310.578 35.0475 310.503 35.123C310.428 35.1984 310.428 35.3186 310.503 35.394L320.16 45.1471C320.198 45.1842 320.246 45.2033 320.294 45.2033Z" fill="#383838"/>
<path d="M317.077 48.4574C317.127 48.4574 317.175 48.4382 317.212 48.4011C317.286 48.3257 317.286 48.2055 317.212 48.1301L307.548 38.3847C307.474 38.3093 307.354 38.3093 307.28 38.3847C307.205 38.4601 307.205 38.5803 307.28 38.6557L316.943 48.4011C316.981 48.4382 317.029 48.4574 317.077 48.4574Z" fill="#383838"/>
<path d="M326.607 9.1347L316.943 18.8801C316.868 18.9555 316.868 19.0757 316.943 19.1511C316.979 19.1882 317.027 19.2074 317.077 19.2074C317.126 19.2074 317.174 19.1882 317.211 19.1511L326.876 9.40572C326.95 9.33029 326.95 9.21012 326.876 9.1347C326.801 9.05927 326.682 9.05927 326.607 9.1347Z" fill="#383838"/>
<path d="M310.503 15.6298C310.428 15.7053 310.428 15.8254 310.503 15.9009L320.16 25.6476C320.197 25.6846 320.245 25.7038 320.294 25.7038C320.344 25.7038 320.392 25.6846 320.429 25.6476C320.504 25.5721 320.504 25.452 320.429 25.3765L310.772 15.6298C310.698 15.5557 310.578 15.5557 310.503 15.6298Z" fill="#383838"/>
<path d="M313.727 32.1524C313.764 32.1895 313.812 32.2087 313.861 32.2087C313.911 32.2087 313.959 32.1895 313.996 32.1524C314.07 32.077 314.07 31.9568 313.996 31.8814L304.325 22.1347C304.25 22.0593 304.131 22.0593 304.056 22.1347C303.981 22.2101 303.981 22.3303 304.056 22.4057L313.727 32.1524Z" fill="#383838"/>
<path d="M329.837 12.3847L320.16 22.1301C320.085 22.2055 320.085 22.3257 320.16 22.4011C320.197 22.4382 320.245 22.4574 320.295 22.4574C320.344 22.4574 320.392 22.4382 320.429 22.4011L330.106 12.6557C330.181 12.5803 330.181 12.4601 330.106 12.3847C330.031 12.3093 329.912 12.3093 329.837 12.3847Z" fill="#383838"/>
<path d="M336.405 48.4574C336.454 48.4574 336.502 48.4382 336.539 48.4011C336.614 48.3257 336.614 48.2055 336.539 48.1301L326.876 38.3847C326.801 38.3093 326.682 38.3093 326.607 38.3847C326.533 38.4601 326.533 38.5803 326.607 38.6557L336.27 48.4011C336.309 48.4382 336.357 48.4574 336.405 48.4574Z" fill="#383838"/>
<path d="M317.784 51.0005C317.833 51.0005 317.881 50.9814 317.918 50.9443L323.658 45.1479C323.733 45.0725 323.733 44.9523 323.658 44.8769C323.583 44.8015 323.464 44.8015 323.389 44.8769L317.649 50.6733C317.575 50.7487 317.575 50.8689 317.649 50.9443C317.686 50.9814 317.734 51.0005 317.784 51.0005Z" fill="#383838"/>
</g>
<defs>
<clipPath id="clip0_8150_84045">
<rect width="328" height="51" fill="white"/>
</clipPath>
</defs>
</svg>
