<svg width="328" height="49" viewBox="0 0 328 49" fill="none" xmlns="http://www.w3.org/2000/svg">
<rect width="328" height="49" fill="#D8B6A4"/>
<path d="M33.0338 6L32.7424 5.9478L0 0.0987331L0.589364 0L33.0403 5.79743L65.7794 0.124268L66.0708 0.174201L98.5218 5.79856L131.264 0.124268L131.556 0.174201L164.007 5.79856L196.749 0.124268L197.04 0.174201L229.491 5.79856L262.234 0.124268L262.525 0.174201L294.983 5.7997L327.437 0.435786L328 0.538491L294.969 5.99773L294.685 5.94893L262.234 0.32457L229.491 5.99886L229.2 5.94893L196.749 0.32457L164.007 5.99886L163.715 5.94893L131.264 0.32457L98.5218 5.99886L98.2304 5.94893L65.7794 0.32457L33.0338 6Z" fill="#FFD0B8"/>
<path d="M33.0338 11L32.7424 10.9484L0 5.09873L0.589364 5L33.0403 10.7974L65.7794 5.12427L66.0708 5.1742L98.5218 10.7986L131.264 5.12427L131.556 5.1742L164.007 10.7986L196.749 5.12427L197.04 5.1742L229.491 10.7986L262.234 5.12427L262.525 5.1742L294.983 10.7997L327.437 5.43635L328 5.53906L294.969 10.9977L294.685 10.9489L262.234 5.32457L229.491 10.9989L229.2 10.9489L196.749 5.32457L164.007 10.9989L163.715 10.9489L131.264 5.32457L98.5218 10.9989L98.2304 10.9489L65.7794 5.32457L33.0338 11Z" fill="#FFD0B8"/>
<path d="M33.0338 17L32.7424 16.9484L0 11.0987L0.589364 11L33.0403 16.7974L65.7794 11.1243L66.0708 11.1742L98.5218 16.7986L131.264 11.1243L131.556 11.1742L164.007 16.7986L196.749 11.1243L197.04 11.1742L229.491 16.7986L262.234 11.1243L262.525 11.1742L294.983 16.7997L327.437 11.4364L328 11.5391L294.969 16.9977L294.685 16.9489L262.234 11.3246L229.491 16.9989L229.2 16.9489L196.749 11.3246L164.007 16.9989L163.715 16.9489L131.264 11.3246L98.5218 16.9989L98.2304 16.9489L65.7794 11.3246L33.0338 17Z" fill="#FFD0B8"/>
<path d="M33.0338 22L32.7424 21.9484L0 16.0987L0.589364 16L33.0403 21.798L65.7794 16.1243L66.0708 16.1748L98.5218 21.7986L131.264 16.1243L131.556 16.1748L164.007 21.7986L196.749 16.1243L197.04 16.1748L229.491 21.7986L262.234 16.1243L262.525 16.1748L294.983 21.7997L327.437 16.4369L328 16.5391L294.969 21.9983L294.685 21.9489L262.234 16.3251L229.491 21.9994L229.2 21.9489L196.749 16.3251L164.007 21.9994L163.715 21.9489L131.264 16.3251L98.5218 21.9994L98.2304 21.9489L65.7794 16.3251L33.0338 22Z" fill="#FFD0B8"/>
<path d="M33.0338 27L32.7424 26.957L0 22.0823L0.589364 22L33.0403 26.8317L65.7794 22.1036L66.0708 22.1456L98.5218 26.8321L131.264 22.1036L131.556 22.1456L164.007 26.8321L196.749 22.1036L197.04 22.1456L229.491 26.8321L262.234 22.1036L262.525 22.1456L294.983 26.8331L327.437 22.3641L328 22.4492L294.969 26.9986L294.685 26.9579L262.234 22.2709L229.491 26.9995L229.2 26.9579L196.749 22.2709L164.007 26.9995L163.715 26.9579L131.264 22.2709L98.5218 26.9995L98.2304 26.9579L65.7794 22.2709L33.0338 27Z" fill="#FFD0B8"/>
<path d="M33.0338 33L32.7424 32.9489L0 27.0987L0.589364 27L33.0403 32.7985L65.7794 27.1243L66.0708 27.1742L98.5218 32.7991L131.264 27.1243L131.556 27.1742L164.007 32.7991L196.749 27.1243L197.04 27.1742L229.491 32.7991L262.234 27.1243L262.525 27.1742L294.983 32.8002L327.437 27.4364L328 27.5391L294.969 32.9983L294.685 32.9495L262.234 27.3246L229.491 32.9994L229.2 32.9495L196.749 27.3246L164.007 32.9994L163.715 32.9495L131.264 27.3246L98.5218 32.9994L98.2304 32.9495L65.7794 27.3246L33.0338 33Z" fill="#FFD0B8"/>
<path d="M33.0338 38L32.7424 37.9484L0 32.0987L0.589364 32L33.0403 37.798L65.7794 32.1243L66.0708 32.1742L98.5218 37.7986L131.264 32.1243L131.556 32.1742L164.007 37.7986L196.749 32.1243L197.04 32.1742L229.491 37.7986L262.234 32.1243L262.525 32.1742L294.983 37.7997L327.437 32.4369L328 32.5396L294.969 37.9983L294.685 37.9495L262.234 32.3251L229.491 37.9994L229.2 37.9495L196.749 32.3251L164.007 37.9994L163.715 37.9495L131.264 32.3251L98.5218 37.9994L98.2304 37.9495L65.7794 32.3251L33.0338 38Z" fill="#FFD0B8"/>
<path d="M33.0338 44L32.7424 43.9484L0 38.0987L0.589364 38L33.0403 43.798L65.7794 38.1243L66.0708 38.1742L98.5218 43.7986L131.264 38.1243L131.556 38.1742L164.007 43.7986L196.749 38.1243L197.04 38.1742L229.491 43.7986L262.234 38.1243L262.525 38.1742L294.983 43.7997L327.437 38.4369L328 38.5396L294.969 43.9983L294.685 43.9495L262.234 38.3251L229.491 43.9994L229.2 43.9495L196.749 38.3251L164.007 43.9994L163.715 43.9495L131.264 38.3251L98.5218 43.9994L98.2304 43.9495L65.7794 38.3251L33.0338 44Z" fill="#FFD0B8"/>
<path d="M33.0338 49L32.7424 48.9484L0 43.0987L0.589364 43L33.0403 48.798L65.7794 43.1237L66.0708 43.1736L98.5218 48.7985L131.264 43.1237L131.556 43.1736L164.007 48.7985L196.749 43.1237L197.04 43.1736L229.491 48.7985L262.234 43.1237L262.525 43.1736L294.983 48.7997L327.437 43.4364L328 43.5397L294.969 48.9983L294.685 48.9495L262.234 43.3246L229.491 48.9994L229.2 48.9495L196.749 43.3246L164.007 48.9994L163.715 48.9495L131.264 43.3246L98.5218 48.9994L98.2304 48.9495L65.7794 43.3246L33.0338 49Z" fill="#FFD0B8"/>
</svg>
