<svg width="331" height="181" viewBox="0 0 331 181" fill="none" xmlns="http://www.w3.org/2000/svg">
    <path d="M222.748 13.498H119.096V80.902H222.748V13.498Z" fill="#F5F5F5"/>
    <path d="M184.646 47.6125C186.454 40.0329 181.774 32.4233 174.195 30.616C166.615 28.8087 159.005 33.4882 157.198 41.0678C155.391 48.6475 160.07 56.2571 167.65 58.0644C175.23 59.8716 182.839 55.1922 184.646 47.6125Z"
          fill="#E0E0E0"/>
    <path d="M175.661 44.3501L171.978 46.4771L168.295 48.6041V40.0981L171.978 42.2251L175.661 44.3501Z" fill="#F5F5F5"/>
    <path d="M129.17 74.8481L127.675 75.7111L126.18 76.5741V73.1221L127.675 73.9851L129.17 74.8481Z" fill="#F5F5F5"/>
    <path d="M214.217 74.5742H137.76V75.1232H214.217V74.5742Z" fill="#F5F5F5"/>
    <path d="M139.309 74.848C139.31 75.0735 139.243 75.294 139.118 75.4816C138.993 75.6692 138.815 75.8155 138.606 75.9019C138.398 75.9884 138.169 76.0111 137.948 75.9672C137.726 75.9233 137.523 75.8148 137.364 75.6554C137.204 75.496 137.095 75.2929 137.051 75.0717C137.007 74.8506 137.03 74.6213 137.116 74.4129C137.202 74.2046 137.348 74.0265 137.536 73.9012C137.723 73.7759 137.944 73.709 138.169 73.709C138.471 73.709 138.761 73.829 138.975 74.0425C139.189 74.2561 139.309 74.5458 139.309 74.848Z"
          fill="#F5F5F5"/>
    <path d="M294.774 62.2183H199.63C196.599 62.2183 194.143 64.6749 194.143 67.7053V152.365C194.143 155.396 196.599 157.852 199.63 157.852H294.774C297.804 157.852 300.261 155.396 300.261 152.365V67.7053C300.261 64.6749 297.804 62.2183 294.774 62.2183Z"
          fill="#F5F5F5"/>
    <path d="M200.552 62.2183H293.852C294.693 62.2183 295.527 62.384 296.304 62.7061C297.082 63.0282 297.788 63.5003 298.383 64.0954C298.979 64.6905 299.451 65.3971 299.773 66.1746C300.095 66.9522 300.261 67.7856 300.261 68.6273V72.8963H194.143V68.6273C194.143 66.9275 194.818 65.2973 196.02 64.0954C197.222 62.8935 198.852 62.2183 200.552 62.2183V62.2183Z"
          fill="#EBEBEB"/>
    <path d="M200.618 68.4123C201.081 68.4123 201.455 68.0375 201.455 67.5753C201.455 67.113 201.081 66.7383 200.618 66.7383C200.156 66.7383 199.781 67.113 199.781 67.5753C199.781 68.0375 200.156 68.4123 200.618 68.4123Z"
          fill="#FAFAFA"/>
    <path d="M206.477 67.5792C206.477 67.7447 206.428 67.9065 206.336 68.0442C206.244 68.1818 206.113 68.2891 205.96 68.3525C205.807 68.4158 205.639 68.4324 205.476 68.4001C205.314 68.3678 205.165 68.2881 205.048 68.171C204.931 68.054 204.851 67.9048 204.819 67.7425C204.787 67.5801 204.803 67.4118 204.866 67.2589C204.93 67.1059 205.037 66.9752 205.175 66.8832C205.312 66.7913 205.474 66.7422 205.64 66.7422C205.862 66.7422 206.075 66.8304 206.232 66.9873C206.389 67.1443 206.477 67.3572 206.477 67.5792Z"
          fill="#FAFAFA"/>
    <path d="M210.663 68.4123C211.125 68.4123 211.5 68.0375 211.5 67.5753C211.5 67.113 211.125 66.7383 210.663 66.7383C210.201 66.7383 209.826 67.113 209.826 67.5753C209.826 68.0375 210.201 68.4123 210.663 68.4123Z"
          fill="#FAFAFA"/>
    <path d="M287.501 81.5054H247.43V82.9554H287.501V81.5054Z" fill="#FAFAFA"/>
    <path d="M287.501 87.4731H247.43V88.9231H287.501V87.4731Z" fill="#FAFAFA"/>
    <path d="M287.501 93.4414H247.43V94.8914H287.501V93.4414Z" fill="#FAFAFA"/>
    <path d="M287.501 99.4092H247.43V100.859H287.501V99.4092Z" fill="#FAFAFA"/>
    <path d="M267.465 105.377H247.43V106.827H267.465V105.377Z" fill="#FAFAFA"/>
    <path d="M204.868 118.565H244.939V117.115H204.868V118.565Z" fill="white"/>
    <path d="M204.868 124.534H244.939V123.084H204.868V124.534Z" fill="white"/>
    <path d="M204.868 130.501H244.939V129.051H204.868V130.501Z" fill="white"/>
    <path d="M204.868 136.469H244.939V135.019H204.868V136.469Z" fill="white"/>
    <path d="M224.904 142.438H244.939V140.987H224.904V142.438Z" fill="white"/>
    <path d="M286.152 115.511H251.863V144.041H286.152V115.511Z" fill="#FAFAFA"/>
    <path d="M251.805 135.425L261.938 128.325L269.008 133.217L280.128 123.808L286.153 129.776V144.041H251.863L251.805 135.425Z"
          fill="#EBEBEB"/>
    <path d="M269.601 126.68C271.187 126.68 272.473 125.394 272.473 123.808C272.473 122.222 271.187 120.936 269.601 120.936C268.014 120.936 266.729 122.222 266.729 123.808C266.729 125.394 268.014 126.68 269.601 126.68Z"
          fill="#EBEBEB"/>
    <path d="M239.158 80.6265H204.869V109.156H239.158V80.6265Z" fill="#FAFAFA"/>
    <path d="M204.811 100.54L214.944 93.4403L222.013 98.3323L233.134 88.9233L239.159 94.8913V109.156H204.87L204.811 100.54Z"
          fill="#EBEBEB"/>
    <path d="M222.606 91.7953C224.193 91.7953 225.478 90.5094 225.478 88.9233C225.478 87.3371 224.193 86.0513 222.606 86.0513C221.02 86.0513 219.734 87.3371 219.734 88.9233C219.734 90.5094 221.02 91.7953 222.606 91.7953Z"
          fill="#EBEBEB"/>
    <path d="M62.833 172.79H66.688L68.522 157.919H62.832L62.833 172.79Z" fill="#F4C2C9"/>
    <path d="M61.8496 171.531H69.4426C70.7258 171.531 71.9565 172.04 72.8639 172.948C73.7714 173.855 74.2813 175.086 74.2816 176.369V176.527H61.8506L61.8496 171.531Z"
          fill="black"/>
    <path d="M88.3018 172.79H92.1568L93.9908 157.919H88.3008L88.3018 172.79Z" fill="#F4C2C9"/>
    <path d="M87.3164 171.531H94.9094C96.1926 171.531 97.4233 172.04 98.3307 172.948C99.2382 173.855 99.7481 175.086 99.7484 176.369V176.527H87.3174L87.3164 171.531Z"
          fill="black"/>
    <path d="M59.6055 169.567H69.5925L75.9745 113.667L87.7125 169.567H94.4515V102.914L62.4115 93.3252L59.6055 169.567Z"
          fill="#4B7BE5"/>
    <path d="M76.6338 44.148C81.4442 44.148 85.3438 40.2484 85.3438 35.438C85.3438 30.6276 81.4442 26.728 76.6338 26.728C71.8234 26.728 67.9238 30.6276 67.9238 35.438C67.9238 40.2484 71.8234 44.148 76.6338 44.148Z"
          fill="#F4C2C9"/>
    <path d="M63.1133 94.7291C72.4583 102.038 82.7743 105.721 94.4513 104.317C89.5193 87.0011 88.0563 69.8171 92.8143 52.8671L82.9903 48.4241L71.9493 47.7241L63.9243 50.0841C62.7955 50.4166 61.8073 51.1108 61.1118 52.06C60.4163 53.0092 60.0521 54.1606 60.0753 55.3371C60.3603 69.7901 59.3993 83.3181 63.1133 94.7291Z"
          fill="#C4C4C4"/>
    <path d="M68.2982 31.0572C69.1362 29.4762 70.1982 26.3252 71.8922 25.7412C72.8313 25.4297 73.8018 25.2228 74.7863 25.1242L77.6613 26.2302L76.0973 25.0132C76.4019 24.9952 76.7063 24.9805 77.0103 24.9692L78.9503 25.7152L77.9582 24.9432C79.7452 24.7795 81.5349 25.2272 83.0342 26.2132C84.2282 27.1512 85.4122 30.7062 85.6032 32.2132C85.8077 33.6545 85.7361 35.1216 85.3922 36.5362L84.9012 37.0032C84.7295 36.6091 84.6004 36.1978 84.5163 35.7762C84.3402 34.9886 84.002 34.2464 83.5232 33.5968C83.0444 32.9471 82.4355 32.4044 81.7353 32.0032L81.7082 31.9882C80.84 31.6025 79.8829 31.4614 78.9402 31.5802L74.4532 31.7412C73.5447 31.5755 72.6069 31.7445 71.8134 32.217C71.0199 32.6895 70.4245 33.4335 70.1373 34.3112C69.6511 35.6296 69.2388 36.974 68.9022 38.3382C68.9022 38.3382 68.4403 37.7382 68.2183 38.1842C67.8628 37.0175 67.6466 35.8127 67.5742 34.5952C67.5035 33.373 67.7531 32.1534 68.2982 31.0572Z"
          fill="black"/>
    <path d="M250.327 87.3H149.781C148.062 87.2979 146.414 86.6141 145.198 85.3985C143.983 84.183 143.299 82.535 143.297 80.816V11.484C143.299 9.765 143.983 8.11699 145.198 6.90146C146.414 5.68593 148.062 5.00212 149.781 5H250.327C252.046 5.00212 253.694 5.68593 254.909 6.90146C256.125 8.11699 256.809 9.765 256.811 11.484V80.816C256.809 82.535 256.125 84.183 254.909 85.3985C253.694 86.6141 252.046 87.2979 250.327 87.3ZM149.781 5.57201C148.213 5.57386 146.711 6.19732 145.603 7.30563C144.494 8.41395 143.871 9.91662 143.869 11.484V80.816C143.871 82.3834 144.494 83.8861 145.603 84.9944C146.711 86.1027 148.213 86.7261 149.781 86.728H250.327C251.894 86.7261 253.397 86.1027 254.505 84.9944C255.614 83.8861 256.237 82.3834 256.239 80.816V11.484C256.237 9.91662 255.614 8.41395 254.505 7.30563C253.397 6.19732 251.894 5.57386 250.327 5.57201H149.781Z"
          fill="#F0F0F0"/>
    <path d="M132.707 93.1209V23.7889C132.708 22.1449 133.362 20.5687 134.524 19.4063C135.687 18.2438 137.263 17.5902 138.907 17.5889H239.452C241.096 17.5902 242.672 18.2438 243.835 19.4063C244.997 20.5687 245.651 22.1449 245.652 23.7889V93.1199C245.651 94.7638 244.997 96.34 243.835 97.5025C242.672 98.6649 241.096 99.3185 239.452 99.3199H138.902C137.259 99.3172 135.684 98.6631 134.523 97.5011C133.362 96.339 132.709 94.7638 132.707 93.1209Z"
          fill="#E4E4E4"/>
    <path d="M136.662 93.2458V23.6669C136.663 23.1602 136.864 22.6744 137.222 22.3162C137.581 21.9579 138.066 21.7564 138.573 21.7559H239.785C240.292 21.7564 240.778 21.9579 241.136 22.3162C241.494 22.6744 241.696 23.1602 241.696 23.6669V93.2458C241.696 93.7525 241.494 94.2383 241.136 94.5966C240.778 94.9548 240.292 95.1563 239.785 95.1569H138.573C138.066 95.1563 137.581 94.9548 137.222 94.5966C136.864 94.2383 136.663 93.7525 136.662 93.2458Z"
          fill="white"/>
    <path d="M189.179 78.9039C185.135 78.9039 181.181 77.7046 177.819 75.4576C174.456 73.2106 171.835 70.0169 170.287 66.2804C168.739 62.5438 168.334 58.4322 169.123 54.4655C169.912 50.4988 171.86 46.8551 174.72 43.9953C177.58 41.1354 181.223 39.1878 185.19 38.3988C189.157 37.6098 193.268 38.0147 197.005 39.5625C200.742 41.1102 203.935 43.7312 206.182 47.094C208.429 50.4568 209.628 54.4105 209.628 58.4549C209.622 63.8764 207.466 69.0742 203.632 72.9078C199.799 76.7414 194.601 78.8978 189.179 78.9039Z"
          fill="#C4C4C4"/>
    <path d="M197.249 56.4372H191.197V50.3852C191.197 49.8502 190.984 49.3372 190.606 48.959C190.228 48.5807 189.715 48.3682 189.18 48.3682C188.645 48.3682 188.132 48.5807 187.754 48.959C187.375 49.3372 187.163 49.8502 187.163 50.3852V56.4372H181.111C180.576 56.4372 180.063 56.6497 179.685 57.028C179.306 57.4062 179.094 57.9192 179.094 58.4542C179.094 58.9891 179.306 59.5021 179.685 59.8804C180.063 60.2587 180.576 60.4712 181.111 60.4712H187.163V66.5232C187.163 67.0581 187.375 67.5711 187.754 67.9494C188.132 68.3277 188.645 68.5402 189.18 68.5402C189.715 68.5402 190.228 68.3277 190.606 67.9494C190.984 67.5711 191.197 67.0581 191.197 66.5232V60.4712H197.249C197.784 60.472 198.297 60.2602 198.676 59.8825C199.055 59.5048 199.268 58.9921 199.269 58.4572C199.27 57.9222 199.058 57.4089 198.68 57.0301C198.302 56.6512 197.79 56.438 197.255 56.4372H197.249Z"
          fill="white"/>
    <path d="M53.4929 158.892C53.048 156.025 52.1802 153.239 50.9179 150.626L50.7339 150.246L49.3669 151.761L50.3799 149.504L50.3139 149.373C49.4202 147.604 48.4297 145.885 47.3469 144.225L47.1469 143.917L46.8789 144.217L47.0669 143.799L46.9729 143.658C45.6319 141.647 44.6019 140.375 44.5919 140.358L44.3009 140L44.1139 140.427C42.0265 145.424 40.7147 150.711 40.2239 156.104L40.2169 156.225L42.5089 158.995L40.1719 157.528V158.06C40.1791 158.971 40.2412 159.881 40.3579 160.785C40.4605 161.562 40.5815 162.321 40.7209 163.062C40.9417 163.069 41.1564 163.136 41.3419 163.256C41.1805 162.429 41.0412 161.578 40.9239 160.705C40.8339 160.005 40.7769 159.299 40.7539 158.593L45.2739 161.431L40.7969 156.02C41.271 150.901 42.5003 145.879 44.4449 141.12C44.8259 141.614 45.5449 142.574 46.4049 143.856L44.8409 147.342L47.0699 144.87C48.0365 146.375 48.927 147.927 49.7379 149.521L47.3299 154.889L50.5859 151.279C51.7226 153.723 52.5097 156.315 52.9239 158.979C53.5087 162.848 53.4027 166.79 52.6109 170.622C51.8719 173.691 50.5689 175.577 49.0359 175.798C48.7206 175.842 48.3998 175.823 48.0919 175.742C47.845 175.918 47.5478 176.009 47.2449 176.001H47.1609C47.6363 176.265 48.1692 176.408 48.7129 176.418C48.8467 176.418 48.9804 176.408 49.1129 176.389C50.9129 176.13 52.3539 174.134 53.1649 170.768C53.976 166.86 54.087 162.839 53.4929 158.892Z"
          fill="#4B7BE5"/>
    <path d="M48.448 176.191C46.091 176.191 42.693 174.891 39.322 172.534C38.8261 172.184 38.3525 171.803 37.904 171.394L37.526 171.049L38.953 170.638L37.053 170.568L36.973 170.484C34.5745 167.791 32.617 164.735 31.173 161.43L31 161.014L31.45 161.034C31.495 161.034 32.566 161.087 34.175 161.315L34.275 161.329L34.628 161.383C35.9424 161.583 37.2444 161.857 38.528 162.203L38.665 162.24L39.093 163.295L39.028 162.349L39.421 162.462C41.2834 163 43.0523 163.82 44.666 164.894C49.792 168.484 52.629 172.97 51.129 175.111C50.8035 175.495 50.3892 175.795 49.9221 175.983C49.4549 176.171 48.949 176.242 48.448 176.191ZM38.678 171.313C38.991 171.578 39.317 171.831 39.651 172.066C44.346 175.354 49.387 176.597 50.659 174.781C51.931 172.965 49.038 168.653 44.342 165.365C42.8932 164.401 41.3147 163.649 39.654 163.129L39.908 166.829L38.24 162.721C37.14 162.429 36.018 162.19 34.893 162.007L35.077 164.69L33.929 161.863C33.04 161.741 32.323 161.675 31.887 161.641C33.2617 164.687 35.0886 167.509 37.306 170.009L42.551 170.201L38.678 171.313Z"
          fill="#4B7BE5"/>
    <path d="M68.5906 100.438C68.5887 100.002 68.4911 99.571 68.3047 99.1764C68.1182 98.7817 67.8475 98.4327 67.5116 98.1541C67.1757 97.8754 66.7828 97.6737 66.3605 97.5634C65.9383 97.453 65.4969 97.4365 65.0676 97.5152L59.8406 88.2832L57.6836 92.7032L62.6836 101.203C62.8613 101.918 63.2955 102.542 63.9037 102.957C64.5118 103.372 65.2513 103.549 65.9814 103.454C66.7116 103.359 67.3814 102.999 67.8632 102.443C68.3451 101.886 68.6054 101.171 68.5946 100.435L68.5906 100.438Z"
          fill="#F4C2C9"/>
    <path d="M91.9628 110.701C91.7563 110.317 91.6366 109.892 91.6121 109.456C91.5876 109.021 91.659 108.585 91.821 108.18C91.9831 107.775 92.232 107.41 92.5502 107.112C92.8684 106.813 93.2482 106.588 93.6628 106.452L93.8557 95.8452L98.4018 98.9632L97.5218 108.558C97.7072 109.271 97.6236 110.028 97.287 110.683C96.9504 111.339 96.3843 111.848 95.6967 112.113C95.0091 112.377 94.248 112.38 93.5586 112.12C92.8692 111.859 92.2997 111.354 91.9588 110.701H91.9628Z"
          fill="#F4C2C9"/>
    <path d="M60.3065 99.1718L64.0485 95.6638L62.1284 76.7209L64.3505 49.9438C59.5245 51.4608 54.3425 55.5349 53.4885 60.5219L50.4395 78.3578L60.3065 99.1718Z"
          fill="#C4C4C4"/>
    <path opacity="0.2" d="M62.4775 66.5479L59.4375 78.7089L64.0475 95.9659L61.0745 79.6449L62.4775 66.5479Z"
          fill="black"/>
    <path d="M92.5795 105.72L98.6595 106.42L97.2355 61.269C97.1719 59.2516 96.5286 57.2951 95.3827 55.6335C94.2368 53.9719 92.6366 52.6754 90.7735 51.899L88.6035 50.999L89.1885 72.164L92.5795 105.72Z"
          fill="#C4C4C4"/>
    <path opacity="0.2" d="M90.3028 72.8521L92.6498 98.91L88.6758 73.0381L90.3028 72.8521Z" fill="black"/>
</svg>
