<svg width="74" height="75" viewBox="0 0 74 75" fill="none" xmlns="http://www.w3.org/2000/svg">
<g filter="url(#filter0_d)">
<rect x="15" y="12" width="44" height="44" rx="5" fill="#4B7BE5"/>
</g>
<g filter="url(#filter1_d)">
<rect x="15" y="11" width="44" height="44" rx="5" fill="white"/>
</g>
<path d="M25.375 24C25.4745 24 25.5698 23.9605 25.6402 23.8902C25.7105 23.8198 25.75 23.7245 25.75 23.625V21.75H28C28.0995 21.75 28.1948 21.7105 28.2652 21.6402C28.3355 21.5698 28.375 21.4745 28.375 21.375C28.375 21.2755 28.3355 21.1802 28.2652 21.1098C28.1948 21.0395 28.0995 21 28 21H25.375C25.2755 21 25.1802 21.0395 25.1098 21.1098C25.0395 21.1802 25 21.2755 25 21.375V23.625C25 23.7245 25.0395 23.8198 25.1098 23.8902C25.1802 23.9605 25.2755 24 25.375 24Z" fill="black"/>
<path d="M48.625 21H46C45.9005 21 45.8052 21.0395 45.7348 21.1098C45.6645 21.1802 45.625 21.2755 45.625 21.375C45.625 21.4745 45.6645 21.5698 45.7348 21.6402C45.8052 21.7105 45.9005 21.75 46 21.75H48.25V23.625C48.25 23.7245 48.2895 23.8198 48.3598 23.8902C48.4302 23.9605 48.5255 24 48.625 24C48.7245 24 48.8198 23.9605 48.8902 23.8902C48.9605 23.8198 49 23.7245 49 23.625V21.375C49 21.2755 48.9605 21.1802 48.8902 21.1098C48.8198 21.0395 48.7245 21 48.625 21V21Z" fill="black"/>
<path d="M28 44.25H25.75V42.375C25.75 42.2755 25.7105 42.1802 25.6402 42.1098C25.5698 42.0395 25.4745 42 25.375 42C25.2755 42 25.1802 42.0395 25.1098 42.1098C25.0395 42.1802 25 42.2755 25 42.375V44.625C25 44.7245 25.0395 44.8198 25.1098 44.8902C25.1802 44.9605 25.2755 45 25.375 45H28C28.0995 45 28.1948 44.9605 28.2652 44.8902C28.3355 44.8198 28.375 44.7245 28.375 44.625C28.375 44.5255 28.3355 44.4302 28.2652 44.3598C28.1948 44.2895 28.0995 44.25 28 44.25Z" fill="black"/>
<path d="M48.625 42C48.5255 42 48.4302 42.0395 48.3598 42.1098C48.2895 42.1802 48.25 42.2755 48.25 42.375V44.25H46C45.9005 44.25 45.8052 44.2895 45.7348 44.3598C45.6645 44.4302 45.625 44.5255 45.625 44.625C45.625 44.7245 45.6645 44.8198 45.7348 44.8902C45.8052 44.9605 45.9005 45 46 45H48.625C48.7245 45 48.8198 44.9605 48.8902 44.8902C48.9605 44.8198 49 44.7245 49 44.625V42.375C49 42.2755 48.9605 42.1802 48.8902 42.1098C48.8198 42.0395 48.7245 42 48.625 42Z" fill="black"/>
<path d="M34.75 25.875C34.8495 25.875 34.9448 25.8355 35.0152 25.7652C35.0855 25.6948 35.125 25.5995 35.125 25.5V24C35.125 23.9005 35.0855 23.8052 35.0152 23.7348C34.9448 23.6645 34.8495 23.625 34.75 23.625C34.6505 23.625 34.5552 23.6645 34.4848 23.7348C34.4145 23.8052 34.375 23.9005 34.375 24V25.5C34.375 25.5995 34.4145 25.6948 34.4848 25.7652C34.5552 25.8355 34.6505 25.875 34.75 25.875Z" fill="black"/>
<path d="M33.25 25.875C33.3495 25.875 33.4448 25.8355 33.5152 25.7652C33.5855 25.6948 33.625 25.5995 33.625 25.5V24C33.625 23.9005 33.5855 23.8052 33.5152 23.7348C33.4448 23.6645 33.3495 23.625 33.25 23.625C33.1505 23.625 33.0552 23.6645 32.9848 23.7348C32.9145 23.8052 32.875 23.9005 32.875 24V25.5C32.875 25.5995 32.9145 25.6948 32.9848 25.7652C33.0552 25.8355 33.1505 25.875 33.25 25.875Z" fill="black"/>
<path d="M36.0938 24.8125H36.8125V25.3126C36.8125 25.412 36.852 25.5074 36.9224 25.5777C36.9927 25.648 37.0881 25.6876 37.1875 25.6876H39.0625C39.162 25.6876 39.2574 25.6481 39.3277 25.5777C39.398 25.5074 39.4375 25.412 39.4375 25.3126C39.4375 25.2131 39.398 25.1177 39.3277 25.0474C39.2574 24.9771 39.162 24.9376 39.0625 24.9376H37.5625V24.4375C37.5625 24.338 37.523 24.2427 37.4527 24.1723C37.3824 24.102 37.287 24.0625 37.1875 24.0625H36.0938C35.9943 24.0625 35.8989 24.102 35.8286 24.1723C35.7583 24.2427 35.7188 24.338 35.7188 24.4375C35.7188 24.537 35.7583 24.6323 35.8286 24.7027C35.8989 24.773 35.9943 24.8125 36.0938 24.8125Z" fill="black"/>
<path d="M35.0625 28.2812C35.0625 28.3807 35.102 28.4761 35.1723 28.5464C35.2427 28.6167 35.338 28.6562 35.4375 28.6562H36V29.1876C36 29.2871 36.0395 29.3825 36.1098 29.4528C36.1802 29.5231 36.2755 29.5626 36.375 29.5626C36.4745 29.5626 36.5698 29.5231 36.6402 29.4528C36.7105 29.3825 36.75 29.2871 36.75 29.1876V28.6562H37.3126C37.412 28.6562 37.5074 28.6167 37.5778 28.5464C37.6481 28.4761 37.6876 28.3807 37.6876 28.2812C37.6876 28.1818 37.6481 28.0864 37.5778 28.0161C37.5074 27.9458 37.412 27.9062 37.3126 27.9062H35.4375C35.338 27.9063 35.2427 27.9458 35.1723 28.0161C35.102 28.0864 35.0625 28.1818 35.0625 28.2812Z" fill="black"/>
<path d="M33.0312 27.0938H33.875V27.9062H33.2812C33.1817 27.9062 33.0864 27.9457 33.016 28.016C32.9457 28.0864 32.9062 28.1817 32.9062 28.2812V29.1876C32.9062 29.287 32.9457 29.3824 33.016 29.4527C33.0863 29.5231 33.1817 29.5626 33.2812 29.5626C33.3806 29.5626 33.476 29.5231 33.5464 29.4527C33.6167 29.3824 33.6562 29.287 33.6562 29.1876V28.6562H34.25C34.3495 28.6562 34.4448 28.6167 34.5152 28.5463C34.5855 28.476 34.625 28.3806 34.625 28.2812V27.0938H35.0938C35.1932 27.0938 35.2886 27.0542 35.3589 26.9839C35.4292 26.9136 35.4688 26.8182 35.4688 26.7188C35.4688 26.6193 35.4292 26.5239 35.3589 26.4536C35.2886 26.3833 35.1932 26.3438 35.0938 26.3438H33.0312C32.9318 26.3438 32.8364 26.3833 32.7661 26.4536C32.6958 26.5239 32.6562 26.6193 32.6562 26.7188C32.6562 26.8182 32.6958 26.9136 32.7661 26.9839C32.8364 27.0542 32.9318 27.0938 33.0312 27.0938Z" fill="black"/>
<path d="M39.7812 31.9688V31.125H40.4375C40.5369 31.125 40.6323 31.0855 40.7026 31.0152C40.773 30.9448 40.8125 30.8495 40.8125 30.75C40.8125 30.6505 40.773 30.5552 40.7026 30.4848C40.6323 30.4145 40.5369 30.375 40.4375 30.375H39.4062C39.3068 30.375 39.2114 30.4145 39.1411 30.4848C39.0707 30.5552 39.0312 30.6505 39.0312 30.75V31.5938H37.4377V31.3749C37.4376 31.3257 37.4279 31.2769 37.4091 31.2314C37.3902 31.1859 37.3626 31.1446 37.3278 31.1098C37.2929 31.0749 37.2516 31.0473 37.2061 31.0285C37.1606 31.0096 37.1118 30.9999 37.0626 30.9999H36.0938C35.9943 30.9999 35.8989 31.0394 35.8286 31.1098C35.7583 31.1801 35.7188 31.2755 35.7188 31.3749C35.7188 31.4744 35.7583 31.5698 35.8286 31.6401C35.8989 31.7104 35.9943 31.7499 36.0938 31.7499H36.6876V31.9688C36.6876 32.0682 36.7271 32.1636 36.7974 32.2339C36.8677 32.3042 36.9631 32.3437 37.0626 32.3438H38V33.0313H36.375C36.2755 33.0313 36.1802 33.0708 36.1098 33.1411C36.0395 33.2115 36 33.3069 36 33.4063C36 33.5058 36.0395 33.6012 36.1098 33.6715C36.1802 33.7418 36.2755 33.7813 36.375 33.7813H38.375C38.4744 33.7813 38.5698 33.7418 38.6401 33.6715C38.7105 33.6011 38.75 33.5058 38.75 33.4063V32.3438H39.4062C39.5057 32.3437 39.6011 32.3042 39.6714 32.2339C39.7417 32.1636 39.7812 32.0682 39.7812 31.9688Z" fill="black"/>
<path d="M34.2188 34.7812C34.2188 34.8807 34.2583 34.9761 34.3286 35.0464C34.3989 35.1167 34.4943 35.1562 34.5938 35.1562H35.3125V36.375C35.3125 36.4745 35.352 36.5698 35.4224 36.6402C35.4927 36.7105 35.5881 36.75 35.6875 36.75C35.787 36.75 35.8824 36.7105 35.9527 36.6402C36.023 36.5698 36.0625 36.4745 36.0625 36.375V35.1562H36.7813C36.8808 35.1562 36.9762 35.1167 37.0465 35.0464C37.1168 34.9761 37.1563 34.8807 37.1563 34.7812C37.1563 34.6818 37.1168 34.5864 37.0465 34.5161C36.9762 34.4458 36.8808 34.4062 36.7813 34.4062H34.5938C34.4943 34.4063 34.3989 34.4458 34.3286 34.5161C34.2583 34.5864 34.2188 34.6818 34.2188 34.7812Z" fill="black"/>
<path d="M30.0625 25.5H28.9375V26.625H30.0625V25.5Z" fill="black"/>
<path d="M26.875 23.8125V28.3125C26.875 28.412 26.9145 28.5073 26.9848 28.5777C27.0552 28.648 27.1505 28.6875 27.25 28.6875H31.75C31.8495 28.6875 31.9448 28.648 32.0152 28.5777C32.0855 28.5073 32.125 28.412 32.125 28.3125V23.8125C32.125 23.713 32.0855 23.6177 32.0152 23.5473C31.9448 23.477 31.8495 23.4375 31.75 23.4375H27.25C27.1505 23.4375 27.0552 23.477 26.9848 23.5473C26.9145 23.6177 26.875 23.713 26.875 23.8125ZM28.1875 25.125C28.1875 25.0255 28.227 24.9302 28.2973 24.8598C28.3677 24.7895 28.463 24.75 28.5625 24.75H30.4375C30.537 24.75 30.6323 24.7895 30.7027 24.8598C30.773 24.9302 30.8125 25.0255 30.8125 25.125V27C30.8125 27.0995 30.773 27.1948 30.7027 27.2652C30.6323 27.3355 30.537 27.375 30.4375 27.375H28.5625C28.463 27.375 28.3677 27.3355 28.2973 27.2652C28.227 27.1948 28.1875 27.0995 28.1875 27V25.125Z" fill="#97C0FF"/>
<path d="M31.75 37.3125H27.25C27.1505 37.3125 27.0552 37.352 26.9848 37.4223C26.9145 37.4927 26.875 37.588 26.875 37.6875V42.1875C26.875 42.287 26.9145 42.3823 26.9848 42.4527C27.0552 42.523 27.1505 42.5625 27.25 42.5625H31.75C31.8495 42.5625 31.9448 42.523 32.0152 42.4527C32.0855 42.3823 32.125 42.287 32.125 42.1875V37.6875C32.125 37.588 32.0855 37.4927 32.0152 37.4223C31.9448 37.352 31.8495 37.3125 31.75 37.3125ZM30.8125 40.875C30.8125 40.9745 30.773 41.0698 30.7027 41.1402C30.6323 41.2105 30.537 41.25 30.4375 41.25H28.5625C28.463 41.25 28.3677 41.2105 28.2973 41.1402C28.227 41.0698 28.1875 40.9745 28.1875 40.875V39C28.1875 38.9005 28.227 38.8052 28.2973 38.7348C28.3677 38.6645 28.463 38.625 28.5625 38.625H30.4375C30.537 38.625 30.6323 38.6645 30.7027 38.7348C30.773 38.8052 30.8125 38.9005 30.8125 39V40.875Z" fill="#97C0FF"/>
<path d="M30.0625 39.375H28.9375V40.5H30.0625V39.375Z" fill="black"/>
<path d="M45.0625 25.5H43.9375V26.625H45.0625V25.5Z" fill="black"/>
<path d="M42.25 28.6875H46.75C46.8495 28.6875 46.9448 28.648 47.0152 28.5777C47.0855 28.5073 47.125 28.412 47.125 28.3125V23.8125C47.125 23.713 47.0855 23.6177 47.0152 23.5473C46.9448 23.477 46.8495 23.4375 46.75 23.4375H42.25C42.1505 23.4375 42.0552 23.477 41.9848 23.5473C41.9145 23.6177 41.875 23.713 41.875 23.8125V28.3125C41.875 28.412 41.9145 28.5073 41.9848 28.5777C42.0552 28.648 42.1505 28.6875 42.25 28.6875ZM43.1875 25.125C43.1875 25.0255 43.227 24.9302 43.2973 24.8598C43.3677 24.7895 43.463 24.75 43.5625 24.75H45.4375C45.537 24.75 45.6323 24.7895 45.7027 24.8598C45.773 24.9302 45.8125 25.0255 45.8125 25.125V27C45.8125 27.0995 45.773 27.1948 45.7027 27.2652C45.6323 27.3355 45.537 27.375 45.4375 27.375H43.5625C43.463 27.375 43.3677 27.3355 43.2973 27.2652C43.227 27.1948 43.1875 27.0995 43.1875 27V25.125Z" fill="#97C0FF"/>
<path d="M45.0625 39.375H43.9375V40.5H45.0625V39.375Z" fill="black"/>
<path d="M47.125 42.1875V37.6875C47.125 37.588 47.0855 37.4927 47.0152 37.4223C46.9448 37.352 46.8495 37.3125 46.75 37.3125H42.25C42.1505 37.3125 42.0552 37.352 41.9848 37.4223C41.9145 37.4927 41.875 37.588 41.875 37.6875V42.1875C41.875 42.287 41.9145 42.3823 41.9848 42.4527C42.0552 42.523 42.1505 42.5625 42.25 42.5625H46.75C46.8495 42.5625 46.9448 42.523 47.0152 42.4527C47.0855 42.3823 47.125 42.287 47.125 42.1875ZM45.8125 40.875C45.8125 40.9745 45.773 41.0698 45.7027 41.1402C45.6323 41.2105 45.537 41.25 45.4375 41.25H43.5625C43.463 41.25 43.3677 41.2105 43.2973 41.1402C43.227 41.0698 43.1875 40.9745 43.1875 40.875V39C43.1875 38.9005 43.227 38.8052 43.2973 38.7348C43.3677 38.6645 43.463 38.625 43.5625 38.625H45.4375C45.537 38.625 45.6323 38.6645 45.7027 38.7348C45.773 38.8052 45.8125 38.9005 45.8125 39V40.875Z" fill="#97C0FF"/>
<path d="M32.875 31.625V33.9374C32.875 34.0369 32.9145 34.1323 32.9848 34.2026C33.0552 34.2729 33.1505 34.3124 33.25 34.3124C33.3495 34.3124 33.4448 34.2729 33.5152 34.2026C33.5855 34.1323 33.625 34.0369 33.625 33.9374V31.25C33.625 31.1505 33.5855 31.0552 33.5152 30.9848C33.4448 30.9145 33.3495 30.875 33.25 30.875H28.9375V29.6562C28.9375 29.5568 28.898 29.4614 28.8277 29.3911C28.7573 29.3208 28.662 29.2812 28.5625 29.2812C28.463 29.2812 28.3677 29.3208 28.2973 29.3911C28.227 29.4614 28.1875 29.5568 28.1875 29.6562V31.25C28.1875 31.3495 28.227 31.4448 28.2973 31.5152C28.3677 31.5855 28.463 31.625 28.5625 31.625H29.3125V33.3749C29.3125 33.4744 29.352 33.5698 29.4223 33.6401C29.4927 33.7104 29.588 33.7499 29.6875 33.7499H31.375C31.4745 33.7499 31.5698 33.7104 31.6402 33.6401C31.7105 33.5698 31.75 33.4744 31.75 33.3749C31.75 33.2755 31.7105 33.1801 31.6402 33.1098C31.5698 33.0394 31.4745 32.9999 31.375 32.9999H30.0625V31.625H32.875Z" fill="black"/>
<path d="M30.3125 29.4688C30.213 29.4688 30.1177 29.5083 30.0473 29.5786C29.977 29.6489 29.9375 29.7443 29.9375 29.8438C29.9375 29.9432 29.977 30.0386 30.0473 30.1089C30.1177 30.1792 30.213 30.2188 30.3125 30.2188H31.9062C32.0057 30.2188 32.1011 30.1792 32.1714 30.1089C32.2417 30.0386 32.2812 29.9432 32.2812 29.8438C32.2812 29.7443 32.2417 29.6489 32.1714 29.5786C32.1011 29.5083 32.0057 29.4688 31.9062 29.4688H30.3125Z" fill="black"/>
<path d="M34.75 29.625V30.375C34.75 30.4745 34.7895 30.5698 34.8598 30.6402C34.9302 30.7105 35.0255 30.75 35.125 30.75C35.2245 30.75 35.3198 30.7105 35.3902 30.6402C35.4605 30.5698 35.5 30.4745 35.5 30.375V29.625C35.5 29.5255 35.4605 29.4302 35.3902 29.3598C35.3198 29.2895 35.2245 29.25 35.125 29.25C35.0255 29.25 34.9302 29.2895 34.8598 29.3598C34.7895 29.4302 34.75 29.5255 34.75 29.625Z" fill="black"/>
<path d="M32.875 38.2499H36.25C36.3495 38.2499 36.4448 38.2104 36.5152 38.1401C36.5855 38.0698 36.625 37.9744 36.625 37.8749C36.625 37.7755 36.5855 37.6801 36.5152 37.6098C36.4448 37.5394 36.3495 37.4999 36.25 37.4999H33.25V35.5625C33.25 35.463 33.2105 35.3677 33.1402 35.2973C33.0698 35.227 32.9745 35.1875 32.875 35.1875C32.7755 35.1875 32.6802 35.227 32.6098 35.2973C32.5395 35.3677 32.5 35.463 32.5 35.5625V37.8749C32.5 37.9744 32.5395 38.0698 32.6098 38.1401C32.6802 38.2104 32.7755 38.2499 32.875 38.2499Z" fill="black"/>
<path d="M33.875 35.9531V36.75C33.875 36.8495 33.9145 36.9448 33.9848 37.0152C34.0552 37.0855 34.1505 37.125 34.25 37.125C34.3495 37.125 34.4448 37.0855 34.5152 37.0152C34.5855 36.9448 34.625 36.8495 34.625 36.75V35.9531C34.625 35.8537 34.5855 35.7583 34.5152 35.688C34.4448 35.6176 34.3495 35.5781 34.25 35.5781C34.1505 35.5781 34.0552 35.6176 33.9848 35.688C33.9145 35.7583 33.875 35.8537 33.875 35.9531Z" fill="black"/>
<path d="M39.4375 26.8125C39.4375 26.713 39.398 26.6177 39.3277 26.5473C39.2573 26.477 39.162 26.4375 39.0625 26.4375H36.8125C36.713 26.4375 36.6177 26.477 36.5473 26.5473C36.477 26.6177 36.4375 26.713 36.4375 26.8125C36.4375 26.912 36.477 27.0073 36.5473 27.0777C36.6177 27.148 36.713 27.1875 36.8125 27.1875H38.125V27.75C38.125 27.8495 38.1645 27.9448 38.2348 28.0152C38.3052 28.0855 38.4005 28.125 38.5 28.125C38.5995 28.125 38.6948 28.0855 38.7652 28.0152C38.8355 27.9448 38.875 27.8495 38.875 27.75V27.1875H39.0625C39.162 27.1875 39.2573 27.148 39.3277 27.0777C39.398 27.0073 39.4375 26.912 39.4375 26.8125Z" fill="black"/>
<path d="M41.7189 31.5001C41.7189 31.5995 41.7584 31.6949 41.8287 31.7652C41.899 31.8356 41.9944 31.8751 42.0939 31.8751C42.1933 31.8751 42.2887 31.8356 42.359 31.7652C42.4294 31.6949 42.4689 31.5995 42.4689 31.5001V29.3125C42.4689 29.213 42.4294 29.1177 42.359 29.0473C42.2887 28.977 42.1933 28.9375 42.0939 28.9375H39.3125C39.213 28.9375 39.1177 28.977 39.0473 29.0473C38.977 29.1177 38.9375 29.213 38.9375 29.3125C38.9375 29.412 38.977 29.5073 39.0473 29.5777C39.1177 29.648 39.213 29.6875 39.3125 29.6875H41.7189V31.5001Z" fill="black"/>
<path d="M40.7031 34.0936C40.8026 34.0936 40.898 34.0541 40.9683 33.9838C41.0386 33.9135 41.0781 33.8181 41.0781 33.7186V32.4688C41.0781 32.3693 41.0386 32.2739 40.9683 32.2036C40.898 32.1333 40.8026 32.0938 40.7031 32.0938C40.6037 32.0938 40.5083 32.1333 40.438 32.2036C40.3676 32.2739 40.3281 32.3693 40.3281 32.4688V33.7186C40.3281 33.8181 40.3676 33.9135 40.438 33.9838C40.5083 34.0541 40.6037 34.0936 40.7031 34.0936Z" fill="black"/>
<path d="M38.6875 36.75C38.787 36.75 38.8823 36.7105 38.9527 36.6402C39.023 36.5698 39.0625 36.4745 39.0625 36.375V34.875C39.0625 34.7755 39.023 34.6802 38.9527 34.6098C38.8823 34.5395 38.787 34.5 38.6875 34.5H37.9375C37.838 34.5 37.7427 34.5395 37.6723 34.6098C37.602 34.6802 37.5625 34.7755 37.5625 34.875C37.5625 34.9745 37.602 35.0698 37.6723 35.1402C37.7427 35.2105 37.838 35.25 37.9375 35.25H38.3125V36.375C38.3125 36.4745 38.352 36.5698 38.4223 36.6402C38.4927 36.7105 38.588 36.75 38.6875 36.75Z" fill="black"/>
<path d="M37.3125 35.5781C37.213 35.5781 37.1177 35.6176 37.0473 35.688C36.977 35.7583 36.9375 35.8537 36.9375 35.9531V37.125C36.9375 37.2245 36.977 37.3198 37.0473 37.3902C37.1177 37.4605 37.213 37.5 37.3125 37.5C37.412 37.5 37.5073 37.4605 37.5777 37.3902C37.648 37.3198 37.6875 37.2245 37.6875 37.125V35.9531C37.6875 35.8537 37.648 35.7583 37.5777 35.688C37.5073 35.6176 37.412 35.5781 37.3125 35.5781Z" fill="black"/>
<path d="M40.3438 37.875V35.1562C40.3438 35.0568 40.3042 34.9614 40.2339 34.8911C40.1636 34.8208 40.0682 34.7812 39.9688 34.7812C39.8693 34.7812 39.7739 34.8208 39.7036 34.8911C39.6333 34.9614 39.5938 35.0568 39.5938 35.1562V37.5H38.375C38.2755 37.5 38.1802 37.5395 38.1098 37.6098C38.0395 37.6802 38 37.7755 38 37.875C38 37.9745 38.0395 38.0698 38.1098 38.1402C38.1802 38.2105 38.2755 38.25 38.375 38.25H39.9688C40.0682 38.25 40.1636 38.2105 40.2339 38.1402C40.3042 38.0698 40.3437 37.9745 40.3438 37.875Z" fill="black"/>
<path d="M42.0938 33.1875H43.3436C43.4431 33.1875 43.5385 33.148 43.6088 33.0777C43.6791 33.0073 43.7186 32.912 43.7186 32.8125V31.5C43.7186 31.4005 43.6791 31.3052 43.6088 31.2348C43.5385 31.1645 43.4431 31.125 43.3436 31.125C43.2442 31.125 43.1488 31.1645 43.0785 31.2348C43.0081 31.3052 42.9686 31.4005 42.9686 31.5V32.4375H42.0938C41.9943 32.4375 41.8989 32.477 41.8286 32.5473C41.7583 32.6177 41.7188 32.713 41.7188 32.8125C41.7188 32.912 41.7583 33.0073 41.8286 33.0777C41.8989 33.148 41.9943 33.1875 42.0938 33.1875Z" fill="black"/>
<path d="M45.6251 30.7499C45.7245 30.7499 45.8199 30.7104 45.8902 30.6401C45.9605 30.5698 46.0001 30.4744 46.0001 30.3749V29.4688C46.0001 29.3693 45.9605 29.2739 45.8902 29.2036C45.8199 29.1333 45.7245 29.0938 45.6251 29.0938H43.3438C43.2443 29.0938 43.1489 29.1333 43.0786 29.2036C43.0083 29.2739 42.9688 29.3693 42.9688 29.4688C42.9688 29.5682 43.0083 29.6636 43.0786 29.7339C43.1489 29.8042 43.2443 29.8438 43.3438 29.8438H45.2501V30.3749C45.2501 30.4744 45.2896 30.5698 45.3599 30.6401C45.4302 30.7104 45.5256 30.7499 45.6251 30.7499Z" fill="black"/>
<path d="M47.125 30.9375C47.125 30.838 47.0855 30.7427 47.0152 30.6723C46.9448 30.602 46.8495 30.5625 46.75 30.5625C46.6505 30.5625 46.5552 30.602 46.4848 30.6723C46.4145 30.7427 46.375 30.838 46.375 30.9375V32.0625H44.875V31.0591C44.875 30.9596 44.8355 30.8642 44.7652 30.7939C44.6948 30.7236 44.5995 30.6841 44.5 30.6841C44.4005 30.6841 44.3052 30.7236 44.2348 30.7939C44.1645 30.8642 44.125 30.9596 44.125 31.0591V32.4375C44.125 32.537 44.1645 32.6323 44.2348 32.7027C44.3052 32.773 44.4005 32.8125 44.5 32.8125H46.75C46.8495 32.8125 46.9448 32.773 47.0152 32.7027C47.0855 32.6323 47.125 32.537 47.125 32.4375V30.9375Z" fill="black"/>
<path d="M34.375 39.8124H33.25V39.375C33.25 39.2755 33.2105 39.1802 33.1402 39.1098C33.0698 39.0395 32.9745 39 32.875 39C32.7755 39 32.6802 39.0395 32.6098 39.1098C32.5395 39.1802 32.5 39.2755 32.5 39.375V40.1874C32.5 40.2869 32.5395 40.3823 32.6098 40.4526C32.6802 40.5229 32.7755 40.5624 32.875 40.5624H34V42.1875C34 42.287 34.0395 42.3823 34.1098 42.4527C34.1802 42.523 34.2755 42.5625 34.375 42.5625C34.4745 42.5625 34.5698 42.523 34.6402 42.4527C34.7105 42.3823 34.75 42.287 34.75 42.1875V40.1874C34.75 40.088 34.7105 39.9926 34.6402 39.9223C34.5698 39.852 34.4745 39.8124 34.375 39.8124Z" fill="black"/>
<path d="M39.5937 41.8125H37.6876V40.875C37.6876 40.7755 37.6481 40.6802 37.5778 40.6098C37.5074 40.5395 37.412 40.5 37.3126 40.5H35.4375C35.338 40.5 35.2427 40.5395 35.1723 40.6098C35.102 40.6802 35.0625 40.7755 35.0625 40.875C35.0625 40.9745 35.102 41.0698 35.1723 41.1402C35.2427 41.2105 35.338 41.25 35.4375 41.25H36.9376V42.1875C36.9376 42.287 36.9771 42.3823 37.0474 42.4527C37.1178 42.523 37.2131 42.5625 37.3126 42.5625H39.5937C39.6932 42.5625 39.7886 42.523 39.8589 42.4527C39.9292 42.3823 39.9687 42.287 39.9687 42.1875C39.9687 42.088 39.9292 41.9927 39.8589 41.9223C39.7886 41.852 39.6932 41.8125 39.5937 41.8125Z" fill="black"/>
<path d="M40.9999 39.5625C40.9004 39.5625 40.805 39.602 40.7347 39.6723C40.6644 39.7427 40.6249 39.838 40.6249 39.9375V40.7188H38.8125C38.713 40.7188 38.6177 40.7583 38.5473 40.8286C38.477 40.899 38.4375 40.9944 38.4375 41.0938C38.4375 41.1933 38.477 41.2887 38.5473 41.359C38.6177 41.4293 38.713 41.4688 38.8125 41.4688H40.9999C41.0993 41.4688 41.1947 41.4293 41.265 41.359C41.3354 41.2886 41.3749 41.1933 41.3749 41.0938V39.9375C41.3749 39.838 41.3354 39.7427 41.265 39.6723C41.1947 39.602 41.0993 39.5625 40.9999 39.5625Z" fill="black"/>
<path d="M35.4375 39.9062H39.5937C39.6932 39.9062 39.7886 39.8667 39.8589 39.7964C39.9292 39.7261 39.9687 39.6307 39.9687 39.5312C39.9687 39.4318 39.9292 39.3364 39.8589 39.2661C39.7886 39.1958 39.6932 39.1562 39.5937 39.1562H35.4375C35.338 39.1562 35.2427 39.1958 35.1723 39.2661C35.102 39.3364 35.0625 39.4318 35.0625 39.5312C35.0625 39.6307 35.102 39.7261 35.1723 39.7964C35.2427 39.8667 35.338 39.9062 35.4375 39.9062Z" fill="black"/>
<path d="M43.5625 36.1876C43.5625 36.0881 43.523 35.9927 43.4527 35.9224C43.3823 35.8521 43.287 35.8126 43.1875 35.8126H41.9688V34.1875C41.9688 34.088 41.9292 33.9927 41.8589 33.9223C41.7886 33.852 41.6932 33.8125 41.5938 33.8125C41.4943 33.8125 41.3989 33.852 41.3286 33.9223C41.2583 33.9927 41.2188 34.088 41.2188 34.1875V36.1876C41.2188 36.287 41.2583 36.3824 41.3286 36.4527C41.3989 36.523 41.4943 36.5626 41.5938 36.5626H43.1875C43.287 36.5626 43.3823 36.523 43.4527 36.4527C43.523 36.3824 43.5625 36.287 43.5625 36.1876Z" fill="black"/>
<path d="M44.875 36.5625H46.75C46.8495 36.5625 46.9448 36.523 47.0152 36.4527C47.0855 36.3823 47.125 36.287 47.125 36.1875C47.125 36.088 47.0855 35.9927 47.0152 35.9223C46.9448 35.852 46.8495 35.8125 46.75 35.8125H45.25V34.6875C45.25 34.588 45.2105 34.4927 45.1402 34.4223C45.0698 34.352 44.9745 34.3125 44.875 34.3125H43C42.9005 34.3125 42.8052 34.352 42.7348 34.4223C42.6645 34.4927 42.625 34.588 42.625 34.6875C42.625 34.787 42.6645 34.8823 42.7348 34.9527C42.8052 35.023 42.9005 35.0625 43 35.0625H44.5V36.1875C44.5 36.287 44.5395 36.3823 44.6098 36.4527C44.6802 36.523 44.7755 36.5625 44.875 36.5625Z" fill="black"/>
<path d="M46.9375 34.6875V33.5625C46.9375 33.463 46.898 33.3677 46.8277 33.2973C46.7573 33.227 46.662 33.1875 46.5625 33.1875C46.463 33.1875 46.3677 33.227 46.2973 33.2973C46.227 33.3677 46.1875 33.463 46.1875 33.5625V34.6875C46.1875 34.787 46.227 34.8823 46.2973 34.9527C46.3677 35.023 46.463 35.0625 46.5625 35.0625C46.662 35.0625 46.7573 35.023 46.8277 34.9527C46.898 34.8823 46.9375 34.787 46.9375 34.6875Z" fill="black"/>
<path d="M27.25 31.3125C27.3495 31.3125 27.4448 31.273 27.5152 31.2027C27.5855 31.1323 27.625 31.037 27.625 30.9375V29.625C27.625 29.5255 27.5855 29.4302 27.5152 29.3598C27.4448 29.2895 27.3495 29.25 27.25 29.25C27.1505 29.25 27.0552 29.2895 26.9848 29.3598C26.9145 29.4302 26.875 29.5255 26.875 29.625V30.9375C26.875 31.037 26.9145 31.1323 26.9848 31.2027C27.0552 31.273 27.1505 31.3125 27.25 31.3125Z" fill="black"/>
<path d="M27.25 32.8125H27.8125V33.375C27.8125 33.4745 27.852 33.5698 27.9223 33.6402C27.9927 33.7105 28.088 33.75 28.1875 33.75C28.287 33.75 28.3823 33.7105 28.4527 33.6402C28.523 33.5698 28.5625 33.4745 28.5625 33.375V32.4375C28.5625 32.338 28.523 32.2427 28.4527 32.1723C28.3823 32.102 28.287 32.0625 28.1875 32.0625H27.25C27.1505 32.0625 27.0552 32.102 26.9848 32.1723C26.9145 32.2427 26.875 32.338 26.875 32.4375C26.875 32.537 26.9145 32.6323 26.9848 32.7027C27.0552 32.773 27.1505 32.8125 27.25 32.8125Z" fill="black"/>
<path d="M26.875 36.3516C26.875 36.451 26.9145 36.5464 26.9848 36.6167C27.0552 36.6871 27.1505 36.7266 27.25 36.7266C27.3495 36.7266 27.4448 36.6871 27.5152 36.6167C27.5855 36.5464 27.625 36.451 27.625 36.3516V35.25H29.6875C29.787 35.25 29.8823 35.2105 29.9527 35.1402C30.023 35.0698 30.0625 34.9745 30.0625 34.875C30.0625 34.7755 30.023 34.6802 29.9527 34.6098C29.8823 34.5395 29.787 34.5 29.6875 34.5H27.25C27.1505 34.5 27.0552 34.5395 26.9848 34.6098C26.9145 34.6802 26.875 34.7755 26.875 34.875V36.3516Z" fill="black"/>
<path d="M28.75 36.7266H31.1641C31.2635 36.7266 31.3589 36.687 31.4292 36.6167C31.4995 36.5464 31.5391 36.451 31.5391 36.3516V34.8281C31.5391 34.7287 31.4996 34.6333 31.4292 34.563C31.3589 34.4926 31.2635 34.4531 31.1641 34.4531C31.0646 34.4531 30.9692 34.4926 30.8989 34.563C30.8286 34.6333 30.7891 34.7287 30.7891 34.8281V35.9766H28.75C28.6505 35.9766 28.5552 36.0161 28.4848 36.0864C28.4145 36.1567 28.375 36.2521 28.375 36.3516C28.375 36.451 28.4145 36.5464 28.4848 36.6167C28.5552 36.6871 28.6505 36.7266 28.75 36.7266Z" fill="black"/>
<path d="M40 27.9375H40.75C40.8495 27.9375 40.9448 27.898 41.0152 27.8277C41.0855 27.7573 41.125 27.662 41.125 27.5625V24.1875C41.125 24.088 41.0855 23.9927 41.0152 23.9223C40.9448 23.852 40.8495 23.8125 40.75 23.8125C40.6505 23.8125 40.5552 23.852 40.4848 23.9223C40.4145 23.9927 40.375 24.088 40.375 24.1875V27.1875H40C39.9005 27.1875 39.8052 27.227 39.7348 27.2973C39.6645 27.3677 39.625 27.463 39.625 27.5625C39.625 27.662 39.6645 27.7573 39.7348 27.8277C39.8052 27.898 39.9005 27.9375 40 27.9375Z" fill="black"/>
<path d="M34.375 31.5V32.4375C34.375 32.537 34.4145 32.6323 34.4848 32.7027C34.5552 32.773 34.6505 32.8125 34.75 32.8125H35.5C35.5995 32.8125 35.6948 32.773 35.7652 32.7027C35.8355 32.6323 35.875 32.537 35.875 32.4375C35.875 32.338 35.8355 32.2427 35.7652 32.1723C35.6948 32.102 35.5995 32.0625 35.5 32.0625H35.125V31.5C35.125 31.4005 35.0855 31.3052 35.0152 31.2348C34.9448 31.1645 34.8495 31.125 34.75 31.125C34.6505 31.125 34.5552 31.1645 34.4848 31.2348C34.4145 31.3052 34.375 31.4005 34.375 31.5Z" fill="black"/>
<path d="M37.9375 30.5625C38.037 30.5625 38.1323 30.523 38.2027 30.4527C38.273 30.3823 38.3125 30.287 38.3125 30.1875V29.25C38.3125 29.1505 38.273 29.0552 38.2027 28.9848C38.1323 28.9145 38.037 28.875 37.9375 28.875C37.838 28.875 37.7427 28.9145 37.6723 28.9848C37.602 29.0552 37.5625 29.1505 37.5625 29.25V29.8125H37C36.9005 29.8125 36.8052 29.852 36.7348 29.9223C36.6645 29.9927 36.625 30.088 36.625 30.1875C36.625 30.287 36.6645 30.3823 36.7348 30.4527C36.8052 30.523 36.9005 30.5625 37 30.5625H37.9375Z" fill="black"/>
<defs>
<filter id="filter0_d" x="0" y="1" width="74" height="74" filterUnits="userSpaceOnUse" color-interpolation-filters="sRGB">
<feFlood flood-opacity="0" result="BackgroundImageFix"/>
<feColorMatrix in="SourceAlpha" type="matrix" values="0 0 0 0 0 0 0 0 0 0 0 0 0 0 0 0 0 0 127 0" result="hardAlpha"/>
<feOffset dy="4"/>
<feGaussianBlur stdDeviation="7.5"/>
<feComposite in2="hardAlpha" operator="out"/>
<feColorMatrix type="matrix" values="0 0 0 0 0 0 0 0 0 0 0 0 0 0 0 0 0 0 0.08 0"/>
<feBlend mode="normal" in2="BackgroundImageFix" result="effect1_dropShadow"/>
<feBlend mode="normal" in="SourceGraphic" in2="effect1_dropShadow" result="shape"/>
</filter>
<filter id="filter1_d" x="0" y="0" width="74" height="74" filterUnits="userSpaceOnUse" color-interpolation-filters="sRGB">
<feFlood flood-opacity="0" result="BackgroundImageFix"/>
<feColorMatrix in="SourceAlpha" type="matrix" values="0 0 0 0 0 0 0 0 0 0 0 0 0 0 0 0 0 0 127 0" result="hardAlpha"/>
<feOffset dy="4"/>
<feGaussianBlur stdDeviation="7.5"/>
<feComposite in2="hardAlpha" operator="out"/>
<feColorMatrix type="matrix" values="0 0 0 0 0 0 0 0 0 0 0 0 0 0 0 0 0 0 0.08 0"/>
<feBlend mode="normal" in2="BackgroundImageFix" result="effect1_dropShadow"/>
<feBlend mode="normal" in="SourceGraphic" in2="effect1_dropShadow" result="shape"/>
</filter>
</defs>
</svg>
