<svg width="74" height="75" viewBox="0 0 74 75" fill="none" xmlns="http://www.w3.org/2000/svg">
<g filter="url(#filter0_d)">
<rect x="15" y="12" width="44" height="44" rx="5" fill="#4B7BE5"/>
</g>
<g filter="url(#filter1_d)">
<rect x="15" y="11" width="44" height="44" rx="5" fill="white"/>
</g>
<path d="M33.6349 28.9592L34.6306 29.138C34.7475 29.5794 34.9205 30.0034 35.1453 30.3992L34.5657 31.2416C34.4619 31.3916 34.4134 31.5741 34.4288 31.7569C34.4442 31.9397 34.5225 32.111 34.6499 32.2408L35.2463 32.8482C35.3738 32.9779 35.5421 33.0576 35.7216 33.0733C35.9011 33.0889 36.0803 33.0396 36.2276 32.9339L37.0549 32.3437C37.4436 32.5725 37.86 32.7487 38.2935 32.8678L38.4691 33.8816C38.5002 34.062 38.5927 34.2254 38.7304 34.3432C38.868 34.461 39.0421 34.5256 39.2219 34.5257H40.0757C40.2555 34.5256 40.4295 34.461 40.5672 34.3432C40.7048 34.2254 40.7973 34.062 40.8284 33.8816L41.004 32.8678C41.4367 32.7485 41.8523 32.5724 42.2402 32.3437L43.0676 32.9339C43.2148 33.0396 43.394 33.0889 43.5735 33.0733C43.7531 33.0576 43.9214 32.9779 44.0488 32.8482L44.6453 32.2408C44.7726 32.111 44.8509 31.9397 44.8663 31.7569C44.8817 31.5741 44.8332 31.3916 44.7294 31.2416L44.1402 30.3992C44.3616 30.0029 44.5314 29.5789 44.6453 29.138L45.641 28.9592C45.8181 28.9275 45.9785 28.8333 46.0942 28.6931C46.2099 28.553 46.2734 28.3758 46.2735 28.1927V27.3331C46.2734 27.15 46.2099 26.9728 46.0942 26.8326C45.9785 26.6924 45.8181 26.5982 45.641 26.5665L44.6453 26.3878C44.5284 25.9463 44.3553 25.5223 44.1306 25.1265L44.7102 24.2841C44.8165 24.1363 44.8682 23.9552 44.8564 23.7725C44.8445 23.5897 44.7697 23.4171 44.6453 23.2849L44.0392 22.6776C43.9121 22.5475 43.7439 22.4673 43.5644 22.4512C43.3848 22.4351 43.2055 22.484 43.0579 22.5894L42.2402 23.1796C41.8515 22.9507 41.4351 22.7745 41.0016 22.6555L40.826 21.6416C40.7945 21.4622 40.7021 21.2996 40.565 21.1824C40.4279 21.0651 40.2547 21.0006 40.0757 21H39.2195C39.0397 21.0001 38.8656 21.0647 38.728 21.1825C38.5903 21.3003 38.4978 21.4637 38.4667 21.6441L38.2911 22.658C37.8577 22.7762 37.4413 22.9516 37.0525 23.1796L36.2276 22.5894C36.08 22.484 35.9007 22.4351 35.7212 22.4512C35.5416 22.4673 35.3735 22.5475 35.2463 22.6776L34.6499 23.2849C34.5225 23.4147 34.4442 23.5861 34.4288 23.7689C34.4134 23.9517 34.4619 24.1341 34.5657 24.2841L35.1453 25.1265C34.9197 25.5222 34.7459 25.9462 34.6282 26.3878L33.6325 26.5665C33.4554 26.5982 33.2949 26.6924 33.1793 26.8326C33.0636 26.9728 33.0001 27.15 33 27.3331V28.1927C33.0002 28.3761 33.064 28.5536 33.1802 28.6938C33.2963 28.8341 33.4574 28.928 33.6349 28.9592ZM39.6476 24.8694C40.209 24.8708 40.7575 25.0417 41.2236 25.3604C41.6898 25.6791 42.0527 26.1313 42.2666 26.6599C42.4804 27.1885 42.5357 27.7698 42.4253 28.3304C42.3149 28.8909 42.0438 29.4056 41.6462 29.8093C41.2487 30.2131 40.7426 30.4878 40.1918 30.5988C39.6411 30.7098 39.0703 30.6521 38.5517 30.433C38.0331 30.2139 37.59 29.8432 37.2782 29.3677C36.9664 28.8922 36.8 28.3334 36.8 27.7616C36.8013 26.9945 37.1012 26.2593 37.6342 25.7171C38.1671 25.1749 38.8894 24.87 39.6428 24.8694H39.6476ZM38.13 27.7616C38.13 27.457 38.2187 27.1591 38.3849 26.9058C38.5512 26.6525 38.7874 26.4551 39.0638 26.3385C39.3403 26.2219 39.6444 26.1914 39.9379 26.2508C40.2313 26.3103 40.5009 26.457 40.7125 26.6724C40.924 26.8878 41.0681 27.1623 41.1265 27.4611C41.1848 27.7599 41.1549 28.0696 41.0404 28.3511C40.9259 28.6326 40.732 28.8732 40.4832 29.0424C40.2344 29.2117 39.942 29.302 39.6428 29.302C39.2415 29.302 38.8568 29.1397 38.5731 28.8509C38.2894 28.562 38.13 28.1702 38.13 27.7616Z" fill="#97C0FF"/>
<path d="M30.7692 44.9996L26 40.2682L29.4152 36.8127C30.1088 36.1111 30.9825 35.6226 31.9361 35.403C32.8896 35.1834 33.8847 35.2417 34.8073 35.571L35.5553 35.838H40.173C40.3672 35.8378 40.5595 35.8776 40.7383 35.955C40.9171 36.0323 41.0787 36.1456 41.2134 36.2881C41.3482 36.4305 41.4533 36.5992 41.5225 36.7841C41.5916 36.9689 41.6235 37.166 41.616 37.3637C41.5943 37.7558 41.4245 38.1242 41.142 38.3917C40.8596 38.6592 40.4865 38.8051 40.1008 38.7988H37.3398C37.1899 38.7988 37.0462 38.8594 36.9402 38.9674C36.8342 39.0753 36.7746 39.2217 36.7746 39.3743C36.7746 39.5269 36.8342 39.6733 36.9402 39.7812C37.0462 39.8892 37.1899 39.9498 37.3398 39.9498H40.1104C40.7866 39.9503 41.4373 39.6871 41.9288 39.2144C42.4204 38.7416 42.7155 38.0952 42.7536 37.4078C42.7536 37.4078 42.7536 37.3833 42.7536 37.371L45.3174 34.4323C45.5783 34.1255 45.9452 33.9327 46.3419 33.8939C46.7387 33.8552 47.1348 33.9734 47.4483 34.2241C47.6048 34.3551 47.7339 34.5168 47.8279 34.6996C47.9218 34.8824 47.9787 35.0826 47.9951 35.2882C48.0114 35.4939 47.987 35.7008 47.9232 35.8966C47.8595 36.0925 47.7576 36.2732 47.6238 36.4282L42.5059 42.3865C42.169 42.7801 41.7532 43.0957 41.2865 43.312C40.8197 43.5283 40.313 43.6403 39.8002 43.6404H32.104L30.7692 44.9996Z" fill="#060B29"/>
<defs>
<filter id="filter0_d" x="0" y="1" width="74" height="74" filterUnits="userSpaceOnUse" color-interpolation-filters="sRGB">
<feFlood flood-opacity="0" result="BackgroundImageFix"/>
<feColorMatrix in="SourceAlpha" type="matrix" values="0 0 0 0 0 0 0 0 0 0 0 0 0 0 0 0 0 0 127 0" result="hardAlpha"/>
<feOffset dy="4"/>
<feGaussianBlur stdDeviation="7.5"/>
<feComposite in2="hardAlpha" operator="out"/>
<feColorMatrix type="matrix" values="0 0 0 0 0 0 0 0 0 0 0 0 0 0 0 0 0 0 0.08 0"/>
<feBlend mode="normal" in2="BackgroundImageFix" result="effect1_dropShadow"/>
<feBlend mode="normal" in="SourceGraphic" in2="effect1_dropShadow" result="shape"/>
</filter>
<filter id="filter1_d" x="0" y="0" width="74" height="74" filterUnits="userSpaceOnUse" color-interpolation-filters="sRGB">
<feFlood flood-opacity="0" result="BackgroundImageFix"/>
<feColorMatrix in="SourceAlpha" type="matrix" values="0 0 0 0 0 0 0 0 0 0 0 0 0 0 0 0 0 0 127 0" result="hardAlpha"/>
<feOffset dy="4"/>
<feGaussianBlur stdDeviation="7.5"/>
<feComposite in2="hardAlpha" operator="out"/>
<feColorMatrix type="matrix" values="0 0 0 0 0 0 0 0 0 0 0 0 0 0 0 0 0 0 0.08 0"/>
<feBlend mode="normal" in2="BackgroundImageFix" result="effect1_dropShadow"/>
<feBlend mode="normal" in="SourceGraphic" in2="effect1_dropShadow" result="shape"/>
</filter>
</defs>
</svg>
