
<svg width="74" height="75" viewBox="0 0 74 75" fill="none" xmlns="http://www.w3.org/2000/svg">
<g filter="url(#filter0_d_9408_64874)">
<rect x="15" y="12" width="44" height="44" rx="5" fill="#4B7BE5"/>
</g>
<g filter="url(#filter1_d_9408_64874)">
<rect x="15" y="11" width="44" height="44" rx="5" fill="white"/>
</g>
<path d="M49.7237 21H24.2763C23.9378 21 23.6132 21.1414 23.3738 21.3931C23.1345 21.6448 23 21.9862 23 22.3421V31.6611C23.0008 32.0165 23.1356 32.357 23.3749 32.608C23.6141 32.859 23.9383 33 24.2763 33H49.7237C50.0622 33 50.3868 32.8586 50.6262 32.6069C50.8655 32.3552 51 32.0138 51 31.6579V22.3389C50.9992 21.9835 50.8644 21.643 50.6251 21.392C50.3859 21.141 50.0617 21 49.7237 21ZM34.1081 26.6842L32.8138 28.0074L33.1141 29.8768C33.1287 29.979 33.1166 30.0835 33.079 30.179C33.0414 30.2744 32.9797 30.3573 32.9006 30.4187C32.8216 30.4801 32.7281 30.5176 32.6303 30.5273C32.5324 30.537 32.4339 30.5185 32.3453 30.4737L30.7477 29.5895L29.1501 30.4737C29.0608 30.523 28.9602 30.545 28.8596 30.5372C28.759 30.5295 28.6625 30.4923 28.5809 30.4299C28.4994 30.3674 28.4361 30.2823 28.3981 30.184C28.3602 30.0857 28.3492 29.9782 28.3664 29.8737L28.6667 28.0042L27.3904 26.6684C27.3182 26.5943 27.2671 26.5005 27.243 26.3975C27.2189 26.2944 27.2226 26.1864 27.2539 26.0855C27.2851 25.9846 27.3426 25.8949 27.4198 25.8266C27.497 25.7583 27.5908 25.7141 27.6907 25.6989L29.4625 25.4211L30.2613 23.7189C30.3058 23.6237 30.3749 23.5435 30.4606 23.4874C30.5463 23.4313 30.6453 23.4015 30.7462 23.4015C30.8472 23.4015 30.9462 23.4313 31.0319 23.4874C31.1176 23.5435 31.1866 23.6237 31.2312 23.7189L32.03 25.4211L33.8168 25.6958C33.9167 25.7109 34.0105 25.7552 34.0877 25.8235C34.1649 25.8918 34.2224 25.9815 34.2536 26.0823C34.2849 26.1832 34.2886 26.2913 34.2645 26.3943C34.2404 26.4973 34.1893 26.5912 34.1171 26.6653L34.1081 26.6842ZM45.4114 28.5789H37.9039C37.5415 28.5789 37.194 28.4276 36.9377 28.1581C36.6815 27.8886 36.5375 27.5232 36.5375 27.1421C36.5375 26.761 36.6815 26.3956 36.9377 26.1261C37.194 25.8566 37.5415 25.7053 37.9039 25.7053H45.4084C45.7708 25.7053 46.1183 25.8566 46.3746 26.1261C46.6308 26.3956 46.7748 26.761 46.7748 27.1421C46.7748 27.5232 46.6308 27.8886 46.3746 28.1581C46.1183 28.4276 45.7708 28.5789 45.4084 28.5789H45.4114Z" fill="#060B29"/>
<path d="M47 41.6534C47 42.0283 46.8453 42.3878 46.57 42.6528C46.2947 42.9179 45.9213 43.0668 45.5319 43.0668H37.4894C37.2908 43.0762 37.0923 43.0466 36.9059 42.9799C36.7195 42.9132 36.5492 42.8107 36.4052 42.6787C36.2612 42.5467 36.1465 42.3879 36.0682 42.212C35.9898 42.036 35.9494 41.8466 35.9494 41.6551C35.9494 41.4637 35.9898 41.2742 36.0682 41.0983C36.1465 40.9223 36.2612 40.7635 36.4052 40.6315C36.5492 40.4995 36.7195 40.397 36.9059 40.3303C37.0923 40.2636 37.2908 40.234 37.4894 40.2434H45.5319C45.9207 40.2434 46.2936 40.3919 46.5688 40.6562C46.844 40.9205 46.9991 41.2792 47 41.6534ZM33.5476 40.6341C33.5818 40.7336 33.586 40.8403 33.5598 40.9419C33.5336 41.0435 33.4779 41.1359 33.3994 41.2083L32.016 42.5096L32.3442 44.3477C32.358 44.4277 32.3536 44.5097 32.3312 44.588C32.3089 44.6662 32.2692 44.7389 32.2148 44.8009C32.1604 44.8629 32.0927 44.9129 32.0164 44.9472C31.94 44.9816 31.8568 44.9996 31.7725 45C31.6778 45.0001 31.5846 44.9779 31.5008 44.9354L29.7928 44.0657L28.0777 44.932C27.982 44.9815 27.8737 45.0039 27.7654 44.9969C27.657 44.9899 27.5529 44.9536 27.4649 44.8923C27.3769 44.831 27.3086 44.7471 27.2678 44.6502C27.227 44.5533 27.2154 44.4473 27.2343 44.3443L27.5625 42.5062L26.1756 41.2049C26.098 41.1324 26.043 41.0403 26.017 40.9392C25.991 40.8381 25.9949 40.732 26.0283 40.633C26.0618 40.5339 26.1234 40.4459 26.2062 40.3788C26.289 40.3118 26.3896 40.2684 26.4967 40.2536L28.4129 39.9852L29.2705 38.3136C29.3179 38.2196 29.3919 38.1403 29.484 38.0849C29.576 38.0294 29.6824 38 29.791 38C29.8996 38 30.006 38.0294 30.098 38.0849C30.1901 38.1403 30.264 38.2196 30.3115 38.3136L31.1691 39.9852L33.0853 40.2536C33.1916 40.2691 33.2912 40.313 33.3729 40.3802C33.4547 40.4475 33.5152 40.5355 33.5476 40.6341Z" fill="#97C0FF"/>
<defs>
<filter id="filter0_d_9408_64874" x="0" y="1" width="74" height="74" filterUnits="userSpaceOnUse" color-interpolation-filters="sRGB">
<feFlood flood-opacity="0" result="BackgroundImageFix"/>
<feColorMatrix in="SourceAlpha" type="matrix" values="0 0 0 0 0 0 0 0 0 0 0 0 0 0 0 0 0 0 127 0" result="hardAlpha"/>
<feOffset dy="4"/>
<feGaussianBlur stdDeviation="7.5"/>
<feComposite in2="hardAlpha" operator="out"/>
<feColorMatrix type="matrix" values="0 0 0 0 0 0 0 0 0 0 0 0 0 0 0 0 0 0 0.08 0"/>
<feBlend mode="normal" in2="BackgroundImageFix" result="effect1_dropShadow_9408_64874"/>
<feBlend mode="normal" in="SourceGraphic" in2="effect1_dropShadow_9408_64874" result="shape"/>
</filter>
<filter id="filter1_d_9408_64874" x="0" y="0" width="74" height="74" filterUnits="userSpaceOnUse" color-interpolation-filters="sRGB">
<feFlood flood-opacity="0" result="BackgroundImageFix"/>
<feColorMatrix in="SourceAlpha" type="matrix" values="0 0 0 0 0 0 0 0 0 0 0 0 0 0 0 0 0 0 127 0" result="hardAlpha"/>
<feOffset dy="4"/>
<feGaussianBlur stdDeviation="7.5"/>
<feComposite in2="hardAlpha" operator="out"/>
<feColorMatrix type="matrix" values="0 0 0 0 0 0 0 0 0 0 0 0 0 0 0 0 0 0 0.08 0"/>
<feBlend mode="normal" in2="BackgroundImageFix" result="effect1_dropShadow_9408_64874"/>
<feBlend mode="normal" in="SourceGraphic" in2="effect1_dropShadow_9408_64874" result="shape"/>
</filter>
</defs>
</svg>
