<svg width="74" height="75" viewBox="0 0 74 75" fill="none" xmlns="http://www.w3.org/2000/svg">
<g filter="url(#filter0_d)">
<rect x="15" y="12" width="44" height="44" rx="10" fill="#4B7BE5"/>
</g>
<g filter="url(#filter1_d)">
<rect x="15" y="11" width="44" height="44" rx="10" fill="white"/>
</g>
<path d="M36.8476 32.4603C37.6015 32.4685 38.3489 32.3233 39.0421 32.034C39.7353 31.7447 40.3591 31.3177 40.8736 30.7801C41.4138 30.2471 41.8396 29.6143 42.1261 28.9188C42.4126 28.2234 42.5541 27.4792 42.5422 26.7297C42.554 25.9803 42.4125 25.2361 42.126 24.5407C41.8395 23.8452 41.4137 23.2124 40.8736 22.6793C40.3537 22.1486 39.7289 21.7261 39.0369 21.4375C38.345 21.1488 37.6002 21 36.8476 21C36.095 21 35.3503 21.1488 34.6583 21.4375C33.9663 21.7261 33.3415 22.1486 32.8216 22.6793C32.2814 23.2124 31.8556 23.8451 31.5691 24.5406C31.2826 25.2361 31.1412 25.9803 31.153 26.7297C31.1412 27.4792 31.2826 28.2234 31.5691 28.9188C31.8556 29.6143 32.2814 30.2471 32.8216 30.7801C33.3362 31.3176 33.96 31.7446 34.6532 32.0339C35.3463 32.3232 36.0937 32.4684 36.8476 32.4603Z" fill="#97C0FF"/>
<path d="M46.9468 39.4957C46.9091 38.9926 46.8445 38.4919 46.753 37.9955C46.6625 37.4842 46.5382 36.9791 46.3808 36.4834C46.222 35.9938 46.0123 35.5213 45.7549 35.0732C45.5022 34.6239 45.1842 34.2126 44.8107 33.8521C44.42 33.4866 43.9597 33.1992 43.4559 33.006C42.905 32.7952 42.3176 32.6898 41.7258 32.6955C41.3797 32.7325 41.0529 32.8699 40.7878 33.09C40.5063 33.2716 40.1726 33.4831 39.8112 33.7156C39.4152 33.9509 38.9906 34.1369 38.5471 34.2692C37.5442 34.6001 36.4575 34.6001 35.4546 34.2692C35.0106 34.1371 34.5854 33.9512 34.1889 33.7156C33.826 33.4846 33.4969 33.2746 33.2109 33.09C32.9458 32.8697 32.619 32.7323 32.2728 32.6955C31.6809 32.6901 31.0935 32.796 30.5427 33.0075C30.0384 33.2006 29.5776 33.488 29.1864 33.8536C28.8134 34.2142 28.4959 34.6255 28.2437 35.0748C27.9865 35.5228 27.7767 35.9953 27.6178 36.4849C27.4605 36.9806 27.3362 37.4857 27.2456 37.997C27.1541 38.4934 27.0894 38.9941 27.0519 39.4972C27.0196 39.9472 27.0042 40.4258 27.0042 40.9028C26.9786 41.4537 27.0703 42.0038 27.2736 42.5184C27.4769 43.033 27.7873 43.5009 28.1853 43.8926C28.5926 44.2641 29.0715 44.5531 29.5942 44.7426C30.1169 44.9321 30.673 45.0185 31.2302 44.9967H42.7639C43.3211 45.0186 43.8772 44.9323 44.3999 44.7427C44.9226 44.5532 45.4015 44.2642 45.8088 43.8926C46.2081 43.5013 46.5198 43.0334 46.7242 42.5185C46.9285 42.0036 47.0211 41.4529 46.996 40.9013C46.996 40.4212 46.9791 39.9487 46.9468 39.4957Z" fill="#060B29"/>
<defs>
<filter id="filter0_d" x="0" y="1" width="74" height="74" filterUnits="userSpaceOnUse" color-interpolation-filters="sRGB">
<feFlood flood-opacity="0" result="BackgroundImageFix"/>
<feColorMatrix in="SourceAlpha" type="matrix" values="0 0 0 0 0 0 0 0 0 0 0 0 0 0 0 0 0 0 127 0" result="hardAlpha"/>
<feOffset dy="4"/>
<feGaussianBlur stdDeviation="7.5"/>
<feComposite in2="hardAlpha" operator="out"/>
<feColorMatrix type="matrix" values="0 0 0 0 0 0 0 0 0 0 0 0 0 0 0 0 0 0 0.08 0"/>
<feBlend mode="normal" in2="BackgroundImageFix" result="effect1_dropShadow"/>
<feBlend mode="normal" in="SourceGraphic" in2="effect1_dropShadow" result="shape"/>
</filter>
<filter id="filter1_d" x="0" y="0" width="74" height="74" filterUnits="userSpaceOnUse" color-interpolation-filters="sRGB">
<feFlood flood-opacity="0" result="BackgroundImageFix"/>
<feColorMatrix in="SourceAlpha" type="matrix" values="0 0 0 0 0 0 0 0 0 0 0 0 0 0 0 0 0 0 127 0" result="hardAlpha"/>
<feOffset dy="4"/>
<feGaussianBlur stdDeviation="7.5"/>
<feComposite in2="hardAlpha" operator="out"/>
<feColorMatrix type="matrix" values="0 0 0 0 0 0 0 0 0 0 0 0 0 0 0 0 0 0 0.08 0"/>
<feBlend mode="normal" in2="BackgroundImageFix" result="effect1_dropShadow"/>
<feBlend mode="normal" in="SourceGraphic" in2="effect1_dropShadow" result="shape"/>
</filter>
</defs>
</svg>
