<svg width="74" height="75" viewBox="0 0 74 75" fill="none" xmlns="http://www.w3.org/2000/svg">
<g filter="url(#filter0_d_10836_55921)">
<rect x="15" y="12" width="44" height="44" rx="5" fill="#4B7BE5"/>
</g>
<g filter="url(#filter1_d_10836_55921)">
<rect x="15" y="11" width="44" height="44" rx="5" fill="white"/>
</g>
<path d="M34.0365 21.9039V21.0961C34.0365 21.0203 34.1374 20.9698 34.2132 21.0203L36.3335 22.4844C36.384 22.5349 36.384 22.6106 36.3335 22.6611L34.2132 24.1252C34.1375 24.1757 34.0365 24.1252 34.0365 24.0494V23.267C29.796 23.2416 26.3378 26.6997 26.3378 30.94C26.3378 33.3884 27.5241 35.7359 29.5182 37.1747L28.7357 38.2602C26.3883 36.569 25 33.8177 25 30.9401C25 25.9422 29.0639 21.9039 34.0365 21.9039Z" fill="#97C0FF"/>
<path d="M39.3617 23.6202L38.5793 24.7055C40.5733 26.1444 41.7597 28.4918 41.7597 30.9402C41.7597 35.1807 38.3016 38.6389 34.061 38.6389V37.8565C34.061 37.7808 33.9601 37.7302 33.8842 37.7808L31.7642 39.2196C31.7136 39.2702 31.7136 39.3459 31.7642 39.3964L33.8844 40.8604C33.9601 40.911 34.0612 40.8604 34.0612 40.7847V40.0023C36.2825 40.0023 38.3271 39.1944 39.892 37.8566L40.9521 38.9168C40.6997 39.573 40.8511 40.3301 41.3559 40.8351L44.9907 44.4699C45.6975 45.1767 46.8586 45.1767 47.5654 44.4699C48.2722 43.7632 48.2722 42.602 47.5654 41.8953L43.9558 38.2604C43.4256 37.7302 42.6685 37.6042 42.0374 37.8313L40.9773 36.7712C42.3151 35.2062 43.1229 33.1617 43.1229 30.9404C43.0976 28.0626 41.6839 25.3114 39.3617 23.6202ZM38.5793 27.7093L37.9483 28.3404C38.2765 28.8452 38.5288 29.4257 38.655 30.0316H39.5386C39.7405 30.0316 39.9171 30.2083 39.9171 30.4101V31.4703C39.9171 31.6722 39.7403 31.8488 39.5386 31.8488H38.655C38.5288 32.4547 38.3016 33.0352 37.9483 33.54L38.5793 34.1711C38.7307 34.3225 38.7307 34.575 38.5793 34.7264L37.822 35.4837C37.6706 35.6351 37.4181 35.6351 37.2667 35.4837L36.6356 34.8526C36.1309 35.1808 35.5503 35.4331 34.9445 35.5594V36.4429C34.9445 36.6449 34.7677 36.8215 34.5659 36.8215H33.5058C33.3038 36.8215 33.1272 36.6447 33.1272 36.4429V35.5594C32.5214 35.4331 31.9409 35.206 31.436 34.8526L30.805 35.4837C30.6536 35.6351 30.4011 35.6351 30.2497 35.4837L29.4924 34.7264C29.3409 34.575 29.3409 34.3225 29.4924 34.1711L30.1234 33.54C29.7952 33.0352 29.5429 32.4547 29.4166 31.8488H28.5331C28.3311 31.8488 28.1545 31.672 28.1545 31.4703V30.4101C28.1545 30.2082 28.3313 30.0316 28.5331 30.0316H29.4166C29.5429 29.4257 29.77 28.8452 30.1234 28.3404L29.5176 27.7093C29.3661 27.5579 29.3661 27.3054 29.5176 27.154L30.2749 26.3967C30.4263 26.2453 30.6788 26.2453 30.8302 26.3967L31.4612 27.0278C31.966 26.6996 32.5465 26.4473 33.1524 26.321V25.4375C33.1524 25.2355 33.3292 25.0589 33.531 25.0589H34.5911C34.7931 25.0589 34.9697 25.2357 34.9697 25.4375V26.321C35.5755 26.4472 36.156 26.6744 36.6608 27.0278L37.2919 26.3967C37.4433 26.2453 37.6958 26.2453 37.8472 26.3967L38.6045 27.154C38.7307 27.3056 38.7307 27.5579 38.5793 27.7093Z" fill="black"/>
<path d="M35.988 30.0821L35.2307 29.3248L33.4892 31.0413L32.7573 30.3094L32 31.0667L33.4892 32.5559L34.2465 31.7986L35.988 30.0821Z" fill="#4B7BE5"/>
<defs>
<filter id="filter0_d_10836_55921" x="0" y="1" width="74" height="74" filterUnits="userSpaceOnUse" color-interpolation-filters="sRGB">
<feFlood flood-opacity="0" result="BackgroundImageFix"/>
<feColorMatrix in="SourceAlpha" type="matrix" values="0 0 0 0 0 0 0 0 0 0 0 0 0 0 0 0 0 0 127 0" result="hardAlpha"/>
<feOffset dy="4"/>
<feGaussianBlur stdDeviation="7.5"/>
<feComposite in2="hardAlpha" operator="out"/>
<feColorMatrix type="matrix" values="0 0 0 0 0 0 0 0 0 0 0 0 0 0 0 0 0 0 0.08 0"/>
<feBlend mode="normal" in2="BackgroundImageFix" result="effect1_dropShadow_10836_55921"/>
<feBlend mode="normal" in="SourceGraphic" in2="effect1_dropShadow_10836_55921" result="shape"/>
</filter>
<filter id="filter1_d_10836_55921" x="0" y="0" width="74" height="74" filterUnits="userSpaceOnUse" color-interpolation-filters="sRGB">
<feFlood flood-opacity="0" result="BackgroundImageFix"/>
<feColorMatrix in="SourceAlpha" type="matrix" values="0 0 0 0 0 0 0 0 0 0 0 0 0 0 0 0 0 0 127 0" result="hardAlpha"/>
<feOffset dy="4"/>
<feGaussianBlur stdDeviation="7.5"/>
<feComposite in2="hardAlpha" operator="out"/>
<feColorMatrix type="matrix" values="0 0 0 0 0 0 0 0 0 0 0 0 0 0 0 0 0 0 0.08 0"/>
<feBlend mode="normal" in2="BackgroundImageFix" result="effect1_dropShadow_10836_55921"/>
<feBlend mode="normal" in="SourceGraphic" in2="effect1_dropShadow_10836_55921" result="shape"/>
</filter>
</defs>
</svg>
