<svg width="16" height="15" viewBox="0 0 16 15" fill="none" xmlns="http://www.w3.org/2000/svg">
<path d="M10.0005 7.95016C10.086 7.99067 10.1812 8.00618 10.2751 7.99469C10.3691 7.98331 10.4578 7.94547 10.531 7.88565L14.8166 4.38567C14.9327 4.2907 15 4.14862 15 3.99873C15 3.84874 14.9327 3.70665 14.8166 3.61168L10.531 0.111703C10.4327 0.0319039 10.3077 -0.00760439 10.1813 0.00121269C10.055 0.0100298 9.93668 0.0663894 9.85028 0.159023C9.764 0.251657 9.71589 0.37353 9.716 0.500192V2.02718C5.76761 2.25419 4 4.26814 4 8.49999C4 8.62042 4.04342 8.73671 4.12233 8.82768C4.20125 8.91864 4.3103 8.97801 4.42951 8.99498C4.45295 8.99833 4.4765 9 4.50005 9C4.60832 8.99989 4.7138 8.96473 4.80031 8.89955C4.88692 8.83449 4.94999 8.74308 4.98013 8.63895C4.98816 8.61094 5.80118 5.96097 9.56945 5.96097H9.71544V7.50002C9.71578 7.59422 9.74268 7.68651 9.79313 7.76609C9.84347 7.84578 9.91546 7.9095 10.0005 7.95002L10.0005 7.95016Z" fill="#34B751"/>
<path d="M3.077 15.0007H12.9234C13.7392 14.9997 14.5213 14.6753 15.0981 14.0983C15.675 13.5215 15.9995 12.7395 16.0004 11.9237V6.38506C16.0004 6.16513 15.8831 5.96198 15.6927 5.85209C15.5023 5.74219 15.2677 5.74219 15.0773 5.85209C14.8869 5.96198 14.7696 6.16514 14.7696 6.38506V11.9237C14.7696 12.4134 14.5751 12.8829 14.2289 13.2292C13.8826 13.5754 13.4131 13.7699 12.9234 13.7699H3.077C2.58729 13.7699 2.11779 13.5754 1.77148 13.2292C1.42531 12.8829 1.2308 12.4134 1.2308 11.9237V3.30805C1.2308 2.81833 1.42531 2.34884 1.77148 2.00252C2.11778 1.65636 2.58729 1.46185 3.077 1.46185H6.15401C6.37393 1.46185 6.57709 1.34454 6.68698 1.15415C6.79688 0.963759 6.79688 0.729137 6.68698 0.538749C6.57709 0.348362 6.37393 0.231049 6.15401 0.231049H3.077C2.26119 0.23201 1.47914 0.556469 0.902354 1.1334C0.325424 1.71019 0.000949476 2.49224 0 3.30805V11.9237C0.000961573 12.7395 0.325421 13.5215 0.902354 14.0983C1.47914 14.6752 2.26119 14.9997 3.077 15.0007Z" fill="#34B751"/>
</svg>
