<svg width="110" height="110" viewBox="0 0 110 110" fill="none" xmlns="http://www.w3.org/2000/svg">
<rect x="15" y="12" width="80" height="80" rx="10" fill="#4B7BE5"/>
<g filter="url(#filter0_d)">
<rect x="15" y="11" width="80" height="80" rx="10" fill="white"/>
</g>
<path d="M56.5517 63.7503L71.2665 60.4475C71.5114 60.3922 71.7236 60.2446 71.8566 60.0372C71.9895 59.8298 72.0323 59.5795 71.9755 59.3414C71.9186 59.1033 71.7669 58.8969 71.5535 58.7676C71.3402 58.6383 71.0828 58.5968 70.838 58.652L68.5977 59.1539C68.3714 58.2678 69.0735 61.23 65.0718 44.2149C64.9888 43.8661 64.7674 43.5633 64.4556 43.3728C64.1439 43.1822 63.7673 43.1193 63.4081 43.1977L58.0137 44.411L59.23 49.5829C59.2713 49.7584 59.2395 49.9427 59.1415 50.0954C59.0435 50.2481 58.8872 50.3569 58.7069 50.3979L55.3291 51.1577C55.1496 51.1956 54.962 51.1636 54.8064 51.0685C54.6509 50.9734 54.5399 50.8229 54.4973 50.6491L53.281 45.4711C48.3788 46.587 48.646 46.5288 48.0669 46.6679L45.5171 35.8444C45.4537 35.5465 45.3304 35.2637 45.1544 35.0122C44.9785 34.7607 44.7532 34.5454 44.4916 34.3787C44.2299 34.2119 43.937 34.097 43.6297 34.0404C43.3223 33.9838 43.0064 33.9867 42.7002 34.0489L38.6985 34.9497C38.4621 35.0119 38.2597 35.1609 38.134 35.3653C38.0083 35.5697 37.9691 35.8135 38.0246 36.0455C38.0802 36.2775 38.2262 36.4794 38.4318 36.6088C38.6375 36.7381 38.8867 36.7848 39.1271 36.739L43.1224 35.8383C43.2514 35.8259 43.3803 35.8623 43.4824 35.9399C43.5844 36.0175 43.6519 36.1303 43.6707 36.2549L49.084 59.2403C49.877 58.9083 50.7407 58.7675 51.6017 58.8301C52.4626 58.8926 53.2953 59.1566 54.0287 59.5996C54.7621 60.0425 55.3746 60.6513 55.8139 61.374C56.2532 62.0967 56.5063 62.912 56.5517 63.7503ZM58.8708 57.6103L64.5424 56.3847C64.7795 56.3482 65.0221 56.4007 65.2208 56.5317C65.4195 56.6626 65.5596 56.8622 65.6125 57.0899C65.6654 57.3176 65.6273 57.5564 65.5058 57.7577C65.3843 57.959 65.1886 58.1079 64.9583 58.174L59.2867 59.3996C58.1038 59.7133 57.6356 57.8805 58.8708 57.6103Z" fill="#060B29"/>
<path d="M55.1878 63.1243C55.0061 62.3564 54.5943 61.6581 54.0044 61.1179C53.4145 60.5776 52.6731 60.2196 51.8739 60.0891C51.0747 59.9587 50.2537 60.0617 49.5148 60.3851C48.7758 60.7084 48.1521 61.2377 47.7225 61.9058C47.2929 62.574 47.0768 63.351 47.1015 64.1386C47.1262 64.9262 47.3906 65.689 47.8612 66.3305C48.3319 66.972 48.9876 67.4633 49.7454 67.7423C50.5033 68.0213 51.3292 68.0754 52.1188 67.8979C52.6427 67.7806 53.1378 67.5641 53.5757 67.2607C54.0136 66.9573 54.3857 66.5729 54.6707 66.1296C54.9557 65.6863 55.1481 65.1927 55.2368 64.677C55.3255 64.1613 55.3089 63.6337 55.1878 63.1243ZM51.1987 65.2446C50.9494 65.2446 50.7057 65.1727 50.4985 65.038C50.2912 64.9033 50.1297 64.7119 50.0343 64.488C49.9389 64.2641 49.9139 64.0176 49.9625 63.7799C50.0112 63.5422 50.1312 63.3238 50.3075 63.1524C50.4837 62.981 50.7083 62.8643 50.9528 62.817C51.1973 62.7697 51.4507 62.794 51.681 62.8867C51.9113 62.9795 52.1082 63.1366 52.2466 63.3381C52.3851 63.5397 52.4591 63.7766 52.4591 64.019C52.4581 64.3437 52.325 64.6549 52.0888 64.8845C51.8527 65.1141 51.5327 65.2436 51.1987 65.2446Z" fill="#4B7BE5"/>
<defs>
<filter id="filter0_d" x="0" y="0" width="110" height="110" filterUnits="userSpaceOnUse" color-interpolation-filters="sRGB">
<feFlood flood-opacity="0" result="BackgroundImageFix"/>
<feColorMatrix in="SourceAlpha" type="matrix" values="0 0 0 0 0 0 0 0 0 0 0 0 0 0 0 0 0 0 127 0" result="hardAlpha"/>
<feOffset dy="4"/>
<feGaussianBlur stdDeviation="7.5"/>
<feComposite in2="hardAlpha" operator="out"/>
<feColorMatrix type="matrix" values="0 0 0 0 0 0 0 0 0 0 0 0 0 0 0 0 0 0 0.08 0"/>
<feBlend mode="normal" in2="BackgroundImageFix" result="effect1_dropShadow"/>
<feBlend mode="normal" in="SourceGraphic" in2="effect1_dropShadow" result="shape"/>
</filter>
</defs>
</svg>
