
<svg width="74" height="75" viewBox="0 0 74 75" fill="none" xmlns="http://www.w3.org/2000/svg">
<g filter="url(#filter0_d_8600_64286)">
<rect x="15" y="12" width="44" height="44" rx="5" fill="#4B7BE5"/>
</g>
<g filter="url(#filter1_d_8600_64286)">
<rect x="15" y="11" width="44" height="44" rx="5" fill="white"/>
</g>
<path fill-rule="evenodd" clip-rule="evenodd" d="M29 24.0001C29.5522 24.0001 30.0001 24.4481 30.0001 25C30.0001 25.5522 29.5522 26.0001 29 26.0001C28.4481 26.0001 28.0001 25.5522 28.0001 25C28.0001 24.4481 28.4481 24.0001 29 24.0001ZM32 24.0001C32.5522 24.0001 33.0001 24.4481 33.0001 25C33.0001 25.5522 32.5522 26.0001 32 26.0001C31.4481 26.0001 31.0001 25.5522 31.0001 25C31.0001 24.4481 31.4481 24.0001 32 24.0001ZM35 24.0001C35.5522 24.0001 36.0001 24.4481 36.0001 25C36.0001 25.5522 35.5522 26.0001 35 26.0001C34.4481 26.0001 34.0001 25.5522 34.0001 25C34.0001 24.4481 34.4481 24.0001 35 24.0001ZM49.0002 27.0001V21.9999C49.0002 21.448 48.5532 21 48.0002 21H25.9999C25.447 21 25 21.448 25 21.9999V27.0001H49.0002Z" fill="#060B29"/>
<path fill-rule="evenodd" clip-rule="evenodd" d="M25.0002 38.0002H49.0002V29.0002H25.0002V38.0002Z" fill="#060B29"/>
<path fill-rule="evenodd" clip-rule="evenodd" d="M25.0002 40V44.0001C25.0002 44.5521 25.4472 45.0001 26.0002 45.0001H48.0005C48.5534 45.0001 49.0004 44.5521 49.0004 44.0001V40H25.0002Z" fill="#97C0FF"/>
<defs>
<filter id="filter0_d_8600_64286" x="0" y="1" width="74" height="74" filterUnits="userSpaceOnUse" color-interpolation-filters="sRGB">
<feFlood flood-opacity="0" result="BackgroundImageFix"/>
<feColorMatrix in="SourceAlpha" type="matrix" values="0 0 0 0 0 0 0 0 0 0 0 0 0 0 0 0 0 0 127 0" result="hardAlpha"/>
<feOffset dy="4"/>
<feGaussianBlur stdDeviation="7.5"/>
<feComposite in2="hardAlpha" operator="out"/>
<feColorMatrix type="matrix" values="0 0 0 0 0 0 0 0 0 0 0 0 0 0 0 0 0 0 0.08 0"/>
<feBlend mode="normal" in2="BackgroundImageFix" result="effect1_dropShadow_8600_64286"/>
<feBlend mode="normal" in="SourceGraphic" in2="effect1_dropShadow_8600_64286" result="shape"/>
</filter>
<filter id="filter1_d_8600_64286" x="0" y="0" width="74" height="74" filterUnits="userSpaceOnUse" color-interpolation-filters="sRGB">
<feFlood flood-opacity="0" result="BackgroundImageFix"/>
<feColorMatrix in="SourceAlpha" type="matrix" values="0 0 0 0 0 0 0 0 0 0 0 0 0 0 0 0 0 0 127 0" result="hardAlpha"/>
<feOffset dy="4"/>
<feGaussianBlur stdDeviation="7.5"/>
<feComposite in2="hardAlpha" operator="out"/>
<feColorMatrix type="matrix" values="0 0 0 0 0 0 0 0 0 0 0 0 0 0 0 0 0 0 0.08 0"/>
<feBlend mode="normal" in2="BackgroundImageFix" result="effect1_dropShadow_8600_64286"/>
<feBlend mode="normal" in="SourceGraphic" in2="effect1_dropShadow_8600_64286" result="shape"/>
</filter>
</defs>
</svg>
