<svg width="110" height="110" viewBox="0 0 110 110" fill="none" xmlns="http://www.w3.org/2000/svg">
<rect x="15" y="12" width="80" height="80" rx="10" fill="#4B7BE5"/>
<g filter="url(#filter0_d_8568_58229)">
<rect x="15" y="11" width="80" height="80" rx="10" fill="white"/>
</g>
<path d="M61.75 43.017V48.6083H67.2688L61.75 43.017Z" fill="#060B29"/>
<path d="M60.8522 50.4612C60.3536 50.4612 59.9546 50.057 59.9546 49.5516L59.9548 42.3095H56.7631V42.478C56.7631 48.1033 50.779 51.3706 50.0809 51.7411C49.7483 51.9096 49.3495 52.0106 48.9506 52.0106C48.7511 52.0106 48.5517 51.977 48.3523 51.9432L48.3521 66.1579C48.3521 66.6295 48.7178 67 49.1832 67H67.1688C67.6342 67 67.9999 66.6295 67.9999 66.1579V50.4611L60.8522 50.4612ZM63.379 63.8001H52.9068C52.4082 63.8001 52.0091 63.3959 52.0091 62.8905C52.0091 62.3854 52.4079 61.981 52.9068 61.981H63.379C63.8776 61.981 64.2767 62.3851 64.2767 62.8905C64.3101 63.3957 63.911 63.8001 63.3792 63.8001H63.379ZM63.379 59.5221H52.9068C52.4082 59.5221 52.0091 59.118 52.0091 58.6126C52.0091 58.1074 52.4079 57.7031 52.9068 57.7031H63.379C63.8776 57.7031 64.2767 58.1072 64.2767 58.6126C64.3101 59.118 63.911 59.5221 63.3792 59.5221H63.379ZM63.379 55.278H52.9068C52.4082 55.278 52.0091 54.8738 52.0091 54.3685C52.0091 53.8633 52.4079 53.4589 52.9068 53.4589H63.379C63.8776 53.4589 64.2767 53.8631 64.2767 54.3685C64.2767 54.8736 63.911 55.278 63.3792 55.278H63.379Z" fill="#060B29"/>
<path d="M48.9505 50.158C49.0502 50.158 49.15 50.1244 49.2497 50.0906C49.4825 49.9895 54.9015 47.0927 54.9015 42.4779V38.638C54.9015 38.301 54.6355 38.0318 54.3364 37.9979C50.6462 37.6274 49.5825 35.4716 49.5159 35.3705C49.4162 35.1346 49.1834 35 48.9508 35C48.7179 35 48.4853 35.1346 48.3856 35.3705C48.3525 35.4716 47.2554 37.5937 43.5651 37.9979C43.2326 38.0315 43 38.301 43 38.638V42.4779C43 47.0926 48.4522 49.9558 48.685 50.0906C48.7511 50.158 48.8509 50.158 48.9506 50.158H48.9505ZM47.6208 44.9033L46.1249 43.3876C45.7592 43.0171 45.7592 42.4444 46.1249 42.0739C46.4906 41.7034 47.0557 41.7034 47.4214 42.0739L48.2857 42.9496L50.5132 40.6928C50.8789 40.3223 51.444 40.3223 51.8097 40.6928C52.1754 41.0633 52.1754 41.636 51.8097 42.0065L48.9506 44.9033C48.7844 45.0718 48.5518 45.1728 48.3189 45.1728C48.0198 45.1728 47.7872 45.0718 47.6209 44.9033H47.6208Z" fill="#4B7BE5"/>
<defs>
<filter id="filter0_d_8568_58229" x="0" y="0" width="110" height="110" filterUnits="userSpaceOnUse" color-interpolation-filters="sRGB">
<feFlood flood-opacity="0" result="BackgroundImageFix"/>
<feColorMatrix in="SourceAlpha" type="matrix" values="0 0 0 0 0 0 0 0 0 0 0 0 0 0 0 0 0 0 127 0" result="hardAlpha"/>
<feOffset dy="4"/>
<feGaussianBlur stdDeviation="7.5"/>
<feComposite in2="hardAlpha" operator="out"/>
<feColorMatrix type="matrix" values="0 0 0 0 0 0 0 0 0 0 0 0 0 0 0 0 0 0 0.08 0"/>
<feBlend mode="normal" in2="BackgroundImageFix" result="effect1_dropShadow_8568_58229"/>
<feBlend mode="normal" in="SourceGraphic" in2="effect1_dropShadow_8568_58229" result="shape"/>
</filter>
</defs>
</svg>
