<svg width="74" height="74" viewBox="0 0 74 74" fill="none" xmlns="http://www.w3.org/2000/svg">
<g filter="url(#filter0_d_203_22496)">
<rect x="15" y="11" width="44" height="44" rx="10" fill="#111156"/>
</g>
<rect x="15" y="10" width="44" height="44" rx="10" fill="white"/>
<path d="M44.4529 35.1253V35.1231L42.7494 30.8114L42.7459 30.8044C42.7355 30.7807 42.7234 30.7575 42.7099 30.7353C42.7017 30.7206 42.6954 30.705 42.6865 30.6921C42.6733 30.6737 42.659 30.6564 42.6437 30.6398C42.6323 30.6247 42.6201 30.6102 42.6071 30.5965C42.5925 30.583 42.5772 30.5703 42.5614 30.5585C42.5454 30.543 42.5286 30.5286 42.5111 30.5152C42.4966 30.5052 42.4798 30.4979 42.4645 30.4894C42.4436 30.4768 42.4218 30.4652 42.3995 30.455L42.3923 30.4511C42.3764 30.4446 42.3606 30.4421 42.3448 30.4372C42.3233 30.4295 42.3013 30.4233 42.279 30.4183C42.258 30.4147 42.2371 30.412 42.2159 30.4106C42.1955 30.4079 42.1751 30.4064 42.1547 30.4058C42.1326 30.4058 42.112 30.4089 42.0886 30.411C42.0651 30.4131 42.0497 30.4141 42.0304 30.4179C42.0069 30.4232 41.9839 30.4297 41.9614 30.4378C41.9465 30.443 41.9311 30.4452 41.9162 30.4511L41.909 30.455C41.8868 30.465 41.8651 30.4764 41.8443 30.4892C41.8285 30.4979 41.8119 30.5052 41.7974 30.515C41.7829 30.5251 41.765 30.5415 41.7488 30.5548C41.7326 30.5681 41.716 30.5799 41.7013 30.5946C41.6868 30.6093 41.6783 30.6232 41.6662 30.6378C41.651 30.655 41.6367 30.6735 41.6235 30.6925C41.6146 30.7058 41.6081 30.7214 41.6001 30.7357C41.5867 30.7583 41.5745 30.7818 41.5637 30.8058L41.5602 30.8127L39.8571 35.1245V35.1266L38.9987 37.2992C38.932 37.4596 38.9318 37.6403 38.9982 37.8009C39.0645 37.9613 39.1917 38.0882 39.3513 38.1528C39.5108 38.2175 39.6893 38.2144 39.8468 38.1445C40.0041 38.0747 40.127 37.9436 40.188 37.7808L40.8813 36.0264H43.4305L44.1237 37.7808C44.1847 37.9436 44.3075 38.0747 44.4648 38.1445C44.6223 38.2144 44.8008 38.2175 44.9603 38.1528C45.1199 38.0882 45.2471 37.9613 45.3134 37.8009C45.3796 37.6403 45.3796 37.4596 45.3128 37.2992L44.4529 35.1253ZM41.3917 34.7278L42.1539 32.7986L42.9158 34.7278H41.3917Z" fill="#97C0FF"/>
<path d="M49.0447 38.805L49.0349 38.8237C48.7337 39.4028 48.0647 40.0687 47.3515 40.6832C46.6192 41.3139 45.7732 41.9459 45.0487 42.4568L43.9387 43.2394L44.2762 41.9239C44.4161 41.3785 44.5217 40.8754 44.5935 40.5011C44.6293 40.3141 44.6565 40.1599 44.6753 40.0492C44.6846 39.9938 44.6918 39.9495 44.6969 39.9175L44.7029 39.8793L44.7046 39.868L44.7051 39.8646C44.7052 39.8638 44.7053 39.8634 44.7053 39.8634L44.7061 39.8575L44.7062 39.8575C44.7129 39.8135 44.7004 39.7702 44.6743 39.7385C44.645 39.705 44.6046 39.6867 44.5636 39.6854H36.9583L49.0447 38.805ZM49.0447 38.805L49.0528 38.7855M49.0447 38.805L49.0528 38.7855M49.0528 38.7855C49.0562 38.7773 49.0605 38.7696 49.0653 38.7627L48.6554 38.4763L49.064 38.7646M49.0528 38.7855L49.064 38.7646M49.064 38.7646C49.3163 38.4069 49.4499 37.9782 49.446 37.5398L49.064 38.7646ZM48.446 37.5422L48.446 37.5473C48.4484 37.7774 48.3783 38.0018 48.2469 38.1881L48.2456 38.19C48.2046 38.2487 48.1692 38.3113 48.1401 38.3768C47.932 38.7656 47.4073 39.3152 46.6988 39.9255C46.3352 40.2388 45.9393 40.5546 45.543 40.8561C45.6369 40.3835 45.6872 40.0602 45.695 40.0067C45.7444 39.6801 45.6517 39.346 45.4374 39.0921L45.4374 39.0921L45.4349 39.0892C45.2198 38.8381 44.9074 38.6903 44.5757 38.6855L44.5757 38.6854H44.5685H36.9579H36.9574C36.6611 38.6857 36.3754 38.5668 36.1637 38.3529C35.9519 38.139 35.8314 37.8473 35.8306 37.5416V30.9824C35.8311 30.6762 35.9515 30.3839 36.1636 30.1691C36.3754 29.9546 36.6612 29.8351 36.9582 29.8346H47.318C47.6149 29.8351 47.9007 29.9546 48.1126 30.1691C48.3247 30.3839 48.4452 30.6764 48.4456 30.9827L48.446 37.5422H48.446ZM35.2584 39.2702L35.2583 39.2701C34.8061 38.813 34.5505 38.1914 34.5495 37.5416V32.6988V30.9821V30.9176L34.5339 30.8582C34.5338 30.8578 34.5337 30.8572 34.5335 30.8565C34.5326 30.8525 34.5308 30.8445 34.5286 30.8326C34.524 30.8088 34.5174 30.7701 34.5117 30.7191C34.5003 30.6165 34.4928 30.468 34.5107 30.2939C34.5462 29.9491 34.6794 29.5084 35.0808 29.107C35.4852 28.7025 35.9309 28.56 36.2795 28.5165C36.4553 28.4945 36.6049 28.4981 36.7082 28.5067C36.7595 28.511 36.7985 28.5165 36.8225 28.5204C36.8345 28.5224 36.8426 28.5239 36.8466 28.5247C36.8473 28.5249 36.8479 28.525 36.8484 28.5251L36.9009 28.5372H36.9578H47.3184C47.955 28.5381 48.5664 28.7944 49.0182 29.252L49.0183 29.2521C49.4707 29.7101 49.7263 30.3323 49.7271 30.9826L49.7271 37.5421L49.7271 37.5433C49.7282 38.0271 49.5861 38.4995 49.3198 38.8995L49.304 38.9232L49.2911 38.9484C49.0746 39.3705 48.6375 39.8825 48.0598 40.431C47.4905 40.9714 46.8181 41.5162 46.1681 42.0059C45.5193 42.4948 44.8995 42.9238 44.4383 43.2326C44.208 43.3869 44.0177 43.5108 43.8839 43.5969C43.7707 43.6696 43.7025 43.7123 43.6833 43.7243C43.6801 43.7263 43.6782 43.7275 43.6778 43.7278L43.6778 43.7278L43.6734 43.7304C43.649 43.7452 43.6217 43.7529 43.5945 43.7534C43.5518 43.7534 43.5093 43.7319 43.4825 43.6918L43.4824 43.6917C43.4553 43.6509 43.4496 43.5976 43.4685 43.5511L43.4719 43.5429L43.4749 43.5346C43.8273 42.5726 44.1001 41.5832 44.2911 40.5757L44.4035 39.9826H43.7999H36.9579H36.9578C36.3218 39.9827 35.7104 39.7272 35.2584 39.2702Z" stroke="#97C0FF"/>
<path d="M29.6934 27.0142V27.0121L31.3731 22.7675L31.3765 22.7607C31.3868 22.7373 31.3987 22.7145 31.412 22.6927C31.4201 22.6782 31.4263 22.6628 31.4351 22.6501C31.4481 22.632 31.4622 22.6149 31.4772 22.5986C31.4885 22.5838 31.5006 22.5695 31.5133 22.556C31.5278 22.5427 31.5428 22.5302 31.5585 22.5186C31.5742 22.5034 31.5908 22.4891 31.6081 22.476C31.6224 22.4661 31.6389 22.4589 31.6539 22.4506C31.6746 22.4382 31.6961 22.4268 31.718 22.4167L31.7252 22.4129C31.7408 22.4065 31.7564 22.404 31.772 22.3992C31.7932 22.3916 31.8149 22.3856 31.8369 22.3806C31.8575 22.377 31.8782 22.3744 31.8991 22.373C31.9192 22.3704 31.9393 22.3688 31.9594 22.3683C31.9812 22.3683 32.0015 22.3713 32.0247 22.3734C32.0478 22.3755 32.063 22.3764 32.082 22.3802C32.1051 22.3854 32.1279 22.3918 32.1501 22.3998C32.1647 22.4049 32.1799 22.407 32.1946 22.4129L32.2018 22.4167C32.2236 22.4266 32.245 22.4378 32.2655 22.4504C32.2811 22.4589 32.2974 22.4661 32.3117 22.4758C32.326 22.4857 32.3437 22.5019 32.3597 22.515C32.3756 22.5281 32.392 22.5397 32.4065 22.5541C32.4208 22.5686 32.4292 22.5823 32.4411 22.5967C32.4561 22.6136 32.4702 22.6319 32.4832 22.6505C32.492 22.6636 32.4984 22.679 32.5063 22.693C32.5195 22.7153 32.5315 22.7385 32.5422 22.762L32.5456 22.7689L34.2249 27.0134V27.0155L35.0712 29.1542C35.137 29.3121 35.1372 29.49 35.0718 29.6481C35.0064 29.806 34.881 29.9309 34.7236 29.9945C34.5663 30.0582 34.3903 30.0552 34.2351 29.9864C34.08 29.9176 33.9587 29.7885 33.8986 29.6283L33.2151 27.9013H30.7015L30.018 29.6283C29.9578 29.7885 29.8367 29.9176 29.6816 29.9864C29.5264 30.0552 29.3504 30.0582 29.1931 29.9945C29.0357 29.9309 28.9103 29.806 28.8449 29.6481C28.7797 29.49 28.7797 29.3121 28.8455 29.1542L29.6934 27.0142ZM32.7118 26.6229L31.9602 24.7238L31.209 26.6229H32.7118Z" fill="#97C0FF"/>
<path d="M25.2632 29.3934C25.2598 29.7229 25.3602 30.0449 25.5497 30.313C25.5747 30.3487 25.5959 30.3873 25.6128 30.4278C26.1097 31.3814 27.9751 32.8329 29.3901 33.8291C29.1079 32.7309 28.9648 31.8071 28.9564 31.7474C28.9282 31.5642 28.9803 31.3776 29.0994 31.2366C29.2203 31.0958 29.395 31.0137 29.5794 31.011H37.0835C37.5084 31.0114 37.9161 30.8411 38.2169 30.5378C38.5177 30.2345 38.6871 29.8229 38.688 29.3934V22.9356C38.6875 22.5057 38.5183 22.0935 38.2175 21.7894C37.9167 21.4854 37.509 21.3143 37.0836 21.3138H26.868C26.4426 21.3143 26.0349 21.4854 25.7341 21.7894C25.4333 22.0935 25.2642 22.5057 25.2636 22.9356L25.2632 29.3934Z" fill="#111156"/>
<path fill-rule="evenodd" clip-rule="evenodd" d="M39.9512 24.6255V29.3932C39.9501 30.1614 39.6476 30.8978 39.1098 31.4405C38.5721 31.9833 37.8433 32.2881 37.0835 32.2879H30.3373C30.5206 33.2533 30.7824 34.2014 31.1206 35.1231C31.2007 35.3196 31.1781 35.5439 31.0605 35.7201C30.9428 35.8964 30.7456 36.0015 30.5352 36C30.4196 35.9987 30.3062 35.9663 30.2068 35.9063C30.1562 35.8765 25.4947 32.969 24.4842 31.0024C24.1673 30.5271 23.9987 29.9666 24 29.3933V22.9355C24.0009 22.167 24.3034 21.4302 24.8411 20.8867C25.3786 20.3432 26.1074 20.0376 26.8677 20.0366H37.0836C37.0836 20.0366 38.2969 19.7573 39.2829 20.7417C40.2689 21.7261 39.9512 22.9356 39.9512 22.9356V24.6255ZM25.5497 30.313C25.3602 30.0449 25.2598 29.7229 25.2632 29.3934L25.2636 22.9356C25.2642 22.5057 25.4333 22.0935 25.7341 21.7894C26.0349 21.4854 26.4426 21.3143 26.868 21.3138H37.0836C37.509 21.3143 37.9167 21.4854 38.2175 21.7894C38.5183 22.0935 38.6875 22.5057 38.688 22.9356V29.3934C38.6871 29.8229 38.5177 30.2345 38.2169 30.5378C37.9161 30.8411 37.5084 31.0114 37.0835 31.011H29.5794C29.395 31.0137 29.2203 31.0958 29.0994 31.2366C28.9803 31.3776 28.9282 31.5642 28.9564 31.7474C28.9648 31.8071 29.1079 32.7309 29.3901 33.8291C27.9751 32.8329 26.1097 31.3814 25.6128 30.4278C25.5959 30.3873 25.5747 30.3487 25.5497 30.313Z" fill="#111156"/>
<path d="M32.3653 29.4096C31.5424 29.8909 30.6034 30.1305 29.6534 30.1015H29.6406C29.2869 30.1015 29 29.8111 29 29.4528C29 29.0947 29.2869 28.8042 29.6406 28.8042H29.6534C30.2189 28.8171 30.7811 28.7142 31.3062 28.5015C30.8762 27.9866 30.5382 27.3998 30.3069 26.7675C30.1796 26.4332 30.3439 26.0575 30.6741 25.9285C31.0043 25.7995 31.3754 25.9661 31.5027 26.3005C31.6926 26.8364 31.9859 27.3289 32.3653 27.7491C32.8885 27.1067 33.215 26.3236 33.3048 25.496H29.6406C29.2869 25.496 29 25.2057 29 24.8474C29 24.4893 29.2869 24.1987 29.6406 24.1987H31.652L31.6522 23.0615C31.6522 22.7034 31.939 22.4128 32.2928 22.4128C32.6465 22.4128 32.9335 22.7034 32.9335 23.0615V24.1987H34.9407C35.2944 24.1987 35.5813 24.4893 35.5813 24.8474C35.5813 25.2057 35.2944 25.496 34.9407 25.496H34.5946C34.4989 26.5949 34.0877 27.641 33.4116 28.5059C33.8284 28.6852 34.2746 28.785 34.7272 28.7999C34.4187 29.1528 34.2015 29.5779 34.0949 30.0365C33.4822 29.9495 32.8936 29.7361 32.3653 29.4096Z" fill="#D9D9D9"/>
<defs>
<filter id="filter0_d_203_22496" x="0" y="0" width="74" height="74" filterUnits="userSpaceOnUse" color-interpolation-filters="sRGB">
<feFlood flood-opacity="0" result="BackgroundImageFix"/>
<feColorMatrix in="SourceAlpha" type="matrix" values="0 0 0 0 0 0 0 0 0 0 0 0 0 0 0 0 0 0 127 0" result="hardAlpha"/>
<feOffset dy="4"/>
<feGaussianBlur stdDeviation="7.5"/>
<feComposite in2="hardAlpha" operator="out"/>
<feColorMatrix type="matrix" values="0 0 0 0 0 0 0 0 0 0 0 0 0 0 0 0 0 0 0.08 0"/>
<feBlend mode="normal" in2="BackgroundImageFix" result="effect1_dropShadow_203_22496"/>
<feBlend mode="normal" in="SourceGraphic" in2="effect1_dropShadow_203_22496" result="shape"/>
</filter>
</defs>
</svg>
