<svg width="110" height="111" viewBox="0 0 110 111" fill="none" xmlns="http://www.w3.org/2000/svg">
<g filter="url(#filter0_d_8568_58210)">
<rect x="15" y="12" width="80" height="80" rx="10" fill="#4B7BE5"/>
</g>
<g filter="url(#filter1_d_8568_58210)">
<rect x="15" y="11" width="80" height="80" rx="10" fill="white"/>
</g>
<path d="M58.731 47.8005C56.0406 47.8005 53.9325 46.2495 53.9325 44.2698C53.9325 43.681 54.4102 43.2031 54.9988 43.2031C55.5874 43.2031 56.0652 43.681 56.0652 44.2698C56.0652 44.929 57.2051 45.6671 58.731 45.6671C60.2633 45.6671 61.4075 44.929 61.4075 44.2698C61.4075 43.681 61.8852 43.2031 62.4739 43.2031C63.0625 43.2031 63.5402 43.681 63.5402 44.2698C63.5402 46.2495 61.4278 47.8005 58.731 47.8005Z" fill="black"/>
<path d="M51.2673 47.8005C48.5705 47.8005 46.4581 46.2495 46.4581 44.2698C46.4581 43.681 46.9358 43.2031 47.5245 43.2031C48.1131 43.2031 48.5908 43.681 48.5908 44.2698C48.5908 44.929 49.735 45.6671 51.2673 45.6671C52.7932 45.6671 53.9331 44.929 53.9331 44.2698C53.9331 43.681 54.4109 43.2031 54.9995 43.2031C55.5881 43.2031 56.0658 43.681 56.0658 44.2698C56.0658 46.2495 53.9577 47.8005 51.2673 47.8005Z" fill="black"/>
<path d="M43.2695 53.4111C42.6808 53.4111 42.2031 52.9333 42.2031 52.3445V45.5754L43.3377 45.6479C43.4859 45.6575 43.6341 45.6671 43.792 45.6671C45.3179 45.6671 46.4578 44.929 46.4578 44.2698C46.4578 43.681 46.9355 43.2031 47.5241 43.2031C48.1128 43.2031 48.5905 43.681 48.5905 44.2698C48.5905 46.1141 46.7617 47.5861 44.3358 47.7791V52.3445C44.3358 52.9333 43.8581 53.4111 43.2695 53.4111Z" fill="#060B29"/>
<path d="M67.7955 67.0005H47.5351C46.9465 67.0005 46.4688 66.5226 46.4688 65.9338C46.4688 65.345 46.9465 64.8671 47.5351 64.8671H65.6628V47.7791C63.2369 47.5861 61.4081 46.1141 61.4081 44.2698C61.4081 43.681 61.8858 43.2031 62.4745 43.2031C63.0631 43.2031 63.5408 43.681 63.5408 44.2698C63.5408 44.929 64.6807 45.6671 66.2066 45.6671C66.3645 45.6671 66.5127 45.6575 66.6609 45.6479L67.7955 45.5754V67.0005Z" fill="#060B29"/>
<path d="M61.3969 53.1328H60.3305C59.1544 53.1328 58.1979 54.0896 58.1979 55.2661V57.3995C58.1979 58.576 59.1544 59.5328 60.3305 59.5328H61.3969C62.5731 59.5328 63.5296 58.576 63.5296 57.3995V55.2661C63.5296 54.0896 62.5731 53.1328 61.3969 53.1328Z" fill="#060B29"/>
<path d="M70.8073 43.5536L67.2842 35H42.7158L39.1958 43.5451C39.0081 43.9899 38.9559 44.4144 39.0369 44.8027C39.3568 46.3717 41.0171 47.5653 43.202 47.7765C43.395 47.7893 43.588 47.8 43.7928 47.8C45.3166 47.8 46.6537 47.3029 47.526 46.5115C48.4015 47.3029 49.7408 47.8 51.2678 47.8C52.7905 47.8 54.1266 47.3029 55 46.5125C55.8733 47.3029 57.2094 47.8 58.7321 47.8C60.2591 47.8 61.5984 47.3029 62.4739 46.5115C63.3462 47.3029 64.6834 47.8 66.2072 47.8C66.4119 47.8 66.6049 47.7893 66.832 47.7733C68.9818 47.5653 70.641 46.3728 70.963 44.8048C71.0441 44.4123 70.9918 43.9877 70.8073 43.5536Z" fill="#4B7BE5"/>
<path d="M47.5357 49.9323C45.7645 49.9323 44.0765 50.4646 42.6636 51.4662C40.3731 53.0523 39.005 55.6688 39.005 58.4656C39.005 61.2624 40.3731 63.879 42.654 65.4598C44.0765 66.4667 45.7645 66.999 47.5357 66.999C52.2393 66.999 56.0664 63.1707 56.0664 58.4656C56.0664 53.7606 52.2393 49.9323 47.5357 49.9323Z" fill="#060B29"/>
<rect x="46.2002" y="53.1328" width="2.66667" height="6.66667" rx="1.33333" fill="white"/>
<rect x="46.2002" y="61.1328" width="2.66667" height="2.66667" rx="1.33333" fill="white"/>
<defs>
<filter id="filter0_d_8568_58210" x="0" y="1" width="110" height="110" filterUnits="userSpaceOnUse" color-interpolation-filters="sRGB">
<feFlood flood-opacity="0" result="BackgroundImageFix"/>
<feColorMatrix in="SourceAlpha" type="matrix" values="0 0 0 0 0 0 0 0 0 0 0 0 0 0 0 0 0 0 127 0" result="hardAlpha"/>
<feOffset dy="4"/>
<feGaussianBlur stdDeviation="7.5"/>
<feComposite in2="hardAlpha" operator="out"/>
<feColorMatrix type="matrix" values="0 0 0 0 0 0 0 0 0 0 0 0 0 0 0 0 0 0 0.06 0"/>
<feBlend mode="normal" in2="BackgroundImageFix" result="effect1_dropShadow_8568_58210"/>
<feBlend mode="normal" in="SourceGraphic" in2="effect1_dropShadow_8568_58210" result="shape"/>
</filter>
<filter id="filter1_d_8568_58210" x="0" y="0" width="110" height="110" filterUnits="userSpaceOnUse" color-interpolation-filters="sRGB">
<feFlood flood-opacity="0" result="BackgroundImageFix"/>
<feColorMatrix in="SourceAlpha" type="matrix" values="0 0 0 0 0 0 0 0 0 0 0 0 0 0 0 0 0 0 127 0" result="hardAlpha"/>
<feOffset dy="4"/>
<feGaussianBlur stdDeviation="7.5"/>
<feComposite in2="hardAlpha" operator="out"/>
<feColorMatrix type="matrix" values="0 0 0 0 0 0 0 0 0 0 0 0 0 0 0 0 0 0 0.08 0"/>
<feBlend mode="normal" in2="BackgroundImageFix" result="effect1_dropShadow_8568_58210"/>
<feBlend mode="normal" in="SourceGraphic" in2="effect1_dropShadow_8568_58210" result="shape"/>
</filter>
</defs>
</svg>
