<svg width="74" height="75" viewBox="0 0 74 75" fill="none" xmlns="http://www.w3.org/2000/svg">
<g filter="url(#filter0_d)">
<rect x="15" y="12" width="44" height="44" rx="10" fill="#4B7BE5"/>
</g>
<g filter="url(#filter1_d)">
<rect x="15" y="11" width="44" height="44" rx="10" fill="white"/>
</g>
<path d="M26.8394 23.9842H48.1312C48.2525 23.9842 48.3688 24.0315 48.453 24.1154L48.7114 24.3706V21.4337C48.7114 21.194 48.51 21 48.2613 21H26.7353C26.4866 21 26.2852 21.194 26.2852 21.4337V24.3428L26.5185 24.1138C26.6037 24.031 26.719 23.9842 26.8394 23.9842Z" fill="#060B29"/>
<path d="M48.2332 33.4388C47.2274 33.3107 46.3656 32.7365 45.8701 31.9287C45.3052 32.8481 44.2661 33.4656 43.0802 33.4656C41.8938 33.4656 40.8542 32.8481 40.2902 31.9287C39.7252 32.8481 38.6866 33.4656 37.5002 33.4656C36.3138 33.4656 35.2747 32.8481 34.7102 31.9287C34.1458 32.8481 33.1066 33.4656 31.9203 33.4656C30.7344 33.4656 29.6948 32.8481 29.1303 31.9287C28.645 32.7195 27.8073 33.2881 26.827 33.4306C26.6682 33.4537 26.5056 33.4656 26.3403 33.4656C26.2005 33.4656 26.0629 33.4568 25.9277 33.4404V44.5662C25.9277 44.806 26.1292 44.9999 26.3774 44.9999H48.6828C48.9315 44.9999 49.1329 44.806 49.1329 44.5662V33.4321C48.9787 33.4548 48.8208 33.4656 48.6601 33.4656C48.5156 33.4656 48.373 33.4568 48.2332 33.4388ZM39.3715 40.3179C39.3715 40.5571 39.17 40.7516 38.9218 40.7516H29.0766C28.8279 40.7516 28.6265 40.5571 28.6265 40.3179V35.0688C28.6265 34.8295 28.8279 34.6351 29.0766 34.6351H38.9214C39.1696 34.6351 39.371 34.8295 39.371 35.0688V40.3179H39.3715ZM46.3198 42.1819C46.3198 42.4212 46.1183 42.6157 45.8701 42.6157H41.4062C41.1575 42.6157 40.9561 42.4212 40.9561 42.1819V35.0688C40.9561 34.8295 41.1575 34.6351 41.4062 34.6351H45.8701C46.1183 34.6351 46.3198 34.8295 46.3198 35.0688V42.1819Z" fill="#060B29"/>
<path d="M50.3295 27.2091L47.942 24.8506H44.6074L46.1508 27.2091H50.3295Z" fill="#060B29"/>
<path d="M43.5766 24.9005C43.5664 24.8845 43.5567 24.8681 43.5488 24.8506H40.1504L40.6649 27.2091H45.0871L43.5766 24.9005Z" fill="#060B29"/>
<path d="M35.7664 24.8506L35.252 27.2091H39.7465L39.232 24.8506H35.7664Z" fill="#060B29"/>
<path d="M34.8457 24.8506H31.4477C31.4407 24.865 31.4329 24.8794 31.4241 24.8938L29.9668 27.2091H34.3312L34.8457 24.8506Z" fill="#060B29"/>
<path d="M30.3992 24.8506H27.0276L24.6211 27.2091H28.9151L30.3992 24.8506Z" fill="#060B29"/>
<path d="M28.6802 30.3415V28.0781H24V30.3415C24 31.5861 25.0498 32.5986 26.3399 32.5986C27.6304 32.5986 28.6802 31.5861 28.6802 30.3415Z" fill="#97C0FF"/>
<path d="M29.5781 30.3415C29.5781 31.5861 30.6279 32.5986 31.9185 32.5986C33.209 32.5986 34.2588 31.5861 34.2588 30.3415V28.0781H29.5781V30.3415Z" fill="#97C0FF"/>
<path d="M35.1621 30.3415C35.1621 31.5861 36.2119 32.5986 37.5024 32.5986C38.793 32.5986 39.8428 31.5861 39.8428 30.3415V28.0781H35.1621V30.3415Z" fill="#97C0FF"/>
<path d="M43.0825 32.5986C44.3731 32.5986 45.4229 31.5861 45.4229 30.3415V28.0781H40.7422V30.3415C40.7422 31.5861 41.792 32.5986 43.0825 32.5986Z" fill="#97C0FF"/>
<path d="M46.3184 28.0781V30.3415C46.3184 31.5861 47.3681 32.5986 48.6587 32.5986C49.9493 32.5986 50.9986 31.5861 50.9986 30.3415V28.0781H46.3184Z" fill="#97C0FF"/>
<defs>
<filter id="filter0_d" x="0" y="1" width="74" height="74" filterUnits="userSpaceOnUse" color-interpolation-filters="sRGB">
<feFlood flood-opacity="0" result="BackgroundImageFix"/>
<feColorMatrix in="SourceAlpha" type="matrix" values="0 0 0 0 0 0 0 0 0 0 0 0 0 0 0 0 0 0 127 0" result="hardAlpha"/>
<feOffset dy="4"/>
<feGaussianBlur stdDeviation="7.5"/>
<feComposite in2="hardAlpha" operator="out"/>
<feColorMatrix type="matrix" values="0 0 0 0 0 0 0 0 0 0 0 0 0 0 0 0 0 0 0.08 0"/>
<feBlend mode="normal" in2="BackgroundImageFix" result="effect1_dropShadow"/>
<feBlend mode="normal" in="SourceGraphic" in2="effect1_dropShadow" result="shape"/>
</filter>
<filter id="filter1_d" x="0" y="0" width="74" height="74" filterUnits="userSpaceOnUse" color-interpolation-filters="sRGB">
<feFlood flood-opacity="0" result="BackgroundImageFix"/>
<feColorMatrix in="SourceAlpha" type="matrix" values="0 0 0 0 0 0 0 0 0 0 0 0 0 0 0 0 0 0 127 0" result="hardAlpha"/>
<feOffset dy="4"/>
<feGaussianBlur stdDeviation="7.5"/>
<feComposite in2="hardAlpha" operator="out"/>
<feColorMatrix type="matrix" values="0 0 0 0 0 0 0 0 0 0 0 0 0 0 0 0 0 0 0.08 0"/>
<feBlend mode="normal" in2="BackgroundImageFix" result="effect1_dropShadow"/>
<feBlend mode="normal" in="SourceGraphic" in2="effect1_dropShadow" result="shape"/>
</filter>
</defs>
</svg>
