<svg width="110" height="111" viewBox="0 0 110 111" fill="none" xmlns="http://www.w3.org/2000/svg">
<g filter="url(#filter0_d_8600_65695)">
<rect x="15" y="12" width="80" height="80" rx="10" fill="#4B7BE5"/>
</g>
<g filter="url(#filter1_d_8600_65695)">
<rect x="15" y="11" width="80" height="80" rx="10" fill="white"/>
</g>
<path d="M67.4632 35H42.5368C40.5832 35 39 36.5832 39 38.5368V63.4632C39 65.4168 40.5832 67 42.5368 67H67.4632C69.4168 67 71 65.4168 71 63.4632V38.5368C71 36.5832 69.4168 35 67.4632 35ZM65.8463 52.3474H67.6316C67.3621 54.84 66.3853 57.0968 64.9032 58.9495L63.6232 57.6695C63.0842 57.1305 62.2421 57.1305 61.7032 57.6695C61.1642 58.2084 61.1642 59.0505 61.7032 59.5895L62.9832 60.8695C61.1305 62.3516 58.8737 63.3621 56.3811 63.5979V61.8126C56.3811 61.0716 55.7747 60.4653 55.0337 60.4653C54.2926 60.4653 53.6863 61.0716 53.6863 61.8126V63.5979C51.1937 63.3284 48.9368 62.3516 47.0842 60.8695L48.3642 59.5895C48.9032 59.0505 48.9032 58.2084 48.3642 57.6695C47.8253 57.1305 46.9832 57.1305 46.4442 57.6695L45.1642 58.9495C43.6821 57.0968 42.6716 54.84 42.4021 52.3474H44.1874C44.9284 52.3474 45.5347 51.7411 45.5347 51C45.5347 50.2589 44.9284 49.6526 44.1874 49.6526H42.4021C42.6716 47.16 43.6484 44.9032 45.1642 43.0505L46.4442 44.3305C46.7137 44.6 47.0505 44.7347 47.4211 44.7347C47.7579 44.7347 48.1284 44.6 48.3979 44.3305C48.9368 43.7916 48.9368 42.9495 48.3979 42.4105L47.1179 41.1305C48.9705 39.6484 51.2274 38.6379 53.72 38.4021V40.1874C53.72 40.9284 54.3263 41.5347 55.0674 41.5347C55.8084 41.5347 56.4147 40.9284 56.4147 40.1874V38.4021C58.9074 38.6716 61.1642 39.6484 63.0168 41.1305L61.7368 42.4105C61.1979 42.9495 61.1979 43.7916 61.7368 44.3305C62.0063 44.6 62.3432 44.7347 62.7137 44.7347C63.0505 44.7347 63.4211 44.6 63.6905 44.3305L64.9705 43.0505C66.4526 44.9032 67.4632 47.16 67.6989 49.6526H65.9137C65.1726 49.6526 64.5663 50.2589 64.5663 51C64.5663 51.7411 65.0716 52.3474 65.8463 52.3474Z" fill="#060B29"/>
<path d="M60.3869 49.6529H56.3448V44.6677C56.3448 43.9266 55.7384 43.3203 54.9974 43.3203C54.2563 43.3203 53.65 43.9266 53.65 44.6677V51.0003C53.65 51.7414 54.2563 52.3477 54.9974 52.3477H60.3869C61.1279 52.3477 61.7342 51.7414 61.7342 51.0003C61.7342 50.2593 61.1616 49.6529 60.3869 49.6529Z" fill="#4B7BE5"/>
<defs>
<filter id="filter0_d_8600_65695" x="0" y="1" width="110" height="110" filterUnits="userSpaceOnUse" color-interpolation-filters="sRGB">
<feFlood flood-opacity="0" result="BackgroundImageFix"/>
<feColorMatrix in="SourceAlpha" type="matrix" values="0 0 0 0 0 0 0 0 0 0 0 0 0 0 0 0 0 0 127 0" result="hardAlpha"/>
<feOffset dy="4"/>
<feGaussianBlur stdDeviation="7.5"/>
<feComposite in2="hardAlpha" operator="out"/>
<feColorMatrix type="matrix" values="0 0 0 0 0 0 0 0 0 0 0 0 0 0 0 0 0 0 0.06 0"/>
<feBlend mode="normal" in2="BackgroundImageFix" result="effect1_dropShadow_8600_65695"/>
<feBlend mode="normal" in="SourceGraphic" in2="effect1_dropShadow_8600_65695" result="shape"/>
</filter>
<filter id="filter1_d_8600_65695" x="0" y="0" width="110" height="110" filterUnits="userSpaceOnUse" color-interpolation-filters="sRGB">
<feFlood flood-opacity="0" result="BackgroundImageFix"/>
<feColorMatrix in="SourceAlpha" type="matrix" values="0 0 0 0 0 0 0 0 0 0 0 0 0 0 0 0 0 0 127 0" result="hardAlpha"/>
<feOffset dy="4"/>
<feGaussianBlur stdDeviation="7.5"/>
<feComposite in2="hardAlpha" operator="out"/>
<feColorMatrix type="matrix" values="0 0 0 0 0 0 0 0 0 0 0 0 0 0 0 0 0 0 0.08 0"/>
<feBlend mode="normal" in2="BackgroundImageFix" result="effect1_dropShadow_8600_65695"/>
<feBlend mode="normal" in="SourceGraphic" in2="effect1_dropShadow_8600_65695" result="shape"/>
</filter>
</defs>
</svg>
