<svg width="20" height="20" viewBox="0 0 20 20" fill="none" xmlns="http://www.w3.org/2000/svg">
<path d="M9.30675 9.61643C10.1805 9.61643 10.8889 8.90808 10.8889 8.03429C10.8889 7.1605 10.1805 6.45215 9.30675 6.45215C8.43296 6.45215 7.72461 7.1605 7.72461 8.03429C7.72461 8.90808 8.43296 9.61643 9.30675 9.61643Z" fill="#26A69A"/>
<path d="M10.401 9.46387C10.1727 9.63887 9.90152 9.76027 9.60681 9.80991L9.30814 10.9867L9.00947 9.80991C8.7142 9.76055 8.44304 9.63887 8.21471 9.46387C7.39783 9.76793 6.83594 10.4019 6.83594 11.1348C6.83594 12.1638 7.9427 12.115 9.30814 12.115C10.6733 12.115 11.7801 12.1638 11.7801 11.1348C11.7803 10.4016 11.2179 9.76793 10.401 9.46387Z" fill="#26A69A"/>
<path d="M16.9214 6.63405C18.3591 6.63405 19.5286 5.46432 19.5286 4.02655C19.5286 2.58906 18.3591 1.41933 16.9214 1.41933C15.4839 1.41933 14.3142 2.58906 14.3142 4.02655C14.3142 4.5337 14.4619 5.00567 14.7135 5.40646L13.0088 6.63944C12.1551 5.52587 10.8155 4.80315 9.30707 4.80315C8.14329 4.80315 7.08021 5.234 6.26248 5.94083L4.58929 4.29686C4.97816 3.84133 5.21443 3.25165 5.21443 2.6075C5.21443 1.16973 4.0447 0 2.60722 0C1.16973 0 0 1.16973 0 2.6075C0 4.04499 1.16973 5.21472 2.60722 5.21472C3.22612 5.21472 3.79481 4.99688 4.2424 4.63552L5.91332 6.27695C5.1265 7.11283 4.64034 8.23434 4.64034 9.47016C4.64034 10.6728 5.10154 11.7671 5.85149 12.5956L4.3689 13.9973C3.90402 13.5705 3.2871 13.3072 2.6075 13.3072C1.17001 13.3072 0.000283754 14.477 0.000283754 15.9145C0.000283754 17.3519 1.17001 18.5217 2.6075 18.5217C4.04527 18.5217 5.21471 17.3519 5.21471 15.9145C5.21471 15.3302 5.01929 14.7924 4.69339 14.357L6.19469 12.9379C7.0215 13.6811 8.11067 14.1375 9.30763 14.1375C10.2763 14.1375 11.1771 13.8402 11.9239 13.333L13.4312 15.4813C12.9164 15.9581 12.5913 16.6372 12.5913 17.3925C12.5913 18.8303 13.7611 20 15.1985 20C16.636 20 17.8058 18.8303 17.8058 17.3925C17.8058 15.955 16.636 14.7853 15.1985 14.7853C14.6903 14.7853 14.2172 14.9336 13.8158 15.1864L12.3091 13.0392C13.326 12.1823 13.9744 10.9017 13.9744 9.47073C13.9744 8.57953 13.7188 7.74904 13.2831 7.03937L15.0077 5.79192C15.4847 6.30815 16.1646 6.63405 16.9214 6.63405ZM13.463 9.47016C13.463 11.762 11.5989 13.6263 9.30735 13.6263C7.01526 13.6263 5.1509 11.762 5.1509 9.47016C5.1509 7.17835 7.01526 5.31399 9.30735 5.31399C11.5989 5.31399 13.463 7.17835 13.463 9.47016Z" fill="#26A69A"/>
</svg>