<svg width="74" height="75" viewBox="0 0 74 75" fill="none" xmlns="http://www.w3.org/2000/svg">
<g filter="url(#filter0_d)">
<rect x="15" y="12" width="44" height="44" rx="5" fill="#4B7BE5"/>
</g>
<g filter="url(#filter1_d)">
<rect x="15" y="11" width="44" height="44" rx="5" fill="white"/>
</g>
<path d="M36.4385 32.5403C37.5124 32.5403 38.3829 31.6903 38.3829 30.6417C38.3829 29.5932 37.5124 28.7432 36.4385 28.7432C35.3647 28.7432 34.4941 29.5932 34.4941 30.6417C34.4941 31.6903 35.3647 32.5403 36.4385 32.5403Z" fill="#97C0FF"/>
<path d="M37.7817 32.3564C37.5011 32.5665 37.1679 32.7121 36.8057 32.7717L36.4386 34.1839L36.0716 32.7717C35.7087 32.7125 35.3755 32.5665 35.0949 32.3564C34.0909 32.7213 33.4004 33.482 33.4004 34.3616C33.4004 35.5964 34.7606 35.5379 36.4386 35.5379C38.1164 35.5379 39.4766 35.5964 39.4766 34.3616C39.4769 33.4817 38.7857 32.7213 37.7817 32.3564Z" fill="#4B7BE5"/>
<path d="M45.7958 28.9609C47.5628 28.9609 49 27.5572 49 25.8319C49 24.1069 47.5628 22.7032 45.7958 22.7032C44.0292 22.7032 42.5916 24.1069 42.5916 25.8319C42.5916 26.4404 42.7732 27.0068 43.0824 27.4877L40.9874 28.9673C39.9382 27.631 38.2919 26.7638 36.4381 26.7638C35.0078 26.7638 33.7013 27.2808 32.6964 28.129L30.6401 26.1562C31.118 25.6096 31.4084 24.902 31.4084 24.129C31.4084 22.4037 29.9708 21 28.2042 21C26.4376 21 25 22.4037 25 24.129C25 25.854 26.4376 27.2577 28.2042 27.2577C28.9648 27.2577 29.6637 26.9963 30.2138 26.5626L32.2673 28.5323C31.3003 29.5354 30.7028 30.8812 30.7028 32.3642C30.7028 33.8074 31.2696 35.1205 32.1913 36.1147L30.3692 37.7968C29.7979 37.2845 29.0397 36.9687 28.2045 36.9687C26.4379 36.9687 25.0003 38.3724 25.0003 40.0973C25.0003 41.8223 26.4379 43.226 28.2045 43.226C29.9715 43.226 31.4087 41.8223 31.4087 40.0973C31.4087 39.3962 31.1685 38.7509 30.768 38.2284L32.6131 36.5255C33.6292 37.4173 34.9678 37.9649 36.4388 37.9649C37.6292 37.9649 38.7363 37.6082 39.6541 36.9997L41.5065 39.5776C40.8738 40.1498 40.4743 40.9646 40.4743 41.871C40.4743 43.5963 41.9119 45 43.6785 45C45.4451 45 46.8827 43.5963 46.8827 41.871C46.8827 40.146 45.4451 38.7423 43.6785 38.7423C43.0539 38.7423 42.4724 38.9204 41.9792 39.2236L40.1275 36.647C41.3772 35.6188 42.174 34.082 42.174 32.3649C42.174 31.2954 41.86 30.2988 41.3245 29.4472L43.4439 27.9503C44.0302 28.5698 44.8658 28.9609 45.7958 28.9609ZM41.5455 32.3642C41.5455 35.1144 39.2546 37.3516 36.4384 37.3516C33.6215 37.3516 31.3303 35.1144 31.3303 32.3642C31.3303 29.614 33.6215 27.3768 36.4384 27.3768C39.2546 27.3768 41.5455 29.614 41.5455 32.3642Z" fill="#060B29"/>
<defs>
<filter id="filter0_d" x="0" y="1" width="74" height="74" filterUnits="userSpaceOnUse" color-interpolation-filters="sRGB">
<feFlood flood-opacity="0" result="BackgroundImageFix"/>
<feColorMatrix in="SourceAlpha" type="matrix" values="0 0 0 0 0 0 0 0 0 0 0 0 0 0 0 0 0 0 127 0" result="hardAlpha"/>
<feOffset dy="4"/>
<feGaussianBlur stdDeviation="7.5"/>
<feComposite in2="hardAlpha" operator="out"/>
<feColorMatrix type="matrix" values="0 0 0 0 0 0 0 0 0 0 0 0 0 0 0 0 0 0 0.08 0"/>
<feBlend mode="normal" in2="BackgroundImageFix" result="effect1_dropShadow"/>
<feBlend mode="normal" in="SourceGraphic" in2="effect1_dropShadow" result="shape"/>
</filter>
<filter id="filter1_d" x="0" y="0" width="74" height="74" filterUnits="userSpaceOnUse" color-interpolation-filters="sRGB">
<feFlood flood-opacity="0" result="BackgroundImageFix"/>
<feColorMatrix in="SourceAlpha" type="matrix" values="0 0 0 0 0 0 0 0 0 0 0 0 0 0 0 0 0 0 127 0" result="hardAlpha"/>
<feOffset dy="4"/>
<feGaussianBlur stdDeviation="7.5"/>
<feComposite in2="hardAlpha" operator="out"/>
<feColorMatrix type="matrix" values="0 0 0 0 0 0 0 0 0 0 0 0 0 0 0 0 0 0 0.08 0"/>
<feBlend mode="normal" in2="BackgroundImageFix" result="effect1_dropShadow"/>
<feBlend mode="normal" in="SourceGraphic" in2="effect1_dropShadow" result="shape"/>
</filter>
</defs>
</svg>
