<svg width="19" height="19" viewBox="0 0 19 19" fill="none" xmlns="http://www.w3.org/2000/svg">
<path d="M13.8671 7.55989C13.9545 7.38601 14 7.19412 14 6.99953C14 6.80495 13.9545 6.61306 13.8671 6.43918L13.6837 6.07593C13.6437 5.99731 13.6296 5.90812 13.6432 5.82099L13.705 5.41869C13.7343 5.2264 13.7183 5.02992 13.6581 4.84493C13.598 4.65995 13.4955 4.49158 13.3587 4.35325L13.0721 4.06442C13.01 4.00195 12.969 3.92154 12.955 3.83453L12.8901 3.43296C12.859 3.24319 12.7843 3.06318 12.6721 2.907C12.5599 2.75081 12.4131 2.62267 12.2432 2.53257L11.8903 2.32479L11.8696 2.313C11.791 2.27281 11.7271 2.20887 11.6869 2.13027L11.5005 1.76849C11.4059 1.59442 11.2724 1.44446 11.1106 1.33023C10.9487 1.216 10.7627 1.14057 10.5669 1.10978L10.1683 1.04494C10.0813 1.03093 10.0009 0.989946 9.93843 0.927781L9.64665 0.641159C9.50825 0.504301 9.33975 0.40171 9.15463 0.34158C8.96951 0.28145 8.77289 0.265449 8.58048 0.294854L8.17891 0.356747C8.09178 0.370337 8.00259 0.356159 7.92397 0.316222L7.55998 0.132754C7.38622 0.0454611 7.19446 0 7 0C6.80554 0 6.61378 0.0454611 6.44002 0.132754L6.07677 0.316222C5.99792 0.356265 5.90846 0.370445 5.82109 0.356747L5.41952 0.294854C5.22711 0.26539 5.03048 0.281363 4.84534 0.341496C4.66021 0.401629 4.49172 0.504253 4.35335 0.641159L4.06452 0.927781C4.00208 0.989987 3.92165 1.03097 3.83463 1.04494L3.43306 1.10978C3.23734 1.14057 3.05133 1.216 2.88944 1.33023C2.72756 1.44446 2.59413 1.59442 2.49951 1.76849L2.3131 2.13027C2.27291 2.20887 2.20897 2.27281 2.13037 2.313L1.76859 2.49942C1.59451 2.59404 1.44455 2.72746 1.33033 2.88935C1.2161 3.05123 1.14067 3.23724 1.10987 3.43296L1.04503 3.83158C1.03107 3.91861 0.990084 3.99903 0.927879 4.06147L0.641256 4.35325C0.50435 4.49162 0.401727 4.66011 0.341594 4.84525C0.281461 5.03038 0.265487 5.22702 0.294951 5.41943L0.356844 5.82099C0.370434 5.90812 0.356256 5.99731 0.316319 6.07593L0.132851 6.43992C0.0454946 6.61379 0 6.80569 0 7.00027C0 7.19486 0.0454946 7.38675 0.132851 7.56062L0.316319 7.92387C0.356208 8.00251 0.370384 8.09169 0.356844 8.17881L0.294951 8.58038C0.265666 8.77267 0.281727 8.96915 0.341853 9.15413C0.401979 9.33912 0.504507 9.50749 0.641256 9.64582L0.927879 9.93465C0.990084 9.99709 1.03107 10.0775 1.04503 10.1645L1.10987 10.5661C1.14056 10.762 1.21594 10.9481 1.33018 11.1101C1.44441 11.2722 1.59442 11.4057 1.76859 11.5004L2.13037 11.6868C2.20897 11.727 2.27291 11.7909 2.3131 11.8695L2.49951 12.2313C2.59413 12.4054 2.72756 12.5553 2.88944 12.6696C3.05133 12.7838 3.23734 12.8592 3.43306 12.89L3.83463 12.9549C3.92164 12.9689 4.00205 13.0099 4.06452 13.072L4.35335 13.3586C4.49167 13.4954 4.66005 13.5979 4.84503 13.6581C5.03002 13.7182 5.22649 13.7342 5.41879 13.705L5.82109 13.6431C5.90822 13.6295 5.99741 13.6436 6.07603 13.6836L6.43928 13.8671C6.61316 13.9544 6.80505 13.9999 6.99963 13.9999C7.19422 13.9999 7.38611 13.9544 7.55998 13.8671L7.92323 13.6836C8.00187 13.6437 8.09105 13.6295 8.17817 13.6431L8.58048 13.705C8.77277 13.7342 8.96925 13.7182 9.15423 13.6581C9.33922 13.5979 9.50759 13.4954 9.64592 13.3586L9.93475 13.072C9.99716 13.0098 10.0776 12.9688 10.1646 12.9549L10.5662 12.89C10.756 12.8589 10.936 12.7843 11.0922 12.6721C11.2484 12.5599 11.3765 12.413 11.4666 12.2431L11.6744 11.8902L11.6862 11.8695C11.7263 11.7909 11.7903 11.727 11.8689 11.6868L12.2307 11.5004C12.4035 11.4112 12.5531 11.2827 12.6675 11.1254C12.7819 10.968 12.8579 10.7861 12.8894 10.5941L12.9542 10.1925C12.9682 10.1055 13.0092 10.0251 13.0714 9.96265L13.3661 9.63919C13.5005 9.50097 13.601 9.33351 13.6598 9.14994C13.7186 8.96637 13.7341 8.77168 13.705 8.58112L13.6432 8.17881C13.6296 8.09169 13.6437 8.00249 13.6837 7.92387L13.8671 7.55989Z" fill="url(#paint0_linear)"/>
<path d="M7.00191 2.05664C6.02422 2.05664 5.06848 2.34656 4.25555 2.88974C3.44263 3.43292 2.80903 4.20496 2.43488 5.10823C2.06074 6.0115 1.96284 7.00544 2.15358 7.96435C2.34432 8.92326 2.81512 9.80407 3.50646 10.4954C4.19779 11.1867 5.07861 11.6575 6.03752 11.8483C6.99643 12.039 7.99036 11.9411 8.89364 11.567C9.79691 11.1928 10.5689 10.5592 11.1121 9.74632C11.6553 8.93339 11.9452 7.97765 11.9452 6.99996C11.9396 5.69064 11.417 4.43655 10.4912 3.51072C9.56532 2.58488 8.31123 2.06226 7.00191 2.05664ZM9.85708 5.87041L9.03774 9.14778C9.01557 9.23635 8.96446 9.31497 8.89251 9.37117C8.82056 9.42737 8.73189 9.45792 8.6406 9.45798H5.36323C5.27193 9.45792 5.18327 9.42737 5.11132 9.37117C5.03937 9.31497 4.98825 9.23635 4.96608 9.14778L4.146 5.87041C4.12304 5.77709 4.13362 5.67866 4.17589 5.59234C4.21817 5.50603 4.28944 5.43732 4.37725 5.39825C4.46506 5.35917 4.56381 5.35221 4.65624 5.37859C4.74866 5.40496 4.82886 5.46299 4.88282 5.54253C4.99482 5.70758 5.39859 6.18061 5.77142 6.18061C5.83921 6.18061 6.04921 6.02294 6.26583 5.53442C6.46269 5.0919 6.57419 4.61617 6.59445 4.13226C6.59445 4.07846 6.60505 4.02519 6.62564 3.97548C6.64622 3.92578 6.6764 3.88062 6.71444 3.84258C6.75248 3.80454 6.79764 3.77436 6.84735 3.75377C6.89705 3.73318 6.95032 3.72259 7.00412 3.72259C7.05792 3.72259 7.11119 3.73318 7.1609 3.75377C7.2106 3.77436 7.25576 3.80454 7.2938 3.84258C7.33184 3.88062 7.36202 3.92578 7.38261 3.97548C7.4032 4.02519 7.41379 4.07846 7.41379 4.13226C7.43317 4.61518 7.5434 5.09013 7.73873 5.53221C7.95536 6.01999 8.16535 6.1784 8.23314 6.1784C8.61554 6.1784 9.03111 5.67516 9.12174 5.54032C9.1757 5.46078 9.2559 5.40275 9.34833 5.37638C9.44075 5.35 9.5395 5.35696 9.62731 5.39604C9.71512 5.43511 9.78639 5.50381 9.82867 5.59013C9.87094 5.67645 9.88152 5.77488 9.85856 5.8682L9.85708 5.87041Z" fill="#FFF1BE"/>
<defs>
<linearGradient id="paint0_linear" x1="7" y1="0" x2="7" y2="13.9999" gradientUnits="userSpaceOnUse">
<stop stop-color="#FFE98A"/>
<stop offset="1" stop-color="#FF3B81"/>
</linearGradient>
</defs>
</svg>
