<svg width="74" height="75" viewBox="0 0 74 75" fill="none" xmlns="http://www.w3.org/2000/svg">
<g filter="url(#filter0_d)">
<rect x="15" y="12" width="44" height="44" rx="10" fill="#4B7BE5"/>
</g>
<g filter="url(#filter1_d)">
<rect x="15" y="11" width="44" height="44" rx="10" fill="white"/>
</g>
<path d="M48.7723 33.9598C48.922 33.6617 49 33.3328 49 32.9992C49 32.6656 48.922 32.3367 48.7723 32.0386L48.4577 31.4159C48.3893 31.2811 48.365 31.1282 48.3883 30.9788L48.4944 30.2892C48.5446 29.9595 48.517 29.6227 48.414 29.3056C48.3109 28.9885 48.1351 28.6998 47.9007 28.4627L47.4094 27.9676C47.3028 27.8605 47.2325 27.7226 47.2085 27.5735L47.0974 26.8851C47.0439 26.5598 46.916 26.2512 46.7236 25.9834C46.5313 25.7157 46.2796 25.496 45.9883 25.3416L45.3833 24.9854L45.3479 24.9651C45.2132 24.8962 45.1036 24.7866 45.0347 24.6519L44.7151 24.0317C44.5529 23.7333 44.3242 23.4762 44.0467 23.2804C43.7691 23.0846 43.4503 22.9553 43.1148 22.9025L42.4314 22.7913C42.2822 22.7673 42.1444 22.6971 42.0373 22.5905L41.5371 22.0991C41.2999 21.8645 41.011 21.6886 40.6937 21.5856C40.3763 21.4825 40.0392 21.4551 39.7094 21.5055L39.021 21.6116C38.8716 21.6349 38.7187 21.6106 38.584 21.5421L37.96 21.2276C37.6621 21.0779 37.3334 21 37 21C36.6666 21 36.3379 21.0779 36.04 21.2276L35.4173 21.5421C35.2821 21.6107 35.1288 21.635 34.979 21.6116L34.2906 21.5055C33.9608 21.455 33.6237 21.4823 33.3063 21.5854C32.9889 21.6885 32.7001 21.8644 32.4629 22.0991L31.9677 22.5905C31.8607 22.6971 31.7228 22.7674 31.5736 22.7913L30.8852 22.9025C30.5497 22.9553 30.2309 23.0846 29.9533 23.2804C29.6758 23.4762 29.4471 23.7333 29.2849 24.0317L28.9653 24.6519C28.8964 24.7866 28.7868 24.8962 28.6521 24.9651L28.0319 25.2847C27.7335 25.4469 27.4764 25.6756 27.2806 25.9532C27.0847 26.2307 26.9554 26.5496 26.9026 26.8851L26.7915 27.5684C26.7675 27.7176 26.6973 27.8555 26.5906 27.9625L26.0993 28.4627C25.8646 28.6999 25.6887 28.9888 25.5856 29.3061C25.4825 29.6235 25.4551 29.9606 25.5056 30.2904L25.6117 30.9788C25.635 31.1282 25.6107 31.2811 25.5423 31.4159L25.2277 32.0399C25.078 32.3379 25 32.6669 25 33.0005C25 33.334 25.078 33.663 25.2277 33.9611L25.5423 34.5838C25.6106 34.7186 25.6349 34.8715 25.6117 35.0208L25.5056 35.7092C25.4554 36.0389 25.483 36.3757 25.586 36.6928C25.6891 37.0099 25.8649 37.2986 26.0993 37.5357L26.5906 38.0308C26.6973 38.1379 26.7675 38.2757 26.7915 38.4249L26.9026 39.1133C26.9552 39.4491 27.0845 39.7682 27.2803 40.0459C27.4761 40.3237 27.7333 40.5526 28.0319 40.715L28.6521 41.0345C28.7868 41.1034 28.8964 41.213 28.9653 41.3478L29.2849 41.968C29.4471 42.2664 29.6758 42.5235 29.9533 42.7193C30.2309 42.9151 30.5497 43.0444 30.8852 43.0972L31.5736 43.2084C31.7228 43.2324 31.8607 43.3026 31.9677 43.4092L32.4629 43.9005C32.7 44.135 32.9887 44.3107 33.3058 44.4138C33.6229 44.5169 33.9597 44.5444 34.2894 44.4942L34.979 44.3881C35.1284 44.3648 35.2813 44.3891 35.4161 44.4576L36.0388 44.7721C36.3368 44.9218 36.6658 44.9998 36.9994 44.9998C37.3329 44.9998 37.6619 44.9218 37.96 44.7721L38.5827 44.4576C38.7175 44.3892 38.8704 44.3649 39.0197 44.3881L39.7094 44.4942C40.039 44.5444 40.3759 44.5169 40.693 44.4138C41.0101 44.3107 41.2987 44.135 41.5359 43.9005L42.031 43.4092C42.138 43.3025 42.2759 43.2322 42.4251 43.2084L43.1135 43.0972C43.4389 43.0438 43.7475 42.916 44.0152 42.7236C44.283 42.5312 44.5026 42.2795 44.657 41.9882L45.0132 41.3831L45.0334 41.3478C45.1023 41.213 45.2119 41.1034 45.3467 41.0345L45.9669 40.715C46.2632 40.562 46.5196 40.3418 46.7157 40.072C46.9118 39.8023 47.0421 39.4904 47.0961 39.1613L47.2073 38.4729C47.2313 38.3238 47.3015 38.1859 47.4081 38.0788L47.9133 37.5243C48.1437 37.2874 48.316 37.0003 48.4168 36.6856C48.5176 36.3709 48.5442 36.0372 48.4944 35.7105L48.3883 35.0208C48.365 34.8715 48.3893 34.7186 48.4577 34.5838L48.7723 33.9598Z" fill="#060B29"/>
<path d="M37 25C35.4178 25 33.871 25.4692 32.5554 26.3482C31.2398 27.2273 30.2145 28.4767 29.609 29.9385C29.0035 31.4003 28.845 33.0089 29.1537 34.5607C29.4624 36.1126 30.2243 37.538 31.3431 38.6569C32.462 39.7757 33.8874 40.5376 35.4393 40.8463C36.9911 41.155 38.5997 40.9965 40.0615 40.391C41.5233 39.7855 42.7727 38.7602 43.6518 37.4446C44.5308 36.129 45 34.5822 45 33C44.9909 30.8811 44.1451 28.8515 42.6468 27.3532C41.1485 25.8549 39.1189 25.0091 37 25Z" fill="white"/>
<path d="M41.9767 31.7449L40.5484 37.4591C40.5098 37.6136 40.4206 37.7506 40.2952 37.8486C40.1698 37.9466 40.0152 37.9999 39.8561 38H34.1427C33.9835 37.9999 33.8289 37.9466 33.7035 37.8486C33.5781 37.7506 33.489 37.6136 33.4503 37.4591L32.0207 31.7449C31.9807 31.5821 31.9991 31.4105 32.0728 31.26C32.1465 31.1095 32.2707 30.9897 32.4238 30.9216C32.5769 30.8535 32.7491 30.8413 32.9102 30.8873C33.0713 30.9333 33.2111 31.0345 33.3052 31.1732C33.5004 31.4609 34.2043 32.2857 34.8543 32.2857C34.9724 32.2857 35.3385 32.0108 35.7162 31.159C36.0593 30.3875 36.2537 29.558 36.289 28.7143C36.289 28.6205 36.3075 28.5276 36.3434 28.4409C36.3793 28.3543 36.4319 28.2755 36.4982 28.2092C36.5645 28.1429 36.6433 28.0903 36.7299 28.0544C36.8166 28.0185 36.9094 28 37.0032 28C37.097 28 37.1899 28.0185 37.2765 28.0544C37.3632 28.0903 37.4419 28.1429 37.5082 28.2092C37.5745 28.2755 37.6271 28.3543 37.663 28.4409C37.6989 28.5276 37.7174 28.6205 37.7174 28.7143C37.7512 29.5563 37.9433 30.3844 38.2838 31.1552C38.6615 32.0057 39.0276 32.2819 39.1457 32.2819C39.8124 32.2819 40.5368 31.4044 40.6948 31.1693C40.7889 31.0306 40.9287 30.9295 41.0898 30.8835C41.2509 30.8375 41.4231 30.8496 41.5762 30.9178C41.7293 30.9859 41.8535 31.1057 41.9272 31.2562C42.0009 31.4067 42.0193 31.5783 41.9793 31.741L41.9767 31.7449Z" fill="#97C0FF"/>
<defs>
<filter id="filter0_d" x="0" y="1" width="74" height="74" filterUnits="userSpaceOnUse" color-interpolation-filters="sRGB">
<feFlood flood-opacity="0" result="BackgroundImageFix"/>
<feColorMatrix in="SourceAlpha" type="matrix" values="0 0 0 0 0 0 0 0 0 0 0 0 0 0 0 0 0 0 127 0" result="hardAlpha"/>
<feOffset dy="4"/>
<feGaussianBlur stdDeviation="7.5"/>
<feComposite in2="hardAlpha" operator="out"/>
<feColorMatrix type="matrix" values="0 0 0 0 0 0 0 0 0 0 0 0 0 0 0 0 0 0 0.08 0"/>
<feBlend mode="normal" in2="BackgroundImageFix" result="effect1_dropShadow"/>
<feBlend mode="normal" in="SourceGraphic" in2="effect1_dropShadow" result="shape"/>
</filter>
<filter id="filter1_d" x="0" y="0" width="74" height="74" filterUnits="userSpaceOnUse" color-interpolation-filters="sRGB">
<feFlood flood-opacity="0" result="BackgroundImageFix"/>
<feColorMatrix in="SourceAlpha" type="matrix" values="0 0 0 0 0 0 0 0 0 0 0 0 0 0 0 0 0 0 127 0" result="hardAlpha"/>
<feOffset dy="4"/>
<feGaussianBlur stdDeviation="7.5"/>
<feComposite in2="hardAlpha" operator="out"/>
<feColorMatrix type="matrix" values="0 0 0 0 0 0 0 0 0 0 0 0 0 0 0 0 0 0 0.08 0"/>
<feBlend mode="normal" in2="BackgroundImageFix" result="effect1_dropShadow"/>
<feBlend mode="normal" in="SourceGraphic" in2="effect1_dropShadow" result="shape"/>
</filter>
</defs>
</svg>
