<svg width="74" height="75" viewBox="0 0 74 75" fill="none" xmlns="http://www.w3.org/2000/svg">
<g filter="url(#filter0_d)">
<rect x="15" y="12" width="44" height="44" rx="5" fill="#4B7BE5"/>
</g>
<g filter="url(#filter1_d)">
<rect x="15" y="11" width="44" height="44" rx="5" fill="white"/>
</g>
<path d="M38.3378 32.8376C38.976 32.0025 38.4654 30.6604 37.1251 30.6008C36.2954 30.5411 35.4658 31.7341 35.1466 32.5096C34.6361 33.7622 34.9871 35.492 35.6891 36.5657C36.0402 37.0429 36.2635 37.2815 36.2316 37.0429C36.0402 34.0903 37.5081 33.9113 38.3378 32.8376Z" fill="#97C0FF"/>
<path d="M46.4225 21.1408C43.6309 23.6703 41.3121 26.2208 38.9933 29.0221C38.9933 29.0221 38.408 29.7329 38.0478 30.1928C37.9127 30.36 37.9352 30.6318 38.1153 30.7572L38.498 31.0499C38.6781 31.1963 38.9483 31.1754 39.1059 31.0081C39.5111 30.59 40.164 29.9419 40.164 29.9419C42.7304 27.3079 45.0042 24.7156 47.1654 21.7261C47.5256 21.2662 46.8503 20.7436 46.4225 21.1408Z" fill="#4B7BE5"/>
<path d="M47.5276 28.6048C45.8044 27.3522 44.0812 28.0978 42.5175 28.9031C42.1665 29.261 41.8474 29.6189 41.4963 29.9768C41.4963 29.9768 39.9327 31.5873 39.5817 31.9154L39.4221 32.0645C39.4221 32.482 39.2626 32.9294 39.0073 33.2873C38.752 33.6452 38.4329 33.9136 38.1457 34.1522C37.4755 34.7189 36.965 35.1662 37.0926 36.9557C37.1564 37.4627 36.8054 37.761 36.4863 37.8505C35.7523 38.0891 35.2737 37.3733 34.9865 36.9557C34.1887 35.7627 33.71 33.7645 34.3482 32.1838C34.6993 31.3487 35.5609 29.9768 36.7735 29.7978L36.8373 29.7382C37.0926 29.4101 38.1776 28.068 38.4648 27.7101C38.401 27.5311 38.3052 27.382 38.2733 27.1732C37.7946 25.3241 36.7735 22.9381 32.4336 23.1767C24.7111 24.5487 22.924 31.6768 24.5515 37.1048C25.094 38.954 25.796 39.8189 26.4981 40.8031C26.9129 41.3698 28.1575 42.4733 28.2532 42.5329C30.0721 43.8452 32.1783 44.6207 34.3802 44.8891C39.1987 45.4856 44.3684 43.6663 47.4318 39.9084C51.4526 34.9873 50.1762 30.5136 47.5276 28.6048ZM29.402 28.3662C29.5935 27.0241 30.9018 26.0697 32.3378 26.2487C33.7738 26.4276 34.795 27.6803 34.6035 29.0224C34.4121 30.3645 33.1037 31.3189 31.6677 31.1399C30.1998 30.961 29.2105 29.7382 29.402 28.3662ZM28.5723 37.6119C27.1363 37.4329 26.1152 36.1803 26.3066 34.8382C26.4981 33.4961 27.8064 32.5417 29.2424 32.7206C30.6785 32.8996 31.6996 34.1522 31.5081 35.4943C31.3167 36.8364 30.0083 37.7908 28.5723 37.6119ZM35.9438 40.654C35.7523 41.9961 34.444 42.9505 33.008 42.7715C31.572 42.5926 30.5508 41.34 30.7423 39.9978C30.9337 38.6557 32.2421 37.7013 33.6781 37.8803C35.1141 38.0891 36.1034 39.3119 35.9438 40.654ZM43.2834 39.9978C43.0919 41.34 41.7835 42.2943 40.3475 42.1154C38.9115 41.9364 37.8904 40.6838 38.0818 39.3417C38.2733 37.9996 39.5817 37.0452 41.0177 37.2241C42.4537 37.4031 43.4748 38.6557 43.2834 39.9978ZM47.9743 35.0469C47.7829 36.3891 46.4745 37.3434 45.0385 37.1645C43.6025 36.9856 42.5813 35.7329 42.7728 34.3908C42.9643 33.0487 44.2726 32.0943 45.7086 32.2733C47.1446 32.482 48.1658 33.7347 47.9743 35.0469Z" fill="#060B29"/>
<defs>
<filter id="filter0_d" x="0" y="1" width="74" height="74" filterUnits="userSpaceOnUse" color-interpolation-filters="sRGB">
<feFlood flood-opacity="0" result="BackgroundImageFix"/>
<feColorMatrix in="SourceAlpha" type="matrix" values="0 0 0 0 0 0 0 0 0 0 0 0 0 0 0 0 0 0 127 0" result="hardAlpha"/>
<feOffset dy="4"/>
<feGaussianBlur stdDeviation="7.5"/>
<feComposite in2="hardAlpha" operator="out"/>
<feColorMatrix type="matrix" values="0 0 0 0 0 0 0 0 0 0 0 0 0 0 0 0 0 0 0.08 0"/>
<feBlend mode="normal" in2="BackgroundImageFix" result="effect1_dropShadow"/>
<feBlend mode="normal" in="SourceGraphic" in2="effect1_dropShadow" result="shape"/>
</filter>
<filter id="filter1_d" x="0" y="0" width="74" height="74" filterUnits="userSpaceOnUse" color-interpolation-filters="sRGB">
<feFlood flood-opacity="0" result="BackgroundImageFix"/>
<feColorMatrix in="SourceAlpha" type="matrix" values="0 0 0 0 0 0 0 0 0 0 0 0 0 0 0 0 0 0 127 0" result="hardAlpha"/>
<feOffset dy="4"/>
<feGaussianBlur stdDeviation="7.5"/>
<feComposite in2="hardAlpha" operator="out"/>
<feColorMatrix type="matrix" values="0 0 0 0 0 0 0 0 0 0 0 0 0 0 0 0 0 0 0.08 0"/>
<feBlend mode="normal" in2="BackgroundImageFix" result="effect1_dropShadow"/>
<feBlend mode="normal" in="SourceGraphic" in2="effect1_dropShadow" result="shape"/>
</filter>
</defs>
</svg>
