<svg width="110" height="110" viewBox="0 0 110 110" fill="none" xmlns="http://www.w3.org/2000/svg">
<rect x="15" y="12" width="80" height="80" rx="10" fill="#4B7BE5"/>
<g filter="url(#filter0_d)">
<rect x="15" y="11" width="80" height="80" rx="10" fill="white"/>
</g>
<path d="M39.3917 35H46.8012V41.4023H39.0137V35.3775C39.0137 35.1711 39.1851 35 39.3917 35Z" fill="#060B29"/>
<path d="M65.3038 35.3775V41.4023H57.4961V35H64.9258C65.1325 35 65.3038 35.1711 65.3038 35.3775Z" fill="#060B29"/>
<path d="M56.7415 48.6653C56.7415 48.8011 56.666 48.927 56.5501 48.9924C56.4895 49.0276 56.4291 49.0428 56.3635 49.0428C56.293 49.0428 56.2275 49.0226 56.167 48.9874L52.1598 46.5513L48.1274 48.9874C48.0114 49.0578 47.8653 49.0629 47.7443 48.9924C47.6234 48.927 47.5527 48.8011 47.5527 48.6653V35H56.7415V48.6653H56.7415Z" fill="#4B7BE5"/>
<path d="M65.3063 42.1562V50.1188C64.4948 49.8773 63.6379 49.7464 62.7458 49.7464C57.7708 49.7464 53.7283 53.7831 53.7283 58.7458C53.7283 58.9472 53.7333 59.1485 53.7485 59.3448L52.9168 59.3599H39.378C39.1714 59.3599 39 59.1887 39 58.9824V42.1562H46.7976V48.6643C46.7976 49.077 47.0245 49.4595 47.3622 49.6457C47.5385 49.7413 47.7302 49.7967 47.9317 49.7967C48.1384 49.7967 48.3451 49.7413 48.5215 49.6306L52.1608 47.4311L55.7848 49.6357C55.9663 49.7413 56.1629 49.7967 56.3644 49.7967C56.5661 49.7967 56.7576 49.7464 56.924 49.6457C57.2768 49.4494 57.4985 49.0719 57.4985 48.6643V42.1562H65.3063Z" fill="#060B29"/>
<path d="M62.7438 50.502C58.1872 50.502 54.4824 54.2014 54.4824 58.7464C54.4824 63.2964 58.1872 67.0009 62.7438 67.0009C67.2954 67.0009 71.0001 63.2964 71.0001 58.7464C71.0001 54.2014 67.2954 50.502 62.7438 50.502ZM67.7994 63.2713L67.3811 62.8535C67.2349 62.7025 66.9929 62.7025 66.8467 62.8535C66.7005 62.9995 66.7005 63.236 66.8467 63.3871L67.2651 63.8048C66.1512 64.8014 64.7096 65.4356 63.1219 65.5212V64.9272C63.1219 64.7209 62.9505 64.5497 62.7438 64.5497C62.5321 64.5497 62.3658 64.7209 62.3658 64.9272V65.5212C60.7729 65.4356 59.3314 64.8014 58.2125 63.8048L58.6307 63.3871C58.782 63.236 58.782 62.9995 58.6307 62.8535C58.4846 62.7025 58.2476 62.7025 58.0965 62.8535L57.6781 63.2713C56.6801 62.1539 56.0501 60.7144 55.9593 59.1289H56.5592C56.7658 59.1289 56.9372 58.9628 56.9372 58.7514C56.9372 58.5451 56.7658 58.3739 56.5592 58.3739H55.9593C56.045 56.7885 56.6801 55.3439 57.6781 54.2316L58.1015 54.6544C58.2573 54.8099 58.5048 54.7946 58.6358 54.6544C58.787 54.5084 58.787 54.2668 58.6358 54.1209L58.2174 53.6981C59.3314 52.7015 60.7729 52.0673 62.3658 51.9817V52.5807C62.3658 52.7871 62.5321 52.9582 62.7438 52.9582C62.9505 52.9582 63.1219 52.7871 63.1219 52.5807V51.9817C64.7096 52.0673 66.1512 52.7015 67.2651 53.6981L66.8467 54.1209C66.7005 54.2668 66.7005 54.5084 66.8467 54.6544C66.9942 54.8016 67.2325 54.8028 67.3811 54.6544L67.7994 54.2316C68.8025 55.3439 69.4325 56.7885 69.5182 58.3739H68.9235C68.7167 58.3739 68.5454 58.5451 68.5454 58.7514C68.5454 58.9628 68.7167 59.1289 68.9235 59.1289H69.5182C69.4325 60.7144 68.7975 62.159 67.7994 63.2713Z" fill="#4B7BE5"/>
<path d="M65.8575 58.7515C65.8575 58.9578 65.6861 59.1289 65.4795 59.1289H64.2042C64.0379 59.7279 63.4936 60.1708 62.8433 60.1708C62.062 60.1708 61.4219 59.5316 61.4219 58.7515C61.4219 58.1022 61.8655 57.5535 62.4653 57.3874V54.4732C62.4653 54.2668 62.6367 54.0957 62.8433 54.0957C63.0499 54.0957 63.2214 54.2668 63.2214 54.4732V57.3874C63.6951 57.5233 64.0681 57.8958 64.2042 58.374H65.4795C65.6861 58.374 65.8575 58.5451 65.8575 58.7515Z" fill="#060B29"/>
<defs>
<filter id="filter0_d" x="0" y="0" width="110" height="110" filterUnits="userSpaceOnUse" color-interpolation-filters="sRGB">
<feFlood flood-opacity="0" result="BackgroundImageFix"/>
<feColorMatrix in="SourceAlpha" type="matrix" values="0 0 0 0 0 0 0 0 0 0 0 0 0 0 0 0 0 0 127 0" result="hardAlpha"/>
<feOffset dy="4"/>
<feGaussianBlur stdDeviation="7.5"/>
<feComposite in2="hardAlpha" operator="out"/>
<feColorMatrix type="matrix" values="0 0 0 0 0 0 0 0 0 0 0 0 0 0 0 0 0 0 0.08 0"/>
<feBlend mode="normal" in2="BackgroundImageFix" result="effect1_dropShadow"/>
<feBlend mode="normal" in="SourceGraphic" in2="effect1_dropShadow" result="shape"/>
</filter>
</defs>
</svg>
