<svg width="40" height="40" viewBox="0 0 40 40" fill="none" xmlns="http://www.w3.org/2000/svg">
<path d="M32.6667 0H7.33333C5.38912 0.00229365 3.52519 0.775647 2.15042 2.15042C0.775647 3.52519 0.00229365 5.38912 0 7.33333L0 11.3333C0.00229365 13.2776 0.775647 15.1415 2.15042 16.5163C3.52519 17.891 5.38912 18.6644 7.33333 18.6667H18.6667V26.7087C18.3211 26.295 18.0964 25.7939 18.0173 25.2607C17.9264 24.7202 17.6463 24.2296 17.2271 23.8765C16.8078 23.5235 16.2768 23.331 15.7287 23.3333C15.3939 23.3385 15.0638 23.4127 14.759 23.5514C14.4543 23.69 14.1815 23.8902 13.9577 24.1392C13.734 24.3883 13.5641 24.6809 13.4587 24.9987C13.3533 25.3165 13.3147 25.6526 13.3453 25.986C13.5118 28.5893 14.662 31.0319 16.5627 32.8187L16.8447 33.12C17.2373 33.544 17.6127 33.904 17.978 34.2533C19.1947 35.424 20 36.2 20 38C20 38.5304 20.2107 39.0391 20.5858 39.4142C20.9609 39.7893 21.4696 40 22 40H30C30.5304 40 31.0391 39.7893 31.4142 39.4142C31.7893 39.0391 32 38.5304 32 38V36C32 34.0553 32.232 33.5893 32.5 33.0487C32.5753 32.8967 32.6527 32.74 32.7293 32.5573C33.1403 31.5358 33.3456 30.4431 33.3333 29.342V24.4287C33.3421 23.8373 33.1322 23.2635 32.7439 22.8174C32.3556 22.3712 31.8163 22.0842 31.2293 22.0113C30.6595 21.9581 30.0896 22.1133 29.6253 22.448C29.4417 22.1432 29.19 21.885 28.89 21.6936C28.59 21.5022 28.2498 21.3828 27.896 21.3447C27.3261 21.2915 26.7563 21.4466 26.292 21.7813C26.1084 21.4765 25.8567 21.2183 25.5567 21.0269C25.2567 20.8355 24.9165 20.7161 24.5627 20.678C24.141 20.6366 23.716 20.7108 23.3333 20.8927V18.6667H32.6667C34.6109 18.6644 36.4748 17.891 37.8496 16.5163C39.2244 15.1415 39.9977 13.2776 40 11.3333V7.33333C39.9977 5.38912 39.2244 3.52519 37.8496 2.15042C36.4748 0.775647 34.6109 0.00229365 32.6667 0ZM23.6607 22.26C23.7644 22.1651 23.8871 22.0932 24.0206 22.0492C24.1541 22.0052 24.2955 21.99 24.4353 22.0047C24.6927 22.0447 24.9264 22.1779 25.092 22.379C25.2576 22.5801 25.3435 22.835 25.3333 23.0953V23.6687C25.3333 23.8455 25.4036 24.015 25.5286 24.1401C25.6536 24.2651 25.8232 24.3353 26 24.3353C26.1768 24.3353 26.3464 24.2651 26.4714 24.1401C26.5964 24.015 26.6667 23.8455 26.6667 23.6687C26.6659 23.5283 26.6948 23.3894 26.7513 23.2609C26.8078 23.1324 26.8907 23.0172 26.9946 22.9229C27.0986 22.8286 27.2212 22.7572 27.3546 22.7134C27.488 22.6696 27.629 22.6543 27.7687 22.6687C28.0265 22.7087 28.2606 22.8424 28.4262 23.044C28.5919 23.2457 28.6775 23.5013 28.6667 23.762V24.3353C28.6667 24.5121 28.7369 24.6817 28.8619 24.8067C28.987 24.9318 29.1565 25.002 29.3333 25.002C29.5101 25.002 29.6797 24.9318 29.8047 24.8067C29.9298 24.6817 30 24.5121 30 24.3353C29.9993 24.195 30.0281 24.056 30.0846 23.9275C30.1411 23.799 30.224 23.6839 30.328 23.5896C30.4319 23.4952 30.5546 23.4239 30.6879 23.3801C30.8213 23.3363 30.9624 23.321 31.102 23.3353C31.3599 23.3754 31.594 23.509 31.7596 23.7107C31.9252 23.9123 32.0108 24.1679 32 24.4287V29.342C32.0119 30.2673 31.8413 31.186 31.498 32.0453C31.4347 32.1973 31.3693 32.328 31.306 32.456C30.9773 33.1173 30.6667 33.742 30.6667 36V38C30.6667 38.1768 30.5964 38.3464 30.4714 38.4714C30.3464 38.5964 30.1768 38.6667 30 38.6667H22C21.8232 38.6667 21.6536 38.5964 21.5286 38.4714C21.4036 38.3464 21.3333 38.1768 21.3333 38C21.3333 35.63 20.2053 34.546 18.8993 33.2913C18.55 32.958 18.1893 32.61 17.822 32.2133L17.534 31.9047C15.8306 30.3364 14.8041 28.167 14.672 25.8553C14.658 25.7035 14.676 25.5503 14.725 25.4059C14.7739 25.2614 14.8527 25.1289 14.9561 25.0168C15.0596 24.9047 15.1854 24.8156 15.3255 24.7553C15.4656 24.695 15.6168 24.6648 15.7693 24.6667C15.9977 24.6705 16.2172 24.7557 16.3884 24.907C16.5595 25.0584 16.6709 25.2658 16.7027 25.492C16.7941 26.1696 17.0586 26.8122 17.4707 27.3577C17.8828 27.9033 18.4286 28.3335 19.0553 28.6067C19.157 28.6533 19.2687 28.6736 19.3802 28.6657C19.4917 28.6579 19.5995 28.6221 19.6936 28.5617C19.7877 28.5013 19.865 28.4182 19.9186 28.32C19.9721 28.2219 20.0001 28.1118 20 28V13.7633C19.9906 13.5038 20.0762 13.2497 20.2408 13.0488C20.4054 12.8478 20.6377 12.7139 20.894 12.672C21.033 12.6597 21.173 12.6762 21.3054 12.7204C21.4377 12.7645 21.5596 12.8355 21.6633 12.9288C21.7671 13.0221 21.8505 13.1358 21.9084 13.2627C21.9664 13.3896 21.9975 13.5272 22 13.6667V23C22 23.1768 22.0702 23.3464 22.1953 23.4714C22.3203 23.5964 22.4899 23.6667 22.6667 23.6667C22.8435 23.6667 23.013 23.5964 23.1381 23.4714C23.2631 23.3464 23.3333 23.1768 23.3333 23C23.3329 22.8606 23.3618 22.7226 23.4182 22.5951C23.4746 22.4676 23.5572 22.3534 23.6607 22.26ZM38.6667 11.3333C38.6649 12.9241 38.0322 14.4492 36.9074 15.574C35.7825 16.6989 34.2574 17.3316 32.6667 17.3333H23.3333V13.6667C23.3295 13.3412 23.2584 13.0201 23.1244 12.7234C22.9905 12.4268 22.7966 12.1611 22.5549 11.9431C22.3133 11.725 22.0291 11.5594 21.7203 11.4565C21.4115 11.3536 21.0848 11.3158 20.7607 11.3453C20.1762 11.4223 19.6403 11.7109 19.2543 12.1566C18.8684 12.6022 18.6593 13.1739 18.6667 13.7633V17.3333H7.33333C5.74258 17.3316 4.21748 16.6989 3.09264 15.574C1.96781 14.4492 1.3351 12.9241 1.33333 11.3333V7.33333C1.3351 5.74258 1.96781 4.21748 3.09264 3.09264C4.21748 1.96781 5.74258 1.3351 7.33333 1.33333H32.6667C34.2574 1.3351 35.7825 1.96781 36.9074 3.09264C38.0322 4.21748 38.6649 5.74258 38.6667 7.33333V11.3333Z" fill="#4B7BE5"/>
<path d="M21.3333 4C21.1565 4 20.9869 4.07024 20.8619 4.19526C20.7369 4.32029 20.6666 4.48986 20.6666 4.66667V8.66667C20.6666 8.84348 20.7369 9.01305 20.8619 9.13807C20.9869 9.2631 21.1565 9.33333 21.3333 9.33333C21.5101 9.33333 21.6797 9.2631 21.8047 9.13807C21.9297 9.01305 22 8.84348 22 8.66667V4.66667C22 4.48986 21.9297 4.32029 21.8047 4.19526C21.6797 4.07024 21.5101 4 21.3333 4Z" fill="#4B7BE5"/>
<path d="M27.7628 6.1567C27.6957 6.10026 27.6182 6.05758 27.5347 6.03112C27.4512 6.00466 27.3632 5.99493 27.2759 6.00248C27.1886 6.01004 27.1036 6.03473 27.0259 6.07515C26.9481 6.11556 26.8791 6.17092 26.8228 6.23803L24.1561 9.40803C24.0997 9.4751 24.057 9.55262 24.0305 9.63616C24.0041 9.71971 23.9943 9.80766 24.0019 9.89498C24.0094 9.98229 24.034 10.0673 24.0744 10.1451C24.1147 10.2229 24.17 10.2919 24.2371 10.3484C24.3042 10.4048 24.3817 10.4475 24.4652 10.4739C24.5488 10.5004 24.6367 10.5101 24.724 10.5026C24.8114 10.4951 24.8963 10.4704 24.9741 10.4301C25.0519 10.3897 25.121 10.3344 25.1774 10.2674L27.8441 7.09803C27.9007 7.03097 27.9436 6.95337 27.9702 6.8697C27.9968 6.78603 28.0065 6.69794 27.999 6.61047C27.9914 6.52301 27.9667 6.4379 27.9261 6.36003C27.8856 6.28216 27.8301 6.21306 27.7628 6.1567Z" fill="#4B7BE5"/>
<path d="M15.8438 6.23783C15.73 6.1024 15.567 6.01774 15.3907 6.00249C15.2144 5.98723 15.0393 6.04263 14.9038 6.1565C14.7684 6.27037 14.6838 6.43337 14.6685 6.60965C14.6532 6.78594 14.7086 6.96106 14.8225 7.0965L17.4892 10.2658C17.5455 10.3329 17.6145 10.3882 17.6922 10.4286C17.7699 10.469 17.8548 10.4937 17.9421 10.5013C18.0294 10.5089 18.1173 10.4992 18.2008 10.4728C18.2843 10.4464 18.3618 10.4038 18.4288 10.3475C18.4959 10.2912 18.5512 10.2222 18.5916 10.1445C18.632 10.0667 18.6567 9.98184 18.6643 9.89458C18.6719 9.80732 18.6622 9.71943 18.6358 9.63591C18.6094 9.5524 18.5669 9.47489 18.5105 9.40783L15.8438 6.23783Z" fill="#4B7BE5"/>
<path d="M16.6667 12.6667H12.6667C12.4899 12.6667 12.3203 12.7369 12.1953 12.8619C12.0702 12.9869 12 13.1565 12 13.3333C12 13.5101 12.0702 13.6797 12.1953 13.8047C12.3203 13.9298 12.4899 14 12.6667 14H16.6667C16.8435 14 17.013 13.9298 17.1381 13.8047C17.2631 13.6797 17.3333 13.5101 17.3333 13.3333C17.3333 13.1565 17.2631 12.9869 17.1381 12.8619C17.013 12.7369 16.8435 12.6667 16.6667 12.6667Z" fill="#4B7BE5"/>
<path d="M30 12.6667H26C25.8232 12.6667 25.6537 12.7369 25.5286 12.8619C25.4036 12.9869 25.3334 13.1565 25.3334 13.3333C25.3334 13.5101 25.4036 13.6797 25.5286 13.8047C25.6537 13.9298 25.8232 14 26 14H30C30.1769 14 30.3464 13.9298 30.4714 13.8047C30.5965 13.6797 30.6667 13.5101 30.6667 13.3333C30.6667 13.1565 30.5965 12.9869 30.4714 12.8619C30.3464 12.7369 30.1769 12.6667 30 12.6667Z" fill="#4B7BE5"/>
</svg>
