<svg width="74" height="75" viewBox="0 0 74 75" fill="none" xmlns="http://www.w3.org/2000/svg">
<g filter="url(#filter0_d_10368_41414)">
<rect x="15" y="12" width="44" height="44" rx="5" fill="#4B7BE5"/>
</g>
<g filter="url(#filter1_d_10368_41414)">
<rect x="15" y="11" width="44" height="44" rx="5" fill="white"/>
</g>
<path d="M37 21C33.8174 21 30.7652 22.2643 28.5147 24.5147C26.2643 26.7652 25 29.8174 25 33C25 36.1826 26.2643 39.2348 28.5147 41.4853C30.7652 43.7357 33.8174 45 37 45C40.1826 45 43.2348 43.7357 45.4853 41.4853C47.7357 39.2348 49 36.1826 49 33C49 29.8174 47.7357 26.7652 45.4853 24.5147C43.2348 22.2643 40.1826 21 37 21Z" fill="#03A9F4"/>
<path d="M44.2 28.872C43.6708 29.1066 43.0006 29.3268 42.4 29.4C43.0108 29.0376 43.9798 28.2828 44.2 27.6C43.6294 27.9354 42.5974 28.2936 41.9242 28.4232C41.3866 27.8532 40.6198 27.6 39.7702 27.6C38.1382 27.6 37 28.983 37 30.6V31.8C34.6 31.8 32.26 29.9718 30.8038 28.2C30.5476 28.6326 30.4036 29.139 30.4036 29.6742C30.4036 30.7656 31.4062 31.8732 32.2 32.4C31.7158 32.385 30.799 32.0154 30.4 31.8C30.4 31.8096 30.4 31.8216 30.4 31.8342C30.4 33.2544 31.3966 34.2186 32.7472 34.4874C32.5006 34.5552 32.2 34.8 31.0432 34.8C31.4188 35.961 33.307 36.5748 34.6 36.6C33.5884 37.3842 31.7848 37.8 30.4 37.8C30.1606 37.8 30.031 37.8132 29.8 37.7862C31.1068 38.6142 32.932 39 34.6 39C40.0342 39 43 34.8492 43 30.978C43 30.8508 42.9958 30.4248 42.9892 30.3C43.57 29.8908 43.8052 29.4624 44.2 28.872Z" fill="white"/>
<defs>
<filter id="filter0_d_10368_41414" x="0" y="1" width="74" height="74" filterUnits="userSpaceOnUse" color-interpolation-filters="sRGB">
<feFlood flood-opacity="0" result="BackgroundImageFix"/>
<feColorMatrix in="SourceAlpha" type="matrix" values="0 0 0 0 0 0 0 0 0 0 0 0 0 0 0 0 0 0 127 0" result="hardAlpha"/>
<feOffset dy="4"/>
<feGaussianBlur stdDeviation="7.5"/>
<feComposite in2="hardAlpha" operator="out"/>
<feColorMatrix type="matrix" values="0 0 0 0 0 0 0 0 0 0 0 0 0 0 0 0 0 0 0.08 0"/>
<feBlend mode="normal" in2="BackgroundImageFix" result="effect1_dropShadow_10368_41414"/>
<feBlend mode="normal" in="SourceGraphic" in2="effect1_dropShadow_10368_41414" result="shape"/>
</filter>
<filter id="filter1_d_10368_41414" x="0" y="0" width="74" height="74" filterUnits="userSpaceOnUse" color-interpolation-filters="sRGB">
<feFlood flood-opacity="0" result="BackgroundImageFix"/>
<feColorMatrix in="SourceAlpha" type="matrix" values="0 0 0 0 0 0 0 0 0 0 0 0 0 0 0 0 0 0 127 0" result="hardAlpha"/>
<feOffset dy="4"/>
<feGaussianBlur stdDeviation="7.5"/>
<feComposite in2="hardAlpha" operator="out"/>
<feColorMatrix type="matrix" values="0 0 0 0 0 0 0 0 0 0 0 0 0 0 0 0 0 0 0.08 0"/>
<feBlend mode="normal" in2="BackgroundImageFix" result="effect1_dropShadow_10368_41414"/>
<feBlend mode="normal" in="SourceGraphic" in2="effect1_dropShadow_10368_41414" result="shape"/>
</filter>
</defs>
</svg>
