<svg width="74" height="75" viewBox="0 0 74 75" fill="none" xmlns="http://www.w3.org/2000/svg">
<g filter="url(#filter0_d_11353_42574)">
<rect x="15" y="12" width="44" height="44" rx="5" fill="#4B7BE5"/>
</g>
<g filter="url(#filter1_d_11353_42574)">
<rect x="15" y="11" width="44" height="44" rx="5" fill="white"/>
</g>
<path d="M32.4995 39.6376C31.6744 39.6376 30.9995 40.3126 30.9995 41.1375C30.9995 41.2501 31.5245 41.5499 32.4995 41.5499C33.4745 41.5499 33.9994 41.2499 33.9994 41.1375C33.9994 40.3124 33.3244 39.6376 32.4995 39.6376Z" fill="black"/>
<path d="M33.0622 30.4501C33.0622 30.7606 32.8104 31.0126 32.4998 31.0126C32.189 31.0126 31.9371 30.7607 31.9371 30.4501C31.9371 30.1393 32.189 29.8875 32.4998 29.8875C32.8103 29.8875 33.0622 30.1393 33.0622 30.4501Z" fill="black"/>
<path d="M31.9749 21.2251L28.2247 24.9752H31.9749V21.2251Z" fill="black"/>
<path d="M33.0622 38.3249C33.0622 38.6357 32.8104 38.8874 32.4998 38.8874C32.189 38.8874 31.9371 38.6357 31.9371 38.3249C31.9371 38.0144 32.189 37.7625 32.4998 37.7625C32.8103 37.7625 33.0622 38.0143 33.0622 38.3249Z" fill="black"/>
<path d="M32.4995 31.7627C31.6744 31.7627 30.9995 32.4377 30.9995 33.2626C30.9995 33.3752 31.5245 33.6751 32.4995 33.6751C33.4745 33.6751 33.9994 33.375 33.9994 33.2626C33.9994 32.4377 33.3244 31.7627 32.4995 31.7627Z" fill="black"/>
<path d="M36.3248 27.7125L34.0747 26.2126C33.7747 26.0251 33.5872 25.6501 33.5872 25.2751C33.5872 24.9002 33.7747 24.5627 34.0747 24.3377L36.3248 22.8378C36.5123 22.7252 36.7372 22.6503 36.9624 22.6503H46.4876V22.1249C46.4876 21.4874 46.0001 21 45.3627 21H32.7251V25.3501C32.7251 25.575 32.5751 25.725 32.3501 25.725H28V43.8751C28 44.5126 28.525 45 29.1249 45H45.3624C45.9999 45 46.4873 44.5125 46.4873 43.8751L46.4875 27.8999H36.9622C36.7373 27.8999 36.5121 27.825 36.3246 27.7124L36.3248 27.7125ZM32.4999 42.2999C31.9748 42.2999 31.4498 42.225 31.0749 42.075C30.3622 41.8124 30.2498 41.3623 30.2498 41.1373C30.2498 40.2748 30.7373 39.5249 31.4873 39.1499C31.2998 38.9249 31.1873 38.6249 31.1873 38.3248C31.1873 37.6123 31.7872 37.0124 32.4997 37.0124C33.2122 37.0124 33.8121 37.6123 33.8121 38.3248C33.8121 38.6249 33.6995 38.9247 33.512 39.1499C34.2245 39.5249 34.7496 40.2748 34.7496 41.1373C34.7497 41.9999 33.5498 42.2999 32.4999 42.2999L32.4999 42.2999ZM32.4999 34.425C31.9748 34.425 31.4498 34.3501 31.0749 34.2001C30.3622 33.9375 30.2498 33.4876 30.2498 33.2625C30.2498 32.3999 30.7373 31.65 31.4873 31.275C31.2998 31.0501 31.1873 30.75 31.1873 30.45C31.1873 29.7375 31.7872 29.1376 32.4997 29.1376C33.2122 29.1376 33.8121 29.7375 33.8121 30.45C33.8121 30.75 33.6995 31.0499 33.512 31.275C34.2245 31.65 34.7496 32.3999 34.7496 33.2625C34.7497 34.125 33.5498 34.425 32.4999 34.425L32.4999 34.425ZM43.5247 41.1376H36.4745C36.287 41.1376 36.0995 40.9501 36.0995 40.7626C36.0995 40.5376 36.287 40.3876 36.4745 40.3876H43.5247C43.7122 40.3876 43.8997 40.5376 43.8997 40.7626C43.8997 40.9875 43.7122 41.1376 43.5247 41.1376ZM36.0997 38.5125C36.0997 38.2876 36.2872 38.1375 36.4747 38.1375H39.9622C40.1872 38.1375 40.3372 38.2876 40.3372 38.5125C40.3372 38.7 40.1872 38.8875 39.9622 38.8875H36.4747C36.2872 38.8875 36.0997 38.7375 36.0997 38.5125ZM43.8995 32.8877C43.8995 33.0752 43.712 33.2627 43.5245 33.2627H36.4743C36.2868 33.2627 36.0993 33.0752 36.0993 32.8877C36.0993 32.6627 36.2868 32.5127 36.4743 32.5127H43.5245C43.712 32.5127 43.8995 32.6627 43.8995 32.8877ZM40.337 30.6378C40.337 30.8253 40.187 31.0128 39.9621 31.0128H36.4745C36.287 31.0128 36.0995 30.8253 36.0995 30.6378C36.0995 30.4129 36.287 30.2628 36.4745 30.2628H39.9621C40.187 30.2628 40.337 30.4127 40.337 30.6378Z" fill="#060B29"/>
<path d="M51.25 23.4003H50.0125V27.1502H51.25C51.6624 27.1502 51.9999 26.7752 51.9999 26.3628V24.1877C51.9999 23.7753 51.6624 23.4003 51.25 23.4003V23.4003Z" fill="#97C0FF"/>
<path d="M37.3373 23.4003H49.2624V27.1502H37.3373V23.4003Z" fill="#97C0FF"/>
<path d="M34.3373 25.275C34.3373 25.3876 34.4122 25.5 34.5248 25.5751L36.5873 26.9626V23.5876L34.5248 24.9752C34.4122 25.0501 34.3373 25.1627 34.3373 25.2751V25.275Z" fill="#97C0FF"/>
<defs>
<filter id="filter0_d_11353_42574" x="0" y="1" width="74" height="74" filterUnits="userSpaceOnUse" color-interpolation-filters="sRGB">
<feFlood flood-opacity="0" result="BackgroundImageFix"/>
<feColorMatrix in="SourceAlpha" type="matrix" values="0 0 0 0 0 0 0 0 0 0 0 0 0 0 0 0 0 0 127 0" result="hardAlpha"/>
<feOffset dy="4"/>
<feGaussianBlur stdDeviation="7.5"/>
<feComposite in2="hardAlpha" operator="out"/>
<feColorMatrix type="matrix" values="0 0 0 0 0 0 0 0 0 0 0 0 0 0 0 0 0 0 0.08 0"/>
<feBlend mode="normal" in2="BackgroundImageFix" result="effect1_dropShadow_11353_42574"/>
<feBlend mode="normal" in="SourceGraphic" in2="effect1_dropShadow_11353_42574" result="shape"/>
</filter>
<filter id="filter1_d_11353_42574" x="0" y="0" width="74" height="74" filterUnits="userSpaceOnUse" color-interpolation-filters="sRGB">
<feFlood flood-opacity="0" result="BackgroundImageFix"/>
<feColorMatrix in="SourceAlpha" type="matrix" values="0 0 0 0 0 0 0 0 0 0 0 0 0 0 0 0 0 0 127 0" result="hardAlpha"/>
<feOffset dy="4"/>
<feGaussianBlur stdDeviation="7.5"/>
<feComposite in2="hardAlpha" operator="out"/>
<feColorMatrix type="matrix" values="0 0 0 0 0 0 0 0 0 0 0 0 0 0 0 0 0 0 0.08 0"/>
<feBlend mode="normal" in2="BackgroundImageFix" result="effect1_dropShadow_11353_42574"/>
<feBlend mode="normal" in="SourceGraphic" in2="effect1_dropShadow_11353_42574" result="shape"/>
</filter>
</defs>
</svg>
