<svg width="41" height="19" viewBox="0 0 41 19" fill="none" xmlns="http://www.w3.org/2000/svg">
<path d="M17.5338 13.5069C18.184 13.5069 18.7111 12.881 18.7111 12.1088C18.7111 11.3366 18.184 10.7107 17.5338 10.7107C16.8836 10.7107 16.3564 11.3366 16.3564 12.1088C16.3564 12.881 16.8836 13.5069 17.5338 13.5069Z" fill="#4B7BE5"/>
<path d="M22.4117 13.5069C23.062 13.5069 23.5891 12.881 23.5891 12.1088C23.5891 11.3366 23.062 10.7107 22.4117 10.7107C21.7615 10.7107 21.2344 11.3366 21.2344 12.1088C21.2344 12.881 21.7615 13.5069 22.4117 13.5069Z" fill="#4B7BE5"/>
<path d="M39.2731 16.1539H37.7594V15.5547C37.7594 14.7058 37.1707 13.9568 36.4138 13.9568C36.0774 13.9568 35.8251 14.1066 35.5729 14.3064C35.3626 14.1066 35.0683 13.9568 34.7319 13.9568C34.3955 13.9568 34.1432 14.1066 33.8909 14.3064C33.6807 14.1066 33.3863 13.9568 33.05 13.9568C32.7136 13.9568 32.4613 14.1066 32.209 14.3064C31.9988 14.1066 31.7044 13.9568 31.368 13.9568C30.6532 13.9568 30.0225 14.6559 30.0225 15.5547V16.1539H27.0791C27.1212 16.0041 27.1212 15.9042 27.1632 15.7544C28.2985 15.4548 28.8451 14.5061 28.8451 12.8583C28.8451 11.61 28.5928 10.7112 28.0883 10.162C27.878 9.91231 27.5416 9.71258 27.0371 9.61272C27.0791 8.71394 27.0371 7.61542 26.953 6.31718C26.9109 5.61813 26.8268 5.06887 26.7007 4.51962C26.8689 3.52097 26.953 2.42246 26.8268 1.52368C26.7848 1.22408 26.4904 1.02435 26.1961 1.12422C26.0279 1.17415 25.9018 1.27402 25.7336 1.32395C25.7756 1.02435 25.7756 0.774692 25.7336 0.475098C25.6915 0.125572 25.3972 -0.0741577 25.1028 0.025707C23.8834 0.574963 22.1174 1.07429 19.8468 1.07429C16.1045 1.07429 13.035 1.27402 12.7406 6.31718C12.6565 7.66536 12.6565 8.71394 12.6565 9.61272C12.152 9.66265 11.8156 9.91231 11.6053 10.162C11.1007 10.7112 10.8485 11.61 10.8485 12.8583C10.8485 14.5061 11.3951 15.4548 12.5304 15.7544C12.5304 15.9042 12.5724 16.0041 12.6145 16.1539H9.71316V15.5547C9.71316 14.7058 9.12448 13.9568 8.36761 13.9568C8.03122 13.9568 7.77893 14.1066 7.52664 14.3064C7.3164 14.1066 7.02207 13.9568 6.68568 13.9568C6.34929 13.9568 6.097 14.1066 5.84471 14.3064C5.63447 14.1066 5.34013 13.9568 5.00375 13.9568C4.66736 13.9568 4.41507 14.1066 4.16278 14.3064C3.95254 14.1066 3.6582 13.9568 3.32182 13.9568C2.60699 13.9568 1.97627 14.6559 1.97627 15.5547V16.1539H0.672773C0.294338 16.1539 0 16.5034 0 16.9528C0 17.4022 0.294338 17.7517 0.672773 17.7517H2.60699C2.85928 18.0014 3.15362 18.1512 3.49001 18.1512C3.70025 18.1512 3.91049 18.1012 4.12073 17.9514C4.37302 18.3009 4.75146 18.5506 5.17194 18.5506C5.38218 18.5506 5.59242 18.5007 5.80266 18.3509C6.05495 18.7503 6.43339 19 6.85387 19C7.27435 19 7.65279 18.7503 7.90508 18.3509C8.07327 18.4507 8.28351 18.5506 8.5358 18.5506C9.04038 18.5506 9.46087 18.2011 9.67111 17.7517H30.3168C30.5271 18.251 30.9896 18.5506 31.4942 18.5506C31.7044 18.5506 31.9147 18.5007 32.1249 18.3509C32.3772 18.7503 32.7556 19 33.1761 19C33.5966 19 33.975 18.7503 34.2273 18.3509C34.3955 18.4507 34.6057 18.5506 34.858 18.5506C35.2785 18.5506 35.657 18.3009 35.9092 17.9514C36.0774 18.0513 36.2877 18.1512 36.54 18.1512C36.8764 18.1512 37.1707 18.0014 37.423 17.7517H39.3572C39.7356 17.7517 40.03 17.4022 40.03 16.9528C39.9459 16.5034 39.6515 16.1539 39.2731 16.1539ZM36.4559 15.1552C36.6241 15.1552 36.7923 15.3549 36.7923 15.5547V16.5533C36.7923 16.753 36.6241 16.9528 36.4559 16.9528C36.2877 16.9528 36.1195 16.753 36.1195 16.5533V15.5547C36.1195 15.3549 36.2877 15.1552 36.4559 15.1552ZM13.918 15.1552C13.8759 14.6559 13.5396 14.3064 13.1611 14.2564C12.6565 14.2065 12.3202 14.1566 12.3202 12.8583C12.3202 11.8097 12.5304 11.4602 12.6565 11.3604C12.6986 11.3104 12.7827 11.2106 13.035 11.2106C13.077 11.7099 13.1191 12.1593 13.1611 12.4089C13.2873 12.9582 14.4226 12.9083 14.5067 12.4589C14.5908 12.0594 14.2964 9.41299 15.3476 7.06617C16.4409 7.61542 18.0808 7.96495 19.9729 7.96495C21.8651 7.96495 23.505 7.61542 24.5983 7.06617C25.6495 9.41299 25.3972 12.0594 25.4392 12.4589C25.5233 12.9083 26.6586 12.9582 26.7848 12.4089C26.8268 12.1593 26.8689 11.7099 26.9109 11.2106C27.1632 11.2106 27.2473 11.3104 27.2893 11.3604C27.4155 11.5101 27.6257 11.8597 27.6257 12.8583C27.6257 14.1566 27.2893 14.2065 26.7848 14.2564C26.3643 14.3064 26.0699 14.6559 26.0279 15.1552C25.9858 15.5047 25.9438 15.8043 25.8597 16.1539H14.0862C14.0441 15.8543 13.96 15.5047 13.918 15.1552ZM3.15362 15.5547C3.15362 15.3549 3.32182 15.1552 3.49001 15.1552C3.6582 15.1552 3.8264 15.3549 3.8264 15.5547V16.5533C3.8264 16.753 3.6582 16.9528 3.49001 16.9528C3.32182 16.9528 3.15362 16.803 3.15362 16.5533V15.5547ZM5.17194 17.4022C5.00375 17.4022 4.83555 17.2024 4.83555 17.0027V16.6032V15.6046C4.83555 15.4049 5.00375 15.2051 5.17194 15.2051C5.34013 15.2051 5.50833 15.4049 5.50833 15.6046V17.0027C5.50833 17.2024 5.34013 17.4022 5.17194 17.4022ZM7.14821 17.4022C7.14821 17.6019 6.98002 17.8016 6.81182 17.8016C6.64363 17.8016 6.47544 17.6019 6.47544 17.4022V17.0027V15.6046C6.47544 15.4049 6.64363 15.2051 6.81182 15.2051C6.98002 15.2051 7.14821 15.4049 7.14821 15.6046V17.0027V17.4022ZM8.83014 17.0027C8.83014 17.2024 8.66195 17.4022 8.49376 17.4022C8.32556 17.4022 8.15737 17.2024 8.15737 17.0027V15.6046C8.15737 15.4049 8.32556 15.2051 8.49376 15.2051C8.66195 15.2051 8.83014 15.4049 8.83014 15.6046V17.0027ZM31.4521 17.4022C31.2839 17.4022 31.1157 17.2024 31.1157 17.0027V15.6046C31.1157 15.4049 31.2839 15.2051 31.4521 15.2051C31.6203 15.2051 31.7885 15.4049 31.7885 15.6046V17.0027C31.7885 17.2024 31.6624 17.4022 31.4521 17.4022ZM33.4704 17.4022C33.4704 17.6019 33.3023 17.8016 33.1341 17.8016C32.9659 17.8016 32.7977 17.6019 32.7977 17.4022V17.0027V15.6046C32.7977 15.4049 32.9659 15.2051 33.1341 15.2051C33.3023 15.2051 33.4704 15.4049 33.4704 15.6046V17.0027V17.4022ZM35.1103 17.0027C35.1103 17.2024 34.9421 17.4022 34.7739 17.4022C34.6057 17.4022 34.4376 17.2024 34.4376 17.0027V15.6046C34.4376 15.4049 34.6057 15.2051 34.7739 15.2051C34.9421 15.2051 35.1103 15.4049 35.1103 15.6046V16.6032V17.0027Z" fill="#4B7BE5"/>
</svg>
