<svg width="22" height="22" viewBox="0 0 22 22" fill="none" xmlns="http://www.w3.org/2000/svg">
<rect width="22" height="22" rx="11" fill="#F44336"/>
<path d="M16.6658 8.87747C16.6659 8.65829 16.6228 8.44124 16.539 8.23872C16.4551 8.03621 16.3322 7.85218 16.1773 7.69716C16.0224 7.54213 15.8384 7.41915 15.6359 7.33522C15.4334 7.25129 15.2164 7.20806 14.9972 7.20801H7.17031C6.95098 7.20784 6.73378 7.2509 6.53111 7.33473C6.32844 7.41856 6.14427 7.54151 5.98915 7.69656C5.83402 7.8516 5.71098 8.0357 5.62705 8.23833C5.54312 8.44096 5.49994 8.65815 5.5 8.87747V13.3545C5.49989 13.7971 5.67557 14.2216 5.9884 14.5346C6.30124 14.8477 6.72561 15.0237 7.16819 15.0239H14.9972C15.2164 15.0239 15.4334 14.9806 15.6359 14.8967C15.8384 14.8128 16.0224 14.6898 16.1773 14.5348C16.3322 14.3798 16.4551 14.1957 16.539 13.9932C16.6228 13.7907 16.6659 13.5737 16.6658 13.3545V8.87747ZM9.96558 13.0046V8.79962L13.1543 10.9023L9.96558 13.0046Z" fill="white"/>
</svg>
