<svg xmlns="http://www.w3.org/2000/svg" width="14" height="14" viewBox="0 0 14 14" fill="none">
<path fill-rule="evenodd" clip-rule="evenodd" d="M7.75049 1.0918C7.75049 0.677583 7.4147 0.341797 7.00049 0.341797C6.58627 0.341797 6.25049 0.677583 6.25049 1.0918V6.34229H1C0.585786 6.34229 0.25 6.67807 0.25 7.09229C0.25 7.5065 0.585786 7.84229 1 7.84229H6.25049V13.0918C6.25049 13.506 6.58627 13.8418 7.00049 13.8418C7.4147 13.8418 7.75049 13.506 7.75049 13.0918V7.84229H13C13.4142 7.84229 13.75 7.5065 13.75 7.09229C13.75 6.67807 13.4142 6.34229 13 6.34229H7.75049V1.0918Z" fill="white"/>
</svg>
