<svg width="38" height="35" viewBox="0 0 38 35" fill="none" xmlns="http://www.w3.org/2000/svg">
<path d="M13.6828 1.38402e-07C13.0614 1.779e-05 12.4522 0.159041 11.9232 0.459325C11.3942 0.759609 10.9662 1.18934 10.6869 1.70058L9.36783 4.11762H5.5894C4.107 4.11762 2.68531 4.6599 1.6371 5.62515C0.588881 6.59041 0 7.89957 0 9.26465V25.7351C0 27.1002 0.588881 28.4094 1.6371 29.3746C2.68531 30.3399 4.107 30.8822 5.5894 30.8822H16.9828C16.6172 30.2241 16.3229 29.5345 16.1042 28.8234H5.59163C4.70219 28.8234 3.84918 28.498 3.22025 27.9188C2.59132 27.3397 2.23799 26.5542 2.23799 25.7351V9.26465C2.23799 8.4456 2.59132 7.6601 3.22025 7.08095C3.84918 6.5018 4.70219 6.17643 5.59163 6.17643H10.0587C10.2657 6.17605 10.4686 6.12271 10.6447 6.02238C10.8207 5.92205 10.9631 5.77866 11.0558 5.6082L12.6835 2.62498C12.7767 2.4546 12.9195 2.31142 13.096 2.21145C13.2725 2.11147 13.4756 2.05863 13.6828 2.05881H22.0982C22.306 2.05844 22.5099 2.11141 22.6868 2.21178C22.8637 2.31216 23.0068 2.45596 23.0999 2.62704L24.7163 5.60614C24.8092 5.77692 24.9519 5.92051 25.1284 6.02086C25.3049 6.12122 25.5083 6.17437 25.7157 6.17438H30.185C31.0744 6.17438 31.9274 6.49974 32.5564 7.07889C33.1853 7.65805 33.5386 8.44355 33.5386 9.26259V15.6511C34.339 16.0278 35.088 16.4849 35.7744 17.0078V9.26259C35.7744 7.89751 35.1855 6.58835 34.1373 5.62309C33.0891 4.65784 31.6674 4.11556 30.185 4.11556H26.4065L25.0986 1.70675C24.82 1.19374 24.3917 0.762328 23.8617 0.460871C23.3318 0.159414 22.7211 -0.00017156 22.0982 1.38402e-07H13.6828Z" fill="#4B7BE5"/>
<path d="M17.8799 8.23535C19.8763 8.23543 21.8154 8.85033 23.3885 9.98223C24.9616 11.1141 26.0785 12.698 26.5614 14.4818C25.818 14.5584 25.0838 14.6976 24.3681 14.8977C24.0677 13.8466 23.4715 12.8871 22.6397 12.116C21.8079 11.3449 20.7699 10.7895 19.6305 10.5059C18.4911 10.2222 17.2906 10.2204 16.1502 10.5005C15.0098 10.7807 13.9698 11.3329 13.1352 12.1014C12.3006 12.87 11.701 13.8276 11.3967 14.8778C11.0925 15.9279 11.0945 17.0334 11.4025 18.0826C11.7106 19.1319 12.3137 20.0877 13.151 20.8537C13.9884 21.6196 15.0304 22.1687 16.1718 22.4453C15.9547 23.1037 15.8035 23.7791 15.7202 24.4629C13.6077 23.9713 11.7625 22.7868 10.531 21.1315C9.2995 19.4762 8.76625 17.464 9.03132 15.4724C9.29638 13.4808 10.3415 11.6467 11.9707 10.3143C13.5998 8.98183 15.701 8.24263 17.8799 8.23535Z" fill="#4B7BE5"/>
<path d="M38.0007 25.7354C38.0007 28.1925 36.9407 30.549 35.054 32.2865C33.1672 34.0239 30.6081 35 27.9398 35C25.2715 35 22.7125 34.0239 20.8257 32.2865C18.9389 30.549 17.8789 28.1925 17.8789 25.7354C17.8789 23.2782 18.9389 20.9217 20.8257 19.1843C22.7125 17.4468 25.2715 16.4707 27.9398 16.4707C30.6081 16.4707 33.1672 17.4468 35.054 19.1843C36.9407 20.9217 38.0007 23.2782 38.0007 25.7354ZM29.0577 21.6177C29.0577 21.3447 28.9399 21.0829 28.7303 20.8898C28.5206 20.6968 28.2363 20.5883 27.9398 20.5883C27.6433 20.5883 27.359 20.6968 27.1494 20.8898C26.9397 21.0829 26.8219 21.3447 26.8219 21.6177V24.706H23.4683C23.1718 24.706 22.8875 24.8144 22.6778 25.0075C22.4682 25.2005 22.3504 25.4623 22.3504 25.7354C22.3504 26.0084 22.4682 26.2702 22.6778 26.4633C22.8875 26.6563 23.1718 26.7648 23.4683 26.7648H26.8219V29.853C26.8219 30.126 26.9397 30.3878 27.1494 30.5809C27.359 30.7739 27.6433 30.8824 27.9398 30.8824C28.2363 30.8824 28.5206 30.7739 28.7303 30.5809C28.9399 30.3878 29.0577 30.126 29.0577 29.853V26.7648H32.4113C32.7078 26.7648 32.9922 26.6563 33.2018 26.4633C33.4114 26.2702 33.5292 26.0084 33.5292 25.7354C33.5292 25.4623 33.4114 25.2005 33.2018 25.0075C32.9922 24.8144 32.7078 24.706 32.4113 24.706H29.0577V21.6177Z" fill="#4B7BE5"/>
</svg>
