
<svg width="14" height="17" viewBox="0 0 14 17" fill="none" xmlns="http://www.w3.org/2000/svg">
<path d="M3.85562 1.55819C3.86295 1.43265 3.89559 1.30984 3.95161 1.19705C4.00764 1.08426 4.08591 0.983782 4.18178 0.901579C4.27766 0.819376 4.38918 0.75712 4.50974 0.7185C4.6303 0.679881 4.75745 0.665685 4.88364 0.676754H9.11712C9.24344 0.665466 9.37075 0.679499 9.49149 0.718019C9.61224 0.756539 9.72395 0.818759 9.81999 0.900983C9.91604 0.983207 9.99445 1.08376 10.0506 1.19666C10.1067 1.30956 10.1394 1.4325 10.1467 1.55819V2.52384H10.9093V1.55819C10.896 1.3388 10.8389 1.12423 10.7413 0.926954C10.6437 0.729678 10.5075 0.553638 10.3408 0.409075C10.174 0.264512 9.97993 0.154312 9.76986 0.0848843C9.55979 0.0154569 9.33791 -0.0118116 9.11712 0.00466514H4.88364C4.66304 -0.0114903 4.44141 0.0160175 4.23161 0.0855915C4.02181 0.155165 3.82803 0.265419 3.6615 0.409952C3.49498 0.554484 3.35904 0.730414 3.26158 0.927529C3.16412 1.12464 3.10707 1.33901 3.09375 1.55819V2.52384H3.8564L3.85562 1.55819Z" fill="#FF4545"/>
<path d="M2.6684 17.0002H11.3291C11.5266 16.9986 11.7218 16.9581 11.9034 16.881C12.0849 16.8039 12.2493 16.6918 12.3868 16.5512C12.5244 16.4105 12.6324 16.2442 12.7047 16.0617C12.7769 15.8793 12.812 15.6844 12.8077 15.4884V5.11816H1.1898V15.4884C1.18556 15.6844 1.22059 15.8793 1.29285 16.0617C1.3651 16.2442 1.47315 16.4105 1.61071 16.5512C1.74827 16.6918 1.9126 16.8039 2.09417 16.881C2.27574 16.9581 2.47093 16.9986 2.6684 17.0002ZM9.33068 6.72577C9.33803 6.63438 9.3798 6.5491 9.44765 6.48691C9.51551 6.42472 9.60447 6.39019 9.69683 6.39019C9.78918 6.39019 9.87815 6.42472 9.946 6.48691C10.0139 6.5491 10.0556 6.63438 10.063 6.72577V14.661C10.0556 14.7524 10.0139 14.8377 9.946 14.8999C9.87815 14.9621 9.78918 14.9966 9.69683 14.9966C9.60447 14.9966 9.51551 14.9621 9.44765 14.8999C9.3798 14.8377 9.33803 14.7524 9.33068 14.661V6.72577ZM6.63106 6.72577C6.63842 6.63438 6.68018 6.5491 6.74804 6.48691C6.81589 6.42472 6.90485 6.39019 6.99721 6.39019C7.08956 6.39019 7.17852 6.42472 7.24638 6.48691C7.31423 6.5491 7.356 6.63438 7.36336 6.72577V14.661C7.356 14.7524 7.31423 14.8377 7.24638 14.8999C7.17852 14.9621 7.08956 14.9966 6.99721 14.9966C6.90485 14.9966 6.81589 14.9621 6.74804 14.8999C6.68018 14.8377 6.63842 14.7524 6.63106 14.661V6.72577ZM3.93144 6.72577C3.93879 6.63438 3.98056 6.5491 4.04842 6.48691C4.11627 6.42472 4.20523 6.39019 4.29759 6.39019C4.38994 6.39019 4.4789 6.42472 4.54676 6.48691C4.61461 6.5491 4.65638 6.63438 4.66374 6.72577V14.661C4.65638 14.7524 4.61461 14.8377 4.54676 14.8999C4.4789 14.9621 4.38994 14.9966 4.29759 14.9966C4.20523 14.9966 4.11627 14.9621 4.04842 14.8999C3.98056 14.8377 3.93879 14.7524 3.93144 14.661V6.72577Z" fill="#FF4545"/>
<path d="M0.898812 4.52133H13.1012C13.2166 4.52828 13.3322 4.51172 13.4409 4.47266C13.5496 4.43361 13.6492 4.37288 13.7333 4.29422C13.8175 4.21556 13.8846 4.12064 13.9305 4.01528C13.9763 3.90993 14 3.79637 14 3.6816C14 3.56683 13.9763 3.45328 13.9305 3.34792C13.8846 3.24257 13.8175 3.14764 13.7333 3.06898C13.6492 2.99033 13.5496 2.9296 13.4409 2.89054C13.3322 2.85149 13.2166 2.83492 13.1012 2.84188H0.898812C0.783409 2.83492 0.667792 2.85149 0.559077 2.89054C0.450362 2.9296 0.350846 2.99033 0.266654 3.06898C0.182461 3.14764 0.115372 3.24257 0.0695144 3.34792C0.0236566 3.45328 0 3.56683 0 3.6816C0 3.79637 0.0236566 3.90993 0.0695144 4.01528C0.115372 4.12064 0.182461 4.21556 0.266654 4.29422C0.350846 4.37288 0.450362 4.43361 0.559077 4.47266C0.667792 4.51172 0.783409 4.52828 0.898812 4.52133Z" fill="#FF4545"/>
</svg>