<svg width="202" height="142" viewBox="0 0 202 142" fill="none" xmlns="http://www.w3.org/2000/svg">
<path d="M148.717 0.893288C148.717 0.893288 145.151 -0.404209 142.858 4.78606C140.566 9.97632 137 15.6861 137 15.6861L139.037 16.205C139.037 16.205 139.547 12.5716 140.82 12.0535L140.311 16.7246C140.311 16.7246 155.594 22.1744 162.471 16.2056L162.216 14.3889C162.216 14.3889 163.236 14.6488 163.236 16.2053L164 15.4268C164 15.4268 163.236 13.8697 160.944 11.7933C159.439 10.4307 158.922 7.838 158.744 6.21716C158.611 4.86368 158.08 3.58279 157.219 2.54249C155.695 0.743598 152.92 -1.16785 148.717 0.893288Z" fill="#212121"/>
<path d="M158 58H33V142H158V58Z" fill="#F5F5F5"/>
<path d="M159 140C159 141.105 158.105 142 157 142H34C32.8954 142 32 141.105 32 140V59C32 57.8954 32.8954 57 34 57H157C158.105 57 159 57.8954 159 59V140ZM32.8699 139.14C32.8699 140.244 33.7653 141.14 34.8699 141.14H156.13C157.235 141.14 158.13 140.244 158.13 139.14V59.8602C158.13 58.7556 157.235 57.8602 156.13 57.8602H34.8699C33.7653 57.8602 32.8699 58.7556 32.8699 59.8602V139.14Z" fill="#BEBEBE"/>
<path d="M43 135H148V65H43V135Z" fill="white"/>
<path d="M63 94C67.9706 94 72 89.9706 72 85C72 80.0294 67.9706 76 63 76C58.0294 76 54 80.0294 54 85C54 89.9706 58.0294 94 63 94Z" fill="#4B7BE5"/>
<path d="M107.667 134.956H53.9754C53.9078 134.957 53.8401 134.952 53.7734 134.94L79.1676 90.9553C79.3225 90.6813 79.5474 90.4534 79.8193 90.2949C80.0912 90.1363 80.4003 90.0527 80.715 90.0527C81.0297 90.0527 81.3389 90.1363 81.6107 90.2949C81.8826 90.4534 82.1075 90.6813 82.2625 90.9553L99.306 120.47L100.122 121.883L107.667 134.956Z" fill="#E5E5E5"/>
<path opacity="0.2" d="M107.668 134.955H89.3359L98.335 121.883L98.9831 120.941L99.3072 120.47L100.123 121.883L107.668 134.955Z" fill="black"/>
<path d="M137.562 134.956H91.123L100.122 121.883L100.77 120.942L112.496 103.907C112.703 103.647 112.963 103.433 113.258 103.28C113.554 103.127 113.878 103.037 114.21 103.017C114.542 102.998 114.875 103.048 115.186 103.165C115.498 103.282 115.781 103.463 116.018 103.697C116.079 103.763 116.135 103.834 116.187 103.907L137.562 134.956Z" fill="#E5E5E5"/>
<path d="M160.414 58.7277C160.672 58.3642 160.851 57.9457 160.939 57.5017C161.026 57.0577 161.02 56.599 160.92 56.1579C160.82 55.7168 160.629 55.3041 160.36 54.9487C160.092 54.5934 159.752 54.3041 159.365 54.1013L151.778 27L146 29.966L155.275 55.673C154.993 56.3768 154.966 57.1648 155.201 57.8876C155.436 58.6104 155.916 59.2177 156.549 59.5943C157.183 59.971 157.926 60.0908 158.639 59.931C159.351 59.7712 159.983 59.3429 160.414 58.7274V58.7277Z" fill="#A0616A"/>
<path d="M153.022 31.2667L146.566 32.9556C146.382 33.0036 146.19 33.0128 146.002 32.9826C145.814 32.9523 145.636 32.8834 145.478 32.7803C145.32 32.6773 145.187 32.5427 145.089 32.3856C144.99 32.2285 144.927 32.0526 144.905 31.87L144.124 25.4706C143.873 24.5602 144.006 23.5906 144.494 22.7749C144.982 21.9593 145.785 21.3643 146.727 21.1208C147.669 20.8772 148.672 21.0051 149.517 21.4763C150.361 21.9474 150.977 22.7233 151.23 23.6334L153.889 29.5198C153.966 29.6884 154.003 29.8708 154 30.0547C153.996 30.2385 153.952 30.4195 153.87 30.5853C153.787 30.7511 153.669 30.8978 153.523 31.0155C153.376 31.1331 153.206 31.2188 153.022 31.2669L153.022 31.2667Z" fill="#6C63FF"/>
<path d="M162.002 86H165.389L167 76H162L162.002 86Z" fill="#FFB8B8"/>
<path d="M161 83H168.33C168.943 83 169.55 83.1252 170.117 83.3685C170.683 83.6118 171.198 83.9684 171.632 84.4181C172.066 84.8677 172.41 85.4015 172.644 85.989C172.879 86.5765 173 87.2061 173 87.842V88H161L161 83Z" fill="#2F2E41"/>
<path d="M167.171 80C167.13 80 167.088 79.998 167.046 79.994L162.095 79.642C161.895 79.6238 161.702 79.561 161.53 79.4583C161.359 79.3557 161.214 79.2159 161.106 79.0499C160.999 78.8839 160.932 78.6959 160.911 78.5006C160.889 78.3053 160.914 78.1079 160.984 77.9235L167.609 63.382C167.656 63.2522 167.676 63.1143 167.666 62.977C167.656 62.8396 167.617 62.7058 167.551 62.5839C167.486 62.4605 167.395 62.352 167.283 62.2655C167.172 62.1791 167.043 62.1166 166.906 62.0822C163.79 61.2866 155.797 59.1682 148.877 56.6897C145.912 55.6277 144.045 54.0933 143.327 52.1291C142.381 49.5389 143.781 47.1767 143.841 47.0775L143.888 47L150.399 47.5781L157.458 48.1647L172.927 56.2679C174.223 56.9526 175.208 58.0892 175.685 59.4512C176.161 60.8132 176.096 62.3007 175.5 63.6174L168.369 79.2401C168.265 79.4661 168.097 79.658 167.885 79.7929C167.672 79.9277 167.425 79.9997 167.171 80Z" fill="#212121"/>
<path d="M151 18C154.866 18 158 14.6421 158 10.5C158 6.35786 154.866 3 151 3C147.134 3 144 6.35786 144 10.5C144 14.6421 147.134 18 151 18Z" fill="#FFB8B8"/>
<path d="M160.002 85H163.389L165 75H160L160.002 85Z" fill="#FFB8B8"/>
<path d="M159 83H165.719C166.281 83 166.838 83.1252 167.357 83.3685C167.877 83.6118 168.348 83.9684 168.746 84.4181C169.144 84.8677 169.459 85.4015 169.674 85.989C169.889 86.5765 170 87.2061 170 87.842V88H159L159 83Z" fill="#2F2E41"/>
<path d="M164.439 80C164.398 80 164.358 79.9981 164.317 79.9942L159.516 79.6528C159.322 79.6352 159.135 79.5743 158.969 79.4747C158.802 79.3752 158.662 79.2397 158.558 79.0787C158.454 78.9177 158.389 78.7355 158.368 78.5461C158.347 78.3567 158.371 78.1652 158.439 77.9864L164.864 63.8856C164.909 63.7597 164.928 63.626 164.918 63.4928C164.908 63.3596 164.871 63.2298 164.807 63.1116C164.744 62.992 164.655 62.8868 164.547 62.803C164.44 62.7191 164.315 62.6585 164.181 62.6252C161.16 61.8537 153.409 59.7995 146.699 57.3961C143.824 56.3662 142.014 54.8783 141.317 52.9736C140.4 50.4619 141.757 48.1714 141.815 48.0752L141.861 48L148.175 48.5605L155.02 49.1294L170.02 56.987C171.277 57.651 172.232 58.7531 172.694 60.0739C173.157 61.3946 173.093 62.837 172.515 64.1139L165.6 79.2631C165.5 79.4822 165.337 79.6684 165.131 79.7992C164.925 79.9299 164.684 79.9997 164.439 80Z" fill="#212121"/>
<path d="M152.571 21.6355L145.143 19C145.143 19 140.479 22.6721 142.72 31.7817C143.889 36.4825 143.549 41.4445 141.748 45.9311C141.532 46.4862 141.282 47.0271 141 47.5508C141 47.5508 149.286 57.7998 157 50.1862L154 35.3984C154 35.3984 158.714 25.5886 152.571 21.6355Z" fill="#4B7BE5"/>
<path d="M171.77 58.003C171.941 57.5753 172.018 57.1145 171.996 56.6531C171.974 56.1916 171.853 55.7408 171.642 55.3322C171.431 54.9236 171.134 54.5674 170.774 54.2884C170.413 54.0095 169.997 53.8147 169.555 53.7177L155.113 29L150 33.4691L165.804 56.3606C165.693 57.1306 165.863 57.9153 166.281 58.5659C166.699 59.2166 167.336 59.6879 168.072 59.8905C168.808 60.093 169.591 60.0128 170.272 59.6649C170.954 59.3171 171.487 58.7258 171.77 58.0033V58.003Z" fill="#FFB8B8"/>
<path d="M157.287 33.397L151.089 36.8209C150.913 36.9182 150.717 36.9776 150.515 36.9948C150.313 37.012 150.11 36.9867 149.919 36.9205C149.728 36.8544 149.553 36.7491 149.408 36.6117C149.263 36.4743 149.149 36.308 149.076 36.1242L146.506 29.6831C145.995 28.8031 145.865 27.7619 146.144 26.7884C146.422 25.8149 147.088 24.9889 147.993 24.4922C148.898 23.9954 149.97 23.8686 150.971 24.1396C151.973 24.4105 152.823 25.0571 153.334 25.9371L157.7 31.3589C157.825 31.5142 157.914 31.6938 157.961 31.8855C158.008 32.0773 158.013 32.2767 157.973 32.4701C157.934 32.6635 157.852 32.8464 157.734 33.0063C157.615 33.1663 157.462 33.2995 157.286 33.397H157.287Z" fill="#4B7BE5"/>
<path d="M143 12C143 12 146.031 8.02827 147.735 7.48022C148.757 7.15275 149.744 6.7012 150.68 6.13352C150.68 6.13352 154.065 9.67305 156.743 9.94692C159.421 10.2208 156.987 3.37029 156.987 3.37029L152.117 2L147.491 2.54805L143.839 5.28893L143 12Z" fill="#212121"/>
<path d="M145.924 108.365C145.924 110.502 147.65 112.241 149.77 112.241C151.89 112.241 153.616 110.502 153.616 108.365C153.616 106.228 151.89 104.489 149.77 104.489C147.65 104.489 145.924 106.228 145.924 108.365ZM152.758 108.365C152.758 110.026 151.418 111.377 149.77 111.377C148.121 111.377 146.782 110.026 146.782 108.365C146.782 106.704 148.121 105.353 149.77 105.353C151.418 105.353 152.758 106.705 152.758 108.365Z" fill="#4B7BE5"/>
<path d="M191 34.5425L194.445 36.2541L194.995 40.0889L197.677 37.314L201.463 37.9692L199.675 34.5443L201.463 31.1175L197.675 31.7711L194.994 28.9996L194.443 32.8274L191 34.5425ZM197.376 32.6978L199.895 32.2638L198.708 34.5425L199.895 36.8195L197.376 36.3838L195.594 38.2286L195.227 35.6801L192.935 34.5425L195.227 33.4014L195.594 30.8548L197.376 32.6978Z" fill="#4B7BE5"/>
<path d="M117.961 6.60455L119.197 4.23939L116.582 4.69064L114.731 2.77846L114.349 5.42197L111.973 6.60628L114.349 7.79058L114.731 10.4341L116.582 8.52192L119.197 8.97315L117.961 6.60455ZM115.33 8.57551L115.133 7.21485L113.909 6.60455L115.133 5.99424L115.33 4.63359L116.284 5.61734L117.629 5.38567L116.994 6.60282L117.629 7.81997L116.284 7.5883L115.33 8.57551Z" fill="black"/>
<path d="M64 28.6043L68.7639 30.1638L68.7639 35.2104L71.7094 31.1302L76.4698 32.688L73.526 28.6043L76.4698 24.5223L71.7094 26.0801L68.7639 21.9998L68.7639 27.0465L64 28.6043ZM71.3817 27.0967L74.226 26.1665L72.4693 28.6043L74.226 31.0438L71.3817 30.1136L69.6233 32.5531L69.6233 29.5362L66.7791 28.6043L69.6233 27.6741L69.6233 24.6572L71.3817 27.0967Z" fill="#4B7BE5"/>
<path d="M19.6922 23.8762C19.6922 21.7393 17.9664 20 15.8461 20C13.7258 20 12 21.7393 12 23.8762C12 26.0132 13.7258 27.7524 15.8461 27.7524C17.9664 27.7524 19.6922 26.0132 19.6922 23.8762ZM12.8577 23.8762C12.8577 22.2147 14.1975 20.8645 15.8461 20.8645C17.4947 20.8645 18.8345 22.2147 18.8345 23.8762C18.8345 25.5377 17.4947 26.888 15.8461 26.888C14.1975 26.888 12.8577 25.5377 12.8577 23.8762Z" fill="black"/>
<path opacity="0.5" d="M22.6392 141.558L23.2704 141.545C23.0263 134.526 22.2774 127.534 21.0295 120.623C18.2998 105.825 13.7607 96.1072 7.53827 91.7383L7.17578 92.2549C21.7114 102.461 22.6318 141.168 22.6392 141.558Z" fill="#212121"/>
<path opacity="0.5" d="M14.7486 141.406L15.3799 141.394C15.3663 140.695 14.9718 124.219 8.48553 119.665L8.12305 120.182C14.3476 124.552 14.7455 141.238 14.7486 141.406Z" fill="#212121"/>
<path d="M3.58409 92.3127C5.3273 92.3127 6.74045 90.8996 6.74045 89.1564C6.74045 87.4132 5.3273 86 3.58409 86C1.84088 86 0.427734 87.4132 0.427734 89.1564C0.427734 90.8996 1.84088 92.3127 3.58409 92.3127Z" fill="#4B7BE5"/>
<path d="M5.14854 119.458C6.89175 119.458 8.3049 118.045 8.3049 116.301C8.3049 114.558 6.89175 113.145 5.14854 113.145C3.40534 113.145 1.99219 114.558 1.99219 116.301C1.99219 118.045 3.40534 119.458 5.14854 119.458Z" fill="#4B7BE5"/>
<path opacity="0.2" d="M16.2195 94.2052C15.6263 97.9941 17.1724 101.383 17.1724 101.383C17.1724 101.383 19.6802 98.6288 20.2734 94.8399C20.8666 91.051 19.3205 87.6621 19.3205 87.6621C19.3205 87.6621 16.8127 90.4163 16.2195 94.2052Z" fill="#212121"/>
<path opacity="0.2" d="M5.90268 103.406C9.53028 104.651 13.1367 103.719 13.1367 103.719C13.1367 103.719 10.8616 100.769 7.234 99.5249C3.60641 98.2806 0 99.2126 0 99.2126C0 99.2126 2.27509 102.162 5.90268 103.406Z" fill="#212121"/>
<path opacity="0.2" d="M5.78572 127.446C7.42754 127.962 9.176 128.037 10.8562 127.665C9.78934 126.307 8.35255 125.286 6.71887 124.726C5.0852 124.165 3.32434 124.089 1.64844 124.507C2.74637 125.832 4.17304 126.846 5.78572 127.446Z" fill="#212121"/>
</svg>
