<svg width="13" height="15" viewBox="0 0 13 15" fill="none" xmlns="http://www.w3.org/2000/svg">
<path d="M10.6776 15C10.2919 15.0004 9.91229 14.9071 9.57367 14.7285C9.23505 14.5499 8.94831 14.2919 8.73983 13.9781C8.53134 13.6643 8.40781 13.3048 8.3806 12.9327C8.35339 12.5607 8.42338 12.188 8.58412 11.8489L4.03022 8.97002C3.72172 9.31069 3.31303 9.55213 2.8588 9.66216C2.40456 9.77219 1.92641 9.74557 1.48827 9.58576C1.05013 9.42595 0.672873 9.14056 0.406925 8.76785C0.140977 8.39513 -0.000989017 7.95283 5.18639e-06 7.5C0.00099939 7.04716 0.144906 6.60541 0.412489 6.23379C0.680071 5.86217 1.05858 5.57837 1.49742 5.42036C1.93626 5.26235 2.41452 5.23762 2.86827 5.34952C3.32202 5.46142 3.72964 5.70458 4.03664 6.04652L8.59053 3.1676C8.45019 2.87851 8.37716 2.56316 8.37659 2.2438C8.37461 1.72719 8.55772 1.22585 8.89478 0.825048C9.23184 0.424245 9.70205 0.148703 10.2255 0.0452718C10.7489 -0.0581599 11.2931 0.0168786 11.7658 0.257674C12.2384 0.49847 12.6102 0.890153 12.818 1.36609C13.0258 1.84203 13.0567 2.3729 12.9054 2.86838C12.7542 3.36386 12.4302 3.79338 11.9885 4.08395C11.5468 4.37451 11.0146 4.50814 10.4825 4.46215C9.95043 4.41617 9.45122 4.1934 9.06978 3.8317L4.46347 6.74276C4.55781 6.98773 4.6067 7.24687 4.60788 7.50827C4.60743 7.76974 4.55852 8.029 4.46347 8.27378L9.06336 11.1848C9.33278 10.9286 9.66326 10.7403 10.0257 10.6368C10.388 10.5332 10.7712 10.5175 11.1414 10.591C11.5116 10.6645 11.8574 10.8249 12.1483 11.0581C12.4392 11.2913 12.6663 11.5902 12.8096 11.9284C12.9528 12.2665 13.0079 12.6336 12.9698 12.9971C12.9317 13.3607 12.8017 13.7096 12.5913 14.0131C12.3808 14.3166 12.0964 14.5654 11.763 14.7375C11.4297 14.9096 11.0576 14.9998 10.6797 15H10.6776Z" fill="#4B7BE5"/>
</svg>
