<svg xmlns="http://www.w3.org/2000/svg" width="70" height="70" viewBox="0 0 70 70"><defs><style>.a{fill:#f6f6f6;}.b{fill:#fff;}.c{fill:#0ab00f;}</style></defs><g transform="translate(-145 -286)"><circle class="a" cx="35" cy="35" r="35" transform="translate(145 286)"/><g transform="translate(-96 -195)"><ellipse class="b" cx="19" cy="19.5" rx="19" ry="19.5" transform="translate(257 493)"/><path class="c" d="M26.375,3.375a23,23,0,1,0,23,23A23,23,0,0,0,26.375,3.375ZM38.151,20.017,23.367,34.867h-.011a2,2,0,0,1-1.283.608,1.936,1.936,0,0,1-1.294-.63l-6.192-6.192a.441.441,0,0,1,0-.63l1.968-1.968a.428.428,0,0,1,.619,0l4.91,4.91,13.49-13.59a.437.437,0,0,1,.31-.133h0a.4.4,0,0,1,.31.133l1.935,2A.436.436,0,0,1,38.151,20.017Z" transform="translate(249.625 489.625)"/></g></g></svg>