
<svg width="13" height="7" viewBox="0 0 13 7" fill="none" xmlns="http://www.w3.org/2000/svg">
<path opacity="0.4" d="M0.229747 5.61441C0.0814121 5.76663 -0.00119045 5.97106 -0.000252994 6.18365C-0.0023816 6.29009 0.0167396 6.39589 0.055989 6.49485C0.0952384 6.5938 0.153828 6.68393 0.228328 6.75995C0.302828 6.83598 0.39174 6.89637 0.489858 6.93758C0.587976 6.9788 0.69333 7.00002 0.799747 7C0.908379 7.00007 1.01591 6.97822 1.11591 6.93576C1.21591 6.8933 1.30632 6.83111 1.38175 6.75289L6.00875 1.95084L10.6217 6.75289C10.6976 6.83056 10.7881 6.8924 10.888 6.93482C10.9879 6.97724 11.0952 6.99939 11.2037 7C11.3102 7.00002 11.4155 6.9788 11.5136 6.93758C11.6118 6.89637 11.7007 6.83598 11.7752 6.75995C11.8497 6.68393 11.9083 6.5938 11.9475 6.49485C11.9868 6.39589 12.0059 6.29009 12.0037 6.18365C12.0048 6.07933 11.985 5.97584 11.9455 5.87928C11.906 5.78273 11.8476 5.69505 11.7737 5.62141L6.62975 0.288123C6.55157 0.19792 6.45498 0.125529 6.34648 0.0758279C6.23797 0.0261265 6.12008 0.000269534 6.00075 -2.62406e-07C5.88327 0.00125345 5.76733 0.0268858 5.66027 0.0752752C5.5532 0.123665 5.45734 0.193758 5.37875 0.28112L0.229747 5.61441Z" fill="#212121"/>
</svg>
