
<svg width="13" height="7" viewBox="0 0 13 7" fill="none" xmlns="http://www.w3.org/2000/svg">
<path opacity="0.4" d="M11.7742 1.38559C11.9225 1.23337 12.0051 1.02893 12.0042 0.81635C12.0063 0.709908 11.9872 0.604111 11.9479 0.505154C11.9087 0.406197 11.8501 0.316068 11.7756 0.240046C11.7011 0.164023 11.6122 0.103634 11.514 0.0624161C11.4159 0.0211978 11.3106 -2.14577e-05 11.2042 0C11.0955 -6.7234e-05 10.988 0.0217805 10.888 0.0642385C10.788 0.106696 10.6976 0.168892 10.6222 0.247106L5.99516 5.04916L1.38216 0.247106C1.30632 0.169435 1.21583 0.107598 1.11592 0.0651803C1.01602 0.0227623 0.908688 0.000607491 0.800159 0C0.693742 -2.14577e-05 0.588389 0.0211978 0.49027 0.0624161C0.392152 0.103634 0.30324 0.164023 0.22874 0.240046C0.154241 0.316068 0.0956518 0.406197 0.056402 0.505154C0.0171522 0.604111 -0.00196832 0.709908 0.000160027 0.81635C-0.000912886 0.920674 0.0188826 1.02416 0.0583818 1.12072C0.0978811 1.21727 0.156286 1.30495 0.23016 1.37859L5.37416 6.71188C5.45233 6.80208 5.54893 6.87447 5.65743 6.92417C5.76593 6.97387 5.88382 6.99973 6.00316 7C6.12064 6.99875 6.23658 6.97311 6.34364 6.92472C6.45071 6.87634 6.54657 6.80624 6.62516 6.71888L11.7742 1.38559Z" fill="#212121"/>
</svg>
