
<svg width="8" height="13" viewBox="0 0 8 13" fill="none" xmlns="http://www.w3.org/2000/svg">
<path opacity="0.4" d="M1.88755 1.22584C1.73533 1.07751 1.53089 0.994903 1.3183 0.99584C1.21186 0.993712 1.10606 1.01283 1.00711 1.05208C0.908151 1.09133 0.818022 1.14992 0.742 1.22442C0.665977 1.29892 0.605588 1.38783 0.56437 1.48595C0.523152 1.58407 0.501933 1.68942 0.501954 1.79584C0.501887 1.90447 0.523735 2.012 0.566193 2.112C0.60865 2.212 0.670846 2.30242 0.74906 2.37784L5.55112 7.00484L0.749059 11.6178C0.671388 11.6937 0.609551 11.7842 0.567134 11.8841C0.524716 11.984 0.502561 12.0913 0.501953 12.1998C0.501932 12.3063 0.523151 12.4116 0.564369 12.5097C0.605588 12.6078 0.665976 12.6968 0.741999 12.7713C0.818021 12.8458 0.90815 12.9043 1.00711 12.9436C1.10606 12.9828 1.21186 13.002 1.3183 12.9998C1.42263 13.0009 1.52611 12.9811 1.62267 12.9416C1.71923 12.9021 1.8069 12.8437 1.88054 12.7698L7.21383 7.62584C7.30403 7.54767 7.37642 7.45107 7.42613 7.34257C7.47583 7.23407 7.50168 7.11618 7.50195 6.99684C7.5007 6.87936 7.47507 6.76342 7.42668 6.65636C7.37829 6.54929 7.3082 6.45343 7.22083 6.37484L1.88755 1.22584Z" fill="#212121"/>
</svg>
