<svg width="18" height="18" viewBox="0 0 18 18" fill="none" xmlns="http://www.w3.org/2000/svg">
<path d="M16.0003 0H1.99971C1.46936 0 0.960722 0.210684 0.585703 0.585703C0.210684 0.960722 0 1.46936 0 1.99971V16.0003C0 16.5306 0.210684 17.0393 0.585703 17.4143C0.960722 17.7893 1.46936 18 1.99971 18H16.0003C16.5306 18 17.0393 17.7893 17.4143 17.4143C17.7893 17.0393 18 16.5306 18 16.0003V1.99971C18 1.46936 17.7893 0.960722 17.4143 0.585703C17.0393 0.210684 16.5306 0 16.0003 0ZM7.00029 13.9997L1.99971 9L3.40971 7.59L6.99943 11.1703L14.5894 3.58029L15.9994 5.00057L7.00029 13.9997Z" fill="#4B7BE5"/>
</svg>
