<svg width="18" height="18" viewBox="0 0 18 18" fill="none" xmlns="http://www.w3.org/2000/svg">
<path d="M9 0C7.21997 0 5.47991 0.527841 3.99987 1.51677C2.51983 2.50571 1.36628 3.91131 0.685088 5.55585C0.00389956 7.20038 -0.17433 9.00998 0.172936 10.7558C0.520203 12.5016 1.37737 14.1053 2.63604 15.364C3.89471 16.6226 5.49836 17.4798 7.24419 17.8271C8.99002 18.1743 10.7996 17.9961 12.4442 17.3149C14.0887 16.6337 15.4943 15.4802 16.4832 14.0001C17.4722 12.5201 18 10.78 18 9C18 7.8181 17.7672 6.64778 17.3149 5.55585C16.8626 4.46392 16.1997 3.47177 15.364 2.63604C14.5282 1.80031 13.5361 1.13738 12.4442 0.685084C11.3522 0.232792 10.1819 0 9 0Z" fill="#4B7BE5"/>
<path d="M12.021 5.91706L7.78883 10.3464L6.0316 8.29577C5.96335 8.21678 5.88168 8.15341 5.79126 8.10929C5.70084 8.06517 5.60343 8.04115 5.50461 8.03861C5.40579 8.03607 5.30748 8.05506 5.2153 8.09449C5.12312 8.13393 5.03887 8.19303 4.96736 8.26843C4.89586 8.34383 4.8385 8.43406 4.79856 8.53395C4.75862 8.63384 4.73688 8.74144 4.73458 8.85061C4.73228 8.95979 4.74947 9.06839 4.78516 9.17022C4.82086 9.27206 4.87436 9.36513 4.94261 9.44412L7.21959 12.0689C7.28662 12.1467 7.36726 12.2086 7.4566 12.2509C7.54594 12.2932 7.64213 12.315 7.73933 12.315C7.83494 12.3202 7.93049 12.3034 8.01994 12.2658C8.10939 12.2281 8.19082 12.1704 8.25908 12.0963L13.0358 7.09274C13.1752 6.94302 13.2559 6.73888 13.2605 6.52416C13.2651 6.30944 13.1933 6.10128 13.0605 5.9444C12.9952 5.86485 12.9159 5.80079 12.8275 5.75613C12.739 5.71146 12.6433 5.68711 12.5461 5.68455C12.4489 5.68199 12.3522 5.70128 12.262 5.74125C12.1717 5.78122 12.0897 5.84103 12.021 5.91706Z" fill="white"/>
</svg>
