<svg width="23" height="24" viewBox="0 0 23 24" fill="none" xmlns="http://www.w3.org/2000/svg">
<path d="M6.57478 11.5715C6.57448 12.0437 6.4907 12.5117 6.32763 12.9521L6.65405 14.9273C6.66421 14.9888 6.66137 15.0519 6.64571 15.1122C6.63006 15.1725 6.60197 15.2285 6.56341 15.2762C6.52486 15.324 6.47677 15.3624 6.42251 15.3887C6.36825 15.415 6.30913 15.4287 6.24929 15.4287H4.70726L4.26405 17.0642C4.25681 17.091 4.24808 17.117 4.23925 17.143H8.96498L8.22318 12.4991C8.21337 12.4377 8.2165 12.3748 8.23235 12.3148C8.2482 12.2548 8.27638 12.1991 8.31494 12.1516C8.3535 12.1041 8.40151 12.066 8.45564 12.0398C8.50976 12.0136 8.5687 12.0001 8.62835 12.0001H16.4319V10.2858H10.3277C10.2308 10.2858 10.1371 10.2501 10.0631 10.185C9.98901 10.1199 9.93937 10.0296 9.92292 9.93001L8.28237 0H4.1875L6.32763 12.9521C6.90405 13.6494 6.57737 10.6506 6.57478 11.5715Z" fill="#060B29"/>
<path d="M18.0714 2.99986C18.0714 2.8862 18.0282 2.77719 17.9511 2.69682C17.8741 2.61644 17.7696 2.57129 17.6607 2.57129C17.5518 2.57129 17.4473 2.61644 17.3703 2.69682C17.2933 2.77719 17.25 2.8862 17.25 2.99986V11.9999H18.0714V2.99986Z" fill="#4B7BE5"/>
<path d="M21.4449 5.41087C21.3866 5.33485 21.3548 5.24038 21.3548 5.14301C21.3548 5.04563 21.3866 4.95116 21.4449 4.87515L22.5538 3.42871H18.8906V6.85731H22.5539L21.4449 5.41087Z" fill="#4B7BE5"/>
<path d="M18.8929 12.4285C18.8929 12.5422 18.8496 12.6512 18.7726 12.7316C18.6955 12.8119 18.5911 12.8571 18.4821 12.8571H9.1098L9.8516 17.501C9.8614 17.5624 9.85827 17.6253 9.84243 17.6853C9.82658 17.7453 9.7984 17.801 9.75984 17.8485C9.72128 17.8959 9.67327 17.9341 9.61914 17.9603C9.56502 17.9864 9.50608 18 9.44643 18H2.67478C2.40663 17.9992 2.14599 17.9075 1.93214 17.7387C1.71828 17.5699 1.56279 17.3331 1.4891 17.0641L1.04609 15.4285H0V19.7143H7.0956C7.19244 19.7143 7.28616 19.75 7.36022 19.8151C7.43428 19.8802 7.48391 19.9705 7.50036 20.0701L8.14955 24H12.2444L12.0442 22.7871C12.034 22.7256 12.0369 22.6625 12.0525 22.6022C12.0682 22.542 12.0962 22.486 12.1348 22.4383C12.1733 22.3905 12.2214 22.3521 12.2756 22.3258C12.3298 22.2994 12.3889 22.2858 12.4488 22.2857H19.3036V18H11.5991C11.5022 18 11.4085 17.9643 11.3345 17.8992C11.2604 17.8341 11.2108 17.7437 11.1943 17.6442L10.7698 15.0727C10.7596 15.0112 10.7624 14.9481 10.7781 14.8878C10.7938 14.8275 10.8218 14.7716 10.8604 14.7238C10.899 14.6761 10.947 14.6377 11.0013 14.6114C11.0556 14.585 11.1147 14.5714 11.1745 14.5714H23V10.2856H18.8929V12.4285Z" fill="#060B29"/>
<path d="M2.99096 14.9645C3.57524 13.8635 4.60313 11.8255 4.60313 10.9588C4.60313 9.75242 3.70507 8.78027 2.59063 8.78027C1.47618 8.78027 0.578125 9.75242 0.578125 10.9588C0.578125 11.8138 1.59519 13.8518 2.19029 14.9645C2.36341 15.3042 2.80702 15.3042 2.99096 14.9645ZM1.64929 10.9588C1.64929 10.3966 2.07127 9.93982 2.59063 9.93982C3.10998 9.93982 3.53196 10.3966 3.53196 10.9588C3.53196 11.521 3.10998 11.9778 2.59063 11.9778C2.07127 11.9778 1.64929 11.521 1.64929 10.9588Z" fill="#4B7BE5"/>
</svg>
