<svg width="40" height="41" viewBox="0 0 40 41" fill="none" xmlns="http://www.w3.org/2000/svg">
<path d="M11.4291 19.7681C11.4286 20.5747 11.2829 21.3743 10.9993 22.1266L11.567 25.5009C11.5847 25.6061 11.5797 25.7139 11.5525 25.8168C11.5253 25.9198 11.4764 26.0154 11.4094 26.097C11.3423 26.1786 11.2587 26.2442 11.1643 26.2892C11.0699 26.3342 10.9671 26.3575 10.8631 26.3575H8.18127L7.41047 29.1515C7.39788 29.1973 7.3827 29.2418 7.36734 29.2861H15.586L14.2959 21.3528C14.2789 21.2479 14.2843 21.1404 14.3119 21.0379C14.3394 20.9354 14.3884 20.8403 14.4555 20.7591C14.5226 20.678 14.6061 20.6128 14.7002 20.5681C14.7943 20.5234 14.8968 20.5002 15.0006 20.5003H28.572V17.5716H17.9559C17.7875 17.5717 17.6245 17.5107 17.4957 17.3995C17.3669 17.2883 17.2806 17.134 17.252 16.9639L14.3989 0H7.27734L10.9993 22.1266C12.0018 23.3179 11.4336 18.1949 11.4291 19.7681Z" fill="#060B29"/>
<path d="M31.4286 5.12449C31.4286 4.93031 31.3533 4.74408 31.2194 4.60678C31.0854 4.46947 30.9037 4.39233 30.7143 4.39233C30.5248 4.39233 30.3432 4.46947 30.2092 4.60678C30.0753 4.74408 30 4.93031 30 5.12449V20.4997H31.4286V5.12449Z" fill="#4B7BE5"/>
<path d="M37.2977 9.24387C37.1963 9.11401 37.141 8.95262 37.141 8.78627C37.141 8.61992 37.1963 8.45853 37.2977 8.32868L39.2263 5.85767H32.8555V11.7149H39.2265L37.2977 9.24387Z" fill="#4B7BE5"/>
<path d="M32.8571 21.232C32.8571 21.4262 32.7819 21.6125 32.6479 21.7498C32.514 21.8871 32.3323 21.9642 32.1429 21.9642H15.8431L17.1332 29.8975C17.1503 30.0024 17.1448 30.1099 17.1173 30.2124C17.0897 30.3149 17.0407 30.41 16.9736 30.4912C16.9066 30.5723 16.8231 30.6375 16.7289 30.6822C16.6348 30.7269 16.5323 30.75 16.4286 30.75H4.65179C4.18544 30.7487 3.73216 30.592 3.36024 30.3036C2.98831 30.0153 2.7179 29.6108 2.58973 29.1512L1.81929 26.3571H0V33.6786H12.3402C12.5086 33.6786 12.6716 33.7396 12.8004 33.8508C12.9292 33.962 13.0155 34.1163 13.0441 34.2864L14.1731 41.0002H21.2946L20.9464 38.9281C20.9288 38.823 20.9337 38.7152 20.9609 38.6122C20.9881 38.5093 21.0369 38.4137 21.1039 38.3321C21.1709 38.2506 21.2545 38.185 21.3489 38.1399C21.4432 38.0949 21.546 38.0716 21.65 38.0715H33.5714V30.75H20.1723C20.0039 30.75 19.8409 30.689 19.7121 30.5778C19.5833 30.4666 19.497 30.3123 19.4684 30.1422L18.73 25.7492C18.7123 25.6441 18.7173 25.5363 18.7445 25.4334C18.7718 25.3304 18.8206 25.2348 18.8877 25.1532C18.9547 25.0717 19.0383 25.0061 19.1327 24.9611C19.2271 24.9161 19.3299 24.8928 19.4339 24.8928H40V17.5713H32.8571V21.232Z" fill="#060B29"/>
<path d="M5.19624 25.5648C6.21237 23.6839 8 20.2024 8 18.7217C8 16.6608 6.43817 15 4.5 15C2.56183 15 1 16.6608 1 18.7217C1 20.1824 2.76882 23.6639 3.80376 25.5648C4.10484 26.1451 4.87634 26.1451 5.19624 25.5648ZM2.8629 18.7217C2.8629 17.7613 3.59677 16.9809 4.5 16.9809C5.40323 16.9809 6.1371 17.7613 6.1371 18.7217C6.1371 19.6821 5.40323 20.4625 4.5 20.4625C3.59677 20.4625 2.8629 19.6821 2.8629 18.7217Z" fill="#4B7BE5"/>
</svg>
