<svg width="17" height="17" viewBox="0 0 17 17" fill="none" xmlns="http://www.w3.org/2000/svg">
<path d="M0 14.2178C0 14.9557 0.293118 15.6633 0.814872 16.1851C1.33663 16.7068 2.04428 17 2.78215 17H12.778C13.5159 17 14.2235 16.7068 14.7453 16.1851C15.267 15.6633 15.5601 14.9557 15.5601 14.2178V10.9985C15.5601 10.7877 15.4764 10.5855 15.3273 10.4364C15.1783 10.2873 14.9761 10.2036 14.7652 10.2036C14.5544 10.2036 14.3522 10.2873 14.2032 10.4364C14.0541 10.5855 13.9704 10.7877 13.9704 10.9985V14.2178C13.9704 14.5341 13.8447 14.8373 13.6211 15.0609C13.3975 15.2845 13.0942 15.4102 12.778 15.4102H2.78215C2.46592 15.4102 2.16264 15.2845 1.93903 15.0609C1.71542 14.8373 1.5898 14.5341 1.5898 14.2178V4.22197C1.5898 3.90574 1.71542 3.60246 1.93903 3.37885C2.16264 3.15524 2.46592 3.02962 2.78215 3.02962H6.00149C6.21231 3.02962 6.41449 2.94587 6.56357 2.7968C6.71264 2.64772 6.79639 2.44554 6.79639 2.23472C6.79639 2.0239 6.71264 1.82171 6.56357 1.67264C6.41449 1.52357 6.21231 1.43982 6.00149 1.43982H2.78215C2.04428 1.43982 1.33663 1.73294 0.814872 2.25469C0.293118 2.77645 0 3.48409 0 4.22197V14.2178Z" fill="#00B2FF"/>
<path d="M16.3348 0.664825C15.9034 0.238854 15.3215 0 14.7152 0C14.1089 0 13.5271 0.238854 13.0956 0.664825L5.64345 8.117C5.54712 8.21685 5.47861 8.34017 5.44472 8.47471L4.8088 10.7203C4.75974 10.8976 4.75238 11.0839 4.7873 11.2646C4.82223 11.4452 4.89849 11.6154 5.01011 11.7616C5.12174 11.9079 5.26571 12.0264 5.43075 12.1077C5.59578 12.1891 5.77741 12.2311 5.96141 12.2306L6.27937 12.1909L8.54483 11.5549C8.67936 11.5211 8.80268 11.4525 8.90253 11.3562L16.3348 3.90404C16.7608 3.4726 16.9997 2.89072 16.9997 2.28443C16.9997 1.67814 16.7608 1.09626 16.3348 0.664825ZM15.2021 1.79756C15.3308 1.93092 15.4027 2.10903 15.4027 2.29437C15.4027 2.47971 15.3308 2.65782 15.2021 2.79118H15.1822L14.1886 1.79756H14.2085C14.3418 1.66885 14.52 1.59692 14.7053 1.59692C14.8906 1.59692 15.0687 1.66885 15.2021 1.79756ZM7.90891 10.0844L6.51784 10.462L6.91529 9.09075L13.0559 2.93029L14.0495 3.92391L7.90891 10.0844Z" fill="#00B2FF"/>
</svg>
