<svg width="40" height="45" viewBox="0 0 40 45" fill="none" xmlns="http://www.w3.org/2000/svg">
<path d="M13.3406 4.63036C13.6245 4.63059 13.9022 4.5462 14.1384 4.38788C14.3746 4.22955 14.5588 4.0044 14.6676 3.7409C14.7764 3.47741 14.805 3.18741 14.7498 2.90759C14.6945 2.62776 14.5579 2.37069 14.3572 2.16889C14.1565 1.96709 13.9007 1.82963 13.6222 1.77389C13.3437 1.71815 13.055 1.74664 12.7927 1.85576C12.5303 1.96488 12.306 2.14972 12.1483 2.3869C11.9905 2.62408 11.9063 2.90295 11.9062 3.18823C11.9066 3.57041 12.0577 3.93687 12.3266 4.20723C12.5955 4.47758 12.9602 4.62975 13.3406 4.63036Z" fill="#4B7BE5"/>
<path d="M13.4615 8.664L15.9622 5.3033C16.4449 4.67127 16.6861 3.88638 16.6421 3.09098C16.5436 1.5711 15.3272 0 13.4615 0C11.5958 0 10.3795 1.5711 10.2811 3.09003C10.2439 3.88695 10.4857 4.67178 10.9643 5.30838L13.4615 8.664ZM13.3414 0.788759C13.8139 0.788532 14.2758 0.929073 14.6687 1.19261C15.0616 1.45614 15.368 1.83083 15.5489 2.26927C15.7299 2.70772 15.7773 3.19024 15.6853 3.65579C15.5933 4.12134 15.3659 4.54902 15.0319 4.88472C14.6979 5.22043 14.2723 5.44908 13.8089 5.54176C13.3456 5.63445 12.8653 5.58699 12.4288 5.40541C11.9922 5.22382 11.6191 4.91626 11.3566 4.52162C11.0941 4.12698 10.954 3.663 10.954 3.18836C10.9546 2.55231 11.2062 1.94246 11.6538 1.49261C12.1014 1.04275 12.7083 0.789621 13.3414 0.788759Z" fill="#4B7BE5"/>
<path d="M30.4021 12.5923C30.6739 12.9049 31.0509 13.1058 31.461 13.1563L31.7396 13.1909C32.2107 13.2495 32.6548 13.4442 33.0179 13.7515C33.381 14.0587 33.6476 14.4652 33.7852 14.9217C33.9174 15.3628 33.9212 15.8328 33.7961 16.276C33.671 16.7192 33.4223 17.1172 33.0793 17.423L30.3209 19.8734C30.1525 20.0231 30.0176 20.207 29.9253 20.413C29.8329 20.6189 29.7852 20.8423 29.7852 21.0682V21.7184C29.7847 21.9276 29.8366 22.1336 29.9362 22.3174C30.0357 22.5012 30.1797 22.6569 30.3549 22.7701C30.6479 22.9592 30.8944 23.2125 31.076 23.511C31.2576 23.8095 31.3694 24.1454 31.4032 24.4936L31.4679 25.1428C31.4933 25.4082 31.6163 25.6545 31.813 25.8335C32.0096 26.0125 32.2656 26.1114 32.531 26.1108H34.1457C34.6109 26.1106 35.066 25.9743 35.4554 25.7186C35.8448 25.4628 36.1516 25.0987 36.3383 24.6706L36.4353 24.4484C36.6083 24.0477 36.8901 23.704 37.2485 23.4568C37.6069 23.2095 38.0273 23.0687 38.4617 23.0505L38.841 23.0332C38.8835 23.0312 38.9257 23.0282 38.9677 23.0236L39.888 22.9305C39.7009 21.1252 39.3581 19.3395 38.8633 17.5938L38.3226 18.3202C38.2782 18.3798 38.2206 18.4282 38.1544 18.4615C38.0881 18.4949 38.0151 18.5122 37.941 18.5122C37.8669 18.5122 37.7938 18.4949 37.7276 18.4615C37.6613 18.4282 37.6037 18.3798 37.5594 18.3202L35.2421 15.2073C34.7368 14.5313 34.4835 13.6987 34.5263 12.8543C34.5626 12.2848 34.7348 11.7323 35.0283 11.2436C34.049 10.2756 32.9795 9.40424 31.8345 8.6416L30.2736 11.3304C30.1622 11.5282 30.1148 11.7559 30.1378 11.9819C30.1608 12.208 30.2532 12.4213 30.4021 12.5923Z" fill="#060B29"/>
<path d="M39.0623 23.9754C39.0028 23.9813 38.943 23.9857 38.8831 23.9885L38.5041 24.0057C38.2475 24.0166 37.9992 24.0998 37.7875 24.2459C37.5759 24.392 37.4094 24.595 37.3073 24.8316L37.2102 25.0539C36.9491 25.6522 36.5201 26.1613 35.9758 26.5188C35.4314 26.8762 34.7952 27.0667 34.1449 27.0669H32.5301C32.0282 27.0682 31.5438 26.8813 31.1718 26.5428C30.7998 26.2043 30.5669 25.7386 30.5186 25.2366L30.4541 24.5875C30.4343 24.3825 30.3685 24.1847 30.2616 24.0089C30.1548 23.8331 30.0096 23.6839 29.8372 23.5726C29.528 23.3728 29.2738 23.0981 29.098 22.7738C28.9223 22.4494 28.8306 22.0858 28.8314 21.7165V21.0663C28.8315 20.7048 28.908 20.3474 29.0559 20.0177C29.2037 19.6881 29.4196 19.3938 29.6892 19.1543L32.4476 16.7039C32.6541 16.5197 32.8039 16.28 32.8793 16.013C32.9546 15.7461 32.9523 15.463 32.8726 15.1973C32.7886 14.9184 32.6257 14.6699 32.4038 14.4821C32.1819 14.2943 31.9105 14.1752 31.6225 14.1393L31.344 14.1048C30.7011 14.0255 30.1099 13.7106 29.6839 13.2204C29.4044 12.8988 29.2315 12.4978 29.1891 12.0731C29.1468 11.6483 29.2371 11.2208 29.4475 10.85L31.0302 8.12455C30.182 7.60224 29.3024 7.13323 28.3965 6.72024C25.5945 5.44624 22.6913 4.77295 20.0001 4.77295C19.7441 4.77295 19.4639 4.78109 19.1678 4.7966L21.2841 7.86355C21.6896 8.44849 21.8987 9.14819 21.8808 9.86078C21.863 10.5734 21.6192 11.2616 21.1849 11.8253L20.5065 12.7104C20.2291 13.071 19.8629 13.3526 19.444 13.5274C19.0251 13.7023 18.5681 13.7644 18.118 13.7076L17.3486 13.6088C17.0101 13.5652 16.6662 13.6225 16.3598 13.7737C16.0534 13.9249 15.798 14.1632 15.6254 14.459C15.3659 14.9038 14.982 15.2621 14.5214 15.4894C14.0609 15.7168 13.5439 15.8032 13.0349 15.7378L11.2583 15.511C10.9193 15.4668 10.5747 15.5185 10.2633 15.6601C9.95182 15.8017 9.68583 16.0277 9.49512 16.3127C9.32976 16.5581 9.23925 16.8466 9.2347 17.143C9.23014 17.4393 9.31174 17.7305 9.46949 17.9809L10.6433 19.8446C10.8243 20.1301 11.1058 20.3366 11.4317 20.4229C11.7575 20.5091 12.1038 20.4687 12.4013 20.3098L13.6098 19.6587C14.4059 19.2298 15.5686 19.1816 16.5138 19.492C16.8865 17.5173 18.5802 16.0372 20.5773 16.0372C22.7494 16.0372 24.5641 17.7878 24.7087 20.0227C24.768 21.0462 24.4601 22.0572 23.8408 22.8721L23.0952 23.8741L23.5328 24.4773C23.5971 24.5673 23.6638 24.6531 23.7329 24.7347L25.2006 26.4714C25.3579 26.6575 25.4759 26.8738 25.5475 27.1071C25.6191 27.3404 25.6429 27.5859 25.6172 27.8287C25.5916 28.0715 25.5171 28.3066 25.3984 28.5196C25.2796 28.7326 25.1191 28.9192 24.9264 29.068L22.7016 30.7864C22.2822 31.1091 21.9737 31.5554 21.8192 32.0629L21.0781 34.4807C20.9792 34.8043 20.8172 35.1048 20.6016 35.3649L19.8803 36.2373C19.4758 36.7257 19.2254 37.324 19.1611 37.956C19.121 38.3482 18.9764 38.7223 18.7427 39.0391C18.509 39.3558 18.1947 39.6034 17.8328 39.756C17.608 39.8508 17.3647 39.8931 17.1213 39.88C16.8778 39.8669 16.6405 39.7985 16.4271 39.6801C16.2137 39.5617 16.0297 39.3964 15.889 39.1964C15.7482 38.9964 15.6544 38.767 15.6145 38.5254L14.935 34.4256C14.8783 34.0853 14.7401 33.7639 14.5322 33.4892L12.043 30.2068C11.7383 29.8057 11.513 29.3496 11.3794 28.8631L10.5578 25.8823C10.4614 25.5358 10.2775 25.2202 10.0239 24.9662C9.77034 24.7122 9.45566 24.5285 9.11047 24.4328L8.93187 24.3838C8.40478 24.2388 7.92107 23.9663 7.52298 23.5901L5.99048 22.1396C5.67261 21.8389 5.39989 21.4933 5.18086 21.1138C4.93627 20.6899 4.56711 20.3524 4.12403 20.1476C3.68094 19.9429 3.18564 19.8809 2.70608 19.9701L0.472236 20.7002C0.168039 22.0749 0.00974322 23.4782 0 24.8865C0 35.9769 8.97199 44.9997 20 44.9997C31.028 44.9997 40 35.9769 40 24.8865C40 24.5746 39.9882 24.2377 39.9663 23.8839L39.0623 23.9754Z" fill="#060B29"/>
<path d="M4.06334 12.4272C4.34729 12.4274 4.62493 12.343 4.86113 12.1847C5.09734 12.0264 5.28149 11.8012 5.3903 11.5377C5.49911 11.2742 5.52768 10.9842 5.47241 10.7044C5.41714 10.4246 5.28051 10.1675 5.0798 9.96573C4.87908 9.76394 4.62331 9.62649 4.34482 9.57076C4.06634 9.51503 3.77766 9.54352 3.51529 9.65264C3.25293 9.76177 3.02868 9.94661 2.8709 10.1838C2.71312 10.421 2.62891 10.6998 2.62891 10.9851C2.62921 11.3673 2.7804 11.7338 3.04931 12.0041C3.31822 12.2745 3.6829 12.4267 4.06334 12.4272Z" fill="#4B7BE5"/>
<path d="M2.49599 19.0367C3.17385 18.9024 3.87653 18.9842 4.50589 19.2706C5.13526 19.5569 5.6599 20.0336 6.00654 20.6341C6.17926 20.9335 6.39435 21.2061 6.64508 21.4434L8.17758 22.8939C8.4619 23.1626 8.80741 23.3572 9.18391 23.4608L9.36241 23.5097C9.86679 23.6495 10.3266 23.918 10.6972 24.289C11.0678 24.6601 11.3365 25.1212 11.4773 25.6274L12.2989 28.6083C12.4003 28.9772 12.5711 29.3231 12.8022 29.6273L15.2916 32.9096C15.5935 33.3084 15.7943 33.775 15.8766 34.2692L16.556 38.369C16.5723 38.4681 16.6108 38.5622 16.6684 38.6442C16.7261 38.7263 16.8015 38.7941 16.889 38.8427C16.9765 38.8913 17.0738 38.9194 17.1736 38.9248C17.2735 38.9303 17.3732 38.9129 17.4654 38.8741C17.6695 38.788 17.8468 38.6483 17.9787 38.4696C18.1105 38.2909 18.192 38.0798 18.2146 37.8586C18.2982 37.0378 18.6233 36.2608 19.1486 35.6266L19.87 34.7543C20.005 34.5912 20.1064 34.4028 20.1684 34.2L20.9094 31.7822C21.1218 31.0849 21.5457 30.4717 22.1219 30.0283L24.3465 28.3104C24.4369 28.2406 24.5121 28.1531 24.5678 28.0532C24.6235 27.9533 24.6584 27.8431 24.6704 27.7292C24.6824 27.6154 24.6713 27.5002 24.6377 27.3908C24.6041 27.2814 24.5488 27.18 24.475 27.0927L23.0073 25.3561C22.9215 25.2542 22.8385 25.1477 22.7613 25.0396L22.499 24.6781L20.9599 26.7462C20.9155 26.8058 20.8579 26.8542 20.7916 26.8876C20.7254 26.9209 20.6523 26.9383 20.5782 26.9383C20.5041 26.9383 20.431 26.9209 20.3648 26.8876C20.2985 26.8542 20.2409 26.8058 20.1966 26.7462L17.3143 22.873C16.8013 22.1797 16.4994 21.352 16.4449 20.49C15.7235 20.1696 14.6913 20.1644 14.0612 20.5038L12.8528 21.1549C12.5226 21.3329 12.1537 21.4259 11.7791 21.4256C11.3923 21.4263 11.0116 21.3287 10.6724 21.1421C10.3332 20.9554 10.0465 20.6856 9.83884 20.3578L8.66516 18.4941C8.40827 18.0863 8.27538 17.6121 8.28278 17.1295C8.29018 16.6469 8.43754 16.177 8.70681 15.7773C8.9959 15.3453 9.39915 15.0027 9.8713 14.7882C10.3434 14.5736 10.8658 14.4956 11.3796 14.5628L13.1563 14.7896C13.4803 14.8311 13.8092 14.7761 14.1024 14.6314C14.3955 14.4868 14.6398 14.2588 14.8051 13.9758C15.0722 13.5182 15.4673 13.1496 15.9412 12.9159C16.4152 12.6821 16.9471 12.5935 17.4708 12.661L18.2402 12.7598C18.5253 12.7957 18.8147 12.7563 19.08 12.6454C19.3452 12.5346 19.5771 12.3562 19.7527 12.1279L20.4312 11.2428C20.7416 10.8397 20.9158 10.3477 20.9286 9.83832C20.9414 9.32891 20.792 8.82871 20.5022 8.41049L18.068 4.88281C17.7974 4.90981 17.5222 4.9415 17.247 4.97751C17.1084 5.29676 16.9334 5.59879 16.7256 5.87752L13.8436 9.75018C13.7993 9.8098 13.7417 9.8582 13.6754 9.89154C13.6092 9.92489 13.5361 9.94225 13.462 9.94225C13.3879 9.94225 13.3148 9.92489 13.2486 9.89154C13.1823 9.8582 13.1247 9.8098 13.0803 9.75018L10.9585 6.89866C9.84765 7.5136 8.78168 8.20701 7.76863 8.97367C8.18183 9.70148 8.37194 10.5356 8.3151 11.3716C8.25827 12.2075 7.95703 13.0079 7.44917 13.6725L4.56706 17.5452C4.52269 17.6048 4.46509 17.6532 4.39884 17.6866C4.33258 17.7199 4.25951 17.7373 4.18541 17.7373C4.11131 17.7373 4.03823 17.7199 3.97198 17.6866C3.90573 17.6532 3.84813 17.6048 3.80376 17.5452L2.27545 15.4915C1.63089 16.81 1.11606 18.1885 0.738281 19.6076L2.44109 19.0511C2.45909 19.0452 2.47742 19.0404 2.49599 19.0367Z" fill="#060B29"/>
<path d="M23.0793 22.3008C23.562 21.6687 23.8032 20.8838 23.7592 20.0884C23.6608 18.5682 22.444 16.9971 20.5787 16.9971C18.7134 16.9971 17.4965 18.5682 17.3983 20.0871C17.3611 20.884 17.6029 21.6689 18.0815 22.3054L20.5787 25.6608L23.0793 22.3008ZM18.0715 20.1854C18.0717 19.7111 18.2119 19.2475 18.4744 18.8532C18.7368 18.4589 19.1098 18.1516 19.546 17.9702C19.9823 17.7888 20.4623 17.7415 20.9254 17.8342C21.3884 17.9268 21.8137 18.1553 22.1475 18.4908C22.4813 18.8263 22.7086 19.2537 22.8006 19.7189C22.8927 20.1842 22.8453 20.6664 22.6646 21.1046C22.4839 21.5428 22.1779 21.9174 21.7853 22.1809C21.3927 22.4444 20.9311 22.585 20.459 22.585C19.8258 22.5842 19.2189 22.331 18.7713 21.8812C18.3238 21.4313 18.0721 20.8215 18.0715 20.1854Z" fill="#4B7BE5"/>
<path d="M20.4579 21.6274C21.2501 21.6274 21.8923 20.9818 21.8923 20.1853C21.8923 19.3888 21.2501 18.7432 20.4579 18.7432C19.6657 18.7432 19.0234 19.3888 19.0234 20.1853C19.0234 20.9818 19.6657 21.6274 20.4579 21.6274Z" fill="#4B7BE5"/>
<path d="M4.18414 16.4603L6.68475 13.0996C7.16744 12.4676 7.40866 11.6827 7.36465 10.8873C7.2663 9.367 6.04945 7.7959 4.18414 7.7959C2.31884 7.7959 1.10198 9.367 1.00372 10.8859C0.966565 11.683 1.20836 12.468 1.68716 13.1047L4.18414 16.4603ZM4.06406 8.58504C4.53651 8.58483 4.99841 8.72539 5.39134 8.98893C5.78427 9.25248 6.09058 9.62717 6.27152 10.0656C6.45246 10.5041 6.49991 10.9866 6.40787 11.4521C6.31582 11.9177 6.08842 12.3453 5.75442 12.681C5.42042 13.0167 4.99483 13.2454 4.53147 13.3381C4.06811 13.4307 3.58781 13.3833 3.1513 13.2017C2.71479 13.0201 2.34169 12.7125 2.07919 12.3179C1.81669 11.9233 1.67658 11.4593 1.67658 10.9846C1.67716 10.3485 1.92889 9.73864 2.37653 9.28878C2.82418 8.83892 3.43118 8.58583 4.06434 8.58504H4.06406Z" fill="#4B7BE5"/>
</svg>
