<svg width="21" height="24" viewBox="0 0 21 24" fill="none" xmlns="http://www.w3.org/2000/svg">
<path d="M17.5616 11.1369C17.0966 11.3928 17.2298 11.3866 17.0966 11.3928C16.8515 11.4037 15.9596 11.4951 16.1149 11.3928C16.2694 11.2901 16.3831 11.1467 16.4118 11.0346C16.4217 10.9974 16.4376 10.9101 16.4118 10.8813C16.2852 10.7379 15.8367 10.8249 15.6502 10.7794C15.503 10.743 15.2303 10.6006 15.0809 10.5744C14.9536 10.5522 14.6913 10.5515 14.5643 10.5744C14.1964 10.6407 13.324 11.0346 13.4793 11.5974C13.6345 12.1602 13.7725 12.3816 14.0154 12.4667C14.1449 12.5123 14.437 12.4151 14.5643 12.4667C14.6994 12.5221 14.8683 12.7795 14.9775 12.8759C15.0394 12.9302 15.1578 13.0532 15.2362 13.0805C15.2844 13.0976 15.4066 13.0449 15.4426 13.0805C15.4794 13.1173 15.4066 13.2491 15.4426 13.2855C15.5526 13.3936 15.9077 13.2855 16.063 13.2855C16.1664 13.2855 16.3735 13.2855 16.4769 13.2855C16.5803 13.2855 16.7875 13.2855 16.8909 13.2855C17.0454 13.2855 17.356 13.2855 17.5112 13.2855C17.576 13.2855 17.7044 13.2855 17.7684 13.2855C17.8979 13.2855 18.1945 13.3754 18.2858 13.2855C18.359 13.213 18.2858 12.9782 18.2858 12.8763C18.2858 12.8126 18.2858 12.6848 18.2858 12.6207C18.2858 12.4959 18.1629 12.15 18.2858 12.1213C18.3384 12.1089 18.3755 12.1558 18.5437 11.9301C18.9058 11.4445 18.9367 11.5927 18.9058 11.4445C18.8863 11.3488 19.1961 11.3582 19.2678 11.2909C19.3613 11.2039 19.4742 10.8824 19.2678 10.7801C19.0607 10.6774 18.958 10.6265 18.8539 10.5752C18.5831 10.4415 17.7169 10.0127 17.7169 10.1663C17.7169 10.3192 17.6658 10.5752 17.6658 10.7288C17.6658 10.8813 18.0275 10.881 17.5616 11.1369Z" fill="#4B7BE5"/>
<path d="M10.5 24C16.2896 24 21 19.3346 21 13.6C21 7.86503 16.2896 3.19995 10.5 3.19995C4.71045 3.19995 0 7.86503 0 13.6C0 19.3346 4.71045 24 10.5 24ZM20.5669 13.6C20.5669 13.8266 20.5564 14.0505 20.5412 14.2732C20.4138 14.2882 20.2743 14.3416 20.206 14.3551C20.0254 14.3909 20.206 14.3551 20.0976 14.3551C19.9897 14.3551 19.9391 14.4691 19.8813 14.4983C19.8246 14.526 19.6897 14.5146 19.6291 14.4983C19.5608 14.4795 19.448 14.3909 19.448 14.2836C19.448 14.1765 19.1595 14.1406 18.9068 13.9264C18.6545 13.7119 18.7719 13.658 18.7989 13.5689C18.812 13.5254 18.7789 13.4338 18.7627 13.3913C18.7175 13.2667 18.6417 12.9446 18.5099 12.9257C18.4598 12.9184 18.3984 13.03 18.3658 13.069C18.2962 13.1514 18.1136 13.4262 18.0768 13.3916C18.0406 13.3562 18.0283 13.8017 18.0768 13.9269C18.1395 14.0869 18.3537 14.3884 18.5099 14.4629C18.5852 14.4988 18.5099 14.4629 18.7267 14.7128C18.943 14.9631 18.8924 15.0031 18.9795 15.07C19.0717 15.1415 19.3684 15.0204 19.448 15.1059C19.5217 15.1847 19.4811 15.4328 19.448 15.5348C19.4105 15.6508 19.2679 15.7852 19.1595 15.9279C19.0511 16.0711 18.9915 16.0561 18.9427 16.1068C18.8022 16.2556 18.7627 16.7858 18.7265 16.8929C18.6897 17.0003 18.4742 17.8938 18.438 18.0009C18.4018 18.108 18.3311 18.19 18.2934 18.251C18.1344 18.5062 17.8996 19.0619 17.7522 19.3232C17.5862 19.6173 17.1025 20.3597 17.0306 20.4668C16.9587 20.5739 16.858 20.6594 16.7779 20.6813C16.6214 20.724 16.2741 20.7517 16.1282 20.6813C15.9841 20.6118 15.792 20.3284 15.7319 20.1808C15.5993 19.8564 15.643 19.1331 15.5873 18.7871C15.5536 18.5797 15.4347 18.175 15.4072 17.9668C15.373 17.7089 15.3705 17.1448 15.335 16.9303C15.2988 16.7159 15.3114 16.7644 15.335 16.7159C15.4003 16.579 15.0098 16.3225 14.9014 16.2869C14.7936 16.2513 14.7936 16.1437 14.6492 16.0009C14.5051 15.8577 14.3772 15.9488 14.2885 15.9651C14.1902 15.9834 13.9916 15.934 13.8917 15.9292C13.7381 15.9223 13.4165 15.9941 13.278 15.9292C13.0348 15.8157 12.7448 15.3275 12.5927 15.1074C12.5244 15.0082 12.4121 14.7858 12.3759 14.6784C12.3402 14.5711 12.268 14.2765 12.2313 14.1424C12.1892 13.9897 12.0366 13.6921 12.0512 13.5346C12.0682 13.3471 12.2675 13.1056 12.4481 12.8914C12.6276 12.6769 12.7124 12.6685 12.8087 12.6054C12.9634 12.5049 12.9533 12.4624 13.35 12.1052C13.7468 11.7483 13.35 12.1052 13.35 11.9266C13.35 11.7478 13.2341 11.675 13.2778 11.6048C13.3158 11.5435 13.2778 11.6048 13.1332 11.3547C12.9891 11.1048 13.0101 11.2028 12.9531 11.1761C12.7846 11.0975 13.2053 10.6044 13.2416 10.497C13.2783 10.3899 13.4216 10.497 13.6384 10.3899C13.8552 10.2828 13.801 10.3835 13.8552 10.3899C13.9657 10.4034 13.95 10.0709 13.9631 9.96096C13.9677 9.92534 13.9741 9.85181 13.9631 9.81772C13.9395 9.74444 13.8521 9.60273 13.783 9.56762C13.7103 9.53073 13.5667 9.56762 13.4584 9.53175C13.35 9.49638 13.2056 9.46025 13.0972 9.38876C12.9888 9.31727 12.9097 9.14401 12.9531 9.06692C13.0358 8.92063 13.4584 8.85244 13.5667 8.7812C13.6746 8.70996 13.5667 8.56672 13.5667 8.45961C13.5667 8.35225 13.9736 8.32095 14.1075 8.35225C14.2058 8.37514 14.4154 8.44587 14.4686 8.5306C14.5113 8.59929 14.4501 8.77408 14.4686 8.85244C14.4871 8.93029 14.5408 9.10177 14.6122 9.13841C14.6608 9.16334 14.7743 9.10763 14.829 9.10254C14.8675 9.09948 14.829 9.10254 14.9374 8.99543C15.0458 8.88831 15.0363 8.8013 15.0823 8.74533C15.1198 8.69852 15.2397 8.65196 15.2986 8.63796C15.4039 8.61328 15.6232 8.63287 15.7316 8.63796C15.8316 8.64254 16.0286 8.67918 16.128 8.67384C16.2053 8.66976 16.3086 8.63796 16.417 8.56672C16.5254 8.49549 16.886 8.31663 16.9944 8.20926C17.1023 8.1019 17.1023 7.81618 17.0666 7.70881C17.0304 7.6017 17.0707 7.60145 17.0666 7.56583C17.0566 7.48212 16.8619 7.40045 16.7776 7.38723C16.7039 7.37578 16.5523 7.41903 16.4891 7.45872C16.3807 7.52639 16.2374 7.74723 16.1645 7.85154C16.1228 7.91083 16.0787 8.05941 16.0198 8.10164C15.9826 8.12836 15.886 8.13294 15.8398 8.13752C15.6962 8.15202 15.4059 8.14769 15.2618 8.13752C15.1349 8.12861 14.8408 8.16194 14.7571 8.06653C14.7401 8.04643 14.7571 8.01081 14.7571 7.9612C14.7571 7.95611 14.7571 7.94136 14.7571 7.92355C14.7571 7.91159 14.7571 7.89938 14.7571 7.88564C14.7571 7.83577 14.746 7.80448 14.7571 7.78056C14.8167 7.65411 15.1134 7.54013 15.1902 7.4231C15.2613 7.31421 15.2533 7.02544 15.3348 6.92291C15.5328 6.67026 16.1996 6.47818 16.4532 6.27947C16.5585 6.19704 16.7748 6.05405 16.9012 5.90954C19.1387 7.74036 20.5669 10.508 20.5669 13.6ZM12.8493 3.90546C12.8498 3.92531 12.8493 3.94363 12.8452 3.95686C12.7985 4.11511 12.593 4.34994 12.4121 4.45705C12.2315 4.56442 12.4026 4.75243 12.4121 4.85039C12.4283 5.02212 12.259 5.3521 12.1599 5.49356C12.0314 5.67497 11.5819 5.99401 11.5103 6.10138C11.4386 6.20849 11.2734 6.34995 11.1856 6.42297C11.0623 6.52524 10.7882 6.74481 10.6803 6.81605C10.5719 6.88754 10.3551 7.06614 10.0893 7.56659C9.82341 8.06679 9.74147 7.97672 9.63384 7.88844C9.47921 7.76173 8.92232 7.61264 8.98422 7.42361C9.01222 7.33685 8.98422 7.42361 8.69576 7.19717C8.4073 6.97099 8.38726 6.5919 8.443 6.38709C8.46406 6.30975 8.55988 6.17643 8.58762 6.10138C8.65235 5.92837 8.62178 5.49967 8.7682 5.3862C8.85091 5.32157 8.7682 5.3862 8.62358 4.99312C8.47896 4.60003 8.12834 4.73819 8.00992 4.60003C7.97422 4.55882 8.02353 4.43517 8.04665 4.38581C8.07516 4.32221 8.17766 4.22145 8.22672 4.17108C8.31611 4.08 8.50824 3.91869 8.59635 3.80929C9.21283 3.692 9.8491 3.6284 10.4997 3.6284C11.3091 3.62891 12.0954 3.7261 12.8493 3.90546ZM4.26735 5.77801C4.329 5.77801 4.42481 5.77801 4.58253 5.77801C5.12375 5.77801 4.90772 5.77801 5.19567 5.74213C5.48414 5.70601 5.49467 5.66403 5.59305 5.63477C5.71455 5.59839 5.59305 5.63477 6.09831 5.59889C6.60357 5.56302 6.09831 5.59889 6.29943 5.56302C6.50056 5.5274 6.53113 5.49153 6.63953 5.56302C6.74741 5.63451 6.96806 5.53325 7.07261 5.56302C7.22622 5.60729 7.43325 5.92023 7.50569 6.02759C7.57812 6.13496 7.86582 6.45655 7.97473 6.67077C8.08313 6.88525 7.97473 6.67077 7.72197 6.84938C7.46973 7.02824 7.57735 6.99262 7.46921 6.99262C7.36133 6.99262 7.16226 7.00127 7.07287 6.95674C6.99452 6.91807 6.90641 6.75092 6.83115 6.70665C6.71068 6.63541 6.58687 6.4942 6.29995 6.52804C6.23881 6.53491 6.14737 6.63286 6.09882 6.67103C6.02356 6.7298 5.88357 6.86083 5.80984 6.92112C5.722 6.99262 5.52498 7.11296 5.4492 7.19692C5.37086 7.28393 5.26862 7.49306 5.16074 7.5643C5.05234 7.63554 5.19696 7.93347 5.26862 8.02913C5.32179 8.09961 5.43764 8.2487 5.52138 8.27897C5.6493 8.32579 5.95395 8.24335 6.06209 8.20748C6.17049 8.17161 6.20671 8.17161 6.42325 8.06424C6.64004 7.95713 6.42325 8.06424 6.56786 7.95713C6.71197 7.85002 6.75461 7.7999 6.83115 7.77853C6.97654 7.73884 7.29429 7.72179 7.43376 7.77853C7.52804 7.81694 7.65698 7.98715 7.72223 8.06424C7.86633 8.23369 7.97499 8.42196 8.33537 8.70767C8.69602 8.99339 8.73275 9.24374 8.80493 9.38698C8.87711 9.52997 8.76871 9.81594 8.69653 9.92254C8.62435 10.0299 8.47023 10.1619 8.37185 10.2088C8.0166 10.3767 7.46921 10.4589 6.83115 10.5304C6.1936 10.6018 6.82011 10.7804 6.83115 10.8522C6.84271 10.9234 6.24267 11.3529 5.91799 11.6025C5.5933 11.8526 5.91799 11.6025 5.80959 11.6386C5.70119 11.6745 5.59331 11.8528 5.48491 11.9602C5.37651 12.0676 5.37651 12.4607 5.26811 12.5321C5.16022 12.6036 4.76285 12.7107 4.65445 12.7107C4.54657 12.7107 4.43868 12.7107 4.3665 12.7107C4.29432 12.7107 4.18592 12.7107 4.07753 12.7107C3.96913 12.7107 3.88333 12.6866 3.82477 12.7107C3.74257 12.7448 3.60643 12.8794 3.57201 12.9608C3.55506 13.0021 3.553 13.0992 3.57201 13.1394C3.6221 13.2425 3.8484 13.3478 3.93317 13.4252C4.14046 13.6137 4.619 14.1403 4.69118 14.2472C4.76336 14.3546 4.96218 14.7403 5.12426 14.8191C5.28635 14.8978 5.66497 14.8191 5.84581 14.8191C5.95908 14.8191 6.18693 14.8057 6.29995 14.8191C6.51212 14.8441 6.89254 14.9619 7.14273 14.9619C7.39267 14.9619 7.50389 15.0807 7.57761 15.1766C7.67137 15.2992 7.72223 15.3911 8.08338 15.5338C8.44351 15.6771 8.4877 15.7684 8.61664 15.8557C8.79825 15.9785 9.30942 16.1416 9.41782 16.2129C9.52621 16.2841 9.67057 16.856 9.85089 17.1423C10.031 17.4282 10.1756 17.6783 10.0315 17.9999C9.88686 18.3215 10.1394 18.4289 10.0315 18.536C9.92307 18.6428 9.92307 18.7505 9.63461 19.1792C9.34563 19.6081 9.27345 19.9297 9.16557 19.9653C9.05717 20.0009 8.29325 20.505 8.40755 20.7517C8.47177 20.8899 8.40755 20.7517 7.93902 21.1448C7.46998 21.5379 7.54165 21.502 7.32537 21.6094C7.10857 21.7165 7.1322 22.1132 7.14479 22.2887C7.15635 22.4556 7.11782 22.7614 7.14222 22.9978C7.00377 22.9492 6.86686 22.897 6.73072 22.8423C6.7338 22.653 6.69861 22.423 6.67549 22.2887C6.63979 22.074 6.24241 20.4658 6.24241 20.2872C6.24241 20.1083 5.97758 19.9786 5.91773 19.858C5.84247 19.7056 5.91773 19.3489 5.91773 19.1792C5.91773 19.0896 5.95677 18.9021 5.91773 18.8217C5.89256 18.7701 5.77876 18.7182 5.73715 18.6785C5.56197 18.5141 5.22547 18.1655 5.09652 17.9638C5.04386 17.8819 5.00328 17.6834 4.94343 17.6063C4.88127 17.5257 4.65959 17.4501 4.61875 17.3562C4.56147 17.2244 4.65445 16.999 4.65445 16.7845C4.65445 16.5701 4.76285 16.5345 4.99018 16.2485C5.21751 15.9628 5.01587 16.0699 4.97965 15.9628C4.94291 15.8554 5.01587 15.7839 4.97965 15.6768C4.94291 15.5694 4.71687 15.3219 4.619 15.2122C4.5553 15.1412 4.43997 14.9868 4.36676 14.9263C4.18926 14.7802 3.76363 14.5891 3.57201 14.4619C3.41198 14.3548 3.10785 14.1197 2.95886 13.9974C2.74361 13.8188 2.31824 13.4526 2.12918 13.2466C2.06856 13.1804 1.97609 13.0242 1.9129 12.9608C1.80861 12.8565 1.52066 12.7288 1.44334 12.6034C1.30695 12.3782 1.28588 11.8289 1.26328 11.5671C1.2417 11.3178 1.28691 10.8156 1.26328 10.5662C1.24632 10.3838 1.28742 9.96884 1.22475 9.72358C1.88978 8.16703 2.94602 6.813 4.26735 5.77801Z" fill="#060B29"/>
<path d="M17.4409 9.22019C18.5352 7.57872 20.4603 4.54025 20.4603 3.24802C20.4603 1.44939 18.7784 0 16.6911 0C14.6038 0 12.9219 1.44939 12.9219 3.24802C12.9219 4.52278 14.8268 7.56126 15.9413 9.22019C16.2655 9.7266 17.0964 9.7266 17.4409 9.22019ZM14.9281 3.24802C14.9281 2.40982 15.7184 1.72879 16.6911 1.72879C17.6638 1.72879 18.4541 2.40982 18.4541 3.24802C18.4541 4.08622 17.6638 4.76726 16.6911 4.76726C15.7184 4.76726 14.9281 4.08622 14.9281 3.24802Z" fill="#4B7BE5"/>
</svg>
