<svg width="7" height="13" viewBox="0 0 7 13" fill="none" xmlns="http://www.w3.org/2000/svg">
<path d="M4.88995 5.99866L0.256981 1.46106C0.175538 1.38168 0.110908 1.28731 0.0668062 1.18336C0.022704 1.07942 0 0.967949 0 0.855372C0 0.742795 0.022704 0.631329 0.0668062 0.527382C0.110908 0.423436 0.175538 0.32906 0.256981 0.249681C0.421969 0.0897193 0.644668 0 0.876732 0C1.1088 0 1.3315 0.0897193 1.49648 0.249681L6.74532 5.38891C6.9039 5.54496 6.99504 5.75491 6.99977 5.97513C7.0045 6.19534 6.92246 6.40887 6.77072 6.57133L1.50011 11.7507C1.41896 11.8305 1.32258 11.8938 1.21646 11.9371C1.11035 11.9803 0.996574 12.0027 0.881644 12.0028C0.766714 12.003 0.652876 11.981 0.54663 11.938C0.440385 11.8951 0.343811 11.832 0.262424 11.7525C0.181037 11.6729 0.116431 11.5785 0.0722934 11.4744C0.0281559 11.3704 0.00535214 11.2589 0.00518366 11.1463C0.00484339 10.9187 0.0967227 10.7004 0.26061 10.5393L4.88995 5.99866Z" fill="#212121" fill-opacity="0.6"/>
</svg>