<svg width="18" height="18" viewBox="0 0 18 18" fill="none" xmlns="http://www.w3.org/2000/svg">
<path d="M16.0003 1.99971V16.0003H1.99971V1.99971H16.0003ZM16.0003 0H1.99971C1.46984 0.00158273 0.962128 0.212774 0.587451 0.587451C0.212774 0.962128 0.00158273 1.46984 0 1.99971V16.0003C0.00158273 16.5302 0.212774 17.0379 0.587451 17.4125C0.962128 17.7872 1.46984 17.9984 1.99971 18H16.0003C16.5302 17.9984 17.0379 17.7872 17.4125 17.4125C17.7872 17.0379 17.9984 16.5302 18 16.0003V1.99971C17.9984 1.46984 17.7872 0.962128 17.4125 0.587451C17.0379 0.212774 16.5302 0.00158273 16.0003 0Z" fill="#212121" fill-opacity="0.4"/>
</svg>