
<svg width="34" height="34" viewBox="0 0 34 34" fill="none" xmlns="http://www.w3.org/2000/svg">
<circle opacity="0.7" cx="17" cy="17" r="16.5" fill="white" stroke="#4B7BE5"/>
<path d="M19.0026 21.761L19.0026 21.761L13.2703 16.2135C13.0108 15.9621 12.5899 15.9622 12.3304 16.2134L11.9974 16.5357C11.7341 16.7906 11.7344 17.2088 11.9973 17.4635L11.9974 17.4635L17.7297 23.0111C17.9893 23.2623 18.4101 23.2623 18.6697 23.0111L18.6697 23.0111L19.0025 22.6889C19.0025 22.6888 19.0025 22.6888 19.0026 22.6888C19.0026 22.6888 19.0026 22.6888 19.0026 22.6888C19.2659 22.4341 19.2657 22.0157 19.0026 21.761Z" fill="#4B7BE5" stroke="#4B7BE5" stroke-width="0.4"/>
<path d="M19.0024 12.2387C19.2657 11.984 19.2657 11.5656 19.0025 11.3108C19.0025 11.3108 19.0025 11.3108 19.0025 11.3108L18.6697 10.9886C18.4101 10.7372 17.9893 10.7376 17.7298 10.9885L17.7297 10.9885L11.9978 16.5363C11.7343 16.7911 11.7348 17.2095 11.9977 17.4641L11.9977 17.4642L12.3307 17.7864C12.3307 17.7864 12.3307 17.7865 12.3307 17.7865C12.5902 18.0378 13.0111 18.0377 13.2706 17.7865L13.2706 17.7865L19.0024 12.2387ZM19.0024 12.2387L18.8634 12.0949L19.0025 12.2386L19.0024 12.2387Z" fill="#4B7BE5" stroke="#4B7BE5" stroke-width="0.4"/>
</svg>
