
<svg width="34" height="34" viewBox="0 0 34 34" fill="none" xmlns="http://www.w3.org/2000/svg">
<circle opacity="0.7" cx="17" cy="17" r="16.5" transform="rotate(-180 17 17)" fill="white" stroke="#4B7BE5"/>
<path d="M14.9974 12.239L14.9974 12.239L20.7297 17.7865C20.9892 18.0379 21.4101 18.0378 21.6696 17.7866L22.0026 17.4643C22.2659 17.2094 22.2656 16.7912 22.0027 16.5365L22.0026 16.5365L16.2703 10.9889C16.0107 10.7377 15.5899 10.7377 15.3303 10.9889L15.3303 10.9889L14.9975 11.3111C14.9975 11.3112 14.9975 11.3112 14.9974 11.3112C14.9974 11.3112 14.9974 11.3112 14.9974 11.3112C14.7341 11.5659 14.7343 11.9843 14.9974 12.239Z" fill="#4B7BE5" stroke="#4B7BE5" stroke-width="0.4"/>
<path d="M14.9976 21.7613C14.7343 22.016 14.7343 22.4344 14.9975 22.6892C14.9975 22.6892 14.9975 22.6892 14.9975 22.6892L15.3303 23.0114C15.5899 23.2628 16.0107 23.2624 16.2702 23.0115L16.2703 23.0115L22.0022 17.4637C22.2657 17.2089 22.2652 16.7905 22.0023 16.5359L22.0023 16.5358L21.6693 16.2136C21.6693 16.2136 21.6693 16.2135 21.6693 16.2135C21.4098 15.9622 20.9889 15.9623 20.7294 16.2135L20.7294 16.2135L14.9976 21.7613ZM14.9976 21.7613L15.1366 21.9051L14.9975 21.7614L14.9976 21.7613Z" fill="#4B7BE5" stroke="#4B7BE5" stroke-width="0.4"/>
</svg>
