<svg width="52" height="32" viewBox="0 0 52 32" fill="none" xmlns="http://www.w3.org/2000/svg">
<path d="M42.0061 4.93518H40.7156V5.15646C40.7226 5.27162 40.7041 5.38689 40.6612 5.49521C40.6183 5.60353 40.5519 5.70262 40.4661 5.78643C40.3803 5.87025 40.2768 5.93701 40.1621 5.98263C40.0474 6.02826 39.9238 6.0518 39.7989 6.0518C39.674 6.0518 39.5505 6.02826 39.4357 5.98263C39.321 5.93701 39.2176 5.87025 39.1318 5.78643C39.046 5.70262 38.9796 5.60353 38.9367 5.49521C38.8938 5.38689 38.8753 5.27162 38.8823 5.15646V4.93518H6.12304V5.15646C6.13004 5.27162 6.11153 5.38689 6.06863 5.49521C6.02572 5.60353 5.95934 5.70262 5.87354 5.78643C5.78773 5.87025 5.68431 5.93701 5.5696 5.98263C5.45489 6.02826 5.33131 6.0518 5.20641 6.0518C5.08151 6.0518 4.95793 6.02826 4.84322 5.98263C4.72851 5.93701 4.62509 5.87025 4.53928 5.78643C4.45348 5.70262 4.38709 5.60353 4.34419 5.49521C4.30129 5.38689 4.28277 5.27162 4.28977 5.15646V4.93252H3.01081C2.60479 4.88151 2.1915 4.91805 1.80333 5.03925C1.41516 5.16046 1.06267 5.36304 0.773484 5.63113C0.4843 5.89921 0.266286 6.2255 0.136533 6.58442C0.00678004 6.94334 -0.0311854 7.32514 0.0256131 7.69989V29.1297C0.0256131 29.3403 0.0256131 29.5136 0.0400483 29.6895C0.0505491 30.2913 0.315042 30.8654 0.777189 31.2897C1.23933 31.714 1.86261 31.9549 2.51424 31.961C2.91265 31.977 3.55358 31.9877 4.28977 31.9904V31.7771C4.28277 31.6619 4.30129 31.5466 4.34419 31.4383C4.38709 31.33 4.45348 31.2309 4.53928 31.1471C4.62509 31.0633 4.72851 30.9965 4.84322 30.9509C4.95793 30.9053 5.08151 30.8817 5.20641 30.8817C5.33131 30.8817 5.45489 30.9053 5.5696 30.9509C5.68431 30.9965 5.78773 31.0633 5.87354 31.1471C5.95934 31.2309 6.02572 31.33 6.06863 31.4383C6.11153 31.5466 6.13004 31.6619 6.12304 31.7771V31.9957C7.47995 31.9957 8.86285 31.9957 9.70586 31.9744L9.87331 31.9957V31.7664C9.91386 30.7523 10.3704 29.7903 11.1504 29.0755C11.9304 28.3606 12.9755 27.9464 14.074 27.9166C15.1702 27.9088 16.2301 28.2793 17.0461 28.9554C17.8621 29.6315 18.3753 30.5645 18.4854 31.5718C18.4983 31.71 18.5264 31.8467 18.5691 31.9797C18.7113 31.9692 18.8542 31.9692 18.9964 31.9797H38.8708V31.7771C38.8638 31.6619 38.8823 31.5466 38.9252 31.4383C38.9681 31.33 39.0345 31.2309 39.1203 31.1471C39.2061 31.0633 39.3095 30.9965 39.4242 30.9509C39.5389 30.9053 39.6625 30.8817 39.7874 30.8817C39.9123 30.8817 40.0359 30.9053 40.1506 30.9509C40.2653 30.9965 40.3687 31.0633 40.4545 31.1471C40.5403 31.2309 40.6067 31.33 40.6496 31.4383C40.6925 31.5466 40.711 31.6619 40.704 31.7771V31.9797H42.0436C42.4415 32.0242 42.8452 31.9842 43.2238 31.8626C43.6024 31.7411 43.9459 31.5412 44.2281 31.2784C44.5102 31.0155 44.7236 30.6965 44.8519 30.3458C44.9802 29.9951 45.0199 29.622 44.9682 29.255V7.67589C45.0241 7.30435 44.9861 6.9259 44.8571 6.57021C44.7281 6.21451 44.5117 5.89124 44.2247 5.62574C43.9378 5.36024 43.5881 5.15973 43.2032 5.03992C42.8183 4.92011 42.4085 4.88426 42.0061 4.93518ZM6.12016 28.3059C6.12716 28.421 6.10864 28.5363 6.06574 28.6446C6.02284 28.7529 5.95645 28.852 5.87065 28.9358C5.78484 29.0196 5.68142 29.0864 5.56671 29.132C5.452 29.1777 5.32842 29.2012 5.20352 29.2012C5.07862 29.2012 4.95504 29.1777 4.84033 29.132C4.72562 29.0864 4.6222 29.0196 4.53639 28.9358C4.45059 28.852 4.3842 28.7529 4.3413 28.6446C4.2984 28.5363 4.27988 28.421 4.28689 28.3059V25.9917C4.27988 25.8766 4.2984 25.7613 4.3413 25.653C4.3842 25.5447 4.45059 25.4456 4.53639 25.3617C4.6222 25.2779 4.72562 25.2112 4.84033 25.1655C4.95504 25.1199 5.07862 25.0964 5.20352 25.0964C5.32842 25.0964 5.452 25.1199 5.56671 25.1655C5.68142 25.2112 5.78484 25.2779 5.87065 25.3617C5.95645 25.4456 6.02284 25.5447 6.06574 25.653C6.10864 25.7613 6.12716 25.8766 6.12016 25.9917V28.3059ZM6.12016 22.5178C6.12716 22.633 6.10864 22.7483 6.06574 22.8566C6.02284 22.9649 5.95645 23.064 5.87065 23.1478C5.78484 23.2316 5.68142 23.2984 5.56671 23.344C5.452 23.3896 5.32842 23.4132 5.20352 23.4132C5.07862 23.4132 4.95504 23.3896 4.84033 23.344C4.72562 23.2984 4.6222 23.2316 4.53639 23.1478C4.45059 23.064 4.3842 22.9649 4.3413 22.8566C4.2984 22.7483 4.27988 22.633 4.28689 22.5178V20.2064C4.27988 20.0912 4.2984 19.9759 4.3413 19.8676C4.3842 19.7593 4.45059 19.6602 4.53639 19.5764C4.6222 19.4926 4.72562 19.4258 4.84033 19.3802C4.95504 19.3346 5.07862 19.311 5.20352 19.311C5.32842 19.311 5.452 19.3346 5.56671 19.3802C5.68142 19.4258 5.78484 19.4926 5.87065 19.5764C5.95645 19.6602 6.02284 19.7593 6.06574 19.8676C6.10864 19.9759 6.12716 20.0912 6.12016 20.2064V22.5178ZM6.12016 16.7272C6.12716 16.8423 6.10864 16.9576 6.06574 17.0659C6.02284 17.1742 5.95645 17.2733 5.87065 17.3571C5.78484 17.4409 5.68142 17.5077 5.56671 17.5533C5.452 17.599 5.32842 17.6225 5.20352 17.6225C5.07862 17.6225 4.95504 17.599 4.84033 17.5533C4.72562 17.5077 4.6222 17.4409 4.53639 17.3571C4.45059 17.2733 4.3842 17.1742 4.3413 17.0659C4.2984 16.9576 4.27988 16.8423 4.28689 16.7272V14.413C4.27988 14.2979 4.2984 14.1826 4.3413 14.0743C4.3842 13.966 4.45059 13.8669 4.53639 13.7831C4.6222 13.6992 4.72562 13.6325 4.84033 13.5869C4.95504 13.5412 5.07862 13.5177 5.20352 13.5177C5.32842 13.5177 5.452 13.5412 5.56671 13.5869C5.68142 13.6325 5.78484 13.6992 5.87065 13.7831C5.95645 13.8669 6.02284 13.966 6.06574 14.0743C6.10864 14.1826 6.12716 14.2979 6.12016 14.413V16.7272ZM6.12016 10.9391C6.12716 11.0543 6.10864 11.1696 6.06574 11.2779C6.02284 11.3862 5.95645 11.4853 5.87065 11.5691C5.78484 11.6529 5.68142 11.7197 5.56671 11.7653C5.452 11.8109 5.32842 11.8345 5.20352 11.8345C5.07862 11.8345 4.95504 11.8109 4.84033 11.7653C4.72562 11.7197 4.6222 11.6529 4.53639 11.5691C4.45059 11.4853 4.3842 11.3862 4.3413 11.2779C4.2984 11.1696 4.27988 11.0543 4.28689 10.9391V8.62767C4.27988 8.51252 4.2984 8.39725 4.3413 8.28893C4.3842 8.18061 4.45059 8.08152 4.53639 7.99771C4.6222 7.9139 4.72562 7.84713 4.84033 7.8015C4.95504 7.75588 5.07862 7.73234 5.20352 7.73234C5.32842 7.73234 5.452 7.75588 5.56671 7.8015C5.68142 7.84713 5.78484 7.9139 5.87065 7.99771C5.95645 8.08152 6.02284 8.18061 6.06574 8.28893C6.10864 8.39725 6.12716 8.51252 6.12016 8.62767V10.9391ZM14.2847 16.5112V15.4075C14.2847 14.624 14.6217 13.8727 15.2216 13.3187C15.8215 12.7647 16.6352 12.4535 17.4835 12.4535C18.3319 12.4535 19.1456 12.7647 19.7455 13.3187C20.3454 13.8727 20.6824 14.624 20.6824 15.4075V16.5245C20.6824 17.308 20.3454 18.0594 19.7455 18.6133C19.1456 19.1673 18.3319 19.4785 17.4835 19.4785C16.6352 19.4785 15.8215 19.1673 15.2216 18.6133C14.6217 18.0594 14.2847 17.308 14.2847 16.5245V16.5112ZM18.8895 25.5998C18.8349 25.6831 18.7631 25.7557 18.6781 25.8134C18.5932 25.8711 18.4967 25.9128 18.3943 25.936C18.2919 25.9593 18.1855 25.9637 18.0813 25.949C17.977 25.9343 17.8769 25.9008 17.7867 25.8504C17.6965 25.8 17.6179 25.7337 17.5554 25.6552C17.4929 25.5767 17.4478 25.4877 17.4226 25.3931C17.3974 25.2985 17.3926 25.2003 17.4085 25.104C17.4244 25.0078 17.4607 24.9153 17.5153 24.832L26.3583 11.3364C26.4129 11.2531 26.4847 11.1805 26.5697 11.1228C26.6547 11.0651 26.7511 11.0234 26.8535 11.0002C26.9559 10.9769 27.0623 10.9725 27.1666 10.9872C27.2708 11.0019 27.3709 11.0354 27.4612 11.0858C27.5514 11.1362 27.63 11.2025 27.6925 11.281C27.7549 11.3595 27.8001 11.4485 27.8253 11.5431C27.8505 11.6377 27.8552 11.7359 27.8393 11.8322C27.8234 11.9284 27.7871 12.0209 27.7325 12.1042L18.8895 25.5998ZM30.7091 22.3765C30.7219 22.7718 30.6488 23.1653 30.4939 23.5339C30.339 23.9026 30.1055 24.2387 29.8073 24.5225C29.5092 24.8062 29.1523 25.0318 28.758 25.1858C28.3637 25.3399 27.9399 25.4193 27.5117 25.4193C27.0835 25.4193 26.6597 25.3399 26.2654 25.1858C25.871 25.0318 25.5142 24.8062 25.216 24.5225C24.9179 24.2387 24.6844 23.9026 24.5295 23.5339C24.3746 23.1653 24.3014 22.7718 24.3143 22.3765V21.2728C24.3014 20.8776 24.3746 20.484 24.5295 20.1154C24.6844 19.7468 24.9179 19.4106 25.216 19.1269C25.5142 18.8431 25.871 18.6175 26.2654 18.4635C26.6597 18.3094 27.0835 18.2301 27.5117 18.2301C27.9399 18.2301 28.3637 18.3094 28.758 18.4635C29.1523 18.6175 29.5092 18.8431 29.8073 19.1269C30.1055 19.4106 30.339 19.7468 30.4939 20.1154C30.6488 20.484 30.7219 20.8776 30.7091 21.2728V22.3765ZM40.7156 28.3059C40.7226 28.421 40.7041 28.5363 40.6612 28.6446C40.6183 28.7529 40.5519 28.852 40.4661 28.9358C40.3803 29.0196 40.2768 29.0864 40.1621 29.132C40.0474 29.1777 39.9238 29.2012 39.7989 29.2012C39.674 29.2012 39.5505 29.1777 39.4357 29.132C39.321 29.0864 39.2176 29.0196 39.1318 28.9358C39.046 28.852 38.9796 28.7529 38.9367 28.6446C38.8938 28.5363 38.8753 28.421 38.8823 28.3059V25.9917C38.8753 25.8766 38.8938 25.7613 38.9367 25.653C38.9796 25.5447 39.046 25.4456 39.1318 25.3617C39.2176 25.2779 39.321 25.2112 39.4357 25.1655C39.5505 25.1199 39.674 25.0964 39.7989 25.0964C39.9238 25.0964 40.0474 25.1199 40.1621 25.1655C40.2768 25.2112 40.3803 25.2779 40.4661 25.3617C40.5519 25.4456 40.6183 25.5447 40.6612 25.653C40.7041 25.7613 40.7226 25.8766 40.7156 25.9917V28.3059ZM40.7156 22.5178C40.7226 22.633 40.7041 22.7483 40.6612 22.8566C40.6183 22.9649 40.5519 23.064 40.4661 23.1478C40.3803 23.2316 40.2768 23.2984 40.1621 23.344C40.0474 23.3896 39.9238 23.4132 39.7989 23.4132C39.674 23.4132 39.5505 23.3896 39.4357 23.344C39.321 23.2984 39.2176 23.2316 39.1318 23.1478C39.046 23.064 38.9796 22.9649 38.9367 22.8566C38.8938 22.7483 38.8753 22.633 38.8823 22.5178V20.2064C38.8753 20.0912 38.8938 19.9759 38.9367 19.8676C38.9796 19.7593 39.046 19.6602 39.1318 19.5764C39.2176 19.4926 39.321 19.4258 39.4357 19.3802C39.5505 19.3346 39.674 19.311 39.7989 19.311C39.9238 19.311 40.0474 19.3346 40.1621 19.3802C40.2768 19.4258 40.3803 19.4926 40.4661 19.5764C40.5519 19.6602 40.6183 19.7593 40.6612 19.8676C40.7041 19.9759 40.7226 20.0912 40.7156 20.2064V22.5178ZM40.7156 16.7272C40.7226 16.8423 40.7041 16.9576 40.6612 17.0659C40.6183 17.1742 40.5519 17.2733 40.4661 17.3571C40.3803 17.4409 40.2768 17.5077 40.1621 17.5533C40.0474 17.599 39.9238 17.6225 39.7989 17.6225C39.674 17.6225 39.5505 17.599 39.4357 17.5533C39.321 17.5077 39.2176 17.4409 39.1318 17.3571C39.046 17.2733 38.9796 17.1742 38.9367 17.0659C38.8938 16.9576 38.8753 16.8423 38.8823 16.7272V14.413C38.8753 14.2979 38.8938 14.1826 38.9367 14.0743C38.9796 13.966 39.046 13.8669 39.1318 13.7831C39.2176 13.6992 39.321 13.6325 39.4357 13.5869C39.5505 13.5412 39.674 13.5177 39.7989 13.5177C39.9238 13.5177 40.0474 13.5412 40.1621 13.5869C40.2768 13.6325 40.3803 13.6992 40.4661 13.7831C40.5519 13.8669 40.6183 13.966 40.6612 14.0743C40.7041 14.1826 40.7226 14.2979 40.7156 14.413V16.7272ZM40.7156 10.9391C40.7226 11.0543 40.7041 11.1696 40.6612 11.2779C40.6183 11.3862 40.5519 11.4853 40.4661 11.5691C40.3803 11.6529 40.2768 11.7197 40.1621 11.7653C40.0474 11.8109 39.9238 11.8345 39.7989 11.8345C39.674 11.8345 39.5505 11.8109 39.4357 11.7653C39.321 11.7197 39.2176 11.6529 39.1318 11.5691C39.046 11.4853 38.9796 11.3862 38.9367 11.2779C38.8938 11.1696 38.8753 11.0543 38.8823 10.9391V8.62767C38.8753 8.51252 38.8938 8.39725 38.9367 8.28893C38.9796 8.18061 39.046 8.08152 39.1318 7.99771C39.2176 7.9139 39.321 7.84713 39.4357 7.8015C39.5505 7.75588 39.674 7.73234 39.7989 7.73234C39.9238 7.73234 40.0474 7.75588 40.1621 7.8015C40.2768 7.84713 40.3803 7.9139 40.4661 7.99771C40.5519 8.08152 40.6183 8.18061 40.6612 8.28893C40.7041 8.39725 40.7226 8.51252 40.7156 8.62767V10.9391Z" fill="#060B29"/>
<path d="M27.5126 20.1953C27.091 20.196 26.6868 20.351 26.3886 20.6264C26.0905 20.9017 25.9226 21.2749 25.9219 21.6643V22.7707C25.9463 23.1443 26.1242 23.4952 26.4193 23.7518C26.7144 24.0084 27.1044 24.1513 27.5097 24.1513C27.9151 24.1513 28.3051 24.0084 28.6002 23.7518C28.8953 23.4952 29.0732 23.1443 29.0976 22.7707V21.6536C29.0946 21.2668 28.9264 20.8967 28.6297 20.6237C28.3329 20.3506 27.9315 20.1967 27.5126 20.1953Z" fill="#4B7BE5"/>
<path d="M19.0781 17.1956V16.0758C19.0537 15.7022 18.8758 15.3513 18.5807 15.0948C18.2856 14.8382 17.8955 14.6953 17.4902 14.6953C17.0849 14.6953 16.6949 14.8382 16.3998 15.0948C16.1047 15.3513 15.9268 15.7022 15.9023 16.0758V17.1956C15.9268 17.5692 16.1047 17.9201 16.3998 18.1767C16.6949 18.4333 17.0849 18.5761 17.4902 18.5761C17.8955 18.5761 18.2856 18.4333 18.5807 18.1767C18.8758 17.9201 19.0537 17.5692 19.0781 17.1956Z" fill="#4B7BE5"/>
<path d="M49.2352 0H9.80977C9.07701 0 8.37425 0.268809 7.85611 0.747293C7.33796 1.22578 7.04688 1.87474 7.04688 2.55142V4.50564H42.2226C43.4407 4.51055 44.6074 4.95958 45.4687 5.75499C46.3301 6.5504 46.8163 7.6278 46.8216 8.75267V27.0605H49.2381C49.6009 27.0605 49.9602 26.9945 50.2954 26.8663C50.6306 26.7381 50.9352 26.5501 51.1918 26.3132C51.4483 26.0763 51.6518 25.795 51.7907 25.4855C51.9295 25.1759 52.001 24.8441 52.001 24.5091V2.55142C52.0002 1.87449 51.7085 1.22554 51.1899 0.747131C50.6713 0.268724 49.9682 -3.68789e-07 49.2352 0Z" fill="#4B7BE5"/>
</svg>
