
<svg width="252" height="148" viewBox="0 0 252 148" fill="none" xmlns="http://www.w3.org/2000/svg">
<path d="M137 90V90.2526C137 92.5729 136.016 94.7981 134.266 96.4385C132.516 98.079 130.142 99.0004 127.667 99H22.3295C19.8553 98.9998 17.4824 98.0781 15.7328 96.4377C13.9832 94.7973 13.0002 92.5725 13 90.2526V90H137Z" fill="#F2F2F2"/>
<path d="M35 45.6099C27.6988 47.6532 21.1444 41.2886 20 35.3841L20.5083 35.2812C26.6623 33.7399 33.5318 38.7241 35 45.6099Z" fill="#4B7BE5" fill-opacity="0.62"/>
<path d="M207.483 104.618C208.549 105.667 209.644 106.243 209.929 105.901C209.966 105.843 209.99 105.776 209.997 105.706C210.005 105.636 209.996 105.565 209.973 105.499C209.857 105.112 209.672 104.754 209.429 104.445C208.481 103.711 207.561 102.92 206.666 102.071C206.386 101.971 206.171 101.973 206.067 102.1C206.052 102.118 206.04 102.138 206.031 102.16C205.852 102.557 206.473 103.622 207.483 104.618Z" fill="#4B7BE5"/>
<path d="M210.403 100.29C210.751 99.9059 209.974 98.6363 208.669 97.4541C207.363 96.2719 206.023 95.6249 205.675 96.0088C205.328 96.3928 206.104 97.6625 207.41 98.8446C208.715 100.027 210.055 100.674 210.403 100.29Z" fill="#4B7BE5"/>
<path d="M32.5968 46C30.0266 45.9846 27.5124 45.2568 25.34 43.8995C22.1575 41.9451 19.7544 38.815 19.0687 35.7311L19 35.422L19.8601 35.2699C26.6302 33.7932 34.2876 38.5518 35.9281 45.2592L36 45.5533L35.7028 45.626C34.6866 45.8745 33.6436 46.0001 32.5968 46ZM19.7445 35.9085C20.4832 38.7375 22.7252 41.5773 25.665 43.3827C28.5073 45.1804 31.9518 45.7993 35.2526 45.1053C33.5363 38.8563 26.3494 34.4712 19.987 35.8654L19.7445 35.9085Z" fill="#4B7BE5"/>
<path d="M24.1477 79C22.2393 79 20.6889 78.1274 19.7787 76.5355C19.2685 75.6093 19.0003 74.5645 19 73.5017C18.9997 72.4389 19.2672 71.394 19.7768 70.4675C20.7016 68.8484 22.289 67.9701 24.2494 68.0008H42.755C44.7088 67.9753 46.2974 68.8497 47.2227 70.4707C47.7324 71.397 48.0001 72.4417 48 73.5043C47.9999 74.5669 47.732 75.6116 47.2222 76.5378C46.2972 78.155 44.7091 79.0188 42.7506 78.9993H24.2447C24.2123 78.9997 24.1799 79 24.1477 79ZM24.1585 68.5962C22.4566 68.5962 21.0819 69.3652 20.2807 70.768C19.8215 71.6027 19.5805 72.5441 19.5808 73.5016C19.5812 74.459 19.8228 75.4003 20.2824 76.2346C21.0971 77.6597 22.5001 78.4311 24.2403 78.4031H42.755C44.4971 78.4315 45.9044 77.6605 46.7185 76.237C47.1778 75.4026 47.4191 74.4614 47.4192 73.5041C47.4192 72.5468 47.178 71.6055 46.7189 70.7711C45.9042 69.344 44.4966 68.5755 42.7592 68.5969H24.2433C24.2151 68.5965 24.1866 68.5962 24.1585 68.5962H24.1585Z" fill="#C4C4C4"/>
<path d="M113.5 70H107.5C107.102 70 106.721 69.842 106.439 69.5607C106.158 69.2794 106 68.8978 106 68.5C106 68.1022 106.158 67.7206 106.439 67.4393C106.721 67.158 107.102 67 107.5 67H113.5C113.898 67 114.279 67.158 114.561 67.4393C114.842 67.7206 115 68.1022 115 68.5C115 68.8978 114.842 69.2794 114.561 69.5607C114.279 69.842 113.898 70 113.5 70Z" fill="#4B7BE5"/>
<path d="M113.5 75H107.5C107.102 75 106.721 74.842 106.439 74.5607C106.158 74.2794 106 73.8978 106 73.5C106 73.1022 106.158 72.7206 106.439 72.4393C106.721 72.158 107.102 72 107.5 72H113.5C113.898 72 114.279 72.158 114.561 72.4393C114.842 72.7206 115 73.1022 115 73.5C115 73.8978 114.842 74.2794 114.561 74.5607C114.279 74.842 113.898 75 113.5 75Z" fill="#4B7BE5"/>
<path d="M113.5 80H107.5C107.102 80 106.721 79.842 106.439 79.5607C106.158 79.2794 106 78.8978 106 78.5C106 78.1022 106.158 77.7206 106.439 77.4393C106.721 77.158 107.102 77 107.5 77H113.5C113.898 77 114.279 77.158 114.561 77.4393C114.842 77.7206 115 78.1022 115 78.5C115 78.8978 114.842 79.2794 114.561 79.5607C114.279 79.842 113.898 80 113.5 80Z" fill="#4B7BE5"/>
<path d="M123.5 70H117.5C117.102 70 116.721 69.842 116.439 69.5607C116.158 69.2794 116 68.8978 116 68.5C116 68.1022 116.158 67.7206 116.439 67.4393C116.721 67.158 117.102 67 117.5 67H123.5C123.898 67 124.279 67.158 124.561 67.4393C124.842 67.7206 125 68.1022 125 68.5C125 68.8978 124.842 69.2794 124.561 69.5607C124.279 69.842 123.898 70 123.5 70Z" fill="#4B7BE5"/>
<path d="M123.5 75H117.5C117.102 75 116.721 74.842 116.439 74.5607C116.158 74.2794 116 73.8978 116 73.5C116 73.1022 116.158 72.7206 116.439 72.4393C116.721 72.158 117.102 72 117.5 72H123.5C123.898 72 124.279 72.158 124.561 72.4393C124.842 72.7206 125 73.1022 125 73.5C125 73.8978 124.842 74.2794 124.561 74.5607C124.279 74.842 123.898 75 123.5 75Z" fill="#4B7BE5"/>
<path d="M123.5 80H117.5C117.102 80 116.721 79.842 116.439 79.5607C116.158 79.2794 116 78.8978 116 78.5C116 78.1022 116.158 77.7206 116.439 77.4393C116.721 77.158 117.102 77 117.5 77H123.5C123.898 77 124.279 77.158 124.561 77.4393C124.842 77.7206 125 78.1022 125 78.5C125 78.8978 124.842 79.2794 124.561 79.5607C124.279 79.842 123.898 80 123.5 80Z" fill="#4B7BE5"/>
<path d="M127.257 99H22.7429C20.1598 98.9971 17.6833 97.9736 15.8568 96.154C14.0303 94.3344 13.0029 91.8674 13 89.2941V38.7059C13.0029 36.1326 14.0303 33.6656 15.8568 31.846C17.6833 30.0264 20.1598 29.0029 22.7429 29H127.257C129.84 29.0029 132.317 30.0264 134.143 31.846C135.97 33.6656 136.997 36.1326 137 38.7059V89.2941C136.997 91.8674 135.97 94.3344 134.143 96.154C132.317 97.9736 129.84 98.9971 127.257 99ZM22.7429 29.5882C20.3163 29.591 17.99 30.5525 16.2742 32.2618C14.5584 33.9711 13.5932 36.2886 13.5905 38.7059V89.2941C13.5932 91.7114 14.5584 94.0289 16.2742 95.7382C17.99 97.4475 20.3163 98.409 22.7429 98.4118H127.257C129.684 98.409 132.01 97.4475 133.726 95.7383C135.442 94.029 136.407 91.7114 136.41 89.2941V38.7059C136.407 36.2886 135.442 33.9711 133.726 32.2618C132.01 30.5525 129.684 29.591 127.257 29.5882H22.7429Z" fill="#C4C4C4"/>
<path d="M232.047 146.183C229.781 145.208 229.266 141.653 231.163 140.078C233.059 138.503 236.473 139.651 237.025 142.05L234.911 126.972C234.425 123.506 234.036 119.631 236.137 116.827C238.104 114.201 241.948 113.36 245.034 114.49C248.119 115.621 250.4 118.44 251.367 121.573C252.335 124.705 252.107 128.109 251.262 131.277C250.417 134.444 248.982 137.419 247.53 140.36C246.043 143.373 244.238 146.639 241.059 147.748C238.022 148.808 232.047 146.183 232.047 146.183Z" fill="#F2F2F2"/>
<path d="M241.966 114.546C243.43 118.766 244.128 123.181 244.03 127.611C243.938 132.022 243.079 136.39 241.487 140.55C240.581 142.91 239.433 145.185 238.058 147.343C237.998 147.445 237.984 147.564 238.018 147.675C238.052 147.786 238.131 147.881 238.239 147.939C238.347 147.997 238.475 148.015 238.597 147.987C238.718 147.96 238.824 147.89 238.89 147.792C241.358 143.9 243.112 139.657 244.08 135.237C245.063 130.795 245.26 126.236 244.663 121.737C244.327 119.215 243.735 116.728 242.895 114.309C242.706 113.766 241.775 113.998 241.966 114.546Z" fill="white"/>
<path d="M231.127 140.738L238.238 147.869C238.637 148.269 239.272 147.662 238.873 147.262L231.762 140.131C231.363 139.731 230.728 140.338 231.127 140.738Z" fill="white"/>
<path d="M228 112H227V148H228V112Z" fill="#808080"/>
<path d="M236 115.959C236.058 128.661 227.106 139 227.106 139C227.106 139 218.059 128.744 218 116.041C217.942 103.339 226.894 93 226.894 93C226.894 93 235.941 103.256 236 115.959Z" fill="#C4C4C4"/>
<path d="M211.989 112C211.748 112 211.515 111.913 211.333 111.754C207.154 109.013 203.435 105.619 200.314 101.701C200.123 101.518 200.011 101.267 200.001 101.002C199.991 100.737 200.084 100.479 200.261 100.282L202.312 98L202.735 98.3856L200.683 100.668C200.605 100.755 200.565 100.869 200.571 100.986C200.576 101.103 200.628 101.212 200.714 101.291L200.744 101.323C203.834 105.206 207.518 108.569 211.659 111.283L211.696 111.311C211.782 111.39 211.896 111.431 212.012 111.425C212.128 111.419 212.237 111.367 212.315 111.281L216.317 106.827C216.391 106.744 216.432 106.636 216.43 106.524C216.428 106.413 216.385 106.306 216.308 106.225C215.38 105.716 214.475 105.161 213.617 104.575L213.937 104.1C214.79 104.682 215.691 105.234 216.613 105.739L216.669 105.779C216.767 105.868 216.846 105.976 216.903 106.097C216.96 106.217 216.992 106.348 216.999 106.481C217.005 106.614 216.986 106.747 216.941 106.873C216.897 106.998 216.828 107.114 216.739 107.213L212.737 111.666C212.648 111.765 212.541 111.846 212.422 111.903C212.302 111.96 212.172 111.993 212.04 111.999C212.023 112 212.006 112 211.989 112Z" fill="#3F3D56"/>
<path d="M200.001 95.6833C200.012 95.9526 200.125 96.2067 200.315 96.3902C202.003 98.5557 203.859 100.575 205.864 102.427C207.331 103.785 208.884 105.04 210.512 106.184C210.783 106.376 211.056 106.562 211.333 106.746C211.514 106.91 211.747 107.001 211.988 107C212.006 107 212.023 106.997 212.04 106.997C212.172 106.991 212.302 106.957 212.422 106.898C212.542 106.839 212.649 106.756 212.738 106.654L216.739 102.069C216.919 101.863 217.012 101.592 216.999 101.314C216.985 101.037 216.866 100.777 216.668 100.59L216.614 100.549C212.245 98.1 208.511 94.5921 205.73 90.3237L205.687 90.2704C205.489 90.0842 205.227 89.9874 204.96 90.0013C204.693 90.0152 204.442 90.1386 204.262 90.3444L200.261 94.929C200.172 95.0308 200.103 95.1498 200.058 95.2793C200.014 95.4087 199.995 95.546 200.001 95.6833ZM200.571 95.6537C200.568 95.5946 200.577 95.5354 200.596 95.4795C200.615 95.4237 200.644 95.3723 200.683 95.3283L204.684 90.7407C204.723 90.6962 204.77 90.6602 204.822 90.6348C204.874 90.6094 204.931 90.5952 204.989 90.5928C205.094 90.5863 205.197 90.62 205.28 90.6875C208.102 95.0089 211.884 98.5634 216.306 101.052C216.383 101.134 216.427 101.244 216.429 101.359C216.431 101.473 216.391 101.585 216.318 101.67L212.313 106.258C212.275 106.302 212.229 106.338 212.177 106.364C212.125 106.389 212.069 106.403 212.011 106.405C211.895 106.411 211.782 106.37 211.695 106.29L211.658 106.261C211.054 105.858 210.458 105.437 209.871 104.998C208.754 104.172 207.668 103.282 206.613 102.327C204.484 100.399 202.519 98.283 200.742 96.0028L200.714 95.9702C200.628 95.8881 200.577 95.7745 200.571 95.6537V95.6537Z" fill="#3F3D56"/>
<path d="M183.999 144L180.612 144L179 130L184 130L183.999 144Z" fill="#FFB8B8"/>
<path d="M185 148L174 148V147.842C174 147.206 174.111 146.577 174.326 145.989C174.541 145.402 174.856 144.868 175.254 144.418C175.652 143.969 176.124 143.612 176.643 143.369C177.162 143.125 177.719 143 178.281 143H178.282L185 143L185 148Z" fill="#212121"/>
<path d="M194.999 144L191.612 144L190 130L195 130L194.999 144Z" fill="#FFB8B8"/>
<path d="M196 148L184 148V147.842C184 147.206 184.121 146.577 184.356 145.989C184.59 145.402 184.934 144.868 185.368 144.418C185.802 143.969 186.317 143.612 186.883 143.369C187.45 143.125 188.057 143 188.671 143H188.671L196 143L196 148Z" fill="#212121"/>
<path d="M197 88.0306L196.13 139.43C196.127 139.593 196.09 139.753 196.023 139.901C195.955 140.049 195.857 140.182 195.735 140.291C195.613 140.399 195.471 140.482 195.315 140.533C195.16 140.585 194.996 140.603 194.833 140.589L190.568 140.203C190.288 140.177 190.026 140.054 189.829 139.855C189.632 139.656 189.512 139.394 189.49 139.115L186.993 107.054C186.987 106.979 186.953 106.909 186.896 106.858C186.84 106.807 186.767 106.78 186.691 106.781C186.615 106.783 186.542 106.813 186.488 106.866C186.434 106.919 186.402 106.99 186.399 107.066L185.151 139.861C185.14 140.167 185.01 140.457 184.788 140.669C184.566 140.881 184.271 141 183.963 141H179.389C179.086 141 178.795 140.885 178.574 140.678C178.354 140.472 178.221 140.189 178.202 139.889L175 87.7347L194.027 83L197 88.0306Z" fill="#4B7BE5"/>
<path d="M183.5 39C187.642 39 191 35.866 191 32C191 28.134 187.642 25 183.5 25C179.358 25 176 28.134 176 32C176 35.866 179.358 39 183.5 39Z" fill="#FFB8B8"/>
<path d="M174.907 89.6228C174.779 89.5009 174.677 89.3553 174.607 89.1942C174.537 89.0332 174.5 88.8599 174.498 88.6846L174.001 53.574C173.971 51.7879 174.515 50.0385 175.553 48.5769C176.591 47.1154 178.071 46.0169 179.78 45.4394C180.469 42.3447 184.139 41.9571 186.279 42.0034C186.813 42.0148 187.336 42.1534 187.805 42.4074C188.273 42.6614 188.672 43.0234 188.969 43.4627L190.503 45.7384L193.883 47.6985C195.448 48.6018 196.682 49.9732 197.407 51.6151C198.133 53.2569 198.313 55.0843 197.92 56.8336L197.4 59.1753C195.567 67.4634 195.741 76.0628 197.909 84.2716L198.956 88.2214C199.01 88.4271 199.014 88.6427 198.968 88.8503C198.921 89.0578 198.825 89.2513 198.687 89.4146C198.549 89.5778 198.374 89.7061 198.176 89.7888C197.978 89.8714 197.762 89.906 197.548 89.8897L196.332 89.7971C196.016 89.7734 195.719 89.6404 195.492 89.4215C195.266 89.2026 195.124 88.9117 195.093 88.6L194.892 86.6089C194.888 86.5723 194.871 86.5384 194.843 86.5138C194.816 86.4891 194.78 86.4755 194.743 86.4755C194.706 86.4755 194.67 86.4891 194.642 86.5138C194.615 86.5384 194.597 86.5723 194.594 86.6089L194.399 88.5366C194.366 88.8623 194.213 89.1646 193.97 89.3861C193.726 89.6076 193.409 89.7327 193.078 89.7377L175.867 89.9997C175.86 89.9997 175.853 90 175.845 90C175.495 90.0007 175.158 89.8652 174.907 89.6228Z" fill="#C4C4C4"/>
<path d="M184.58 36.6715C184.609 37.7204 185.315 38.3273 186.181 38.8767C187.047 39.4261 188.06 39.6643 189.052 39.8941C189.185 39.9672 189.335 40.0035 189.486 39.9997C189.636 39.9959 189.784 39.952 189.913 39.8723C190.043 39.7926 190.15 39.6798 190.225 39.5447C190.301 39.4097 190.341 39.2569 190.342 39.1012L191.252 35.5292C191.574 34.3882 191.808 33.2227 191.952 32.0437C192.171 29.775 191.65 27.3346 190.116 25.6943C188.582 24.054 185.921 23.4713 184.082 24.7351C181.901 21.859 171.927 28.2134 174.388 30.2134C174.825 30.5691 175.494 30.1189 176.05 30.0753C176.605 30.0317 177.228 30.1325 177.581 30.5775C178.042 31.1588 177.841 32.0248 178.031 32.75C178.11 33.0051 178.236 33.2417 178.404 33.4461C178.572 33.6504 178.777 33.8185 179.008 33.9407C179.238 34.0628 179.49 34.1365 179.749 34.1576C180.008 34.1788 180.268 34.1468 180.514 34.0637C180.974 33.8301 181.406 33.5434 181.802 33.2091C182.228 32.9162 182.767 32.6998 183.247 32.8845C183.879 33.128 184.103 33.9269 184.161 34.6209C184.257 35.3131 184.397 35.9981 184.58 36.6715Z" fill="#212121"/>
<path opacity="0.2" d="M182.258 56L181.097 70.21L175 85L184 70.5L182.258 56Z" fill="black"/>
<path d="M173.917 91.3306C174.258 91.0589 174.536 90.7164 174.729 90.3271C174.923 89.9378 175.028 89.5112 175.037 89.0774C175.046 88.6436 174.959 88.2131 174.782 87.8162C174.604 87.4194 174.341 87.0658 174.011 86.7804L178 77L172.573 78.0849L169.617 87.2062C169.17 87.7871 168.953 88.5104 169.008 89.2388C169.064 89.9673 169.387 90.6505 169.917 91.1589C170.447 91.6673 171.146 91.9655 171.884 91.9972C172.621 92.0288 173.344 91.7917 173.917 91.3306V91.3306Z" fill="#FFB8B8"/>
<path d="M173.096 86.9194L169.916 85.806C169.589 85.6895 169.318 85.4582 169.157 85.1575C168.996 84.8567 168.957 84.5084 169.048 84.1811L174.293 65.5264L175.093 48.6667C175.117 48.1578 175.245 47.6587 175.469 47.1983C175.694 46.7379 176.01 46.3254 176.4 45.9849C176.79 45.6443 177.246 45.3825 177.741 45.2147C178.236 45.0468 178.76 44.9762 179.284 45.007C179.807 45.0379 180.319 45.1695 180.789 45.3942C181.26 45.619 181.68 45.9323 182.025 46.3162C182.369 46.7 182.632 47.1465 182.798 47.6299C182.963 48.1133 183.028 48.6238 182.989 49.1318L181.561 67.5928L174.877 86.0972C174.776 86.3768 174.583 86.6163 174.328 86.7788C174.072 86.9413 173.769 87.0178 173.465 86.9965C173.339 86.9872 173.215 86.9612 173.096 86.9194Z" fill="#C4C4C4"/>
<path d="M204.622 92.3643C204.839 91.9682 204.966 91.5296 204.994 91.0795C205.022 90.6293 204.951 90.1786 204.784 89.7589C204.618 89.3392 204.361 88.9608 204.032 88.6504C203.703 88.34 203.309 88.1052 202.879 87.9623L202.749 77L198 80.1922L198.851 90.1128C198.658 90.8474 198.742 91.627 199.089 92.3038C199.435 92.9807 200.019 93.5079 200.73 93.7854C201.442 94.0629 202.231 94.0716 202.948 93.8096C203.665 93.5477 204.261 93.0334 204.622 92.3643L204.622 92.3643Z" fill="#FFB8B8"/>
<path d="M202.759 87.8413L199.584 87.9987C199.256 88.0133 198.935 87.9049 198.683 87.6948C198.431 87.4847 198.268 87.188 198.224 86.8633L195.819 68.3206L190.225 52.9885C190.056 52.5257 189.981 52.0341 190.004 51.5421C190.027 51.0501 190.148 50.5675 190.359 50.1226C190.571 49.6776 190.869 49.2791 191.236 48.9502C191.603 48.6212 192.032 48.3684 192.497 48.2065C192.963 48.0446 193.456 47.9768 193.949 48.007C194.441 48.0372 194.922 48.1648 195.364 48.3825C195.807 48.6001 196.201 48.9034 196.525 49.2748C196.849 49.6461 197.096 50.0781 197.251 50.5456L202.897 67.5339L203.998 86.4631C204.014 86.7492 203.936 87.0327 203.775 87.2701C203.614 87.5074 203.38 87.6853 203.108 87.7765C202.995 87.8138 202.877 87.8356 202.759 87.8413Z" fill="#C4C4C4"/>
<path d="M138.925 108.365C138.925 110.502 140.651 112.241 142.771 112.241C144.891 112.241 146.617 110.502 146.617 108.365C146.617 106.228 144.891 104.489 142.771 104.489C140.651 104.489 138.925 106.228 138.925 108.365ZM145.759 108.365C145.759 110.026 144.419 111.377 142.771 111.377C141.122 111.377 139.783 110.026 139.783 108.365C139.783 106.704 141.122 105.353 142.771 105.353C144.419 105.353 145.759 106.705 145.759 108.365Z" fill="#4B7BE5"/>
<path d="M218 34.5425L221.445 36.2541L221.995 40.0889L224.677 37.314L228.463 37.9692L226.675 34.5443L228.463 31.1175L224.675 31.7711L221.994 28.9996L221.443 32.8274L218 34.5425ZM224.376 32.6978L226.895 32.2638L225.708 34.5425L226.895 36.8195L224.376 36.3838L222.594 38.2286L222.227 35.6801L219.935 34.5425L222.227 33.4014L222.594 30.8548L224.376 32.6978Z" fill="#4B7BE5"/>
<path d="M110.962 6.60504L112.198 4.23988L109.583 4.69113L107.732 2.77895L107.35 5.42245L104.974 6.60677L107.35 7.79107L107.732 10.4346L109.583 8.5224L112.198 8.97364L110.962 6.60504ZM108.331 8.576L108.134 7.21534L106.91 6.60504L108.134 5.99473L108.331 4.63408L109.285 5.61783L110.63 5.38615L109.995 6.60331L110.63 7.82046L109.285 7.58879L108.331 8.576Z" fill="black"/>
<path d="M15.2129 6.60477L19.9768 8.16425L19.9768 13.2109L22.9222 9.13071L27.6827 10.6885L24.7389 6.60477L27.6827 2.52281L22.9222 4.08056L19.9768 0.000332624L19.9768 5.04702L15.2129 6.60477ZM22.5946 5.09716L25.4389 4.167L23.6822 6.60477L25.4389 9.04426L22.5946 8.11411L20.8362 10.5536L20.8362 7.53666L17.992 6.60477L20.8362 5.67461L20.8362 2.65766L22.5946 5.09716Z" fill="#4B7BE5"/>
<path d="M7.6922 20.3601C7.6922 18.2232 5.96643 16.4839 3.8461 16.4839C1.72577 16.4839 -2.62843e-07 18.2232 -1.69435e-07 20.3601C-7.60263e-08 22.497 1.72577 24.2363 3.8461 24.2363C5.96643 24.2363 7.6922 22.497 7.6922 20.3601ZM0.857739 20.3601C0.857739 18.6986 2.19753 17.3483 3.8461 17.3483C5.49468 17.3483 6.83446 18.6986 6.83446 20.3601C6.83446 22.0216 5.49468 23.3719 3.8461 23.3719C2.19753 23.3719 0.857739 22.0216 0.857739 20.3601Z" fill="black"/>
</svg>
