<svg width="228" height="147" viewBox="0 0 228 147" fill="none" xmlns="http://www.w3.org/2000/svg">
<path d="M138.644 107.934C138.644 110.063 140.366 111.795 142.482 111.795C144.598 111.795 146.32 110.063 146.32 107.934C146.32 105.806 144.598 104.073 142.482 104.073C140.366 104.073 138.644 105.806 138.644 107.934ZM145.464 107.934C145.464 109.589 144.127 110.934 142.482 110.934C140.837 110.934 139.5 109.589 139.5 107.934C139.5 106.279 140.837 104.934 142.482 104.934C144.127 104.934 145.464 106.281 145.464 107.934Z" fill="#4B7BE5"/>
<path d="M217.559 34.4054L220.996 36.1102L221.546 39.9297L224.222 37.1658L228 37.8185L226.216 34.4071L228 30.994L224.22 31.6449L221.544 28.8845L220.995 32.6971L217.559 34.4054ZM223.922 32.568L226.435 32.1357L225.251 34.4054L226.435 36.6733L223.922 36.2393L222.143 38.0768L221.777 35.5385L219.49 34.4054L221.777 33.2688L222.143 30.7323L223.922 32.568Z" fill="#4B7BE5"/>
<path d="M110.737 6.57924L111.97 4.22348L109.361 4.67293L107.514 2.76835L107.132 5.40135L104.761 6.58096L107.132 7.76055L107.514 10.3936L109.361 8.48898L111.97 8.93843L110.737 6.57924ZM108.111 8.54236L107.914 7.18711L106.694 6.57924L107.914 5.97135L108.111 4.61611L109.063 5.59595L110.405 5.36519L109.772 6.57752L110.405 7.78982L109.063 7.55908L108.111 8.54236Z" fill="black"/>
<path d="M15.1816 6.57828L19.9359 8.13156L19.9359 13.1582L22.8754 9.09418L27.6262 10.6457L24.6884 6.57828L27.6262 2.51254L22.8754 4.0641L19.9359 7.60865e-05L19.9359 5.02672L15.1816 6.57828ZM22.5484 5.07665L25.3869 4.15019L23.6338 6.57828L25.3869 9.00807L22.5484 8.08162L20.7936 10.5114L20.7936 7.50646L17.9551 6.57828L20.7936 5.65182L20.7936 2.64685L22.5484 5.07665Z" fill="#4B7BE5"/>
<path d="M7.67663 20.2788C7.67663 18.1504 5.95435 16.418 3.83831 16.418C1.72227 16.418 -2.62843e-07 18.1504 -1.69435e-07 20.2788C-7.60263e-08 22.4073 1.72228 24.1396 3.83831 24.1396C5.95435 24.1396 7.67663 22.4073 7.67663 20.2788ZM0.856002 20.2788C0.856002 18.624 2.19308 17.279 3.83831 17.279C5.48355 17.279 6.82062 18.624 6.82062 20.2788C6.82062 21.9337 5.48355 23.2786 3.83831 23.2786C2.19308 23.2786 0.856002 21.9337 0.856002 20.2788Z" fill="black"/>
<path opacity="0.5" d="M193.703 146.92L194.333 146.908C194.089 139.917 193.342 132.952 192.096 126.068C189.372 111.33 184.842 101.65 178.632 97.2988L178.271 97.8134C192.777 107.979 193.695 146.532 193.703 146.92Z" fill="#212121"/>
<path opacity="0.5" d="M185.827 146.769L186.457 146.757C186.443 146.061 186.05 129.65 179.577 125.114L179.215 125.629C185.427 129.982 185.824 146.602 185.827 146.769Z" fill="#212121"/>
<path d="M174.685 97.8707C176.425 97.8707 177.835 96.4631 177.835 94.7268C177.835 92.9906 176.425 91.583 174.685 91.583C172.945 91.583 171.535 92.9906 171.535 94.7268C171.535 96.4631 172.945 97.8707 174.685 97.8707Z" fill="#4B7BE5"/>
<path d="M176.246 124.908C177.985 124.908 179.396 123.5 179.396 121.764C179.396 120.028 177.985 118.62 176.246 118.62C174.506 118.62 173.096 120.028 173.096 121.764C173.096 123.5 174.506 124.908 176.246 124.908Z" fill="#4B7BE5"/>
<path opacity="0.2" d="M187.295 99.7554C186.703 103.529 188.246 106.905 188.246 106.905C188.246 106.905 190.749 104.161 191.341 100.388C191.933 96.6137 190.39 93.2383 190.39 93.2383C190.39 93.2383 187.887 95.9815 187.295 99.7554Z" fill="#212121"/>
<path opacity="0.2" d="M176.998 108.921C180.618 110.16 184.217 109.232 184.217 109.232C184.217 109.232 181.947 106.294 178.327 105.055C174.707 103.816 171.107 104.744 171.107 104.744C171.107 104.744 173.378 107.682 176.998 108.921Z" fill="#212121"/>
<path opacity="0.2" d="M176.882 132.864C178.52 133.378 180.265 133.453 181.942 133.082C180.877 131.729 179.443 130.713 177.813 130.154C176.183 129.596 174.425 129.521 172.753 129.936C173.849 131.256 175.272 132.266 176.882 132.864Z" fill="#212121"/>
<path d="M118.218 48.7905L97.9092 38.2506C97.9092 38.2506 91.0893 30.7547 86.8062 27.3689C82.5232 23.9832 81.2047 26.4705 81.2047 26.4705L79.4043 29.4654L83.7554 35.5052L95.5085 45.4384L116.509 53.648C116.838 54.1848 117.312 54.6175 117.877 54.8959C118.442 55.1743 119.075 55.287 119.701 55.2209C120.328 55.1548 120.923 54.9125 121.417 54.5223C121.912 54.1321 122.285 53.61 122.493 53.0166C122.702 52.4231 122.738 51.7828 122.596 51.1699C122.455 50.557 122.142 49.9967 121.695 49.5541C121.247 49.1116 120.682 48.8049 120.067 48.6697C119.452 48.5345 118.81 48.5764 118.218 48.7905Z" fill="#FFB8B8"/>
<path d="M65.3939 39.6764L64.1916 32.3349L60.7966 31.4878C60.7966 31.4878 58.1021 30.6595 57.4723 36.0763C56.8425 41.493 57.3308 51.6064 57.3308 51.6064L50.4378 73.3916C49.8644 73.6578 49.3786 74.081 49.037 74.6121C48.6953 75.1432 48.5118 75.7602 48.5079 76.3913C48.504 77.0224 48.6797 77.6417 49.0148 78.1769C49.3498 78.7122 49.8304 79.1414 50.4004 79.4147C50.9704 79.688 51.6065 79.794 52.2345 79.7204C52.8626 79.6468 53.4568 79.3967 53.9479 78.9992C54.439 78.6016 54.8069 78.073 55.0087 77.4748C55.2104 76.8767 55.2378 76.2337 55.0876 75.6206L64.1209 54.9948L65.3939 39.6764Z" fill="#FFB8B8"/>
<path d="M93.4746 142.703L97.917 142.703L100.031 125.601L93.4736 125.601L93.4746 142.703Z" fill="#FFB8B8"/>
<path d="M92.3408 141.254L101.09 141.254H101.09C102.569 141.254 103.987 141.84 105.033 142.884C106.078 143.927 106.666 145.343 106.666 146.819V146.999L92.3411 147L92.3408 141.254Z" fill="#4B7BE5"/>
<path d="M45.0182 142.703L49.4609 142.703L51.5742 125.601L45.0176 125.601L45.0182 142.703Z" fill="#FFB8B8"/>
<path d="M43.8857 141.254L52.6348 141.254H52.6351C54.1138 141.254 55.532 141.84 56.5776 142.884C57.6232 143.927 58.2106 145.343 58.2107 146.819V146.999L43.886 147L43.8857 141.254Z" fill="#4B7BE5"/>
<path d="M66.9511 25.0104L59.5824 31.2884L65.6297 50.3879L66.9942 54.6529C66.9942 54.6529 58.6625 62.3198 53.5073 83.737C48.3522 105.154 39.9189 133.613 39.9189 133.613L57.7201 138.698L72.2024 90.2503L89.2371 128.259L91.2039 139.501L106.363 135.04L102.787 106.846L84.9079 58.0408L86.7651 45.1035C86.7651 45.1035 89.5542 38.646 84.709 31.8093L83.1893 25.3852L77.7451 24.0469L66.9511 25.0104Z" fill="#4B7BE5"/>
<path d="M79.1924 21.5973H59.2703C58.8605 21.5969 58.4676 21.4342 58.1778 21.145C57.8881 20.8558 57.7251 20.4636 57.7246 20.0546V11.4843C57.7246 8.43846 58.9369 5.51739 61.0949 3.36367C63.2528 1.20995 66.1796 0 69.2313 0C72.2831 0 75.2099 1.20995 77.3678 3.36367C79.5257 5.51739 80.7381 8.43846 80.7381 11.4843V20.0546C80.7376 20.4636 80.5746 20.8558 80.2848 21.145C79.9951 21.4342 79.6022 21.5968 79.1924 21.5973Z" fill="#212121"/>
<path d="M78.999 17.0164C81.2339 12.9361 79.7314 7.82022 75.6431 5.58972C71.5548 3.35922 66.4289 4.85879 64.194 8.93909C61.9592 13.0194 63.4617 18.1353 67.55 20.3658C71.6382 22.5963 76.7642 21.0968 78.999 17.0164Z" fill="#FFB8B8"/>
<path d="M80.1506 9.25599H67.9687L67.8438 7.51044L67.2192 9.25599H65.3435L65.0959 5.79638L63.858 9.25599H60.2285V9.08458C60.2312 6.67604 61.1911 4.36692 62.8975 2.66382C64.6039 0.96072 66.9175 0.00272347 69.3308 0H71.0483C73.4615 0.00271928 75.7752 0.960712 77.4816 2.66381C79.188 4.36691 80.1479 6.67603 80.1506 9.08458V9.25599Z" fill="#212121"/>
<path d="M71.179 23.1971C71.0873 23.197 70.9958 23.189 70.9055 23.173L61.9854 21.6022V6.88867H71.8047L71.5616 7.17157C68.1792 11.1086 70.7274 17.4925 72.5474 20.9474C72.6816 21.2004 72.7414 21.4861 72.72 21.7716C72.6986 22.0571 72.5968 22.3308 72.4264 22.561C72.2837 22.758 72.0962 22.9183 71.8794 23.0289C71.6626 23.1395 71.4225 23.1971 71.179 23.1971Z" fill="#212121"/>
<path d="M144.949 100.333L66.7725 127.919C64.8396 128.598 62.7155 128.485 60.8663 127.604C59.017 126.722 57.5936 125.145 56.9083 123.217L43.4787 85.3073C42.7978 83.3781 42.9114 81.2582 43.7946 79.4125C44.6777 77.5669 46.2584 76.1463 48.1897 75.4623L126.366 47.8763C128.299 47.1967 130.423 47.3101 132.272 48.1915C134.121 49.073 135.545 50.6505 136.23 52.5781L149.66 90.4879C150.341 92.417 150.227 94.5369 149.344 96.3826C148.461 98.2282 146.88 99.6489 144.949 100.333Z" fill="#E5E5E5"/>
<path d="M149.658 90.4883L149.729 90.6889C150.382 92.5312 150.274 94.5567 149.43 96.3197C148.586 98.0828 147.075 99.439 145.229 100.09L66.6617 127.814C64.8162 128.465 62.7871 128.358 61.0208 127.516C59.2545 126.674 57.8956 125.166 57.2429 123.324L57.1719 123.124L149.658 90.4883Z" fill="#F2F2F2"/>
<path d="M61.893 84.2643C56.7111 87.6673 50.0697 85.1063 47.7471 81.3759L48.1174 81.1658C52.5289 78.4214 59.0804 79.9505 61.893 84.2643Z" fill="#4B7BE5"/>
<path opacity="0.2" d="M126.83 93.9201C125.562 94.3677 124.42 94.3471 123.436 93.8591C121.211 92.7559 120.167 89.4847 119.328 86.8562C119.084 86.0915 118.854 85.3692 118.619 84.7788L118.616 84.7699C118.207 83.5987 118.278 82.314 118.813 81.1949C119.349 80.0758 120.305 79.2126 121.474 78.7929L131.989 75.0824C133.256 74.6354 134.397 74.6558 135.38 75.143C137.604 76.2449 138.649 79.5149 139.489 82.1424C139.733 82.9087 139.965 83.6324 140.2 84.2237C140.611 85.3959 140.541 86.6827 140.006 87.8039C139.471 88.925 138.514 89.79 137.343 90.2105L126.83 93.9201ZM119.056 84.6109C119.296 85.2154 119.529 85.9435 119.775 86.7143C120.587 89.2587 121.597 92.4253 123.644 93.4404C124.523 93.876 125.514 93.8887 126.674 93.4793L137.186 89.7699C138.239 89.3921 139.101 88.6148 139.583 87.607C140.065 86.5992 140.129 85.4422 139.762 84.3874C139.523 83.79 139.29 83.0587 139.042 82.2845C138.23 79.741 137.218 76.5755 135.172 75.5618C134.294 75.127 133.304 75.1144 132.145 75.5232L121.631 79.2335C120.579 79.6113 119.719 80.3877 119.237 81.3944C118.755 82.4011 118.69 83.5568 119.056 84.6109Z" fill="#212121"/>
<path d="M59.7134 85.4899C57.8656 86.1294 55.8751 86.2386 53.9683 85.8051C51.1835 85.1948 48.6562 83.5354 47.3728 81.4747L47.2441 81.2681L47.8221 80.9402C52.3 78.1565 59.0148 79.6656 61.9131 84.1099L62.0402 84.3048L61.8456 84.4327C61.1804 84.87 60.4644 85.225 59.7134 85.4899ZM47.9031 81.4321C49.1592 83.2947 51.4964 84.7847 54.0688 85.3485C56.5693 85.9314 59.1992 85.5078 61.3891 84.1694C58.5539 80.0765 52.2726 78.7188 48.066 81.3395L47.9031 81.4321Z" fill="#4B7BE5"/>
<path opacity="0.2" d="M62.4601 112.7C61.8036 112.959 61.0888 113.035 60.3923 112.92C59.6958 112.804 59.0439 112.502 58.5066 112.045C57.8778 111.496 57.401 110.795 57.1224 110.009C56.8437 109.223 56.7726 108.379 56.9157 107.558C57.0487 106.851 57.3751 106.195 57.8587 105.662C58.3423 105.13 58.9643 104.741 59.6558 104.539L73.6665 99.5951C74.3314 99.3201 75.0595 99.2336 75.7705 99.3453C76.4816 99.4569 77.1479 99.7624 77.696 100.228C78.3246 100.777 78.8009 101.478 79.0792 102.264C79.3575 103.049 79.4283 103.893 79.2849 104.714C79.0083 106.157 78.0322 107.22 76.5443 107.729L62.5333 112.673C62.5089 112.682 62.4844 112.691 62.4601 112.7ZM59.7429 105.004C59.1451 105.188 58.6089 105.531 58.1918 105.997C57.7748 106.462 57.4927 107.032 57.3759 107.646C57.2469 108.386 57.3111 109.146 57.5621 109.854C57.8132 110.562 58.2426 111.193 58.8092 111.687C59.2949 112.098 59.885 112.367 60.5142 112.463C61.1434 112.559 61.7871 112.48 62.3738 112.234L76.3914 107.287C77.0035 107.111 77.5549 106.769 77.9843 106.3C78.4138 105.83 78.7047 105.251 78.8248 104.627C78.954 103.887 78.8902 103.126 78.6394 102.418C78.3887 101.711 77.9595 101.079 77.3932 100.585C76.9068 100.174 76.3164 99.9059 75.687 99.8089C75.0576 99.7118 74.4135 99.79 73.8258 100.035L59.8073 104.982C59.7858 104.989 59.7642 104.996 59.7429 105.004L59.7429 105.004Z" fill="#212121"/>
<path d="M126.924 82.765L122.507 84.3236C122.214 84.4269 121.892 84.4099 121.612 84.2763C121.331 84.1427 121.116 83.9035 121.012 83.6112C120.909 83.3189 120.926 82.9976 121.06 82.7178C121.194 82.4381 121.433 82.2229 121.726 82.1195L126.143 80.561C126.436 80.4577 126.758 80.4747 127.038 80.6083C127.318 80.7419 127.534 80.9811 127.637 81.2734C127.741 81.5657 127.724 81.887 127.59 82.1668C127.456 82.4465 127.216 82.6617 126.924 82.765Z" fill="#4B7BE5"/>
<path d="M128.173 86.2934L123.756 87.8519C123.463 87.9552 123.141 87.9382 122.861 87.8046C122.58 87.671 122.365 87.4318 122.261 87.1395C122.158 86.8472 122.175 86.5259 122.309 86.2461C122.443 85.9664 122.682 85.7512 122.975 85.6478L127.392 84.0893C127.685 83.986 128.007 84.003 128.287 84.1366C128.567 84.2702 128.783 84.5094 128.886 84.8017C128.99 85.094 128.973 85.4153 128.839 85.6951C128.705 85.9748 128.465 86.19 128.173 86.2934Z" fill="#4B7BE5"/>
<path d="M129.422 89.8188L125.005 91.3773C124.86 91.4285 124.706 91.4506 124.553 91.4425C124.399 91.4344 124.249 91.3962 124.11 91.33C123.971 91.2639 123.847 91.1711 123.744 91.057C123.641 90.9428 123.562 90.8096 123.51 90.6649C123.459 90.5202 123.437 90.3668 123.445 90.2135C123.453 90.0602 123.491 89.91 123.558 89.7715C123.624 89.633 123.717 89.5089 123.831 89.4062C123.946 89.3036 124.079 89.2244 124.224 89.1732L128.641 87.6147C128.786 87.5635 128.94 87.5414 129.093 87.5495C129.247 87.5576 129.397 87.5958 129.536 87.662C129.675 87.7281 129.799 87.8209 129.902 87.935C130.005 88.0491 130.084 88.1824 130.135 88.3271C130.187 88.4718 130.209 88.6252 130.201 88.7785C130.193 88.9318 130.154 89.0819 130.088 89.2205C130.022 89.359 129.929 89.4831 129.814 89.5858C129.7 89.6884 129.567 89.7676 129.422 89.8188Z" fill="#4B7BE5"/>
<path d="M134.653 80.0385L130.236 81.597C130.091 81.6482 129.938 81.6703 129.784 81.6622C129.631 81.6541 129.48 81.6159 129.341 81.5498C129.202 81.4836 129.078 81.3908 128.975 81.2767C128.872 81.1626 128.793 81.0293 128.742 80.8846C128.691 80.7399 128.668 80.5865 128.676 80.4332C128.685 80.2799 128.723 80.1298 128.789 79.9912C128.855 79.8527 128.948 79.7286 129.063 79.626C129.177 79.5233 129.311 79.4441 129.456 79.393L133.872 77.8344C134.165 77.7311 134.487 77.7481 134.767 77.8817C135.048 78.0153 135.263 78.2545 135.367 78.5468C135.47 78.8391 135.453 79.1605 135.32 79.4402C135.186 79.7199 134.946 79.9351 134.653 80.0385Z" fill="#4B7BE5"/>
<path d="M135.902 83.5648L131.485 85.1234C131.34 85.1746 131.187 85.1967 131.033 85.1886C130.88 85.1805 130.729 85.1423 130.59 85.0761C130.451 85.01 130.327 84.9172 130.224 84.8031C130.121 84.6889 130.042 84.5557 129.991 84.411C129.94 84.2663 129.917 84.1129 129.925 83.9596C129.934 83.8063 129.972 83.6561 130.038 83.5176C130.104 83.3791 130.197 83.255 130.312 83.1523C130.426 83.0497 130.56 82.9705 130.705 82.9193L135.121 81.3608C135.266 81.3096 135.42 81.2875 135.574 81.2956C135.727 81.3037 135.878 81.3419 136.016 81.4081C136.155 81.4742 136.28 81.567 136.382 81.6811C136.485 81.7952 136.565 81.9285 136.616 82.0732C136.667 82.2179 136.689 82.3713 136.681 82.5246C136.673 82.6779 136.635 82.828 136.569 82.9666C136.502 83.1051 136.409 83.2292 136.295 83.3319C136.181 83.4345 136.047 83.5137 135.902 83.5648Z" fill="#4B7BE5"/>
<path d="M137.15 87.0922L132.733 88.6507C132.441 88.7541 132.119 88.7371 131.838 88.6035C131.558 88.4699 131.342 88.2306 131.239 87.9383C131.135 87.6461 131.152 87.3247 131.286 87.045C131.42 86.7652 131.66 86.55 131.953 86.4467L136.369 84.8881C136.514 84.837 136.668 84.8148 136.822 84.8229C136.975 84.831 137.126 84.8693 137.264 84.9354C137.403 85.0016 137.528 85.0943 137.63 85.2085C137.733 85.3226 137.813 85.4558 137.864 85.6005C137.915 85.7453 137.937 85.8986 137.929 86.0519C137.921 86.2052 137.883 86.3554 137.817 86.4939C137.75 86.6324 137.657 86.7566 137.543 86.8592C137.429 86.9619 137.295 87.041 137.15 87.0922Z" fill="#4B7BE5"/>
<path opacity="0.2" d="M139.154 60.831L46.667 93.4668L46.8232 93.9076L139.31 61.2718L139.154 60.831Z" fill="#212121"/>
<path opacity="0.2" d="M144.949 100.333L66.7725 127.919C64.8396 128.598 62.7155 128.485 60.8663 127.604C59.017 126.722 57.5936 125.145 56.9083 123.217L43.4787 85.3073C42.7978 83.3781 42.9114 81.2582 43.7946 79.4125C44.6777 77.5669 46.2584 76.1463 48.1897 75.4623L126.366 47.8763C128.299 47.1967 130.423 47.3101 132.272 48.1915C134.121 49.073 135.545 50.6505 136.23 52.5781L149.66 90.4879C150.341 92.417 150.227 94.5369 149.344 96.3826C148.461 98.2282 146.88 99.6489 144.949 100.333ZM48.3459 75.9031C46.5316 76.5456 45.0468 77.8802 44.2171 79.6139C43.3875 81.3477 43.2808 83.3392 43.9204 85.1514L57.35 123.061C57.9937 124.872 59.3309 126.354 61.0681 127.182C62.8053 128.01 64.8006 128.116 66.6163 127.478L144.792 99.892C146.607 99.2495 148.092 97.915 148.921 96.1812C149.751 94.4474 149.858 92.456 149.218 90.6437L135.788 52.734C135.145 50.9232 133.807 49.4413 132.07 48.6132C130.333 47.7852 128.338 47.6787 126.522 48.3171L48.3459 75.9031Z" fill="#212121"/>
</svg>
