<svg width="100" height="100" viewBox="0 0 100 100" fill="none" xmlns="http://www.w3.org/2000/svg">
<path d="M50.2227 0C38.6824 0.00548371 27.4957 3.95891 18.5427 11.1959C9.58963 18.4328 3.41592 28.5122 1.05909 39.7401C-1.29775 50.968 0.305955 62.66 5.60068 72.8512C10.8954 83.0423 19.5584 91.1115 30.1338 95.7026C29.9168 91.8373 30.2078 87.9604 30.9993 84.1699C32.0383 80.047 37.4103 56.9741 37.4103 56.9741C36.3596 54.466 35.8292 51.773 35.8509 49.0563C35.8509 41.6539 40.1877 36.1462 45.5503 36.1462C50.053 36.1462 52.3044 39.5887 52.3044 43.7191C52.3044 48.1943 49.361 55.0794 47.8016 61.4473C47.4968 62.6244 47.4758 63.8564 47.7401 65.0431C48.0045 66.2298 48.5468 67.3378 49.323 68.2771C50.0991 69.2163 51.0873 69.9603 52.2072 70.4486C53.3271 70.9369 54.5472 71.1557 55.7682 71.0873C65.2941 71.0873 71.7012 58.8668 71.7012 44.5793C71.7012 33.5638 64.2532 25.4642 50.745 25.4642C47.517 25.3415 44.2975 25.8716 41.2817 27.0223C38.266 28.1731 35.5168 29.9205 33.2008 32.1587C30.8848 34.397 29.0502 37.0793 27.8084 40.0432C26.5665 43.007 25.9432 46.1907 25.9762 49.4011C25.8044 52.9672 26.9785 56.4685 29.2684 59.2191C29.659 59.5488 29.9358 59.9919 30.0599 60.486C30.184 60.9801 30.1492 61.5005 29.9604 61.9739C29.7869 62.8341 29.0949 65.0717 28.9214 65.9319C28.8669 66.204 28.7487 66.4596 28.5764 66.6779C28.404 66.8963 28.1824 67.0712 27.9294 67.1885C27.6764 67.3058 27.3991 67.3623 27.12 67.3533C26.841 67.3444 26.568 67.2702 26.3231 67.1369C19.2221 64.204 16.1109 56.6292 16.1109 48.0237C16.1109 33.9086 28.0559 16.8662 51.9555 16.8662C71.1883 16.8662 83.8217 30.6365 83.8217 45.4394C83.8217 65.0623 72.9099 79.6928 56.8033 79.6928C51.4351 79.6928 46.2441 76.7675 44.5075 73.4954C44.5075 73.4954 41.5642 85.0282 41.0437 87.2658C39.9 91.047 38.2079 94.6423 36.0206 97.9383C40.6258 99.3205 45.4121 100.015 50.2227 99.9997C63.4728 99.8601 76.1325 94.5308 85.4524 85.1692C94.7724 75.8075 100 63.1696 100 49.9999C100 36.8302 94.7724 24.1922 85.4524 14.8306C76.1325 5.46897 63.4728 0.139644 50.2227 0" fill="#CB1F24"/>
</svg>