<svg width="100" height="100" viewBox="0 0 100 100" fill="none" xmlns="http://www.w3.org/2000/svg">
<path d="M50 100C77.6142 100 100 77.6142 100 50C100 22.3858 77.6142 0 50 0C22.3858 0 0 22.3858 0 50C0 77.6142 22.3858 100 50 100Z" fill="#55ACEE"/>
<path d="M81.4271 35.5633C79.1884 36.553 76.8139 37.2013 74.3829 37.4864C76.9405 35.952 78.854 33.5411 79.7675 30.7018C77.3599 32.1302 74.7258 33.1364 71.979 33.6768C70.13 31.7095 67.684 30.4068 65.0197 29.9702C62.3555 29.5336 59.6216 29.9875 57.2414 31.2617C54.8612 32.5359 52.9675 34.5593 51.8534 37.0185C50.7394 39.4778 50.4672 42.2357 51.079 44.8652C46.2018 44.6217 41.4304 43.3547 37.0749 41.1464C32.7194 38.9382 28.8773 35.8382 25.7983 32.0479C24.23 34.7482 23.7494 37.9444 24.4543 40.9864C25.1591 44.0284 26.9965 46.6876 29.5925 48.4229C27.6441 48.3621 25.7388 47.8345 24.0367 46.8845C24.0367 46.9364 24.0367 46.9883 24.0367 47.0402C24.0377 49.8719 25.0178 52.6162 26.8109 54.8078C28.604 56.9994 31.0998 58.5035 33.8752 59.0652C32.0691 59.5559 30.1749 59.6283 28.3367 59.2768C29.1204 61.7136 30.6461 63.8446 32.7005 65.3718C34.7548 66.8989 37.2351 67.7458 39.7944 67.7941C34.6485 71.8155 28.1222 73.641 21.6367 72.8729C27.2472 76.4861 33.7808 78.4044 40.454 78.3979C63.0136 78.3979 75.3502 59.7095 75.3502 43.4999C75.3502 42.9691 75.3386 42.4383 75.3136 41.9133C77.7157 40.1794 79.7887 38.0302 81.4348 35.5672L81.4271 35.5633Z" fill="white"/>
</svg>
