<svg width="100" height="100" viewBox="0 0 100 100" fill="none" xmlns="http://www.w3.org/2000/svg">
<path d="M100 0H0V100H100V0Z" fill="#1BD741"/>
<path d="M14.9727 85.7006L19.9727 67.9602C15.6027 60.5198 14.0837 51.7455 15.6981 43.2691C17.3125 34.7926 21.9505 27.191 28.7495 21.8778C35.5485 16.5646 44.0458 13.9015 52.6611 14.3838C61.2765 14.8661 69.4234 18.4609 75.587 24.4996C81.7506 30.5384 85.5112 38.6102 86.1695 47.2139C86.8278 55.8175 84.3391 64.3675 79.166 71.2737C73.993 78.18 66.4877 82.9724 58.0461 84.7598C49.6044 86.5472 40.8009 85.2079 33.2727 80.991L14.9727 85.7006ZM34.2034 74.5122L35.2938 75.1776C41.4959 78.9549 48.8712 80.3177 56.0137 79.0062C63.1561 77.6947 69.5661 73.8005 74.0216 68.0662C78.4771 62.3318 80.6665 55.1583 80.1724 47.9133C79.6783 40.6683 76.5353 33.8584 71.3424 28.7821C66.1496 23.7058 59.2703 20.718 52.0159 20.3883C44.7615 20.0586 37.6396 22.4102 32.0077 26.9946C26.3759 31.579 22.6281 38.0757 21.4789 45.246C20.3297 52.4164 21.8595 59.7589 25.7765 65.8737L26.5111 67.016L23.6265 77.2333L34.2034 74.5122Z" fill="white"/>
<path d="M40.678 33.3383L38.3703 33.2114C37.645 33.1709 36.9325 33.4143 36.3838 33.8902C34.7126 35.2615 33.504 37.114 32.9222 39.196C32.1011 42.8498 33.3703 47.3268 36.6511 51.8018C41.5077 58.8648 48.6375 64.0507 56.853 66.496C58.2336 66.95 59.6975 67.0928 61.1398 66.9143C62.5821 66.7357 63.9671 66.2402 65.1953 65.4633C66.0224 64.9273 66.7351 64.2328 67.2923 63.4198C67.8494 62.6068 68.24 61.6915 68.4415 60.7268L68.8107 58.996C68.8695 58.7289 68.8352 58.4498 68.7135 58.2049C68.5917 57.96 68.3899 57.7642 68.1414 57.6499L60.3299 54.0499C60.0836 53.9363 59.8061 53.9096 59.5427 53.9743C59.2793 54.0389 59.0457 54.191 58.8799 54.4056L55.8222 58.396C55.7098 58.5428 55.5538 58.6503 55.3767 58.7031C55.1995 58.756 55.0101 58.7515 54.8357 58.6902C49.2864 56.7043 44.6614 52.7466 41.8414 47.571C41.759 47.414 41.7256 47.2359 41.7455 47.0597C41.7654 46.8834 41.8377 46.7173 41.953 46.5825L44.8838 43.1922C45.0301 43.0222 45.1258 42.8145 45.1598 42.5928C45.1938 42.3711 45.1648 42.1443 45.0761 41.9383L41.7088 34.0537C41.6199 33.8508 41.4765 33.6766 41.2945 33.5503C41.1125 33.424 40.8991 33.3506 40.678 33.3383Z" fill="white"/>
</svg>
