<svg width="100" height="100" viewBox="0 0 100 100" fill="none" xmlns="http://www.w3.org/2000/svg">
<rect width="100" height="100" rx="50" fill="#F44336"/>
<path d="M75.7538 40.3541C75.7541 39.3578 75.5581 38.3712 75.1771 37.4507C74.7961 36.5302 74.2375 35.6937 73.5332 34.989C72.8289 34.2844 71.9927 33.7253 71.0723 33.3439C70.152 32.9624 69.1655 32.7659 68.1692 32.7656H32.5923C31.5954 32.7649 30.6081 32.9606 29.6868 33.3416C28.7656 33.7227 27.9285 34.2816 27.2234 34.9863C26.5183 35.6911 25.959 36.5279 25.5775 37.4489C25.196 38.37 24.9997 39.3572 25 40.3541V60.7041C24.9995 62.7158 25.798 64.6454 27.22 66.0685C28.642 67.4915 30.571 68.2915 32.5827 68.2925H68.1692C69.1655 68.2923 70.152 68.0958 71.0723 67.7143C71.9927 67.3328 72.8289 66.7738 73.5332 66.0691C74.2375 65.3645 74.7961 64.528 75.1771 63.6075C75.5581 62.6869 75.7541 61.7004 75.7538 60.7041V40.3541ZM45.2981 59.1137V40.0002L59.7923 49.5579L45.2981 59.1137Z" fill="white"/>
</svg>