<svg width="74" height="74" viewBox="0 0 74 74" fill="none" xmlns="http://www.w3.org/2000/svg">
<g filter="url(#filter0_d_10506_42181)">
<rect x="15" y="11" width="44" height="44" rx="6" fill="white"/>
<rect x="15.5" y="11.5" width="43" height="43" rx="5.5" stroke="#212121" stroke-opacity="0.2"/>
</g>
<path d="M50.914 30.4215C50.8244 30.5559 50.681 30.6289 50.5358 30.6289C50.4437 30.6289 50.3495 30.6 50.2688 30.5383L48.2088 28.9907H48.1965V29.2124V40.6636C48.1965 40.808 48.0846 40.9249 47.9485 40.9249H39.8456V35.0508C39.8456 34.0303 39.0664 33.2049 38.1063 33.2049H37.1241C36.1633 33.2049 35.3845 34.0303 35.3845 35.0508V36.0674H33.7538L33.348 34.2721C33.2186 33.7015 32.8801 33.2354 32.4319 32.951V30.6328C32.5312 30.5792 32.623 30.5111 32.6997 30.4215C32.8749 30.2186 32.9609 29.946 32.9376 29.6717C32.9012 29.2416 32.6169 28.6051 31.8652 28.2669L40.0896 22.0896C40.0917 22.088 40.0939 22.0873 40.096 22.086C40.1144 22.0724 40.1348 22.061 40.1544 22.0506C40.1621 22.0464 40.1706 22.0422 40.1783 22.038C40.196 22.0305 40.2147 22.0247 40.2333 22.0198C40.2443 22.0162 40.2556 22.0123 40.2657 22.0101C40.2822 22.0068 40.2981 22.0042 40.3146 22.0039C40.3284 22.0019 40.3419 22 40.3559 22C40.3703 22 40.3841 22.0019 40.3984 22.0039C40.4143 22.0042 40.4302 22.0065 40.4461 22.0101C40.4581 22.012 40.4688 22.0166 40.4798 22.0198C40.4978 22.0253 40.5159 22.0302 40.5342 22.038C40.5415 22.0422 40.5507 22.0464 40.559 22.0513C40.5788 22.0613 40.5984 22.0724 40.6165 22.0854C40.6189 22.087 40.6217 22.0876 40.6229 22.0896L44.2088 24.7834L44.9525 25.3413V23.6457C44.9525 23.1951 45.2968 22.83 45.7206 22.83H47.4275C47.851 22.83 48.1962 23.1951 48.1962 23.6457V27.7761L48.3457 27.89L50.8036 29.7356C51.0122 29.8927 51.062 30.1995 50.914 30.4215ZM45.5952 34.0877C45.5952 33.7291 45.32 33.4379 44.983 33.4379H42.5881C42.2506 33.4379 41.9757 33.7287 41.9757 34.0877V36.629C41.9757 36.9873 42.2503 37.2788 42.5881 37.2788H44.983C45.32 37.2788 45.5952 36.9876 45.5952 36.629V34.0877Z" fill="#4B7BE5"/>
<path d="M29.261 40.671H25.154C24.6559 40.671 24.2217 40.3088 24.1058 39.794L23.0301 35.0368C22.8909 34.4223 23.2478 33.805 23.8269 33.6566C23.912 33.6362 23.9964 33.6287 24.0811 33.629L24.0786 33.619H31.4024V33.6287C31.8902 33.6293 32.3317 33.9773 32.4503 34.5018L32.9531 36.7217H31.5361H31.3569H29.1308H28.8225V37.0489V37.7289H26.4909L25.3066 35.299L26.0038 38.382H29.261C29.8561 38.382 30.3389 38.8945 30.3389 39.5262C30.3386 40.1585 29.8561 40.671 29.261 40.671ZM28.0351 33.2645C29.4047 33.2645 30.5141 32.0866 30.5141 30.6327V29.7609H32.0186C32.0186 29.7609 31.9553 29.0176 30.6823 29.0176C30.6257 29.0176 30.5695 29.0176 30.5138 29.0176V28.5424C30.5138 28.0808 30.1613 27.7066 29.7261 27.7066H26.3432C25.9084 27.7066 25.5555 28.0808 25.5555 28.5424V30.6327C25.5558 32.0866 26.6655 33.2645 28.0351 33.2645ZM29.1298 41.8408H28.8216V41.5133V41.3247H25.7491L25.9268 42.1453V44H31.4024V41.8408H31.3563H29.1298ZM36.6952 38.3943V40.6593C37.2377 40.6002 37.663 40.1182 37.663 39.5268C37.6624 38.9351 37.2371 38.4541 36.6952 38.3943ZM31.5351 37.0492H31.3559H29.1298V37.7286H29.261C30.1949 37.7286 30.9554 38.5349 30.9554 39.5265C30.9554 40.5184 30.1949 41.3247 29.261 41.3247H29.1298V41.5136H31.3559H31.4021H31.5351H36.387V40.6704V38.382V37.0486H33.0267L31.5351 37.0492Z" fill="#060B29"/>
<defs>
<filter id="filter0_d_10506_42181" x="0" y="0" width="74" height="74" filterUnits="userSpaceOnUse" color-interpolation-filters="sRGB">
<feFlood flood-opacity="0" result="BackgroundImageFix"/>
<feColorMatrix in="SourceAlpha" type="matrix" values="0 0 0 0 0 0 0 0 0 0 0 0 0 0 0 0 0 0 127 0" result="hardAlpha"/>
<feOffset dy="4"/>
<feGaussianBlur stdDeviation="7.5"/>
<feComposite in2="hardAlpha" operator="out"/>
<feColorMatrix type="matrix" values="0 0 0 0 0 0 0 0 0 0 0 0 0 0 0 0 0 0 0.08 0"/>
<feBlend mode="normal" in2="BackgroundImageFix" result="effect1_dropShadow_10506_42181"/>
<feBlend mode="normal" in="SourceGraphic" in2="effect1_dropShadow_10506_42181" result="shape"/>
</filter>
</defs>
</svg>
