<svg width="74" height="74" viewBox="0 0 74 74" fill="none" xmlns="http://www.w3.org/2000/svg">
<g filter="url(#filter0_d_10238_42259)">
<rect x="15" y="11" width="44" height="44" rx="6" fill="white"/>
<rect x="15.5" y="11.5" width="43" height="43" rx="5.5" stroke="#212121" stroke-opacity="0.2"/>
</g>
<path d="M27.5237 33.761H38.1377C38.4277 33.761 38.7177 33.4986 38.7177 33.2363V25.5246C38.7177 25.2623 38.4277 25 38.1377 25H36.5717V28.7772C36.5717 29.3542 36.2237 29.8789 35.6437 30.1412C35.4117 30.2461 35.1217 30.351 34.8317 30.351C34.4837 30.351 34.1357 30.2461 33.9037 30.0887L32.8017 29.4592L31.7577 30.0887C31.4677 30.2461 31.1197 30.351 30.7717 30.351C30.4817 30.351 30.1917 30.2985 29.9597 30.1936C29.3797 29.9313 29.0317 29.4067 29.0317 28.7772V25H27.4657C27.1757 25 26.8857 25.2623 26.8857 25.5246V33.2363C26.9437 33.4986 27.1757 33.761 27.5237 33.761Z" fill="#4B7BE5"/>
<path d="M30.4818 29.2493C30.6558 29.3542 30.8878 29.3542 31.0618 29.2493L32.7438 28.2001L34.4258 29.2493C34.5418 29.3018 34.6578 29.3542 34.7738 29.3542C34.8898 29.3542 34.9478 29.3542 35.0638 29.3018C35.2378 29.1969 35.3538 29.0395 35.3538 28.8296V25H30.1338V28.7772C30.1918 28.987 30.3078 29.1444 30.4818 29.2493Z" fill="#060B29"/>
<path d="M47.0123 41C48.4538 41 49.6223 39.9431 49.6223 38.6393C49.6223 37.3355 48.4538 36.2785 47.0123 36.2785C45.5709 36.2785 44.4023 37.3355 44.4023 38.6393C44.4023 39.9431 45.5709 41 47.0123 41Z" fill="#060B29"/>
<path d="M51.826 31.6629L47.186 27.4661C47.07 27.3612 46.954 27.3087 46.78 27.3087H42.604C42.256 27.3087 42.024 27.5185 42.024 27.8333V34.286H23.58C23.232 34.286 23 34.4958 23 34.8106V38.6402C23 38.955 23.232 39.1648 23.58 39.1648H24.798C24.74 38.955 24.74 38.7976 24.74 38.5878C24.74 36.6992 26.422 35.1778 28.51 35.1778C30.598 35.1778 32.28 36.6992 32.28 38.5878C32.28 38.7452 32.28 38.955 32.222 39.1124H42.604H43.3C43.242 38.955 43.242 38.7452 43.242 38.5878C43.242 36.6992 44.924 35.1778 47.012 35.1778C49.1 35.1778 50.782 36.6992 50.782 38.5878C50.782 38.7452 50.782 38.955 50.724 39.1124H51.42C51.768 39.1124 52 38.9025 52 38.5878V32.0302C52 31.8728 51.942 31.7154 51.826 31.6629Z" fill="#060B29"/>
<path d="M28.5084 41C29.9499 41 31.1184 39.9431 31.1184 38.6393C31.1184 37.3355 29.9499 36.2785 28.5084 36.2785C27.067 36.2785 25.8984 37.3355 25.8984 38.6393C25.8984 39.9431 27.067 41 28.5084 41Z" fill="#060B29"/>
<defs>
<filter id="filter0_d_10238_42259" x="0" y="0" width="74" height="74" filterUnits="userSpaceOnUse" color-interpolation-filters="sRGB">
<feFlood flood-opacity="0" result="BackgroundImageFix"/>
<feColorMatrix in="SourceAlpha" type="matrix" values="0 0 0 0 0 0 0 0 0 0 0 0 0 0 0 0 0 0 127 0" result="hardAlpha"/>
<feOffset dy="4"/>
<feGaussianBlur stdDeviation="7.5"/>
<feComposite in2="hardAlpha" operator="out"/>
<feColorMatrix type="matrix" values="0 0 0 0 0 0 0 0 0 0 0 0 0 0 0 0 0 0 0.08 0"/>
<feBlend mode="normal" in2="BackgroundImageFix" result="effect1_dropShadow_10238_42259"/>
<feBlend mode="normal" in="SourceGraphic" in2="effect1_dropShadow_10238_42259" result="shape"/>
</filter>
</defs>
</svg>
