<svg width="18" height="18" viewBox="0 0 18 18" fill="none" xmlns="http://www.w3.org/2000/svg">
<circle cx="9" cy="9" r="9" fill="#4B7BE5"/>
<path d="M9.80797 9L12.8326 12.0246C13.0558 12.2478 13.0558 12.6094 12.8326 12.8326C12.6094 13.0558 12.2478 13.0558 12.0246 12.8326L9 9.80797L5.97538 12.8326C5.75216 13.0558 5.39063 13.0558 5.16741 12.8326C4.9442 12.6094 4.9442 12.2478 5.16741 12.0246L8.19204 9L5.16741 5.97538C4.9442 5.75216 4.9442 5.39063 5.16741 5.16741C5.39063 4.9442 5.75216 4.9442 5.97538 5.16741L9 8.19203L12.0246 5.16741C12.2478 4.9442 12.6094 4.9442 12.8326 5.16741C13.0558 5.39063 13.0558 5.75216 12.8326 5.97538L9.80797 9Z" fill="white"/>
</svg>
