<svg width="61" height="50" viewBox="0 0 61 50" fill="none" xmlns="http://www.w3.org/2000/svg">
<path d="M47.2593 6.73918H27.2135C26.0954 6.73918 25.189 7.6261 25.189 8.72017V13.7996C25.189 14.8937 26.0954 15.7806 27.2135 15.7806H47.2593C48.3775 15.7806 49.2839 14.8937 49.2839 13.7996V8.72017C49.2839 7.6261 48.3775 6.73918 47.2593 6.73918Z" fill="white" stroke="#E1E4E5" stroke-width="0.5"/>
<path d="M46.2803 9.55338H33.8174C33.5148 9.55338 33.2695 9.79338 33.2695 10.0894C33.2695 10.3855 33.5148 10.6255 33.8174 10.6255H46.2803C46.5828 10.6255 46.8281 10.3855 46.8281 10.0894C46.8281 9.79338 46.5828 9.55338 46.2803 9.55338Z" fill="#E1E4E5"/>
<path d="M41.4869 11.8315H33.8174C33.5148 11.8315 33.2695 12.0715 33.2695 12.3676C33.2695 12.6636 33.5148 12.9036 33.8174 12.9036H41.4869C41.7894 12.9036 42.0347 12.6636 42.0347 12.3676C42.0347 12.0715 41.7894 11.8315 41.4869 11.8315Z" fill="#E1E4E5"/>
<path fill-rule="evenodd" clip-rule="evenodd" d="M29.008 13.5392C27.7308 13.5392 26.6953 12.5116 26.6953 11.2444C26.6953 9.97706 27.7308 8.94952 29.008 8.94952C30.2851 8.94952 31.3207 9.97706 31.3207 11.2444C31.3207 12.5116 30.2851 13.5392 29.008 13.5392Z" fill="#4B7BE5"/>
<path d="M29.8232 10.862L28.8463 11.8819L28.2598 11.27" stroke="white" stroke-width="0.5" stroke-linecap="round" stroke-linejoin="round"/>
<path d="M50.0616 20.3319H30.0158C28.8976 20.3319 27.9912 21.2188 27.9912 22.3129V27.3923C27.9912 28.4864 28.8976 29.3733 30.0158 29.3733H50.0616C51.1797 29.3733 52.0861 28.4864 52.0861 27.3923V22.3129C52.0861 21.2188 51.1797 20.3319 50.0616 20.3319Z" fill="white" stroke="#E1E4E5" stroke-width="0.5"/>
<path d="M49.0815 23.1461H36.6186C36.3161 23.1461 36.0708 23.3861 36.0708 23.6822C36.0708 23.9782 36.3161 24.2182 36.6186 24.2182H49.0815C49.3841 24.2182 49.6294 23.9782 49.6294 23.6822C49.6294 23.3861 49.3841 23.1461 49.0815 23.1461Z" fill="#E1E4E5"/>
<path d="M44.2881 25.4243H36.6186C36.3161 25.4243 36.0708 25.6643 36.0708 25.9603C36.0708 26.2564 36.3161 26.4963 36.6186 26.4963H44.2881C44.5907 26.4963 44.836 26.2564 44.836 25.9603C44.836 25.6643 44.5907 25.4243 44.2881 25.4243Z" fill="#E1E4E5"/>
<path fill-rule="evenodd" clip-rule="evenodd" d="M31.8092 27.1319C30.532 27.1319 29.4966 26.1043 29.4966 24.8371C29.4966 23.5697 30.532 22.5422 31.8092 22.5422C33.0864 22.5422 34.122 23.5697 34.122 24.8371C34.122 26.1043 33.0864 27.1319 31.8092 27.1319Z" fill="#70372A"/>
<path d="M32.624 24.4547L31.6471 25.4746L31.0605 24.8627" stroke="white" stroke-width="0.5" stroke-linecap="round" stroke-linejoin="round"/>
<path d="M47.2593 33.9247H27.2135C26.0954 33.9247 25.189 34.8116 25.189 35.9057V40.9851C25.189 42.0792 26.0954 42.9661 27.2135 42.9661H47.2593C48.3775 42.9661 49.2839 42.0792 49.2839 40.9851V35.9057C49.2839 34.8116 48.3775 33.9247 47.2593 33.9247Z" fill="white" stroke="#E1E4E5" stroke-width="0.5"/>
<path d="M46.2803 36.7388H33.8174C33.5148 36.7388 33.2695 36.9788 33.2695 37.2749C33.2695 37.571 33.5148 37.811 33.8174 37.811H46.2803C46.5828 37.811 46.8281 37.571 46.8281 37.2749C46.8281 36.9788 46.5828 36.7388 46.2803 36.7388Z" fill="#E1E4E5"/>
<path d="M41.4869 39.017H33.8174C33.5148 39.017 33.2695 39.257 33.2695 39.553C33.2695 39.8491 33.5148 40.0891 33.8174 40.0891H41.4869C41.7894 40.0891 42.0347 39.8491 42.0347 39.553C42.0347 39.257 41.7894 39.017 41.4869 39.017Z" fill="#E1E4E5"/>
<path fill-rule="evenodd" clip-rule="evenodd" d="M29.008 40.7246C27.7308 40.7246 26.6953 39.6971 26.6953 38.4298C26.6953 37.1625 27.7308 36.135 29.008 36.135C30.2851 36.135 31.3207 37.1625 31.3207 38.4298C31.3207 39.6971 30.2851 40.7246 29.008 40.7246Z" fill="#4B7BE5"/>
<path d="M29.8232 38.0474L28.8463 39.0673L28.2598 38.4555" stroke="white" stroke-width="0.5" stroke-linecap="round" stroke-linejoin="round"/>
<path d="M13.3105 15.2435C13.2516 15.474 13.3298 15.7138 13.4587 15.9152C13.5498 16.0575 13.6772 15.9004 13.863 15.8752C14.1504 15.8358 14.3323 15.5381 14.3944 14.8131C14.4233 14.2835 14.4097 14.0192 14.3795 13.9729C14.2722 13.8074 13.9961 13.7521 13.7784 13.768" fill="#70372A"/>
<path fill-rule="evenodd" clip-rule="evenodd" d="M13.8329 46.7595C13.8329 46.7595 13.8154 47.8483 14.5023 48.2351C15.1892 48.622 16.2534 49.3407 16.2534 49.3407L12.2051 49.4742L12.3205 46.7497L13.8329 46.7595Z" fill="#F8AE9D"/>
<path fill-rule="evenodd" clip-rule="evenodd" d="M12.063 47.9593L11.9971 49.7259H12.9374L13.0019 49.4982C13.0019 49.4982 13.3559 49.4842 13.5604 49.5824C13.7767 49.6864 13.8057 49.7369 13.8057 49.7369L16.7883 49.7429C16.7883 49.7429 16.9353 49.172 16.0262 48.759C15.1171 48.3459 14.4551 47.7597 14.3294 47.6997C14.2027 47.6393 13.9471 47.6051 13.7671 47.7472C13.5873 47.8891 13.4448 48.2624 13.0371 48.2741C12.5122 48.2892 12.2108 47.6606 12.063 47.9593ZM10.9004 28.9877C10.9004 28.9877 12.0053 38.1614 12.0397 38.7991C12.074 39.4367 11.6848 40.5373 11.6924 41.7301C11.7 42.9231 11.8345 47.1272 11.8345 47.1272L14.2719 47.166C14.2719 47.166 15.2963 39.5689 15.3073 38.4296C15.3182 37.2903 15.4122 29.0973 15.4122 29.0973L10.9004 28.9877Z" fill="#70372A"/>
<path fill-rule="evenodd" clip-rule="evenodd" d="M7.91978 46.568L7.44482 49.3906L9.19584 49.382L9.25122 46.5237L7.91978 46.568Z" fill="#F8AE9D"/>
<path fill-rule="evenodd" clip-rule="evenodd" d="M7.67088 47.8017C7.6048 47.8157 7.5454 47.851 7.50211 47.9018C7.45882 47.9526 7.4341 48.0161 7.43188 48.0823L7.41569 48.5628C7.16596 48.8345 7.04904 49.6234 7.03831 49.6992C7.03765 49.7034 7.03745 49.7076 7.0377 49.7117C7.06665 50.0968 9.64683 50.0906 9.86407 49.726C9.87196 49.7127 9.87247 49.6973 9.86994 49.682C9.84574 49.5367 9.70342 48.7502 9.42626 48.5375L9.42444 48.0619C9.4242 47.9967 9.40207 47.9334 9.36146 47.8818C9.32086 47.8301 9.26402 47.7929 9.19971 47.776L8.87801 47.6914C8.62211 47.3251 8.27318 47.3381 7.97426 47.7372L7.67088 47.8017ZM8.77921 29.074C8.77921 29.074 7.99885 35.3329 8.00948 36.5315C8.02001 37.7302 8.24959 38.2566 7.92293 39.1164C7.59617 39.9763 7.3175 46.8393 7.3175 46.8393L9.73358 47.0362C9.73358 47.0362 11.277 39.6924 11.4448 38.6742C11.6128 37.6559 13.6871 28.9877 13.6871 28.9877L8.77921 29.074Z" fill="#70372A"/>
<path fill-rule="evenodd" clip-rule="evenodd" d="M20.8271 17.8205C20.8271 17.8205 20.6253 16.7206 20.6979 16.4978C20.7599 16.3053 21.3455 16.0277 21.3455 16.0277C21.3455 16.0277 22.3639 14.4535 22.5868 14.6137C22.7681 14.7437 22.0564 15.9043 22.0564 15.9043C22.0564 15.9043 22.7055 16.5705 22.6963 16.8684C22.6872 17.1662 21.6371 18.0986 21.6371 18.0986L20.8271 17.8205ZM10.3594 18.0789C10.3594 18.0789 11.0301 17.9249 11.0534 16.8495C11.0767 15.7741 11.0603 15.407 11.0603 15.407L12.6506 15.3809C12.6506 15.3809 12.6665 16.5794 12.6669 17.0129C12.6675 17.9567 13.3838 18.2117 13.3838 18.2117C13.3838 18.2117 13.3242 19.2437 11.9855 19.3174C10.9402 19.3749 10.3594 18.0789 10.3594 18.0789Z" fill="#F8AE9D"/>
<path fill-rule="evenodd" clip-rule="evenodd" d="M10.9136 14.8633C10.2544 14.8384 10.362 15.7825 11.0467 15.7812C11.0467 15.7812 11.7825 17.2289 12.9378 17.2327C13.4942 17.2346 13.6759 16.7495 13.8427 16.409C14.0096 16.0686 14.132 15.5592 14.1422 15.2474C14.1531 14.9149 14.1545 13.8226 14.1545 13.8226L10.8879 13.8212L10.9136 14.8633Z" fill="#F8AE9D"/>
<path fill-rule="evenodd" clip-rule="evenodd" d="M13.4082 18.1477C13.4082 18.1477 15.1213 18.671 15.5342 19.296C16.864 20.4392 18.5274 22.0091 18.5274 22.0091C18.5274 22.0091 20.1115 18.1189 20.6294 17.6753C20.9837 17.3718 21.6896 17.7471 21.8212 18.1327C21.9902 18.6281 20.9052 21.5335 20.3928 22.9056C20.2935 23.1715 20.2158 23.3798 20.1727 23.5019C19.8602 24.3889 19.1 24.8976 18.1748 24.3338C17.8019 24.1066 16.6921 23.3619 15.7453 22.6868C15.7305 23.396 15.7055 24.1434 15.6818 24.8531V24.8532C15.6243 26.5776 15.5741 28.0803 15.6946 28.2755C16.2918 29.2433 15.4978 29.9077 12.8689 30.1518C10.2401 30.3959 7.90784 30.196 8.33107 28.9045C8.41924 28.6352 8.41813 28.056 8.37419 27.3035C8.11664 27.2901 7.85926 27.2735 7.60213 27.2537C6.50503 27.1691 5.69359 26.7078 5.58042 25.5098C5.50116 24.6709 7.13456 20.7324 7.74709 19.4374C7.89033 19.1344 8.11181 18.9457 8.36286 18.8517C8.42126 18.7879 8.48706 18.7431 8.56096 18.7192C9.01091 18.5741 10.6241 17.911 10.6241 17.911L12.543 19.1395L13.4082 18.1477ZM8.19644 25.0806L8.19208 25.0915L8.19745 25.0921L8.19644 25.0806Z" fill="#4B7BE5"/>
<path fill-rule="evenodd" clip-rule="evenodd" d="M12.4548 26.1199C12.4548 26.1199 13.0401 26.0048 13.2797 25.8208C13.5191 25.6368 14.2446 25.5067 14.2446 25.5067L14.0125 25.9849C14.0125 25.9849 15.7904 25.8216 15.8325 25.9933C15.8748 26.1648 15.3604 26.3514 15.3604 26.3514C15.3604 26.3514 15.1068 26.815 14.8614 27.0836C14.6291 27.3379 13.4751 27.3076 13.0705 27.1489C12.7209 27.0119 12.3408 27.0804 12.3408 27.0804L12.4548 26.1199Z" fill="#F8AE9D"/>
<path d="M11.093 13.8657C11.1893 13.9891 11.3591 14.0162 11.499 14.0406C11.687 14.0734 11.7801 14.1417 11.8776 14.325C11.9395 14.442 12.0012 14.5703 12.1119 14.6337C12.202 14.6856 12.1992 14.5544 12.2126 14.4528C12.2138 14.4433 12.2157 14.4339 12.2183 14.4247C12.2397 14.3436 12.3277 14.3572 12.3533 14.4372C12.3767 14.5097 12.4268 14.571 12.4906 14.6052C12.501 14.6107 12.512 14.6156 12.5231 14.6135C12.5381 14.6114 12.5498 14.5975 12.5595 14.585C12.5799 14.5588 12.6 14.5257 12.6209 14.4908C12.6897 14.3749 12.821 14.4156 12.8978 14.5264C12.946 14.5954 13.0033 14.6665 13.0819 14.6825C13.1074 14.6881 13.1392 14.6839 13.151 14.6596C13.1659 14.6295 13.1425 14.5995 13.1464 14.5689C13.1497 14.5403 13.162 14.5278 13.1757 14.5034C13.2289 14.4094 13.3524 14.4059 13.4277 14.4842C13.4801 14.5388 13.5347 14.5912 13.5914 14.6414C13.6155 14.6623 13.6506 14.6832 13.6747 14.6623C13.6877 14.6511 13.6909 14.6323 13.6936 14.6142C13.7072 14.5257 13.7203 14.4372 13.734 14.3486C13.7417 14.2992 13.7684 14.2343 13.8139 14.2469C13.8361 14.2532 13.8491 14.2762 13.8614 14.2971C13.8764 14.3236 14.1438 14.6254 14.149 14.6024C14.1907 14.4309 14.2759 14.2748 14.3175 14.1034C14.5869 13.0001 13.3917 12.1129 12.4788 12.1081C12.2759 12.1067 12.0904 12.1099 11.8932 12.1566C11.6831 12.2068 11.4613 12.2864 11.2706 12.3987C11.0032 12.5555 10.8009 12.8405 10.8529 13.1807" fill="#70372A"/>
<path d="M11.8356 13.5091C11.9644 13.6531 11.9984 13.8558 12.0105 14.0472C12.0281 14.336 12.0041 14.636 11.869 14.8923C11.8306 14.9652 11.8022 15.3264 11.7429 15.3064C11.724 15.3001 11.7271 15.0201 11.6772 14.8692C11.6003 14.6354 11.2457 14.5461 11.086 14.6939C10.8311 14.9291 10.9807 15.2147 11.0652 15.3924C11.1157 15.4997 11.1958 15.62 11.2096 15.7336C11.2268 15.8789 11.2318 16.4083 11.1359 16.5318C11.0558 16.6353 10.9705 16.1352 10.898 16.0366C10.3611 15.3026 9.84612 13.4336 10.7629 13.0282C10.9024 12.9665 11.3327 12.9347 11.4633 13.0133" fill="#70372A"/>
<path d="M59.3584 16.8768C58.0459 18.1839 55.5917 17.9083 55.5917 17.9083C55.5917 17.9083 55.267 15.5136 56.5806 14.2073C57.893 12.9003 60.346 13.175 60.346 13.175C60.346 13.175 60.6708 15.5698 59.3584 16.8768Z" fill="#4B7BE5" fill-opacity="0.2"/>
<path d="M19.8196 42.72C19.3683 42.72 19.0025 43.078 19.0025 43.5196C19.0025 43.9611 19.3683 44.3191 19.8196 44.3191C20.2709 44.3191 20.6367 43.9611 20.6367 43.5196C20.6367 43.078 20.2709 42.72 19.8196 42.72Z" fill="#4B7BE5"/>
<path d="M0.607482 29.2723C0.272045 29.2723 0.000119805 29.0062 0.000119805 28.678C0.000119805 28.3498 0.272045 28.0837 0.607482 28.0837C0.942919 28.0837 1.21484 28.3498 1.21484 28.678C1.21484 29.0062 0.942919 29.2723 0.607482 29.2723Z" fill="#4B7BE5"/>
<path d="M24.8988 19.6498C24.5433 19.6498 24.2551 19.3678 24.2551 19.0199C24.2551 18.6721 24.5433 18.3901 24.8988 18.3901C25.2543 18.3901 25.5425 18.6721 25.5425 19.0199C25.5425 19.3678 25.2543 19.6498 24.8988 19.6498Z" fill="#4B7BE5"/>
<path d="M22.9607 28.0739C23.1123 28.6276 22.7765 29.1968 22.2106 29.3452C21.6446 29.4936 21.0629 29.165 20.9113 28.6112C20.7596 28.0575 21.0955 27.4883 21.6614 27.3399C22.2274 27.1915 22.8091 27.5201 22.9607 28.0739Z" fill="#4B7BE5" fill-opacity="0.2"/>
<path d="M6.6083 7.80985C6.03952 7.80985 5.57843 7.35867 5.57843 6.80212C5.57843 6.24556 6.03952 5.79439 6.6083 5.79439C7.17709 5.79439 7.63818 6.24556 7.63818 6.80212C7.63818 7.35867 7.17709 7.80985 6.6083 7.80985Z" fill="#4B7BE5" fill-opacity="0.2"/>
<path d="M52.044 3.88373H52.0645C52.1864 5.61165 53.4706 5.63829 53.4706 5.63829C53.4706 5.63829 52.0545 5.66593 52.0545 7.66267C52.0545 5.66593 50.6384 5.63829 50.6384 5.63829C50.6384 5.63829 51.9221 5.61165 52.044 3.88363V3.88373ZM25.5856 0H25.6071C25.7345 1.78566 27.0771 1.8131 27.0771 1.8131C27.0771 1.8131 25.5967 1.84173 25.5967 3.90503C25.5967 1.84173 24.1162 1.8131 24.1162 1.8131C24.1162 1.8131 25.4582 1.78566 25.5856 0Z" fill="#4B7BE5" fill-opacity="0.2"/>
</svg>
