<svg width="74" height="74" viewBox="0 0 74 74" fill="none" xmlns="http://www.w3.org/2000/svg">
<g filter="url(#filter0_d_10506_42180)">
<rect x="15" y="11" width="44" height="44" rx="6" fill="white"/>
<rect x="15.5" y="11.5" width="43" height="43" rx="5.5" stroke="#212121" stroke-opacity="0.2"/>
</g>
<path d="M48.2946 34.1627C47.98 33.9667 47.6074 33.8851 47.2396 33.9317C46.8718 33.9782 46.5314 34.1501 46.2755 34.4184L42.8424 37.653C42.9329 37.7126 43.0027 37.7988 43.0419 37.8998C43.0812 38.0007 43.0881 38.1114 43.0616 38.2165C42.946 38.6642 42.6849 39.0608 42.3195 39.3441C41.954 39.6274 41.5048 39.7813 41.0424 39.7816H36.4772C36.3388 39.7816 36.2061 39.7266 36.1083 39.6288C36.0104 39.531 35.9554 39.3983 35.9554 39.2599C35.9554 39.1215 36.0104 38.9888 36.1083 38.891C36.2061 38.7931 36.3388 38.7382 36.4772 38.7382H40.6511C40.9279 38.7382 41.1933 38.6283 41.389 38.4326C41.5847 38.2369 41.6946 37.9715 41.6946 37.6948C41.6946 37.418 41.5847 37.1526 41.389 36.9569C41.1933 36.7613 40.9279 36.6513 40.6511 36.6513C33.5711 36.6513 33.3467 36.4687 31.2598 37.3504V43.9553H39.4355C40.541 43.9548 41.6011 43.5158 42.3833 42.7345L48.5399 36.5783C48.7045 36.414 48.8304 36.2152 48.9086 35.9962C48.9867 35.7772 49.0151 35.5435 48.9916 35.3122C48.9681 35.0809 48.8934 34.8577 48.7728 34.6588C48.6522 34.46 48.4889 34.2905 48.2946 34.1627V34.1627Z" fill="#060B29"/>
<path d="M30.2174 36.1308H25V45H30.2174V36.1308Z" fill="#060B29"/>
<path d="M35.4336 29.8691H33.3467V30.9125H35.4336V29.8691Z" fill="#4B7BE5"/>
<path d="M43.262 21H40.1316V24.1303C40.1316 24.407 40.0216 24.6724 39.826 24.8681C39.6303 25.0638 39.3649 25.1737 39.0881 25.1737H34.9142C34.6374 25.1737 34.372 25.0638 34.1763 24.8681C33.9806 24.6724 33.8707 24.407 33.8707 24.1303V21H30.7402V33.5212H43.262V21ZM36.4794 31.4343C36.4794 31.5727 36.4244 31.7054 36.3266 31.8032C36.2287 31.9011 36.096 31.956 35.9577 31.956H32.8272C32.6888 31.956 32.5561 31.9011 32.4583 31.8032C32.3604 31.7054 32.3055 31.5727 32.3055 31.4343V29.3475C32.3055 29.2091 32.3604 29.0764 32.4583 28.9785C32.5561 28.8807 32.6888 28.8257 32.8272 28.8257H35.9577C36.096 28.8257 36.2287 28.8807 36.3266 28.9785C36.4244 29.0764 36.4794 29.2091 36.4794 29.3475V31.4343Z" fill="#060B29"/>
<path d="M39.087 21H34.9131V24.1303H39.087V21Z" fill="#4B7BE5"/>
<defs>
<filter id="filter0_d_10506_42180" x="0" y="0" width="74" height="74" filterUnits="userSpaceOnUse" color-interpolation-filters="sRGB">
<feFlood flood-opacity="0" result="BackgroundImageFix"/>
<feColorMatrix in="SourceAlpha" type="matrix" values="0 0 0 0 0 0 0 0 0 0 0 0 0 0 0 0 0 0 127 0" result="hardAlpha"/>
<feOffset dy="4"/>
<feGaussianBlur stdDeviation="7.5"/>
<feComposite in2="hardAlpha" operator="out"/>
<feColorMatrix type="matrix" values="0 0 0 0 0 0 0 0 0 0 0 0 0 0 0 0 0 0 0.08 0"/>
<feBlend mode="normal" in2="BackgroundImageFix" result="effect1_dropShadow_10506_42180"/>
<feBlend mode="normal" in="SourceGraphic" in2="effect1_dropShadow_10506_42180" result="shape"/>
</filter>
</defs>
</svg>
