<svg xmlns="http://www.w3.org/2000/svg" width="32" height="32" viewBox="0 0 32 32">
    <g id="Group_4247" data-name="Group 4247" transform="translate(-169 -140)">
        <g id="Group_4246" data-name="Group 4246" transform="translate(169.5 137)">
            <path id="Path_2025" data-name="Path 2025" d="M32.958,34.2a2.758,2.758,0,1,0,2.758,2.758A2.75,2.75,0,0,0,32.958,34.2Z" transform="translate(-20.136 -19.046)"/>
            <path id="Path_2026" data-name="Path 2026" d="M23.144,20.288h0V13.243A2.552,2.552,0,0,0,20.6,10.7H17.41l-.956-1.966A1.34,1.34,0,0,0,15.28,8H10.392a1.291,1.291,0,0,0-1.174.737l-.983,1.993H5.04A2.552,2.552,0,0,0,2.5,13.27v9.8a2.535,2.535,0,0,0,2.54,2.54H17.847a5.3,5.3,0,1,0,5.3-5.325ZM12.822,22.582a4.669,4.669,0,1,1,4.669-4.669A4.667,4.667,0,0,1,12.822,22.582Zm10.322,6.881a3.878,3.878,0,1,1,3.878-3.878A3.893,3.893,0,0,1,23.144,29.463Z"/>
            <path id="Path_2027" data-name="Path 2027" d="M73.169,64.93H72.05V63.81a.71.71,0,0,0-1.42,0v1.12H69.51a.71.71,0,1,0,0,1.42h1.12v1.12a.71.71,0,0,0,1.42,0V66.35h1.12a.723.723,0,0,0,.71-.71A.705.705,0,0,0,73.169,64.93Z" transform="translate(-48.196 -40.054)"/>
        </g>
        <rect id="Rectangle_1012" data-name="Rectangle 1012" width="32" height="32" transform="translate(169 140)" fill="none" opacity="0"/>
    </g>
</svg>
