<svg xmlns="http://www.w3.org/2000/svg" width="12" height="12" viewBox="0 0 12 12">
    <g id="Group_4201" data-name="Group 4201" transform="translate(-121 -60)">
        <circle id="Ellipse_181" data-name="Ellipse 181" cx="6" cy="6" r="6" transform="translate(121 60)" fill="#fff"/>
        <path id="Icon_ionic-ios-close-circle" data-name="Icon ionic-ios-close-circle" d="M9.375,3.375a6,6,0,1,0,6,6A6,6,0,0,0,9.375,3.375Zm1.52,8.172-1.52-1.52-1.52,1.52A.461.461,0,1,1,7.2,10.9l1.52-1.52L7.2,7.855A.461.461,0,0,1,7.855,7.2l1.52,1.52L10.9,7.2a.461.461,0,0,1,.652.652l-1.52,1.52,1.52,1.52a.463.463,0,0,1,0,.652A.458.458,0,0,1,10.9,11.547Z" transform="translate(117.625 56.625)" fill="#212121"/>
    </g>
</svg>
