<svg xmlns="http://www.w3.org/2000/svg" width="24" height="22" viewBox="0 0 24 22" fill="none">
<path d="M7.42199 3.94782C7.94118 3.67086 8.49983 3.58252 9.04414 3.58252C9.67338 3.58252 10.4055 3.78905 10.9965 4.27134C11.6149 4.77751 12.0348 5.55347 12.0348 6.56581C12.0348 7.72976 11.2106 8.36127 10.7464 8.71702L10.6448 8.79581C10.1375 9.19335 9.94134 9.40584 9.94134 9.84874C9.94134 10.0862 9.84682 10.3139 9.67856 10.4818C9.5103 10.6498 9.28209 10.7441 9.04414 10.7441C8.80619 10.7441 8.57798 10.6498 8.40972 10.4818C8.24146 10.3139 8.14693 10.0862 8.14693 9.84874C8.14693 8.49498 8.99748 7.80974 9.537 7.38714C10.1507 6.90604 10.2404 6.7986 10.2404 6.56581C10.2404 6.09187 10.0622 5.82327 9.8576 5.65733C9.62558 5.47498 9.33947 5.37463 9.04414 5.37202C8.69124 5.37202 8.4484 5.43051 8.26656 5.52721C8.09549 5.61794 7.91486 5.7779 7.7402 6.10023C7.68404 6.2037 7.608 6.29511 7.51644 6.36926C7.42487 6.44341 7.31957 6.49883 7.20654 6.53236C7.09352 6.56589 6.97498 6.57688 6.85769 6.5647C6.74041 6.55252 6.62668 6.5174 6.52299 6.46135C6.41931 6.40531 6.3277 6.32943 6.2534 6.23805C6.1791 6.14668 6.12357 6.04159 6.08997 5.9288C6.05636 5.81601 6.04535 5.69771 6.05756 5.58067C6.06977 5.46363 6.10496 5.35014 6.16112 5.24667C6.47694 4.66648 6.89324 4.22836 7.42199 3.94663V3.94782Z" fill="#4B7BE5"/>
<path d="M9.04198 14.3256C9.35925 14.3256 9.66352 14.1998 9.88787 13.9759C10.1122 13.752 10.2382 13.4484 10.2382 13.1318C10.2382 12.8152 10.1122 12.5115 9.88787 12.2876C9.66352 12.0638 9.35925 11.938 9.04198 11.938C8.7247 11.938 8.42043 12.0638 8.19608 12.2876C7.97174 12.5115 7.8457 12.8152 7.8457 13.1318C7.8457 13.4484 7.97174 13.752 8.19608 13.9759C8.42043 14.1998 8.7247 14.3256 9.04198 14.3256Z" fill="#4B7BE5"/>
<path d="M9.04469 1.26557e-07C7.5356 -0.000253051 6.05082 0.37936 4.72775 1.10371C3.40469 1.82806 2.28608 2.87375 1.47546 4.144C0.664828 5.41425 0.188366 6.86803 0.0901625 8.37081C-0.00804145 9.87358 0.275185 11.3768 0.913633 12.7414L0.0463356 16.1341C-0.017323 16.3833 -0.0153573 16.6447 0.0520423 16.893C0.119442 17.1412 0.249987 17.3678 0.431014 17.5509C0.612041 17.7339 0.837404 17.8672 1.08524 17.9377C1.33308 18.0083 1.59498 18.0137 1.84553 17.9535C2.74273 17.7386 4.12203 17.4079 5.35061 17.1154C6.57042 17.6643 7.89782 17.934 9.2356 17.9047C10.5734 17.8755 11.8877 17.5479 13.0822 16.9461C14.2767 16.3444 15.3212 15.4836 16.1392 14.4268C16.9572 13.37 17.528 12.1441 17.8097 10.8387C18.0915 9.53328 18.077 8.18152 17.7675 6.88241C17.458 5.58329 16.8612 4.36972 16.0209 3.33056C15.1805 2.29141 14.1179 1.45299 12.9108 0.876704C11.7038 0.300423 10.3828 0.000875332 9.04469 1.26557e-07ZM1.86706 8.95345C1.86753 7.39591 2.37674 5.88096 3.31752 4.63817C4.2583 3.39537 5.57938 2.49246 7.08058 2.06625C8.58179 1.64004 10.1813 1.71376 11.6367 2.27623C13.0922 2.83871 14.3243 3.85929 15.1463 5.18332C15.9682 6.50736 16.3354 8.06269 16.192 9.61365C16.0486 11.1646 15.4025 12.6267 14.3516 13.7783C13.3008 14.9299 11.9024 15.7083 10.3684 15.9955C8.8344 16.2828 7.24837 16.0632 5.85065 15.3701L5.55995 15.2256L5.24294 15.3008L1.90773 16.0971C2.14699 15.1659 2.46041 13.934 2.73316 12.8643L2.8169 12.5348L2.66139 12.2328C2.13746 11.2189 1.86506 10.0942 1.86706 8.95345Z" fill="#4B7BE5"/>
<path d="M15.0248 21.4885C12.6682 21.4885 10.5256 20.5824 8.92383 19.1009H9.04346C9.90238 19.1009 10.7362 18.9947 11.5329 18.7941C12.5665 19.3695 13.758 19.6978 15.026 19.6978C16.1744 19.6978 17.2583 19.4292 18.2189 18.9517L18.5096 18.8073L18.8266 18.8825C19.9283 19.1451 21.1772 19.4137 22.1043 19.6107C21.8938 18.7141 21.6079 17.5144 21.3363 16.4459L21.2526 16.1164L21.4081 15.8144C21.932 14.8005 22.2044 13.6759 22.2024 12.5351C22.2031 11.3375 21.9025 10.159 21.3284 9.10738C20.7543 8.05578 19.9249 7.16477 18.9163 6.51596C18.7053 5.66326 18.3836 4.84174 17.9593 4.07227C19.1468 4.48263 20.2348 5.13731 21.1528 5.99391C22.0707 6.8505 22.7982 7.88992 23.2881 9.04488C23.7779 10.1998 24.0193 11.4446 23.9965 12.6985C23.9738 13.9525 23.6874 15.1877 23.1559 16.3242C23.4585 17.5275 23.766 18.8311 23.9598 19.6704C24.0167 19.9136 24.0111 20.1673 23.9437 20.4078C23.8763 20.6484 23.7492 20.8681 23.5741 21.0466C23.399 21.2252 23.1817 21.3567 22.9421 21.4292C22.7026 21.5016 22.4486 21.5126 22.2036 21.4611C21.334 21.2796 19.9666 20.9883 18.7189 20.697C17.5581 21.2204 16.2986 21.4902 15.0248 21.4885Z" fill="#4B7BE5"/>
</svg>
