<svg width="19" height="22" viewBox="0 0 19 22" fill="none" xmlns="http://www.w3.org/2000/svg">
<g opacity="0.7">
<path d="M15.5 21H3.5C3.1717 21 2.84661 20.9353 2.54329 20.8097C2.23998 20.6841 1.96438 20.4999 1.73223 20.2678C1.50009 20.0356 1.31594 19.76 1.1903 19.4567C1.06466 19.1534 1 18.8283 1 18.5V3.5C1 2.83696 1.26339 2.20107 1.73223 1.73223C2.20107 1.26339 2.83696 1 3.5 1H15.5C16.163 1 16.7989 1.26339 17.2678 1.73223C17.7366 2.20107 18 2.83696 18 3.5V18.5C18 18.8283 17.9353 19.1534 17.8097 19.4567C17.6841 19.76 17.4999 20.0356 17.2678 20.2678C17.0356 20.4999 16.76 20.6841 16.4567 20.8097C16.1534 20.9353 15.8283 21 15.5 21ZM3.5 2C3.10218 2 2.72064 2.15804 2.43934 2.43934C2.15804 2.72064 2 3.10218 2 3.5V18.5C2 18.8978 2.15804 19.2794 2.43934 19.5607C2.72064 19.842 3.10218 20 3.5 20H15.5C15.8978 20 16.2794 19.842 16.5607 19.5607C16.842 19.2794 17 18.8978 17 18.5V3.5C17 3.10218 16.842 2.72064 16.5607 2.43934C16.2794 2.15804 15.8978 2 15.5 2H3.5Z" fill="#212121" stroke="#212121" stroke-width="0.5"/>
<path d="M13.5 14H5.5C5.36739 14 5.24021 13.9473 5.14645 13.8536C5.05268 13.7598 5 13.6326 5 13.5C5 13.3674 5.05268 13.2402 5.14645 13.1464C5.24021 13.0527 5.36739 13 5.5 13H13.5C13.6326 13 13.7598 13.0527 13.8536 13.1464C13.9473 13.2402 14 13.3674 14 13.5C14 13.6326 13.9473 13.7598 13.8536 13.8536C13.7598 13.9473 13.6326 14 13.5 14Z" fill="#212121" stroke="#212121" stroke-width="0.5"/>
<path d="M13.5 18H5.5C5.36739 18 5.24021 17.9473 5.14645 17.8536C5.05268 17.7598 5 17.6326 5 17.5C5 17.3674 5.05268 17.2402 5.14645 17.1464C5.24021 17.0527 5.36739 17 5.5 17H13.5C13.6326 17 13.7598 17.0527 13.8536 17.1464C13.9473 17.2402 14 17.3674 14 17.5C14 17.6326 13.9473 17.7598 13.8536 17.8536C13.7598 17.9473 13.6326 18 13.5 18Z" fill="#212121" stroke="#212121" stroke-width="0.5"/>
<path d="M13.5 10H5.5C5.36739 10 5.24021 9.94732 5.14645 9.85355C5.05268 9.75979 5 9.63261 5 9.5C5 9.36739 5.05268 9.24021 5.14645 9.14645C5.24021 9.05268 5.36739 9 5.5 9H13.5C13.6326 9 13.7598 9.05268 13.8536 9.14645C13.9473 9.24021 14 9.36739 14 9.5C14 9.63261 13.9473 9.75979 13.8536 9.85355C13.7598 9.94732 13.6326 10 13.5 10Z" fill="#212121" stroke="#212121" stroke-width="0.5"/>
<path d="M13.5 6H5.5C5.36739 6 5.24021 5.94732 5.14645 5.85355C5.05268 5.75979 5 5.63261 5 5.5C5 5.36739 5.05268 5.24021 5.14645 5.14645C5.24021 5.05268 5.36739 5 5.5 5H13.5C13.6326 5 13.7598 5.05268 13.8536 5.14645C13.9473 5.24021 14 5.36739 14 5.5C14 5.63261 13.9473 5.75979 13.8536 5.85355C13.7598 5.94732 13.6326 6 13.5 6Z" fill="#212121" stroke="#212121" stroke-width="0.5"/>
</g>
</svg>
