<svg xmlns="http://www.w3.org/2000/svg" width="17" height="17" viewBox="0 0 17 17"><defs><style>.a{fill:#616161;}</style></defs><g transform="translate(0 -1.688)"><g transform="translate(0 1.688)"><g transform="translate(0 0)"><path class="a" d="M253.741,423.177c-.153.038-.309.072-.464.1a.746.746,0,0,0,.272,1.468c.184-.034.37-.075.553-.12a.746.746,0,0,0-.361-1.448Z" transform="translate(-243.536 -407.766)"/><path class="a" d="M412.676,137.68a.746.746,0,0,0,1.417-.469c-.059-.178-.124-.357-.194-.531a.746.746,0,1,0-1.386.554C412.572,137.38,412.627,137.53,412.676,137.68Z" transform="translate(-397.564 -131.308)"/><path class="a" d="M321.644,394.035c-.132.087-.268.171-.4.25a.746.746,0,1,0,.746,1.293c.163-.094.325-.194.481-.3a.746.746,0,0,0-.823-1.245Z" transform="translate(-309.266 -379.689)"/><path class="a" d="M429.126,208.028a.746.746,0,1,0-1.491.059c.006.157.008.317,0,.474a.746.746,0,1,0,1.492.033C429.135,208.407,429.134,208.216,429.126,208.028Z" transform="translate(-412.133 -199.82)"/><path class="a" d="M378.275,344.218a.746.746,0,0,0-1.045.149c-.095.126-.194.251-.3.371a.746.746,0,0,0,.084,1.052c.018.015.036.029.055.042a.746.746,0,0,0,1-.127c.122-.143.241-.292.354-.443A.746.746,0,0,0,378.275,344.218Z" transform="translate(-363.285 -331.587)"/><path class="a" d="M414.892,279.386a.746.746,0,0,0-.935.489c-.047.15-.1.3-.156.449a.746.746,0,0,0,1.394.531c.067-.176.129-.355.185-.534A.746.746,0,0,0,414.892,279.386Z" transform="translate(-398.805 -269.234)"/><path class="a" d="M7.137,17.322a6.857,6.857,0,0,1-1.729-.561l-.019-.011c-.129-.062-.258-.129-.383-.2H5a7.17,7.17,0,0,1-.671-.428,7.289,7.289,0,0,1-1.7-10.01A7.08,7.08,0,0,1,4.363,4.356l.024-.017a6.925,6.925,0,0,1,7.9-.065l-.527.777c-.146.216-.056.374.2.35l2.288-.209a.384.384,0,0,0,.341-.5l-.614-2.26c-.069-.253-.245-.284-.391-.067l-.528.779a8.186,8.186,0,0,0-6.1-1.325q-.324.057-.638.139h0l-.024.007A8.306,8.306,0,0,0,1.676,5.117c-.01.012-.02.023-.029.036-.038.053-.076.106-.113.16-.061.088-.121.179-.178.269-.007.011-.013.022-.019.033A8.623,8.623,0,0,0,.009,10.621c0,.006,0,.012,0,.018.008.173.021.348.039.52,0,.011,0,.022.005.033.019.173.042.347.072.521A8.557,8.557,0,0,0,2.471,16.32l.009.009,0,0a8.538,8.538,0,0,0,1.074.917A8.22,8.22,0,0,0,6.9,18.677a.675.675,0,0,0,.782-.556A.687.687,0,0,0,7.137,17.322Z" transform="translate(0 -1.688)"/><path class="a" d="M206.591,83.2a.6.6,0,0,0-.6.6v6.015l5.5,2.844a.6.6,0,0,0,.554-1.073l-4.848-2.507V83.8A.6.6,0,0,0,206.591,83.2Z" transform="translate(-198.822 -80.467)"/></g></g></g></svg>