<svg xmlns="http://www.w3.org/2000/svg" xmlns:xlink="http://www.w3.org/1999/xlink" width="147.036" height="85.136" viewBox="0 0 147.036 85.136">
  <defs>
    <linearGradient id="linear-gradient" x1="0.036" y1="1" x2="0.036" gradientUnits="objectBoundingBox">
      <stop offset="0" stop-color="gray" stop-opacity="0.251"/>
      <stop offset="0.54" stop-color="gray" stop-opacity="0.122"/>
      <stop offset="1" stop-color="gray" stop-opacity="0.102"/>
    </linearGradient>
  </defs>
  <g id="Group_4714" data-name="Group 4714" transform="translate(-2979.075 691.045)">
    <g id="Group_4270" data-name="Group 4270" transform="translate(2979.075 -691.045)">
      <g id="Group_4713" data-name="Group 4713">
        <g id="Group_4712" data-name="Group 4712">
          <path id="Path_2059" data-name="Path 2059" d="M175.035,163.932A23.207,23.207,0,0,1,171.678,176a15.16,15.16,0,0,1-5.439,11.422,18.6,18.6,0,0,1-2.709,1.964c-.039.024-.078.048-.118.071l-.217.129-.068.04h0A21.157,21.157,0,0,1,152.7,192.3H55.912q-1.157,0-2.293-.093a27.139,27.139,0,0,1-7.848-1.817q-.735-.29-1.442-.625-.337-.158-.667-.325c-.138-.069-.275-.141-.411-.213a24.088,24.088,0,0,1-4.429-3.006,19.365,19.365,0,0,1-7.079-14.679A23.2,23.2,0,0,1,28,158.856a22.912,22.912,0,0,1,22.749-23.072c.386,0,.771.012,1.157.032a1.176,1.176,0,0,1,.165.008,39.2,39.2,0,0,1,8.354-9.848C69.713,118.02,83.283,113,98.4,113c12.7,0,24.311,3.541,33.2,9.392a22.387,22.387,0,0,1,11.043-2.893A22.914,22.914,0,0,1,165.4,142.57a23.776,23.776,0,0,1-.129,2.414A23.135,23.135,0,0,1,175.035,163.932Z" transform="translate(-28 -113)" fill="#ffd538" opacity="0.1"/>
        </g>
      </g>
      <path id="Path_2060" data-name="Path 2060" d="M319.436,216.477v65.511a2.517,2.517,0,0,1-2.517,2.522H216.41a2.481,2.481,0,0,1-.695-.1,2.513,2.513,0,0,1-1.822-2.424V224.427c.059,0-.059-7.958,0-7.95.448-.764.132-.78.715-1.475s-1.794,1.446,1.107-1.042h101.2A2.517,2.517,0,0,1,319.436,216.477Z" transform="translate(-193.146 -203.096)" fill="#fff"/>
      <line id="Line_56" data-name="Line 56" x2="83.8" transform="translate(33.417 30.97)" fill="none" stroke="#989595" stroke-linecap="round" stroke-miterlimit="10" stroke-width="0.2" opacity="0.7"/>
      <line id="Line_57" data-name="Line 57" x2="83.8" transform="translate(33.417 46.458)" fill="none" stroke="#989595" stroke-linecap="round" stroke-miterlimit="10" stroke-width="0.2" opacity="0.7"/>
      <line id="Line_58" data-name="Line 58" x2="83.8" transform="translate(33.417 61.945)" fill="none" stroke="#989595" stroke-linecap="round" stroke-miterlimit="10" stroke-width="0.2" opacity="0.7"/>
      <rect id="Rectangle_1022" data-name="Rectangle 1022" width="17.715" height="4.622" rx="2.311" transform="translate(66.149 20.974)"/>
      <rect id="Rectangle_1023" data-name="Rectangle 1023" width="15.405" height="3.076" rx="1.538" transform="translate(67.303 21.748)" fill="#212121"/>
      <rect id="Rectangle_1024" data-name="Rectangle 1024" width="5.563" height="2.739" rx="1.369" transform="translate(76.76 21.917)" fill="#ffd538"/>
      <circle id="Ellipse_192" data-name="Ellipse 192" cx="0.856" cy="0.856" r="0.856" transform="translate(78.643 22.429)" fill="#fff"/>
      <rect id="Rectangle_1025" data-name="Rectangle 1025" width="17.715" height="4.622" rx="2.311" transform="translate(66.149 51.442)"/>
      <rect id="Rectangle_1026" data-name="Rectangle 1026" width="15.405" height="3.076" rx="1.538" transform="translate(67.303 52.216)" fill="#212121"/>
      <rect id="Rectangle_1027" data-name="Rectangle 1027" width="5.563" height="2.739" rx="1.369" transform="translate(76.76 52.384)" fill="#ffd538"/>
      <circle id="Ellipse_193" data-name="Ellipse 193" cx="0.856" cy="0.856" r="0.856" transform="translate(78.643 52.897)" fill="#fff"/>
      <rect id="Rectangle_1028" data-name="Rectangle 1028" width="17.715" height="4.622" rx="2.311" transform="translate(66.149 66.676)"/>
      <rect id="Rectangle_1029" data-name="Rectangle 1029" width="15.405" height="3.076" rx="1.538" transform="translate(67.303 67.449)" fill="#212121"/>
      <rect id="Rectangle_1030" data-name="Rectangle 1030" width="5.563" height="2.739" rx="1.369" transform="translate(76.76 67.617)" fill="#ffd538"/>
      <circle id="Ellipse_194" data-name="Ellipse 194" cx="0.856" cy="0.856" r="0.856" transform="translate(78.643 68.131)" fill="#fff"/>
      <rect id="Rectangle_1031" data-name="Rectangle 1031" width="17.715" height="4.622" rx="2.311" transform="translate(66.149 36.209)"/>
      <rect id="Rectangle_1032" data-name="Rectangle 1032" width="15.405" height="3.076" rx="1.538" transform="translate(67.303 36.981)" fill="#212121"/>
      <rect id="Rectangle_1033" data-name="Rectangle 1033" width="5.563" height="2.739" rx="1.369" transform="translate(73.252 39.89) rotate(180)" fill="#989595"/>
      <circle id="Ellipse_195" data-name="Ellipse 195" cx="0.856" cy="0.856" r="0.856" transform="translate(69.657 37.664)" fill="#fff"/>
      <path id="Path_2061" data-name="Path 2061" d="M325.581,253.028a6.041,6.041,0,0,1-2.945,5.189l-.082.049-.156.086h0l-.148.077-.023.012q-.093.046-.189.089a5.88,5.88,0,0,1-.628.244c-.14.045-.281.086-.424.121a6,6,0,0,1-.891.148c-.182.017-.366.026-.553.026a6.294,6.294,0,0,1-.665-.036h-.039c-.076-.008-.152-.018-.227-.03a6.244,6.244,0,0,1-.715-.156l-.117-.035-.1-.032-.033-.012a5.96,5.96,0,0,1-.617-.242h0a5.88,5.88,0,0,1-.983-.569l-.015-.01-.01-.008-.111-.081-.084-.064a5.647,5.647,0,0,1-.468-.407q-.208-.2-.4-.42a6.041,6.041,0,1,1,10.62-3.938Z" transform="translate(-276.805 -229.764)" fill="#f9f5e4"/>
      <path id="Path_2064" data-name="Path 2064" d="M324.581,372.065a6.011,6.011,0,0,1-.74,2.9,5.7,5.7,0,0,1-.337.542,5.6,5.6,0,0,1-.395.514.189.189,0,0,1-.027.03c-.054.064-.112.129-.171.188l-.066.069c-.067.068-.135.129-.206.2a.24.24,0,0,1-.026.024c-.032.03-.066.06-.1.089a5.9,5.9,0,0,1-.568.441c-.1.069-.2.136-.31.2l-.082.049-.156.086h0l-.105.055-.042.022-.023.012q-.062.031-.128.058c-.022.012-.044.021-.066.031l-.128.054c-.113.049-.229.1-.346.136h0l-.157.053h-.018a.217.217,0,0,1-.039.012l-.03.01-.087.026-.03.009-.037.01-.054.014a.2.2,0,0,1-.037.01l-.091.024h0c-.067.017-.135.032-.2.045a5.8,5.8,0,0,1-.688.1c-.175.015-.35.024-.528.026h-.041c-.17,0-.335-.008-.5-.022l-.147-.014h-.062l-.2-.027-.163-.028L317.4,378c-.076-.014-.152-.03-.226-.049a.042.042,0,0,1-.018,0c-.09-.019-.179-.042-.266-.067l-.117-.035-.1-.032-.033-.012h0a6.191,6.191,0,0,1-.612-.24h0q-.207-.1-.4-.2l-.059-.033-.087-.05-.048-.028c-.129-.08-.257-.164-.386-.257l-.015-.01-.01-.008-.111-.081-.084-.064a5.67,5.67,0,0,1-.468-.407q-.208-.2-.4-.42a6.041,6.041,0,1,1,10.623-3.941Z" transform="translate(-275.933 -333.507)" fill="#f9f5e4"/>
      <path id="Path_2067" data-name="Path 2067" d="M325.582,489.883a6.012,6.012,0,0,1-.74,2.9,5.716,5.716,0,0,1-.337.542,5.622,5.622,0,0,1-.395.514.2.2,0,0,1-.027.03c-.054.064-.112.128-.171.188l-.066.069c-.067.068-.135.129-.206.2a.231.231,0,0,1-.026.024c-.032.03-.066.06-.1.089a5.9,5.9,0,0,1-.568.441c-.1.069-.2.136-.31.2l-.082.049-.156.086h0l-.076.04h-.009l-.021.012-.042.022-.023.012-.129.058-.066.031-.129.054-.183.076h0l-.1.036-.066.024h0l-.157.053h-.018l-.039.012-.03.01-.087.026-.03.009h-.037l-.054.014a.2.2,0,0,1-.037.01l-.091.024h0c-.067.017-.135.032-.2.045-.111.023-.222.044-.334.06s-.235.032-.353.042c-.175.015-.35.024-.528.026h-.041c-.17,0-.335-.008-.5-.022l-.147-.014h-.062a1.208,1.208,0,0,1-.185-.024h-.019l-.163-.028-.041-.008c-.076-.014-.152-.03-.226-.049a.043.043,0,0,1-.018,0c-.09-.019-.179-.042-.266-.067l-.117-.035-.1-.032-.033-.012h0l-.094-.032-.066-.023h0c-.048-.017-.094-.035-.14-.054h0l-.048-.019h0l-.06-.024q-.1-.041-.2-.085h0q-.207-.094-.4-.2l-.059-.033-.087-.05-.048-.028a2.138,2.138,0,0,1-.192-.129h0c-.064-.042-.129-.085-.188-.129l-.015-.01-.01-.008-.111-.081-.084-.064a5.688,5.688,0,0,1-.468-.407q-.208-.2-.4-.42a6.041,6.041,0,1,1,10.607-3.932Z" transform="translate(-276.805 -436.159)" fill="#f9f5e4"/>
      <path id="Path_2071" data-name="Path 2071" d="M325.582,608.872a6.011,6.011,0,0,1-.74,2.9,5.734,5.734,0,0,1-.337.542,5.6,5.6,0,0,1-.395.514.114.114,0,0,1-.024.026h0c-.054.064-.112.129-.171.188l-.018.019-.048.05c-.067.068-.135.128-.206.2a.22.22,0,0,1-.026.024c-.032.03-.066.06-.1.089a4.664,4.664,0,0,1-.419.335l-.026.018-.053.037c-.023.018-.046.033-.071.05-.1.069-.2.136-.31.2l-.046.028-.036.021-.156.086h0l-.076.04h-.009l-.021.012-.042.022-.023.012-.129.058-.066.031-.129.054-.182.076h0l-.1.036-.066.024h0l-.026.009-.129.044h-.018l-.039.012-.03.01-.035.01-.053.015-.03.009h-.037l-.054.014a.2.2,0,0,1-.037.01l-.091.025h0c-.067.017-.135.032-.2.045-.111.023-.222.044-.334.06q-.1.015-.2.027h-.024l-.129.013c-.175.015-.35.024-.528.026h-.147c-.129,0-.265-.009-.4-.021h-.039l-.108-.01h-.062l-.128-.015-.062-.009h-.019l-.163-.028-.041-.008-.108-.021-.045-.01-.073-.018a.039.039,0,0,1-.018,0c-.09-.019-.179-.042-.266-.067l-.046-.014h-.017l-.054-.016-.05-.015-.053-.017-.033-.011h0l-.094-.032-.066-.023h0l-.06-.027-.078-.031h0l-.048-.019h0l-.06-.024q-.1-.041-.2-.085h0c-.1-.046-.2-.1-.3-.149-.036-.017-.071-.036-.105-.055l-.027-.015h0l-.031-.017-.087-.05-.048-.028a2.151,2.151,0,0,1-.191-.129h0c-.064-.042-.129-.085-.188-.128l-.016-.01-.01-.008-.053-.039-.058-.042-.01-.008c-.024-.019-.05-.037-.073-.057a5.673,5.673,0,0,1-.468-.407q-.208-.2-.4-.42a6.041,6.041,0,1,1,10.6-3.933Z" transform="translate(-276.805 -539.853)" fill="#f9f5e4"/>
      <path id="Path_2073" data-name="Path 2073" d="M843.315,275.828l-.514-.514a.271.271,0,0,0-.386,0l-3.2,3.169-1.352-1.362a.269.269,0,0,0-.386,0l-.514.514a.273.273,0,0,0,0,.386l2.056,2.068a.273.273,0,0,0,.386,0l3.9-3.87a.271.271,0,0,0,.005-.391Z" transform="translate(-732.924 -254.382)" fill="#3acc6c"/>
      <path id="Path_2074" data-name="Path 2074" d="M843.358,392.969l-.514-.514a.271.271,0,0,0-.386,0l-3.189,3.175-1.352-1.362a.269.269,0,0,0-.386,0l-.514.514a.272.272,0,0,0,0,.386l2.056,2.068a.272.272,0,0,0,.386,0l3.9-3.88a.271.271,0,0,0,0-.386Z" transform="translate(-732.967 -356.467)" fill="#3acc6c"/>
      <path id="Path_2075" data-name="Path 2075" d="M843.311,629.372l-.514-.514a.272.272,0,0,0-.385,0l-3.2,3.169-1.352-1.362a.271.271,0,0,0-.386,0l-.514.514a.271.271,0,0,0,0,.385l2.056,2.068a.273.273,0,0,0,.385,0l3.9-3.871a.269.269,0,0,0,.005-.389Z" transform="translate(-732.92 -562.486)" fill="#3acc6c"/>
      <path id="Path_2144" data-name="Path 2144" d="M189.589,454.519a3.787,3.787,0,0,1,.447,1.266,6.2,6.2,0,0,0,.825,1.086,4.558,4.558,0,0,1,.4.667l.608,1.131a6.053,6.053,0,0,0,1.087-.487l.218.024a4.371,4.371,0,0,0,.5-.077c0,.028-.008.057-.01.084-.1.844-.181,1.542-.181,1.542s.206.747.492.514l.015-.013c.008.036.015.077.023.128a8.181,8.181,0,0,1,.145,1.757,13.549,13.549,0,0,0,.129,2.194s.4-.033.986-.069c.015.042.032.086.05.128h0c.057.147.12.31.185.472l.012.03c.009.021.017.042.026.063l.017.042.023.055.027.064.017.042.036.086a.266.266,0,0,1,.013.028c.01.023.019.048.03.071l.013.027.031.071.009.021c.041.092.081.177.118.249v.009l.032.06v.009l.032.057h0c.01.019.022.036.031.051a4.851,4.851,0,0,1,.447,1.108l.24,1.459s.05.353.072.671c.008.116.012.226.009.314,0,.024,0,.075.006.146a.232.232,0,0,1,0,.031h0c.022.265.077.771.147,1.361.014.12.028.242.044.366h0a16.234,16.234,0,0,0,.04,2.211s-.172,2.748-.129,3.008a2.133,2.133,0,0,1-.212.771l-.035-.031a2.271,2.271,0,0,0-.6,1.383c.012.74.069,1.742.069,1.742s.057.406-.069.514,0,.679,0,.679a1.35,1.35,0,0,0,1.982-.082,2.782,2.782,0,0,0,.1-1.005c-.006-.032-.013-.073-.021-.129a11.783,11.783,0,0,0-.1-1.278l-.105-.771c.113-.012.285-.622.206-.771a2.132,2.132,0,0,1,.069-.771l.27-.834h0c.012.027.023.054.035.084v.012a.294.294,0,0,1,.014.036v.012l.05.129h0l.015.045v.009c.017.046.032.094.046.141h0l.013.044v.01c.013.046.024.09.033.128v.009l.008.037v.051a.036.036,0,0,1,0,.012.505.505,0,0,1,0,.06.079.079,0,0,1,0,.018v.107a1.939,1.939,0,0,0,.082.882v.013a.1.1,0,0,0,.014.036.11.11,0,0,0,.009.022.493.493,0,0,0,.021.046h0a.557.557,0,0,0,.05.081h0l-.035,2.956a1.41,1.41,0,0,0,1.4.514.947.947,0,0,0,.7-1.369,2.97,2.97,0,0,1-.206-.915s-.172-1.222-.287-1.663a.525.525,0,0,0-.267-.386c-.044-.139-.105-.267-.111-.287a3.593,3.593,0,0,1-.249-.591.464.464,0,0,1-.015-.212.693.693,0,0,0,0-.139h0V475.8h0c-.03-.74-.2-2.784-.3-3.846h0a9.99,9.99,0,0,0,.227-1.474,13.709,13.709,0,0,1,.091-1.685,9.2,9.2,0,0,1,.436-1.979,18.416,18.416,0,0,0,.7-2.257c.013-.048.024-.094.036-.139a1.581,1.581,0,0,0,.62-.148,4.335,4.335,0,0,1,.217-1.991,14.243,14.243,0,0,0,.433-3.881v-.2c.3.257.514.607.589.572a16.677,16.677,0,0,0,2.15-1.328c.835-.679-1.5-4.491-1.765-4.784a24.286,24.286,0,0,1-.806-3.686.666.666,0,0,0,.321.226,2.859,2.859,0,0,1,.848.568c.356.3,1.982,0,1.982,0a1.288,1.288,0,0,0,1.4-.95,9.35,9.35,0,0,0,.608-1.843,15.188,15.188,0,0,1,.9-2.442,1.9,1.9,0,0,0-.789-.709.7.7,0,0,1,.285-.443c.366-.159,4.446-1.671,3-2.185s-3.667,1.157-3.667,1.157-.114.039-.3.411c-.1.2-.221.531-.319.8-.01.028-.021.057-.03.084l-.064.006a7.9,7.9,0,0,0-.527,1.414,9.271,9.271,0,0,1-.643,1.572s-.32.329-.206.589-.258.2-.258.2l-.505-.4a3.046,3.046,0,0,0-.643-.328,1.791,1.791,0,0,1-.562-.418s-.413-.272-.378-.318-.229-.257-.378-.328-.218-.215-.366-.486-.379-.068-.494-.113a12.463,12.463,0,0,0-1.684.17,1.482,1.482,0,0,1-.918-.136.689.689,0,0,0-.58-.064,3.051,3.051,0,0,1-.135-.35.532.532,0,0,1-.017-.062,2.465,2.465,0,0,0,1.491-2.257,2.432,2.432,0,0,0-.611-1.616c-.035-.039-.071-.077-.108-.114h0c.139-.067.341-.212.343-.377a.238.238,0,0,0-.067-.17c-.051-.058-.129-.087-.183-.144a.317.317,0,0,1-.075-.227c0-.1.027-.216.028-.324a.468.468,0,0,0-.013-.129.5.5,0,0,0-.422-.33.033.033,0,0,0,0,.009.8.8,0,0,0-.227-.01c-.265.028-.514.148-.771.177a3.4,3.4,0,0,1-1.207-.234,1.16,1.16,0,0,0-1.157.2c-.272.3-.257.817-.6,1.036a3.854,3.854,0,0,1-.53.189,1.09,1.09,0,0,0-.449.422,2.185,2.185,0,0,0-.338,1.414c.028.267.107.528.139.8a2.314,2.314,0,0,1-.055.834.879.879,0,0,1-.514.666.873.873,0,0,0-.19.064c-.162.1-.14.334-.1.514l.17.754c-.161.121-.409.069-.564.2a.467.467,0,0,0-.129.2,1.105,1.105,0,0,0,.257,1.146.185.185,0,0,1-.014.042c0,.014-.018.064-.026.1-.138.657-.091.735-.184.848h0a7.813,7.813,0,0,1-.56.846.913.913,0,0,0-.207.544,7.2,7.2,0,0,1-.9,1.119c-.212.113-.55.882-.55.882s-.539.351-.539.747a6.52,6.52,0,0,1-.1.983A2.743,2.743,0,0,0,189.589,454.519Zm1.969-.61c.1-.159,0-.464,0-.464a4.92,4.92,0,0,0,.771-1.392,1.51,1.51,0,0,1,.711-.847h0s.321-.128.343,0,.081.395.081.395-.058.657.184.916a3.407,3.407,0,0,1,.278,1.357s.386,1.086.2,1.425a8.8,8.8,0,0,0-.265,1.423c-.09-.014-.175-.024-.257-.031a3.538,3.538,0,0,0-.779-.578c-.265-.09-.514-.837-.528-1.006s-.24-.735-.481-.837S191.458,454.066,191.558,453.908Z" transform="translate(-168.552 -396.924)" fill="url(#linear-gradient)"/>
      <path id="Path_2145" data-name="Path 2145" d="M325.442,477.972a1.848,1.848,0,0,0-1.852-.869v1.321h.8l.632-.163Z" transform="translate(-285.599 -430.288)" fill="#4c4981"/>
      <path id="Path_2146" data-name="Path 2146" d="M325.442,477.972a1.848,1.848,0,0,0-1.852-.869v1.321h.8l.632-.163Z" transform="translate(-285.599 -430.288)" opacity="0.1"/>
      <path id="Path_2147" data-name="Path 2147" d="M323.17,460.218l.982.689s.009-.139.034-.326c.049-.356.159-.891.4-.995.361-.158,4.38-1.671,2.956-2.179s-3.612,1.157-3.612,1.157-.113.039-.293.411c-.1.2-.219.53-.314.8C323.233,460.022,323.17,460.218,323.17,460.218Z" transform="translate(-285.232 -413.057)" fill="#ae6e79"/>
      <path id="Path_2148" data-name="Path 2148" d="M231.177,374.783l-.112-.053-.315.359.257.548.438-.175-.1-.438Z" transform="translate(-201.092 -326.562)" fill="#4c4981"/>
      <path id="Path_2149" data-name="Path 2149" d="M265.605,737.606s.283-.035.4.406.281,1.659.281,1.659a3.017,3.017,0,0,0,.2.914.948.948,0,0,1-.689,1.366,1.386,1.386,0,0,1-1.377-.514l.033-2.956Z" transform="translate(-234.034 -657.326)" fill="#212121"/>
      <path id="Path_2150" data-name="Path 2150" d="M243.211,738.64a2.283,2.283,0,0,0-.593,1.38c.012.738.068,1.738.068,1.738s.055.406-.068.514,0,.677,0,.677a1.317,1.317,0,0,0,1.952-.084,2.787,2.787,0,0,0,.1-1c-.073-.393-.27-2.164-.27-2.164Z" transform="translate(-214.986 -658.228)" fill="#212121"/>
      <path id="Path_2151" data-name="Path 2151" d="M236,629.454a19.058,19.058,0,0,0,.87,2.1,4.564,4.564,0,0,1,.44,1.105l.233,1.456a8.113,8.113,0,0,1,.078.983c-.012.326.587,5.1.587,5.1l.949,1.208a3.087,3.087,0,0,1,.35,1.2,1.778,1.778,0,0,0,.18,1.084s.023,1.107.057,1.355-.129.948,0,1.072,1.784.068,1.829-.129a6.14,6.14,0,0,0-.2-1.185l-.147-.948s-.294-.514-.226-.689-.129-.564-.135-.6-.316-.587-.257-.8-.351-4.763-.351-4.763L239.1,628.84Z" transform="translate(-209.266 -562.54)" fill="#ae6e79"/>
      <path id="Path_2152" data-name="Path 2152" d="M236,629.455s.093.257.22.594a11.6,11.6,0,0,0,.65,1.506,4.661,4.661,0,0,1,.44,1.105l.233,1.456a8.112,8.112,0,0,1,.078.982c0,.128.086.954.2,1.9.171,1.452.386,3.2.386,3.2l.949,1.208s.048.1.108.238a2.231,2.231,0,0,1,.242.959,1.777,1.777,0,0,0,.18,1.084s.023,1.107.057,1.355-.129.947,0,1.072,1.784.068,1.829-.129a6.146,6.146,0,0,0-.2-1.185l-.147-.948s-.293-.514-.226-.689-.129-.564-.135-.6-.316-.587-.257-.8c.042-.163-.182-2.838-.292-4.105-.035-.4-.058-.658-.058-.658l-1-7.02-.08-.567-.082-.574Z" transform="translate(-209.266 -562.54)" opacity="0.1"/>
      <path id="Path_2153" data-name="Path 2153" d="M243.87,650.073a3.936,3.936,0,0,0,1.82.17c.229-.135,0-1.817,0-1.817l-.1-.771c.112-.012.281-.621.2-.771a2.163,2.163,0,0,1,.068-.771l.266-.833.162-.514a23.784,23.784,0,0,0,.883-3.484,10.077,10.077,0,0,0,.224-1.47,13.959,13.959,0,0,1,.09-1.682,9.291,9.291,0,0,1,.429-1.975,18.683,18.683,0,0,0,.686-2.253c.1-.385.172-.671.172-.671s-1.707-.143-2.74-.193c-.477-.023-.811-.026-.771.013a1.4,1.4,0,0,1,.046.545,13.95,13.95,0,0,1-.226,2.5,8.7,8.7,0,0,0-.249,2.179,6.939,6.939,0,0,1,.046,1.128,5.013,5.013,0,0,0-.2,1.226,16.516,16.516,0,0,0,.039,2.206s-.168,2.744-.129,3a8.258,8.258,0,0,1-.361,1.231c0,.158-.113,1.23-.113,1.23S243.886,649.949,243.87,650.073Z" transform="translate(-216.124 -566.182)" fill="#ae6e79"/>
      <path id="Path_2154" data-name="Path 2154" d="M236.93,476.777l.2.208.129.136.739.794,1.9.215,1.013-.271.257-.067s0-.514-.046-1.121c-.064-.784-.219-1.735-.586-1.995a1.457,1.457,0,0,1-.431-.544,3.1,3.1,0,0,1-.184-.456c-.008-.021-.013-.04-.019-.059a5.1,5.1,0,0,1-.18-.837s-.244-.129-.581-.293c-.884-.411-2.41-.982-1.879.293a4.718,4.718,0,0,1,.2.572c.008.028.015.056.022.085a1.847,1.847,0,0,1-.072,1.375h0a.952.952,0,0,1-.076.118.625.625,0,0,1-.129.129l-.22,1.395-.018.116Z" transform="translate(-210.077 -425.857)" fill="#ae6e79"/>
      <path id="Path_2155" data-name="Path 2155" d="M238.736,473.3c.1.242-.049-.2,0,0,.4.287,1.351,1.1,1.883,1.1a1.455,1.455,0,0,0,.771-.2,5.053,5.053,0,0,1-.2-.9S238,471.538,238.736,473.3Z" transform="translate(-211.555 -426.308)" opacity="0.1"/>
      <path id="Path_2156" data-name="Path 2156" d="M233.17,450.346a2.459,2.459,0,0,0,2.2,2.442,2.428,2.428,0,0,0,.257.014,2.461,2.461,0,1,0-2.46-2.461Z" transform="translate(-206.8 -404.839)" fill="#ae6e79"/>
      <path id="Path_2157" data-name="Path 2157" d="M230.43,510.692l.35.914s.287.013.731.027c1.5.048,4.811.108,4.959-.275a.953.953,0,0,0,.051-.3,5.926,5.926,0,0,0-.257-1.491s-.158-1.8-.158-1.884.138-1.356.138-1.356l-.27-1.015-.757-.527s-.339.521-.542.564a1.43,1.43,0,0,0-.473.294s-.666.406-.88.18-1.885-1.218-1.885-1.218l-.88.97Z" transform="translate(-204.412 -454.269)" opacity="0.1"/>
      <path id="Path_2158" data-name="Path 2158" d="M230.43,511.779l.35.915s.287.013.731.026h.044c.191,0,.411.013.643.018a28.189,28.189,0,0,0,3.7-.091c.323-.046.533-.112.569-.2a.692.692,0,0,0,.04-.168,1.121,1.121,0,0,0,.012-.129,5.914,5.914,0,0,0-.257-1.491s-.158-1.807-.158-1.886.135-1.343.135-1.343l-.27-1.017-.521-.364-.236-.166a3.392,3.392,0,0,1-.257.341.684.684,0,0,1-.283.224,1.413,1.413,0,0,0-.473.293s-.666.407-.88.181a16.991,16.991,0,0,0-1.649-1.077l-.236-.143-.118.129-.762.841Z" transform="translate(-204.412 -455.227)" fill="#fff"/>
      <path id="Path_2159" data-name="Path 2159" d="M323.17,476.941l.982.689s.009-.139.034-.326a1.987,1.987,0,0,1-.865-.8C323.233,476.745,323.17,476.941,323.17,476.941Z" transform="translate(-285.232 -429.78)" opacity="0.1"/>
      <path id="Path_2160" data-name="Path 2160" d="M292.117,479.879l.215-.057a1.787,1.787,0,0,0,.553.418,3.032,3.032,0,0,1,.632.328l.5.395s.373.057.257-.2.2-.587.2-.587a9.353,9.353,0,0,0,.631-1.568,8.066,8.066,0,0,1,.514-1.414,1.616,1.616,0,0,0,1.852.869,15.021,15.021,0,0,0-.892,2.442,9.255,9.255,0,0,1-.6,1.841,1.271,1.271,0,0,1-1.377.947s-1.6.3-1.952,0a2.776,2.776,0,0,0-.835-.567.656.656,0,0,1-.316-.226V481.15Z" transform="translate(-257.633 -430.382)" fill="#ffd538"/>
      <path id="Path_2161" data-name="Path 2161" d="M310.834,508s-.281,1.05-.1,1.163Z" transform="translate(-274.341 -457.232)" opacity="0.1"/>
      <path id="Path_2162" data-name="Path 2162" d="M238.84,556.4c1.5.049,4.811.108,4.959-.275a.938.938,0,0,0,.051-.3l-4.906.257Z" transform="translate(-211.741 -498.905)" opacity="0.1"/>
      <path id="Path_2163" data-name="Path 2163" d="M236,629.411s.093.257.22.6c.623-.039,1.448-.078,2.231-.084.278,0,.549,0,.8.009a6.057,6.057,0,0,1,1.316.145,3.474,3.474,0,0,0,1.172.152c.1-.386.172-.671.172-.671s-1.707-.143-2.74-.193l-.082-.575Z" transform="translate(-209.266 -562.497)" opacity="0.1"/>
      <path id="Path_2164" data-name="Path 2164" d="M225.69,562.482l.192.406s.027.121.06.313a8.142,8.142,0,0,1,.144,1.752,13.406,13.406,0,0,0,.129,2.185s4.154-.349,5.372,0a2.466,2.466,0,0,0,1.819,0,4.366,4.366,0,0,1,.213-1.986,14.73,14.73,0,0,0,.427-3.875,3.413,3.413,0,0,0-.111-1.194,35.685,35.685,0,0,1-1.308-3.353l-.243.013-.643.035-3.673.194-.577.03-.06.186Z" transform="translate(-200.281 -499.698)" fill="#65617d"/>
      <path id="Path_2165" data-name="Path 2165" d="M211.233,580.051l-.033.361s1.819-.593,1.727-1.321,0-.643,0-.643l-1.463.129Z" transform="translate(-187.654 -518.623)" fill="#4c4981"/>
      <path id="Path_2166" data-name="Path 2166" d="M211.233,580.051l-.033.361s1.819-.593,1.727-1.321,0-.643,0-.643l-1.463.129Z" transform="translate(-187.654 -518.623)" opacity="0.1"/>
      <path id="Path_2167" data-name="Path 2167" d="M298.133,508.331a1.618,1.618,0,0,1-.643.333.419.419,0,0,0,.189-.089c.129-.093.257-.193.379-.292a1.2,1.2,0,0,1,.352-.243A1.934,1.934,0,0,1,298.133,508.331Z" transform="translate(-262.853 -457.267)" opacity="0.1"/>
      <path id="Path_2168" data-name="Path 2168" d="M301.013,510.942a.822.822,0,0,0-.14.222.91.91,0,0,0-.04.289.9.9,0,0,0,.05.41l.3-.7c.05-.12.1-.239.163-.353.026-.05.194-.257.175-.3C301.462,510.389,301.068,510.875,301.013,510.942Z" transform="translate(-265.762 -459.402)" opacity="0.1"/>
      <path id="Path_2169" data-name="Path 2169" d="M235.392,542.627a.935.935,0,0,1-.532-.247c.3.037.585.155.88.217a1.305,1.305,0,0,0,.819-.076A2.006,2.006,0,0,1,235.392,542.627Z" transform="translate(-208.273 -487.193)" opacity="0.1"/>
      <path id="Path_2170" data-name="Path 2170" d="M245.55,522.173a.2.2,0,0,0,.153-.039q.338-.193.666-.4a4.067,4.067,0,0,0,.653-.451A3.318,3.318,0,0,1,245.55,522.173Z" transform="translate(-217.589 -468.805)" opacity="0.1"/>
      <path id="Path_2171" data-name="Path 2171" d="M236.331,545.34a1.406,1.406,0,0,1-.352-.027.476.476,0,0,1-.289-.192.161.161,0,0,1,.122.021,2.088,2.088,0,0,0,1.134.135A1.624,1.624,0,0,1,236.331,545.34Z" transform="translate(-208.996 -489.578)" opacity="0.1"/>
      <path id="Path_2172" data-name="Path 2172" d="M257.32,586.968a3.636,3.636,0,0,0,.721.141,4.221,4.221,0,0,0,.571-.01l.925-.059.463-.03c.054,0,.278,0,.167-.109-.055-.054-.364-.019-.443-.022-.153,0-.307-.008-.46-.009q-.459,0-.918.019C258,586.9,257.664,586.932,257.32,586.968Z" transform="translate(-227.846 -525.965)" opacity="0.1"/>
      <path id="Path_2173" data-name="Path 2173" d="M265.64,590.606a3.841,3.841,0,0,1,.521.107,3.366,3.366,0,0,0,.545.022,3.058,3.058,0,0,0,1.05-.215C267.05,590.556,266.344,590.582,265.64,590.606Z" transform="translate(-235.097 -529.146)" opacity="0.1"/>
      <path id="Path_2174" data-name="Path 2174" d="M271.518,594.808a1.628,1.628,0,0,0-.2.055,2.343,2.343,0,0,1-1.2-.083.719.719,0,0,0,.455.257,2.129,2.129,0,0,0,.887.032c.092-.018.324-.051.371-.148C271.9,594.767,271.608,594.789,271.518,594.808Z" transform="translate(-239.001 -532.858)" opacity="0.1"/>
      <path id="Path_2175" data-name="Path 2175" d="M241.664,599.221a3.229,3.229,0,0,0-.346.09,2.939,2.939,0,0,1-1.334-.141,6.193,6.193,0,0,0-1.614-.15,1.428,1.428,0,0,1,.347.114c.129.037.251.072.377.1a7.615,7.615,0,0,0,.754.147,7.815,7.815,0,0,0,1.542.068,2.279,2.279,0,0,0,.85-.109A.943.943,0,0,0,241.664,599.221Z" transform="translate(-211.331 -536.548)" opacity="0.1"/>
      <path id="Path_2176" data-name="Path 2176" d="M261.542,488.744a5.924,5.924,0,0,0,.147,1.514c.053.148.136.42.226.725.1.339.207.718.291,1.013l.139.5s.386,3.105.479,4.584v.077a1.631,1.631,0,0,0,.028.257,8.3,8.3,0,0,0,1.912,3.918,1.285,1.285,0,0,1,.359.245,3.413,3.413,0,0,0-.111-1.194,35.691,35.691,0,0,1-1.308-3.353l-.243.013a1.127,1.127,0,0,0,.011-.129,5.912,5.912,0,0,0-.257-1.491s-.158-1.807-.158-1.885.135-1.343.135-1.343l-.27-1.017-.521-.364c-.064-.784-.219-1.735-.586-1.995a1.458,1.458,0,0,1-.431-.544c-.072.01.06-.054.06-.054Z" transform="translate(-231.37 -439.994)" opacity="0.1"/>
      <path id="Path_2177" data-name="Path 2177" d="M261.2,487.526a.676.676,0,0,1,.572.064,1.444,1.444,0,0,0,.9.136,12.071,12.071,0,0,1,1.659-.17c.117.045.338-.158.485.113s.215.418.361.485.406.283.373.328.373.316.373.316l-.824,2.675a24.523,24.523,0,0,0,.79,3.681c.26.294,2.561,4.1,1.738,4.775a16.562,16.562,0,0,1-2.065,1.388c-.09.045-.418-.564-.869-.757a8.233,8.233,0,0,1-1.938-4.176c-.091-1.445-.486-4.662-.486-4.662s-.485-1.761-.654-2.235a5.925,5.925,0,0,1-.147-1.514Z" transform="translate(-231.227 -439.358)" fill="#ffd538"/>
      <path id="Path_2178" data-name="Path 2178" d="M225.69,508.206l.192.406s.027.121.06.314a.176.176,0,0,0,.1-.042c.283-.226,1.942-1.928,2.02-3.443.058-1.116.031-2.077.013-2.5,0-.135-.012-.216-.012-.234h0s-1.285-1.558-1.14-2.11.479-3.515.479-3.515l.05-.386.085-.654.206-1.586-.212.05a.625.625,0,0,1-.129.128l-.22,1.395-.762.841-.129,5.113.35.915s.287.013.731.026h.044Z" transform="translate(-200.281 -445.423)" opacity="0.1"/>
      <path id="Path_2179" data-name="Path 2179" d="M214.139,499.284s.317-.129.339,0,.08.395.08.395-.053.661.18.918a3.56,3.56,0,0,1,.281,1.351s.386,1.083.2,1.423a9.439,9.439,0,0,0-.269,1.477c-.064.46-.129.969-.185,1.432-.1.842-.179,1.542-.179,1.542s.2.745.486.514,1.942-1.928,2.02-3.443c.055-1.062.033-1.986.014-2.442-.008-.193-.014-.3-.014-.3s-1.285-1.558-1.14-2.11.481-3.508.481-3.508l.059-.457.063-.491.014-.108.2-1.573h0a7.129,7.129,0,0,0-1.469.461,5.092,5.092,0,0,1-1.2.406.9.9,0,0,0-.643.658.991.991,0,0,0-.026.1c-.135.655-.09.734-.181.847A25.7,25.7,0,0,0,214.139,499.284Z" transform="translate(-189.443 -444.944)" fill="#ffd538"/>
      <path id="Path_2180" data-name="Path 2180" d="M225,580.528c.464-.091,1.146-.3,1.131-.771-.014-.441-.545-.6-.946-.657C225.117,579.556,225.053,580.065,225,580.528Z" transform="translate(-199.68 -519.193)" opacity="0.1"/>
      <path id="Path_2181" data-name="Path 2181" d="M213.811,579.6c.018.04.1.075.2.1a5.291,5.291,0,0,0,.752.122s1.569-.129,1.542-.835c-.015-.514-.725-.643-1.123-.677-.157-.013-.265-.01-.265-.01S213.742,579.449,213.811,579.6Z" transform="translate(-189.926 -518.495)" fill="#ae6e79"/>
      <path id="Path_2182" data-name="Path 2182" d="M213.811,579.6c.018.04.1.075.2.1.41-.548.981-1.249,1.26-1.311,0,0-.032-.032-.085-.08-.157-.013-.265-.01-.265-.01S213.743,579.449,213.811,579.6Z" transform="translate(-189.927 -518.495)" opacity="0.1"/>
      <path id="Path_2183" data-name="Path 2183" d="M194.628,512.6l-.463.068a8.025,8.025,0,0,1-.554.846.922.922,0,0,0-.2.542,6.882,6.882,0,0,1-.892,1.117c-.215.112-.541.88-.541.88s-.531.351-.531.745a6.557,6.557,0,0,1-.1.982,2.782,2.782,0,0,0,.3,1.107,3.841,3.841,0,0,1,.441,1.265,6.11,6.11,0,0,0,.812,1.084,4.477,4.477,0,0,1,.395.666l.6,1.128s1.263-1.862,1.727-1.964a3.489,3.489,0,0,0-.779-.587c-.265-.09-.514-.836-.514-1a1.331,1.331,0,0,0-.474-.835c-.236-.1-.361-.2-.257-.361s0-.463,0-.463a4.841,4.841,0,0,0,.756-1.39,1.483,1.483,0,0,1,.7-.846l.35-.859Z" transform="translate(-170.348 -461.24)" fill="#ffd538"/>
      <path id="Path_2184" data-name="Path 2184" d="M197.67,543.046a1.454,1.454,0,0,0-.91-.346,1.115,1.115,0,0,1,.6.233,1.314,1.314,0,0,1,.166.211c.054.076.49.631.559.544C198.183,543.557,197.757,543.124,197.67,543.046Z" transform="translate(-175.07 -487.472)" opacity="0.1"/>
      <path id="Path_2185" data-name="Path 2185" d="M207.826,529.021a.385.385,0,0,1-.323-.229,1.276,1.276,0,0,1-.1-.4,5.906,5.906,0,0,0-.14-.687.448.448,0,0,1-.023-.143.409.409,0,0,1,.044-.137.923.923,0,0,1,.1-.206,1.249,1.249,0,0,1,.141.431c.042.154.082.307.118.463C207.662,528.19,207.815,529.021,207.826,529.021Z" transform="translate(-184.203 -473.981)" opacity="0.1"/>
      <path id="Path_2186" data-name="Path 2186" d="M214.91,455.357a.968.968,0,0,0,.155.161c.181.147.429.27.452.5a.56.56,0,0,0,.027.224c.059.1.206.092.32.072a.551.551,0,0,0,.27-.1c.122-.1.129-.288.225-.418a.568.568,0,0,1,.458-.2c.172-.006.344.032.514.041a1.424,1.424,0,0,0,.33-.023,1.063,1.063,0,0,0,.108-.022,1.408,1.408,0,0,0,.225-.077.925.925,0,0,0,.109-.051,1.472,1.472,0,0,0,.319-.221.793.793,0,0,0,.3-.6,3.808,3.808,0,0,0-.1-.411,1.29,1.29,0,0,1,.483-1.06c.114-.113.237-.224.351-.339a1.7,1.7,0,0,0,.413-.589,1.791,1.791,0,0,0,.075-.735,4.826,4.826,0,0,1-.022-.758,2.661,2.661,0,0,1,1.617-1.959l.033-.018a2.46,2.46,0,1,0-3.308,3.6c.008.028.015.057.022.085a1.847,1.847,0,0,1-.072,1.375h0a7.139,7.139,0,0,0-1.469.461,5.09,5.09,0,0,1-1.2.406A.9.9,0,0,0,214.91,455.357Z" transform="translate(-190.887 -404.875)" opacity="0.1"/>
      <path id="Path_2187" data-name="Path 2187" d="M219.675,440.71c-.051-.058-.129-.087-.179-.144-.161-.174,0-.456-.059-.685a.565.565,0,0,0-.635-.338c-.261.027-.5.147-.765.176a3.327,3.327,0,0,1-1.189-.233,1.142,1.142,0,0,0-1.143.194c-.272.3-.257.816-.591,1.035a3.9,3.9,0,0,1-.521.188,1.1,1.1,0,0,0-.442.422,2.209,2.209,0,0,0-.333,1.414c.028.267.105.528.136.8a2.323,2.323,0,0,1-.054.832.878.878,0,0,1-.5.665.847.847,0,0,0-.188.064c-.159.1-.138.334-.1.514l.168.753c-.158.121-.4.069-.557.2a.466.466,0,0,0-.129.2,1.11,1.11,0,0,0,.33,1.22c.18.147.429.27.452.5a.531.531,0,0,0,.027.222c.059.1.2.094.32.073a.559.559,0,0,0,.269-.1c.128-.1.128-.288.225-.418a.572.572,0,0,1,.458-.2c.174,0,.344.033.514.041a1.528,1.528,0,0,0,1.091-.393.792.792,0,0,0,.3-.6,3.566,3.566,0,0,0-.1-.41,1.3,1.3,0,0,1,.483-1.062,2.9,2.9,0,0,0,.765-.927,6.074,6.074,0,0,0,.051-1.493,2.665,2.665,0,0,1,1.618-1.96C219.582,441.158,219.873,440.936,219.675,440.71Z" transform="translate(-188.815 -397.468)" fill="#212121"/>
      <path id="Path_2188" data-name="Path 2188" d="M219.384,449.27c.129-.1.129-.288.225-.418a.572.572,0,0,1,.458-.2c.174,0,.344.032.514.041a1.525,1.525,0,0,0,1.091-.395.793.793,0,0,0,.3-.6,3.9,3.9,0,0,0-.1-.411,1.29,1.29,0,0,1,.483-1.06,2.841,2.841,0,0,0,.763-.928,6.061,6.061,0,0,0,.053-1.492,2.664,2.664,0,0,1,1.617-1.96c.18-.087.469-.311.271-.536-.05-.058-.129-.087-.179-.144-.159-.174,0-.458-.059-.685a.353.353,0,0,0-.058-.129.487.487,0,0,1,.416.329c.057.229-.1.514.059.685.051.057.129.086.179.144.2.226-.093.449-.271.536a2.657,2.657,0,0,0-1.618,1.96,5.87,5.87,0,0,1-.051,1.492,2.838,2.838,0,0,1-.765.928,1.3,1.3,0,0,0-.483,1.062,3.567,3.567,0,0,1,.1.41.789.789,0,0,1-.3.6,1.523,1.523,0,0,1-1.091.395c-.173-.009-.344-.046-.514-.041a.572.572,0,0,0-.458.2c-.093.129-.1.315-.225.418a.558.558,0,0,1-.269.1c-.116.021-.257.028-.32-.073a.257.257,0,0,1-.026-.129A.527.527,0,0,0,219.384,449.27Z" transform="translate(-194.561 -398.277)" opacity="0.1"/>
    </g>
  </g>
</svg>
