<svg width="30" height="22" viewBox="0 0 30 22" fill="none" xmlns="http://www.w3.org/2000/svg">
<path d="M1.50001 6.69565C1.10223 6.69565 0.720505 6.54449 0.439297 6.27547C0.15809 6.00644 0 5.64132 0 5.2609C0 4.88047 0.158039 4.5153 0.439297 4.24633C0.720556 3.97735 1.10229 3.82614 1.50001 3.82614C1.89774 3.82614 2.27952 3.9773 2.56073 4.24633C2.84193 4.51535 3.00002 4.88047 3.00002 5.2609C2.99958 5.64137 2.84132 6.00605 2.56028 6.27508C2.27902 6.54389 1.89775 6.69527 1.49997 6.6957L1.50001 6.69565ZM1.50001 4.78261C1.29777 4.78261 1.1154 4.89918 1.03817 5.07789C0.960711 5.25659 1.00335 5.4622 1.14643 5.59907C1.28951 5.73593 1.50447 5.77671 1.69131 5.70262C1.87815 5.62874 2.00002 5.45431 2.00002 5.26087C1.99958 4.99697 1.77591 4.78303 1.50001 4.78261Z" fill="#212121" fill-opacity="0.6"/>
<path d="M1.50001 14.3478C1.10223 14.3478 0.720505 14.1967 0.439297 13.9276C0.15809 13.6586 0 13.2935 0 12.9131C0 12.5326 0.158039 12.1675 0.439297 11.8985C0.720556 11.6295 1.10229 11.4783 1.50001 11.4783C1.89774 11.4783 2.27952 11.6295 2.56073 11.8985C2.84193 12.1675 3.00002 12.5326 3.00002 12.9131C2.99958 13.2935 2.84132 13.6582 2.56028 13.9273C2.27902 14.1961 1.89775 14.3474 1.49997 14.3479L1.50001 14.3478ZM1.50001 12.4348C1.29777 12.4348 1.1154 12.5514 1.03817 12.7301C0.960711 12.9088 1.00335 13.1144 1.14643 13.2512C1.28951 13.3881 1.50447 13.4289 1.69131 13.3548C1.87815 13.2809 2.00002 13.1065 2.00002 12.913C1.99958 12.6491 1.77591 12.4352 1.50001 12.4348Z" fill="#212121" fill-opacity="0.6"/>
<path d="M24.5108 9.47339C24.7061 9.66021 25.0226 9.66021 25.218 9.47339C25.4131 9.28657 25.4131 8.98381 25.218 8.79721L23.8034 7.4442C23.6083 7.25759 23.2918 7.25759 23.0965 7.4442C22.9012 7.63102 22.9012 7.93377 23.0965 8.12059L23.4501 8.45879L22.7239 9.15334C21.679 8.29416 20.3743 7.7766 19.0002 7.67647V6.69584H19.5002C19.7763 6.69584 20.0002 6.48169 20.0002 6.21758C20.0002 5.95347 19.7763 5.73932 19.5002 5.73932H17.5001C17.224 5.73932 17.0001 5.95347 17.0001 6.21758C17.0001 6.48169 17.224 6.69584 17.5001 6.69584H18.0001V7.67647C16.0403 7.81867 14.2527 8.80057 13.1362 10.3477C12.0199 11.895 11.6942 13.842 12.2504 15.6451C12.8065 17.4481 14.1849 18.9141 16.0005 19.634C17.8162 20.3538 19.8748 20.2502 21.6014 19.3522C23.328 18.4539 24.5379 16.8578 24.8932 15.0088C25.2483 13.1598 24.711 11.2561 23.4311 9.82967L24.1572 9.13512L24.5108 9.47339ZM18.5003 19.1304C17.0416 19.1304 15.6427 18.5761 14.6112 17.5896C13.5796 16.6029 13.0002 15.2649 13.0002 13.8696C13.0002 12.4742 13.5797 11.1362 14.6112 10.1496C15.6427 9.16293 17.0416 8.60869 18.5003 8.60869C19.9591 8.60869 21.358 9.16298 22.3895 10.1496C23.4211 11.1362 24.0005 12.4742 24.0005 13.8696C23.9989 15.2644 23.4188 16.6016 22.3877 17.5878C21.3567 18.574 19.9586 19.1289 18.5003 19.1304Z" fill="#212121" fill-opacity="0.6"/>
<path d="M18.5001 9.56522C17.3065 9.56522 16.1619 10.0187 15.3181 10.826C14.4741 11.6331 14 12.7279 14 13.8696C14 15.0112 14.4741 16.1061 15.3181 16.9132C16.1619 17.7205 17.3065 18.1739 18.5001 18.1739C19.6937 18.1739 20.8384 17.7204 21.6821 16.9132C22.5262 16.1061 23.0002 15.0112 23.0002 13.8696C22.9989 12.7284 22.5243 11.6343 21.6805 10.8275C20.837 10.0204 19.6932 9.56653 18.5001 9.56522ZM18.8537 14.2078L17.4394 15.5606C17.2441 15.7472 16.9275 15.7472 16.7322 15.5606C16.5369 15.3738 16.5369 15.071 16.7322 14.8842L18.1465 13.5314C18.3423 13.3476 18.6564 13.3491 18.8503 13.5346C19.0443 13.7201 19.0459 14.0205 18.8537 14.2078L18.8537 14.2078Z" fill="#212121" fill-opacity="0.6"/>
<path d="M28 5.73913C28 6.00323 27.7761 6.21739 27.5 6.21739C27.2239 6.21739 27 6.00323 27 5.73913C27 5.47502 27.2239 5.26086 27.5 5.26086C27.7761 5.26086 28 5.47502 28 5.73913Z" fill="#212121" fill-opacity="0.6"/>
<path d="M27.5011 4.30434C27.2249 4.30434 27.001 4.09019 27.001 3.82608V2.86956H25.001C24.7249 2.86956 24.501 2.65541 24.501 2.3913C24.501 2.12719 24.7249 1.91304 25.001 1.91304H27.5011C27.6336 1.91304 27.7609 1.96343 27.8546 2.0531C27.9484 2.14278 28.0011 2.26448 28.0011 2.3913V3.82608C28.0011 3.95291 27.9484 4.07461 27.8546 4.16428C27.7609 4.25396 27.6336 4.30434 27.5011 4.30434Z" fill="#212121" fill-opacity="0.6"/>
<path d="M29.4998 0H2.49904C1.96309 0 1.46799 0.273505 1.19992 0.717391C0.932057 1.16128 0.932057 1.70829 1.19992 2.15217C1.46801 2.59606 1.96309 2.86957 2.49904 2.86957H7.49918C7.7753 2.86957 7.99919 3.08372 7.99919 3.34783C7.99919 3.61194 7.7753 3.82609 7.49918 3.82609H5.49912C4.96317 3.82609 4.46807 4.09959 4.2 4.54348C3.93214 4.98736 3.93214 5.53438 4.2 5.97826C4.46809 6.42215 4.96317 6.69565 5.49912 6.69565H7.49918C7.7753 6.69565 7.99919 6.9098 7.99919 7.17391C7.99919 7.43802 7.7753 7.65217 7.49918 7.65217H3.49907C2.96312 7.65217 2.46801 7.92568 2.19995 8.36957C1.93208 8.81345 1.93208 9.36047 2.19995 9.80435C2.46804 10.2482 2.96311 10.5217 3.49907 10.5217H9.49923C9.77535 10.5217 9.99924 10.7359 9.99924 11C9.99924 11.2641 9.77535 11.4783 9.49923 11.4783H5.49912C4.96317 11.4783 4.46807 11.7518 4.2 12.1957C3.93214 12.6395 3.93214 13.1866 4.2 13.6304C4.46809 14.0743 4.96317 14.3478 5.49912 14.3478H7.49918C7.7753 14.3478 7.99919 14.562 7.99919 14.8261C7.99919 15.0902 7.7753 15.3043 7.49918 15.3043H3.99908C3.46313 15.3043 2.96803 15.5779 2.69996 16.0217C2.4321 16.4656 2.4321 17.0126 2.69996 17.4565C2.96805 17.9004 3.46313 18.1739 3.99908 18.1739H9.49923C9.77535 18.1739 9.99924 18.3881 9.99924 18.6522C9.99924 18.9163 9.77535 19.1304 9.49923 19.1304H2.49904C1.96309 19.1304 1.46799 19.4039 1.19992 19.8478C0.932057 20.2917 0.932057 20.8387 1.19992 21.2826C1.46801 21.7265 1.96309 22 2.49904 22H29.4998C29.6324 22 29.7596 21.9496 29.8533 21.8599C29.9471 21.7703 29.9998 21.6486 29.9998 21.5217V0.478261C29.9998 0.351437 29.9471 0.229735 29.8533 0.140062C29.7596 0.0503896 29.6324 0 29.4998 0ZM28.9998 21.0435H2.49904C2.22292 21.0435 1.99903 20.8293 1.99903 20.5652C1.99903 20.3011 2.22292 20.087 2.49904 20.087H9.49923C10.0352 20.087 10.5303 19.8135 10.7984 19.3696C11.0662 18.9257 11.0662 18.3787 10.7984 17.9348C10.5303 17.4909 10.0352 17.2174 9.49923 17.2174H3.99908C3.72296 17.2174 3.49907 17.0032 3.49907 16.7391C3.49907 16.475 3.72296 16.2609 3.99908 16.2609H7.49918C8.03513 16.2609 8.53023 15.9874 8.7983 15.5435C9.06616 15.0996 9.06616 14.5526 8.7983 14.1087C8.53021 13.6648 8.03513 13.3913 7.49918 13.3913H5.49912C5.223 13.3913 4.99911 13.1772 4.99911 12.913C4.99911 12.6489 5.223 12.4348 5.49912 12.4348H9.49923C10.0352 12.4348 10.5303 12.1613 10.7984 11.7174C11.0662 11.2735 11.0662 10.7265 10.7984 10.2826C10.5303 9.83872 10.0352 9.56522 9.49923 9.56522H3.49907C3.22295 9.56522 2.99906 9.35107 2.99906 9.08696C2.99906 8.82285 3.22295 8.6087 3.49907 8.6087H7.49918C8.03513 8.6087 8.53023 8.33519 8.7983 7.8913C9.06616 7.44742 9.06616 6.9004 8.7983 6.45652C8.53021 6.01264 8.03513 5.73913 7.49918 5.73913H5.49912C5.223 5.73913 4.99911 5.52498 4.99911 5.26087C4.99911 4.99676 5.223 4.78261 5.49912 4.78261H7.49918C8.03513 4.78261 8.53023 4.5091 8.7983 4.06522C9.06616 3.62133 9.06616 3.07432 8.7983 2.63043C8.53021 2.18655 8.03513 1.91304 7.49918 1.91304H2.49904C2.22292 1.91304 1.99903 1.69889 1.99903 1.43478C1.99903 1.17067 2.22292 0.956522 2.49904 0.956522H14.9994V5.26087C14.9994 5.42655 15.0891 5.5805 15.2364 5.66782C15.384 5.75493 15.5679 5.76283 15.7231 5.68874L18.4995 4.36093L21.2759 5.68874C21.431 5.76283 21.615 5.75493 21.7625 5.66782C21.9098 5.58049 21.9996 5.42655 21.9996 5.26087V0.956522H28.9998V21.0435Z" fill="#212121" fill-opacity="0.6"/>
</svg>
