<svg xmlns="http://www.w3.org/2000/svg" width="115.512" height="115.74" viewBox="0 0 115.512 115.74">
  <circle id="Ellipse_6" data-name="Ellipse 6" cx="57.756" cy="57.756" r="57.756" fill="#f5f5f5"/>
  <path id="Path_61" data-name="Path 61" d="M101.6,133.682a57.479,57.479,0,0,0,31.747-9.5c-2.128-11.631-10.228-12.294-10.228-12.294H78.456s-7.643.627-10.03,11.327A57.49,57.49,0,0,0,101.6,133.682Z" transform="translate(-43.792 -17.942)" fill="#ffd538"/>
  <circle id="Ellipse_7" data-name="Ellipse 7" cx="27.877" cy="27.877" r="27.877" transform="translate(29.319 28.661)" fill="#211e1f"/>
  <path id="Path_63" data-name="Path 63" d="M50.125,79.963H66.861a.566.566,0,0,1,.566.566V94.253a8.932,8.932,0,0,1-8.936,8.933h0a8.931,8.931,0,0,1-8.931-8.931V80.529a.566.566,0,0,1,.563-.566Z" transform="translate(-1.359 -0.867)" fill="#9e9e9e"/>
  <circle id="Ellipse_8" data-name="Ellipse 8" cx="25.603" cy="25.603" r="25.603" transform="translate(31.593 36.492)" fill="#9e9e9e"/>
  <path id="Path_66" data-name="Path 66" d="M82.75,56.427s10.791,21.9,41.229,9.18l-7.087-11.112L104.33,49.986Z" transform="translate(-43.792 -17.942)" fill="#211e1f"/>
  <path id="Path_67" data-name="Path 67" d="M82.656,54.943a14.791,14.791,0,0,1,3.667-5.963C91.359,44,99.615,42.952,103.85,37.275a3.315,3.315,0,0,1-1.521,4.674c4.057-.027,8.759-.382,11.053-3.719a7.589,7.589,0,0,1-1.28,8.013c3.6.169,7.438,2.6,7.665,6.2a7.169,7.169,0,0,1-3.312,6.032,18.348,18.348,0,0,1-6.688,2.519C102.93,62.5,78.194,68.817,82.656,54.943Z" transform="translate(-43.792 -17.942)" fill="#211e1f"/>
  <ellipse id="Ellipse_10" data-name="Ellipse 10" cx="2.382" cy="4.466" rx="2.382" ry="4.466" transform="translate(80.414 57.605)" fill="#9e9e9e"/>
</svg>
