<svg xmlns="http://www.w3.org/2000/svg" width="18.397" height="18.395" viewBox="0 0 18.397 18.395">
  <defs>
    <style>
      .cls-1 {
        fill: #FFFFFF;
      }
    </style>
  </defs>
  <path id="Icon_ionic-ios-send" data-name="Icon ionic-ios-send" class="cls-1" d="M22.32,4.544,4.731,12.21a.4.4,0,0,0,.014.733L9.5,15.631a.767.767,0,0,0,.877-.086l9.381-8.088c.062-.053.211-.153.268-.1s-.034.206-.086.268l-8.117,9.142a.765.765,0,0,0-.077.915l3.11,4.988a.4.4,0,0,0,.728-.01L22.861,5.076A.4.4,0,0,0,22.32,4.544Z" transform="translate(-4.503 -4.503)"/>
</svg>
