
<svg width="16" height="17" viewBox="0 0 16 17" fill="none" xmlns="http://www.w3.org/2000/svg">
<path d="M7.99651 0.897461C5.81958 0.897461 3.82503 1.7616 2.38554 3.17505L2.33583 3.22022C0.884082 4.6541 0 6.64257 0 8.82015C0 11.0168 0.884082 13.0013 2.33583 14.4393C3.78757 15.8718 5.7946 16.7607 7.99652 16.7607C10.1874 16.7607 12.168 15.8911 13.602 14.4831L13.6586 14.4393C15.1035 13 16 11.017 16 8.82015C16 6.64251 15.1035 4.65268 13.6586 3.22022C12.2069 1.77395 10.1999 0.897486 7.99652 0.897486L7.99651 0.897461ZM12.396 13.1873L12.3573 13.2242C11.2344 14.3199 9.69409 15.0017 7.99649 15.0017C6.27947 15.0017 4.72135 14.3006 3.59147 13.187C2.47409 12.0737 1.76671 10.5344 1.76671 8.81824C1.76671 7.12276 2.47249 5.5766 3.59147 4.46325L3.63425 4.42106C4.75857 3.33911 6.29201 2.65569 7.99511 2.65569C9.71769 2.65569 11.2717 3.34463 12.3946 4.45798V4.46486C13.53 5.57821 14.2249 7.12437 14.2249 8.81985C14.2263 10.5346 13.5314 12.0739 12.3959 13.1872L12.396 13.1873Z" fill="#4B7BE5"/>
<path d="M11.3605 5.49073C11.0139 5.14705 10.4517 5.14705 10.0979 5.49073L7.99564 7.58051L5.89336 5.49073C5.54117 5.14705 4.98453 5.14705 4.63075 5.49073C4.29105 5.84129 4.29105 6.39866 4.63075 6.74254L6.73304 8.82017L4.63075 10.9099C4.29105 11.2605 4.29105 11.8179 4.63075 12.1618C4.98433 12.5054 5.54094 12.5054 5.89336 12.1618L7.99564 10.072L10.0979 12.1618C10.4515 12.5054 11.0137 12.5054 11.3605 12.1618C11.7016 11.8181 11.7016 11.2607 11.3605 10.9099L9.25274 8.82017L11.3605 6.74254C11.7018 6.39863 11.7018 5.82892 11.3605 5.49073Z" fill="#4B7BE5"/>
</svg>
