
<svg width="172" height="171" viewBox="0 0 172 171" fill="none" xmlns="http://www.w3.org/2000/svg">
<path d="M87.773 141.43C125.384 141.43 155.874 110.94 155.874 73.3291C155.874 35.718 125.384 5.22815 87.773 5.22815C50.162 5.22815 19.6721 35.718 19.6721 73.3291C19.6721 110.94 50.162 141.43 87.773 141.43Z" fill="white" stroke="#E1E4E5" stroke-width="1.2" stroke-linejoin="bevel"/>
<path d="M123.139 28.2544L94.1913 57.2019" stroke="#E1E4E5" stroke-width="1.2" stroke-linejoin="bevel"/>
<path d="M120.477 20.9447L93.9927 47.4286L103.636 57.072L130.12 30.5882L120.477 20.9447Z" fill="white" stroke="#E1E4E5" stroke-width="1.2" stroke-linejoin="bevel"/>
<path d="M115.713 25.7082L111.44 29.9816L121.083 39.625L125.357 35.3519L115.713 25.7082ZM111.316 30.1053L107.043 34.3787L116.686 44.0221L120.96 39.749L111.316 30.1053ZM106.919 34.5024L102.645 38.7758L112.289 48.4192L116.563 44.1461L106.919 34.5024ZM102.522 38.8995L98.2484 43.1728L107.892 52.8163L112.165 48.5432L102.522 38.8995ZM98.1247 43.2968L93.8513 47.5702L103.495 57.2137L107.768 52.9405L98.1247 43.2968Z" fill="white" stroke="#E1E4E5" stroke-width="1.2" stroke-linejoin="bevel"/>
<path d="M53.1969 97.5466L82.1447 68.5988" stroke="#E1E4E5" stroke-width="1.2" stroke-linejoin="bevel"/>
<path d="M55.8595 104.856L82.3433 78.3725L72.6996 68.729L46.2157 95.2129L55.8595 104.856Z" fill="white" stroke="#E1E4E5" stroke-width="1.2" stroke-linejoin="bevel"/>
<path d="M60.623 100.093L64.8964 95.8193L55.2527 86.1759L50.9793 90.449L60.623 100.093ZM65.0201 95.6956L69.2935 91.4222L59.6498 81.7788L55.3764 86.0519L65.0201 95.6956ZM69.4172 91.2985L73.6906 87.0252L64.0469 77.3817L59.7735 81.6548L69.4172 91.2985ZM73.8143 86.9015L78.0877 82.6281L68.444 72.9846L64.1706 77.2577L73.8143 86.9015ZM78.2114 82.5044L82.4848 78.231L72.8411 68.5875L68.5677 72.8606L78.2114 82.5044Z" fill="white" stroke="#E1E4E5" stroke-width="1.2" stroke-linejoin="bevel"/>
<path d="M53.1969 28.2542L82.1444 57.202" stroke="#E1E4E5" stroke-width="1.2" stroke-linejoin="bevel"/>
<path d="M55.8595 20.9447L82.3433 47.4286L72.6996 57.072L46.2157 30.5882L55.8595 20.9447Z" fill="white" stroke="#E1E4E5" stroke-width="1.2" stroke-linejoin="bevel"/>
<path d="M60.623 25.7082L64.8964 29.9816L55.2527 39.625L50.9793 35.3519L60.623 25.7082ZM65.0201 30.1053L69.2935 34.3787L59.6498 44.0221L55.3764 39.749L65.0201 30.1053ZM69.4172 34.5024L73.6906 38.7758L64.0469 48.4192L59.7735 44.1461L69.4172 34.5024ZM73.8143 38.8995L78.0877 43.1728L68.444 52.8163L64.1706 48.5432L73.8143 38.8995ZM78.2114 43.2968L82.4848 47.5702L72.8411 57.2137L68.5677 52.9405L78.2114 43.2968Z" fill="white" stroke="#E1E4E5" stroke-width="1.2" stroke-linejoin="bevel"/>
<path d="M123.139 97.5465L94.1916 68.599" stroke="#E1E4E5" stroke-width="1.2" stroke-linejoin="bevel"/>
<path d="M120.477 104.856L93.9927 78.3725L103.636 68.729L130.12 95.2129L120.477 104.856Z" fill="white" stroke="#E1E4E5" stroke-width="1.2" stroke-linejoin="bevel"/>
<path d="M115.713 100.093L111.44 95.8193L121.083 86.1759L125.357 90.449L115.713 100.093ZM111.316 95.6956L107.043 91.4222L116.686 81.7788L120.96 86.0519L111.316 95.6956ZM106.919 91.2985L102.645 87.0252L112.289 77.3817L116.563 81.6548L106.919 91.2985ZM102.522 86.9012L98.2484 82.6278L107.892 72.9843L112.165 77.2575L102.522 86.9012ZM98.1247 82.5044L93.8513 78.231L103.495 68.5875L107.768 72.8606L98.1247 82.5044Z" fill="white" stroke="#E1E4E5" stroke-width="1.2" stroke-linejoin="bevel"/>
<path d="M87.9886 74.7645C93.8573 74.7645 98.6149 70.0069 98.6149 64.1382C98.6149 58.2695 93.8573 53.512 87.9886 53.512C82.1199 53.512 77.3624 58.2695 77.3624 64.1382C77.3624 70.0069 82.1199 74.7645 87.9886 74.7645Z" fill="white" stroke="#E1E4E5" stroke-width="1.2" stroke-linejoin="bevel"/>
<path d="M84.3002 64.2101V60.2871C84.3002 58.4 85.8277 56.8701 87.7115 56.8701V64.2101H84.3002ZM87.9229 64.2101V56.8701C89.8071 56.8701 91.3345 58.4 91.3345 60.2871V64.2101H87.9229Z" fill="white" stroke="#E1E4E5" stroke-width="1.2"/>
<path fill-rule="evenodd" clip-rule="evenodd" d="M61.4837 117.759C61.9246 117.759 62.3551 117.803 62.7709 117.888C63.7932 117.243 64.9776 116.902 66.1862 116.904C69.7278 116.904 72.5985 119.775 72.5985 123.316C72.5985 126.858 69.7278 129.729 66.1862 129.729C65.7454 129.729 65.3149 129.684 64.8991 129.599C63.8768 130.244 62.6924 130.585 61.4837 130.583C59.0222 130.583 56.8847 129.197 55.8099 127.162C53.7388 127.1 52.0787 125.402 52.0787 123.316C52.0787 121.191 53.8012 119.469 55.9262 119.469C56.2891 119.469 56.6406 119.519 56.9736 119.613C58.1729 118.423 59.7944 117.756 61.4837 117.759Z" fill="white"/>
<path d="M62.7709 117.888L62.6622 118.422L63.0616 118.349L62.7709 117.888ZM64.8991 129.599L65.0078 129.065L64.6084 129.138L64.8991 129.599ZM55.8099 127.162L56.2919 126.907L55.8262 126.617L55.8099 127.162ZM56.9736 119.613L56.8254 120.137L57.3567 120L56.9736 119.613ZM62.8796 117.354C62.4202 117.26 61.9525 117.213 61.4837 117.214V118.303C61.8878 118.303 62.2818 118.344 62.6622 118.422L62.8796 117.354ZM66.1863 116.359C64.8747 116.357 63.5895 116.727 62.4802 117.427L63.0616 118.349C63.9969 117.759 65.0805 117.446 66.1863 117.448V116.359ZM73.1435 123.316C73.1435 119.473 70.0286 116.359 66.1863 116.359V117.448C69.4267 117.448 72.0536 120.075 72.0536 123.316H73.1435ZM66.1863 130.273C70.0286 130.273 73.1435 127.158 73.1435 123.316H72.0536C72.0536 126.556 69.4267 129.184 66.1863 129.184V130.273ZM64.7901 130.133C65.2496 130.227 65.7174 130.274 66.1863 130.273V129.184C65.7822 129.184 65.3882 129.143 65.0078 129.065L64.7901 130.133ZM61.4837 131.128C62.845 131.128 64.1163 130.737 65.1896 130.06L64.6084 129.138C63.6731 129.728 62.5895 130.04 61.4837 130.038V131.128ZM55.3281 127.416C56.4938 129.623 58.8125 131.128 61.4837 131.128V130.038C59.2323 130.038 57.276 128.771 56.2919 126.907L55.3281 127.416ZM51.5338 123.316C51.5338 125.698 53.429 127.636 55.7938 127.706L55.8262 126.617C54.0486 126.564 52.6236 125.106 52.6236 123.316H51.5338ZM55.9262 118.924C53.5004 118.924 51.5338 120.89 51.5338 123.316H52.6236C52.6236 121.492 54.1023 120.013 55.9262 120.013V118.924ZM57.1215 119.088C56.7326 118.979 56.3303 118.923 55.9262 118.924V120.013C56.2387 120.013 56.5401 120.057 56.8254 120.137L57.1215 119.088ZM61.4837 117.214C59.6508 117.211 57.8915 117.935 56.5902 119.225L57.3567 120C58.454 118.911 59.9379 118.301 61.4837 118.303V117.214Z" fill="#E1E4E5"/>
<path fill-rule="evenodd" clip-rule="evenodd" d="M110.157 129.729C110.598 129.729 111.029 129.684 111.445 129.599C112.467 130.244 113.651 130.585 114.86 130.583C117.321 130.583 119.459 129.197 120.534 127.162C122.605 127.1 124.265 125.402 124.265 123.316C124.265 121.191 122.542 119.469 120.417 119.469C120.054 119.469 119.703 119.519 119.37 119.613C118.171 118.423 116.549 117.756 114.86 117.759C114.419 117.759 113.989 117.803 113.573 117.888C112.55 117.243 111.366 116.902 110.157 116.904C106.616 116.904 103.745 119.775 103.745 123.316C103.745 126.858 106.616 129.729 110.157 129.729Z" fill="white"/>
<path d="M111.445 129.599L111.735 129.138L111.336 129.065L111.445 129.599ZM120.534 127.162L120.517 126.617L120.052 126.907L120.534 127.162ZM119.37 119.613L118.987 120L119.518 120.137L119.37 119.613ZM113.573 117.888L113.282 118.349L113.682 118.422L113.573 117.888ZM111.336 129.065C110.948 129.144 110.553 129.184 110.157 129.184V130.273C110.626 130.274 111.094 130.227 111.553 130.133L111.336 129.065ZM114.86 130.038C113.754 130.04 112.67 129.728 111.735 129.138L111.154 130.06C112.263 130.76 113.548 131.13 114.86 131.128V130.038ZM120.052 126.907C119.067 128.771 117.111 130.038 114.86 130.038V131.128C117.531 131.128 119.85 129.623 121.015 127.416L120.052 126.907ZM123.72 123.316C123.72 125.106 122.295 126.564 120.517 126.617L120.55 127.706C122.914 127.636 124.81 125.698 124.81 123.316H123.72ZM120.417 120.013C122.241 120.013 123.72 121.492 123.72 123.316H124.81C124.81 120.89 122.843 118.924 120.417 118.924V120.013ZM119.518 120.137C119.811 120.055 120.113 120.013 120.417 120.013V118.924C120.004 118.924 119.603 118.981 119.222 119.088L119.518 120.137ZM114.86 118.303C116.406 118.301 117.89 118.911 118.987 120L119.753 119.225C118.452 117.935 116.693 117.211 114.86 117.214V118.303ZM113.682 118.422C114.069 118.343 114.464 118.303 114.86 118.303V117.214C114.382 117.214 113.915 117.262 113.464 117.354L113.682 118.422ZM110.157 117.448C111.307 117.448 112.378 117.778 113.282 118.349L113.863 117.427C112.754 116.727 111.469 116.357 110.157 116.359V117.448ZM104.29 123.316C104.29 120.075 106.917 117.448 110.157 117.448V116.359C106.315 116.359 103.2 119.473 103.2 123.316H104.29ZM110.157 129.184C106.917 129.184 104.29 126.556 104.29 123.316H103.2C103.2 127.158 106.315 130.273 110.157 130.273V129.184Z" fill="#E1E4E5"/>
<path fill-rule="evenodd" clip-rule="evenodd" d="M101.55 120.312C101.187 120.238 100.818 120.201 100.447 120.201C98.9991 120.199 97.6092 120.771 96.5812 121.791C96.2891 121.708 95.9871 121.667 95.6837 121.667C93.8622 121.667 92.3857 123.144 92.3857 124.965C92.3857 126.753 93.8085 128.208 95.5839 128.261C96.5051 130.005 98.3372 131.194 100.447 131.194C101.523 131.194 102.527 130.885 103.375 130.351C103.731 130.423 104.1 130.461 104.478 130.461C107.513 130.461 109.974 128.001 109.974 124.965C109.974 121.929 107.513 119.469 104.478 119.469C103.442 119.467 102.427 119.759 101.55 120.312ZM70.7665 130.828C71.1444 130.828 71.5133 130.79 71.8697 130.717C72.7459 131.27 73.7611 131.562 74.7971 131.561C76.9068 131.561 78.7391 130.372 79.6604 128.628C81.4355 128.575 82.8586 127.119 82.8586 125.331C82.8586 123.51 81.3821 122.034 79.5606 122.034C79.2495 122.034 78.9484 122.077 78.6631 122.157C77.6352 121.137 76.2452 120.566 74.7971 120.568C74.4192 120.568 74.0502 120.606 73.6938 120.679C72.8176 120.126 71.8024 119.833 70.7665 119.835C67.7309 119.835 65.27 122.296 65.27 125.331C65.27 128.367 67.7309 130.828 70.7665 130.828Z" fill="white"/>
<path d="M101.55 120.312L101.441 120.846L101.841 120.773L101.55 120.312ZM96.5812 121.791L96.4332 122.315L96.9645 122.178L96.5812 121.791ZM95.5839 128.261L96.0657 128.007L95.6 127.717L95.5839 128.261ZM103.375 130.351L103.483 129.817L103.084 129.89L103.375 130.351ZM71.8697 130.717L72.1604 130.256L71.761 130.183L71.8697 130.717ZM79.6604 128.628L79.6443 128.083L79.1786 128.373L79.6604 128.628ZM78.6631 122.157L78.2798 122.544L78.8111 122.682L78.6631 122.157ZM73.6939 120.679L73.4031 121.14L73.8026 121.213L73.6939 120.679ZM100.447 120.746C100.788 120.746 101.121 120.781 101.441 120.846L101.659 119.778C101.26 119.697 100.854 119.656 100.447 119.657V120.746ZM96.9645 122.178C97.8906 121.259 99.1427 120.744 100.447 120.746V119.657C98.8556 119.655 97.3279 120.283 96.1978 121.403L96.9645 122.178ZM95.6837 122.212C95.9441 122.212 96.1954 122.248 96.4332 122.315L96.7291 121.266C96.3889 121.17 96.0371 121.122 95.6837 121.122V122.212ZM92.9306 124.965C92.9306 123.445 94.163 122.212 95.6837 122.212V121.122C93.5611 121.122 91.8408 122.842 91.8408 124.965H92.9306ZM95.6 127.717C94.1183 127.673 92.9306 126.457 92.9306 124.965H91.8408C91.8408 127.049 93.4987 128.745 95.5676 128.806L95.6 127.717ZM100.447 130.649C98.5473 130.649 96.8964 129.58 96.0657 128.007L95.1019 128.516C96.1139 130.432 98.1274 131.739 100.447 131.739V130.649ZM103.084 129.89C102.295 130.387 101.38 130.651 100.447 130.649V131.739C101.629 131.739 102.733 131.399 103.665 130.812L103.084 129.89ZM104.478 129.916C104.137 129.916 103.804 129.882 103.483 129.817L103.266 130.885C103.658 130.964 104.063 131.006 104.478 131.006V129.916ZM109.429 124.965C109.429 127.7 107.212 129.916 104.478 129.916V131.006C107.814 131.006 110.519 128.301 110.519 124.965H109.429ZM104.478 120.013C107.212 120.013 109.429 122.23 109.429 124.965H110.519C110.519 121.628 107.814 118.924 104.478 118.924V120.013ZM101.841 120.773C102.63 120.275 103.545 120.012 104.478 120.013V118.924C103.296 118.924 102.192 119.264 101.26 119.851L101.841 120.773ZM71.761 130.183C71.44 130.248 71.1076 130.283 70.7665 130.283V131.373C71.1812 131.373 71.5866 131.331 71.9787 131.251L71.761 130.183ZM74.7971 131.016C73.8271 131.016 72.9236 130.737 72.1604 130.256L71.5792 131.178C72.5424 131.785 73.6583 132.107 74.7971 132.106V131.016ZM79.1786 128.373C78.3479 129.946 76.697 131.016 74.7971 131.016V132.106C77.1169 132.106 79.1301 130.798 80.1421 128.882L79.1786 128.373ZM82.3137 125.331C82.3137 126.824 81.1257 128.039 79.6443 128.083L79.6764 129.172C81.7456 129.111 83.4035 127.415 83.4035 125.331H82.3137ZM79.5606 122.578C81.081 122.578 82.3137 123.811 82.3137 125.331H83.4035C83.4035 123.209 81.6832 121.489 79.5606 121.489V122.578ZM78.8111 122.682C79.055 122.613 79.3072 122.578 79.5606 122.578V121.489C79.1991 121.489 78.8481 121.539 78.5152 121.633L78.8111 122.682ZM74.7971 121.113C76.1016 121.111 77.3538 121.626 78.2798 122.544L79.0465 121.77C77.9164 120.649 76.3887 120.021 74.7971 120.023V121.113ZM73.8026 121.213C74.1299 121.146 74.4631 121.112 74.7971 121.113V120.023C74.39 120.023 73.984 120.063 73.5852 120.145L73.8026 121.213ZM70.7665 120.38C71.7367 120.38 72.6402 120.658 73.4031 121.14L73.9846 120.218C73.0213 119.61 71.9053 119.288 70.7665 119.29V120.38ZM65.8149 125.331C65.8149 122.597 68.032 120.38 70.7665 120.38V119.29C67.4298 119.29 64.725 121.995 64.725 125.331H65.8149ZM70.7665 130.283C68.032 130.283 65.8149 128.066 65.8149 125.331H64.725C64.725 128.668 67.4298 131.373 70.7665 131.373V130.283Z" fill="#E1E4E5"/>
<path d="M37.7921 124.518H137.452V132.974H37.7921V124.518ZM57.1202 132.974H118.124V141.43H57.1202V132.974ZM70.4082 115.76H106.044V124.216H70.4082V115.76Z" fill="white" stroke="#E1E4E5" stroke-width="1.2" stroke-linejoin="bevel"/>
<path d="M70.4081 115.76H72.5222V117.874H70.4081V115.76Z" fill="white" stroke="#E1E4E5" stroke-width="1.2" stroke-linejoin="bevel"/>
<path d="M72.522 115.76H74.9379V117.874H72.522V115.76ZM74.9382 115.76H77.0523V117.874H74.9382V115.76Z" fill="white" stroke="#E1E4E5" stroke-width="1.2" stroke-linejoin="bevel"/>
<path d="M77.052 115.76H79.1661V117.874H77.052V115.76ZM79.1661 115.76H81.5821V117.874H79.1661V115.76Z" fill="white" stroke="#E1E4E5" stroke-width="1.2" stroke-linejoin="bevel"/>
<path d="M81.582 115.76H83.6961V117.874H81.582V115.76ZM83.6961 115.76H85.8102V117.874H83.6961V115.76ZM85.8102 115.76H87.9243V117.874H85.8102V115.76Z" fill="white" stroke="#E1E4E5" stroke-width="1.2" stroke-linejoin="bevel"/>
<path d="M87.924 115.76H90.34V117.874H87.924V115.76ZM90.34 115.76H92.4541V117.874H90.34V115.76ZM92.4541 115.76H94.5681V117.874H92.4541V115.76Z" fill="white" stroke="#E1E4E5" stroke-width="1.2" stroke-linejoin="bevel"/>
<path d="M94.5681 115.76H96.9841V117.874H94.5681V115.76ZM96.9841 115.76H99.0982V117.874H96.9841V115.76ZM99.0982 115.76H101.212V117.874H99.0982V115.76Z" fill="white" stroke="#E1E4E5" stroke-width="1.2" stroke-linejoin="bevel"/>
<path d="M101.212 115.76H103.628V117.874H101.212V115.76ZM103.628 115.76H105.742V117.874H103.628V115.76ZM70.4081 117.874H72.5222V119.988H70.4081V117.874Z" fill="white" stroke="#E1E4E5" stroke-width="1.2" stroke-linejoin="bevel"/>
<path d="M72.522 117.874H74.9379V119.988H72.522V117.874ZM74.9382 117.874H77.0523V119.988H74.9382V117.874Z" fill="white" stroke="#E1E4E5" stroke-width="1.2" stroke-linejoin="bevel"/>
<path d="M77.052 117.874H79.1661V119.988H77.052V117.874ZM79.1661 117.874H81.5821V119.988H79.1661V117.874Z" fill="white" stroke="#E1E4E5" stroke-width="1.2" stroke-linejoin="bevel"/>
<path d="M81.582 117.874H83.6961V119.988H81.582V117.874ZM83.6961 117.874H85.8102V119.988H83.6961V117.874ZM85.8102 117.874H87.9243V119.988H85.8102V117.874Z" fill="white" stroke="#E1E4E5" stroke-width="1.2" stroke-linejoin="bevel"/>
<path d="M87.924 117.874H90.34V119.988H87.924V117.874ZM90.34 117.874H92.4541V119.988H90.34V117.874ZM92.4541 117.874H94.5681V119.988H92.4541V117.874Z" fill="white" stroke="#E1E4E5" stroke-width="1.2" stroke-linejoin="bevel"/>
<path d="M94.5681 117.874H96.9841V119.988H94.5681V117.874ZM96.9841 117.874H99.0982V119.988H96.9841V117.874ZM99.0982 117.874H101.212V119.988H99.0982V117.874Z" fill="white" stroke="#E1E4E5" stroke-width="1.2" stroke-linejoin="bevel"/>
<path d="M101.212 117.874H103.628V119.988H101.212V117.874ZM103.628 117.874H105.742V119.988H103.628V117.874ZM70.4081 119.988H72.5222V122.102H70.4081V119.988Z" fill="white" stroke="#E1E4E5" stroke-width="1.2" stroke-linejoin="bevel"/>
<path d="M72.522 119.988H74.9379V122.102H72.522V119.988ZM74.9382 119.988H77.0523V122.102H74.9382V119.988Z" fill="white" stroke="#E1E4E5" stroke-width="1.2" stroke-linejoin="bevel"/>
<path d="M77.052 119.988H79.1661V122.102H77.052V119.988ZM79.1661 119.988H81.5821V122.102H79.1661V119.988Z" fill="white" stroke="#E1E4E5" stroke-width="1.2" stroke-linejoin="bevel"/>
<path d="M81.582 119.988H83.6961V122.102H81.582V119.988ZM83.6961 119.988H85.8102V122.102H83.6961V119.988ZM85.8102 119.988H87.9243V122.102H85.8102V119.988Z" fill="white" stroke="#E1E4E5" stroke-width="1.2" stroke-linejoin="bevel"/>
<path d="M87.924 119.988H90.34V122.102H87.924V119.988ZM90.34 119.988H92.4541V122.102H90.34V119.988ZM92.4541 119.988H94.5681V122.102H92.4541V119.988Z" fill="white" stroke="#E1E4E5" stroke-width="1.2" stroke-linejoin="bevel"/>
<path d="M94.5681 119.988H96.9841V122.102H94.5681V119.988ZM96.9841 119.988H99.0982V122.102H96.9841V119.988ZM99.0982 119.988H101.212V122.102H99.0982V119.988Z" fill="white" stroke="#E1E4E5" stroke-width="1.2" stroke-linejoin="bevel"/>
<path d="M101.212 119.988H103.628V122.102H101.212V119.988ZM103.628 119.988H105.742V122.102H103.628V119.988ZM70.4081 122.102H72.5222V124.216H70.4081V122.102Z" fill="white" stroke="#E1E4E5" stroke-width="1.2" stroke-linejoin="bevel"/>
<path d="M72.522 122.102H74.9379V124.216H72.522V122.102ZM74.9382 122.102H77.0523V124.216H74.9382V122.102Z" fill="white" stroke="#E1E4E5" stroke-width="1.2" stroke-linejoin="bevel"/>
<path d="M77.052 122.102H79.1661V124.216H77.052V122.102ZM79.1661 122.102H81.5821V124.216H79.1661V122.102Z" fill="white" stroke="#E1E4E5" stroke-width="1.2" stroke-linejoin="bevel"/>
<path d="M81.582 122.102H83.6961V124.216H81.582V122.102ZM83.6961 122.102H85.8102V124.216H83.6961V122.102ZM85.8102 122.102H87.9243V124.216H85.8102V122.102Z" fill="white" stroke="#E1E4E5" stroke-width="1.2" stroke-linejoin="bevel"/>
<path d="M87.924 122.102H90.34V124.216H87.924V122.102ZM90.34 122.102H92.4541V124.216H90.34V122.102ZM92.4541 122.102H94.5681V124.216H92.4541V122.102Z" fill="white" stroke="#E1E4E5" stroke-width="1.2" stroke-linejoin="bevel"/>
<path d="M94.5681 122.102H96.9841V124.216H94.5681V122.102ZM96.9841 122.102H99.0982V124.216H96.9841V122.102ZM99.0982 122.102H101.212V124.216H99.0982V122.102Z" fill="white" stroke="#E1E4E5" stroke-width="1.2" stroke-linejoin="bevel"/>
<path d="M101.212 122.102H103.628V124.216H101.212V122.102ZM103.628 122.102H105.742V124.216H103.628V122.102ZM77.7558 71.366H98.6966L106.044 115.76H70.4081L77.7558 71.366Z" fill="white" stroke="#E1E4E5" stroke-width="1.2" stroke-linejoin="bevel"/>
<path d="M77.7285 71.4667H98.6148L102.279 65.9702H74.0644L77.7285 71.4667Z" fill="white" stroke="#E1E4E5" stroke-width="1.2" stroke-linejoin="bevel"/>
<path d="M84.6021 82.5398V80.1189C84.6021 78.9541 86.1295 78.01 88.0134 78.01V82.5398H84.6021ZM88.2251 82.5398V78.01C90.1089 78.01 91.6364 78.9541 91.6364 80.1189V82.5398H88.2251ZM84.6021 82.5398V84.9609C84.6021 86.1257 86.1295 87.0698 88.0134 87.0698V82.5398H84.6021ZM88.2251 82.5401V87.0698C90.1089 87.0698 91.6364 86.1257 91.6364 84.9609V82.5401H88.2251ZM84.6021 98.5459V96.1248C84.6021 94.9602 86.1295 94.0159 88.0137 94.0159V98.5459H84.6021ZM88.2251 98.5459V94.0159C90.1089 94.0159 91.6364 94.9602 91.6364 96.1248V98.5459H88.2251ZM84.6021 98.5459V100.967C84.6021 102.132 86.1295 103.076 88.0134 103.076V98.5459H84.6021Z" fill="white" stroke="#E1E4E5" stroke-width="1.2"/>
<path d="M88.2251 98.546V103.076C90.1089 103.076 91.6364 102.132 91.6364 100.967V98.546H88.2251Z" fill="white" stroke="#E1E4E5" stroke-width="1.2"/>
<path fill-rule="evenodd" clip-rule="evenodd" d="M55.3134 50.226C58.0945 50.226 56.7932 45.7907 53.2699 46.8501C53.0748 40.6918 43.0941 36.186 38.967 44.4921C37.8 43.5633 35.18 45.3174 35.7601 46.8501C34.4639 46.9612 33.4444 47.1119 32.6509 47.3116C30.8191 47.7729 31.1818 50.2053 33.07 50.1881L55.3134 50.226ZM99.4056 28.18C102.187 28.18 100.885 23.7448 97.3621 24.8042C97.167 18.6458 87.1862 14.1398 83.0589 22.4462C81.8921 21.5174 79.2718 23.2715 79.8522 24.8042C78.5561 24.9153 77.5362 25.066 76.743 25.2657C74.9112 25.727 75.2736 28.1593 77.1618 28.1422L99.4056 28.18ZM155.578 24.254C158.358 24.254 157.057 19.8188 153.534 20.8782C153.339 14.7198 143.358 10.2138 139.231 18.52C138.064 17.5914 135.444 19.3455 136.024 20.8782C134.728 20.9893 133.708 21.14 132.915 21.3397C131.083 21.801 131.446 24.2331 133.334 24.2162L155.578 24.254ZM25.5665 50.226H5.64935C4.03688 50.226 3.34155 48.2018 4.66138 47.3037L4.71724 47.2659C6.59645 46.0136 9.06256 46.1275 9.06256 46.1275C9.06256 46.1275 9.41486 39.3539 16.05 39.3539C19.3305 39.3539 21.9816 44.79 21.9816 44.79C21.9816 44.79 26.4441 44.79 27.1828 48.2053C27.4059 49.2402 26.6574 50.226 25.5665 50.226ZM38.1752 31.502H12.8981C10.5254 31.502 10.6341 29.5345 11.4093 28.8489C12.2036 28.1465 13.7733 28.4315 13.7733 28.4315C13.7733 28.4315 14.2405 27.1081 15.7786 26.4638C17.1391 25.894 18.5646 26.1651 18.5646 26.1651C18.5646 26.1651 18.5646 25.257 19.4357 24.505C20.3068 23.7527 21.4683 23.8257 21.4683 23.8257C21.4683 23.8257 22.2669 18.818 27.6024 18.818C32.9381 18.818 33.5552 23.5334 33.5552 23.5334C33.5552 23.5334 34.753 23.5334 35.6244 24.3374C36.4954 25.1417 36.6042 26.0553 36.6042 26.0553C36.6042 26.0553 39.5177 25.6603 40.3792 28.1909C40.8928 29.6993 39.8378 31.502 38.1752 31.502ZM130.889 14.892H105.612C103.239 14.892 103.348 12.9248 104.124 12.239C104.918 11.5366 106.488 11.8216 106.488 11.8216C106.488 11.8216 106.955 10.4982 108.493 9.85412C109.853 9.28411 111.279 9.55522 111.279 9.55522C111.279 9.55522 111.279 8.64708 112.15 7.89507C113.021 7.14279 114.183 7.21581 114.183 7.21581C114.183 7.21581 114.981 2.20785 120.317 2.20785C125.652 2.20785 126.27 6.92345 126.27 6.92345C126.27 6.92345 127.467 6.92345 128.338 7.72751C129.209 8.53183 129.318 9.44542 129.318 9.44542C129.318 9.44542 132.232 9.05034 133.094 11.581C133.607 13.0894 132.552 14.892 130.889 14.892ZM79.5495 13.6839H54.2723C51.8997 13.6839 52.0084 11.7167 52.7836 11.0312C53.5778 10.3285 55.1475 10.6135 55.1475 10.6135C55.1475 10.6135 55.6148 9.29011 57.1529 8.64599C58.5133 8.07599 59.9386 8.34737 59.9386 8.34737C59.9386 8.34737 59.9386 7.43896 60.8099 6.68695C61.681 5.93494 62.8425 6.00796 62.8425 6.00796C62.8425 6.00796 63.6409 1 68.9766 1C74.3124 1 74.9295 5.71533 74.9295 5.71533C74.9295 5.71533 76.1273 5.71533 76.9986 6.51965C77.8697 7.32371 77.9784 8.23757 77.9784 8.23757C77.9784 8.23757 80.8919 7.84221 81.7535 10.3732C82.2671 11.8816 81.2121 13.6839 79.5495 13.6839Z" fill="white" stroke="#E1E4E5" stroke-width="1.2"/>
<path d="M149.413 55.6717C146.686 55.6717 144.475 57.8826 144.475 60.6099C144.475 63.3372 146.686 65.5482 149.413 65.5482C152.141 65.5482 154.352 63.3372 154.352 60.6099C154.352 57.8826 152.141 55.6717 149.413 55.6717Z" fill="#4B7BE5"/>
<path d="M20.7174 58.078C18.4722 58.078 16.6522 59.8981 16.6522 62.1432C16.6522 64.3884 18.4722 66.2084 20.7174 66.2084C22.9625 66.2084 24.7826 64.3884 24.7826 62.1432C24.7826 59.8981 22.9625 58.078 20.7174 58.078Z" fill="#4B7BE5"/>
<path d="M30.3417 115.959C27.7849 115.959 25.7122 113.886 25.7122 111.329C25.7122 108.773 27.7849 106.7 30.3417 106.7C32.8986 106.7 34.9713 108.773 34.9713 111.329C34.9713 113.886 32.8986 115.959 30.3417 115.959Z" fill="#4B7BE5"/>
<path d="M144.444 82.0287C143.251 82.0287 142.284 81.0614 142.284 79.8683C142.284 78.6751 143.251 77.7079 144.444 77.7079C145.638 77.7079 146.605 78.6751 146.605 79.8683C146.605 81.0614 145.638 82.0287 144.444 82.0287Z" fill="#4B7BE5"/>
<path d="M132.982 114.067C131.448 114.067 130.204 112.824 130.204 111.29C130.204 109.755 131.448 108.512 132.982 108.512C134.516 108.512 135.76 109.755 135.76 111.29C135.76 112.824 134.516 114.067 132.982 114.067Z" fill="#E1E4E5"/>
<path d="M4.01236 99.2116C1.79639 99.2116 -6.67572e-06 97.4152 -6.67572e-06 95.1993C-6.67572e-06 92.9833 1.79639 91.1869 4.01236 91.1869C6.22832 91.1869 8.02472 92.9833 8.02472 95.1993C8.02472 97.4152 6.22832 99.2116 4.01236 99.2116Z" fill="#E1E4E5"/>
<path d="M151.378 130.323C149.691 130.323 148.324 128.956 148.324 127.27C148.324 125.583 149.691 124.216 151.378 124.216C153.064 124.216 154.431 125.583 154.431 127.27C154.431 128.956 153.064 130.323 151.378 130.323Z" fill="#E1E4E5"/>
<path d="M168.658 19.0374C167.755 19.0374 167.023 18.2445 167.023 17.2663C167.023 16.2882 167.755 15.4953 168.658 15.4953C169.56 15.4953 170.292 16.2882 170.292 17.2663C170.292 18.2445 169.56 19.0374 168.658 19.0374Z" fill="#E1E4E5"/>
<path d="M36.3775 80.5628C36.8133 82.1891 35.8481 83.8608 34.2218 84.2966C32.5955 84.7324 30.9238 83.7672 30.488 82.1409C30.0522 80.5145 31.0174 78.8428 32.6437 78.4071C34.2701 77.9713 35.9417 78.9364 36.3775 80.5628Z" fill="#E1E4E5"/>
<path d="M41.7792 14.1076C41.0784 14.1076 40.5103 13.5395 40.5103 12.8387C40.5103 12.1379 41.0784 11.5698 41.7792 11.5698C42.4799 11.5698 43.048 12.1379 43.048 12.8387C43.048 13.5395 42.4799 14.1076 41.7792 14.1076Z" fill="#E1E4E5"/>
<path d="M168.78 103.317C167.057 103.317 165.661 102.2 165.661 100.821C165.661 99.443 167.057 98.3256 168.78 98.3256C170.503 98.3256 171.9 99.443 171.9 100.821C171.9 102.2 170.503 103.317 168.78 103.317Z" fill="#E1E4E5"/>
<path d="M109.973 20.0436C110.288 21.2209 109.59 22.4311 108.412 22.7466C107.235 23.062 106.025 22.3633 105.709 21.186C105.394 20.0086 106.093 18.7985 107.27 18.483C108.447 18.1675 109.657 18.8662 109.973 20.0436Z" fill="#E1E4E5"/>
<path d="M78.3158 113.729C77.6183 114.871 77.0457 116.127 76.576 117.412C76.0826 118.76 75.7028 120.141 75.4088 121.453C74.5335 125.366 74.4369 128.657 74.4369 128.657C71.6202 134.586 63.0053 131.596 63.0053 131.596C62.0292 125.533 66.1393 117.732 68.4112 113.986C69.2433 112.614 69.8292 111.787 69.8292 111.787L76.0717 113.217L78.3158 113.729Z" fill="#60547B"/>
<path d="M63.7823 130.937C65.5313 131.416 71.4294 132.665 73.5857 128.444C73.6423 127.15 74.0841 119.865 77.0041 114.306L70.2114 112.751C68.7756 114.915 63.0348 124.064 63.7823 130.937ZM67.5717 133.209C65.7286 133.209 63.9651 132.835 62.7233 132.404C62.4252 132.301 62.2082 132.043 62.1582 131.732C60.7845 123.204 68.7873 111.776 69.1287 111.294C69.3298 111.011 69.6826 110.875 70.0224 110.954L78.5073 112.896C78.7759 112.958 78.9983 113.144 79.1057 113.397C79.2128 113.65 79.1915 113.939 79.0483 114.173C75.5928 119.843 75.2963 128.595 75.2938 128.682C75.2905 128.8 75.2626 128.916 75.2118 129.023C73.6794 132.248 70.5241 133.209 67.5717 133.209Z" fill="#000072"/>
<path d="M93.1912 155.225C66.4732 155.225 69.3157 133.454 73.3787 120.491C75.0986 114.995 77.0395 111.084 77.0395 111.084L116.68 111.611C117.57 113.409 118.751 116.448 119.677 120.112C123.062 133.499 123.062 155.225 93.1912 155.225Z" fill="white"/>
<path d="M119.676 120.113C117.08 120.81 115.203 121.301 114.817 121.404C114.768 121.417 114.742 121.423 114.742 121.423C93.7463 127.447 80.2655 123.464 75.4088 121.453C74.0637 120.897 73.3795 120.491 73.3795 120.491C73.7956 119.16 74.2245 117.923 74.6367 116.811C75.1643 115.382 75.6661 114.159 76.0717 113.217C76.653 111.862 77.0391 111.084 77.0391 111.084L116.681 111.612C116.848 111.949 117.026 112.332 117.211 112.755C117.655 113.77 118.136 115.014 118.605 116.433C118.978 117.559 119.343 118.795 119.676 120.113Z" fill="#60547B"/>
<path d="M93.1925 154.37C89.087 154.37 85.5524 153.843 82.6041 152.795C82.8107 152.1 83.0976 151.008 83.3158 149.692C85.8597 150.366 88.8442 150.737 92.3334 150.737C97.121 150.737 101.142 150.179 104.503 149.187C104.599 150.792 104.831 152.123 104.99 152.891C101.602 153.876 97.6652 154.37 93.1925 154.37Z" fill="#B2B2D4"/>
<path d="M77.58 111.945C76.0251 115.296 67.3211 135.203 74.3336 146.443C77.6158 151.703 83.9608 154.371 93.1924 154.371C104.864 154.371 112.883 151.002 117.028 144.36C123.616 133.801 118.671 117.906 116.136 112.46L77.58 111.945ZM93.1924 156.08C83.3262 156.08 76.4902 153.141 72.8744 147.343C69.4381 141.833 68.9747 133.973 71.4973 123.981C73.355 116.624 76.1521 110.943 76.2704 110.704C76.4169 110.409 76.7201 110.23 77.0516 110.228L116.691 110.757C117.014 110.762 117.307 110.945 117.449 111.234C118.901 114.163 120.878 119.782 121.671 125.975C122.657 133.672 121.555 140.341 118.485 145.262C114.007 152.44 105.497 156.08 93.1924 156.08Z" fill="#000072"/>
<path d="M81.5364 153.313C81.5364 153.313 88.13 135.031 70.7752 135.033H68.3258C63.8497 135.033 59.9749 138.238 59.2708 142.641C59.0813 143.827 59.0588 145.147 59.292 146.602C59.3845 147.178 59.5027 147.717 59.6431 148.22C60.859 152.584 65.1427 155.372 69.6534 154.805L81.5364 153.313Z" fill="#60547B"/>
<path d="M70.6612 144.858C70.6612 148.651 68.5628 151.726 65.9739 151.726C63.3855 151.726 61.2871 148.651 61.2871 144.858C61.2871 141.064 63.3855 137.989 65.9739 137.989C68.5628 137.989 70.6612 141.064 70.6612 144.858Z" fill="white"/>
<path d="M68.5062 154.022C64.8184 154.022 61.4674 151.571 60.4701 147.991C60.4597 147.955 60.4497 147.918 60.4397 147.881C61.0256 148.432 61.6823 148.904 62.3906 149.285C63.2505 150.778 64.5369 151.726 65.9739 151.726C67.0929 151.726 68.1202 151.152 68.9259 150.193L74.0708 149.547C77.9818 149.056 80.9776 145.793 81.0455 141.867C81.0492 141.652 81.0492 141.435 81.0455 141.218C82.8094 145.409 81.3898 150.882 80.8872 152.533L69.5464 153.957C69.1979 154 68.8506 154.022 68.5062 154.022Z" fill="#433B78"/>
<path d="M65.9739 151.726C64.5369 151.726 63.2505 150.778 62.3906 149.286C63.7123 149.996 65.2144 150.39 66.7755 150.39C67.1595 150.39 67.548 150.366 67.9374 150.317L68.9259 150.193C68.1202 151.152 67.0929 151.726 65.9739 151.726Z" fill="#B2B2D4"/>
<path d="M81.5364 153.313H81.5385H81.5364ZM81.5364 153.313H81.5385H81.5364ZM68.3254 135.888C64.2083 135.888 60.7566 138.785 60.1186 142.776C59.9291 143.958 59.9362 145.2 60.1394 146.467C60.224 146.995 60.3351 147.507 60.4701 147.992C61.5603 151.905 65.4642 154.47 69.5464 153.957L80.8872 152.533C81.4552 150.666 83.1958 143.915 80.1826 139.653C78.4161 137.155 75.2522 135.888 70.779 135.888H70.7752H68.3254ZM68.5087 155.732C64.0605 155.732 60.0208 152.771 58.816 148.449C58.6641 147.903 58.5391 147.327 58.4446 146.737C58.2131 145.291 58.206 143.868 58.4234 142.507C59.1954 137.681 63.3596 134.179 68.3254 134.179H70.7752H70.779C75.846 134.179 79.483 135.691 81.5889 138.673C85.6065 144.363 82.4792 153.227 82.3442 153.602C82.2347 153.905 81.9641 154.121 81.6438 154.161L69.7608 155.653C69.3415 155.706 68.9234 155.732 68.5087 155.732Z" fill="#000072"/>
<path d="M105.98 153.375C105.98 153.375 100.973 134.149 118.644 135.759L121.138 135.986C125.695 136.401 129.342 140.023 129.647 144.572C129.73 145.796 129.629 147.143 129.256 148.603C129.108 149.181 128.937 149.718 128.748 150.218C127.102 154.549 122.481 156.99 117.94 155.995L105.98 153.375Z" fill="#60547B"/>
<path d="M117.843 145.773C117.489 149.636 119.338 152.961 121.974 153.201C124.61 153.44 127.034 150.504 127.388 146.642C127.742 142.779 125.892 139.454 123.256 139.214C120.62 138.974 118.197 141.911 117.843 145.773Z" fill="white"/>
<path d="M119.953 155.358C119.348 155.358 118.735 155.294 118.124 155.16L106.697 152.657C106.367 151.063 105.527 146.006 107.172 141.993C107.427 145.867 110.246 149.232 114.201 150.098L118.962 151.141C119.705 152.32 120.755 153.09 121.974 153.201C122.075 153.21 122.176 153.214 122.276 153.214C123.861 153.215 125.342 152.081 126.307 150.313C127.036 149.906 127.711 149.402 128.31 148.813C128.201 149.193 128.079 149.562 127.945 149.915C126.685 153.231 123.436 155.358 119.953 155.358Z" fill="#433B78"/>
<path d="M122.276 153.214C122.176 153.214 122.075 153.21 121.974 153.201C120.755 153.09 119.705 152.32 118.962 151.142L119.656 151.294C120.336 151.443 121.018 151.515 121.691 151.515C123.329 151.515 124.917 151.089 126.307 150.314C125.342 152.081 123.861 153.215 122.276 153.214Z" fill="#B2B2D4"/>
<path d="M106.697 152.657L118.124 155.16C122.245 156.062 126.466 153.808 127.945 149.915C128.128 149.434 128.289 148.921 128.425 148.392C128.75 147.12 128.873 145.853 128.791 144.629C128.518 140.563 125.194 137.214 121.06 136.837L118.566 136.611C114.002 136.195 110.655 137.194 108.619 139.579C105.14 143.655 106.296 150.719 106.697 152.657ZM119.948 157.067C119.222 157.067 118.488 156.99 117.756 156.83L105.796 154.21C105.481 154.141 105.231 153.901 105.15 153.59C105.047 153.196 102.693 143.89 107.308 138.476C109.727 135.639 113.568 134.438 118.722 134.908L121.216 135.135C126.263 135.594 130.169 139.539 130.503 144.515C130.597 145.92 130.458 147.366 130.088 148.814C129.937 149.405 129.755 149.979 129.55 150.52C128.035 154.508 124.13 157.067 119.948 157.067Z" fill="#000072"/>
<path d="M114.982 141.717C109.422 139.977 108.441 132.19 112.348 127.029C113.854 125.039 114.542 123.069 114.817 121.404C115.087 119.786 114.969 118.454 114.834 117.662C114.75 117.153 114.658 116.865 114.658 116.865L113.862 114.165L117.211 112.755L123.425 110.141C124.063 111.146 124.638 112.133 125.152 113.101C135.411 132.339 122.464 144.061 114.982 141.717Z" fill="#60547B"/>
<path d="M112.165 138.078C112.03 138.005 111.899 137.927 111.771 137.845C111.629 137.573 111.505 137.29 111.397 136.999C110.949 135.787 110.798 134.444 110.904 133.119C111.009 131.793 111.37 130.479 111.951 129.272C112.242 128.669 112.585 128.09 112.984 127.551L113.627 126.61C113.835 126.29 114.011 125.949 114.203 125.618C114.304 125.455 114.371 125.274 114.454 125.102L114.691 124.579C114.833 124.224 114.951 123.858 115.077 123.497C115.275 122.757 115.444 122.009 115.493 121.248C115.562 120.49 115.538 119.728 115.433 118.981C115.378 118.63 115.314 118.281 115.226 117.939C115.829 118.827 116.793 120.934 115.549 124.268C115.549 124.268 114.371 127.054 113.33 128.091C113.33 128.091 110.221 132.936 112.165 138.078Z" fill="#BFBBCA"/>
<path d="M117.182 141.055C117.157 141.055 117.133 141.054 117.108 141.053L116.635 141.051C116.479 141.045 116.326 141.016 116.171 141.002L115.939 140.976C115.862 140.966 115.79 140.941 115.714 140.925L115.266 140.819C114.666 140.636 114.103 140.359 113.601 139.998C113.24 139.74 112.912 139.438 112.62 139.1C112.445 138.759 112.294 138.417 112.165 138.078C112.505 138.261 112.87 138.415 113.259 138.537C113.839 138.719 114.456 138.808 115.093 138.808C121.678 138.808 130.398 129.273 123.463 114.269C123.793 114.08 124.116 113.887 124.433 113.69C124.54 113.897 124.648 114.103 124.758 114.309C125.061 114.945 125.353 115.586 125.647 116.225L126.035 117.204L126.23 117.693L126.327 117.938L126.41 118.187L126.741 119.183C126.795 119.349 126.854 119.514 126.904 119.681L127.039 120.186L127.309 121.197C127.388 121.536 127.448 121.878 127.52 122.218C127.678 122.897 127.739 123.587 127.839 124.272C127.876 124.615 127.891 124.96 127.919 125.304L127.957 125.82L127.959 126.336C127.997 127.712 127.853 129.083 127.575 130.416C127.294 131.75 126.862 133.048 126.262 134.262C125.657 135.472 124.89 136.598 123.975 137.583C123.747 137.829 123.498 138.054 123.262 138.293C123.012 138.515 122.751 138.725 122.497 138.942C122.224 139.132 121.959 139.337 121.681 139.518L121.255 139.775L121.042 139.904C120.97 139.945 120.894 139.978 120.821 140.016C120.526 140.163 120.235 140.322 119.926 140.432C119.774 140.491 119.623 140.557 119.469 140.613L119.002 140.753L118.769 140.824C118.69 140.844 118.611 140.857 118.532 140.873L118.058 140.97C117.9 140.997 117.741 141.004 117.583 141.023C117.449 141.036 117.315 141.055 117.182 141.055Z" fill="#433B78"/>
<path d="M112.62 139.1C112.292 138.722 112.008 138.299 111.771 137.846C111.899 137.927 112.03 138.005 112.165 138.078C112.294 138.418 112.445 138.759 112.62 139.1Z" fill="#8583AF"/>
<path d="M114.826 116.812C115.155 117.505 115.317 118.235 115.433 118.981C115.538 119.728 115.562 120.49 115.493 121.248C115.444 122.009 115.275 122.757 115.077 123.497C114.951 123.858 114.833 124.224 114.691 124.579L114.454 125.102C114.371 125.274 114.304 125.455 114.203 125.618C114.011 125.949 113.835 126.29 113.627 126.61L112.984 127.551C112.585 128.09 112.242 128.669 111.951 129.272C111.37 130.479 111.009 131.793 110.904 133.119C110.798 134.444 110.949 135.787 111.397 136.999C111.843 138.207 112.592 139.278 113.601 139.998C114.103 140.359 114.666 140.636 115.266 140.818L115.714 140.925C115.79 140.941 115.862 140.966 115.939 140.976L116.171 141.002C116.326 141.016 116.479 141.045 116.635 141.051L117.108 141.052C117.265 141.062 117.424 141.038 117.583 141.023C117.741 141.003 117.9 140.996 118.058 140.97L118.532 140.873C118.611 140.857 118.69 140.844 118.769 140.824L119.002 140.753L119.469 140.613C119.623 140.557 119.774 140.491 119.926 140.432C120.235 140.322 120.526 140.163 120.821 140.016C120.894 139.978 120.97 139.945 121.042 139.904L121.255 139.775L121.681 139.518C121.959 139.337 122.224 139.132 122.497 138.942C122.751 138.725 123.012 138.515 123.262 138.293C123.498 138.054 123.747 137.829 123.975 137.583C124.89 136.598 125.657 135.472 126.262 134.262C126.862 133.048 127.294 131.75 127.575 130.416C127.853 129.083 127.997 127.712 127.959 126.336L127.957 125.82L127.919 125.304C127.891 124.96 127.876 124.615 127.839 124.272C127.739 123.587 127.678 122.897 127.52 122.218C127.448 121.878 127.388 121.536 127.309 121.197L127.039 120.186L126.904 119.681C126.854 119.514 126.795 119.349 126.741 119.182L126.41 118.186L126.327 117.938L126.23 117.693L126.035 117.204L125.647 116.225C125.353 115.586 125.061 114.945 124.758 114.309C124.426 113.685 124.109 113.054 123.774 112.432L122.701 110.598L122.69 110.58C122.451 110.171 122.59 109.648 122.999 109.41C123.397 109.18 123.904 109.305 124.152 109.685C125.749 112.148 127.151 114.764 128.167 117.554L128.532 118.607C128.592 118.783 128.656 118.957 128.711 119.134L128.863 119.672L129.164 120.748C129.253 121.109 129.324 121.477 129.405 121.841C129.582 122.567 129.661 123.316 129.777 124.056C129.823 124.428 129.841 124.804 129.872 125.179L129.914 125.741L129.92 126.306C129.965 127.812 129.815 129.331 129.51 130.818C129.204 132.306 128.723 133.768 128.036 135.139C127.346 136.508 126.47 137.79 125.415 138.919C124.362 140.047 123.124 141.023 121.727 141.741C121.374 141.914 121.026 142.097 120.651 142.229C120.466 142.299 120.284 142.375 120.097 142.44L119.524 142.608L119.237 142.69C119.14 142.714 119.04 142.73 118.942 142.75L118.351 142.863C118.153 142.894 117.949 142.905 117.748 142.926C117.546 142.944 117.346 142.968 117.14 142.958L116.528 142.948C116.323 142.939 116.118 142.903 115.914 142.88L115.607 142.84C115.505 142.825 115.405 142.793 115.304 142.77L114.698 142.617C113.917 142.37 113.166 141.995 112.5 141.505C111.159 140.527 110.201 139.113 109.68 137.611C109.152 136.104 109.01 134.511 109.157 132.967C109.306 131.421 109.748 129.915 110.44 128.533C110.787 127.843 111.195 127.182 111.665 126.568L112.257 125.731C112.447 125.449 112.606 125.15 112.783 124.86C112.952 124.567 113.087 124.256 113.242 123.955C113.386 123.649 113.503 123.331 113.638 123.02C113.742 122.699 113.866 122.381 113.958 122.054C114.045 121.726 114.147 121.399 114.21 121.063C114.363 120.396 114.453 119.712 114.502 119.018C114.555 118.327 114.553 117.613 114.492 116.917L114.49 116.902C114.482 116.805 114.554 116.72 114.651 116.711C114.726 116.705 114.796 116.747 114.826 116.812Z" fill="#000072"/>
<path d="M51.3213 105.631C51.3213 105.631 52.4906 116.853 41.066 122.57C41.066 122.57 41.5974 110.448 51.3213 105.631Z" fill="#248943"/>
<path d="M51.2297 105.793C42.439 110.251 41.3001 120.882 41.182 122.395C46.9344 119.458 49.3583 115.088 50.3789 111.924C51.3471 108.923 51.2692 106.42 51.2297 105.793ZM40.9541 122.741L40.9618 122.565C40.9673 122.443 41.608 110.327 51.2751 105.538L51.4096 105.471L51.425 105.62C51.4279 105.648 51.7065 108.488 50.5771 111.988C49.5344 115.219 47.0465 119.693 41.1126 122.662L40.9541 122.741Z" fill="#000072"/>
<path d="M42.1562 120.953C42.1647 120.9 42.1736 120.846 42.1828 120.791C44.9386 118.209 46.3344 115.272 47.0325 112.784C47.5195 112.022 48.0214 111.272 48.5513 110.541C49.0981 109.783 49.6623 109.037 50.2432 108.307C50.2857 108.254 50.3282 108.2 50.3706 108.147C50.2657 109.154 50.0458 110.402 49.6032 111.754C48.3281 115.649 45.8263 118.737 42.1562 120.953ZM47.5198 110.495C47.5794 110.09 47.6212 109.712 47.6501 109.366C47.94 109.074 48.2439 108.791 48.5638 108.516C48.2835 109.025 48.0104 109.537 47.7449 110.053C47.6689 110.2 47.5939 110.347 47.5198 110.495Z" fill="#196051"/>
<path d="M52.0297 106.175C51.4259 106.852 50.8229 107.58 50.2432 108.307C49.6623 109.037 49.0981 109.783 48.5513 110.541C48.0018 111.299 47.4825 112.078 46.9786 112.868C46.4775 113.661 46.0125 114.476 45.5747 115.31C45.5626 115.334 45.5331 115.344 45.5089 115.332C45.4868 115.321 45.477 115.295 45.4844 115.272C45.7935 114.38 46.1358 113.495 46.518 112.626C46.9029 111.759 47.3075 110.898 47.7449 110.053C48.1804 109.207 48.6358 108.37 49.1118 107.544C49.5915 106.715 50.0775 105.906 50.6134 105.086C50.8837 104.672 51.4396 104.555 51.8548 104.824C52.2704 105.094 52.3878 105.647 52.1175 106.061C52.0938 106.098 52.068 106.132 52.0397 106.164L52.0297 106.175Z" fill="#000072"/>
<path d="M50.4456 107.137C44.4408 110.865 42.6651 117.787 42.1562 120.953C45.8263 118.737 48.3281 115.649 49.6032 111.754C50.2099 109.903 50.3977 108.244 50.4456 107.137ZM41.0659 123.461C40.8963 123.461 40.7272 123.413 40.58 123.318C40.3136 123.146 40.1584 122.846 40.1723 122.531C40.1948 122.014 40.8427 109.826 50.9232 104.832C51.186 104.703 51.4954 104.709 51.7527 104.85C52.0097 104.99 52.1808 105.248 52.2112 105.538C52.2241 105.66 52.5094 108.572 51.3296 112.229C50.2407 115.603 47.6461 120.274 41.4675 123.366C41.3407 123.429 41.2032 123.461 41.0659 123.461Z" fill="#000072"/>
<path d="M52.2196 106.622C52.2196 106.622 41.851 111.162 32.8945 102.073C32.8945 102.073 44.6428 98.8711 52.2196 106.622Z" fill="#248943"/>
<path d="M33.0972 102.13C37.6598 106.685 42.5738 107.65 45.9066 107.652C45.9113 107.652 45.9166 107.652 45.9213 107.652C49.0814 107.652 51.4483 106.814 52.0363 106.584C45.0899 99.612 34.5807 101.779 33.0972 102.13ZM45.9215 107.859H45.9156C42.5092 107.859 37.4721 106.866 32.8203 102.145L32.696 102.02L32.867 101.973C32.9852 101.941 44.7617 98.8441 52.2941 106.55L52.3986 106.657L52.2612 106.717C52.2354 106.729 49.609 107.859 45.9215 107.859Z" fill="#000072"/>
<path d="M49.3375 106.522C49.2554 106.456 49.1738 106.392 49.0909 106.328C49.1713 106.358 49.2517 106.388 49.3321 106.417C49.3928 106.441 49.4541 106.463 49.5153 106.487C49.457 106.499 49.3978 106.511 49.3375 106.522ZM48.6183 104.889C48.0464 104.778 47.4732 104.676 46.8991 104.582C46.6097 104.534 46.3196 104.489 46.0292 104.447C42.8029 102.897 39.4425 102.45 36.97 102.376C37.4789 102.344 38.0251 102.324 38.6003 102.324C41.5571 102.324 45.2775 102.851 48.6183 104.889Z" fill="#BDDBC6"/>
<path d="M51.9156 107.46C51.0835 107.095 50.2036 106.745 49.3321 106.418C48.4559 106.09 47.5713 105.783 46.6788 105.496C45.7867 105.207 44.8841 104.952 43.9742 104.716C43.0635 104.483 42.1426 104.291 41.2114 104.131C41.1845 104.127 41.1661 104.102 41.1701 104.075C41.1739 104.051 41.1959 104.034 41.2198 104.034C42.1667 104.055 43.1175 104.108 44.0647 104.206C45.011 104.305 45.9582 104.426 46.8991 104.583C47.8407 104.737 48.7799 104.913 49.7152 105.112C50.6542 105.313 51.5749 105.527 52.5231 105.784C53.0012 105.914 53.2831 106.406 53.1527 106.882C53.0224 107.358 52.5294 107.639 52.0509 107.509C52.0088 107.497 51.9684 107.483 51.9297 107.467L51.9156 107.46Z" fill="#000072"/>
<path d="M34.7757 102.613C41.02 107.991 47.7118 107.009 50.5101 106.25C45.1139 101.697 37.958 102.128 34.7757 102.613ZM45.9215 108.647H45.9154C42.3577 108.646 37.1 107.613 32.2562 102.697C32.034 102.472 31.9482 102.146 32.031 101.84C32.1137 101.536 32.3524 101.297 32.6584 101.214C33.159 101.077 45.0057 97.9655 52.8604 106.001C53.0649 106.21 53.1536 106.506 53.0974 106.792C53.0411 107.079 52.8479 107.32 52.5793 107.438C52.4665 107.487 49.7735 108.647 45.9215 108.647Z" fill="#000072"/>
<path d="M72.5817 130.84L51.7186 108.073C50.7758 107.044 50.2528 105.701 50.2528 104.308V100.973C50.2528 99.9957 51.4591 99.5294 52.1204 100.251L76.7105 127.086C77.7511 128.221 77.6708 129.982 76.5306 131.02C75.3904 132.056 73.6223 131.976 72.5817 130.84Z" fill="#59E041"/>
<path d="M72.6583 130.77C73.659 131.862 75.3642 131.94 76.4607 130.943C77.5563 129.946 77.6337 128.247 76.6335 127.155L52.0438 100.321C51.7132 99.9609 51.2764 99.956 50.9765 100.072C50.6771 100.187 50.3573 100.485 50.3573 100.973V104.308C50.3573 105.679 50.8679 106.991 51.7956 108.003L72.6583 130.77ZM74.6472 131.85C73.8601 131.85 73.076 131.534 72.5047 130.91L51.642 108.143C50.6788 107.092 50.1491 105.731 50.1491 104.308V100.973C50.1491 100.477 50.4373 100.058 50.9012 99.8784C51.3651 99.6988 51.8618 99.8149 52.1975 100.181L76.7871 127.016C77.8653 128.192 77.7816 130.022 76.601 131.096C76.0459 131.601 75.3455 131.85 74.6472 131.85Z" fill="#000072"/>
<path d="M71.9525 125.991L71.3899 125.913L69.9012 125.91L65.996 121.649C66.4624 121.432 66.8655 121.143 67.2103 120.816L71.9525 125.991ZM65.1915 120.771L57.3707 112.236C57.8358 112.017 58.2377 111.727 58.5808 111.399L66.4553 119.993C66.1197 120.317 65.7037 120.599 65.1915 120.771ZM56.5699 111.362L52.5769 107.004C51.7782 106.133 51.281 105.037 51.1477 103.875V101.827C51.2168 101.836 51.286 101.853 51.3538 101.876C51.4742 103.066 51.9755 104.191 52.7913 105.081L57.8321 110.582C57.4981 110.906 57.083 111.189 56.5699 111.362Z" fill="#3E9C50"/>
<path d="M55.4239 112.657C55.4181 112.657 55.4122 112.657 55.4068 112.657C55.0978 112.655 54.8484 112.405 54.8496 112.098C54.8505 111.791 55.1007 111.543 55.4085 111.543C55.4131 111.543 55.4189 111.543 55.4239 111.543C58.3326 111.543 59.058 108.461 59.0876 108.33C59.155 108.03 59.4528 107.841 59.7538 107.907C60.0549 107.973 60.2452 108.268 60.1794 108.569C59.8692 109.984 58.4763 112.657 55.4239 112.657Z" fill="#000072"/>
<path d="M64.0659 122.061C64.06 122.061 64.055 122.061 64.0488 122.061C63.7402 122.06 63.4908 121.81 63.492 121.502C63.4929 121.195 63.7431 120.947 64.0509 120.947C64.0567 120.947 64.0609 120.947 64.0659 120.947C66.9921 120.947 67.7229 117.767 67.73 117.735C67.7958 117.435 68.0935 117.244 68.3954 117.31C68.6969 117.376 68.888 117.672 68.8222 117.973C68.512 119.389 67.1186 122.061 64.0659 122.061Z" fill="#000072"/>
<path d="M75.1426 126.696L74.5659 126.353L73.8647 126.256L68.0044 119.861C68.1318 119.667 68.2451 119.47 68.3433 119.277L75.1426 126.696Z" fill="#CDF6C6"/>
<path d="M67.2145 118.999L59.372 110.441C59.4994 110.246 59.6119 110.049 59.7097 109.855L67.5172 118.375C67.441 118.561 67.3415 118.776 67.2145 118.999ZM58.5866 109.583L51.7915 102.168C51.662 102.027 51.5116 101.931 51.3538 101.876C51.3351 101.691 51.3255 101.504 51.3255 101.316V100.791C51.3288 100.791 51.3322 100.791 51.3351 100.791C51.4046 100.791 51.4442 100.835 51.46 100.852L58.8852 108.955C58.8107 109.142 58.7128 109.358 58.5866 109.583Z" fill="#CDF6C6"/>
<path d="M51.3538 101.876C51.286 101.852 51.2168 101.836 51.1477 101.827V100.973C51.1477 100.943 51.1477 100.85 51.2622 100.806C51.2855 100.797 51.3068 100.792 51.3255 100.792V101.316C51.3255 101.504 51.3351 101.691 51.3538 101.876Z" fill="#C5E1CA"/>
<path d="M59.372 110.441L58.5866 109.584C58.7128 109.358 58.8106 109.142 58.8852 108.955L59.7097 109.855C59.6118 110.049 59.4994 110.246 59.372 110.441Z" fill="#B2B2D4"/>
<path d="M68.0044 119.861L67.2144 118.999C67.3415 118.776 67.441 118.561 67.5172 118.375L68.3434 119.277C68.2451 119.471 68.1318 119.667 68.0044 119.861Z" fill="#B2B2D4"/>
<path d="M73.2421 130.24C73.9488 131.011 75.1535 131.065 75.9276 130.361C76.7017 129.658 76.7563 128.457 76.0496 127.686L51.46 100.852C51.4396 100.829 51.3775 100.761 51.2622 100.805C51.1477 100.85 51.1477 100.942 51.1477 100.973V104.308C51.1477 105.482 51.5849 106.605 52.3794 107.472L73.2421 130.24ZM74.6475 132.637C73.646 132.637 72.6479 132.234 71.9208 131.441L51.0581 108.674C49.9621 107.478 49.3587 105.927 49.3587 104.308V100.973C49.3587 100.157 49.8517 99.4389 50.6155 99.144C51.3783 98.849 52.2291 99.0473 52.7813 99.6501L77.3709 126.484C78.7426 127.982 78.636 130.311 77.1336 131.677C76.4273 132.32 75.5362 132.637 74.6475 132.637Z" fill="#000072"/>
<path d="M63.7423 124.475C63.7423 124.475 59.6639 136.068 69.4943 140.197C75.6382 142.778 78.295 140.362 79.4239 138.187C80.0619 136.957 80.3013 135.565 80.213 134.183C79.5526 123.833 67.05 126.222 67.05 126.222L63.7423 124.475Z" fill="#60547B"/>
<path d="M80.2039 137.115C80.1168 137.037 80.0286 136.96 79.9382 136.886C80.1868 136.013 80.2713 135.096 80.213 134.183C80.0685 131.918 79.3564 130.263 78.3329 129.059C78.3333 129.043 78.3333 129.027 78.3337 129.01L79.3964 130.209L80.3101 133.046C80.3101 133.046 80.2247 136.28 80.4391 136.434C80.507 136.483 80.3921 136.76 80.2039 137.115Z" fill="white"/>
<path d="M79.0583 138.996C79.0882 138.892 79.1153 138.788 79.1403 138.683C79.169 138.637 79.1969 138.591 79.2244 138.545C79.2506 138.57 79.2765 138.595 79.3023 138.62C79.1569 138.847 79.0583 138.996 79.0583 138.996Z" fill="#BFBBCA"/>
<path d="M79.3023 138.62C79.2765 138.595 79.2507 138.57 79.2244 138.545C79.2956 138.426 79.3618 138.306 79.4239 138.187C79.6404 137.77 79.8107 137.334 79.9382 136.886C80.0285 136.961 80.1168 137.038 80.2038 137.116C79.9473 137.599 79.5546 138.226 79.3023 138.62Z" fill="#9999C7"/>
<path d="M74.0829 126.494C73.4029 126.305 72.7158 126.179 72.0524 126.1L71.9525 125.991L73.8647 126.256L74.0829 126.494ZM69.3536 125.996L69.274 125.909L69.9012 125.91L69.9686 125.984C69.7558 125.985 69.5497 125.989 69.3536 125.996Z" fill="#BDF3B3"/>
<path d="M72.0524 126.1C71.3374 126.015 70.6495 125.983 70.024 125.983C70.0057 125.983 69.9874 125.983 69.9686 125.984L69.9012 125.91L71.3899 125.913L71.9525 125.991L72.0524 126.1Z" fill="#B2D7B9"/>
<path d="M75.3659 126.94C74.9457 126.762 74.5155 126.615 74.0829 126.495L73.8647 126.257L74.5659 126.354L75.1427 126.697L75.3659 126.94Z" fill="#EBFBE8"/>
<path d="M78.3329 129.06C77.5034 128.085 76.469 127.407 75.3659 126.941L75.1427 126.697L77.5509 128.128L78.3337 129.011C78.3333 129.027 78.3333 129.043 78.3329 129.06ZM68.8418 126.021L69.1137 125.91H69.2741L69.3536 125.997C69.175 126.003 69.0042 126.011 68.8418 126.021Z" fill="#9999C7"/>
<path d="M79.1403 138.683C79.1998 138.431 79.2452 138.177 79.2781 137.923C79.8524 136.777 80.1809 135.231 80.1018 133.154C80.1018 133.154 79.9128 134.287 79.2573 135.504C78.9088 132.809 77.6495 130.57 77.6495 130.57C75.1785 126.624 68.0294 126.353 68.0294 126.353L68.8418 126.02C69.0042 126.01 69.1749 126.002 69.3536 125.996C69.5497 125.989 69.7558 125.985 69.9686 125.984C69.9874 125.984 70.0057 125.984 70.024 125.984C70.6495 125.984 71.3374 126.015 72.0524 126.1C72.7158 126.179 73.4028 126.305 74.0829 126.494C74.5155 126.615 74.9457 126.762 75.3659 126.94C76.469 127.406 77.5033 128.085 78.3329 129.059C79.3564 130.263 80.0685 131.918 80.213 134.183C80.2713 135.096 80.1868 136.013 79.9382 136.886C79.8107 137.333 79.6404 137.769 79.4239 138.187C79.3618 138.306 79.2956 138.426 79.2244 138.545C79.1969 138.591 79.169 138.637 79.1403 138.683Z" fill="#BFBBCA"/>
<path d="M63.3313 133.323C63.2518 133.059 63.183 132.795 63.1243 132.536C63.1339 132.538 63.1431 132.541 63.1526 132.544C63.203 132.803 63.2626 133.063 63.3313 133.323Z" fill="#597ED4"/>
<path d="M63.1527 132.544C63.1431 132.541 63.1339 132.538 63.1243 132.535C62.406 129.341 63.2068 126.566 63.2364 126.465C62.9407 128.002 62.705 130.248 63.1527 132.544Z" fill="#000072"/>
<path d="M73.5224 141.05C72.0653 141.05 70.9443 140.736 70.9443 140.736C66.2333 139.019 64.1654 136.085 63.3313 133.323C63.2626 133.063 63.203 132.803 63.1526 132.544C62.705 130.248 62.9407 128.002 63.2363 126.465C63.2372 126.463 63.2372 126.462 63.2372 126.462C63.5874 131.354 65.5379 135.755 72.114 137.989C73.0605 138.311 73.898 138.449 74.6388 138.449C77.1019 138.449 78.4957 136.919 79.2573 135.504C79.3585 136.286 79.3831 137.107 79.2781 137.923C77.988 140.497 75.4583 141.05 73.5224 141.05Z" fill="#433B78"/>
<path d="M79.2781 137.923C79.3831 137.107 79.3585 136.286 79.2573 135.504C79.9128 134.287 80.1018 133.154 80.1018 133.154C80.1809 135.231 79.8524 136.777 79.2781 137.923Z" fill="#8583AF"/>
<path d="M67.0295 126.115C67.5413 125.852 68.0768 125.682 68.6215 125.557C69.167 125.43 69.7225 125.355 70.2814 125.327C70.8406 125.296 71.4036 125.31 71.9646 125.371C72.5263 125.42 73.0872 125.51 73.6456 125.626C74.7575 125.873 75.871 126.239 76.8862 126.845C77.8977 127.444 78.8301 128.251 79.4972 129.251C80.1735 130.242 80.6153 131.369 80.8497 132.508C80.9784 133.08 81.0321 133.649 81.0858 134.228C81.1217 134.817 81.1042 135.412 81.0234 136.004C80.866 137.185 80.4529 138.365 79.7662 139.376C79.4202 139.881 79.0196 140.367 78.529 140.77C78.4157 140.88 78.2783 140.963 78.1526 141.059C78.0235 141.152 77.8973 141.248 77.7557 141.322L77.3393 141.555C77.1969 141.624 77.0491 141.681 76.9033 141.744C76.6147 141.881 76.3066 141.944 76.0063 142.037C75.8552 142.081 75.7015 142.097 75.5487 142.127C75.3963 142.151 75.2426 142.184 75.0902 142.198C74.7866 142.214 74.4789 142.248 74.1778 142.243C73.8793 142.228 73.5753 142.229 73.2809 142.197C72.0928 142.089 70.9826 141.759 69.9141 141.376C67.7829 140.629 65.6895 139.315 64.262 137.411C63.5462 136.468 63.0003 135.4 62.6396 134.291C62.2786 133.18 62.0808 132.035 62.0108 130.895C61.9505 129.755 62.0058 128.62 62.1599 127.505C62.2357 126.947 62.3406 126.395 62.4664 125.847C62.5289 125.573 62.5988 125.3 62.6734 125.027C62.7521 124.75 62.827 124.494 62.9324 124.193C63.0885 123.747 63.5774 123.511 64.0247 123.667C64.4644 123.819 64.7001 124.292 64.5606 124.731L64.5523 124.758C64.4856 124.966 64.4144 125.228 64.3532 125.469C64.2928 125.716 64.2358 125.966 64.1854 126.217C64.0834 126.719 64.003 127.226 63.9451 127.734C63.8214 128.75 63.791 129.772 63.861 130.776C63.938 131.78 64.1158 132.766 64.429 133.698C64.7392 134.631 65.2044 135.495 65.7857 136.267C66.3699 137.038 67.0887 137.706 67.9019 138.256C68.303 138.539 68.7406 138.776 69.1829 139.003L69.8629 139.318L70.5775 139.594C71.5306 139.944 72.5063 140.239 73.4712 140.33C74.4327 140.431 75.3855 140.367 76.2075 140.027C77.8652 139.404 79.0062 137.633 79.2761 135.758C79.3489 135.286 79.371 134.803 79.3494 134.32C79.3094 133.828 79.2723 133.325 79.1707 132.845C78.9837 131.88 78.6527 130.96 78.1338 130.16C77.625 129.351 76.9029 128.695 76.0796 128.177C75.2555 127.653 74.3011 127.309 73.3183 127.065C72.3298 126.821 71.2999 126.736 70.2635 126.648C69.2241 126.552 68.1722 126.484 67.0708 126.329L67.0658 126.329C67.0037 126.32 66.96 126.262 66.9692 126.2C66.9742 126.163 66.9983 126.132 67.0295 126.115Z" fill="#000072"/>
<path d="M73.8592 116.43C72.1702 115.819 70.6124 115.115 69.2099 114.331C69.5201 113.822 69.7925 113.393 70.0086 113.061C71.359 113.76 72.8348 114.381 74.4368 114.924C74.2507 115.394 74.057 115.898 73.8592 116.43Z" fill="#433B78"/>
<path d="M69.2099 114.33C68.9875 114.206 68.7689 114.08 68.554 113.951C68.8555 113.457 69.1233 113.036 69.3398 112.703C69.5589 112.824 69.7825 112.944 70.0086 113.06C69.7925 113.392 69.5201 113.821 69.2099 114.33Z" fill="#000072"/>
<path d="M96.8219 119.688C95.8412 119.688 94.8439 119.673 93.8308 119.644C87.1643 119.452 81.3685 118.667 76.6043 117.312C76.2357 117.207 75.8664 117.097 75.4995 116.983C75.7019 116.437 75.8997 115.921 76.0892 115.443C81.0046 116.874 86.984 117.64 94.0036 117.733C94.4654 117.739 94.9235 117.743 95.3786 117.743C102.581 117.743 108.899 116.976 114.243 115.456L114.615 116.718C114.536 116.742 114.483 116.818 114.49 116.902L114.491 116.917C114.513 117.155 114.526 117.395 114.534 117.636C109.484 119 103.538 119.688 96.8219 119.688Z" fill="#433B78"/>
<path d="M75.4995 116.983C75.221 116.895 74.944 116.805 74.67 116.713C74.3964 116.621 74.1262 116.527 73.8593 116.43C74.0571 115.898 74.2507 115.394 74.4368 114.924C74.9736 115.106 75.5241 115.279 76.0892 115.443C75.8997 115.922 75.7019 116.437 75.4995 116.983Z" fill="#000072"/>
<path d="M115.093 117.482C115.018 117.255 114.93 117.031 114.826 116.812C114.798 116.751 114.736 116.711 114.666 116.711C114.661 116.711 114.656 116.711 114.651 116.711C114.639 116.712 114.626 116.715 114.615 116.718L114.243 115.456C115.938 114.974 117.535 114.417 119.031 113.784C120.213 113.283 121.335 112.736 122.394 112.143C122.444 112.235 122.493 112.327 122.542 112.418C122.841 112.979 123.119 113.534 123.375 114.08C121.896 114.927 120.286 115.682 118.568 116.336C117.472 116.754 116.304 117.138 115.093 117.482Z" fill="#433B78"/>
<path d="M123.375 114.08C123.118 113.534 122.841 112.979 122.542 112.419C122.493 112.327 122.443 112.235 122.393 112.143C122.7 111.971 123.001 111.796 123.296 111.617L123.774 112.433C123.965 112.788 124.151 113.147 124.337 113.505C124.023 113.701 123.702 113.892 123.375 114.08Z" fill="#2F2976"/>
<path d="M114.534 117.636C114.527 117.395 114.513 117.155 114.492 116.917L114.49 116.902C114.483 116.818 114.537 116.742 114.615 116.718C114.626 116.715 114.639 116.713 114.651 116.711C114.656 116.711 114.661 116.711 114.666 116.711C114.736 116.711 114.798 116.751 114.826 116.812C114.93 117.032 115.018 117.255 115.093 117.482C114.997 117.509 114.902 117.536 114.806 117.562C114.716 117.587 114.625 117.611 114.534 117.636ZM124.337 113.505C124.151 113.147 123.966 112.788 123.774 112.432L123.296 111.616C123.52 111.481 123.741 111.342 123.958 111.203C124.333 111.827 124.687 112.451 125.017 113.067C124.793 113.215 124.567 113.361 124.337 113.505Z" fill="#000072"/>
<path d="M73.7872 116.625C72.0857 116.009 70.5158 115.3 69.1025 114.508C69.1387 114.448 69.1745 114.389 69.2099 114.331C70.6124 115.115 72.1703 115.819 73.8593 116.43C73.8355 116.494 73.8114 116.559 73.7872 116.625Z" fill="#4D4775"/>
<path d="M69.1025 114.508C68.8489 114.366 68.6003 114.222 68.3571 114.075L68.268 114.021L68.3221 113.932C68.6428 113.404 68.9284 112.954 69.1583 112.601C69.2187 112.635 69.2786 112.669 69.3398 112.703C69.1233 113.036 68.8555 113.457 68.5541 113.951C68.7689 114.08 68.9876 114.206 69.2099 114.331C69.1745 114.389 69.1387 114.448 69.1025 114.508Z" fill="#0A0D6E"/>
<path d="M96.8207 119.895C95.8379 119.895 94.8394 119.881 93.8246 119.851C87.141 119.659 81.3278 118.872 76.5472 117.512C76.1737 117.406 75.7994 117.294 75.4275 117.178C75.4516 117.112 75.4754 117.048 75.4995 116.983C75.8664 117.098 76.2358 117.208 76.6043 117.313C81.3686 118.668 87.1643 119.452 93.8308 119.644C94.844 119.673 95.8413 119.688 96.8219 119.688C103.538 119.688 109.484 119 114.534 117.637C114.536 117.708 114.538 117.779 114.539 117.85C109.482 119.21 103.534 119.895 96.8207 119.895Z" fill="#4D4775"/>
<path d="M75.4275 117.177C75.151 117.091 74.8758 117.001 74.6034 116.91C74.3282 116.817 74.0562 116.722 73.7872 116.625C73.8114 116.56 73.8355 116.495 73.8593 116.43C74.1262 116.527 74.3965 116.621 74.67 116.713C74.944 116.806 75.221 116.895 75.4996 116.983C75.4754 117.047 75.4517 117.112 75.4275 117.177Z" fill="#0A0D6E"/>
<path d="M115.154 117.68C115.135 117.614 115.114 117.548 115.093 117.482C116.304 117.139 117.472 116.754 118.568 116.337C120.286 115.683 121.896 114.927 123.375 114.081C123.405 114.144 123.434 114.206 123.463 114.269C121.979 115.118 120.364 115.875 118.642 116.53C117.542 116.949 116.37 117.335 115.154 117.68Z" fill="#4D4775"/>
<path d="M123.463 114.269C123.434 114.205 123.405 114.144 123.375 114.08C123.702 113.893 124.023 113.701 124.337 113.505C124.369 113.567 124.401 113.628 124.433 113.69C124.116 113.887 123.793 114.08 123.463 114.269Z" fill="#393673"/>
<path d="M114.539 117.85C114.538 117.779 114.536 117.707 114.534 117.636C114.625 117.612 114.716 117.587 114.806 117.562C114.902 117.536 114.997 117.509 115.093 117.482C115.114 117.548 115.135 117.614 115.154 117.68C115.057 117.707 114.96 117.735 114.862 117.762C114.754 117.792 114.647 117.821 114.539 117.85ZM124.433 113.69C124.401 113.628 124.369 113.566 124.337 113.505C124.567 113.361 124.793 113.215 125.017 113.067C124.687 112.451 124.333 111.827 123.958 111.203C124.017 111.165 124.075 111.128 124.133 111.089C124.528 111.747 124.9 112.404 125.244 113.053L125.288 113.135L125.211 113.187C124.956 113.358 124.697 113.525 124.433 113.69Z" fill="#0A0D6E"/>
<path d="M82.4921 65.2076C82.3276 71.8778 76.7663 77.1525 70.0703 76.989C67.0212 76.9144 64.2587 75.7221 62.1728 73.8172C59.6797 71.5434 58.1523 68.2467 58.2418 64.6143C58.4063 57.9412 63.9676 52.6665 70.6662 52.8304C73.6298 52.903 76.3174 54.0276 78.3812 55.8392C80.9797 58.1204 82.5837 61.4898 82.4921 65.2076Z" fill="#60547B"/>
<path d="M70.3642 52.9308C63.8685 52.9308 58.5062 58.1126 58.3459 64.6169C58.2606 68.0783 59.681 71.4037 62.2432 73.7405C64.3857 75.6973 67.1666 76.814 70.0732 76.8854C76.6988 77.0455 82.2252 71.8077 82.388 65.2051C82.4754 61.6533 80.9901 58.2682 78.3125 55.9173C76.2 54.0625 73.4837 53.0034 70.6632 52.9346C70.5633 52.9321 70.4634 52.9308 70.3642 52.9308ZM70.3726 77.0961C70.2706 77.0961 70.1698 77.0949 70.0678 77.0928C67.1112 77.0202 64.2824 75.884 62.1025 73.8936C59.4961 71.5165 58.0511 68.1331 58.1377 64.6119C58.3035 57.8936 63.9176 52.5641 70.6687 52.7267C73.5374 52.7973 76.3012 53.875 78.4503 55.7617C81.1741 58.1533 82.6853 61.5969 82.5962 65.2101L82.4921 65.2076L82.5962 65.2101C82.433 71.8256 76.9783 77.0961 70.3726 77.0961Z" fill="#000072"/>
<path d="M63.5857 74.8016C63.116 74.4818 62.6671 74.1279 62.2432 73.7405C62.1624 73.6666 62.082 73.5915 62.0033 73.5156C64.4107 67.7045 68.6252 61.192 75.9822 56.8212C76.4831 57.1319 76.9591 57.4783 77.4076 57.8562C75.1322 59.28 73.0118 60.9651 71.1167 62.8779C67.6587 66.3692 65.114 70.4292 63.5857 74.8016Z" fill="#433B78"/>
<path d="M63.5699 74.8473C62.9999 74.4793 62.4631 74.0649 61.9646 73.6098C61.9775 73.5783 61.9904 73.5472 62.0034 73.5157C62.0821 73.5916 62.1624 73.6667 62.2432 73.7405C62.6671 74.128 63.116 74.4818 63.5858 74.8017C63.5808 74.817 63.5753 74.8319 63.5699 74.8473ZM78.8368 56.2604C78.6885 56.116 78.5369 55.9758 78.3812 55.8393C78.3058 55.7729 78.2288 55.7074 78.1517 55.6427C78.1584 55.6393 78.1663 55.6356 78.173 55.6319C78.402 55.8331 78.6235 56.0426 78.8368 56.2604Z" fill="#000072"/>
<path d="M79.2948 56.7543C79.1465 56.5855 78.9937 56.4209 78.8367 56.2604C78.9987 56.4176 79.1565 56.5801 79.3094 56.7465C79.3048 56.7489 79.2998 56.7514 79.2948 56.7543Z" fill="#9999C7"/>
<path d="M58.8573 61.4384C60.3593 56.503 64.9712 52.9308 70.3643 52.9308C70.4634 52.9308 70.5633 52.932 70.6633 52.9345C73.3679 53.0005 75.9772 53.9774 78.0497 55.6932C77.3343 56.0504 76.6456 56.4271 75.9822 56.8212C74.2062 55.7194 72.1207 55.0618 69.8779 55.0071C69.7759 55.0042 69.6755 55.0033 69.5743 55.0033C64.9445 55.0033 60.8973 57.6011 58.8573 61.4384Z" fill="#BFBBCA"/>
<path d="M58.6187 61.9122C59.9617 56.6691 64.7314 52.8272 70.3626 52.8272C70.4634 52.8272 70.5646 52.8281 70.6662 52.8305C73.5207 52.9007 76.12 53.9465 78.1518 55.6428C78.1172 55.6598 78.0839 55.6764 78.0497 55.6934C75.9772 53.9776 73.3679 53.0006 70.6633 52.9347C70.5633 52.9322 70.4634 52.9309 70.3643 52.9309C64.9712 52.9309 60.3594 56.5031 58.8573 61.4385C58.7745 61.5941 58.6949 61.7525 58.6187 61.9122Z" fill="#9999C7"/>
<path d="M77.4076 57.8562C76.9591 57.4784 76.4831 57.1321 75.9822 56.8214C76.6455 56.4274 77.3343 56.0508 78.0497 55.6937C78.1384 55.7671 78.2259 55.8418 78.3125 55.9177C78.6306 56.1968 78.9317 56.4905 79.2157 56.7978C78.6031 57.1325 78.0006 57.4854 77.4076 57.8562Z" fill="#B4B1C9"/>
<path d="M79.2157 56.7976C78.9317 56.4903 78.6306 56.1966 78.3125 55.9175C78.2259 55.8416 78.1384 55.767 78.0497 55.6936C78.0839 55.6766 78.1172 55.66 78.1517 55.643C78.2288 55.7077 78.3058 55.7732 78.3812 55.8396C78.5369 55.976 78.6885 56.1162 78.8367 56.2605C78.9937 56.421 79.1466 56.5857 79.2948 56.7545C79.2686 56.7686 79.2419 56.7831 79.2157 56.7976Z" fill="#9999C7"/>
<path d="M70.3634 53.6821C64.2758 53.6821 59.2504 58.5382 59.1001 64.6343C58.9472 70.8233 63.8777 75.9823 70.0907 76.1345C76.2966 76.2901 81.4818 71.3747 81.6343 65.1856C81.7084 62.1876 80.6057 59.3401 78.5298 57.168C76.4544 54.9959 73.6536 53.7593 70.6437 53.6854C70.5504 53.6834 70.4563 53.6821 70.3634 53.6821ZM70.3755 77.8474C70.2664 77.8474 70.1577 77.8462 70.0482 77.8437C62.8895 77.6682 57.2087 71.7239 57.3844 64.5924C57.5601 57.4605 63.5191 51.7983 70.6861 51.9763C74.1541 52.0613 77.3809 53.4863 79.7729 55.9891C82.1648 58.4918 83.4353 61.7728 83.3503 65.2276C83.265 68.6823 81.8341 71.8969 79.3219 74.2802C76.8887 76.5875 73.7227 77.8474 70.3755 77.8474Z" fill="#000072"/>
<path d="M111.928 63.9224C111.932 71.1332 117.804 76.9749 125.043 76.97C128.339 76.9675 131.354 75.7508 133.657 73.7462C136.409 71.3539 138.145 67.8314 138.143 63.9046C138.138 56.6909 132.266 50.8495 125.025 50.8545C121.821 50.8566 118.888 52.0024 116.611 53.9069C113.745 56.3043 111.925 59.903 111.928 63.9224Z" fill="#60547B"/>
<path d="M112.032 63.9225C112.037 71.0614 117.868 76.8663 125.034 76.8663H125.043C128.186 76.8642 131.222 75.7284 133.589 73.6679C136.419 71.2079 138.041 67.649 138.038 63.9046C138.033 56.764 132.2 50.9583 125.034 50.9583H125.025C121.974 50.9603 119.01 52.0356 116.678 53.9862C113.723 56.4586 112.029 60.0802 112.032 63.9225ZM125.034 77.0737C117.753 77.0737 111.828 71.1764 111.823 63.9225C111.821 60.0188 113.542 56.3392 116.544 53.8273C118.913 51.8456 121.925 50.7529 125.025 50.7509H125.034C132.316 50.7509 138.242 56.6491 138.247 63.9046C138.25 67.7091 136.601 71.3249 133.726 73.8243C131.321 75.9176 128.237 77.0717 125.043 77.0737H125.034Z" fill="#000072"/>
<path d="M131.925 74.0063C131.227 72.3706 130.459 70.8353 129.654 69.4352C126.24 63.4964 122.143 59.2181 117.203 56.452C117.27 56.3935 117.338 56.3354 117.406 56.2781C117.872 55.8886 118.366 55.5306 118.884 55.2074C126.452 59.9287 130.813 66.7321 133.322 72.8987C132.88 73.304 132.413 73.6736 131.925 74.0063Z" fill="#433B78"/>
<path d="M135.297 57.2564C132.912 54.7728 129.553 53.2258 125.829 53.2258C125.826 53.2258 125.823 53.2258 125.82 53.2258C123.272 53.2275 120.895 53.9526 118.884 55.2075C118.41 54.913 117.924 54.6255 117.426 54.3475C119.58 52.6392 122.232 51.7116 125.027 51.7096H125.035C129.325 51.7096 133.108 53.919 135.297 57.2564Z" fill="#BFBBCA"/>
<path d="M117.203 56.452C116.778 56.2143 116.347 55.9875 115.909 55.7718C116.057 55.6076 116.21 55.447 116.368 55.2899C116.704 54.9535 117.058 54.6391 117.426 54.348C117.924 54.6259 118.41 54.9133 118.884 55.2077C118.366 55.5308 117.872 55.8887 117.407 56.2782C117.338 56.3354 117.27 56.3935 117.203 56.452Z" fill="#B4B1C9"/>
<path d="M125.035 51.7096H125.027C121.754 51.7117 118.679 52.9832 116.368 55.2897C114.055 57.5962 112.783 60.6615 112.785 63.9209C112.788 67.1803 114.064 70.2439 116.379 72.5471C118.692 74.8482 121.766 76.1151 125.034 76.1151H125.043C128.315 76.113 131.39 74.8415 133.702 72.5354C136.014 70.2289 137.286 67.1637 137.284 63.9043C137.279 57.1785 131.785 51.7096 125.035 51.7096ZM125.034 77.8251C121.308 77.8251 117.804 76.3806 115.167 73.7567C112.527 71.1308 111.072 67.6382 111.069 63.9221C111.067 60.206 112.517 56.7109 115.153 54.0817C117.789 51.452 121.295 50.0025 125.025 50.0001H125.035C132.732 50.0001 138.995 56.2343 139 63.903C139.003 67.6192 137.553 71.1138 134.917 73.7435C132.281 76.3727 128.775 77.8226 125.044 77.8251H125.034Z" fill="#000072"/>
<path d="M62.7799 85.6758C62.7799 85.6758 47.2231 116.259 94.0148 116.878C141.438 117.507 138.083 85.8165 128.909 69.86C120.226 54.7582 108.138 52.3587 93.0146 53.5099C77.1444 54.7179 62.1978 68.1629 62.7799 85.6758Z" fill="white"/>
<path d="M99.2035 53.3581C97.2072 53.3581 95.1476 53.4514 93.0226 53.6132C78.0535 54.7528 62.2745 67.3336 62.8841 85.6721L62.8849 85.6986L62.8729 85.7227C62.8179 85.8305 57.4486 96.6135 62.7654 105.364C67.2353 112.72 77.7495 116.559 94.0161 116.775C94.4867 116.781 94.956 116.784 95.4182 116.784C113.531 116.785 125.527 112.016 131.091 102.6C137.271 92.1386 133.729 78.453 128.819 69.9119C121.338 56.9008 111.485 53.3581 99.2035 53.3581ZM95.3799 116.991C94.9281 116.991 94.4725 116.988 94.0136 116.982C77.6695 116.766 67.0958 112.892 62.5868 105.47C57.3332 96.8226 62.3894 86.2346 62.6751 85.653C62.4085 77.4201 65.5967 69.5202 71.6535 63.4055C77.3551 57.65 85.1381 54.0056 93.0067 53.4066C101.729 52.7429 108.022 53.3863 113.415 55.4937C119.798 57.9877 124.895 62.67 129 69.8086C133.938 78.3982 137.495 92.1672 131.27 102.705C128.612 107.204 124.395 110.699 118.737 113.092C112.617 115.681 104.764 116.991 95.3799 116.991Z" fill="#000072"/>
<path d="M80.2588 93.3197C80.2588 93.3197 81.6659 87.5243 84.854 83.3643C86.5805 81.1122 86.7071 77.9697 85.0018 75.7014C83.9175 74.259 82.1023 73.1613 79.0699 73.3405C70.9835 73.818 65.8731 84.3097 66.0834 90.5743C66.2941 96.8388 70.1885 99.556 72.7358 99.6298C75.283 99.7032 79.2273 98.7163 80.2588 93.3197Z" fill="#60547B"/>
<path d="M105.988 93.9456C105.988 93.9456 103.914 87.8354 99.9692 83.6265C97.833 81.3473 97.4257 77.9826 99.1576 75.4081C100.259 73.7707 102.213 72.4444 105.648 72.3905C114.807 72.247 121.452 83.1013 121.742 89.8466C122.031 96.5919 117.868 99.8268 115.002 100.113C112.136 100.398 107.605 99.6588 105.988 93.9456Z" fill="#60547B"/>
<path d="M95.4449 116.033C94.976 116.033 94.5033 116.03 94.0261 116.024C78.0439 115.812 67.7454 112.097 63.4158 104.984C62.7721 103.925 62.2919 102.834 61.9442 101.736C65.6183 107.211 73.9059 111.779 91.2207 112.009C91.6613 112.014 92.0931 112.017 92.5245 112.017C136.006 112.015 132.814 82.4824 124.223 67.5394C121.777 63.2852 119.046 60.0968 116.037 57.7454C120.622 60.2258 124.662 64.1933 128.165 70.2852C132.975 78.6518 136.457 92.0353 130.44 102.218C125.025 111.384 113.257 116.033 95.4449 116.033Z" fill="#B2B2D4"/>
<path d="M85.5003 98.8848C80.8422 96.9467 81.5722 94.0022 82.4871 92.3474C82.6028 92.1379 82.8073 92.0379 83.0109 92.0379C83.257 92.0379 83.5019 92.1843 83.586 92.4606C83.9008 93.4944 84.6554 94.7754 86.4639 94.9799C86.5709 94.992 86.6725 94.9978 86.7704 94.9978C89.5196 94.9978 88.8362 90.391 88.8362 90.391L91.5534 90.3482L94.258 90.3059C94.258 90.3059 93.0234 94.4456 96.3418 94.7236C96.4384 94.7319 96.533 94.7356 96.625 94.7356C98.6047 94.7356 99.5695 92.924 100.005 91.6347C100.098 91.3613 100.342 91.2198 100.589 91.2198C100.8 91.2198 101.013 91.3231 101.136 91.5372C102.077 93.1808 103.049 96.1904 99.1801 98.1203L91.6367 95.608L85.5003 98.8848Z" fill="#B2B2D4"/>
<path d="M96.5784 86.4578C94.7115 85.4311 91.4776 85.5422 91.4776 85.5422C91.4776 85.5422 88.242 85.5327 86.4085 86.6171C85.7985 86.978 85.5603 87.7459 85.8314 88.3992C86.3998 89.769 87.9022 92.0606 91.5796 92.003C95.2575 91.9453 96.6862 89.6081 97.2113 88.2213C97.462 87.5596 97.1997 86.7996 96.5784 86.4578Z" fill="#000072"/>
<path d="M92.3138 91.248C92.3288 91.3687 92.3342 91.4425 92.3421 91.5371L92.3575 91.8009C92.365 91.9756 92.3688 92.149 92.3634 92.3224C92.3542 92.6692 92.3275 93.0164 92.2759 93.3649C92.171 94.0589 91.9732 94.765 91.6225 95.4337C91.4447 95.7668 91.2265 96.0879 90.9708 96.3833C90.7181 96.6824 90.4062 96.9354 90.0805 97.1549C89.752 97.3756 89.393 97.5324 89.0328 97.6626C88.6701 97.7771 88.3024 97.8634 87.9401 97.8962C87.206 97.968 86.5389 97.9319 85.8364 97.8157C85.4866 97.7531 85.136 97.6601 84.7912 97.5216C84.4468 97.3872 84.107 97.2096 83.7992 96.9752C83.1804 96.5148 82.6991 95.8299 82.5358 95.1064C82.3751 94.3813 82.4488 93.6632 82.7823 93.0326C82.8361 92.931 82.9627 92.892 83.0651 92.9455C83.1205 92.9745 83.1571 93.0243 83.1709 93.0803L83.1779 93.1098C83.4674 94.3099 83.8159 95.2976 84.6333 95.7842C84.8336 95.9095 85.0618 96.0029 85.3054 96.0717C85.4237 96.1115 85.5545 96.1319 85.6794 96.1605C85.8106 96.1783 85.9388 96.2024 86.0733 96.2144C86.6043 96.2659 87.1947 96.2518 87.6953 96.1622C87.9518 96.1194 88.1887 96.0448 88.4169 95.9639C88.6356 95.8672 88.8475 95.7647 89.0287 95.6258C89.3955 95.3553 89.6853 94.9944 89.9031 94.5571C90.1109 94.1153 90.2625 93.6134 90.3341 93.0795C90.3733 92.8136 90.3987 92.5414 90.4078 92.2681C90.4116 92.1312 90.4157 91.9943 90.4132 91.8586L90.4078 91.6574L90.3974 91.4828L90.3937 91.4243C90.3616 90.8945 90.7664 90.439 91.2981 90.4071C91.8087 90.3764 92.2505 90.7497 92.3138 91.248Z" fill="#000072"/>
<path d="M92.3146 91.187L92.3084 91.3749L92.3088 91.5915C92.3117 91.7371 92.32 91.8839 92.33 92.0299C92.35 92.3232 92.3892 92.6136 92.4445 92.8961C92.5499 93.4636 92.7385 93.9951 93.0017 94.4493C93.1321 94.6787 93.2886 94.8824 93.4644 95.0629C93.5485 95.1579 93.6484 95.2338 93.7404 95.3205C93.8437 95.3922 93.9387 95.476 94.0515 95.5366C94.4817 95.8108 95.0089 95.9631 95.5756 96.0398C96.1353 96.112 96.7745 96.1053 97.3562 96.034C97.5045 96.0195 97.6431 95.9863 97.7885 95.966C97.9246 95.9299 98.0708 95.9075 98.2003 95.861C98.4714 95.7838 98.72 95.6735 98.9453 95.5378C99.4029 95.2699 99.7223 94.8699 99.9593 94.3792C100.198 93.8893 100.349 93.2873 100.459 92.6456L100.464 92.6203C100.483 92.5066 100.591 92.4307 100.705 92.4498C100.768 92.461 100.821 92.5004 100.851 92.5518C101.045 92.8895 101.144 93.2409 101.195 93.6167C101.241 93.9905 101.228 94.3821 101.133 94.7679C100.955 95.5457 100.424 96.2642 99.7677 96.7367C99.4404 96.9765 99.0856 97.1673 98.7242 97.3071C98.5434 97.3872 98.3606 97.4349 98.1778 97.498C97.9954 97.5432 97.8105 97.6 97.6273 97.6299C96.8886 97.7684 96.1811 97.8261 95.4082 97.7825C94.6466 97.7361 93.8475 97.5461 93.1208 97.142C92.9359 97.0487 92.7673 96.9255 92.594 96.8102C92.4312 96.6807 92.2646 96.5538 92.1201 96.4044C91.8216 96.1157 91.5613 95.7913 91.3506 95.447C90.9179 94.7604 90.6673 94.0108 90.5182 93.2716C90.4453 92.8999 90.4007 92.5282 90.3774 92.1561C90.3645 91.9698 90.3624 91.7835 90.3637 91.596C90.3645 91.5023 90.3674 91.4077 90.3712 91.3123C90.3766 91.2106 90.3799 91.1314 90.3928 91.0011C90.4445 90.4731 90.9159 90.0868 91.446 90.1379C91.9548 90.1872 92.3325 90.622 92.3167 91.1235L92.3146 91.187Z" fill="#000072"/>
<path d="M91.3339 91.5003C91.3339 91.5003 91.3627 91.6944 91.3697 92.0084C91.3543 91.8441 91.3431 91.6753 91.3339 91.5003Z" fill="#222A66"/>
<path d="M91.2661 92.0179C91.2506 91.8524 91.239 91.6824 91.2298 91.5057L91.4368 91.4854C91.438 91.4932 91.4668 91.6894 91.4738 92.0063L91.2661 92.0179Z" fill="#000072"/>
<path d="M99.0765 99.473C98.7392 101.911 97.3916 104.89 92.8318 104.961C91.107 104.988 89.7857 104.605 88.7742 103.993C85.2413 101.853 85.4766 96.9247 85.4766 96.9247C91.0595 97.7606 91.4152 93.508 91.3698 92.0084C92.0444 99.4079 99.0544 96.3252 99.0544 96.3252C99.0544 96.3252 99.3134 97.766 99.0765 99.473Z" fill="#000072"/>
<path d="M99.0764 99.473C98.7391 101.911 97.3916 104.89 92.8318 104.961C91.107 104.988 89.7857 104.605 88.7742 103.993C88.7742 103.993 91.1082 96.3663 99.0764 99.473Z" fill="#FF4379"/>
<path d="M86.2511 97.7617C86.3394 98.915 86.7038 101.065 88.1521 102.55C89.2593 103.685 90.8313 104.245 92.821 104.214C94.7224 104.184 96.1578 103.6 97.0885 102.478C98.396 100.902 98.476 98.5935 98.4048 97.3415C97.1618 97.7007 94.9372 98.0828 93.1391 96.9768C92.4495 96.5524 91.8965 95.96 91.483 95.2034C91.2669 95.6356 90.9812 96.0534 90.6044 96.4247C89.5779 97.4356 88.115 97.8828 86.2511 97.7617ZM92.6615 105.711C90.3208 105.711 88.4394 104.996 87.0669 103.584C84.5592 101.005 84.7183 97.0565 84.7262 96.8897C84.7362 96.6781 84.8357 96.4811 84.9998 96.3471C85.1647 96.2127 85.3775 96.1542 85.5878 96.1857C87.3821 96.4541 88.7142 96.1787 89.5438 95.366C90.5419 94.3874 90.6389 92.8222 90.6198 92.0552C90.6044 91.8863 90.5927 91.7137 90.584 91.5374C90.5644 91.1375 90.8638 90.7932 91.2636 90.7559C91.6633 90.7185 92.0223 91.0015 92.0777 91.3981C92.0823 91.43 92.111 91.6474 92.121 91.9838C92.2959 93.8228 92.9026 95.0731 93.9278 95.7037C95.8255 96.871 98.7221 95.6527 98.7504 95.6398C98.9615 95.5473 99.2031 95.556 99.4067 95.6639C99.6099 95.7717 99.7523 95.9667 99.7927 96.1928C99.8252 96.3728 100.557 100.637 98.2515 103.425C97.0281 104.904 95.2092 105.672 92.8443 105.71C92.7831 105.71 92.7223 105.711 92.6615 105.711Z" fill="#000072"/>
<path d="M93.3344 86.8251C93.3511 87.1656 92.0581 87.5044 90.4465 87.5828C88.835 87.6608 87.5154 87.4484 87.4987 87.1079C87.482 86.7678 88.775 86.4286 90.3866 86.3506C91.9977 86.2722 93.3178 86.485 93.3344 86.8251Z" fill="white"/>
<path d="M91.0666 86.4374C90.8559 86.4374 90.631 86.4424 90.3916 86.454C88.5443 86.5436 87.5941 86.9243 87.6024 87.1031C87.6116 87.2818 88.5956 87.5692 90.4416 87.4792C91.2136 87.4419 91.9357 87.3436 92.4745 87.2022C93.1016 87.0375 93.2328 86.8779 93.2303 86.8306C93.2228 86.6746 92.4774 86.4374 91.0666 86.4374ZM89.8186 87.7011C88.7605 87.7011 87.4175 87.5808 87.3946 87.113C87.3671 86.5436 89.3364 86.2976 90.3812 86.247C91.426 86.196 93.4102 86.2512 93.4381 86.8202C93.4494 87.0483 93.1516 87.2391 92.5274 87.4025C91.9752 87.5477 91.2377 87.6484 90.4515 87.6862C90.2654 87.6953 90.0485 87.7011 89.8186 87.7011Z" fill="#000072"/>
<path d="M63.5458 86.0617C63.4929 86.1658 58.3139 96.6003 63.4158 104.984C67.7454 112.097 78.0439 115.812 94.0261 116.024C112.633 116.275 124.882 111.626 130.44 102.218C136.457 92.0354 132.975 78.6518 128.165 70.2853C119.665 55.5008 107.992 53.227 93.08 54.3624C78.457 55.4755 63.0423 67.7531 63.6378 85.6476C63.6424 85.7912 63.6107 85.9335 63.5458 86.0617ZM95.3787 117.743C94.9235 117.743 94.4654 117.739 94.0036 117.733C77.3818 117.513 66.5944 113.518 61.9417 105.859C56.6952 97.2229 61.1538 87.0859 61.9159 85.4904C61.6969 77.1169 64.9591 69.0943 71.1167 62.8779C76.9441 56.9954 84.9019 53.2702 92.9488 52.6575C101.79 51.9846 108.187 52.6438 113.69 54.7943C120.239 57.3535 125.461 62.1424 129.654 69.4353C134.693 78.1996 138.309 92.271 131.92 103.086C129.177 107.727 124.842 111.326 119.031 113.784C112.818 116.412 104.866 117.743 95.3787 117.743Z" fill="#000072"/>
<path d="M112.583 81.3449C111.918 81.5813 111.245 81.8506 110.618 82.1493C109.988 82.45 109.391 82.7881 108.834 83.1631L108.627 83.3058C108.557 83.3519 108.487 83.3975 108.424 83.451L108.031 83.7568C107.902 83.8592 107.785 83.9758 107.661 84.0832C107.6 84.1384 107.539 84.1928 107.476 84.2455L107.307 84.423C106.831 84.8744 106.463 85.4128 106.101 85.9558L104.897 84.6968C104.956 84.6686 104.994 84.6532 105.035 84.6354C105.077 84.6171 105.117 84.6014 105.156 84.5865C105.235 84.5566 105.314 84.5267 105.392 84.5018C105.548 84.4475 105.703 84.4035 105.859 84.3591C106.17 84.2728 106.485 84.2127 106.801 84.1633C107.433 84.0675 108.076 84.0526 108.709 84.1139C108.867 84.1264 109.025 84.1446 109.181 84.1749C109.337 84.2027 109.494 84.2247 109.648 84.262C109.955 84.3421 110.26 84.4176 110.551 84.5396C111.143 84.7437 111.683 85.0685 112.177 85.4207C112.318 85.5211 112.35 85.7161 112.25 85.8563C112.175 85.9616 112.045 86.006 111.926 85.9795L111.89 85.9712C111.61 85.909 111.349 85.8181 111.077 85.7654C110.805 85.7148 110.541 85.6538 110.271 85.6281C110.005 85.5846 109.734 85.5846 109.47 85.5638C109.337 85.5597 109.203 85.5667 109.071 85.5651C108.94 85.5617 108.808 85.5696 108.676 85.5825C108.15 85.6115 107.63 85.6949 107.125 85.8227C106.998 85.8534 106.874 85.8924 106.749 85.926L106.38 86.0459C106.26 86.0894 106.139 86.1321 106.024 86.1819C105.965 86.2047 105.91 86.2309 105.855 86.2554C105.826 86.2674 105.8 86.2794 105.776 86.2914L105.716 86.3205L105.681 86.3375C105.233 86.5561 104.692 86.3715 104.473 85.9256C104.333 85.6414 104.361 85.3141 104.513 85.0614L104.833 84.5379L104.996 84.2774C105.053 84.1919 105.12 84.1144 105.182 84.0331L105.565 83.5506C105.7 83.3971 105.85 83.2565 105.993 83.11L106.21 82.8927L106.446 82.6977C106.605 82.5712 106.759 82.4363 106.924 82.3185C107.262 82.0928 107.596 81.8643 107.959 81.688C108.672 81.3171 109.424 81.0441 110.193 80.8794C110.966 80.7189 111.736 80.6442 112.537 80.726C112.71 80.7438 112.837 80.8981 112.819 81.0707C112.806 81.1951 112.722 81.2951 112.611 81.3349L112.583 81.3449Z" fill="#000072"/>
<path d="M77.3697 79.4283C75.1456 79.0699 72.9431 81.2391 72.4505 84.2736C71.9575 87.3082 73.3608 90.0586 75.5849 90.417C77.809 90.7754 80.0115 88.6062 80.5045 85.5717C80.9971 82.5371 79.5938 79.7867 77.3697 79.4283Z" fill="#000072"/>
<path d="M77.0158 80.8487C76.1633 80.7114 75.3467 81.3758 75.1914 82.333C75.0357 83.2903 75.6003 84.1774 76.4527 84.3147C77.3047 84.452 78.1218 83.7875 78.2771 82.8303C78.4328 81.8731 77.8678 80.986 77.0158 80.8487Z" fill="white"/>
<path d="M74.8316 88.4805C74.7712 88.4805 74.71 88.4756 74.6488 88.466C74.0292 88.3661 73.6082 87.7846 73.7081 87.1675C73.7985 86.6117 74.2811 86.216 74.8291 86.216C74.8891 86.216 74.9503 86.221 75.0119 86.231C75.6315 86.3305 76.0525 86.912 75.9522 87.5291C75.8618 88.0849 75.3796 88.4805 74.8316 88.4805Z" fill="#4D4D9D"/>
<path d="M96.122 171C78.9339 171 65 169.776 65 168.266C65 166.756 78.9339 165.532 96.122 165.532C113.31 165.532 127.244 166.756 127.244 168.266C127.244 169.776 113.31 171 96.122 171Z" fill="#212121" fill-opacity="0.1"/>
</svg>
