<svg width="15" height="14" viewBox="0 0 15 14" fill="none" xmlns="http://www.w3.org/2000/svg">
<path d="M4.41651 7.93334C4.12742 7.26318 3.55747 6.76918 2.87152 6.59444V0.583522C2.87152 0.261258 2.62057 0.000244141 2.31076 0.000244141C2.00113 0.000244141 1.74999 0.261269 1.74999 0.583522V6.59183C1.61582 6.62743 1.48437 6.67443 1.35744 6.7318C0.771236 7.00789 0.322134 7.52586 0.118539 8.16102C-0.0848809 8.79596 -0.0246384 9.49054 0.284991 10.0775C0.594619 10.6643 1.12566 11.0903 1.75001 11.2526V13.4167C1.75001 13.739 2.00116 14 2.31078 14C2.6206 14 2.87154 13.739 2.87154 13.4167V11.2555C3.60896 11.0681 4.20963 10.5133 4.47542 9.77398C4.6937 9.17706 4.67258 8.51404 4.41654 7.93357L4.41651 7.93334ZM3.42658 9.36255L3.42677 9.36235C3.28633 9.74971 2.96947 10.0388 2.5818 10.1326C2.19412 10.2266 1.78709 10.1129 1.49662 9.82987C1.20616 9.54667 1.07081 9.13144 1.13575 8.7231C1.20069 8.31457 1.45751 7.96686 1.81994 7.79618C1.9729 7.72273 2.13954 7.68489 2.30795 7.6853C2.53739 7.6853 2.76213 7.75407 2.95499 7.88326C3.14805 8.01265 3.301 8.19698 3.39587 8.41445C3.52965 8.71251 3.54276 9.05409 3.43225 9.36232L3.42658 9.36255Z" fill="#4B7BE5"/>
<path d="M14.7917 7.93328C14.5024 7.26312 13.9324 6.76911 13.2465 6.59438V0.583461C13.2465 0.261197 12.9955 0.000183105 12.6857 0.000183105C12.3761 0.000183105 12.1249 0.261208 12.1249 0.583461V6.59177C11.9908 6.62737 11.8595 6.67437 11.7324 6.73174C11.1462 7.00783 10.6971 7.5258 10.4937 8.16096C10.2901 8.7959 10.3503 9.49048 10.6599 10.0775C10.9698 10.6642 11.5006 11.0902 12.125 11.2526V13.4167C12.125 13.7389 12.3761 13.9999 12.6857 13.9999C12.9956 13.9999 13.2465 13.7389 13.2465 13.4167V11.2554C13.9841 11.068 14.5846 10.5132 14.8506 9.77392C15.0689 9.17699 15.0475 8.51398 14.7917 7.93351L14.7917 7.93328ZM13.8017 9.36249V9.36228C13.6615 9.74965 13.3444 10.0387 12.9568 10.1325C12.5691 10.2265 12.162 10.1128 11.8716 9.82981C11.5811 9.54661 11.4458 9.13137 11.5107 8.72304C11.5756 8.31451 11.8325 7.9668 12.1949 7.79612C12.348 7.72308 12.5145 7.68524 12.6829 7.68524C12.9123 7.68524 13.1371 7.754 13.3301 7.8832C13.523 8.01259 13.676 8.19691 13.7708 8.41439C13.9029 8.71326 13.914 9.05486 13.8017 9.36225L13.8017 9.36249Z" fill="#4B7BE5"/>
<path d="M8.31395 2.91662C8.22984 2.88448 8.14573 2.85823 8.05869 2.83504L8.05889 0.583279C8.05889 0.261015 7.80774 0 7.49813 0C7.1883 0 6.93716 0.261025 6.93716 0.583279V2.84358C6.2729 3.01814 5.71704 3.48952 5.41876 4.13102C5.12067 4.77269 5.11089 5.51878 5.39216 6.16857C5.6433 6.75086 6.10785 7.20434 6.68213 7.42851C6.76624 7.46066 6.85308 7.4869 6.93738 7.51009L6.93719 13.4163C6.93719 13.7386 7.18833 13.9996 7.49815 13.9996C7.80778 13.9996 8.05892 13.7386 8.05892 13.4163V7.50697C8.19368 7.4736 8.32532 7.42681 8.45147 7.36699C9.01479 7.10678 9.45468 6.6232 9.67355 6.02382C9.89242 5.42424 9.87188 4.75878 9.61643 4.17529C9.36118 3.59159 8.89233 3.13852 8.31395 2.91634L8.31395 2.91662ZM8.62241 5.61437C8.51091 5.92219 8.28637 6.17119 7.99845 6.30671C7.71034 6.44221 7.38231 6.45299 7.08658 6.33682C6.79064 6.22065 6.5514 5.9871 6.42136 5.6874C6.25472 5.30389 6.2866 4.85876 6.50586 4.50516C6.72512 4.15136 7.10182 3.93772 7.50651 3.93735C7.65008 3.93756 7.79247 3.96421 7.92704 4.01609C8.22005 4.13368 8.45611 4.36785 8.58324 4.6665C8.71781 4.96435 8.7319 5.30572 8.62236 5.61436L8.62241 5.61437Z" fill="#4B7BE5"/>
</svg>
