
<svg width="42" height="42" viewBox="0 0 42 42" fill="none" xmlns="http://www.w3.org/2000/svg">
<rect width="42" height="42" rx="6" fill="white"/>
<rect x="0.5" y="0.5" width="41" height="41" rx="5.5" stroke="black" stroke-opacity="0.1"/>
<path d="M26.3082 26.001H23.9911C23.8548 26.001 23.7185 26.1373 23.6504 26.2736L22.6963 32.2708C22.6963 32.4071 22.7644 32.4752 22.9007 32.4752H24.1274C24.2637 32.4752 24.3319 32.4071 24.3319 32.2708L24.6045 30.567C24.6045 30.4307 24.7408 30.2944 24.9452 30.2944H25.6949C27.2623 30.2944 28.1482 29.5448 28.3527 28.0455C28.489 27.4322 28.3527 26.887 28.0801 26.5462C27.6712 26.2055 27.0578 26.001 26.3082 26.001ZM26.5808 28.25C26.4445 29.0678 25.8312 29.0678 25.2178 29.0678H24.8089L25.0815 27.5003C25.0815 27.4322 25.1497 27.364 25.286 27.364H25.4223C25.8312 27.364 26.2401 27.364 26.4445 27.6366C26.5808 27.7048 26.5808 27.9092 26.5808 28.25Z" fill="#139AD6"/>
<path d="M9.61192 26.0007H7.29484C7.15854 26.0007 7.02224 26.137 6.95409 26.2733L6 32.2705C6 32.4068 6.06815 32.4749 6.20445 32.4749H7.29484C7.43114 32.4749 7.56744 32.3386 7.63558 32.2023L7.90818 30.5667C7.90818 30.4304 8.04448 30.2941 8.24893 30.2941H8.99857C10.566 30.2941 11.452 29.5445 11.6564 28.0452C11.7927 27.4319 11.6564 26.8867 11.3838 26.5459C10.9749 26.2052 10.4297 26.0007 9.61192 26.0007ZM9.88452 28.2497C9.74822 29.0675 9.13487 29.0675 8.52153 29.0675H8.18078L8.45338 27.5C8.45338 27.4319 8.52153 27.3637 8.65783 27.3637H8.79412C9.20302 27.3637 9.61192 27.3637 9.81637 27.6363C9.88451 27.7045 9.95266 27.9089 9.88452 28.2497ZM16.6313 28.1815H15.5409C15.4728 28.1815 15.3365 28.2497 15.3365 28.3178L15.2683 28.6586L15.2002 28.5223C14.9276 28.1815 14.4505 28.0452 13.9053 28.0452C12.6786 28.0452 11.5882 28.9993 11.3838 30.2941C11.2475 30.9756 11.452 31.589 11.7927 31.9979C12.1334 32.4068 12.6105 32.5431 13.2238 32.5431C14.2461 32.5431 14.7913 31.9297 14.7913 31.9297L14.7231 32.2705C14.7231 32.4068 14.7913 32.4749 14.9276 32.4749H15.9498C16.0861 32.4749 16.2224 32.3386 16.2906 32.2023L16.9039 28.386C16.8358 28.3178 16.6995 28.1815 16.6313 28.1815ZM15.0639 30.3623C14.9276 30.9756 14.4505 31.4527 13.769 31.4527C13.4283 31.4527 13.1557 31.3164 13.0194 31.1801C12.8831 30.9756 12.8149 30.703 12.8149 30.3623C12.8831 29.7489 13.4283 29.2719 14.0416 29.2719C14.3824 29.2719 14.5868 29.4082 14.7913 29.5445C14.9957 29.7489 15.0639 30.0897 15.0639 30.3623Z" fill="#263B80"/>
<path d="M33.2599 28.1832H32.1695C32.1014 28.1832 31.9651 28.2513 31.9651 28.3195L31.8969 28.6602L31.8288 28.5239C31.5562 28.1832 31.0791 28.0469 30.5339 28.0469C29.3073 28.0469 28.2169 29.001 28.0124 30.2958C27.8761 30.9773 28.0806 31.5906 28.4213 31.9995C28.7621 32.4084 29.2391 32.5447 29.8525 32.5447C30.8747 32.5447 31.4199 31.9314 31.4199 31.9314L31.3517 32.2721C31.3517 32.4084 31.4199 32.4766 31.5562 32.4766H32.5784C32.7147 32.4766 32.851 32.3403 32.9192 32.204L33.5325 28.3876C33.4644 28.3195 33.3962 28.1832 33.2599 28.1832ZM31.6925 30.364C31.5562 30.9773 31.0791 31.4543 30.3976 31.4543C30.0569 31.4543 29.7843 31.318 29.648 31.1817C29.5117 30.9773 29.4436 30.7047 29.4436 30.364C29.5117 29.7506 30.0569 29.2736 30.6702 29.2736C31.011 29.2736 31.2154 29.4099 31.4199 29.5462C31.6925 29.7506 31.7606 30.0914 31.6925 30.364Z" fill="#139AD6"/>
<path d="M22.5605 28.1806H21.402C21.2657 28.1806 21.1975 28.2488 21.1294 28.3169L19.6301 30.634L18.9486 28.4532C18.8804 28.3169 18.8123 28.2488 18.6078 28.2488H17.5174C17.3811 28.2488 17.313 28.3851 17.313 28.5213L18.5397 32.1333L17.3811 33.7689C17.313 33.9052 17.3811 34.1096 17.5174 34.1096H18.6078C18.7441 34.1096 18.8123 34.0415 18.8804 33.9733L22.6286 28.5895C22.8331 28.3851 22.6968 28.1806 22.5605 28.1806Z" fill="#263B80"/>
<path d="M34.5552 26.207L33.6011 32.3405C33.6011 32.4768 33.6692 32.5449 33.8055 32.5449H34.7596C34.8959 32.5449 35.0322 32.4086 35.1004 32.2723L36.0545 26.2752C36.0545 26.1389 35.9863 26.0707 35.85 26.0707H34.7596C34.6915 26.0026 34.6233 26.0707 34.5552 26.207Z" fill="#139AD6"/>
<path d="M24.6727 8.4566C24.084 7.78371 22.9905 7.44727 21.4765 7.44727H17.271C17.0187 7.44727 16.7663 7.6996 16.6822 7.95193L15 18.9704C15 19.2228 15.1682 19.391 15.3364 19.391H17.9439L18.6168 15.2696V15.4378C18.7009 15.1855 18.9532 14.9331 19.2055 14.9331H20.4672C22.9064 14.9331 24.7569 13.9238 25.3456 11.1481V10.8958C25.2615 10.8958 25.2615 10.8958 25.3456 10.8958C25.4297 9.80237 25.2615 9.12948 24.6727 8.4566Z" fill="#263B80"/>
<path d="M25.2626 10.8944V11.1467C24.6738 14.0065 22.8234 14.9317 20.3842 14.9317H19.1225C18.8702 14.9317 18.6178 15.1841 18.5337 15.4364L17.6926 20.5671C17.6926 20.7354 17.7767 20.9036 18.0291 20.9036H20.2159C20.4683 20.9036 20.7206 20.7354 20.7206 20.483V20.3989L21.1412 17.7915V17.6233C21.1412 17.3709 21.3935 17.2027 21.6458 17.2027H21.9823C24.085 17.2027 25.7673 16.3616 26.1878 13.8383C26.356 12.829 26.2719 11.9037 25.7673 11.315C25.6832 11.1467 25.5149 10.9785 25.2626 10.8944Z" fill="#139AD6"/>
<path d="M24.6741 10.6429C24.59 10.6429 24.5059 10.5588 24.4218 10.5588C24.3377 10.5588 24.2536 10.5588 24.1695 10.4747C23.833 10.3906 23.4966 10.3906 23.076 10.3906H19.7957C19.7116 10.3906 19.6275 10.3906 19.5434 10.4747C19.3752 10.5588 19.2911 10.727 19.2911 10.8952L18.6182 15.269V15.4372C18.7023 15.1849 18.9546 14.9325 19.2069 14.9325H20.4686C22.9078 14.9325 24.7583 13.9232 25.347 11.1476C25.347 11.0634 25.347 10.9793 25.4311 10.8952C25.2629 10.8111 25.1788 10.727 25.0106 10.727C24.7582 10.6429 24.7583 10.6429 24.6741 10.6429Z" fill="#232C65"/>
</svg>
