<svg width="42" height="42" viewBox="0 0 42 42" fill="none" xmlns="http://www.w3.org/2000/svg">
<rect width="42" height="42" rx="6" fill="white"/>
<rect x="0.5" y="0.5" width="41" height="41" rx="5.5" stroke="black" stroke-opacity="0.1"/>
<path d="M20.7422 11.924L20.1638 14.1527L23.4745 11.9114L21.3092 20.3684L23.5083 20.3703L26.7069 7.87891" fill="#3395FF"/>
<path d="M16.9343 16.575L16 19.9776H20.6235L22.5155 13.0558L16.9343 16.575Z" fill="#072654"/>
<path d="M8.02816 25.604C7.96588 25.8454 7.84588 26.0227 7.66691 26.1359C7.48836 26.2489 7.23777 26.3056 6.9143 26.3056H5.88661L6.24744 24.9028H7.27514C7.59819 24.9028 7.82013 24.9591 7.94055 25.0738C8.06097 25.1885 8.09003 25.3639 8.02816 25.6064V25.604ZM9.0922 25.5761C9.22299 25.0695 9.16901 24.6798 8.92984 24.407C8.69108 24.1364 8.27211 24 7.67418 24H5.38065L4 29.3711H5.11427L5.67068 27.2062H6.40149C6.56551 27.2062 6.69465 27.2344 6.7889 27.2885C6.88337 27.3448 6.9388 27.4422 6.95583 27.5829L7.15472 29.3711H8.34851L8.15502 27.7042C8.11557 27.3318 7.95217 27.1131 7.66504 27.0482C8.03107 26.9378 8.33772 26.7538 8.58478 26.4983C8.83012 26.2447 9.0054 25.9269 9.0922 25.5782V25.5761ZM11.8008 27.4487C11.7073 27.8124 11.5641 28.0873 11.3704 28.28C11.1765 28.4727 10.9448 28.5679 10.6744 28.5679C10.3991 28.5679 10.2125 28.4749 10.1139 28.2865C10.015 28.0982 10.0117 27.8254 10.1035 27.4682C10.1953 27.111 10.3416 26.8317 10.543 26.6304C10.7444 26.429 10.9798 26.3284 11.2502 26.3284C11.5201 26.3284 11.7048 26.4258 11.7983 26.6191C11.8938 26.8133 11.8958 27.091 11.8024 27.4526L11.8008 27.4487ZM12.2891 25.5479L12.1495 26.0913C12.0893 25.8965 11.9724 25.7406 11.7997 25.6237C11.6266 25.5089 11.4123 25.4505 11.1567 25.4505C10.8432 25.4505 10.5422 25.5349 10.2536 25.7038C9.96501 25.8726 9.71172 26.1108 9.4958 26.4182C9.27988 26.7256 9.12209 27.0742 9.02036 27.466C8.9207 27.86 8.89994 28.2042 8.96015 28.503C9.02244 28.8039 9.15323 29.0334 9.35462 29.1936C9.55808 29.356 9.8176 29.4361 10.1353 29.4361C10.3877 29.4374 10.6372 29.3805 10.8661 29.2694C11.0923 29.163 11.2935 29.0063 11.4557 28.8104L11.3104 29.3768H12.3879L13.3718 25.5499H12.2922L12.2891 25.5479ZM17.2438 25.5479H14.1103L13.8912 26.4009H15.7145L13.3041 28.5723L13.0981 29.3733H16.3328L16.5518 28.5203H14.5982L17.0455 26.3164L17.2438 25.5479ZM20.002 27.4422C19.905 27.8189 19.7612 28.1021 19.5712 28.2865C19.3812 28.4727 19.1512 28.5658 18.8811 28.5658C18.3164 28.5658 18.1307 28.1913 18.3234 27.4422C18.4189 27.0698 18.5634 26.7899 18.7565 26.6013C18.9496 26.4121 19.1836 26.3177 19.4587 26.3177C19.7286 26.3177 19.9108 26.4115 20.0047 26.6003C20.0985 26.7886 20.0977 27.0698 20.002 27.4422ZM20.6327 25.6919C20.3846 25.5308 20.068 25.4503 19.6818 25.4503C19.2909 25.4503 18.929 25.5304 18.596 25.6906C18.2644 25.8498 17.9729 26.0874 17.7448 26.3846C17.5102 26.6856 17.3414 27.0384 17.2378 27.4411C17.1361 27.8423 17.1236 28.1945 17.2025 28.4961C17.2814 28.797 17.4475 29.0286 17.6966 29.1888C17.9478 29.3503 18.2676 29.4307 18.66 29.4307C19.0461 29.4307 19.4053 29.3497 19.7354 29.1886C20.0655 29.0267 20.3479 28.7968 20.5825 28.4937C20.8171 28.1919 20.9853 27.8399 21.0891 27.4372C21.1929 27.0345 21.2053 26.683 21.1264 26.3807C21.0475 26.0798 20.8835 25.8482 20.6365 25.6869L20.6327 25.6919ZM24.4794 26.5702L24.7556 25.5289C24.6621 25.4791 24.5396 25.4531 24.386 25.4531C24.1389 25.4531 23.9023 25.5167 23.6739 25.6458C23.4775 25.7553 23.3106 25.9099 23.1694 26.1034L23.3126 25.5427L22.9998 25.544H22.2316L21.2412 29.3694H22.3339L22.8478 27.3697C22.9225 27.0789 23.0571 26.8501 23.2512 26.6877C23.4443 26.5247 23.6851 26.4431 23.9758 26.4431C24.1543 26.4431 24.3204 26.4857 24.4782 26.5708L24.4794 26.5702ZM27.5198 27.4606C27.4263 27.8178 27.2852 28.0906 27.0921 28.2789C26.899 28.4681 26.6665 28.5625 26.3966 28.5625C26.1267 28.5625 25.9419 28.4673 25.8443 28.2768C25.7446 28.0852 25.7426 27.8091 25.836 27.4463C25.9294 27.0837 26.0727 26.8055 26.2699 26.6128C26.4671 26.4186 26.6997 26.3216 26.9696 26.3216C27.2353 26.3216 27.4139 26.4212 27.5094 26.6226C27.6049 26.8239 27.607 27.1032 27.5152 27.4604L27.5198 27.4606ZM28.2792 25.6982C28.0768 25.5293 27.8183 25.4449 27.5048 25.4449C27.2301 25.4449 26.9683 25.5098 26.72 25.641C26.4719 25.772 26.2705 25.9506 26.1159 26.1766L26.1196 26.1506L26.3029 25.5423H25.2358L24.9638 26.6009L24.9555 26.6377L23.8344 30.9987H24.9285L25.4932 28.8035C25.5493 28.9988 25.6635 29.152 25.8379 29.2629C26.0123 29.3733 26.2276 29.4281 26.4835 29.4281C26.8012 29.4281 27.1043 29.348 27.3919 29.1878C27.6805 29.0271 27.9296 28.7959 28.1414 28.4972C28.3531 28.1984 28.5103 27.852 28.6106 27.4602C28.7123 27.0677 28.7331 26.7176 28.6749 26.4113C28.6158 26.1045 28.4848 25.867 28.2825 25.699L28.2792 25.6982ZM31.9086 27.445C31.8151 27.8066 31.6719 28.0837 31.4788 28.2742C31.2857 28.466 31.0532 28.5615 30.7833 28.5615C30.5071 28.5615 30.3203 28.4684 30.2227 28.28C30.1231 28.0917 30.121 27.8189 30.2123 27.4617C30.3037 27.1045 30.4494 26.8252 30.6508 26.6239C30.8522 26.4225 31.0878 26.3221 31.3582 26.3221C31.6281 26.3221 31.8108 26.4195 31.9063 26.6122C32.0018 26.8055 32.0024 27.0833 31.9094 27.4457L31.9086 27.445ZM32.3964 25.5431L32.2567 26.0865C32.1965 25.8906 32.0802 25.7347 31.9079 25.6189C31.7335 25.5033 31.5197 25.4457 31.2643 25.4457C30.9508 25.4457 30.6481 25.5302 30.3591 25.699C30.0705 25.8679 29.8172 26.1047 29.6013 26.4113C29.3854 26.7178 29.2276 27.0672 29.1259 27.4591C29.0252 27.8524 29.0055 28.1973 29.0657 28.4974C29.1265 28.7961 29.2575 29.0269 29.4601 29.188C29.6624 29.3482 29.9231 29.4291 30.2408 29.4291C30.4961 29.4291 30.7401 29.3737 30.9716 29.2624C31.1973 29.1556 31.398 28.9987 31.5598 28.8028L31.4144 29.3696H32.492L33.4756 25.5442H32.3981L32.3964 25.5431ZM37.9994 25.5444L38 25.5434H37.3377C37.3165 25.5434 37.2978 25.5444 37.2785 25.5449H36.9349L36.7585 25.8003L36.7149 25.861L36.6962 25.8913L35.3 27.9193L35.0114 25.5444H33.8678L34.4471 29.1533L33.1682 31H34.308L34.6173 30.5426C34.626 30.5291 34.6339 30.5179 34.6443 30.5036L35.0056 29.9689L35.0159 29.9537L36.6339 27.5615L37.9979 25.5481L38 25.5468H37.9994V25.5444Z" fill="#072654"/>
</svg>
