
<svg width="42" height="42" viewBox="0 0 42 42" fill="none" xmlns="http://www.w3.org/2000/svg">
<rect width="42" height="42" rx="6" fill="#8686FD"/>
<path d="M20.1436 17.0207L22.2348 16.6007V15L20.1436 15.42V17.0207Z" fill="white"/>
<path d="M20.1489 24.39H22.2389V17.6174H20.1489V24.39Z" fill="white"/>
<path d="M11.2825 22.413C11.2825 20.075 8.09875 20.495 8.09875 19.6106L8.1 19.613C8.1 19.3073 8.3725 19.1883 8.8075 19.1836C9.44 19.1836 10.2463 19.3644 10.8788 19.6876V17.8396C10.19 17.5829 9.50125 17.4814 8.8125 17.4814C7.12625 17.4814 6 18.3121 6 19.7005C6 21.8752 9.165 21.5228 9.165 22.4597C9.165 22.8225 8.83125 22.9415 8.36625 22.9415C7.6775 22.9415 6.78625 22.672 6.08875 22.3127V24.0814C6.86125 24.394 7.645 24.527 8.3625 24.527C10.0912 24.527 11.2825 23.8294 11.2825 22.413ZM26.585 17.4838C25.77 17.4838 25.245 17.8466 24.9538 18.0986L24.845 17.6109H23.0125V26.6667L25.0938 26.2514L25.0988 24.0312C25.3988 24.2389 25.8438 24.5259 26.5713 24.5259C28.0638 24.5259 29.4225 23.5004 29.4225 21.0071C29.4263 18.7263 28.0487 17.4838 26.585 17.4838ZM26.0887 22.8995C25.6012 22.8995 25.31 22.7327 25.1087 22.5285L25.095 19.6095C25.31 19.3843 25.61 19.2209 26.0887 19.2209C26.8487 19.2209 27.3725 20.026 27.3725 21.0515C27.3775 22.1073 26.8625 22.8995 26.0887 22.8995ZM32.9913 17.4838C31.0125 17.4838 29.8062 19.0704 29.8062 21.0701C29.8062 23.435 31.2275 24.527 33.2525 24.527C34.2475 24.527 34.9925 24.3147 35.56 24.0184V22.5413C34.9925 22.8108 34.3413 22.9742 33.5163 22.9742C32.7038 22.9742 31.9925 22.7047 31.8988 21.7853H35.9725C35.9825 21.6827 36 21.272 36 21.083C36 19.0716 34.9688 17.4838 32.9913 17.4838ZM31.8787 20.3398C31.8787 19.4555 32.4562 19.0844 32.9762 19.0844C33.4875 19.0844 34.0312 19.4555 34.0312 20.3398H31.8787ZM15.315 19.2874V17.6168H13.735L13.73 15.9134L11.6988 16.3206L11.6888 22.616C11.6888 23.7792 12.6175 24.5305 13.8513 24.5305C14.5363 24.5305 15.0375 24.4104 15.315 24.2692V22.7758C15.0475 22.8773 13.7337 23.239 13.7337 22.0817V19.2874H15.315ZM19.6462 19.4205V17.6168C19.365 17.5234 18.395 17.3519 17.9075 18.1966L17.7812 17.6168H15.9812V24.3894H18.0575V19.8311C18.55 19.2221 19.38 19.3411 19.6462 19.4205Z" fill="white"/>
</svg>
