<svg width="42" height="42" viewBox="0 0 42 42" fill="none" xmlns="http://www.w3.org/2000/svg">
<rect width="42" height="42" rx="6" fill="#8686FD"/>
<path d="M19.5586 17.2228L21.859 16.7608V15L19.5586 15.462V17.2228Z" fill="white"/>
<path d="M19.5645 25.3288H21.8635V17.8789H19.5645V25.3288Z" fill="white"/>
<path d="M9.81075 23.1535C9.81075 20.5816 6.30862 21.0436 6.30862 20.0709L6.31 20.0734C6.31 19.7372 6.60975 19.6063 7.08825 19.6012C7.784 19.6012 8.67088 19.8001 9.36663 20.1556V18.1227C8.609 17.8404 7.85138 17.7287 7.09375 17.7287C5.23888 17.7287 4 18.6425 4 20.1697C4 22.5619 7.4815 22.1743 7.4815 23.2048C7.4815 23.6039 7.11438 23.7348 6.60287 23.7348C5.84525 23.7348 4.86488 23.4384 4.09763 23.0431V24.9887C4.94737 25.3326 5.8095 25.4789 6.59875 25.4789C8.50037 25.4789 9.81075 24.7115 9.81075 23.1535ZM26.6435 17.7313C25.747 17.7313 25.1695 18.1304 24.8491 18.4076L24.7295 17.8712H22.7137V27.8326L25.0031 27.3757L25.0086 24.9335C25.3386 25.1619 25.8281 25.4776 26.6284 25.4776C28.2701 25.4776 29.7648 24.3496 29.7648 21.607C29.7689 19.0981 28.2536 17.7313 26.6435 17.7313ZM26.0976 23.6886C25.5614 23.6886 25.241 23.5051 25.0196 23.2805L25.0045 20.0696C25.241 19.8219 25.571 19.6422 26.0976 19.6422C26.9336 19.6422 27.5098 20.5277 27.5098 21.6558C27.5152 22.8172 26.9487 23.6886 26.0976 23.6886ZM33.6904 17.7313C31.5138 17.7313 30.1869 19.4767 30.1869 21.6763C30.1869 24.2777 31.7502 25.4789 33.9778 25.4789C35.0723 25.4789 35.8918 25.2453 36.516 24.9194V23.2946C35.8918 23.5911 35.1754 23.7708 34.2679 23.7708C33.3741 23.7708 32.5917 23.4743 32.4886 22.463H36.9697C36.9808 22.3501 37 21.8984 37 21.6905C37 19.4779 35.8656 17.7313 33.6904 17.7313ZM32.4666 20.873C32.4666 19.9002 33.1019 19.4921 33.6739 19.4921C34.2362 19.4921 34.8344 19.9002 34.8344 20.873H32.4666ZM14.2465 19.7154V17.8776H12.5085L12.503 16.0039L10.2686 16.4518L10.2576 23.3768C10.2576 24.6563 11.2793 25.4828 12.6364 25.4828C13.3899 25.4828 13.9412 25.3506 14.2465 25.1953V23.5526C13.9523 23.6643 12.5071 24.0621 12.5071 22.789V19.7154H14.2465ZM19.0109 19.8617V17.8776C18.7015 17.7749 17.6345 17.5863 17.0983 18.5154L16.9594 17.8776H14.9794V25.3275H17.2633V20.3134C17.805 19.6435 18.718 19.7744 19.0109 19.8617Z" fill="white"/>
<path d="M21.8635 21.416H19.5645V25.3277H21.8635V21.416Z" fill="white"/>
<path d="M8.88541 21.416H4.45516C5.39841 22.4594 7.48153 22.4068 7.48153 23.2037C7.48153 23.6029 7.11441 23.7338 6.60291 23.7338C5.84528 23.7338 4.86491 23.4373 4.09766 23.042V24.9876C4.94741 25.3315 5.80953 25.4778 6.59878 25.4778C8.50041 25.4778 9.81216 24.7091 9.81216 23.1524C9.81078 22.2874 9.41341 21.7651 8.88541 21.416ZM29.7607 21.416H27.5015C27.507 21.4943 27.5098 21.5739 27.5098 21.6547C27.5153 22.8174 26.9474 23.6876 26.0977 23.6876C25.5614 23.6876 25.241 23.5028 25.0197 23.2794L25.0114 21.416H22.7152V27.8328L25.0045 27.3759L25.01 24.9337C25.34 25.1621 25.8295 25.4778 26.6298 25.4778C28.2715 25.4778 29.7662 24.3498 29.7662 21.6072C29.7648 21.5431 29.7634 21.4789 29.7607 21.416ZM36.9932 21.416H30.1924C30.1883 21.502 30.1855 21.5893 30.1855 21.6765C30.1855 24.2779 31.7489 25.4791 33.9764 25.4791C35.0709 25.4791 35.8904 25.2455 36.5147 24.9196V23.2948C35.8904 23.5913 35.174 23.771 34.2665 23.771C33.3728 23.771 32.5904 23.4745 32.4873 22.4632H36.9684C36.9794 22.3503 36.9987 21.8986 36.9987 21.6907H37C37 21.5983 36.9973 21.5071 36.9932 21.416ZM12.5085 21.416H10.2618L10.259 23.377C10.259 24.6565 11.2807 25.483 12.6378 25.483C13.3913 25.483 13.9427 25.3508 14.2479 25.1955V23.5528C14.1228 23.6003 13.7873 23.7004 13.4449 23.7004C12.9843 23.7004 12.5085 23.5194 12.5085 22.7892V21.416Z" fill="white"/>
<path d="M17.2649 21.416H14.9824V25.3277H17.2649V21.416Z" fill="white"/>
</svg>
