<svg width="6" height="11" viewBox="0 0 6 11" fill="none" xmlns="http://www.w3.org/2000/svg">
    <path d="M1.49688 0.49906C1.60893 0.49868 1.71964 0.523408 1.82087 0.57143C1.92211 0.619452 2.01129 0.689546 2.08188 0.776561L5.70438 5.27656C5.81469 5.41076 5.875 5.57909 5.875 5.75281C5.875 5.92653 5.81469 6.09486 5.70438 6.22906L1.95438 10.7291C1.82708 10.8822 1.64415 10.9785 1.44583 10.9968C1.24751 11.0151 1.05005 10.9539 0.896884 10.8266C0.743722 10.6993 0.647404 10.5163 0.629119 10.318C0.610835 10.1197 0.67208 9.92222 0.799384 9.76906L4.15188 5.74906L0.911884 1.72906C0.820171 1.61897 0.761914 1.48492 0.744004 1.34275C0.726094 1.20059 0.749282 1.05627 0.810824 0.926879C0.872366 0.797484 0.969686 0.688425 1.09127 0.612607C1.21285 0.536789 1.35361 0.497386 1.49688 0.49906Z"
          fill="#212121"/>
</svg>
