<svg width="6" height="11" viewBox="0 0 6 11" fill="none" xmlns="http://www.w3.org/2000/svg">
    <path d="M4.87812 10.5009C4.76607 10.5013 4.65536 10.4766 4.55413 10.4286C4.45289 10.3805 4.3637 10.3105 4.29312 10.2234L0.670616 5.72344C0.560305 5.58924 0.5 5.42091 0.5 5.24719C0.5 5.07347 0.560305 4.90514 0.670616 4.77094L4.42062 0.270939C4.54792 0.117777 4.73085 0.0214584 4.92917 0.00317363C5.12749 -0.0151112 5.32495 0.0461353 5.47812 0.173439C5.63128 0.300743 5.7276 0.483677 5.74588 0.681996C5.76417 0.880316 5.70292 1.07778 5.57562 1.23094L2.22312 5.25094L5.46312 9.27094C5.55483 9.38103 5.61309 9.51508 5.63099 9.65725C5.6489 9.79941 5.62572 9.94373 5.56418 10.0731C5.50263 10.2025 5.40531 10.3116 5.28373 10.3874C5.16215 10.4632 5.02139 10.5026 4.87812 10.5009Z"
          fill="#212121"/>
</svg>
