<svg width="11" height="6" viewBox="0 0 11 6" fill="none" xmlns="http://www.w3.org/2000/svg">
    <path d="M3.60483e-05 4.37812C-0.000344463 4.26607 0.0243843 4.15536 0.0724056 4.05413C0.120428 3.95289 0.190522 3.8637 0.277537 3.79312L4.77754 0.170616C4.91174 0.0603044 5.08007 -2.36955e-07 5.25379 -2.29362e-07C5.42751 -2.21768e-07 5.59584 0.0603045 5.73004 0.170616L10.23 3.92062C10.3832 4.04792 10.4795 4.23085 10.4978 4.42917C10.5161 4.62749 10.4548 4.82495 10.3275 4.97812C10.2002 5.13128 10.0173 5.2276 9.81898 5.24588C9.62066 5.26417 9.4232 5.20292 9.27004 5.07562L5.25004 1.72312L1.23004 4.96311C1.11995 5.05483 0.985892 5.11308 0.843731 5.13099C0.701569 5.1489 0.557251 5.12572 0.427855 5.06417C0.29846 5.00263 0.1894 4.90531 0.113583 4.78373C0.0377653 4.66215 -0.00163766 4.52139 3.60483e-05 4.37812Z"
          fill="#212121"/>
</svg>
