<svg width="8" height="13" viewBox="0 0 8 13" fill="none" xmlns="http://www.w3.org/2000/svg">
<path d="M5.38995 5.99866L0.756981 1.46106C0.675538 1.38168 0.610908 1.28731 0.566806 1.18336C0.522704 1.07942 0.5 0.967949 0.5 0.855372C0.5 0.742795 0.522704 0.631329 0.566806 0.527382C0.610908 0.423436 0.675538 0.32906 0.756981 0.249681C0.921969 0.0897193 1.14467 0 1.37673 0C1.6088 0 1.8315 0.0897193 1.99648 0.249681L7.24532 5.38891C7.4039 5.54496 7.49504 5.75491 7.49977 5.97513C7.5045 6.19534 7.42246 6.40887 7.27072 6.57133L2.00011 11.7507C1.91896 11.8305 1.82258 11.8938 1.71646 11.9371C1.61035 11.9803 1.49657 12.0027 1.38164 12.0028C1.26671 12.003 1.15288 11.981 1.04663 11.938C0.940385 11.8951 0.843811 11.832 0.762424 11.7525C0.681037 11.6729 0.616431 11.5785 0.572293 11.4744C0.528156 11.3704 0.505352 11.2589 0.505184 11.1463C0.504843 10.9187 0.596723 10.7004 0.76061 10.5393L5.38995 5.99866Z" fill="#212121" fill-opacity="0.4"/>
</svg>
