<svg width="159" height="50" viewBox="0 0 159 50" fill="none" xmlns="http://www.w3.org/2000/svg">
<path d="M87.011 19.6172H89.1326V23.9952H87.4621C87.4134 25.2631 87.2264 26.4872 86.9013 27.6674C86.5192 29.0789 85.942 30.4146 85.1698 31.6746C84.3976 32.9425 83.3246 33.9673 81.9508 34.7488C80.5689 35.5303 78.9797 35.921 77.1832 35.921C74.5007 35.921 72.7083 35.1834 71.806 33.7081C70.1965 35.1834 68.3919 35.921 66.3922 35.921C63.7016 35.921 61.8523 35.3588 60.8443 34.2344C60.1777 33.4848 59.8444 32.3764 59.8444 30.9091C59.8444 30.1355 59.9338 29.2783 60.1127 28.3373L60.893 23.9952H59.1494V19.6172H61.6856V19.5933H67.4042L65.8191 28.3612C65.7541 28.6961 65.7216 28.9952 65.7216 29.2583C65.7216 30.5103 66.3841 31.1363 67.7091 31.1363C68.6276 31.1363 69.3227 30.7456 69.7941 29.9641C70.2656 29.1826 70.668 27.815 71.0013 25.8612L72.1474 19.5933H77.866L76.2809 28.3612C76.2159 28.6961 76.1834 28.9952 76.1834 29.2583C76.1834 30.5103 76.8418 31.1363 78.1587 31.1363C80.4917 31.1363 81.6582 28.74 81.6582 23.9473C81.6582 22.8229 81.5687 21.5789 81.3899 20.2153L81.2924 19.5933H87.011C87.011 19.6012 87.011 19.6092 87.011 19.6172Z" fill="#060B29"/>
<path d="M100.35 12.4165C100.35 13.8041 100.033 14.8168 99.3992 15.4548C98.757 16.1007 97.7531 16.4237 96.3875 16.4237C94.526 16.4237 93.5952 15.6262 93.5952 14.0313C93.5952 12.6278 93.9163 11.5991 94.5585 10.9452C95.1925 10.2913 96.1843 9.96436 97.5336 9.96436C99.4114 9.96436 100.35 10.7817 100.35 12.4165Z" fill="#060B29"/>
<path d="M97.729 31.1009C98.2492 31.1009 98.7085 30.9933 99.1068 30.7779L98.9483 34.51C97.8916 35.3712 96.6926 35.8019 95.3513 35.8019C93.3109 35.8019 91.9859 35.3393 91.3763 34.4143C90.978 33.7923 90.7788 33.1344 90.7788 32.4406C90.7788 31.7468 90.8235 31.1368 90.9129 30.6105L92.9248 19.4263H98.6435L96.7535 29.8449C96.7373 29.9805 96.7291 30.1041 96.7291 30.2157C96.7291 30.8059 97.0624 31.1009 97.729 31.1009Z" fill="#060B29"/>
<path d="M117.909 31.1006C118.421 31.1006 118.88 30.993 119.287 30.7777L119.116 34.5097C118.067 35.371 116.868 35.8016 115.519 35.8016C112.471 35.8016 110.946 34.5456 110.946 32.0336C110.946 31.5871 110.991 31.1126 111.081 30.6102L111.885 26.2083C111.958 25.8096 111.995 25.4666 111.995 25.1796C111.995 24.2306 111.528 23.7561 110.593 23.7561C109.666 23.7561 108.898 24.099 108.288 24.7848L106.411 35.3351H100.692L103.545 19.426H108.861L108.496 21.3757C109.821 19.7649 111.491 18.9595 113.507 18.9595C115.523 18.9595 116.832 19.4459 117.433 20.4188C117.815 21.0408 118.006 21.7466 118.006 22.536C118.006 23.3335 117.953 24.0711 117.848 24.7489L116.933 29.8446C116.909 29.9802 116.897 30.1038 116.897 30.2155C116.897 30.8056 117.234 31.1006 117.909 31.1006Z" fill="#060B29"/>
<path fill-rule="evenodd" clip-rule="evenodd" d="M137.076 29.8448C137.052 29.9803 137.04 30.1119 137.04 30.2395C137.04 30.8137 137.336 31.1007 137.93 31.1007C138.523 31.1007 139.023 30.9931 139.429 30.7778L139.259 34.5098C138.186 35.3711 136.975 35.8017 135.625 35.8017C133.162 35.8017 131.796 34.9205 131.528 33.1582C130.406 34.9205 128.76 35.8017 126.59 35.8017C122.908 35.8017 121.066 34.2467 121.066 31.1366C121.066 30.6103 121.123 30.0282 121.237 29.3902L121.944 25.5146C122.302 23.529 123.127 21.946 124.42 20.7658C125.704 19.5856 127.492 18.9955 129.785 18.9955C131.191 18.9955 132.309 19.2945 133.138 19.8926L134.857 10.2275H140.612L137.076 29.8448ZM132.296 24.5577C132.053 24.0074 131.471 23.7323 130.553 23.7323C128.821 23.7323 127.809 24.5497 127.517 26.1845L127.078 28.6606C127.037 28.8599 127.017 29.135 127.017 29.4859C127.017 29.8368 127.183 30.1837 127.517 30.5266C127.858 30.8695 128.427 31.0409 129.224 31.0409C130.012 31.0409 130.699 30.7339 131.284 30.1199L132.296 24.5577Z" fill="#060B29"/>
<path fill-rule="evenodd" clip-rule="evenodd" d="M159 23.9236C159 24.41 158.943 24.9403 158.829 25.5145L158.122 29.3901C157.699 31.7266 156.707 33.3773 155.147 34.3422C153.594 35.3151 151.517 35.8016 148.916 35.8016C146.315 35.8016 144.408 35.3151 143.197 34.3422C142.303 33.6166 141.856 32.5281 141.856 31.0767C141.856 30.5663 141.909 30.0041 142.014 29.3901L142.722 25.5145C143.51 21.1445 146.628 18.9595 152.074 18.9595C154.496 18.9595 156.321 19.4778 157.549 20.5145C158.516 21.3359 159 22.4722 159 23.9236ZM153.049 25.3351C153.049 24.9922 152.903 24.6094 152.61 24.1867C152.318 23.7721 151.81 23.5647 151.086 23.5647C150.355 23.5647 149.741 23.8 149.245 24.2705C148.757 24.7489 148.444 25.3829 148.306 26.1724L147.867 28.6604C147.827 28.8757 147.806 29.1548 147.806 29.4978C147.806 29.8407 147.953 30.2115 148.245 30.6102C148.53 31.0089 149.038 31.2083 149.769 31.2083C150.501 31.2083 151.111 30.9571 151.598 30.4547C152.094 29.9603 152.411 29.3622 152.549 28.6604L152.976 26.1724C153.025 25.9571 153.049 25.678 153.049 25.3351Z" fill="#060B29"/>
<path d="M39.6159 50H11.3519C5.10897 50 0 44.988 0 38.8636V11.1364C0 5.01196 5.10897 0 11.3519 0H39.6159C45.8588 0 50.9678 5.01196 50.9678 11.1364V38.8636C50.9678 44.988 45.8588 50 39.6159 50Z" fill="#4B7BE5"/>
<path d="M40.4323 19.2339V23.1214C40.4323 23.2291 40.3469 23.3128 40.2372 23.3128H38.9935C38.8837 23.3128 38.7984 23.3965 38.7984 23.4922C38.7415 24.6804 38.5626 25.8248 38.2619 26.9253C37.888 28.2969 37.323 29.6007 36.567 30.8367C35.811 32.0648 34.7624 33.0616 33.4212 33.8272C32.0799 34.5847 30.5314 34.9635 28.7755 34.9635C26.2719 34.9635 24.5648 34.3096 23.6544 33.0018C23.5934 32.9061 23.4471 32.8942 23.3617 32.9659C21.8335 34.2977 20.1305 34.9635 18.2528 34.9635C15.6353 34.9635 13.8307 34.4173 12.839 33.3248C12.1887 32.5991 11.8635 31.5186 11.8635 30.0832C11.8635 29.3256 11.9489 28.4883 12.1196 27.5712L12.8512 23.5401C12.8755 23.4205 12.778 23.3128 12.6561 23.3128H11.388C11.2782 23.3128 11.1929 23.2291 11.1929 23.1214V19.2339C11.1929 19.1262 11.2782 19.0425 11.388 19.0425H19.0087C19.1307 19.0425 19.216 19.1501 19.1916 19.2698L17.6919 27.5951C17.6268 27.9221 17.5943 28.2131 17.5943 28.4683C17.5943 29.6884 18.2406 30.2985 19.5331 30.2985C20.4272 30.2985 21.106 29.9197 21.5693 29.1621C22.0245 28.3965 22.4188 27.0608 22.7521 25.1549L23.8373 19.198C23.8495 19.1143 23.9348 19.0425 24.0324 19.0425H29.2023C29.3242 19.0425 29.4218 19.1501 29.3974 19.2698L27.8976 27.5951C27.8326 27.9221 27.8001 28.2131 27.8001 28.4683C27.8001 29.6884 28.4423 30.2985 29.7266 30.2985C32.0027 30.2985 33.1407 27.9619 33.1407 23.2889C33.1407 22.1964 33.0554 20.9843 32.8847 19.6525L32.8237 19.2698C32.7993 19.1501 32.8969 19.0425 33.0188 19.0425H40.2372C40.3469 19.0425 40.4323 19.1262 40.4323 19.2339Z" fill="white"/>
</svg>
