<svg width="19" height="19" viewBox="0 0 19 19" fill="none" xmlns="http://www.w3.org/2000/svg">
    <path d="M16.889 2.111V16.889H2.111V2.111H16.889ZM16.889 0H2.111C1.55161 0.00158318 1.01559 0.2245 0.620047 0.620047C0.2245 1.01559 0.00158318 1.55161 0 2.111V16.889C0.00158318 17.4484 0.2245 17.9844 0.620047 18.38C1.01559 18.7755 1.55161 18.9984 2.111 19H16.889C17.4484 18.9984 17.9844 18.7755 18.38 18.38C18.7755 17.9844 18.9984 17.4484 19 16.889V2.111C18.9984 1.55161 18.7755 1.01559 18.38 0.620047C17.9844 0.2245 17.4484 0.00158318 16.889 0Z" fill="#4B7BE5"/>
</svg>
