<svg width="13" height="14" viewBox="0 0 13 14" fill="none" xmlns="http://www.w3.org/2000/svg">
    <path d="M7.75 4H1.5C0.810625 4 0.25 4.598 0.25 5.33333V12C0.25 12.7353 0.810625 13.3333 1.5 13.3333H7.75C8.43938 13.3333 9 12.7353 9 12V5.33333C9 4.598 8.43938 4 7.75 4Z"
          fill="#4B7BE5"/>
    <path d="M11.5 0H5.25C4.91848 0 4.60054 0.140476 4.36612 0.390524C4.1317 0.640573 4 0.979711 4 1.33333V2.66667H9C9.33152 2.66667 9.64946 2.80714 9.88388 3.05719C10.1183 3.30724 10.25 3.64638 10.25 4V9.33333H11.5C11.8315 9.33333 12.1495 9.19286 12.3839 8.94281C12.6183 8.69276 12.75 8.35362 12.75 8V1.33333C12.75 0.979711 12.6183 0.640573 12.3839 0.390524C12.1495 0.140476 11.8315 0 11.5 0Z"
          fill="#4B7BE5"/>
</svg>
