<svg width="274" height="118" viewBox="0 0 274 118" fill="none" xmlns="http://www.w3.org/2000/svg">
<path d="M273.769 101.387H0V95.0737H273.769V101.387Z" fill="#4B7BE5"/>
<path d="M55.9843 118H49.2058L48.6052 101.388H56.5849L55.9843 118Z" fill="#4B7BE5"/>
<path d="M223.586 118H216.807L216.207 101.388H224.186L223.586 118Z" fill="#4B7BE5"/>
<path d="M56.3646 107.477H48.8256L48.6052 101.385H56.5849L56.3646 107.477Z" fill="#4B7BE5"/>
<path d="M223.966 107.477H216.427L216.207 101.385H224.186L223.966 107.477Z" fill="#4B7BE5"/>
<path d="M47.941 89.496C49.506 89.496 53.1276 89.2938 55.5999 87.5802C57.2278 86.4517 58.0548 84.9206 58.0548 83.0284C58.0548 80.9358 57.2048 79.2928 55.5265 78.1407C52.8152 76.2813 48.9845 76.5255 48.8215 76.5354L49.1239 79.0825C49.1501 79.085 51.6622 78.9428 53.2471 80.0391C54.1811 80.686 54.6528 81.6927 54.6528 83.0284C54.6528 84.194 54.2073 85.0684 53.2938 85.6998C51.2502 87.1158 47.496 86.9285 47.4593 86.9285L47.1799 89.4756C47.2266 89.478 47.5023 89.496 47.941 89.496Z" fill="#FFAD27"/>
<path d="M51.2184 71.4381H26.3276L30.0151 94.8771H47.3466L51.2184 71.4381Z" fill="#FFAD27"/>
<path d="M38.8914 66.2999C40.4121 65.1683 41.6562 63.9891 42.8377 62.5155C43.9695 61.0456 44.985 59.3024 45.4225 57.1294C45.8817 54.9669 45.4163 52.3797 44.2236 50.4188C43.0478 48.4462 41.4537 47.0208 39.864 45.8737C39.6454 45.716 39.4896 45.5948 39.3426 45.4773L38.882 45.1162L37.9811 44.3878C37.3936 43.8986 36.8214 43.4064 36.2944 42.9092C35.2575 41.9421 34.2791 40.8562 33.9845 40.1426C33.8398 39.8099 33.9633 39.6436 34.1563 40.0171C34.2351 40.1877 34.3005 40.4759 34.3075 40.6837C34.3158 40.9026 34.3005 41.0417 34.3488 41.0646C34.3945 41.1339 34.7081 40.8476 35.1252 40.5439C35.5499 40.2255 36.1 39.8377 36.7003 39.4315C39.4495 37.5714 40.1605 33.8488 38.2886 31.1168C36.4169 28.3848 32.6709 27.678 29.922 29.5387C29.5459 29.7928 29.208 30.0822 28.9095 30.3988L28.7877 30.5318C28.1657 31.2002 27.5131 31.9132 26.8185 32.7765C26.1307 33.6602 25.3728 34.6248 24.6802 36.1466C23.9909 37.5763 23.5414 39.9231 24.0738 41.8988C24.5692 43.8751 25.556 45.1465 26.4065 46.0883C27.2824 47.0208 28.1353 47.6781 28.963 48.2545C29.7914 48.8221 30.605 49.3212 31.4059 49.7553C32.2088 50.2011 33.0026 50.5981 33.7934 50.9784L36.089 52.0315C37.2735 52.5707 38.2857 53.2268 38.9587 53.9411C39.6119 54.6608 39.9887 55.4147 40.0239 56.4807C40.0788 58.624 38.4816 61.5248 36.6219 63.6508L36.5212 63.7658C35.8868 64.4906 35.964 65.59 36.6938 66.2202C37.3272 66.7674 38.2453 66.7804 38.8914 66.2999Z" fill="white"/>
<path d="M188.731 81.0854H85.201C80.8395 81.0854 77.3037 77.5724 77.3037 73.2376V69.105H196.629V73.2376C196.629 77.5724 193.093 81.0854 188.731 81.0854Z" fill="#80D0C7"/>
<path d="M149.447 91.5673H124.958V81.0839H149.447V91.5673Z" fill="#4B7BE5"/>
<path d="M196.629 69.295H77.3037V5.49094C77.3037 2.45842 79.7772 0.00037384 82.8283 0.00037384H191.104C194.156 0.00037384 196.629 2.45842 196.629 5.49094V69.295Z" fill="#80D0C7"/>
<path d="M192.527 65.0184H82.1509V4.98767H192.527V65.0184Z" fill="#80D0C7"/>
<path d="M139.662 74.5548C139.662 76.034 138.455 77.233 136.966 77.233C135.477 77.233 134.27 76.034 134.27 74.5548C134.27 73.0757 135.477 71.8767 136.966 71.8767C138.455 71.8767 139.662 73.0757 139.662 74.5548Z" fill="white"/>
<path d="M159.923 95.0764H114.036C114.036 93.1384 115.616 91.5677 117.567 91.5677H156.392C158.342 91.5677 159.923 93.1384 159.923 95.0764Z" fill="#4B7BE5"/>
<path d="M104.419 86.3252H87.6938V76.5221H104.419V86.3252Z" fill="#FFAD27"/>
<path d="M98.789 78.3545H92.6833V74.6881H98.789V78.3545Z" fill="#4B7BE5"/>
<path d="M182.091 58.9836H137.33C136.143 58.9836 135.181 58.0276 135.181 56.8478V14.4482C135.181 13.2683 136.143 12.3117 137.33 12.3117H182.091C183.278 12.3117 184.24 13.2683 184.24 14.4482V56.8478C184.24 58.0276 183.278 58.9836 182.091 58.9836Z" fill="white"/>
<path d="M124.264 58.9836H92.3168C91.0909 58.9836 90.0972 57.9961 90.0972 56.7779V35.0203C90.0972 33.8015 91.0909 32.8146 92.3168 32.8146H124.264C125.49 32.8146 126.483 33.8015 126.483 35.0203V56.7779C126.483 57.9961 125.49 58.9836 124.264 58.9836Z" fill="white"/>
<path d="M121.562 51.3259H94.9884C94.5727 51.3259 94.2361 50.9914 94.2361 50.5789V50.5078C94.2361 50.0947 94.5727 49.7602 94.9884 49.7602H121.562C121.977 49.7602 122.314 50.0947 122.314 50.5078V50.5789C122.314 50.9914 121.977 51.3259 121.562 51.3259Z" fill="#4B7BE5"/>
<path d="M110.135 55.0056H94.9884C94.5727 55.0056 94.2361 54.6711 94.2361 54.2586V54.1869C94.2361 53.7744 94.5727 53.4399 94.9884 53.4399H110.135C110.55 53.4399 110.887 53.7744 110.887 54.1869V54.2586C110.887 54.6711 110.55 55.0056 110.135 55.0056Z" fill="#4B7BE5"/>
<path d="M103.312 40.8053C103.312 43.5502 101.072 45.7758 98.3085 45.7758C95.5457 45.7758 93.3057 43.5502 93.3057 40.8053C93.3057 38.0597 95.5457 35.8347 98.3085 35.8347C101.072 35.8347 103.312 38.0597 103.312 40.8053Z" fill="#4B7BE5"/>
<path d="M110.888 19.2173H91.156C90.741 19.2173 90.4043 18.8828 90.4043 18.4697V18.3986C90.4043 17.9855 90.741 17.6509 91.156 17.6509H110.888C111.303 17.6509 111.639 17.9855 111.639 18.3986V18.4697C111.639 18.8828 111.303 19.2173 110.888 19.2173Z" fill="white"/>
<path d="M118.928 29.0742H91.156C90.741 29.0742 90.4043 28.7397 90.4043 28.3272V28.2561C90.4043 27.843 90.741 27.5085 91.156 27.5085H118.928C119.343 27.5085 119.68 27.843 119.68 28.2561V28.3272C119.68 28.7397 119.343 29.0742 118.928 29.0742Z" fill="white"/>
<path d="M125.534 24.1271H91.156C90.741 24.1271 90.4043 23.7925 90.4043 23.3801V23.3083C90.4043 22.8959 90.741 22.5613 91.156 22.5613H125.534C125.95 22.5613 126.286 22.8959 126.286 23.3083V23.3801C126.286 23.7925 125.95 24.1271 125.534 24.1271Z" fill="white"/>
<path d="M175.148 51.2595H144.433V20.7377H175.148V51.2595Z" fill="#4B7BE5"/>
<path d="M171.673 33.9545C171.673 36.5473 169.557 38.6486 166.948 38.6486C164.339 38.6486 162.224 36.5473 162.224 33.9545C162.224 31.3622 164.339 29.261 166.948 29.261C169.557 29.261 171.673 31.3622 171.673 33.9545Z" fill="#4B7BE5"/>
<path d="M160.918 41.6963L166.401 35.1805L175.538 43.3826V51.2595H160.918V41.6963Z" fill="white"/>
<path d="M144.433 41.5782L150.626 32.1338L170.339 51.2595H144.433V41.5782Z" fill="#4B7BE5"/>
<path d="M213.455 66.9318C210.596 66.9318 208.278 69.2352 208.278 72.0767C208.278 74.9187 210.596 77.2222 213.455 77.2222H263.97V74.7913H214.31C212.802 74.7913 211.579 73.5756 211.579 72.0767C211.579 70.5777 212.802 69.3626 214.31 69.3626H263.97V66.9318H213.455Z" fill="#4B7BE5"/>
<path d="M211.58 72.075C211.58 73.5739 212.802 74.7897 214.31 74.7897H261.642V69.3609H214.31C212.802 69.3609 211.58 70.5761 211.58 72.075Z" fill="white"/>
<path d="M214.201 77.2649C209.362 77.2649 205.44 81.1625 205.44 85.9716C205.44 90.7795 209.362 94.6777 214.201 94.6777H258.871V91.4684H214.753C211.712 91.4684 209.246 89.0183 209.246 85.9957C209.246 82.9731 211.712 80.5225 214.753 80.5225H258.871V77.2649H214.201Z" fill="#80D0C7"/>
<path d="M209.247 85.9992C209.247 89.0218 211.713 91.4718 214.754 91.4718H256.646V80.5259H214.754C211.713 80.5259 209.247 82.9765 209.247 85.9992Z" fill="white"/>
<path d="M217.212 84.1699H222.185V89.6265L219.698 88.1393L217.212 89.6265V84.1699Z" fill="#4B7BE5"/>
</svg>
