<svg width="193" height="149" viewBox="0 0 193 149" fill="none" xmlns="http://www.w3.org/2000/svg">
<path d="M110.328 65.3469L109.017 63.4552L106.71 63.4608C106.448 63.4608 106.299 63.1609 106.458 62.9532L107.856 61.1248L107.139 58.9387C107.057 58.6899 107.297 58.4555 107.545 58.5421L109.721 59.303L111.584 57.9479C111.796 57.7935 112.093 57.9479 112.088 58.21L112.034 60.5094L113.902 61.8568C114.115 62.0101 114.06 62.3411 113.808 62.4155L111.599 63.0753L110.89 65.2647C110.81 65.5136 110.478 65.5624 110.328 65.3469Z" fill="#F47458"/>
<path d="M171.191 23.6622L172.408 20.8552L170.777 18.2637C170.592 17.9694 170.826 17.5895 171.173 17.6217L174.227 17.9072L176.194 15.5611C176.418 15.2934 176.852 15.399 176.929 15.7389L177.6 18.7225L180.446 19.8633C180.77 19.9932 180.804 20.4376 180.504 20.6153L177.865 22.1738L177.656 25.2251C177.633 25.5728 177.22 25.7417 176.958 25.5117L174.656 23.4912L171.681 24.2365C171.343 24.3221 171.053 23.9822 171.191 23.6622Z" fill="#F7CC7F"/>
<path d="M12.3775 100.834L10.8174 97.8575L7.47396 97.4521C7.09311 97.4054 6.9307 96.9433 7.19916 96.6701L9.55599 94.2707L8.9098 90.975C8.83629 90.5995 9.22638 90.3029 9.56991 90.4729L12.5866 91.9658L15.5312 90.3351C15.8664 90.1485 16.2697 90.4273 16.214 90.8061L15.7216 94.1285L18.1867 96.4168C18.4674 96.6767 18.3271 97.1455 17.9484 97.2099L14.6277 97.7698L13.2074 100.814C13.0457 101.162 12.5552 101.173 12.3775 100.834Z" fill="#9BC1F9"/>
<path d="M190.663 29.3126L190.702 30.9389L188.084 31.291L187.847 33.677L185.931 34.2591L186.227 35.2266L188.789 34.4468L189.014 32.1863L191.738 31.8208L191.678 29.3726L190.663 29.3126Z" fill="#466EB6"/>
<path d="M46.7636 9.7368L47.2872 1.16694C47.3306 0.457136 47.9611 -0.0704947 48.6684 0.00837326L49.5239 0.103898C50.2313 0.182765 50.7281 0.835922 50.6145 1.53573L49.241 10.0145L46.7636 9.7368ZM45.7088 12.6615C45.8513 11.5941 46.875 10.8187 47.9444 10.9676C49.0572 11.122 49.6988 12.0184 49.593 13.1481C49.466 14.2756 48.6105 15.0353 47.4365 14.9043C46.2457 14.771 45.555 13.8112 45.7088 12.6615Z" fill="#F48C7F"/>
<path d="M40.2581 55.797C40.316 57.9231 40.8663 62.4852 45.6996 63.2383C48.7005 63.706 52.5446 61.0189 52.2962 59.045C52.0489 57.0711 51.4998 52.0414 48.3663 50.8906C45.7475 49.9286 40.1278 51.0539 40.2581 55.797Z" fill="#212121"/>
<path d="M80.5938 124.51C81.2777 127.372 81.8157 131.502 82.0151 131.733C82.1109 131.843 82.3103 132.565 82.4072 132.683C85.5284 133.815 88.272 132.646 90.4464 131.361C88.7421 131.059 86.4463 130.746 86.1266 130.521C84.9403 129.686 85.2243 126.713 85.0104 124.045C84.1661 124.194 82.1176 123.662 80.5938 124.51Z" fill="#F7A491"/>
<path d="M81.9502 131.571C81.9702 132.702 82.6999 135.115 82.9249 135.112C83.1944 135.108 92.577 134.298 93.4614 132.863C93.9928 132 92.548 131.774 90.4461 131.361C88.2717 132.646 82.2109 132.279 81.9502 131.571Z" fill="#466EB6"/>
<path d="M36.0395 130.898C33.8684 132.594 31.674 133.948 31.3978 134.079C31.2652 134.142 30.5144 134.139 30.3752 134.202C28.4448 136.896 28.8391 139.846 29.4985 142.279C30.246 140.722 31.1271 138.548 31.4668 138.354C32.0093 138.045 33.9631 136.887 37.4731 135.465C36.2845 134.178 36.4505 132.589 36.0395 130.898Z" fill="#F7A491"/>
<path d="M40.9827 71.088L34.2769 83.2524C34.2769 83.2524 29.7934 88.8786 27.4854 91.7667C27.9822 92.5776 28.4634 93.4085 28.8922 94.2627C31.1891 92.3155 36.0759 88.1833 37.8192 85.8995C40.3968 82.5259 45.0608 74.5148 45.0608 74.5148L40.9827 71.088Z" fill="#F7A491"/>
<path d="M58.8119 92.2578L51.6394 102.808C51.6394 102.808 51.2284 102.102 53.796 103.038C56.3647 103.975 72.9286 107.059 73.9089 108.226C74.6028 109.052 79.7402 125.254 80.7294 127.335C82.2198 127.937 84.3864 127.268 85.9158 127.049C86.0138 119.244 81.8689 105.034 80.7628 103.368C78.291 99.6447 66.5236 95.6225 61.2258 93.3664C60.3658 92.9999 59.6997 92.6711 59.2865 92.4722C58.9801 92.3256 58.8119 92.2578 58.8119 92.2578Z" fill="#3C8F7C"/>
<path d="M31.2823 134.106C30.1851 133.822 27.9472 133.831 27.8893 134.048C27.8203 134.307 26.0903 143.538 27.2399 144.772C27.9317 145.514 28.5354 144.187 29.4989 142.279C28.8395 139.845 30.5282 134.166 31.2823 134.106Z" fill="#466EB6"/>
<path d="M56.9293 99.6848C56.9917 98.8917 58.6904 94.2674 59.2919 92.4668C59.312 92.409 58.8664 91.3682 58.3863 89.8697L57.6979 89.9797L47.5011 90.4407C47.5011 90.4407 43.3952 97.3576 43.873 100.535C44.5403 104.971 50.9721 120.739 49.994 121.482C48.2285 122.824 39.5811 127.82 35.1377 130.791C35.4217 132.507 36.2171 134.902 37.3076 136.272C40.9234 135.018 56.5506 128.737 58.1579 123.917C59.5771 119.66 56.8235 101.031 56.9293 99.6848Z" fill="#50BFA5"/>
<path d="M56.7654 60.8126C56.7654 60.8126 53.9561 65.2125 52.3008 65.3713L58.1578 70.7754C58.1578 70.7754 62.1467 64.8104 62.5633 63.7862C62.5633 63.7862 58.9319 60.5615 56.7654 60.8126Z" fill="#FAE0B2"/>
<path d="M58.8146 87.3972C58.5528 89.8199 59.3014 92.4702 59.3014 92.4702C56.9466 92.9745 48.5989 94.0354 46.557 91.5572C46.4835 91.4683 49.4477 86.2553 49.04 84.1259C48.4373 80.9867 45.823 75.6615 45.6057 75.3772C45.2426 74.8984 43.9059 77.3755 43.9059 77.3755C42.3397 77.3833 38.7529 73.7532 38.7529 73.7532C38.7529 73.7532 42.4623 67.3094 43.4826 66.7029C44.503 66.0975 52.9376 65.1822 52.9431 65.1811C53.5636 65.1367 55.259 66.604 55.7257 67.0672C61.0558 72.3713 59.62 79.9715 58.8146 87.3972Z" fill="#FAE0B2"/>
<path d="M48.1895 62.4775C48.1895 62.4775 49.1084 65.5066 49.1151 66.7385C49.1218 67.9693 49.6142 69.6455 52.2029 69.3911C54.7916 69.1379 52.6685 66.5397 52.3009 65.37C51.9333 64.2003 51.4922 60.508 51.4922 60.508L48.1895 62.4775Z" fill="#F7A491"/>
<path d="M51.7384 62.3592C51.5936 61.3517 51.4922 60.5085 51.4922 60.5085L48.1895 62.478C48.1895 62.478 48.3777 63.0978 48.5838 63.8898C50.1344 64.0376 51.177 63.3644 51.7384 62.3592Z" fill="#F47458"/>
<path d="M45.4958 53.3354C45.4958 53.3354 44.1335 54.284 43.7848 56.0713C43.4362 57.8586 44.5 62.2674 48.3452 62.9616C52.1905 63.657 53.4403 59.9491 52.3843 57.261C51.3294 54.5717 49.2932 51.2393 45.4958 53.3354Z" fill="#F7A491"/>
<path d="M52.7408 56.1389C52.7442 56.8909 52.3922 57.5007 51.9533 57.5029C51.5144 57.5051 51.1557 56.8986 51.1524 56.1477C51.1479 55.3968 51.501 54.7859 51.9388 54.7837C52.3777 54.7815 52.7364 55.388 52.7408 56.1389Z" fill="#F7A491"/>
<path d="M45.456 59.88C45.9617 60.4842 46.0397 61.2507 45.6297 61.5917C45.2198 61.9327 44.478 61.7183 43.9722 61.1141C43.4654 60.5098 43.3885 59.7433 43.7985 59.4023C44.2084 59.0613 44.9502 59.2746 45.456 59.88Z" fill="#F7A491"/>
<path d="M41.5571 51.6516C41.7075 49.5922 43.169 41.9332 38.4705 41.2067C33.772 40.4802 32.7683 45.5988 30.1629 38.7096C27.749 32.3269 20.5754 34.7974 20.2757 39.6449C19.5951 39.5872 18.8978 39.686 18.2328 39.9648C15.9337 40.9312 14.8996 43.6794 15.9236 46.102C16.0863 46.4875 15.9938 46.8696 16.2333 47.1884C15.6819 49.2989 16.0618 51.7127 17.6959 54.1642C22.1605 60.8602 26.6373 53.8121 29.656 54.1876C32.6748 54.563 30.7076 56.9157 33.3219 58.753C35.9363 60.5891 38.0416 60.1082 42.2979 55.0984L43.3483 53.7177C43.3483 53.7177 41.4056 53.7121 41.5571 51.6516Z" fill="#212121"/>
<path d="M173.632 109.99C175.987 109.053 178.095 107.777 178.345 107.646C178.536 107.546 179.335 106.959 179.449 106.877C181.525 108.108 182.284 109.156 183.92 110.802C182.709 110.868 182.196 109.878 181.732 109.98C181.173 110.105 179.411 111.283 176.655 113.409C176.178 111.872 174.79 111.096 173.632 109.99Z" fill="#F8A492"/>
<path d="M140.299 134.058C140.836 136.53 141.812 138.728 141.93 138.983C141.987 139.105 142.353 139.198 142.414 139.324C140.851 141.16 140.176 144.217 138.276 145.551C138.412 144.35 139.22 142.094 139.196 141.621C139.166 141.05 138.294 139.121 136.649 136.058C138.248 135.846 139.013 135.014 140.299 134.058Z" fill="#F8A492"/>
<path d="M141.287 139.488C141.5 138.954 142.204 138.585 142.704 138.9C143.209 139.219 143.879 139.567 144.381 139.913C144.943 140.302 144.983 140.74 144.969 140.839C144.928 141.125 138.272 148.886 137.419 148.999C136.567 149.111 138.143 142.547 139.078 141.873C139.911 141.272 140.328 141.892 141.287 139.488Z" fill="#3C8F7C"/>
<path d="M179.251 107.652C178.762 107.348 178.523 106.59 178.925 106.156C179.329 105.718 179.793 105.123 180.224 104.694C180.708 104.211 181.147 104.249 181.242 104.282C181.517 104.373 187.983 112.292 187.942 113.149C187.9 114.006 181.706 111.284 181.208 110.246C180.765 109.321 181.45 109.023 179.251 107.652Z" fill="#3C8F7C"/>
<path d="M140.245 67.3762L132.927 71.4584L127.128 74.2355C127.128 74.2355 125.713 69.4368 126.188 67.0841C126.256 66.7475 126.589 66.3499 126.709 66.171C127.665 64.7403 125.622 62.5187 125.622 62.5187C125.622 62.5187 124.39 62.1699 123.553 64.196C122.717 66.2221 124.262 67.0808 124.262 67.0808C124.262 67.0808 122.5 73.2146 123.237 77.6845C123.625 80.0261 129.495 78.3065 134.173 76.2893C138.107 74.5931 141.002 72.7003 141.002 72.7003L140.245 67.3762Z" fill="#F7A491"/>
<path d="M141.892 66.6768C141.738 66.5324 141.484 66.448 141.068 66.6013C140.161 66.9379 131.376 71.751 131.376 71.751C131.376 71.751 132.165 75.9609 134.224 77.2539L138.651 75.9065L142.036 67.3733C142.131 67.1334 142.081 66.8534 141.892 66.6768Z" fill="#3C8F7C"/>
<path d="M162.119 48.6809C158.784 46.6437 154.625 47.0369 152.15 49.7739C150.114 49.0097 147.778 49.0697 145.888 49.9494C142.16 51.6867 138.86 56.221 141.669 59.5123C141.072 63.8823 143.695 66.4238 146.961 66.7137C148.736 70.2672 155.032 70.6315 158.653 67.7056C161.645 68.8587 165.199 68.3621 167.412 66.2094C167.942 65.6917 168.721 64.8642 168.898 64.7887C168.684 64.8964 177.236 63.7656 176.845 56.2488C176.447 48.5787 167.243 45.6351 162.119 48.6809Z" fill="#FE875E"/>
<path d="M146.967 66.0945L152.394 66.3933L151.494 73.9567C151.494 73.9567 148.874 81.2347 149.942 84.7349C151.01 88.235 152.04 90.7832 152.04 90.7832C152.04 90.7832 148.949 94.3211 140.29 93.5991C140.29 93.5991 140.405 87.3219 140.29 85.4202C140.176 83.5174 137.963 75.6052 138.268 73.8168C138.573 72.0295 140.481 67.0842 140.977 66.6654C141.473 66.2466 143.438 66.0378 143.438 66.0378L146.967 66.0945Z" fill="#50BFA5"/>
<path d="M147.221 61.9423C147.221 61.9423 147.128 62.5543 147.039 63.3397C146.928 64.3194 146.825 65.5702 146.917 66.2389C147.085 67.4441 145.948 70.621 143.379 70.7365C140.812 70.8531 143.326 67.2275 143.52 66.0322C143.713 64.837 143.712 60.4804 143.712 60.4804L147.221 61.9423Z" fill="#F7A491"/>
<path d="M143.734 62.3233C143.733 61.318 143.713 60.4794 143.713 60.4794L147.222 61.9412C147.222 61.9412 147.125 62.5744 147.036 63.3775C145.54 63.7407 144.425 63.2275 143.734 62.3233Z" fill="#F47458"/>
<path d="M147.486 52.9584C147.486 52.9584 148.971 53.4827 149.74 55.0289C150.511 56.5752 150.653 60.8729 147.313 62.4735C143.975 64.0742 141.895 60.9995 142.18 58.2769C142.465 55.5543 143.485 51.9953 147.486 52.9584Z" fill="#F7A491"/>
<path d="M141.573 57.342C141.759 58.0296 142.235 58.4994 142.636 58.3906C143.039 58.2828 143.212 57.6375 143.026 56.9499C142.84 56.2634 142.364 55.7935 141.963 55.9013C141.56 56.0101 141.387 56.6544 141.573 57.342Z" fill="#F7A491"/>
<path d="M149.339 58.814C149.029 59.4938 149.152 60.2136 149.612 60.4224C150.073 60.6312 150.698 60.2491 151.008 59.5693C151.317 58.8895 151.195 58.1686 150.734 57.9609C150.272 57.752 149.649 58.1342 149.339 58.814Z" fill="#F7A491"/>
<path d="M69.4468 93.512L38.1357 103.911C35.773 104.696 33.2077 103.444 32.4068 101.115L11.8767 41.4786C11.0752 39.1503 12.3406 36.6266 14.7034 35.8424L46.0144 25.443C48.377 24.6588 50.9424 25.9107 51.7433 28.2389C56.7292 42.7205 71.825 86.5728 72.2739 87.8758C73.0748 90.204 71.8094 92.7278 69.4468 93.512ZM76.9747 91.8847C76.4645 90.4029 55.6855 30.0417 54.7776 27.4058C53.3874 23.3691 48.9407 21.1986 44.8448 22.5594L13.8513 32.8521C9.75502 34.2128 7.56082 38.5883 8.95055 42.6249L31.1469 107.105C32.5371 111.142 36.985 113.311 41.0809 111.95L72.0734 101.658C76.1704 100.297 78.3637 95.9225 76.9747 91.8847Z" fill="#4B7BE5"/>
<path d="M61.419 100.506C61.8957 101.894 59.7035 103.876 56.5222 104.932C53.3397 105.989 50.3734 105.721 49.8955 104.333C49.4176 102.946 51.6098 100.964 54.7923 99.9067C57.9736 98.8503 60.9411 99.118 61.419 100.506Z" fill="#E8E8E8"/>
<path d="M60.5712 100.617C61.0202 101.921 59.2045 103.702 56.5166 104.594C53.8287 105.487 51.2856 105.154 50.8367 103.851C50.3878 102.547 52.2035 100.766 54.8914 99.874C57.5793 98.9809 60.1223 99.3141 60.5712 100.617Z" fill="#4B7BE5"/>
<path d="M163.205 105.262C162.63 107.793 160.014 109.359 157.358 108.761L122.173 100.83C119.518 100.231 117.831 97.6937 118.406 95.1622L133.104 30.3245C133.679 27.793 136.296 26.2257 138.951 26.8244L174.136 34.7566C176.791 35.3554 178.478 37.8924 177.903 40.424L163.205 105.262ZM174.681 31.5231L139.853 23.6719C135.25 22.6344 130.712 25.3503 129.716 29.7391L113.824 99.842C112.829 104.231 115.754 108.63 120.357 109.668L155.185 117.519C159.788 118.557 164.326 115.84 165.322 111.451L181.214 41.3493C182.209 36.9605 179.284 32.5606 174.681 31.5231Z" fill="#26C6DA"/>
<path d="M145.878 110.61C145.536 112.12 142.36 112.689 138.784 111.883C135.208 111.077 132.587 109.201 132.929 107.691C133.271 106.183 136.447 105.614 140.023 106.419C143.599 107.226 146.22 109.102 145.878 110.61Z" fill="#E8E8E8"/>
<path d="M145.022 110.244C144.701 111.661 141.991 112.258 138.971 111.577C135.95 110.896 133.761 109.195 134.083 107.778C134.404 106.361 137.113 105.764 140.134 106.445C143.155 107.126 145.344 108.826 145.022 110.244Z" fill="#4B7BE5"/>
<path d="M152.175 68.3549C152.175 68.3549 163.62 65.5835 166.171 65.1169C168.723 64.6504 177.577 61.4657 177.917 61.3313C178.257 61.1969 179.518 56.6548 180.018 56.9714C180.517 57.2891 179.252 59.2619 179.877 59.5174C180.502 59.7729 185.834 57.3924 185.871 57.8223C185.94 58.6276 182.664 59.403 182.767 59.7729C182.871 60.1428 186.113 58.6509 186.509 59.2052C186.907 59.7595 183.309 60.3349 183.243 60.6471C183.177 60.9592 186.698 60.5526 186.507 61.2191C186.403 61.5801 183.368 61.5057 183.496 61.9256C183.624 62.3455 185.935 62.7598 185.775 63.1653C185.615 63.5707 183.886 62.561 182.691 62.8631C181.496 63.1664 180.476 62.7754 178.717 63.8062C176.958 64.8359 171.186 69.1792 167.081 70.0767C162.976 70.9742 153.911 72.9814 153.911 72.9814L152.175 68.3549Z" fill="#F7A491"/>
<path d="M149.402 66.5991C149.79 66.4147 150.979 66.3847 152.392 66.3947C152.912 66.398 153.645 66.4024 154.201 66.3869C156.269 66.328 158.232 66.4247 158.232 66.4247C158.232 66.4247 159.272 71.4344 158.407 72.7129C158.407 72.7129 150.319 73.8659 150.514 74.4258L149.402 66.5991Z" fill="#50BFA5"/>
<path d="M121.356 66.6279L122.052 65.7493C122.052 65.7493 122.485 65.0795 123.137 65.0139C123.789 64.9484 123.769 64.1331 123.079 64.2497C122.389 64.3652 121.954 64.5296 121.954 64.5296C121.954 64.5296 123.326 63.8265 123.351 63.7354C123.487 63.2233 122.729 63.0245 121.716 63.7754C120.702 64.5263 121.356 66.6279 121.356 66.6279Z" fill="#F7A491"/>
<path d="M27.8995 93.0012C27.4573 93.24 27.1487 93.46 27.0095 93.5644C27.0161 93.5499 27.0228 93.5355 27.0306 93.5211C27.1766 93.3689 27.6778 92.8346 27.6812 92.8313C28.3406 92.3303 27.9942 91.7938 27.3782 92.1259C26.7633 92.4591 26.4057 92.7535 26.4057 92.7535C26.4057 92.7535 27.474 91.7149 27.4695 91.5527C27.4539 91.0229 26.6519 91.0795 25.9345 92.117C25.3074 93.0245 26.2331 94.6119 26.5015 94.9884C26.7666 95.5338 27.2512 95.7871 27.2512 95.7871L27.4149 94.7507C27.4149 94.7507 27.6076 93.9776 28.2025 93.7055C28.7984 93.4344 28.5155 92.6691 27.8995 93.0012Z" fill="#F7A491"/>
<path d="M123.883 63.4452C123.883 63.4452 125.51 62.1422 125.768 62.6965C126.027 63.2508 125.914 64.4493 125.671 64.3649C125.429 64.2805 125.462 63.4263 124.762 63.6484C124.567 63.7106 123.601 64.015 123.883 63.4452Z" fill="#F7A491"/>
<path d="M141.958 14.677L147.336 22.0039L149.06 16.5821L141.958 14.677Z" fill="#96D9C9"/>
<path d="M85.5167 65.8029L76.7101 60.4666C75.8156 59.9245 75.5316 58.7626 76.074 57.8706L81.4264 49.0886C81.97 48.1966 83.1352 47.9134 84.0296 48.4543L92.8363 53.7918C93.7308 54.3338 94.0148 55.4957 93.4712 56.3877L88.1199 65.1697C87.5764 66.0617 86.4112 66.345 85.5167 65.8029Z" fill="#96D9C9"/>
<path d="M90.1563 58.6224C90.4827 58.2903 90.3758 57.6538 89.8935 57.2294C87.7848 55.3689 85.3676 53.8848 82.751 52.8451C82.1528 52.6063 81.5368 52.8062 81.3887 53.2572C80.1678 56.854 80.5889 55.5033 80.0609 57.5938C79.9428 58.0825 80.2124 58.578 80.6758 58.7624C81.1681 58.9568 81.7429 58.7512 81.9735 58.2725C82.0983 58.0092 82.2219 57.7449 82.3467 57.4805C82.487 57.1772 82.8836 57.0617 83.2244 57.235C84.1211 57.6915 84.9844 58.2125 85.8054 58.7935C86.1173 59.0145 86.1986 59.4166 85.9959 59.6777C85.8199 59.9076 85.6439 60.1375 85.469 60.3664C85.1526 60.7885 85.2406 61.3827 85.6461 61.7227C86.0293 62.0426 86.5952 62.0537 86.9694 61.7304C87.356 61.3894 89.4835 59.32 90.1563 58.6224Z" fill="white"/>
<path d="M83.338 54.245C83.4528 54.3139 83.5408 54.4105 83.5987 54.5205L83.895 54.0351L83.2678 53.6552L82.9727 54.1406C83.0974 54.1417 83.2233 54.1762 83.338 54.245Z" fill="#96D9C9"/>
<path d="M82.3483 54.4853C82.4174 54.3709 82.5143 54.2831 82.6235 54.2242L82.1378 53.9299L81.7568 54.5541L82.2436 54.8496C82.2447 54.7252 82.2781 54.5986 82.3483 54.4853Z" fill="#96D9C9"/>
<path d="M82.5902 55.4717C82.4765 55.4017 82.3885 55.3062 82.3295 55.1962L82.0332 55.6816L82.6603 56.0615L82.9555 55.5761C82.8308 55.575 82.7049 55.5406 82.5902 55.4717Z" fill="#96D9C9"/>
<path d="M83.6847 54.8674C83.6824 54.9918 83.649 55.1173 83.58 55.2317C83.5098 55.3461 83.414 55.4339 83.3037 55.4927L83.7894 55.7871L84.1703 55.1628L83.6847 54.8674Z" fill="#96D9C9"/>
<path d="M83.3391 55.085C83.2133 55.2916 82.9426 55.3583 82.7354 55.2317C82.5282 55.1061 82.4625 54.8373 82.5883 54.6307C82.7142 54.423 82.9849 54.3575 83.1921 54.483C83.3993 54.6096 83.465 54.8784 83.3391 55.085Z" fill="#96D9C9"/>
<path d="M88.8966 58.52C88.6271 58.9621 88.0489 59.1032 87.6045 58.8344C87.1611 58.5656 87.0208 57.989 87.2903 57.5469C87.5599 57.1048 88.138 56.9638 88.5814 57.2326C89.0247 57.5014 89.1662 58.0779 88.8966 58.52Z" fill="#96D9C9"/>
<path d="M93.8138 25.1331C93.8138 25.1331 94.1335 23.3125 96.0293 22.4361C97.7192 21.6541 99.5427 22.5283 100.308 24.1745C101.195 26.0806 100.655 29.0698 97.444 32.9365C92.4091 32.8843 89.7725 31.3647 88.8858 29.4586C88.1205 27.8124 88.6274 25.8596 90.3183 25.0776C92.2142 24.2 93.8138 25.1331 93.8138 25.1331Z" fill="#F48C7F"/>
<path d="M32.7352 16.9618L21.5459 22.2792C20.2259 22.9057 18.6452 22.347 18.017 21.0307L15.014 14.7469C14.385 13.4306 14.9451 11.8554 16.2648 11.2278L27.4552 5.91154C28.7752 5.28393 30.3559 5.84266 30.9841 7.15897L33.9872 13.4428C34.6155 14.7591 34.0552 16.3342 32.7352 16.9618Z" fill="#FAE0B2"/>
<path d="M16.978 17.6032L14.582 24.7246L19.9053 20.799L16.978 17.6032Z" fill="#FAE0B2"/>
<path d="M20.9285 14.8491L22.3443 14.1326C22.3443 14.1326 23.4905 11.921 23.3145 11.42C23.1396 10.9202 22.3565 10.0604 22.5737 9.79936C22.7921 9.53832 23.3345 9.15287 24.0129 9.59941C24.5064 9.92266 25.0901 11.6944 25.3117 11.7233C25.451 11.7422 26.2764 11.3534 26.8746 11.059C27.2678 10.8657 27.7356 10.9057 28.0899 11.1645H28.091C28.3305 11.3389 28.4151 11.6566 28.2937 11.9265L28.1043 12.3464L28.5165 12.5575C28.8239 12.7141 28.9465 13.0884 28.7905 13.3961L28.6323 13.7094L28.8997 13.8216C29.245 13.966 29.3865 14.377 29.2049 14.7025L29.0579 14.9668L29.1213 15.0124C29.3853 15.2012 29.4622 15.56 29.2962 15.8388L29.1436 16.0965L25.373 18.006C25.0199 18.1848 24.6334 18.2892 24.2379 18.3148L22.801 18.7669C22.6461 18.8158 22.479 18.7447 22.4078 18.5992L20.7825 15.2834C20.7035 15.1234 20.7692 14.9302 20.9285 14.8491Z" fill="white"/>
<path d="M113.508 32.3021C121.966 30.387 129.779 33.0341 130.958 38.216C131.549 40.8064 130.369 43.5401 127.984 45.865L133.156 52.7275L124.58 48.4243C122.625 49.5706 120.318 50.4915 117.781 51.0658C109.323 52.9808 101.508 50.3338 100.329 45.153C99.1492 39.9711 105.05 34.2182 113.508 32.3021Z" fill="#FAE0B2"/>
<path d="M121.653 41.2995C121.53 44.312 118.984 46.6547 115.964 46.5325C112.943 46.4104 110.594 43.8699 110.715 40.8585C110.838 37.846 113.384 35.5034 116.404 35.6244C119.425 35.7466 121.774 38.287 121.653 41.2995Z" fill="#F7CC7F"/>
<path d="M113.225 41.8243C113.16 43.4349 114.417 44.7935 116.031 44.8579C117.646 44.9234 119.007 43.6704 119.073 42.0598L113.225 41.8243Z" fill="#EFEFEF"/>
<path d="M7.10514 56.4364L4.31454 56.9907L4.66086 59.6133L1.93611 60.2809L1.95716 62.828L0 63.66L0.422506 64.6475L3.04021 63.5344L3.02017 61.1218L5.85487 60.4264L5.51413 57.8482L8.04305 57.345L7.10514 56.4364Z" fill="#F48C7F"/>
<path d="M193 78.0025L192.221 75.2733L189.628 75.8276L188.743 73.1728L186.199 73.3982L185.209 71.5188L184.256 72.0186L185.578 74.5313L187.989 74.318L188.911 77.0795L191.462 76.534L192.167 79.0078L193 78.0025Z" fill="#F7CC7F"/>
<path d="M7.56706 27.3208L6.00712 27.7984L4.95959 25.3802L2.59252 25.7978L1.51191 24.1161L0.658203 24.6615L2.10339 26.9109L4.34672 26.5154L5.43647 29.0303L7.78372 28.3127L7.56706 27.3208Z" fill="#50BFA5"/>
<path d="M65.3928 37.0999C64.848 36.6522 63.5771 36.2846 62.9443 36.2279C62.3116 36.1713 59.548 36.1735 59.1893 36.8355C58.8318 37.4987 61.7335 39.3759 61.8872 40.1557C62.0421 40.9355 60.2075 53.0499 59.6783 55.4548C59.4166 56.6412 58.414 58.8761 57.4639 60.8367C58.8295 61.0544 60.4982 62.1685 61.5464 62.9639C62.8898 60.0325 64.2643 56.7389 64.4359 55.1905C64.7812 52.0647 65.9375 37.5476 65.3928 37.0999Z" fill="#F7A491"/>
<path d="M67.5565 19.983C69.1616 18.8188 72.4677 17.3937 73.1795 17.0938C73.546 17.7669 73.8802 19.5409 73.7822 20.2718C72.998 20.2129 69.5014 20.2918 67.5565 19.983ZM73.4068 16.2018C72.4655 16.124 67.5397 19.8686 67.5397 19.8686L67.3203 20.1629C67.3203 20.1629 73.9693 21.2826 74.2812 21.0749C75.1244 20.5128 74.1809 16.2673 73.4068 16.2018Z" fill="#466EB6"/>
<path d="M61.7517 14.2557C61.628 13.537 63.4682 12.0063 64.0731 11.8141C64.2135 11.7952 64.3349 11.783 64.4284 11.8086C64.5398 11.8408 64.9453 12.0485 65.4454 13.3837C65.9924 14.8422 66.5638 18.2179 66.556 19.5653C64.4396 17.8014 61.8898 14.8744 61.7517 14.2557ZM66.214 13.0971C65.3619 10.8233 64.5287 10.9299 63.9394 11.0066C63.349 11.0832 60.6957 12.956 60.9441 14.3967C61.1925 15.8375 66.4992 20.043 66.4992 20.043L66.8512 19.6375C66.8512 19.6375 67.0651 15.3709 66.214 13.0971Z" fill="#466EB6"/>
<path d="M66.543 20.9333L66.8315 21.0155C67.1188 21.0966 67.4174 20.9311 67.4987 20.6456L67.7415 19.7981C67.824 19.5115 67.658 19.2149 67.3706 19.1327L67.0821 19.0505C66.7958 18.9683 66.4973 19.1338 66.4149 19.4204L66.172 20.268C66.0907 20.5534 66.2567 20.8511 66.543 20.9333Z" fill="#466EB6"/>
<path d="M71.9388 39.4888L53.6248 34.2736C52.6346 33.9925 52.0342 32.9928 52.2514 31.9898L55.4918 17.0461L79.3419 23.8376L73.9672 38.8323C73.7422 39.4588 72.8488 39.7487 71.9388 39.4888Z" fill="#F47458"/>
<path d="M79.4113 27.3184L53.5049 19.9948L53.7054 18.2564C53.8246 17.2145 54.8561 16.5291 55.8675 16.8201L79.2787 23.5561C80.1108 23.7949 80.6166 24.4925 80.3726 25.0645L79.4113 27.3184Z" fill="#FAE0B2"/>
<path d="M66.4241 23.6572L65.9307 23.5162L66.9388 19.9982L67.4311 20.1382L66.4241 23.6572Z" fill="#466EB6"/>
<path d="M63.2635 37.0449L62.6475 36.8694L66.4348 23.642L67.0519 23.8175L63.2635 37.0449Z" fill="#466EB6"/>
<path d="M60.6732 37.0797L60.7389 36.3021C60.1095 36.1255 59.3844 35.8634 59.0123 35.7067L58.911 35.1136C58.5824 34.3005 58.217 34.8814 58.1101 35.0669C58.1101 35.0669 58.0833 36.11 58.2003 36.231C58.2003 36.231 59.4356 37.5318 59.9625 38.0239C60.2232 38.2672 61.0564 38.9414 61.0564 38.9414L61.7191 38.0261L60.6732 37.0797Z" fill="#F7A491"/>
<path d="M142.846 105.125C142.846 105.125 155.973 122.766 158.258 122.929C160.393 123.081 176.949 113.875 176.949 113.875L174.796 109.12L161.538 113.875L152.306 96.4517L142.846 105.125Z" fill="#4B7BE5"/>
<path d="M150.402 90.2191C150.402 90.2191 152.806 90.7901 154.179 94.4424C155.552 98.0936 153.256 101.128 147.499 106.42C141.895 111.572 136.36 116.412 136.36 116.412L140.904 135.068L137.128 138.264C137.128 138.264 128.375 119.303 128.121 114.789C128.024 113.065 141.477 93.0728 141.477 93.0728L150.402 90.2191Z" fill="#F47458"/>
</svg>
