<svg xmlns="http://www.w3.org/2000/svg" width="42" height="42" viewBox="0 0 42 42" fill="none">
<rect width="42" height="42" rx="4" fill="#4B7BE5"/>
<path d="M10 26.832V28.5C10 29.8789 13.3594 31 17.5 31C21.6406 31 25 29.8789 25 28.5V26.832C23.3867 27.9688 20.4375 28.5 17.5 28.5C14.5625 28.5 11.6133 27.9688 10 26.832ZM22.5 16C26.6406 16 30 14.8789 30 13.5C30 12.1211 26.6406 11 22.5 11C18.3594 11 15 12.1211 15 13.5C15 14.8789 18.3594 16 22.5 16ZM10 22.7344V24.75C10 26.1289 13.3594 27.25 17.5 27.25C21.6406 27.25 25 26.1289 25 24.75V22.7344C23.3867 24.0625 20.4336 24.75 17.5 24.75C14.5664 24.75 11.6133 24.0625 10 22.7344ZM26.25 23.1641C28.4883 22.7305 30 21.9258 30 21V19.332C29.0938 19.9727 27.7617 20.4102 26.25 20.6797V23.1641ZM17.5 17.25C13.3594 17.25 10 18.6484 10 20.375C10 22.1016 13.3594 23.5 17.5 23.5C21.6406 23.5 25 22.1016 25 20.375C25 18.6484 21.6406 17.25 17.5 17.25ZM26.0664 19.4492C28.4102 19.0273 30 18.1992 30 17.25V15.582C28.6133 16.5625 26.2305 17.0898 23.7227 17.2148C24.875 17.7734 25.7227 18.5234 26.0664 19.4492Z" fill="white"/>
</svg>
