<svg width="26" height="22" viewBox="0 0 26 22" fill="none" xmlns="http://www.w3.org/2000/svg">
<path d="M0.217242 12.8333H8.03204C8.15216 12.8333 8.24392 12.7361 8.24954 12.6218C8.24954 12.4389 8.26104 12.2504 8.28966 12.0619C8.29529 12.0218 8.30117 11.9877 8.31267 11.9476L8.32417 11.8734C8.34717 11.7305 8.36992 11.6162 8.39854 11.5076C8.41004 11.4619 8.42716 11.4163 8.44429 11.3647L8.46729 11.2905C8.50742 11.1533 8.54166 11.0619 8.57617 10.9762C8.59917 10.9247 8.62192 10.879 8.64492 10.8219L8.67917 10.7533C8.73642 10.6275 8.77655 10.5477 8.8223 10.4676C8.85092 10.4161 8.88517 10.3648 8.91967 10.3132L8.95392 10.2561C9.01679 10.1533 9.06842 10.0732 9.12567 9.99898C9.1658 9.94745 9.20593 9.89618 9.25167 9.84465C9.34905 9.72476 9.4178 9.64466 9.48629 9.57043C9.53792 9.5189 9.58929 9.46763 9.64092 9.42197C9.74392 9.32478 9.82417 9.25616 9.90417 9.1878C9.97292 9.13066 10.0417 9.07913 10.1332 9.01638C10.2075 8.95924 10.2362 8.85056 10.196 8.76485C9.99004 8.27916 9.7038 7.81058 9.36032 7.4106C9.28595 7.31928 9.14844 7.3078 9.05695 7.38203C8.00342 8.25063 6.67548 8.73041 5.3071 8.73041C3.93873 8.73041 2.61072 8.25033 1.55725 7.38203C1.46576 7.3078 1.33387 7.31928 1.2595 7.4106C0.446485 8.36487 0 9.58192 0 10.839V12.6333C0.00562281 12.7361 0.102998 12.8333 0.217498 12.8333L0.217242 12.8333Z" fill="#060B29"/>
<path d="M5.5712 7.33333C7.61947 7.33333 9.28546 5.68869 9.28546 3.66667C9.28546 1.64464 7.61947 0 5.5712 0C3.52292 0 1.85693 1.64464 1.85693 3.66667C1.85693 5.68869 3.52292 7.33333 5.5712 7.33333Z" fill="#97C0FF"/>
<path d="M18.5714 21.7836V19.9948C18.5714 18.7416 18.1027 17.5284 17.2492 16.577C17.1711 16.486 17.0268 16.4746 16.9366 16.5486C15.8307 17.4145 14.4366 17.8928 13.0001 17.8928C11.5636 17.8928 10.1694 17.4142 9.06351 16.5486C8.96746 16.4746 8.829 16.486 8.75093 16.577C7.89743 17.5284 7.42871 18.7416 7.42871 19.9948V21.7836C7.42871 21.9031 7.53094 22 7.65704 22H18.355C18.4693 21.9944 18.5715 21.8975 18.5715 21.7836H18.5714Z" fill="#060B29"/>
<path d="M16.0753 9.19354C16.1555 9.26195 16.2299 9.33036 16.3043 9.39851C16.3846 9.47836 16.4419 9.52388 16.4933 9.57499C16.5621 9.64899 16.6308 9.72884 16.6993 9.80843C16.7737 9.89947 16.8139 9.95084 16.854 10.0022C16.9113 10.0762 16.9629 10.1561 17.0143 10.2415L17.066 10.3214C17.1002 10.3727 17.1289 10.4238 17.1634 10.4752C17.2091 10.5551 17.2437 10.6347 17.2835 10.7145L17.3408 10.8284C17.3638 10.874 17.3866 10.9253 17.4096 10.9764C17.4438 11.0675 17.4725 11.1529 17.507 11.2498L17.5471 11.3693C17.5643 11.4148 17.5814 11.4604 17.5929 11.5117C17.6215 11.6201 17.6445 11.734 17.6617 11.8479L17.6847 11.9504C17.6903 11.9845 17.7018 12.0244 17.7077 12.0643C17.7307 12.2523 17.7478 12.4402 17.7478 12.6225C17.7478 12.742 17.8452 12.8333 17.9654 12.8333H25.7828C25.9029 12.8333 26.0004 12.7364 26.0004 12.6169V10.8281C26.0004 9.57496 25.5537 8.36168 24.7404 7.41036C24.666 7.31933 24.5285 7.30788 24.4426 7.38188C23.3887 8.24779 22.0603 8.72608 20.6915 8.72608C19.3227 8.72608 17.9942 8.24749 16.9404 7.38188C16.8489 7.30788 16.717 7.31932 16.6369 7.41036C16.2989 7.8091 16.007 8.27627 15.8009 8.76042C15.7608 8.85146 15.8066 8.97124 15.8868 9.0282C15.9382 9.09101 16.007 9.14238 16.0755 9.1935L16.0753 9.19354Z" fill="#060B29"/>
<path d="M9.28571 12.8232C9.28571 12.9693 9.29668 13.1153 9.31302 13.2558C9.5315 15.1051 11.1155 16.5 12.9999 16.5C14.8844 16.5 16.4684 15.1051 16.6869 13.2558C16.7032 13.1153 16.7142 12.9693 16.7142 12.8232C16.7142 11.5256 16.0095 10.309 14.868 9.64931C13.7536 9.00578 12.2462 9.00578 11.1264 9.64931C9.99036 10.309 9.28564 11.5256 9.28564 12.8232H9.28571Z" fill="#97C0FF"/>
<path d="M20.4286 7.33333C22.4769 7.33333 24.1429 5.68869 24.1429 3.66667C24.1429 1.64464 22.4769 0 20.4286 0C18.3803 0 16.7144 1.64464 16.7144 3.66667C16.7144 5.68869 18.3803 7.33333 20.4286 7.33333Z" fill="#97C0FF"/>
</svg>
