<svg width="22" height="15" viewBox="0 0 22 15" fill="none" xmlns="http://www.w3.org/2000/svg">
<path d="M21.2006 1.82791L15.6716 7.21571C15.6618 7.22446 15.6541 7.2351 15.6488 7.24695C15.6435 7.2588 15.6407 7.2716 15.6407 7.28454C15.6407 7.29748 15.6435 7.31028 15.6488 7.32213C15.6541 7.33398 15.6618 7.34461 15.6716 7.35336L19.5406 11.296C19.6028 11.3545 19.6522 11.4248 19.6859 11.5025C19.7197 11.5802 19.7371 11.6638 19.7371 11.7482C19.7371 11.8327 19.7197 11.9163 19.6859 11.994C19.6522 12.0717 19.6028 12.142 19.5406 12.2005C19.4136 12.3204 19.2442 12.3874 19.0679 12.3874C18.8916 12.3874 18.7222 12.3204 18.5952 12.2005L14.7416 8.27235C14.7216 8.25341 14.6948 8.24283 14.667 8.24283C14.6392 8.24283 14.6125 8.25341 14.5924 8.27235L13.652 9.18671C12.8672 9.94857 11.8073 10.3757 10.7028 10.3751C9.57353 10.3733 8.49089 9.93325 7.69168 9.15106L6.78729 8.27103C6.76727 8.25209 6.74053 8.2415 6.71271 8.2415C6.68489 8.2415 6.65815 8.25209 6.63813 8.27103L2.78489 12.2005C2.6579 12.3204 2.48846 12.3874 2.31215 12.3874C2.13585 12.3874 1.96641 12.3204 1.83942 12.2005C1.7773 12.142 1.72787 12.0717 1.69411 11.994C1.66035 11.9163 1.64294 11.8327 1.64294 11.7482C1.64294 11.6638 1.66035 11.5802 1.69411 11.5025C1.72787 11.4248 1.7773 11.3545 1.83942 11.296L5.70849 7.35336C5.72588 7.33449 5.73551 7.30997 5.73551 7.28454C5.73551 7.25911 5.72588 7.23458 5.70849 7.21571L0.174754 1.82791C0.160849 1.81334 0.142781 1.80324 0.122918 1.79891C0.103055 1.79459 0.0823216 1.79624 0.0634343 1.80366C0.044547 1.81108 0.0283861 1.82392 0.0170681 1.8405C0.0057501 1.85708 -0.000197243 1.87662 4.99146e-06 1.89657V12.6771C0.00656875 13.0991 0.183146 13.5013 0.491185 13.7961C0.799224 14.0909 1.2137 14.2542 1.64413 14.2504H19.7309C20.1613 14.2542 20.5758 14.0909 20.8838 13.7961C21.1919 13.5013 21.3684 13.0991 21.375 12.6771V1.89657C21.3742 1.87712 21.3677 1.85831 21.3562 1.84241C21.3448 1.82651 21.3289 1.81419 21.3104 1.80693C21.292 1.79968 21.2718 1.7978 21.2524 1.80152C21.2329 1.80524 21.2149 1.81441 21.2006 1.82791Z" fill="#111156"/>
<path d="M10.686 9.48594C11.0618 9.48627 11.4337 9.41104 11.7787 9.2649C12.1236 9.11876 12.4344 8.90481 12.6917 8.63627L20.7389 0.363105C20.4545 0.129045 20.0951 0.000511705 19.7238 8.78429e-07H1.6532C1.28157 -0.000387846 0.921806 0.128249 0.637695 0.363105L8.68493 8.63627C8.94172 8.90421 9.25171 9.11781 9.59584 9.26393C9.93996 9.41005 10.3109 9.4856 10.686 9.48594Z" fill="#97C0FF"/>
</svg>
