
<svg width="67" height="65" viewBox="0 0 67 65" fill="none" xmlns="http://www.w3.org/2000/svg">
<g filter="url(#filter0_d)">
<rect x="20" y="16" width="27" height="25" rx="3" fill="white"/>
<path d="M41.359 24.5764L37.2256 28.5674C37.2183 28.5739 37.2125 28.5818 37.2085 28.5906C37.2045 28.5993 37.2025 28.6088 37.2025 28.6184C37.2025 28.628 37.2045 28.6375 37.2085 28.6462C37.2125 28.655 37.2183 28.6629 37.2256 28.6694L40.118 31.5899C40.1645 31.6332 40.2014 31.6852 40.2266 31.7428C40.2519 31.8004 40.2649 31.8623 40.2649 31.9248C40.2649 31.9874 40.2519 32.0493 40.2266 32.1069C40.2014 32.1645 40.1645 32.2165 40.118 32.2598C40.0231 32.3486 39.8964 32.3983 39.7646 32.3983C39.6328 32.3983 39.5061 32.3486 39.4112 32.2598L36.5303 29.3501C36.5154 29.3361 36.4954 29.3282 36.4746 29.3282C36.4538 29.3282 36.4338 29.3361 36.4188 29.3501L35.7158 30.0274C35.1291 30.5918 34.3367 30.9081 33.511 30.9077C32.6668 30.9064 31.8574 30.5804 31.2599 30.001L30.5838 29.3491C30.5689 29.3351 30.5489 29.3273 30.5281 29.3273C30.5073 29.3273 30.4873 29.3351 30.4723 29.3491L27.5917 32.2598C27.4968 32.3486 27.3701 32.3983 27.2383 32.3983C27.1065 32.3983 26.9798 32.3486 26.8849 32.2598C26.8384 32.2165 26.8015 32.1645 26.7763 32.1069C26.751 32.0493 26.738 31.9874 26.738 31.9248C26.738 31.8623 26.751 31.8004 26.7763 31.7428C26.8015 31.6852 26.8384 31.6332 26.8849 31.5899L29.7773 28.6694C29.7903 28.6554 29.7975 28.6372 29.7975 28.6184C29.7975 28.5996 29.7903 28.5814 29.7773 28.5674L25.6404 24.5764C25.63 24.5657 25.6165 24.5582 25.6017 24.555C25.5868 24.5518 25.5713 24.553 25.5572 24.5585C25.5431 24.564 25.531 24.5735 25.5225 24.5858C25.5141 24.5981 25.5096 24.6125 25.5098 24.6273V32.6129C25.5147 32.9255 25.6467 33.2234 25.877 33.4418C26.1073 33.6601 26.4171 33.7811 26.7389 33.7783H40.2602C40.582 33.7811 40.8919 33.6601 41.1222 33.4418C41.3524 33.2234 41.4845 32.9255 41.4894 32.6129V24.6273C41.4888 24.6129 41.4839 24.599 41.4753 24.5872C41.4668 24.5754 41.4549 24.5663 41.4411 24.5609C41.4273 24.5555 41.4122 24.5541 41.3977 24.5569C41.3831 24.5597 41.3697 24.5664 41.359 24.5764Z" fill="#4B7BE5"/>
<path d="M33.5002 30.2493C33.7811 30.2495 34.0592 30.1938 34.3171 30.0855C34.575 29.9773 34.8073 29.8188 34.9997 29.6199L41.0156 23.4916C40.803 23.3182 40.5343 23.223 40.2567 23.2227H26.7475C26.4696 23.2224 26.2007 23.3177 25.9883 23.4916L32.0043 29.6199C32.1962 29.8184 32.428 29.9766 32.6852 30.0848C32.9425 30.1931 33.2198 30.249 33.5002 30.2493Z" fill="#4B7BE5"/>
</g>
<defs>
<filter id="filter0_d" x="0" y="0" width="67" height="65" filterUnits="userSpaceOnUse" color-interpolation-filters="sRGB">
<feFlood flood-opacity="0" result="BackgroundImageFix"/>
<feColorMatrix in="SourceAlpha" type="matrix" values="0 0 0 0 0 0 0 0 0 0 0 0 0 0 0 0 0 0 127 0" result="hardAlpha"/>
<feOffset dy="4"/>
<feGaussianBlur stdDeviation="10"/>
<feColorMatrix type="matrix" values="0 0 0 0 0 0 0 0 0 0 0 0 0 0 0 0 0 0 0.08 0"/>
<feBlend mode="normal" in2="BackgroundImageFix" result="effect1_dropShadow"/>
<feBlend mode="normal" in="SourceGraphic" in2="effect1_dropShadow" result="shape"/>
</filter>
</defs>
</svg>
