<svg width="24" height="22" viewBox="0 0 24 22" fill="none" xmlns="http://www.w3.org/2000/svg">
<path d="M9.04469 1.26557e-07C7.5356 -0.000253051 6.05082 0.37936 4.72775 1.10371C3.40469 1.82806 2.28608 2.87375 1.47546 4.144C0.664828 5.41425 0.188366 6.86803 0.0901625 8.37081C-0.00804146 9.87358 0.275185 11.3768 0.913633 12.7414L0.0463356 16.1341C-0.017323 16.3833 -0.0153573 16.6447 0.0520423 16.893C0.119442 17.1412 0.249987 17.3678 0.431014 17.5509C0.612041 17.7339 0.837404 17.8672 1.08524 17.9377C1.33308 18.0083 1.59498 18.0137 1.84553 17.9535C2.74273 17.7386 4.12203 17.4079 5.35061 17.1154C6.57042 17.6643 7.89782 17.934 9.2356 17.9047C10.5734 17.8755 11.8877 17.5479 13.0822 16.9461C14.2767 16.3444 15.3212 15.4836 16.1392 14.4268C16.9572 13.37 17.528 12.1441 17.8097 10.8387C18.0915 9.53328 18.077 8.18152 17.7675 6.88241C17.458 5.58329 16.8612 4.36972 16.0209 3.33056C15.1805 2.29141 14.1179 1.45299 12.9108 0.876704C11.7038 0.300423 10.3828 0.000875332 9.04469 1.26557e-07Z" fill="#111156"/>
<path d="M15.0253 21.4884C12.6686 21.4884 10.5261 20.5823 8.92432 19.1008H9.04394C9.90287 19.1008 10.7367 18.9945 11.5334 18.794C12.567 19.3694 13.7585 19.6977 15.0265 19.6977C16.1749 19.6977 17.2587 19.4291 18.2193 18.9516L18.51 18.8071L18.8271 18.8823C19.9288 19.1449 21.1777 19.4136 22.1048 19.6105C21.8943 18.714 21.6084 17.5142 21.3368 16.4458L21.2531 16.1163L21.4086 15.8143C21.9325 14.8003 22.2049 13.6757 22.2029 12.5349C22.2036 11.3374 21.903 10.1588 21.3289 9.10723C20.7548 8.05563 19.9254 7.16462 18.9168 6.51581C18.7058 5.66311 18.3841 4.84159 17.9598 4.07211C19.1473 4.48248 20.2353 5.13716 21.1533 5.99375C22.0712 6.85035 22.7987 7.88977 23.2886 9.04473C23.7784 10.1997 24.0198 11.4444 23.997 12.6984C23.9742 13.9523 23.6878 15.1875 23.1564 16.324C23.459 17.5274 23.7665 18.831 23.9603 19.6702C24.0171 19.9135 24.0116 20.1671 23.9442 20.4077C23.8768 20.6482 23.7497 20.868 23.5746 21.0465C23.3995 21.225 23.1822 21.3566 22.9426 21.429C22.7031 21.5015 22.4491 21.5124 22.2041 21.4609C21.3344 21.2794 19.9671 20.9882 18.7194 20.6969C17.5586 21.2202 16.2991 21.4901 15.0253 21.4884Z" fill="#111156"/>
<path d="M7.36926 4.3653C7.88844 4.08834 8.4471 4 8.9914 4C9.62064 4 10.3528 4.20653 10.9437 4.68882C11.5622 5.19499 11.9821 5.97095 11.9821 6.98329C11.9821 8.14724 11.1579 8.77875 10.6937 9.13451L10.592 9.2133C10.0848 9.61083 9.88861 9.82332 9.88861 10.2662C9.88861 10.5037 9.79408 10.7314 9.62582 10.8993C9.45756 11.0672 9.22936 11.1616 8.9914 11.1616C8.75345 11.1616 8.52524 11.0672 8.35699 10.8993C8.18873 10.7314 8.0942 10.5037 8.0942 10.2662C8.0942 8.91246 8.94475 8.22722 9.48427 7.80462C10.098 7.32352 10.1877 7.21608 10.1877 6.98329C10.1877 6.50935 10.0094 6.24075 9.80487 6.07481C9.57285 5.89246 9.28673 5.79211 8.9914 5.7895C8.6385 5.7895 8.39566 5.84799 8.21383 5.94469C8.04276 6.03542 7.86212 6.19539 7.68747 6.51771C7.6313 6.62118 7.55527 6.7126 7.46371 6.78674C7.37214 6.86089 7.26684 6.91631 7.15381 6.94984C7.04078 6.98337 6.92224 6.99436 6.80496 6.98218C6.68767 6.97 6.57394 6.93488 6.47026 6.87883C6.36658 6.82279 6.27497 6.74691 6.20067 6.65554C6.12637 6.56416 6.07083 6.45907 6.03723 6.34628C6.00363 6.23349 5.99262 6.11519 6.00483 5.99815C6.01703 5.88111 6.05222 5.76762 6.10839 5.66415C6.4242 5.08396 6.84051 4.64584 7.36926 4.36411V4.3653Z" fill="#97C0FF"/>
<path d="M8.98973 14.7429C9.307 14.7429 9.61128 14.6171 9.83562 14.3933C10.06 14.1694 10.186 13.8657 10.186 13.5491C10.186 13.2325 10.06 12.9289 9.83562 12.705C9.61128 12.4811 9.307 12.3553 8.98973 12.3553C8.67246 12.3553 8.36818 12.4811 8.14384 12.705C7.91949 12.9289 7.79346 13.2325 7.79346 13.5491C7.79346 13.8657 7.91949 14.1694 8.14384 14.3933C8.36818 14.6171 8.67246 14.7429 8.98973 14.7429Z" fill="#97C0FF"/>
</svg>
