
<svg width="67" height="65" viewBox="0 0 67 65" fill="none" xmlns="http://www.w3.org/2000/svg">
<g filter="url(#filter0_d)">
<rect x="20" y="16" width="27" height="25" rx="3" fill="white"/>
<path d="M34.7255 21.5557C32.9389 21.5488 31.2228 22.2578 29.9546 23.5266C28.6864 24.7954 27.97 26.5201 27.9631 28.3214C27.9619 29.5538 28.2981 30.7627 28.9346 31.8148L27.7129 35.4446L31.457 34.2453C32.4838 34.8131 33.6391 35.1028 34.8101 35.0862C35.9811 35.0696 37.1278 34.7471 38.1383 34.1504C39.1488 33.5536 39.9886 32.7029 40.5758 31.6813C41.1629 30.6597 41.4774 29.5021 41.4884 28.3214C41.485 27.4294 41.3073 26.5469 40.9656 25.7242C40.6239 24.9014 40.1248 24.1546 39.4968 23.5264C38.8688 22.8981 38.1242 22.4007 37.3055 22.0626C36.4869 21.7245 35.6102 21.5522 34.7255 21.5557ZM38.0884 30.8907C37.9293 31.2885 37.2097 31.6514 36.8921 31.6681C36.5744 31.6847 36.5658 31.916 34.8367 31.1586C33.1077 30.4013 32.0679 28.5593 31.986 28.4405C31.904 28.3217 31.3163 27.4779 31.3479 26.6282C31.3534 26.3587 31.4148 26.0933 31.5282 25.8492C31.6416 25.605 31.8043 25.3875 32.0061 25.2106C32.0673 25.1479 32.1402 25.0981 32.2206 25.064C32.3009 25.0299 32.3872 25.0121 32.4744 25.0117C32.6106 25.0094 32.6987 25.0076 32.7995 25.0117C32.9002 25.0158 33.0514 24.9904 33.1813 25.3415C33.3111 25.6925 33.6254 26.5553 33.6649 26.6433C33.6904 26.6893 33.7042 26.7409 33.7049 26.7936C33.7056 26.8462 33.6932 26.8982 33.6689 26.9449C33.6215 27.0473 33.5598 27.1423 33.4857 27.2271C33.3953 27.3247 33.2958 27.4455 33.2154 27.52C33.1255 27.6026 33.0318 27.6927 33.1263 27.8692C33.3696 28.3233 33.6784 28.7384 34.0426 29.101C34.4392 29.4813 34.8984 29.7892 35.3997 30.0108C35.5693 30.1039 35.6706 30.0937 35.7757 29.982C35.8808 29.8704 36.2257 29.4944 36.3476 29.3258C36.4695 29.1572 36.5831 29.1903 36.7394 29.2537C36.8956 29.3171 37.7282 29.767 37.8977 29.8599C38.0672 29.9528 38.1805 30.0002 38.221 30.0739C38.2575 30.3534 38.2114 30.6376 38.0884 30.8907Z" fill="#1DC449"/>
</g>
<defs>
<filter id="filter0_d" x="0" y="0" width="67" height="65" filterUnits="userSpaceOnUse" color-interpolation-filters="sRGB">
<feFlood flood-opacity="0" result="BackgroundImageFix"/>
<feColorMatrix in="SourceAlpha" type="matrix" values="0 0 0 0 0 0 0 0 0 0 0 0 0 0 0 0 0 0 127 0" result="hardAlpha"/>
<feOffset dy="4"/>
<feGaussianBlur stdDeviation="10"/>
<feComposite in2="hardAlpha" operator="out"/>
<feColorMatrix type="matrix" values="0 0 0 0 0 0 0 0 0 0 0 0 0 0 0 0 0 0 0.08 0"/>
<feBlend mode="normal" in2="BackgroundImageFix" result="effect1_dropShadow"/>
<feBlend mode="normal" in="SourceGraphic" in2="effect1_dropShadow" result="shape"/>
</filter>
</defs>
</svg>
