<svg width="17" height="17" viewBox="0 0 17 17" fill="none" xmlns="http://www.w3.org/2000/svg">
<path d="M8.49743 6.20597e-05C6.33254 -0.00821567 4.25303 0.843807 2.71632 2.36871C1.17962 3.89361 0.311585 5.96649 0.303174 8.13137C0.301703 9.61257 0.709079 11.0654 1.48043 12.33L-1.65144e-05 16.6923L4.53692 15.251C5.78114 15.9334 7.18101 16.2816 8.59993 16.2616C10.0189 16.2416 11.4084 15.8541 12.6328 15.1369C13.8573 14.4197 14.8749 13.3973 15.5864 12.1695C16.2979 10.9417 16.6789 9.55036 16.6923 8.13137C16.6881 7.05938 16.4729 5.9987 16.0588 5.0099C15.6447 4.02111 15.0399 3.12355 14.2789 2.36849C13.518 1.61343 12.6157 1.01564 11.6237 0.609266C10.6317 0.20289 9.56942 -0.00411786 8.49743 6.20597e-05ZM12.5723 11.2193C12.3796 11.6974 11.5076 12.1335 11.1227 12.1535C10.7378 12.1736 10.7273 12.4515 8.6322 11.5413C6.53707 10.6311 5.27715 8.41728 5.17784 8.27448C5.07853 8.13168 4.36637 7.11758 4.40462 6.09638C4.41134 5.77247 4.48577 5.45354 4.62313 5.16012C4.7605 4.86669 4.95775 4.60527 5.20221 4.39264C5.27638 4.31737 5.36471 4.25751 5.4621 4.21649C5.55949 4.17547 5.66403 4.1541 5.76971 4.15362C5.93472 4.15084 6.04143 4.14868 6.16357 4.15362C6.28571 4.15855 6.46891 4.12802 6.62621 4.54994C6.7835 4.97187 7.16441 6.00879 7.21221 6.11458C7.24318 6.16979 7.25985 6.23186 7.26072 6.29515C7.26158 6.35844 7.2466 6.42095 7.21715 6.47698C7.1597 6.60009 7.08492 6.71434 6.99508 6.81625C6.88559 6.93345 6.765 7.07871 6.66753 7.16816C6.55866 7.26747 6.44516 7.37573 6.55958 7.58792C6.85444 8.1336 7.22862 8.63251 7.66991 9.06836C8.15052 9.52545 8.70699 9.89542 9.31444 10.1617C9.51985 10.2737 9.6426 10.2613 9.76998 10.1272C9.89736 9.99302 10.3153 9.54118 10.463 9.33854C10.6108 9.13591 10.7483 9.17569 10.9377 9.25187C11.1271 9.32806 12.1359 9.86872 12.3413 9.98037C12.5467 10.092 12.684 10.1491 12.733 10.2376C12.7773 10.5735 12.7214 10.915 12.5723 11.2193Z" fill="#1DC449"/>
</svg>