<svg width="39" height="42" viewBox="0 0 39 42" fill="none" xmlns="http://www.w3.org/2000/svg">
<path fill-rule="evenodd" clip-rule="evenodd" d="M38.9981 7.15197V15.8585H27.9719V12.2081H23.1832V15.8585H19.4648V7.14772C20.4654 7.696 21.7682 7.77675 22.9279 7.20191C23.3188 7.008 23.6491 6.75511 23.9136 6.45866C24.9141 7.57221 26.7103 7.96641 28.2524 7.20191C28.6433 7.008 28.9736 6.75511 29.2375 6.45866C30.2386 7.57221 32.0348 7.96641 33.5763 7.20191C33.9678 7.008 34.2975 6.75511 34.562 6.45866C35.5631 7.57221 37.3593 7.96695 38.9008 7.20191C38.934 7.18598 38.9661 7.16897 38.9981 7.15197ZM19.4648 0H23.0252V4.41539C23.0252 6.60104 19.4648 6.60104 19.4648 4.41539V0ZM35.4383 0H38.9981V4.41539C38.9981 6.60104 35.4383 6.60104 35.4383 4.41539V0ZM30.1138 0H33.6736V4.41539C33.6736 6.60104 30.1138 6.60104 30.1138 4.41539V0ZM24.7893 0H28.3497V4.41539C28.3497 6.60104 24.7893 6.60104 24.7893 4.41539V0Z" fill="#4B7BE5"/>
<path fill-rule="evenodd" clip-rule="evenodd" d="M17.2625 42.0004H0V27.6836C0 24.3541 1.73438 22.0792 4.18313 20.9046L2.78188 25.0405L4.44758 24.5151L8.56316 31.0142L12.6787 24.5151L14.3444 25.0405L12.9191 20.8328C14.6822 21.5432 16.3164 22.6971 17.5791 24.3047L22.6523 27.9902L30.6923 23.7501C34.1576 21.9246 37.1461 26.8145 33.6825 28.6388L23.8807 33.806C22.8469 34.35 21.5189 34.2974 20.5241 33.5765L17.2625 31.2075V42.0004ZM5.14476 20.5125C7.22488 19.8001 9.67534 19.7884 11.985 20.5024L8.56316 31.0142L5.14476 20.5125ZM8.50477 4C12.5952 4 15.9111 7.0782 15.9111 10.8747C15.9111 14.6706 12.5952 17.7483 8.50477 17.7483C4.41438 17.7483 1.09902 14.6706 1.09902 10.8747C1.09902 7.0782 4.41438 4 8.50477 4Z" fill="#060B29"/>
</svg>
