<svg width="35" height="42" viewBox="0 0 35 42" fill="none" xmlns="http://www.w3.org/2000/svg">
<path d="M17.2323 20.0554C18.5517 20.0698 19.8596 19.8157 21.0727 19.3095C22.2858 18.8032 23.3774 18.0559 24.2779 17.1152C25.2232 16.1823 25.9683 15.075 26.4697 13.858C26.971 12.6409 27.2186 11.3385 27.1978 10.027C27.2184 8.71551 26.9708 7.41318 26.4694 6.19613C25.9681 4.97908 25.223 3.87174 24.2779 2.93885C23.368 2.00997 22.2746 1.27065 21.0636 0.765536C19.8527 0.260422 18.5493 0 17.2323 0C15.9153 0 14.612 0.260422 13.401 0.765536C12.1901 1.27065 11.0966 2.00997 10.1868 2.93885C9.24147 3.87165 8.49635 4.97898 7.99498 6.19605C7.49362 7.41311 7.24607 8.71549 7.26683 10.027C7.24607 11.3385 7.49362 12.6409 7.99498 13.858C8.49635 15.075 9.24147 16.1823 10.1868 17.1152C11.0874 18.0558 12.179 18.803 13.3921 19.3093C14.6051 19.8155 15.913 20.0696 17.2323 20.0554Z" fill="#4B7BE5"/>
<path d="M34.9067 32.3654C34.8409 31.4852 34.7277 30.6089 34.5677 29.7402C34.4093 28.8453 34.1918 27.9614 33.9164 27.0939C33.6384 26.2371 33.2714 25.4103 32.8211 24.6262C32.3788 23.8399 31.8223 23.1201 31.1687 22.4893C30.4849 21.8497 29.6794 21.3467 28.7977 21.0086C27.8336 20.6397 26.8057 20.4553 25.7701 20.4652C25.1644 20.5299 24.5925 20.7704 24.1285 21.1556C23.636 21.4733 23.052 21.8435 22.4196 22.2504C21.7266 22.6622 20.9834 22.9876 20.2074 23.2191C18.4523 23.7982 16.5506 23.7982 14.7955 23.2191C14.0185 22.988 13.2743 22.6626 12.5806 22.2504C11.9455 21.8461 11.3696 21.4785 10.869 21.1556C10.4052 20.7701 9.83318 20.5296 9.22738 20.4652C8.19158 20.4557 7.16362 20.6411 6.19979 21.0113C5.31712 21.349 4.51076 21.852 3.82615 22.4919C3.17351 23.1229 2.61786 23.8427 2.17645 24.6289C1.7263 25.413 1.35929 26.2398 1.08114 27.0965C0.805902 27.964 0.58836 28.848 0.429867 29.7428C0.269633 30.6115 0.156446 31.4878 0.0907763 32.3681C0.0342612 33.1556 0.00734927 33.9931 0.00734927 34.8279C-0.0374673 35.792 0.123057 36.7547 0.478793 37.6552C0.83453 38.5557 1.37775 39.3746 2.07419 40.06C2.78696 40.7102 3.62503 41.2159 4.53976 41.5476C5.45449 41.8792 6.42765 42.0304 7.40275 41.9922H27.5867C28.5618 42.0305 29.535 41.8795 30.4498 41.5478C31.3645 41.2161 32.2026 40.7103 32.9153 40.06C33.6141 39.3752 34.1596 38.5564 34.5172 37.6553C34.8749 36.7542 35.0368 35.7906 34.9929 34.8253C34.9929 33.9852 34.9633 33.1582 34.9067 32.3654Z" fill="#060B29"/>
</svg>
