<svg width="42" height="42" viewBox="0 0 42 42" fill="none" xmlns="http://www.w3.org/2000/svg">
<path d="M41.6016 22.6797C41.8636 22.1581 42.0001 21.5824 42.0001 20.9987C42.0001 20.4149 41.8636 19.8392 41.6016 19.3176L41.0512 18.2279C40.9314 17.992 40.8888 17.7244 40.9296 17.463L41.1153 16.2561C41.2031 15.6792 41.1549 15.0898 40.9746 14.5348C40.7942 13.9799 40.4866 13.4748 40.0764 13.0598L39.2165 12.1933C39.03 12.0059 38.9071 11.7646 38.865 11.5036L38.6705 10.2989C38.577 9.72959 38.3531 9.18957 38.0165 8.72101C37.6798 8.25246 37.2394 7.86803 36.7297 7.59774L35.6709 6.97439L35.609 6.93902C35.3732 6.81845 35.1814 6.62663 35.0608 6.39083L34.5016 5.30549C34.2177 4.78326 33.8174 4.33338 33.3318 3.9907C32.8461 3.64801 32.2881 3.42172 31.7009 3.32934L30.5051 3.13482C30.244 3.09278 30.0028 2.96985 29.8154 2.78335L28.94 1.92348C28.5248 1.51291 28.0193 1.20513 27.464 1.02474C26.9086 0.844353 26.3187 0.796348 25.7415 0.884565L24.5368 1.07024C24.2754 1.11101 24.0078 1.06848 23.772 0.948668L22.68 0.398263C22.1587 0.136384 21.5834 0 21.0001 0C20.4167 0 19.8414 0.136384 19.3201 0.398263L18.2304 0.948668C17.9938 1.0688 17.7254 1.11134 17.4633 1.07024L16.2586 0.884565C15.6814 0.796172 15.0915 0.844092 14.5361 1.02449C13.9807 1.20489 13.4752 1.51276 13.0601 1.92348L12.1936 2.78335C12.0063 2.96997 11.765 3.09293 11.5039 3.13482L10.2992 3.32934C9.71205 3.42172 9.15402 3.64801 8.66836 3.9907C8.18269 4.33338 7.78243 4.78326 7.49856 5.30549L6.93931 6.39083C6.81874 6.62663 6.62692 6.81845 6.39112 6.93902L5.30578 7.49827C4.78355 7.78213 4.33367 8.1824 3.99099 8.66806C3.6483 9.15373 3.42201 9.71175 3.32963 10.2989L3.13511 11.4948C3.09322 11.7559 2.97026 11.9971 2.78364 12.1844L1.92377 13.0598C1.51306 13.4749 1.20518 13.9804 1.02478 14.5358C0.844384 15.0912 0.796464 15.6811 0.884857 16.2583L1.07054 17.463C1.11131 17.7244 1.06877 17.992 0.94896 18.2279L0.398555 19.3198C0.136484 19.8414 0 20.4171 0 21.0009C0 21.5846 0.136484 22.1603 0.398555 22.6819L0.94896 23.7717C1.06863 24.0076 1.11115 24.2751 1.07054 24.5365L0.884857 25.7412C0.796999 26.3181 0.845182 26.9075 1.02556 27.4625C1.20594 28.0174 1.51353 28.5226 1.92377 28.9375L2.78364 29.804C2.97026 29.9914 3.09322 30.2326 3.13511 30.4937L3.32963 31.6984C3.42169 32.286 3.64784 32.8444 3.99054 33.3305C4.33324 33.8166 4.78329 34.2172 5.30578 34.5013L6.39112 35.0605C6.62692 35.1811 6.81874 35.3729 6.93931 35.6087L7.49856 36.694C7.78243 37.2163 8.18269 37.6662 8.66836 38.0088C9.15402 38.3515 9.71205 38.5778 10.2992 38.6702L11.5039 38.8647C11.7649 38.9068 12.0062 39.0297 12.1936 39.2162L13.0601 40.0761C13.4751 40.4863 13.9802 40.7939 14.5351 40.9743C15.0901 41.1547 15.6795 41.2028 16.2564 41.115L17.4633 40.9293C17.7247 40.8885 17.9923 40.9311 18.2281 41.0509L19.3179 41.6013C19.8395 41.8633 20.4152 41.9998 20.999 41.9998C21.5827 41.9998 22.1584 41.8633 22.68 41.6013L23.7698 41.0509C24.0057 40.9312 24.2732 40.8887 24.5346 40.9293L25.7415 41.115C26.3184 41.2028 26.9078 41.1547 27.4628 40.9743C28.0177 40.7939 28.5229 40.4863 28.9378 40.0761L29.8043 39.2162C29.9916 39.0294 30.2329 38.9065 30.494 38.8647L31.6987 38.6702C32.2681 38.5768 32.8082 38.3531 33.2768 38.0164C33.7453 37.6797 34.1297 37.2393 34.3999 36.7294L35.0232 35.6706L35.0586 35.6087C35.1791 35.3728 35.3709 35.181 35.6068 35.0605L36.6921 34.5013C37.2107 34.2336 37.6595 33.8483 38.0026 33.3762C38.3458 32.9041 38.5737 32.3583 38.6683 31.7824L38.8628 30.5777C38.9048 30.3167 39.0278 30.0754 39.2143 29.888L40.0985 28.9176C40.5015 28.503 40.8031 28.0006 40.9795 27.4499C41.1559 26.8992 41.2024 26.3151 41.1153 25.7434L40.9296 24.5365C40.8888 24.2751 40.9314 24.0075 41.0512 23.7717L41.6016 22.6797Z" fill="#060B29"/>
<path d="M21 7C18.2311 7 15.5243 7.82109 13.222 9.35943C10.9197 10.8978 9.12533 13.0843 8.0657 15.6425C7.00607 18.2006 6.72882 21.0156 7.26901 23.7313C7.80921 26.4471 9.14258 28.9416 11.1005 30.8996C13.0585 32.8575 15.553 34.1909 18.2688 34.7311C20.9845 35.2713 23.7995 34.994 26.3576 33.9344C28.9158 32.8748 31.1023 31.0803 32.6407 28.778C34.179 26.4757 35.0001 23.769 35.0001 21C34.9842 17.2919 33.504 13.7402 30.882 11.1181C28.2599 8.49604 24.7082 7.01593 21 7Z" fill="white"/>
<path d="M29.7094 18.8035L27.2097 28.8036C27.1421 29.0738 26.9862 29.3137 26.7667 29.4852C26.5472 29.6566 26.2767 29.7499 25.9981 29.7501H15.9997C15.7211 29.7499 15.4506 29.6566 15.2311 29.4852C15.0116 29.3137 14.8557 29.0738 14.7881 28.8036L12.2862 18.8035C12.2161 18.5188 12.2484 18.2184 12.3774 17.9551C12.5064 17.6917 12.7238 17.4821 12.9917 17.3628C13.2596 17.2436 13.5608 17.2224 13.8428 17.3029C14.1248 17.3833 14.3694 17.5604 14.5341 17.8031C14.8757 18.3067 16.1076 19.75 17.245 19.75C17.4518 19.75 18.0924 19.2689 18.7533 17.7783C19.3539 16.4281 19.694 14.9765 19.7558 13.5C19.7558 13.3359 19.7882 13.1733 19.851 13.0216C19.9138 12.87 20.0058 12.7322 20.1219 12.6161C20.238 12.5 20.3757 12.408 20.5274 12.3452C20.679 12.2823 20.8415 12.25 21.0056 12.25C21.1698 12.25 21.3323 12.2823 21.4839 12.3452C21.6356 12.408 21.7733 12.5 21.8894 12.6161C22.0054 12.7322 22.0975 12.87 22.1603 13.0216C22.2231 13.1733 22.2555 13.3359 22.2555 13.5C22.3146 14.9735 22.6509 16.4227 23.2468 17.7716C23.9076 19.2599 24.5483 19.7433 24.7551 19.7433C25.9217 19.7433 27.1895 18.2078 27.466 17.7963C27.6306 17.5537 27.8753 17.3766 28.1573 17.2961C28.4392 17.2156 28.7405 17.2369 29.0084 17.3561C29.2763 17.4753 29.4937 17.6849 29.6227 17.9483C29.7516 18.2117 29.7839 18.512 29.7139 18.7968L29.7094 18.8035Z" fill="#4B7BE5"/>
</svg>
