<svg xmlns="http://www.w3.org/2000/svg" width="34" height="34" viewBox="0 0 34 34" fill="none">
<g filter="url(#filter0_d)">
<rect x="4" y="2" width="26" height="26" rx="2" fill="#F8F8F8"/>
</g>
<circle cx="17" cy="15" r="8" fill="#4B7BE5"/>
<path d="M16.2773 10.5391H17.4492L17.3496 16.1875H16.377L16.2773 10.5391ZM16.2832 18.877C16.1309 18.7246 16.0547 18.5293 16.0547 18.291C16.0547 18.0527 16.1309 17.8574 16.2832 17.7051C16.4355 17.5488 16.6309 17.4707 16.8691 17.4707C17.1074 17.4707 17.3008 17.5469 17.4492 17.6992C17.6016 17.8516 17.6777 18.0488 17.6777 18.291C17.6777 18.5293 17.6016 18.7246 17.4492 18.877C17.3008 19.0293 17.1074 19.1055 16.8691 19.1055C16.6309 19.1055 16.4355 19.0293 16.2832 18.877Z" fill="white"/>
<defs>
<filter id="filter0_d" x="0" y="0" width="34" height="34" filterUnits="userSpaceOnUse" color-interpolation-filters="sRGB">
<feFlood flood-opacity="0" result="BackgroundImageFix"/>
<feColorMatrix in="SourceAlpha" type="matrix" values="0 0 0 0 0 0 0 0 0 0 0 0 0 0 0 0 0 0 127 0"/>
<feOffset dy="2"/>
<feGaussianBlur stdDeviation="2"/>
<feColorMatrix type="matrix" values="0 0 0 0 0 0 0 0 0 0 0 0 0 0 0 0 0 0 0.08 0"/>
<feBlend mode="normal" in2="BackgroundImageFix" result="effect1_dropShadow"/>
<feBlend mode="normal" in="SourceGraphic" in2="effect1_dropShadow" result="shape"/>
</filter>
</defs>
</svg>
