<svg width="53" height="50" viewBox="0 0 53 50" fill="none" xmlns="http://www.w3.org/2000/svg">
<path d="M49.1594 0.00026667H2.89062C2.14012 -0.00951265 1.41633 0.271573 0.878331 0.781751C0.340332 1.29193 0.0321398 1.98945 0.0214844 2.72103L0.0214844 46.5729C0.0332755 47.304 0.342167 48.0007 0.880355 48.51C1.41854 49.0193 2.14205 49.2996 2.89207 49.2895H49.1594C49.9097 49.2996 50.6334 49.0191 51.1716 48.5095C51.7099 47.9999 52.0186 47.3029 52.03 46.5715V2.71821C52.0186 1.98688 51.7099 1.28986 51.1716 0.780251C50.6334 0.27064 49.9097 -0.0098936 49.1594 0.00026667Z" fill="#4267B2"/>
<path d="M35.9549 49.2904V29.9564H42.6408L43.642 22.3884H35.9534V17.5693C35.9534 15.3837 36.5761 13.8937 39.7919 13.8937H43.8674V7.14394C41.8836 6.93896 39.8899 6.83975 37.8951 6.84678C31.9849 6.84678 27.9398 10.3674 27.9398 16.8201V22.3898H21.2798V29.9578H27.9412V49.2918L35.9549 49.2904Z" fill="white"/>
</svg>
