<svg width="52" height="50" viewBox="0 0 52 50" fill="none" xmlns="http://www.w3.org/2000/svg">
<path d="M51.4975 20.1051H49.4316V20.0009H26.3528V29.9996H40.8444C39.7482 33.0345 37.6804 35.6457 34.9462 37.4481C32.2119 39.2505 28.9558 40.1487 25.6581 40.0101C22.3603 39.8716 19.1956 38.7037 16.6305 36.6787C14.0654 34.6537 12.2358 31.8788 11.4114 28.7632C10.5871 25.6476 10.8117 22.3562 12.0521 19.3745C13.2925 16.3928 15.483 13.8785 18.3006 12.2025C21.1183 10.5265 24.4138 9.77751 27.7013 10.066C30.9888 10.3544 34.0942 11.665 36.5595 13.8046L43.8132 6.73367C39.4996 2.82782 33.9375 0.489539 28.0628 0.112267C22.1881 -0.265005 16.3594 1.34176 11.5575 4.66221C6.75549 7.98265 3.27337 12.8141 1.69703 18.3436C0.120687 23.8731 0.546338 29.7631 2.90236 35.0225C5.25837 40.282 9.40096 44.5899 14.633 47.2213C19.8651 49.8527 25.8674 50.647 31.6298 49.4707C37.3922 48.2943 42.5631 45.219 46.2723 40.7622C49.9816 36.3055 52.0028 30.7393 51.9959 25.0003C51.9941 23.3566 51.8272 21.7171 51.4975 20.1051Z" fill="#FBC02D"/>
<path d="M3.68884 13.4952L12.1763 19.5634C13.102 17.317 14.5688 15.3209 16.4529 13.7438C18.3369 12.1666 20.5828 11.0548 23.0007 10.5023C25.4186 9.94982 27.9374 9.97289 30.3442 10.5696C32.751 11.1662 34.9751 12.319 36.8284 13.9304L44.1313 6.8102C41.2312 4.16576 37.7437 2.21003 33.9407 1.09548C30.1378 -0.0190674 26.1221 -0.262302 22.2069 0.38474C18.2916 1.03178 14.5826 2.55162 11.369 4.82573C8.15538 7.09985 5.52406 10.0668 3.68018 13.4952H3.68884Z" fill="#E53935"/>
<path d="M26.5443 49.9607C32.9497 49.9594 39.1241 47.6277 43.8588 43.4222L35.8697 36.8273C33.9341 38.2578 31.68 39.2236 29.29 39.6464C26.9 40.0691 24.4415 39.9369 22.1137 39.2604C19.786 38.5839 17.6545 37.3822 15.8922 35.7527C14.1298 34.1233 12.7862 32.1119 11.9703 29.8817L3.54492 36.209C5.7045 40.346 8.99581 43.82 13.0549 46.247C17.1139 48.674 21.7825 49.9593 26.5443 49.9607Z" fill="#4CAF50"/>
<path d="M51.4918 19.9285L51.4716 19.8229H25.9932V29.9948H40.6899C39.6659 32.8109 37.8188 35.2733 35.3764 37.0783L43.4247 43.738C46.1636 41.3892 48.3481 38.4899 49.828 35.2396C51.3078 31.9894 52.048 28.4652 51.9974 24.9095C51.9956 23.2371 51.8263 21.5688 51.4918 19.9285Z" fill="#1565C0"/>
</svg>
