<svg width="44" height="50" viewBox="0 0 44 50" fill="none" xmlns="http://www.w3.org/2000/svg">
<path d="M36.1976 26.4489C36.1283 20.2737 41.6975 17.3192 41.9445 17.1699C40.7915 15.7115 39.3195 14.5219 37.6357 13.6876C35.9519 12.8532 34.0985 12.3951 32.2103 12.3466C28.0727 11.9579 24.1201 14.5787 22.0209 14.5787C19.9218 14.5787 16.6756 12.4001 13.2387 12.4564C11.0248 12.4911 8.85558 13.069 6.9313 14.1367C5.00702 15.2044 3.38974 16.7276 2.22881 18.5655C-2.46496 26.0293 1.02539 37.0658 5.59925 43.1214C7.83561 46.0787 10.5112 49.4022 14.003 49.2853C17.3734 49.1614 18.6462 47.287 22.7231 47.287C26.7999 47.287 27.9456 49.2853 31.5082 49.2248C35.1372 49.1614 37.4314 46.2054 39.6489 43.2396C41.2251 41.1204 42.4692 38.7843 43.3401 36.3082C43.2549 36.2687 36.2713 33.8155 36.1976 26.4489Z" fill="#9E9E9E"/>
<path d="M29.4813 8.15268C31.4581 5.89247 32.4376 2.96181 32.2059 0.000244141C29.2219 0.279823 26.4612 1.66319 24.4913 3.86593C23.5095 4.93366 22.7578 6.18282 22.2808 7.53925C21.8038 8.89568 21.6113 10.3317 21.7147 11.7621C23.2067 11.7826 24.6835 11.4677 26.0305 10.8417C27.3774 10.2158 28.5583 9.2956 29.4813 8.15268Z" fill="#9E9E9E"/>
</svg>
