<svg width="22" height="20" viewBox="0 0 22 20" fill="none" xmlns="http://www.w3.org/2000/svg">
<path d="M19.5391 6.48647H13.6886V2.45399C13.6878 1.8034 13.4283 1.17971 12.9668 0.719607C12.5056 0.2595 11.88 0.000823679 11.2276 0H2.46103C1.80862 0.000804364 1.18302 0.259492 0.721793 0.719607C0.260398 1.17971 0.000832544 1.8034 6.55943e-06 2.45399V7.92074C-0.00112273 8.4061 0.143587 8.88053 0.415559 9.28286C1.28284 10.9478 5.28308 13.4091 5.32645 13.4342C5.41179 13.485 5.50907 13.5124 5.60828 13.5135C5.78881 13.5148 5.95804 13.4258 6.05902 13.2765C6.16001 13.1274 6.17937 12.9376 6.11065 12.7712C5.82043 11.991 5.59569 11.1884 5.43842 10.3711H8.31128V14.4072C8.31224 15.0574 8.57182 15.6808 9.03335 16.1403C9.49475 16.5997 10.1202 16.8578 10.7723 16.8576H16.5616C16.4043 17.6749 16.1796 18.4775 15.8894 19.2577C15.8206 19.424 15.84 19.6139 15.941 19.763C16.042 19.9123 16.2112 20.0013 16.3917 20C16.4909 19.9989 16.5882 19.9715 16.6735 19.9207C16.7169 19.8954 20.7173 17.4342 21.5844 15.7693C21.8564 15.367 22.0012 14.8926 22 14.4072V8.94046C21.9992 8.28987 21.7396 7.66619 21.2782 7.20608C20.817 6.74597 20.1915 6.48729 19.5391 6.48647ZM6.9201 7.84134C6.22384 8.2424 5.42928 8.44205 4.62544 8.41792H4.61463C4.31537 8.41792 4.07258 8.17596 4.07258 7.87738C4.07258 7.57895 4.31537 7.33684 4.61463 7.33684H4.62544C5.10393 7.34762 5.57965 7.26187 6.02395 7.08458C5.66016 6.65553 5.37415 6.16647 5.17843 5.63961C5.07067 5.36097 5.20973 5.04792 5.48914 4.94043C5.76856 4.83296 6.08249 4.9718 6.19028 5.25043C6.35096 5.69703 6.59908 6.10743 6.92012 6.45761C7.36281 5.92222 7.63914 5.2697 7.71513 4.58004H4.61463C4.31537 4.58004 4.07258 4.33808 4.07258 4.0395C4.07258 3.74108 4.31537 3.49896 4.61463 3.49896H6.31661L6.31678 2.55123C6.31678 2.25281 6.55941 2.01069 6.85883 2.01069C7.15809 2.01069 7.40088 2.25281 7.40088 2.55123V3.49896H9.09931C9.39857 3.49896 9.64136 3.74108 9.64136 4.0395C9.64136 4.33808 9.39857 4.58004 9.09931 4.58004H8.80651C8.72552 5.49572 8.37753 6.3675 7.8055 7.08822C8.15815 7.23767 8.53567 7.32085 8.91863 7.33323C8.65761 7.62731 8.47384 7.98155 8.38369 8.36378C7.86517 8.29123 7.36717 8.1134 6.9201 7.84134ZM20.916 14.4073C20.9189 14.6863 20.8328 14.9588 20.6701 15.1858C20.6487 15.216 20.6305 15.2487 20.6159 15.2829C20.1896 16.0902 18.5887 17.319 17.3744 18.1623C17.6166 17.2326 17.7394 16.4506 17.7466 16.4C17.7708 16.245 17.7261 16.087 17.6238 15.9676C17.5201 15.8484 17.3702 15.7789 17.212 15.7766H10.7722C10.4076 15.777 10.0577 15.6328 9.79956 15.3761C9.54144 15.1193 9.39608 14.7709 9.39527 14.4073V8.94055C9.39576 8.57665 9.54095 8.22769 9.79907 7.97029C10.0572 7.71289 10.4071 7.56811 10.7722 7.56762H19.5387C19.9038 7.56811 20.2537 7.71289 20.5118 7.97029C20.77 8.22769 20.9151 8.57664 20.9156 8.94055L20.916 14.4073Z" fill="white"/>
</svg>
