<svg width="52" height="52" viewBox="0 0 52 52" fill="none" xmlns="http://www.w3.org/2000/svg">
<path d="M40.3284 0H11.6716C5.22557 0 0 5.22557 0 11.6716V40.3284C0 46.7744 5.22557 52 11.6716 52H40.3284C46.7744 52 52 46.7744 52 40.3284V11.6716C52 5.22557 46.7744 0 40.3284 0Z" fill="url(#paint0_linear)"/>
<path d="M18.0119 9.00586H34.2225C34.5827 9.18598 35.1231 9.18598 35.4833 9.36609C37.0641 9.62228 38.5421 10.3143 39.7512 11.3643C40.9603 12.4143 41.8526 13.7807 42.3278 15.31C42.5938 16.1912 42.7747 17.096 42.8681 18.0117V33.8621C42.6106 35.8709 41.8689 37.7871 40.7067 39.4458C39.7097 40.6009 38.4598 41.5106 37.054 42.1041C35.6483 42.6977 34.1246 42.9591 32.6014 42.868H19.0926C16.6818 42.985 14.3115 42.2163 12.4282 40.7066C11.2831 39.7171 10.3793 38.4789 9.78618 37.0865C9.19303 35.6942 8.92617 34.1846 9.00601 32.6733V20.0651C8.97625 19.1608 9.03659 18.2557 9.18612 17.3633C9.36801 15.5167 10.1273 13.7744 11.356 12.384C12.5847 10.9936 14.2204 10.0259 16.0306 9.61826L18.0119 9.00586ZM12.4282 26.117V33.1416C12.3514 34.0362 12.4711 34.9367 12.7789 35.7801C13.0866 36.6235 13.575 37.3895 14.2099 38.0243C14.8448 38.6592 15.6107 39.1476 16.4541 39.4554C17.2976 39.7631 18.1981 39.8828 19.0926 39.806C23.7757 39.9861 28.4587 39.9861 33.1418 39.806C37.2845 39.806 39.626 37.2843 39.8061 33.1416C39.9863 28.4586 39.9863 23.7755 39.8061 19.0925C39.8528 18.205 39.7124 17.3176 39.394 16.4879C39.0756 15.6582 38.5863 14.9047 37.9579 14.2763C37.3295 13.6479 36.576 13.1587 35.7463 12.8403C34.9166 12.5218 34.0293 12.3814 33.1418 12.4281C28.4587 12.248 23.7757 12.248 19.0926 12.4281C18.1981 12.3513 17.2976 12.471 16.4541 12.7787C15.6107 13.0865 14.8448 13.5749 14.2099 14.2098C13.575 14.8446 13.0866 15.6106 12.7789 16.454C12.4711 17.2974 12.3514 18.1979 12.4282 19.0925V26.117Z" fill="white"/>
<path d="M17.3633 26.1881C17.368 23.8488 18.2994 21.6067 19.9535 19.9526C21.6077 18.2984 23.8498 17.3671 26.1891 17.3623C28.5154 17.4084 30.7336 18.353 32.3788 19.9983C34.0241 21.6436 34.9687 23.8618 35.0148 26.1881C35.0101 28.5274 34.0787 30.7695 32.4246 32.4236C30.7704 34.0777 28.5283 35.0091 26.1891 35.0138C23.8627 34.9678 21.6445 34.0231 19.9993 32.3778C18.354 30.7326 17.4094 28.5144 17.3633 26.1881ZM26.1891 20.6044C25.0951 20.5866 24.0207 20.8959 23.1036 21.4927C22.1865 22.0894 21.4685 22.9464 21.0416 23.9538C20.6146 24.9612 20.4983 26.0731 20.7074 27.1471C20.9165 28.2211 21.4415 29.2082 22.2152 29.9818C22.9888 30.7555 23.9759 31.2805 25.0499 31.4896C26.1239 31.6987 27.2358 31.5824 28.2432 31.1554C29.2506 30.7285 30.1076 30.0105 30.7044 29.0934C31.3011 28.1763 31.6104 27.102 31.5926 26.008C31.5926 24.5749 31.0233 23.2004 30.0099 22.1871C28.9966 21.1737 27.6222 20.6044 26.1891 20.6044Z" fill="white"/>
<path d="M33.0335 17.0035C33.0235 16.717 33.0725 16.4314 33.1775 16.1646C33.2826 15.8978 33.4414 15.6555 33.6442 15.4528C33.8469 15.25 34.0892 15.0912 34.356 14.9861C34.6228 14.8811 34.9084 14.832 35.1949 14.8421C35.7557 14.88 36.2837 15.1199 36.6811 15.5174C37.0785 15.9148 37.3184 16.4428 37.3563 17.0035C37.3563 17.5768 37.1286 18.1265 36.7233 18.5319C36.3179 18.9372 35.7682 19.1649 35.1949 19.1649C34.6217 19.1649 34.0719 18.9372 33.6666 18.5319C33.2612 18.1265 33.0335 17.5768 33.0335 17.0035Z" fill="white"/>
<defs>
<linearGradient id="paint0_linear" x1="-3.31417" y1="54.8819" x2="57.9259" y2="-5.45757" gradientUnits="userSpaceOnUse">
<stop stop-color="#FED576"/>
<stop offset="0.26" stop-color="#F47133"/>
<stop offset="0.61" stop-color="#BC3081"/>
<stop offset="1" stop-color="#4C63D2"/>
</linearGradient>
</defs>
</svg>
