<svg width="52" height="52" viewBox="0 0 52 52" fill="none" xmlns="http://www.w3.org/2000/svg">
<path d="M26.1158 0C20.1149 0.00285153 14.2978 2.05863 9.6422 5.82185C4.98661 9.58507 1.77628 14.8263 0.550726 20.6648C-0.674829 26.5033 0.159097 32.5832 2.91235 37.8826C5.66561 43.182 10.1704 47.378 15.6696 49.7654C15.5568 47.7554 15.708 45.7394 16.1196 43.7683C16.6599 41.6245 19.4533 29.6265 19.4533 29.6265C18.907 28.3223 18.6312 26.9219 18.6425 25.5093C18.6425 21.66 20.8976 18.796 23.6861 18.796C26.0276 18.796 27.1983 20.5861 27.1983 22.7339C27.1983 25.061 25.6677 28.6413 24.8568 31.9526C24.6984 32.5647 24.6874 33.2053 24.8249 33.8224C24.9623 34.4395 25.2443 35.0157 25.6479 35.5041C26.0516 35.9925 26.5654 36.3794 27.1478 36.6333C27.7301 36.8872 28.3645 37.001 28.9994 36.9654C33.9529 36.9654 37.2846 30.6107 37.2846 23.1812C37.2846 17.4532 33.4117 13.2414 26.3874 13.2414C24.7088 13.1776 23.0347 13.4532 21.4665 14.0516C19.8983 14.65 18.4687 15.5587 17.2644 16.7225C16.0601 17.8864 15.1061 19.2812 14.4604 20.8224C13.8146 22.3637 13.4904 24.0192 13.5076 25.6886C13.4183 27.5429 14.0288 29.3636 15.2196 30.7939C15.4227 30.9654 15.5666 31.1958 15.6312 31.4527C15.6957 31.7097 15.6776 31.9803 15.5794 32.2265C15.4892 32.6737 15.1293 33.8373 15.0391 34.2846C15.0108 34.4261 14.9493 34.559 14.8597 34.6725C14.7701 34.7861 14.6548 34.877 14.5233 34.938C14.3917 34.999 14.2475 35.0284 14.1024 35.0237C13.9573 35.0191 13.8153 34.9805 13.688 34.9112C9.99547 33.3861 8.37765 29.4472 8.37765 24.9723C8.37765 17.6325 14.5891 8.77043 27.0169 8.77043C37.0179 8.77043 43.5873 15.931 43.5873 23.6285C43.5873 33.8324 37.9131 41.4403 29.5377 41.4403C26.7463 41.4403 24.047 39.9191 23.1439 38.2176C23.1439 38.2176 21.6134 44.2147 21.3427 45.3782C20.748 47.3444 19.8681 49.214 18.7307 50.9279C21.1254 51.6466 23.6143 52.0079 26.1158 51.9999C33.0059 51.9273 39.5889 49.156 44.4353 44.288C49.2816 39.4199 52 32.8482 52 25.9999C52 19.1517 49.2816 12.58 44.4353 7.71191C39.5889 2.84386 33.0059 0.0726147 26.1158 0" fill="#CB1F24"/>
</svg>
