<svg width="206" height="140" viewBox="0 0 206 140" fill="none" xmlns="http://www.w3.org/2000/svg">
<path d="M87 85.474C87 88.009 89.0547 90.0723 91.5792 90.0723C94.1037 90.0723 96.1585 88.009 96.1585 85.474C96.1585 82.9391 94.1037 80.8758 91.5792 80.8758C89.0547 80.8758 87 82.9391 87 85.474ZM95.1372 85.474C95.1372 87.445 93.542 89.0468 91.5792 89.0468C89.6164 89.0468 88.0212 87.445 88.0212 85.474C88.0212 83.5031 89.6164 81.9013 91.5792 81.9013C93.542 81.9013 95.1372 83.5051 95.1372 85.474Z" fill="#4B7BE5"/>
<path opacity="0.5" d="M120.13 54.463L121.601 51.6573L118.488 52.1926L116.284 49.9243L115.829 53.0602L113 54.4651L115.829 55.87L116.284 59.0059L118.488 56.7375L121.601 57.2728L120.13 54.463ZM116.997 56.8011L116.762 55.187L115.306 54.463L116.762 53.739L116.997 52.1249L118.133 53.2919L119.734 53.0171L118.978 54.461L119.734 55.9048L118.133 55.63L116.997 56.8011Z" fill="#212121"/>
<path d="M-3.43808e-07 115.834L5.67196 117.684L5.67196 123.671L9.17889 118.831L14.8468 120.679L11.3419 115.834L14.8468 110.992L9.17888 112.84L5.67196 108L5.67196 113.986L-3.43808e-07 115.834ZM8.78877 114.046L12.1752 112.942L10.0837 115.834L12.1752 118.728L8.78877 117.625L6.69524 120.519L6.69524 116.94L3.30881 115.834L6.69524 114.731L6.69524 111.152L8.78877 114.046Z" fill="#4B7BE5"/>
<path d="M120.971 136.894C119.488 137.955 117.881 138.83 116.185 139.501C115.741 139.674 115.294 139.843 114.84 139.993H91.6529C91.559 139.831 91.4676 139.666 91.3736 139.501C89.4925 136.139 87.7872 132.646 87.3026 128.848C86.7223 124.288 88.3466 119.125 92.3707 116.884C92.8974 116.591 93.4555 116.358 94.0343 116.189C94.2736 116.116 94.5181 116.056 94.7652 116.004C96.2729 115.67 97.8426 115.743 99.3127 116.216C100.783 116.688 102.1 117.543 103.13 118.693C104.159 119.843 104.863 121.245 105.17 122.757C105.476 124.268 105.373 125.834 104.873 127.292C108.282 123.803 107.645 118.143 106.47 113.414C105.296 108.685 103.866 103.424 106.263 99.1668C106.941 98.0279 107.853 97.0451 108.939 96.283C110.025 95.5209 111.259 94.9968 112.562 94.745C112.644 94.7277 112.725 94.7103 112.804 94.6955C115.936 94.0623 119.191 94.6318 121.921 96.2905C126.946 99.45 129.526 105.447 130.361 111.319C131.715 120.768 128.727 131.311 120.971 136.894Z" fill="#DEDEDE"/>
<path d="M96.5456 119.017C98.4021 122.78 98.9943 127.041 98.2344 131.166C97.6617 134.193 96.3982 137.046 94.5418 139.506C94.4157 139.674 94.2878 139.839 94.1564 139.999H93.2402C93.3812 139.839 93.5195 139.674 93.65 139.506C96.3152 136.221 97.7982 132.138 97.8613 127.91C97.9244 123.683 96.5639 119.558 93.998 116.195C94.2373 116.121 94.4818 116.062 94.7289 116.01C95.424 116.958 96.0329 117.966 96.5482 119.022L96.5456 119.017Z" fill="white"/>
<path d="M118.767 121.746C118.569 123.83 118.067 125.874 117.278 127.814C116.551 129.531 115.571 131.129 114.371 132.556C111.875 135.474 108.714 137.75 105.153 139.192C104.896 139.3 104.637 139.403 104.375 139.502C103.921 139.675 103.462 139.841 103.001 139.994H100.5C101.09 139.847 101.677 139.682 102.258 139.502C103.637 139.073 104.982 138.544 106.283 137.917C109.591 136.352 112.462 134 114.646 131.067C116.892 127.809 118.128 123.964 118.202 120.01C118.337 115.76 117.89 111.511 116.874 107.381C115.889 103.17 114.391 99.0947 112.413 95.2474C112.369 95.1603 112.359 95.0595 112.387 94.9658C112.415 94.8722 112.479 94.7929 112.563 94.7444C112.635 94.6972 112.721 94.6795 112.805 94.6949C112.847 94.7054 112.885 94.7251 112.917 94.7525C112.95 94.7799 112.976 94.8142 112.993 94.853C113.238 95.329 113.477 95.8086 113.707 96.2846C115.624 100.292 117.036 104.52 117.911 108.874C118.84 113.098 119.129 117.437 118.767 121.746Z" fill="white"/>
<path d="M15.3677 70.4406C13.3172 70.4406 11.3127 69.8335 9.60774 68.6961C7.90277 67.5586 6.57391 65.9419 5.7892 64.0504C5.00449 62.1588 4.79918 60.0775 5.19922 58.0695C5.59926 56.0614 6.58669 54.2169 8.03665 52.7692C9.4866 51.3215 11.334 50.3356 13.3451 49.9362C15.3562 49.5368 17.4409 49.7418 19.3353 50.5253C21.2298 51.3088 22.849 52.6356 23.9882 54.3379C25.1274 56.0402 25.7355 58.0416 25.7355 60.089C25.7355 62.8344 24.6432 65.4674 22.6988 67.4087C20.7545 69.35 18.1174 70.4406 15.3677 70.4406ZM15.3677 50.2299C13.4148 50.2299 11.5057 50.8081 9.88182 51.8914C8.25799 52.9748 6.99235 54.5145 6.24498 56.3161C5.49761 58.1176 5.30206 60.0999 5.68307 62.0124C6.06408 63.9248 7.00452 65.6816 8.38548 67.0604C9.76644 68.4392 11.5259 69.3782 13.4413 69.7586C15.3568 70.139 17.3422 69.9438 19.1465 69.1976C20.9508 68.4514 22.493 67.1877 23.578 65.5664C24.663 63.9451 25.2421 62.0389 25.2421 60.089C25.2421 57.4742 24.2018 54.9665 22.35 53.1175C20.4982 51.2686 17.9866 50.2299 15.3677 50.2299Z" fill="#E0E0E0" stroke="#E0E0E0" stroke-width="0.5"/>
<path d="M57.4605 37.4777C55.41 37.4777 53.4055 36.8706 51.7005 35.7332C49.9955 34.5957 48.6667 32.979 47.882 31.0875C47.0973 29.196 46.8919 27.1146 47.292 25.1066C47.692 23.0986 48.6795 21.2541 50.1294 19.8063C51.5794 18.3586 53.4267 17.3727 55.4379 16.9733C57.449 16.5739 59.5336 16.7789 61.4281 17.5624C63.3225 18.3459 64.9417 19.6727 66.081 21.375C67.2202 23.0773 67.8282 25.0787 67.8282 27.1261C67.8282 29.8715 66.7359 32.5045 64.7916 34.4458C62.8473 36.3871 60.2102 37.4777 57.4605 37.4777ZM57.4605 17.267C55.5075 17.267 53.5984 17.8452 51.9746 18.9285C50.3507 20.0119 49.0851 21.5517 48.3378 23.3532C47.5904 25.1547 47.3948 27.137 47.7759 29.0495C48.1569 30.962 49.0973 32.7187 50.4782 34.0975C51.8592 35.4763 53.6187 36.4153 55.5341 36.7957C57.4496 37.1762 59.435 36.9809 61.2393 36.2347C63.0436 35.4885 64.5858 34.2248 65.6708 32.6035C66.7558 30.9822 67.3349 29.076 67.3349 27.1261C67.3349 24.5113 66.2946 22.0036 64.4428 20.1547C62.591 18.3057 60.0794 17.267 57.4605 17.267Z" fill="#E0E0E0" stroke="#E0E0E0" stroke-width="0.5"/>
<path d="M102.524 21.7033C100.473 21.7033 98.4689 21.0962 96.764 19.9588C95.059 18.8213 93.7301 17.2046 92.9454 15.3131C92.1607 13.4216 91.9554 11.3402 92.3555 9.33216C92.7555 7.32414 93.7429 5.47964 95.1929 4.03193C96.6428 2.58423 98.4902 1.59833 100.501 1.19891C102.512 0.799485 104.597 1.00449 106.492 1.78799C108.386 2.57148 110.005 3.89827 111.144 5.60059C112.284 7.30291 112.892 9.3043 112.892 11.3517C112.892 14.0971 111.799 16.7301 109.855 18.6714C107.911 20.6127 105.274 21.7033 102.524 21.7033ZM102.524 1.49257C100.571 1.49257 98.6619 2.07079 97.038 3.15412C95.4142 4.23745 94.1486 5.77724 93.4012 7.57875C92.6538 9.38027 92.4583 11.3626 92.8393 13.2751C93.2203 15.1876 94.1608 16.9443 95.5417 18.3231C96.9227 19.7019 98.6821 20.6409 100.598 21.0213C102.513 21.4017 104.498 21.2065 106.303 20.4603C108.107 19.7141 109.649 18.4504 110.734 16.8291C111.819 15.2078 112.398 13.3016 112.398 11.3517C112.398 8.73687 111.358 6.22918 109.506 4.38024C107.654 2.5313 105.143 1.49257 102.524 1.49257Z" fill="#E0E0E0" stroke="#E0E0E0" stroke-width="0.5"/>
<path d="M150.559 37.9699C148.509 37.9699 146.504 37.3628 144.799 36.2254C143.094 35.0879 141.765 33.4712 140.981 31.5797C140.196 29.6882 139.991 27.6068 140.391 25.5988C140.791 23.5907 141.778 21.7462 143.228 20.2985C144.678 18.8508 146.525 17.8649 148.536 17.4655C150.548 17.0661 152.632 17.2711 154.527 18.0546C156.421 18.8381 158.04 20.1649 159.18 21.8672C160.319 23.5695 160.927 25.5709 160.927 27.6183C160.927 28.9777 160.659 30.3238 160.138 31.5797C159.617 32.8356 158.853 33.9768 157.89 34.938C156.928 35.8992 155.785 36.6617 154.527 37.182C153.269 37.7022 151.921 37.9699 150.559 37.9699ZM150.559 17.7592C148.606 17.7592 146.697 18.3374 145.073 19.4207C143.449 20.5041 142.184 22.0438 141.436 23.8454C140.689 25.6469 140.493 27.6292 140.874 29.5417C141.255 31.4542 142.196 33.2109 143.577 34.5897C144.958 35.9685 146.717 36.9075 148.633 37.2879C150.548 37.6683 152.534 37.4731 154.338 36.7269C156.142 35.9807 157.684 34.717 158.769 33.0957C159.854 31.4744 160.434 29.5682 160.434 27.6183C160.434 25.0035 159.393 22.4958 157.541 20.6468C155.69 18.7979 153.178 17.7592 150.559 17.7592Z" fill="#E0E0E0" stroke="#E0E0E0" stroke-width="0.5"/>
<path d="M194.632 62.6037C192.582 62.6037 190.577 61.9966 188.872 60.8591C187.167 59.7217 185.839 58.105 185.054 56.2135C184.269 54.3219 184.064 52.2406 184.464 50.2325C184.864 48.2245 185.851 46.38 187.301 44.9323C188.751 43.4846 190.599 42.4987 192.61 42.0993C194.621 41.6999 196.705 41.9049 198.6 42.6884C200.494 43.4718 202.114 44.7987 203.253 46.501C204.392 48.2033 205 50.2047 205 52.252C205 54.9975 203.908 57.6305 201.963 59.5718C200.019 61.5131 197.382 62.6037 194.632 62.6037ZM194.632 42.3929C192.679 42.3929 190.77 42.9712 189.146 44.0545C187.523 45.1378 186.257 46.6776 185.51 48.4791C184.762 50.2807 184.567 52.263 184.948 54.1755C185.329 56.0879 186.269 57.8447 187.65 59.2235C189.031 60.6023 190.791 61.5413 192.706 61.9217C194.621 62.3021 196.607 62.1069 198.411 61.3607C200.215 60.6145 201.758 59.3508 202.843 57.7295C203.928 56.1081 204.507 54.202 204.507 52.252C204.507 49.6372 203.466 47.1296 201.615 45.2806C199.763 43.4317 197.251 42.3929 194.632 42.3929Z" fill="#E0E0E0" stroke="#E0E0E0" stroke-width="0.5"/>
<path d="M63.3933 24.1659L64.6279 23.9192C64.2481 24.3606 63.8354 24.7726 63.3933 25.1519C63.3749 25.398 63.3749 25.6451 63.3933 25.8912C61.0233 36.0457 52.2852 31.5605 52.2852 31.5605C55.4696 31.6343 55.7411 30.3277 55.7411 30.3277C55.2697 30.3129 54.8119 30.1667 54.4194 29.9058C54.0269 29.6448 53.7153 29.2794 53.5198 28.8509C53.6859 28.9384 53.8786 28.9615 54.0608 28.916C54.243 28.8705 54.402 28.7595 54.5073 28.6042C53.9641 28.4811 53.4863 28.1605 53.1669 27.7049C52.8475 27.2494 52.7093 26.6914 52.7793 26.1397C53.1357 26.3965 53.5521 26.5577 53.9888 26.6079C53.7669 26.3369 51.8901 24.0938 53.0264 22.9358C53.5838 23.7529 54.3302 24.4238 55.2025 24.8915C56.0747 25.3593 57.0471 25.6101 58.0372 25.6228L58.2843 25.5733C58.2423 25.3958 58.2256 25.2133 58.2347 25.0312C58.2346 24.6911 58.3016 24.3543 58.4319 24.0401C58.5622 23.726 58.7533 23.4405 58.9941 23.2001C59.235 22.9596 59.521 22.769 59.8357 22.639C60.1504 22.509 60.4878 22.4422 60.8284 22.4424C62.5563 22.4424 62.927 23.4284 62.927 23.4284L64.1616 22.6891C64.1355 22.6865 64.0128 23.9192 63.3933 24.1659Z" fill="#55ACEE"/>
<path d="M142.477 133.249L145.194 134.579L151.625 124.747L147.614 122.783L142.477 133.249Z" fill="#FFB8B8"/>
<path d="M142.213 132.026L147.565 134.646C148.013 134.865 148.413 135.17 148.743 135.543C149.073 135.917 149.326 136.352 149.487 136.823C149.649 137.294 149.716 137.792 149.685 138.289C149.653 138.786 149.524 139.272 149.305 139.72L149.251 139.83L140.488 135.541L142.213 132.026Z" fill="#4B7BE5"/>
<path d="M169.558 137.886H172.584L174.024 126.231H169.557L169.558 137.886Z" fill="#FFB8B8"/>
<path d="M168.785 135.914H174.745C175.752 135.914 176.718 136.314 177.431 137.025C178.143 137.736 178.543 138.7 178.543 139.706V139.829H168.785V135.914Z" fill="#4B7BE5"/>
<path d="M162.953 57.9356C166.302 57.9356 169.016 55.2254 169.016 51.8823C169.016 48.5392 166.302 45.8291 162.953 45.8291C159.605 45.8291 156.891 48.5392 156.891 51.8823C156.891 55.2254 159.605 57.9356 162.953 57.9356Z" fill="#FFB8B8"/>
<path d="M169.094 134.041C168.808 134.041 168.533 133.93 168.327 133.733C168.12 133.535 167.998 133.266 167.986 132.981L165.642 101.836C165.638 101.755 165.608 101.678 165.556 101.616C165.504 101.554 165.433 101.51 165.354 101.492C165.276 101.474 165.193 101.482 165.119 101.515C165.045 101.549 164.984 101.605 164.946 101.676L149.953 130.257C149.817 130.513 149.587 130.706 149.311 130.795C149.035 130.884 148.735 130.863 148.474 130.735L144.298 128.65C144.036 128.518 143.836 128.289 143.743 128.011C143.649 127.733 143.669 127.43 143.799 127.167L152.745 109.068L158.67 95.5109C160.957 91.0127 163.386 88.6949 166.094 88.4248C168.873 88.1476 171.841 90.0554 175.169 94.2582L175.196 94.293V94.3364L174.703 132.381C174.703 132.657 174.6 132.924 174.414 133.128C174.227 133.332 173.971 133.459 173.695 133.484L169.209 134.042C169.17 134.042 169.132 134.041 169.094 134.041Z" fill="#212121"/>
<path d="M156.527 97.9798C156.857 97.7766 157.139 97.5036 157.351 97.18C157.564 96.8565 157.703 96.4903 157.759 96.1072C157.815 95.7242 157.786 95.3336 157.674 94.9629C157.562 94.5923 157.37 94.2506 157.112 93.962L158.027 69.8438L153.583 70.3963L153.208 93.8604C152.75 94.3257 152.48 94.9425 152.448 95.5939C152.415 96.2452 152.624 96.8857 153.033 97.3939C153.442 97.902 154.025 98.2423 154.669 98.3504C155.313 98.4584 155.974 98.3265 156.527 97.9798Z" fill="#FFB8B8"/>
<path d="M159.344 74.211L153.377 73.5343C153.207 73.5149 153.043 73.4593 152.897 73.3712C152.751 73.2831 152.625 73.1645 152.529 73.0237C152.433 72.8828 152.368 72.7229 152.339 72.5548C152.311 72.3867 152.318 72.2144 152.362 72.0496L153.903 66.2726C153.933 65.8267 154.054 65.3915 154.258 64.9934C154.461 64.5954 154.744 64.2428 155.088 63.9571C155.432 63.6713 155.831 63.4583 156.26 63.331C156.689 63.2037 157.14 63.1648 157.585 63.2165C158.029 63.2683 158.459 63.4097 158.847 63.6321C159.235 63.8545 159.574 64.1534 159.844 64.5106C160.113 64.8677 160.306 65.2758 160.413 65.7099C160.52 66.1441 160.537 66.5953 160.463 67.0362L160.667 72.9913C160.672 73.1615 160.641 73.3308 160.575 73.4878C160.508 73.6447 160.409 73.7856 160.284 73.901C160.158 74.0163 160.01 74.1034 159.848 74.1563C159.685 74.2092 159.514 74.2266 159.344 74.2075L159.344 74.211Z" fill="#FED538"/>
<path d="M185.172 59.0568C185.142 59.1897 185.122 59.3248 185.113 59.4608L174.508 65.5688L171.931 64.0876L169.184 67.6789L173.491 70.7446C173.839 70.9922 174.258 71.1205 174.685 71.1101C175.113 71.0998 175.525 70.9514 175.86 70.6873L186.796 62.0739C187.289 62.2562 187.826 62.2842 188.336 62.1541C188.846 62.024 189.304 61.7421 189.649 61.3458C189.995 60.9495 190.211 60.4576 190.27 59.9355C190.328 59.4134 190.226 58.8859 189.977 58.4232C189.728 57.9604 189.344 57.5843 188.875 57.3449C188.407 57.1054 187.877 57.014 187.355 57.0828C186.834 57.1516 186.345 57.3773 185.955 57.73C185.565 58.0826 185.292 58.5454 185.172 59.0568Z" fill="#FFB8B8"/>
<path d="M174.067 65.8469L170.64 70.2817C170.542 70.4078 170.419 70.5115 170.278 70.5856C170.136 70.6598 169.981 70.7027 169.821 70.7114C169.662 70.7201 169.503 70.6945 169.354 70.6362C169.206 70.578 169.071 70.4884 168.961 70.3738L165.081 66.3507C164.454 65.8432 164.052 65.1107 163.96 64.3103C163.867 63.5099 164.093 62.7053 164.588 62.069C165.083 61.4326 165.808 61.0153 166.607 60.9063C167.407 60.7973 168.217 61.0054 168.865 61.4859L173.731 64.2024C173.87 64.2803 173.991 64.3872 174.085 64.5159C174.18 64.6446 174.245 64.792 174.277 64.9481C174.309 65.1042 174.307 65.2654 174.271 65.4206C174.235 65.5759 174.165 65.7216 174.068 65.8477L174.067 65.8469Z" fill="#4B7BE5"/>
<path d="M176.951 96.4557L170.371 64.4555C170.058 62.9349 169.168 61.5944 167.886 60.7158C166.604 59.8371 165.031 59.4887 163.498 59.7436L161.303 60.1084C159.764 60.3645 158.389 61.2208 157.482 62.4887C156.768 63.4864 156.288 64.6309 156.075 65.8384C155.863 67.0459 155.924 68.2855 156.254 69.4663L159.886 82.4441L157.189 96.3479C157.159 96.5021 157.166 96.6612 157.21 96.812C157.254 96.9628 157.334 97.1008 157.442 97.2146C157.551 97.3285 157.685 97.4148 157.833 97.4663C157.982 97.5179 158.141 97.5333 158.296 97.5112C159.646 97.3183 161.87 97.0429 164.424 96.8935L165.809 91.563L166.371 96.8084C169.511 96.6527 172.658 96.9201 175.726 97.6032C175.889 97.6465 176.06 97.6477 176.223 97.6066C176.386 97.5654 176.536 97.4834 176.659 97.3682C176.781 97.253 176.872 97.1085 176.923 96.9483C176.974 96.7882 176.983 96.6177 176.95 96.4531L176.951 96.4557Z" fill="#4B7BE5"/>
<path d="M165.284 50.5099C166.843 51.575 168.889 52.6696 170.48 51.5359C170.978 51.1574 171.34 50.6281 171.511 50.0273C171.683 49.4264 171.655 48.7862 171.431 48.2026C170.669 46.0308 168.576 45.0683 166.573 44.3342C163.97 43.3786 161.136 42.6203 158.448 43.3039C155.761 43.9876 153.386 46.5851 153.872 49.3111C154.261 51.5029 156.333 53.3272 156.039 55.5346C155.743 57.7559 153.241 58.9226 151.033 59.3223C148.824 59.7219 146.353 59.8435 144.768 61.4306C142.744 63.4513 143.249 67.0634 145.154 69.197C147.06 71.3306 149.935 72.2974 152.724 72.9551C156.416 73.8238 160.408 74.2842 163.915 72.8387C167.421 71.3931 170.15 67.5012 169.135 63.8526C168.601 62.3401 167.781 60.944 166.719 59.7401C165.657 58.5352 164.86 57.1211 164.38 55.5894C164.209 54.9427 164.19 54.265 164.326 53.6099C164.462 52.9548 164.749 52.3403 165.163 51.8148C165.32 51.6446 165.419 51.4293 165.445 51.1997C165.471 50.9701 165.424 50.7381 165.31 50.5369L165.284 50.5099Z" fill="#212121"/>
<path d="M105.35 6.23191C106.042 6.23191 106.706 6.50649 107.196 6.99524C107.685 7.48399 107.96 8.14688 107.96 8.83807V14.0426C107.96 14.7338 107.685 15.3967 107.196 15.8854C106.706 16.3742 106.042 16.6487 105.35 16.6487H100.137C99.4451 16.6487 98.7812 16.3742 98.2917 15.8854C97.8022 15.3967 97.5271 14.7338 97.5271 14.0426V8.83807C97.5271 8.14688 97.8022 7.48399 98.2917 6.99524C98.7812 6.50649 99.4451 6.23191 100.137 6.23191H105.35ZM105.35 5.18945H100.137C99.1704 5.1922 98.2438 5.57694 97.5601 6.25962C96.8764 6.94229 96.491 7.86742 96.4883 8.83286V14.0374C96.491 15.0028 96.8764 15.9279 97.5601 16.6106C98.2438 17.2933 99.1704 17.678 100.137 17.6808H105.35C106.317 17.678 107.243 17.2933 107.927 16.6106C108.611 15.9279 108.996 15.0028 108.999 14.0374V8.83286C108.996 7.86742 108.611 6.94229 107.927 6.25962C107.243 5.57694 106.317 5.1922 105.35 5.18945Z" fill="#ED4A61"/>
<path d="M106.14 8.83322C105.986 8.83322 105.834 8.78737 105.705 8.70146C105.577 8.61555 105.476 8.49344 105.417 8.35057C105.358 8.20771 105.342 8.05051 105.372 7.89885C105.403 7.74718 105.477 7.60787 105.587 7.49853C105.696 7.38918 105.836 7.31472 105.988 7.28456C106.14 7.25439 106.297 7.26987 106.44 7.32904C106.583 7.38822 106.706 7.48843 106.792 7.61701C106.878 7.74558 106.924 7.89674 106.924 8.05138C106.924 8.15405 106.903 8.25571 106.864 8.35057C106.825 8.44543 106.767 8.53163 106.694 8.60423C106.621 8.67683 106.535 8.73441 106.44 8.7737C106.345 8.813 106.243 8.83322 106.14 8.83322Z" fill="#3F3D56"/>
<path d="M102.744 9.35203C103.157 9.35203 103.561 9.4743 103.904 9.7034C104.248 9.93249 104.515 10.2581 104.673 10.6391C104.831 11.0201 104.873 11.4393 104.792 11.8437C104.711 12.2481 104.513 12.6196 104.221 12.9112C103.929 13.2028 103.556 13.4014 103.151 13.4818C102.746 13.5623 102.326 13.521 101.945 13.3632C101.563 13.2054 101.237 12.9381 101.008 12.5953C100.778 12.2524 100.656 11.8493 100.656 11.437C100.656 10.884 100.876 10.3537 101.267 9.96269C101.659 9.57169 102.19 9.35203 102.744 9.35203ZM102.744 8.30957C102.125 8.3094 101.52 8.49241 101.006 8.83547C100.491 9.17853 100.09 9.66622 99.8536 10.2369C99.6167 10.8075 99.5546 11.4355 99.6752 12.0414C99.7958 12.6472 100.094 13.2038 100.531 13.6406C100.968 14.0775 101.526 14.375 102.133 14.4956C102.739 14.6162 103.368 14.5544 103.94 14.318C104.512 14.0817 105 13.6814 105.344 13.1678C105.688 12.6542 105.871 12.0503 105.871 11.4326C105.871 10.6048 105.541 9.811 104.955 9.22572C104.368 8.64043 103.573 8.31154 102.744 8.31131V8.30957Z" fill="#FD5341"/>
<path d="M45.2673 136.724L42.3213 136.029L43.5959 124.355L47.9463 125.378L45.2673 136.724Z" fill="#FFB8B8"/>
<path d="M45.3306 139.753L35.832 137.518L35.8608 137.398C35.9751 136.914 36.1839 136.456 36.4754 136.052C36.7668 135.648 37.1352 135.305 37.5593 135.043C37.9835 134.781 38.4552 134.605 38.9476 134.525C39.4399 134.445 39.9431 134.462 40.4286 134.577L46.2302 135.941L45.3306 139.753Z" fill="#212121"/>
<path d="M56.7737 136.823H53.7476L52.3076 125.168H56.7745L56.7737 136.823Z" fill="#FFB8B8"/>
<path d="M57.5352 139.752H47.7773V139.629C47.7773 138.623 48.1775 137.659 48.8897 136.948C49.6019 136.236 50.5679 135.837 51.5752 135.837H57.5352V139.752Z" fill="#212121"/>
<path d="M73.1432 91.0517C73.3457 90.7218 73.4733 90.3515 73.5171 89.9671C73.5609 89.5826 73.5197 89.1933 73.3966 88.8264C73.2734 88.4596 73.0712 88.1241 72.8042 87.8437C72.5372 87.5632 72.2119 87.3446 71.8511 87.2032L62.9904 64.7686L58.0605 67.757L68.3204 88.8668C68.1221 89.4881 68.159 90.1605 68.4243 90.7564C68.6896 91.3523 69.1648 91.8302 69.7596 92.0994C70.3544 92.3687 71.0276 92.4106 71.6513 92.2171C72.275 92.0237 72.8059 91.6083 73.1432 91.0499V91.0517Z" fill="#FFB8B8"/>
<path d="M64.8633 68.5646L59.2313 70.6495C59.0711 70.7087 58.8999 70.7328 58.7295 70.72C58.5591 70.7073 58.3935 70.658 58.2439 70.5755C58.0943 70.4931 57.9642 70.3794 57.8625 70.2423C57.7609 70.1052 57.69 69.9478 57.6548 69.7808L56.4219 63.9309C56.2465 63.519 56.1568 63.0759 56.1582 62.6283C56.1597 62.1808 56.2522 61.7382 56.4303 61.3275C56.6084 60.9168 56.8683 60.5466 57.1941 60.2392C57.52 59.9319 57.905 59.694 58.3258 59.5398C58.7466 59.3857 59.1945 59.3186 59.6421 59.3427C60.0896 59.3667 60.5277 59.4814 60.9295 59.6797C61.3313 59.878 61.6886 60.1558 61.9795 60.4962C62.2705 60.8367 62.4891 61.2326 62.622 61.66L65.4932 66.8836C65.5754 67.0333 65.6242 67.1988 65.6365 67.369C65.6488 67.5392 65.6243 67.71 65.5645 67.8699C65.5047 68.0297 65.4111 68.1748 65.2901 68.2953C65.1691 68.4158 65.0235 68.5088 64.8633 68.5681V68.5646Z" fill="#C4C4C4"/>
<path d="M56.5533 132.639H56.5089L52.2195 132.466C51.9295 132.456 51.6551 132.333 51.4555 132.122C51.2558 131.912 51.1471 131.632 51.1528 131.342L51.4817 107.681C51.4816 107.587 51.4454 107.496 51.3806 107.427C51.3157 107.359 51.2271 107.317 51.1328 107.312C51.0385 107.306 50.9456 107.337 50.8732 107.398C50.8007 107.458 50.7542 107.544 50.743 107.638L48.2546 131.325C48.2286 131.566 48.1244 131.792 47.958 131.969C47.7915 132.145 47.5718 132.263 47.3323 132.303H47.3175L43.2908 131.987C43.1321 132.011 42.97 132 42.8157 131.956C42.6614 131.912 42.5186 131.834 42.3971 131.729C42.2756 131.625 42.1784 131.495 42.112 131.349C42.0456 131.203 42.0118 131.044 42.0127 130.884L42.2537 90.7627L62.0147 92.0111L57.6592 131.651C57.6286 131.922 57.499 132.173 57.295 132.356C57.0911 132.538 56.827 132.639 56.5533 132.639Z" fill="#4B7BE5"/>
<path d="M52.9494 56.2412C56.2977 56.2412 59.012 53.5311 59.012 50.188C59.012 46.8449 56.2977 44.1348 52.9494 44.1348C49.6011 44.1348 46.8867 46.8449 46.8867 50.188C46.8867 53.5311 49.6011 56.2412 52.9494 56.2412Z" fill="#FFB8B8"/>
<path d="M61.0305 94.118C61.0027 94.118 60.9737 94.118 60.9435 94.118L42.6799 92.7837C42.3961 92.763 42.131 92.6343 41.9395 92.4242C41.7479 92.214 41.6445 91.9384 41.6506 91.6543L42.1318 68.7558C42.1003 67.3513 42.356 65.9551 42.8834 64.6527C43.4108 63.3503 44.1988 62.169 45.1991 61.181C46.1994 60.1931 47.3911 59.4192 48.7012 58.9068C50.0113 58.3945 51.4123 58.1543 52.8185 58.201C54.2248 58.2478 55.6067 58.5804 56.8797 59.1787C58.1528 59.7769 59.2903 60.6282 60.2225 61.6804C61.1548 62.7326 61.8624 63.9636 62.3018 65.2982C62.7413 66.6327 62.9035 68.0428 62.7785 69.4421C62.4592 72.9708 62.2051 88.388 62.1347 93.0295C62.1297 93.3191 62.0113 93.5951 61.8049 93.7986C61.5985 94.002 61.3206 94.1167 61.0305 94.118Z" fill="#C4C4C4"/>
<path d="M28.3734 56.9172C28.4037 57.0501 28.4235 57.1852 28.4326 57.3212L39.037 63.4291L41.6141 61.9479L44.3618 65.5392L40.0541 68.6049C39.7061 68.8526 39.2871 68.9808 38.8599 68.9705C38.4327 68.9602 38.0205 68.8118 37.6849 68.5476L26.7499 59.9343C26.2564 60.1165 25.7191 60.1445 25.2093 60.0145C24.6995 59.8844 24.2415 59.6024 23.8961 59.2061C23.5508 58.8098 23.3344 58.3179 23.2759 57.7958C23.2173 57.2738 23.3193 56.7463 23.5684 56.2835C23.8174 55.8207 24.2016 55.4446 24.6699 55.2052C25.1383 54.9658 25.6685 54.8744 26.1901 54.9432C26.7117 55.012 27.2 55.2377 27.59 55.5903C27.98 55.9429 28.2533 56.4057 28.3734 56.9172Z" fill="#FFB8B8"/>
<path d="M39.2803 62.8079C39.3122 62.6518 39.3775 62.5044 39.4716 62.3757C39.5658 62.2471 39.6866 62.1402 39.8259 62.0625L44.6922 59.346C45.3401 58.8692 46.149 58.664 46.9463 58.7743C47.7436 58.8846 48.4662 59.3016 48.9598 59.9364C49.4534 60.5712 49.6791 61.3735 49.5885 62.1721C49.498 62.9706 49.0985 63.7023 48.4752 64.2108L44.5956 68.2339C44.4848 68.3486 44.3506 68.4381 44.2021 68.4963C44.0535 68.5546 43.8942 68.5802 43.7349 68.5715C43.5755 68.5628 43.42 68.5199 43.2787 68.4457C43.1375 68.3716 43.0139 68.2679 42.9164 68.1418L39.4892 63.707C39.3916 63.5809 39.3225 63.4353 39.2865 63.2802C39.2504 63.125 39.2484 62.9639 39.2803 62.8079Z" fill="#C4C4C4"/>
<path d="M56.0781 54.99C55.1451 54.9835 54.2291 54.741 53.4154 54.2852C52.6017 53.8295 51.9169 53.1754 51.4249 52.3839C51.3719 52.297 51.0769 51.8722 50.7419 51.377C49.7927 49.9871 49.57 49.6535 49.5508 49.6048C49.3742 49.3055 49.1247 49.0554 48.8256 48.8779C48.5264 48.7004 48.1872 48.6011 47.8394 48.5893C47.7202 48.5711 47.5992 48.5546 47.4783 48.5389C46.5787 48.419 45.6512 48.2939 45.1378 47.3062C44.7637 46.5817 44.1512 43.6307 44.6219 42.9096C45.2109 42.0053 46.3429 42.3015 47.4365 42.583C48.0784 42.8064 48.7605 42.8914 49.4377 42.8323C51.9383 42.3111 54.7721 41.7238 57.2753 43.2458C58.2747 43.8798 59.0897 44.765 59.6386 45.8126C60.1874 46.8602 60.4508 48.0335 60.4023 49.2148C60.3344 51.8679 59.1755 53.9623 57.3023 54.8172L56.9125 54.931L56.6932 54.9579C56.4889 54.9802 56.2836 54.991 56.0781 54.99Z" fill="#212121"/>
<path d="M194.994 45.5419C193.434 45.5424 191.92 46.0791 190.709 47.0619C189.498 48.0447 188.662 49.4137 188.342 50.9391C188.022 52.4645 188.237 54.0533 188.952 55.4389C189.666 56.8245 190.837 57.9224 192.266 58.5483C192.237 58.0262 192.277 57.5026 192.384 56.9907L193.254 53.2909C193.106 52.9528 193.031 52.587 193.036 52.218C193.036 51.212 193.619 50.4606 194.347 50.4606C194.477 50.4586 194.606 50.4845 194.725 50.5364C194.844 50.5883 194.95 50.6651 195.037 50.7616C195.124 50.858 195.189 50.9719 195.228 51.0956C195.267 51.2194 195.279 51.35 195.263 51.4787C195.131 52.2972 194.93 53.1031 194.662 53.8877C194.622 54.0469 194.62 54.2133 194.656 54.3734C194.692 54.5336 194.766 54.683 194.87 54.8098C194.975 54.9365 195.108 55.037 195.258 55.1032C195.409 55.1693 195.572 55.1993 195.737 55.1908C197.023 55.1908 197.892 53.5402 197.892 51.5812C197.903 51.2174 197.835 50.8555 197.693 50.52C197.552 50.1845 197.34 49.8833 197.072 49.6368C196.803 49.3902 196.485 49.2041 196.139 49.091C195.792 48.9779 195.425 48.9404 195.063 48.9811C194.627 48.9643 194.192 49.0361 193.785 49.1923C193.377 49.3485 193.006 49.5858 192.693 49.8898C192.38 50.1938 192.133 50.5581 191.965 50.9605C191.798 51.363 191.714 51.7953 191.72 52.231C191.699 52.7145 191.859 53.1884 192.169 53.561C192.223 53.6057 192.262 53.6665 192.279 53.7345C192.297 53.8026 192.292 53.8745 192.266 53.9398C192.233 54.064 192.16 54.3637 192.126 54.4853C192.121 54.5224 192.107 54.5577 192.085 54.5883C192.063 54.6188 192.034 54.6436 192.001 54.6607C191.968 54.6777 191.931 54.6865 191.893 54.6862C191.856 54.6859 191.819 54.6766 191.786 54.6591C191.32 54.4162 190.938 54.0388 190.689 53.5762C190.441 53.1136 190.338 52.587 190.394 52.0651C190.394 50.1374 192.023 47.8257 195.253 47.8257C195.792 47.7934 196.333 47.8689 196.843 48.0477C197.353 48.2266 197.822 48.5052 198.223 48.8673C198.624 49.2294 198.948 49.6677 199.177 50.1565C199.406 50.6453 199.536 51.1749 199.557 51.7141C199.557 54.3776 198.073 56.3661 195.888 56.3661C195.563 56.3747 195.24 56.3019 194.95 56.1542C194.66 56.0066 194.412 55.7888 194.228 55.5208C194.228 55.5208 193.834 57.0846 193.749 57.3877C193.591 57.9025 193.361 58.3922 193.066 58.842C194 59.1172 194.984 59.1885 195.949 59.051C196.914 58.9136 197.838 58.5706 198.658 58.0453C199.479 57.52 200.177 56.8248 200.705 56.0066C201.232 55.1884 201.578 54.2665 201.718 53.3034C201.858 52.3402 201.788 51.3583 201.515 50.4242C201.241 49.4901 200.769 48.6257 200.132 47.8895C199.494 47.1533 198.706 46.5626 197.819 46.1574C196.933 45.7522 195.97 45.542 194.995 45.541L194.994 45.5419Z" fill="#CB1F24"/>
<path fill-rule="evenodd" clip-rule="evenodd" d="M22.1455 60.1238C22.1446 58.8307 21.7726 57.565 21.0737 56.4764C20.3747 55.3878 19.378 54.5219 18.2016 53.9813C17.0252 53.4406 15.7182 53.2478 14.4354 53.4256C13.1527 53.6035 11.9478 54.1446 10.9634 54.9848C9.97903 55.8251 9.25634 56.9293 8.8809 58.1668C8.50546 59.4044 8.49298 60.7234 8.84494 61.9678C9.1969 63.2122 9.89856 64.3299 10.8669 65.1885C11.8352 66.0472 13.0296 66.6109 14.3088 66.8129V62.0844H12.5878V60.1238H14.3088V58.6322C14.272 58.284 14.3122 57.9321 14.4267 57.6012C14.5412 57.2703 14.7271 56.9686 14.9714 56.7174C15.2156 56.4662 15.5121 56.2716 15.8399 56.1475C16.1678 56.0234 16.5189 55.9727 16.8685 55.9991C17.3769 56.006 17.884 56.0502 18.3859 56.1311V57.7965H17.5307C17.385 57.7771 17.2368 57.7907 17.0971 57.8363C16.9574 57.8819 16.8297 57.9583 16.7236 58.0598C16.6175 58.1614 16.5356 58.2854 16.484 58.4229C16.4325 58.5603 16.4125 58.7075 16.4257 58.8537V60.1238H18.305L18.0049 62.0801H16.4257V66.8129C18.0208 66.5609 19.4734 65.7486 20.522 64.5223C21.5706 63.296 22.1463 61.7362 22.1455 60.1238Z" fill="#3B5998"/>
<path d="M150.56 33.1542C153.621 33.1542 156.103 30.6763 156.103 27.6196C156.103 24.5629 153.621 22.085 150.56 22.085C147.498 22.085 145.017 24.5629 145.017 27.6196C145.017 30.6763 147.498 33.1542 150.56 33.1542Z" fill="#D42428"/>
<path d="M153.462 26.551C153.462 26.3283 153.373 26.1148 153.216 25.9573C153.058 25.7998 152.844 25.7112 152.621 25.7109H148.676C148.453 25.7112 148.24 25.7998 148.082 25.9573C147.924 26.1148 147.836 26.3283 147.836 26.551V28.8036C147.836 29.0262 147.924 29.2398 148.082 29.3973C148.24 29.5548 148.453 29.6434 148.676 29.6436H152.621C152.844 29.6434 153.058 29.5548 153.216 29.3973C153.373 29.2398 153.462 29.0262 153.462 28.8036V26.551ZM150.086 28.6272V26.5119L151.693 27.57L150.086 28.6272Z" fill="white"/>
</svg>
