<svg width="52" height="52" viewBox="0 0 52 52" fill="none" xmlns="http://www.w3.org/2000/svg">
<path d="M26 52C40.3594 52 52 40.3594 52 26C52 11.6406 40.3594 0 26 0C11.6406 0 0 11.6406 0 26C0 40.3594 11.6406 52 26 52Z" fill="#55ACEE"/>
<path d="M42.343 18.4925C41.1788 19.0071 39.9441 19.3442 38.68 19.4925C40.0099 18.6946 41.0049 17.4409 41.48 15.9645C40.228 16.7072 38.8583 17.2304 37.43 17.5115C36.4685 16.4885 35.1965 15.8111 33.8111 15.584C32.4257 15.357 31.0041 15.593 29.7664 16.2556C28.5287 16.9182 27.5439 17.9704 26.9646 19.2492C26.3854 20.528 26.2438 21.9621 26.562 23.3295C24.0258 23.2028 21.5447 22.544 19.2798 21.3957C17.015 20.2474 15.0171 18.6354 13.416 16.6645C12.6005 18.0686 12.3505 19.7306 12.7171 21.3125C13.0836 22.8943 14.039 24.2771 15.389 25.1795C14.3758 25.1478 13.3851 24.8735 12.5 24.3795C12.5 24.4065 12.5 24.4335 12.5 24.4605C12.5005 25.9329 13.0101 27.3599 13.9425 28.4996C14.8749 29.6392 16.1727 30.4214 17.616 30.7135C16.6768 30.9686 15.6918 31.0062 14.736 30.8235C15.1435 32.0906 15.9369 33.1987 17.0051 33.9929C18.0734 34.787 19.3631 35.2274 20.694 35.2525C18.0181 37.3436 14.6244 38.2928 11.252 37.8935C14.1694 39.7723 17.5669 40.7698 21.037 40.7665C32.768 40.7665 39.183 31.0485 39.183 22.6195C39.183 22.3435 39.177 22.0675 39.164 21.7945C40.413 20.8928 41.491 19.7753 42.347 18.4945L42.343 18.4925Z" fill="white"/>
</svg>
