<svg width="52" height="52" viewBox="0 0 52 52" fill="none" xmlns="http://www.w3.org/2000/svg">
<path d="M52 0H0V52H52V0Z" fill="#1BD741"/>
<path d="M7.78516 44.5639L10.3852 35.3389C8.11277 31.4699 7.32289 26.9072 8.16238 22.4995C9.00188 18.0917 11.4136 14.1389 14.9491 11.376C18.4846 8.61318 22.9032 7.22837 27.3832 7.47915C31.8631 7.72993 36.0996 9.59921 39.3046 12.7394C42.5097 15.8796 44.4652 20.0769 44.8075 24.5508C45.1498 29.0247 43.8557 33.4707 41.1657 37.0619C38.4757 40.6532 34.573 43.1452 30.1833 44.0747C25.7937 45.0041 21.2158 44.3077 17.3012 42.1149L7.78516 44.5639ZM17.7852 38.7459L18.3522 39.0919C21.5773 41.0561 25.4124 41.7648 29.1265 41.0828C32.8405 40.4008 36.1737 38.3758 38.4906 35.394C40.8075 32.4121 41.946 28.6819 41.689 24.9145C41.4321 21.1471 39.7977 17.606 37.0974 14.9663C34.3972 12.3266 30.8199 10.7729 27.0476 10.6015C23.2754 10.4301 19.5719 11.6529 16.6434 14.0368C13.7148 16.4207 11.766 19.7989 11.1684 23.5275C10.5708 27.2561 11.3663 31.0742 13.4032 34.2539L13.7852 34.8479L12.2852 40.1609L17.7852 38.7459Z" fill="white"/>
<path d="M21.1513 17.3358L19.9513 17.2698C19.5742 17.2488 19.2037 17.3754 18.9183 17.6228C18.0493 18.3359 17.4208 19.2992 17.1183 20.3818C16.6913 22.2818 17.3513 24.6098 19.0573 26.9368C21.5828 30.6096 25.2903 33.3063 29.5623 34.5778C30.2802 34.8139 31.0415 34.8882 31.7915 34.7953C32.5415 34.7025 33.2616 34.4448 33.9003 34.0408C34.3304 33.7621 34.701 33.401 34.9907 32.9782C35.2804 32.5555 35.4835 32.0795 35.5883 31.5778L35.7803 30.6778C35.8109 30.539 35.7931 30.3938 35.7298 30.2665C35.6664 30.1391 35.5615 30.0373 35.4323 29.9778L31.3703 28.1058C31.2422 28.0468 31.0979 28.0329 30.961 28.0665C30.824 28.1001 30.7025 28.1792 30.6163 28.2908L29.0263 30.3658C28.9678 30.4422 28.8867 30.4981 28.7946 30.5255C28.7025 30.553 28.604 30.5507 28.5133 30.5188C25.6277 29.4861 23.2227 27.4282 21.7563 24.7368C21.7135 24.6552 21.6961 24.5626 21.7064 24.4709C21.7168 24.3793 21.7543 24.2929 21.8143 24.2228L23.3383 22.4598C23.4144 22.3715 23.4642 22.2635 23.4818 22.1482C23.4995 22.0329 23.4844 21.915 23.4383 21.8078L21.6873 17.7078C21.6411 17.6024 21.5665 17.5117 21.4719 17.4461C21.3773 17.3804 21.2663 17.3422 21.1513 17.3358Z" fill="white"/>
</svg>
