<svg xmlns="http://www.w3.org/2000/svg" xmlns:xlink="http://www.w3.org/1999/xlink" width="55" height="55" viewBox="0 0 55 55"><defs><style>.a{fill:#fff;}.b{fill:#e9b5b7;opacity:0.44;}.c{clip-path:url(#a);}.d{fill:#d42428;}</style><clipPath id="a"><circle class="a" cx="24.5" cy="24.5" r="24.5" transform="translate(54 213)"/></clipPath></defs><g transform="translate(-51 -210)"><circle class="b" cx="27.5" cy="27.5" r="27.5" transform="translate(51 210)"/><g class="c"><g transform="translate(54 213)"><circle class="d" cx="24.5" cy="24.5" r="24.5" transform="translate(0 0)"/><path class="a" d="M37.321,19.772A3.717,3.717,0,0,0,33.6,16.054H16.167a3.717,3.717,0,0,0-3.716,3.719v9.971a3.717,3.717,0,0,0,3.716,3.719H33.6a3.717,3.717,0,0,0,3.717-3.719V19.772ZM22.4,28.964V19.6l7.1,4.683Z"/></g></g></g></svg>