<svg width="32" height="32" viewBox="0 0 32 32" fill="none" xmlns="http://www.w3.org/2000/svg">
    <rect x="0.5" y="0.5" width="31" height="31" rx="4.5" fill="white" stroke="#4B7BE5"/>
    <path d="M19.1562 14.9344L17.3515 14.7563C17.2953 14.6016 17.2344 14.4516 17.164 14.3016L18.3125 12.9C18.4596 12.7199 18.5343 12.4914 18.5222 12.2592C18.5101 12.027 18.4119 11.8076 18.2469 11.6438L17.3562 10.7531C17.1924 10.5881 16.973 10.4899 16.7408 10.4778C16.5085 10.4656 16.2801 10.5404 16.1 10.6875L14.6984 11.8359C14.5531 11.7703 14.3984 11.7047 14.2437 11.6484L14.0609 9.84376C14.0398 9.61251 13.9328 9.39757 13.761 9.24137C13.5892 9.08517 13.365 8.99905 13.1328 9.00001H11.8672C11.635 8.99905 11.4108 9.08517 11.239 9.24137C11.0672 9.39757 10.9602 9.61251 10.9391 9.84376L10.7563 11.6484C10.6016 11.7047 10.4516 11.7656 10.3016 11.8359L8.90001 10.6875C8.71989 10.5404 8.49146 10.4656 8.25922 10.4778C8.02698 10.4899 7.80758 10.5881 7.64377 10.7531L6.75315 11.6438C6.58808 11.8076 6.48992 12.027 6.47778 12.2592C6.46565 12.4914 6.54042 12.7199 6.68752 12.9L7.83596 14.3016C7.77033 14.4469 7.70471 14.6016 7.64846 14.7563L5.84378 14.9344C5.6124 14.9573 5.39784 15.0655 5.24187 15.2379C5.0859 15.4104 4.99969 15.6347 5.00003 15.8672V17.1281C4.99817 17.3611 5.08386 17.5862 5.24012 17.759C5.39638 17.9317 5.61182 18.0395 5.84378 18.0609L7.64846 18.2437C7.70471 18.3984 7.76564 18.5484 7.83596 18.6984L6.68752 20.1C6.54042 20.2801 6.46565 20.5086 6.47778 20.7408C6.48992 20.973 6.58808 21.1924 6.75315 21.3562L7.64377 22.2469C7.807 22.413 8.02657 22.5118 8.25913 22.524C8.49169 22.5361 8.72036 22.4607 8.90001 22.3125L10.3016 21.1641C10.4469 21.2297 10.6016 21.2953 10.7563 21.3516L10.9391 23.1562C10.9602 23.3875 11.0672 23.6024 11.239 23.7586C11.4108 23.9148 11.635 24.001 11.8672 24H13.1328C13.365 24.001 13.5892 23.9148 13.761 23.7586C13.9328 23.6024 14.0398 23.3875 14.0609 23.1562L14.2437 21.3516C14.3984 21.2953 14.5484 21.2344 14.6984 21.1641L16.1 22.3125C16.2796 22.4607 16.5083 22.5361 16.7409 22.524C16.9734 22.5118 17.193 22.413 17.3562 22.2469L18.2469 21.3562C18.4119 21.1924 18.5101 20.973 18.5222 20.7408C18.5343 20.5086 18.4596 20.2801 18.3125 20.1L17.164 18.6984C17.2297 18.5531 17.2953 18.3984 17.3515 18.2437L19.1562 18.0609C19.3882 18.0395 19.6036 17.9317 19.7599 17.759C19.9161 17.5862 20.0018 17.3611 20 17.1281V15.8672C20.0003 15.6347 19.9141 15.4104 19.7581 15.2379C19.6022 15.0655 19.3876 14.9573 19.1562 14.9344ZM12.5 19.3125C11.9437 19.3125 11.4 19.1475 10.9375 18.8385C10.475 18.5295 10.1145 18.0902 9.9016 17.5763C9.68873 17.0624 9.63303 16.4969 9.74155 15.9513C9.85007 15.4057 10.1179 14.9046 10.5113 14.5113C10.9046 14.1179 11.4057 13.8501 11.9513 13.7415C12.4969 13.633 13.0624 13.6887 13.5763 13.9016C14.0902 14.1145 14.5295 14.4749 14.8385 14.9375C15.1475 15.4 15.3125 15.9437 15.3125 16.5C15.3125 17.2459 15.0162 17.9613 14.4887 18.4887C13.9613 19.0162 13.2459 19.3125 12.5 19.3125Z"
          fill="#4B7BE5"/>
    <path d="M26.3222 11.5252L25.3946 11.2513C25.3806 11.1647 25.3637 11.08 25.3418 10.9944L26.0837 10.3751C26.1788 10.2954 26.2408 10.1832 26.2577 10.0604C26.2746 9.93749 26.2451 9.81273 26.175 9.7104L25.7976 9.15472C25.7283 9.05185 25.6232 8.97848 25.5027 8.94889C25.3823 8.91929 25.2551 8.93561 25.146 8.99465L24.2969 9.45603C24.2273 9.40712 24.1529 9.35726 24.0775 9.31232L24.1623 8.34862C24.1744 8.22536 24.1398 8.10205 24.0654 8.00303C23.991 7.90401 23.8822 7.83647 23.7605 7.81374L23.0975 7.68711C22.9759 7.66337 22.8499 7.68606 22.7442 7.7507C22.6386 7.81533 22.561 7.91722 22.5268 8.03625L22.2505 8.96337C22.1638 8.97736 22.0792 8.99428 21.9935 9.0161L21.3742 8.27424C21.2946 8.17916 21.1824 8.11713 21.0595 8.10025C20.9367 8.08337 20.8119 8.11284 20.7096 8.18293L20.1539 8.56038C20.051 8.62968 19.9776 8.73479 19.9481 8.85524C19.9185 8.97569 19.9348 9.10284 19.9938 9.21192L20.4552 10.0611C20.4063 10.1306 20.3564 10.2051 20.3115 10.2805L19.3483 10.1932C19.2248 10.1821 19.1015 10.2173 19.0026 10.292C18.9036 10.3668 18.836 10.4756 18.8129 10.5975L18.6867 11.258C18.6625 11.3799 18.6848 11.5064 18.7494 11.6125C18.814 11.7187 18.9161 11.7967 19.0354 11.8311L19.9625 12.1075C19.9765 12.1941 19.9934 12.2788 20.0153 12.3644L19.2734 12.9837C19.1783 13.0634 19.1163 13.1756 19.0994 13.2984C19.0825 13.4213 19.112 13.5461 19.1821 13.6484L19.5595 14.2041C19.6284 14.3074 19.7336 14.3812 19.8542 14.4108C19.9748 14.4405 20.1021 14.4238 20.2111 14.3642L21.0602 13.9028C21.1298 13.9517 21.2042 14.0015 21.2796 14.0465L21.1948 15.0102C21.1828 15.1334 21.2173 15.2567 21.2917 15.3558C21.3661 15.4548 21.4749 15.5223 21.5966 15.5451L22.2596 15.6717C22.3812 15.6954 22.5072 15.6727 22.6129 15.6081C22.7185 15.5435 22.7961 15.4416 22.8303 15.3225L23.1066 14.3954C23.1933 14.3814 23.278 14.3645 23.3636 14.3427L23.9829 15.0846C24.0622 15.1802 24.1744 15.2426 24.2975 15.2595C24.4205 15.2764 24.5454 15.2465 24.6476 15.1759L25.2032 14.7984C25.3061 14.7291 25.3795 14.624 25.4091 14.5036C25.4387 14.3831 25.4223 14.256 25.3633 14.1469L24.9019 13.2977C24.9508 13.2282 25.0007 13.1537 25.0456 13.0783L26.0093 13.1631C26.133 13.1751 26.2566 13.1402 26.3558 13.0653C26.4549 12.9905 26.5223 12.8811 26.5447 12.7589L26.6708 12.0983C26.6943 11.9765 26.6716 11.8504 26.6071 11.7445C26.5427 11.6385 26.4411 11.5604 26.3222 11.5252ZM22.3971 13.1528C22.1057 13.0971 21.8374 12.9563 21.626 12.7481C21.4146 12.5399 21.2698 12.2738 21.2097 11.9832C21.1496 11.6927 21.177 11.3909 21.2884 11.116C21.3998 10.841 21.5903 10.6053 21.8357 10.4386C22.0811 10.2719 22.3705 10.1817 22.6671 10.1794C22.9638 10.1772 23.2545 10.2629 23.5024 10.4259C23.7503 10.5888 23.9443 10.8216 24.06 11.0948C24.1756 11.368 24.2076 11.6694 24.1519 11.9608C24.0773 12.3516 23.8505 12.6967 23.5214 12.9202C23.1923 13.1437 22.7879 13.2274 22.3971 13.1528Z"
          fill="#4B7BE5"/>
</svg>
