<svg width="19" height="20" viewBox="0 0 19 20" fill="none" xmlns="http://www.w3.org/2000/svg">
<path d="M9.4995 12.3174C12.0359 12.3174 13.8345 8.48717 13.8345 6.44148C13.8345 4.17816 11.8976 2.3501 9.4995 2.3501C7.10144 2.3501 5.16455 4.17816 5.16455 6.44148C5.16455 8.48717 6.96309 12.3174 9.4995 12.3174Z" fill="#4B7BE5"/>
<path d="M10.5607 12.7747H8.43929C4.47327 12.7747 1.24512 15.8214 1.24512 19.5646C1.24512 19.7822 1.4757 19.9999 1.70628 19.9999H17.3398C17.5704 19.9999 17.8009 19.7822 17.8009 19.5646C17.7548 15.8214 14.5267 12.7747 10.5607 12.7747Z" fill="#4B7BE5"/>
<path d="M16.9709 5.44067H16.3252C16.0947 2.26332 13.2816 0 9.5 0C5.71845 0 2.90534 2.26332 2.67476 5.44067H2.02913C0.92233 5.44067 0 6.31118 0 7.35579V8.22629C0 9.2709 0.92233 10.1414 2.02913 10.1414H3.13592C3.3665 10.1414 3.59709 9.96731 3.59709 9.70616V5.87593C3.59709 2.95973 6.04126 0.914033 9.5 0.914033C12.9587 0.914033 15.4029 2.95973 15.4029 5.87593V9.70616C15.4029 9.96731 15.6335 10.1414 15.8641 10.1414H16.9709C18.0777 10.1414 19 9.2709 19 8.22629V7.35579C19 6.26765 18.0777 5.44067 16.9709 5.44067Z" fill="#4B7BE5"/>
<path d="M3.08949 11.099L3.04337 11.012H2.02881L2.21327 11.4037C2.44386 11.9695 2.99726 12.3177 3.64289 12.3177H5.81036C6.08706 12.3177 6.27153 12.1436 6.27153 11.8825C6.27153 11.6213 6.08706 11.4472 5.81036 11.4472H3.64289C3.4123 11.4472 3.18172 11.3166 3.08949 11.099Z" fill="#4B7BE5"/>
</svg>
