<svg width="19" height="20" viewBox="0 0 19 20" fill="none" xmlns="http://www.w3.org/2000/svg">
<path d="M9.49901 12.3174C12.0354 12.3174 13.834 8.48717 13.834 6.44148C13.834 4.17816 11.8971 2.3501 9.49901 2.3501C7.10096 2.3501 5.16406 4.17816 5.16406 6.44148C5.16406 8.48717 6.96261 12.3174 9.49901 12.3174Z" fill="#FFFFFF"/>
<path d="M10.5616 12.7747H8.44027C4.47425 12.7747 1.24609 15.8214 1.24609 19.5646C1.24609 19.7822 1.47668 19.9999 1.70726 19.9999H17.3408C17.5713 19.9999 17.8019 19.7822 17.8019 19.5646C17.7558 15.8214 14.5276 12.7747 10.5616 12.7747Z" fill="#FFFFFF"/>
<path d="M16.9709 5.44067H16.3252C16.0947 2.26332 13.2816 0 9.5 0C5.71845 0 2.90534 2.26332 2.67476 5.44067H2.02913C0.92233 5.44067 0 6.31118 0 7.35579V8.22629C0 9.2709 0.92233 10.1414 2.02913 10.1414H3.13592C3.3665 10.1414 3.59709 9.96731 3.59709 9.70616V5.87593C3.59709 2.95973 6.04126 0.914033 9.5 0.914033C12.9587 0.914033 15.4029 2.95973 15.4029 5.87593V9.70616C15.4029 9.96731 15.6335 10.1414 15.8641 10.1414H16.9709C18.0777 10.1414 19 9.2709 19 8.22629V7.35579C19 6.26765 18.0777 5.44067 16.9709 5.44067Z" fill="#FFFFFF"/>
<path d="M3.08998 11.099L3.04386 11.012H2.0293L2.21376 11.4037C2.44435 11.9695 2.99774 12.3177 3.64337 12.3177H5.81085C6.08755 12.3177 6.27202 12.1436 6.27202 11.8825C6.27202 11.6213 6.08755 11.4472 5.81085 11.4472H3.64337C3.41279 11.4472 3.18221 11.3166 3.08998 11.099Z" fill="#FFFFFF"/>
</svg>
