<svg version="1.0" xmlns="http://www.w3.org/2000/svg"
 width="800.000000pt" height="267.000000pt" viewBox="0 0 800.000000 267.000000"
 preserveAspectRatio="xMidYMid meet">

<g transform="translate(0.000000,267.000000) scale(0.100000,-0.100000)"
fill="#e4002b" stroke="none">
<path d="M725 2585 c-266 -50 -485 -217 -601 -460 -84 -173 -84 -174 -84 -789
0 -500 2 -547 19 -621 60 -248 222 -447 456 -561 60 -29 126 -52 187 -64 91
-19 174 -20 3298 -20 3124 0 3207 1 3298 20 61 12 127 35 187 64 234 114 396
313 456 561 17 74 19 121 19 621 0 510 -1 545 -20 620 -86 335 -353 581 -690
634 -43 6 -1122 10 -3260 9 -2605 -1 -3208 -3 -3265 -14z m3923 -1247 c-3
-964 -5 -1093 -18 -1093 -13 0 -15 128 -18 1080 -1 594 0 1086 3 1093 2 6 11
12 20 12 13 0 15 -116 13 -1092z m1393 615 c971 -416 1094 -471 1111 -498 22
-36 17 -72 -16 -101 -32 -28 -2197 -954 -2232 -954 -14 0 -41 7 -59 15 -65 31
-65 17 0 533 l59 468 -57 449 c-32 248 -57 462 -57 476 0 46 68 92 126 85 18
-3 524 -215 1125 -473z m-4086 -42 c158 -65 210 -228 114 -360 -47 -65 -117
-93 -246 -99 l-103 -5 0 -148 0 -149 -95 0 -95 0 0 391 0 391 198 -4 c123 -3
208 -9 227 -17z m609 -158 c17 -8 41 -25 54 -36 l22 -20 0 36 0 37 95 0 95 0
-2 -307 -3 -308 -92 -3 -93 -3 0 42 0 41 -32 -28 c-48 -40 -90 -54 -158 -54
-146 0 -257 118 -268 286 -8 120 36 223 123 290 70 53 184 65 259 27z m628
-173 c34 -104 65 -190 68 -190 3 0 37 85 75 188 l70 187 103 3 102 3 -23 -53
c-13 -29 -101 -234 -197 -455 l-173 -403 -99 0 c-54 0 -98 4 -98 8 0 5 27 71
60 147 33 76 60 146 60 154 0 9 -52 146 -115 304 -63 158 -115 289 -115 292 0
3 49 5 109 5 l110 0 63 -190z m4068 -900 c0 -49 2 -90 5 -90 3 0 22 9 42 20
43 23 115 26 153 7 49 -24 60 -67 60 -229 l0 -148 -60 0 -60 0 -1 103 c-1 167
-8 187 -66 187 -71 0 -73 -5 -73 -155 l0 -135 -60 0 -60 0 0 265 0 265 60 0
60 0 0 -90z m-1029 70 c30 -6 66 -15 82 -21 25 -11 27 -15 27 -75 0 -59 -9
-79 -25 -54 -4 6 -24 19 -45 30 -54 28 -129 27 -165 -2 -75 -58 -74 -208 1
-267 42 -33 136 -27 187 12 20 15 38 27 41 27 3 0 6 -29 6 -64 l0 -64 -52 -18
c-69 -23 -171 -23 -231 0 -115 44 -174 191 -132 332 26 87 92 146 185 165 52
10 62 10 121 -1z m439 -138 c60 -29 71 -66 68 -227 l-3 -140 -57 -3 c-53 -3
-58 -1 -58 18 l0 22 -32 -20 c-106 -63 -228 -13 -228 95 0 38 5 50 33 78 34
34 101 55 177 55 27 0 40 4 40 14 0 39 -74 55 -153 32 -30 -9 -58 -16 -62 -16
-3 0 -5 21 -3 47 4 57 11 61 148 62 72 1 103 -3 130 -17z m383 7 c36 -10 37
-11 37 -59 0 -28 -1 -50 -2 -50 -2 0 -27 9 -56 20 -62 24 -111 26 -138 6 -17
-13 -17 -16 -4 -29 8 -8 40 -19 70 -25 109 -21 142 -48 142 -118 0 -78 -73
-128 -187 -129 -38 0 -91 6 -117 14 l-48 14 0 47 c0 26 2 49 5 52 3 3 24 -4
47 -15 56 -28 149 -35 167 -13 20 24 5 35 -67 47 -103 18 -158 69 -148 138 10
70 81 110 191 111 39 0 87 -5 108 -11z"/>
<path d="M5720 1638 c-57 -29 -80 -74 -87 -171 -16 -209 39 -291 196 -291 97
0 146 22 175 79 18 34 21 58 21 165 0 107 -3 130 -20 159 -35 59 -65 74 -157
78 -72 4 -89 1 -128 -19z m154 -91 c24 -18 36 -94 29 -175 -7 -75 -21 -92 -73
-92 -59 0 -70 23 -70 142 0 85 3 101 20 118 23 23 68 26 94 7z"/>
<path d="M5066 1635 c-3 -8 -9 -114 -12 -235 l-7 -220 56 0 56 0 3 148 3 147
38 -117 c41 -128 46 -133 118 -126 34 3 34 3 74 123 l40 120 5 -145 5 -145 55
0 55 0 -4 177 c-1 97 -6 201 -10 230 l-6 53 -66 3 c-45 2 -69 -1 -76 -10 -6
-7 -28 -69 -48 -138 -20 -69 -40 -129 -42 -134 -3 -5 -24 56 -47 135 l-41 144
-71 3 c-58 2 -73 0 -78 -13z"/>
<path d="M6112 1418 l3 -233 52 -3 52 -3 3 123 3 123 79 -110 c43 -60 85 -116
94 -122 9 -7 33 -13 54 -13 l38 0 0 235 0 235 -55 0 -54 0 -3 -127 -3 -128
-85 127 -85 127 -48 1 -47 0 2 -232z"/>
<path d="M1720 1690 l0 -90 75 0 c67 0 79 3 100 25 18 17 25 35 25 62 -1 68
-37 93 -134 93 l-66 0 0 -90z"/>
<path d="M2443 1590 c-43 -26 -63 -68 -63 -132 0 -66 27 -114 77 -134 72 -31
150 10 173 90 20 74 -3 140 -63 176 -41 25 -83 25 -124 0z"/>
<path d="M6540 410 c-76 -18 -73 -89 5 -90 47 0 75 25 75 66 0 37 -9 40 -80
24z"/>
</g>
</svg>
