<svg width="80" height="40" viewBox="0 0 80 40" fill="none" xmlns="http://www.w3.org/2000/svg">
<rect width="80" height="40" rx="6" fill="white"/>
<rect x="0.5" y="0.5" width="79" height="39" rx="5.5" stroke="black" stroke-opacity="0.1"/>
<path d="M58.5643 15.5332H54.8945C54.6786 15.5332 54.4628 15.7491 54.3548 15.9649L52.8438 25.4633C52.8438 25.6791 52.9517 25.7871 53.1676 25.7871H55.1104C55.3263 25.7871 55.4342 25.6791 55.4342 25.4633L55.8659 22.7649C55.8659 22.549 56.0818 22.3331 56.4056 22.3331H57.5929C60.0754 22.3331 61.4786 21.1458 61.8024 18.7713C62.0182 17.7998 61.8024 16.9364 61.3706 16.3967C60.723 15.857 59.7516 15.5332 58.5643 15.5332ZM58.9961 19.0951C58.7802 20.3903 57.8088 20.3903 56.8374 20.3903H56.1897L56.6215 17.9078C56.6215 17.7998 56.7294 17.6919 56.9453 17.6919H57.1612C57.8088 17.6919 58.4564 17.6919 58.7802 18.1236C58.9961 18.2316 58.9961 18.5554 58.9961 19.0951Z" fill="#139AD6"/>
<path d="M32.121 15.5332H28.4512C28.2353 15.5332 28.0194 15.7491 27.9115 15.9649L26.4004 25.4633C26.4004 25.6791 26.5083 25.7871 26.7242 25.7871H28.4512C28.667 25.7871 28.8829 25.5712 28.9908 25.3553L29.4226 22.7649C29.4226 22.549 29.6385 22.3331 29.9623 22.3331H31.1495C33.6321 22.3331 35.0352 21.1458 35.359 18.7713C35.5749 17.7998 35.359 16.9364 34.9273 16.3967C34.2797 15.857 33.4162 15.5332 32.121 15.5332ZM32.5527 19.0951C32.3368 20.3903 31.3654 20.3903 30.394 20.3903H29.8543L30.2861 17.9078C30.2861 17.7998 30.394 17.6919 30.6099 17.6919H30.8257C31.4733 17.6919 32.121 17.6919 32.4448 18.1236C32.5527 18.2316 32.6606 18.5554 32.5527 19.0951ZM43.2383 18.9871H41.5113C41.4034 18.9871 41.1875 19.0951 41.1875 19.203L41.0796 19.7427L40.9717 19.5268C40.5399 18.9871 39.7844 18.7713 38.9209 18.7713C36.978 18.7713 35.2511 20.2824 34.9273 22.3331C34.7114 23.4125 35.0352 24.3839 35.5749 25.0315C36.1146 25.6791 36.8701 25.895 37.8415 25.895C39.4606 25.895 40.324 24.9236 40.324 24.9236L40.2161 25.4633C40.2161 25.6791 40.324 25.7871 40.5399 25.7871H42.1589C42.3748 25.7871 42.5907 25.5712 42.6986 25.3553L43.67 19.3109C43.5621 19.203 43.3462 18.9871 43.2383 18.9871ZM40.7558 22.4411C40.5399 23.4125 39.7844 24.168 38.705 24.168C38.1653 24.168 37.7336 23.9522 37.5177 23.7363C37.3019 23.4125 37.1939 22.9807 37.1939 22.4411C37.3019 21.4696 38.1653 20.7141 39.1368 20.7141C39.6764 20.7141 40.0002 20.93 40.324 21.1458C40.6478 21.4696 40.7558 22.0093 40.7558 22.4411Z" fill="#263B80"/>
<path d="M69.5739 18.9874H67.847C67.739 18.9874 67.5232 19.0953 67.5232 19.2032L67.4152 19.7429L67.3073 19.527C66.8756 18.9874 66.12 18.7715 65.2565 18.7715C63.3137 18.7715 61.5867 20.2826 61.2629 22.3333C61.0471 23.4127 61.3709 24.3841 61.9105 25.0317C62.4502 25.6793 63.2058 25.8952 64.1772 25.8952C65.7962 25.8952 66.6597 24.9238 66.6597 24.9238L66.5518 25.4635C66.5518 25.6793 66.6597 25.7873 66.8756 25.7873H68.4946C68.7105 25.7873 68.9263 25.5714 69.0343 25.3555L70.0057 19.3112C69.8978 19.2032 69.7898 18.9874 69.5739 18.9874ZM67.0914 22.4413C66.8756 23.4127 66.12 24.1682 65.0407 24.1682C64.501 24.1682 64.0692 23.9524 63.8534 23.7365C63.6375 23.4127 63.5296 22.981 63.5296 22.4413C63.6375 21.4699 64.501 20.7143 65.4724 20.7143C66.0121 20.7143 66.3359 20.9302 66.6597 21.1461C67.0914 21.4699 67.1994 22.0095 67.0914 22.4413Z" fill="#139AD6"/>
<path d="M52.6274 18.9883H50.7925C50.5767 18.9883 50.4687 19.0962 50.3608 19.2042L47.9862 22.874L46.9069 19.42C46.7989 19.2042 46.691 19.0962 46.3672 19.0962H44.6402C44.4243 19.0962 44.3164 19.3121 44.3164 19.528L46.2592 25.2485L44.4243 27.839C44.3164 28.0548 44.4243 28.3787 44.6402 28.3787H46.3672C46.583 28.3787 46.691 28.2707 46.7989 28.1628L52.7354 19.6359C53.0592 19.3121 52.8433 18.9883 52.6274 18.9883Z" fill="#263B80"/>
<path d="M71.6263 15.8578L70.1152 25.572C70.1152 25.7879 70.2232 25.8958 70.439 25.8958H71.9501C72.166 25.8958 72.3819 25.6799 72.4898 25.4641L74.0009 15.9658C74.0009 15.7499 73.893 15.642 73.6771 15.642H71.9501C71.8422 15.534 71.7343 15.642 71.6263 15.8578Z" fill="#139AD6"/>
<path d="M18.4126 12.2952C17.657 11.4317 16.2539 11 14.311 11H8.91425C8.59045 11 8.26664 11.3238 8.15871 11.6476L6 25.7871C6 26.1109 6.21587 26.3268 6.43174 26.3268H9.77774L10.6412 21.038V21.2539C10.7492 20.93 11.073 20.6062 11.3968 20.6062H13.0158C16.1459 20.6062 18.5205 19.311 19.276 15.7492V15.4253C19.1681 15.4253 19.1681 15.4253 19.276 15.4253C19.384 14.0222 19.1681 13.1587 18.4126 12.2952Z" fill="#263B80"/>
<path d="M19.1673 15.4258V15.7496C18.4118 19.4194 16.0372 20.6067 12.9071 20.6067H11.288C10.9642 20.6067 10.6404 20.9305 10.5325 21.2543L9.45312 27.8383C9.45312 28.0542 9.56106 28.2701 9.88487 28.2701H12.6912C13.015 28.2701 13.3388 28.0542 13.3388 27.7304V27.6225L13.8785 24.2765V24.0606C13.8785 23.7368 14.2023 23.5209 14.5261 23.5209H14.9578C17.6562 23.5209 19.8149 22.4416 20.3546 19.2035C20.5705 17.9083 20.4625 16.721 19.8149 15.9655C19.707 15.7496 19.4911 15.5337 19.1673 15.4258Z" fill="#139AD6"/>
<path d="M18.412 15.1011C18.304 15.1011 18.1961 14.9932 18.0882 14.9932C17.9802 14.9932 17.8723 14.9932 17.7644 14.8853C17.3326 14.7773 16.9009 14.7773 16.3612 14.7773H12.1517C12.0438 14.7773 11.9358 14.7773 11.8279 14.8853C11.612 14.9932 11.5041 15.2091 11.5041 15.425L10.6406 21.0376V21.2535C10.7486 20.9297 11.0724 20.6059 11.3962 20.6059H13.0152C16.1453 20.6059 18.5199 19.3106 19.2754 15.7488C19.2754 15.6408 19.2754 15.5329 19.3834 15.425C19.1675 15.317 19.0596 15.2091 18.8437 15.2091C18.5199 15.1011 18.5199 15.1011 18.412 15.1011Z" fill="#232C65"/>
</svg>
