<svg width="80" height="40" viewBox="0 0 80 40" fill="none" xmlns="http://www.w3.org/2000/svg">
<rect width="80" height="40" rx="6" fill="white"/>
<rect x="0.5" y="0.5" width="79" height="39" rx="5.5" stroke="black" stroke-opacity="0.1"/>
<path d="M10.5045 16.8423L9.95508 18.9592L13.0997 16.8302L11.0431 24.8632L13.1318 24.865L16.1701 13" fill="#3395FF"/>
<path d="M6.88743 21.2589L6 24.4909H10.3917L12.1887 17.9162L6.88743 21.2589ZM22.1426 18.4135C22.0352 18.8032 21.8284 19.0894 21.5199 19.2722C21.2122 19.4546 20.7803 19.5462 20.2228 19.5462H18.4515L19.0734 17.2815H20.8447C21.4015 17.2815 21.784 17.3724 21.9915 17.5576C22.1991 17.7428 22.2492 18.0259 22.1426 18.4173V18.4135ZM23.9764 18.3684C24.2019 17.5506 24.1088 16.9216 23.6966 16.4812C23.2851 16.0444 22.563 15.8242 21.5324 15.8242H17.5795L15.1999 24.4948H17.1204L18.0794 21H19.3389C19.6216 21 19.8442 21.0454 20.0066 21.1328C20.1695 21.2236 20.265 21.3809 20.2943 21.6081L20.6371 24.4948H22.6947L22.3612 21.8038C22.2932 21.2027 22.0116 20.8497 21.5167 20.7449C22.1476 20.5666 22.6761 20.2696 23.1019 19.8572C23.5248 19.4478 23.8269 18.9347 23.9764 18.3719V18.3684ZM28.6447 21.3914C28.4837 21.9785 28.2368 22.4224 27.9029 22.7334C27.5687 23.0444 27.1694 23.1982 26.7035 23.1982C26.229 23.1982 25.9073 23.0479 25.7373 22.7439C25.567 22.4398 25.5613 21.9995 25.7194 21.4228C25.8776 20.8462 26.1299 20.3954 26.477 20.0704C26.8241 19.7454 27.2299 19.5828 27.6958 19.5828C28.1609 19.5828 28.4794 19.7401 28.6404 20.0522C28.805 20.3657 28.8086 20.8141 28.6476 21.3977L28.6447 21.3914ZM29.4864 18.323L29.2459 19.2002C29.1421 18.8856 28.9407 18.634 28.6429 18.4453C28.3445 18.2601 27.9752 18.1657 27.5347 18.1657C26.9944 18.1657 26.4755 18.302 25.9782 18.5746C25.4808 18.8472 25.0442 19.2316 24.6721 19.7279C24.2999 20.2241 24.028 20.7868 23.8526 21.4194C23.6809 22.0554 23.6451 22.6111 23.7489 23.0933C23.8562 23.5791 24.0816 23.9496 24.4287 24.2082C24.7794 24.4703 25.2267 24.5996 25.7742 24.5996C26.2092 24.6017 26.6394 24.5099 27.0338 24.3305C27.4237 24.1587 27.7705 23.9059 28.05 23.5896L27.7995 24.5038H29.6567L31.3525 18.3261H29.4917L29.4864 18.323ZM38.026 18.323H32.6253L32.2477 19.6999H35.3902L31.2358 23.2052L30.8808 24.4982H36.4559L36.8334 23.1213H33.4662L37.6843 19.5636L38.026 18.323ZM42.7798 21.3809C42.6127 21.989 42.3648 22.4461 42.0373 22.7439C41.7099 23.0444 41.3134 23.1947 40.8479 23.1947C39.8746 23.1947 39.5547 22.5901 39.8868 21.3809C40.0514 20.7798 40.3004 20.3279 40.6332 20.0235C40.966 19.7181 41.3693 19.5657 41.8434 19.5657C42.3086 19.5657 42.6227 19.717 42.7845 20.0218C42.9462 20.3258 42.9448 20.7791 42.7798 21.3802V21.3809ZM43.8669 18.5554C43.4393 18.2954 42.8936 18.1654 42.2281 18.1654C41.5543 18.1654 40.9306 18.2947 40.3566 18.5533C39.785 18.8103 39.2827 19.1939 38.8895 19.6737C38.4851 20.1595 38.1942 20.7291 38.0157 21.3792C37.8403 22.0267 37.8188 22.5953 37.9548 23.0822C38.0908 23.5679 38.3771 23.9419 38.8065 24.2005C39.2394 24.4612 39.7905 24.5909 40.4668 24.5909C41.1324 24.5909 41.7514 24.4602 42.3204 24.2001C42.8893 23.9387 43.376 23.5676 43.7803 23.0783C44.1847 22.5911 44.4745 22.0229 44.6535 21.3729C44.8324 20.7228 44.8538 20.1553 44.7179 19.6674C44.5819 19.1816 44.2992 18.8077 43.8734 18.5473L43.8669 18.5554ZM50.4969 19.9732L50.9728 18.2922C50.8118 18.2118 50.6006 18.1699 50.3358 18.1699C49.91 18.1699 49.5021 18.2727 49.1085 18.4809C48.77 18.6578 48.4823 18.9073 48.2389 19.2197L48.4858 18.3146L47.9466 18.3167H46.6226L44.9157 24.492H46.799L47.6847 21.2638C47.8135 20.7945 48.0453 20.4251 48.3799 20.163C48.7127 19.8998 49.1278 19.7681 49.6288 19.7681C49.9365 19.7681 50.2228 19.8369 50.4947 19.9743L50.4969 19.9732ZM55.737 21.4106C55.5759 21.9873 55.3326 22.4276 54.9998 22.7316C54.667 23.0371 54.2663 23.1895 53.8011 23.1895C53.3359 23.1895 53.0174 23.0357 52.8493 22.7281C52.6775 22.4189 52.6739 21.9733 52.8349 21.3875C52.996 20.8022 53.2429 20.3531 53.5828 20.0421C53.9228 19.7286 54.3235 19.572 54.7887 19.572C55.2467 19.572 55.5545 19.7328 55.7191 20.0578C55.8837 20.3828 55.8873 20.8336 55.7291 21.4103L55.737 21.4106ZM57.0459 18.5655C56.697 18.2929 56.2515 18.1566 55.7112 18.1566C55.2378 18.1566 54.7866 18.2615 54.3586 18.4733C53.931 18.6847 53.5839 18.973 53.3173 19.3379L53.3237 19.2959L53.6397 18.3139H51.8004L51.3317 20.0228L51.3174 20.0823L49.3851 27.1221H51.2709L52.2442 23.5784C52.3408 23.8937 52.5376 24.1411 52.8382 24.32C53.1387 24.4982 53.5098 24.5867 53.951 24.5867C54.4985 24.5867 55.0209 24.4574 55.5165 24.1987C56.0139 23.9394 56.4433 23.5662 56.8083 23.0839C57.1733 22.6016 57.4442 22.0425 57.617 21.4099C57.7924 20.7763 57.8281 20.2112 57.7279 19.7167C57.626 19.2215 57.4002 18.8381 57.0516 18.5669L57.0459 18.5655ZM63.3012 21.3855C63.1402 21.9691 62.8933 22.4164 62.5605 22.7239C62.2277 23.0336 61.8269 23.1877 61.3617 23.1877C60.8858 23.1877 60.5638 23.0374 60.3956 22.7334C60.2238 22.4293 60.2202 21.989 60.3777 21.4124C60.5351 20.8357 60.7863 20.3849 61.1334 20.0599C61.4805 19.7349 61.8867 19.5727 62.3526 19.5727C62.8178 19.5727 63.1327 19.73 63.2973 20.041C63.4619 20.3531 63.4629 20.8015 63.3026 21.3865L63.3012 21.3855ZM64.1421 18.3153L63.9013 19.1925C63.7975 18.8762 63.5971 18.6246 63.3001 18.4376C62.9995 18.251 62.631 18.158 62.1908 18.158C61.6505 18.158 61.1288 18.2943 60.6307 18.5669C60.1333 18.8395 59.6967 19.2218 59.3246 19.7167C58.9524 20.2116 58.6805 20.7756 58.5052 21.4082C58.3316 22.0432 58.2976 22.5999 58.4014 23.0843C58.5062 23.5665 58.732 23.9391 59.0813 24.1991C59.4298 24.4577 59.8792 24.5884 60.4267 24.5884C60.8669 24.5884 61.2873 24.4989 61.6863 24.3193C62.0753 24.1467 62.4212 23.8936 62.7 23.5774L62.4495 24.4923H64.3067L66.0021 18.317H64.145L64.1421 18.3153ZM73.7989 18.3174L73.8 18.3156H72.6585C72.622 18.3156 72.5898 18.3174 72.5565 18.3181H71.9643L71.6602 18.7305L71.585 18.8283L71.5528 18.8773L69.1464 22.1512L68.649 18.3174H66.6781L67.6764 24.1432L65.4722 27.1242H67.4367L67.9698 26.3858C67.9849 26.3641 67.9985 26.3459 68.0164 26.3229L68.639 25.4597L68.6569 25.4352L71.4455 21.5735L73.7964 18.3233L73.8 18.3212H73.7989V18.3174Z" fill="#072654"/>
</svg>
