<svg width="80" height="40" viewBox="0 0 80 40" fill="none" xmlns="http://www.w3.org/2000/svg">
<rect width="80" height="40" rx="6" fill="#646FDE"/>
<path d="M38.7441 14.0483L41.8113 13.4147V11L38.7441 11.6336V14.0483Z" fill="white"/>
<path d="M38.752 25.1661H41.8173V14.9492H38.752V25.1661Z" fill="white"/>
<path d="M25.7476 22.182C25.7476 18.6549 21.0782 19.2885 21.0782 17.9544L21.08 17.9579C21.08 17.4968 21.4797 17.3173 22.1177 17.3103C23.0453 17.3103 24.2278 17.5831 25.1555 18.0706V15.2827C24.1453 14.8955 23.1352 14.7424 22.125 14.7424C19.6518 14.7424 18 15.9955 18 18.0899C18 21.3706 22.642 20.8391 22.642 22.2524C22.642 22.7997 22.1525 22.9793 21.4705 22.9793C20.4603 22.9793 19.1532 22.5727 18.1302 22.0306V24.6988C19.2632 25.1705 20.4127 25.3711 21.465 25.3711C24.0005 25.3711 25.7476 24.3186 25.7476 22.182ZM48.1912 14.7459C46.9959 14.7459 46.2259 15.2933 45.7988 15.6735L45.6393 14.9378H42.9516V28.599L46.0041 27.9724L46.0114 24.6231C46.4514 24.9364 47.1041 25.3694 48.1711 25.3694C50.3601 25.3694 52.3529 23.8223 52.3529 20.0612C52.3584 16.6203 50.3381 14.7459 48.1912 14.7459ZM47.4634 22.9159C46.7484 22.9159 46.3213 22.6642 46.0261 22.3562L46.0059 17.9527C46.3213 17.613 46.7613 17.3666 47.4634 17.3666C48.5781 17.3666 49.3462 18.581 49.3462 20.128C49.3536 21.7209 48.5982 22.9159 47.4634 22.9159ZM57.5871 14.7459C54.6849 14.7459 52.9157 17.1395 52.9157 20.1562C52.9157 23.7237 55.0002 25.3711 57.9702 25.3711C59.4296 25.3711 60.5222 25.0508 61.3545 24.6037V22.3756C60.5222 22.7821 59.5671 23.0285 58.3571 23.0285C57.1654 23.0285 56.1222 22.622 55.9847 21.2351H61.9595C61.9742 21.0802 61.9999 20.4607 61.9999 20.1756C61.9999 17.1413 60.4874 14.7459 57.5871 14.7459ZM55.9554 19.0544C55.9554 17.7203 56.8024 17.1607 57.5651 17.1607C58.3149 17.1607 59.1124 17.7203 59.1124 19.0544H55.9554ZM31.662 17.4669V14.9466H29.3446L29.3373 12.377L26.3581 12.9912L26.3435 22.4882C26.3435 24.2429 27.7056 25.3764 29.5151 25.3764C30.5198 25.3764 31.255 25.1951 31.662 24.9821V22.7293C31.2696 22.8825 29.3428 23.4281 29.3428 21.6821V17.4669H31.662ZM38.0144 17.6675V14.9466C37.6019 14.8058 36.1793 14.547 35.4643 15.8213L35.2791 14.9466H32.6391V25.1634H35.6843V18.2871C36.4066 17.3683 37.6239 17.5479 38.0144 17.6675Z" fill="white"/>
<path d="M41.8173 19.8008H38.752V25.1653H41.8173V19.8008Z" fill="white"/>
<path d="M24.5145 19.8008H18.6075C19.8652 21.2317 22.6427 21.1595 22.6427 22.2525C22.6427 22.7998 22.1532 22.9794 21.4712 22.9794C20.461 22.9794 19.1539 22.5728 18.1309 22.0307V24.6989C19.2639 25.1706 20.4134 25.3712 21.4657 25.3712C24.0012 25.3712 25.7502 24.317 25.7502 22.1821C25.7483 20.9958 25.2185 20.2795 24.5145 19.8008ZM52.3481 19.8008H49.3359C49.3433 19.9081 49.3469 20.0173 49.3469 20.1281C49.3543 21.7227 48.5971 22.916 47.4641 22.916C46.7491 22.916 46.3219 22.6626 46.0268 22.3563L46.0158 19.8008H42.9541V28.6008L46.0066 27.9743L46.0139 24.625C46.4539 24.9383 47.1066 25.3712 48.1736 25.3712C50.3626 25.3712 52.3554 23.8242 52.3554 20.063C52.3536 19.975 52.3518 19.887 52.3481 19.8008ZM61.9914 19.8008H52.9238C52.9183 19.9187 52.9146 20.0384 52.9146 20.1581C52.9146 23.7256 54.9991 25.373 57.9691 25.373C59.4284 25.373 60.5211 25.0527 61.3534 24.6056V22.3774C60.5211 22.784 59.5659 23.0304 58.3559 23.0304C57.1642 23.0304 56.1211 22.6238 55.9836 21.237H61.9584C61.9731 21.0821 61.9987 20.4625 61.9987 20.1774H62.0006C62.0006 20.0507 61.9969 19.9257 61.9914 19.8008ZM29.3453 19.8008H26.3497L26.346 22.4901C26.346 24.2448 27.7082 25.3783 29.5177 25.3783C30.5223 25.3783 31.2575 25.197 31.6645 24.984V22.7312C31.4977 22.7963 31.0503 22.9336 30.5938 22.9336C29.9797 22.9336 29.3453 22.6854 29.3453 21.684V19.8008Z" fill="white"/>
<path d="M35.684 19.8008H32.6406V25.1653H35.684V19.8008Z" fill="white"/>
</svg>
