<svg xmlns="http://www.w3.org/2000/svg" width="15" height="15" viewBox="0 0 15 15">
    <g id="Group_1532" data-name="Group 1532" transform="translate(-99 -299)">
        <rect id="Rectangle_416" data-name="Rectangle 416" width="15" height="15" rx="7.5" transform="translate(99 299)" fill="#211e1f" opacity="0.5"/>
        <g id="Group_1367" data-name="Group 1367" transform="translate(100.477 295.377)">
            <g id="Group_1362" data-name="Group 1362" transform="translate(4.565 8.358)">
                <path id="Path_822" data-name="Path 822" d="M21.5,15.065l-4.686-.48a.778.778,0,0,0-.85.676l-.48,4.686a.778.778,0,0,0,.676.85l4.686.48a.778.778,0,0,0,.85-.676l.48-4.686A.778.778,0,0,0,21.5,15.065Zm-1,1.068a.811.811,0,1,1-.894.719A.783.783,0,0,1,20.5,16.133Zm.85,4.425a.409.409,0,0,1-.48.371l-4.686-.48a.409.409,0,0,1-.371-.48l.131-1.2,1.635-1.33a.272.272,0,0,1,.371.044l1.286,1.591a.109.109,0,1,0,.174-.131l-.2-.24.371-.305a.272.272,0,0,1,.371.044l1.417,1.744Z" transform="translate(-15.481 -14.581)" fill="#fff"/>
            </g>
            <g id="Group_1363" data-name="Group 1363" transform="translate(1.523 6.623)">
                <path id="Path_823" data-name="Path 823" d="M4.112,13.593l.523-4.97a.765.765,0,0,1,.85-.676l2.4.24-.218-.959a.772.772,0,0,0-.915-.589l-4.621,1a.772.772,0,0,0-.589.915l1,4.6a.772.772,0,0,0,.915.589Z" transform="translate(-1.523 -6.623)" fill="#fff"/>
            </g>
        </g>
    </g>
</svg>
