<svg xmlns="http://www.w3.org/2000/svg" width="35" height="35" viewBox="0 0 35 35">
  <circle id="Ellipse_228" data-name="Ellipse 228" cx="17.5" cy="17.5" r="17.5" fill="#ffd538"/>
  <path id="Icon_metro-bin" data-name="Icon metro-bin" d="M5.878,8.826v13.8A1.384,1.384,0,0,0,7.258,24H19.675a1.384,1.384,0,0,0,1.38-1.38V8.826H5.878Zm4.139,12.417H8.638V11.586h1.38Zm2.759,0H11.4V11.586h1.38Zm2.759,0h-1.38V11.586h1.38Zm2.759,0h-1.38V11.586H18.3ZM21.4,4.687H16.916V2.963a1.038,1.038,0,0,0-1.035-1.035H11.052a1.038,1.038,0,0,0-1.035,1.035V4.687H5.533A1.038,1.038,0,0,0,4.5,5.722V7.447H22.434V5.722A1.038,1.038,0,0,0,21.4,4.687Zm-5.863,0H11.4V3.325h4.139V4.687Z" transform="translate(4.501 4.072)"/>
</svg>
