<svg width="39" height="35" viewBox="0 0 39 35" fill="none" xmlns="http://www.w3.org/2000/svg">
<path d="M38.3253 28.6959L22.9964 2.02846C22.6417 1.41172 22.1317 0.899579 21.5176 0.543515C20.9034 0.18745 20.2068 0 19.4977 0C18.7886 0 18.0919 0.18745 17.4778 0.543515C16.8636 0.899579 16.3536 1.41172 15.999 2.02846L0.540807 28.914C0.186421 29.5308 -9.46007e-05 30.2305 3.59956e-08 30.9426C9.46727e-05 31.6548 0.186796 32.3544 0.541347 32.9711C0.895897 33.5879 1.40581 34.1 2.01985 34.4562C2.63389 34.8123 3.33044 34.9999 4.03951 35H34.9728C35.7024 34.9975 36.4178 34.7966 37.0429 34.4187C37.668 34.0407 38.1796 33.4999 38.5234 32.8535C38.8672 32.2071 39.0303 31.4792 38.9954 30.7472C38.9605 30.0152 38.7289 29.3064 38.3253 28.6959ZM34.9601 33.1934H4.04205C3.64802 33.1934 3.26093 33.0893 2.91969 32.8914C2.57846 32.6936 2.29511 32.4089 2.09815 32.0662C1.90118 31.7234 1.79755 31.3346 1.79766 30.9389C1.79777 30.5432 1.90163 30.1544 2.09879 29.8118L17.5536 2.92965C17.7507 2.58731 18.0341 2.30307 18.3752 2.10546C18.7162 1.90785 19.1031 1.80383 19.4968 1.80383C19.8906 1.80383 20.2774 1.90785 20.6185 2.10546C20.9596 2.30307 21.2429 2.58731 21.4401 2.92965L36.7867 29.6234C36.7977 29.6421 36.8095 29.6607 36.8214 29.6786C37.0498 30.0176 37.182 30.4127 37.2038 30.8215C37.2256 31.2303 37.1362 31.6373 36.9451 31.9989C36.7541 32.3605 36.4686 32.6631 36.1193 32.8741C35.7701 33.0851 35.3702 33.1967 34.9626 33.1968L34.9601 33.1934ZM19.4985 25.7335C19.1292 25.7328 18.7654 25.8236 18.4394 25.998C18.1134 26.1723 17.8353 26.4248 17.6298 26.733C17.4243 27.0412 17.2976 27.3955 17.2611 27.7646C17.2246 28.1338 17.2794 28.5062 17.4206 28.849C17.5618 29.1917 17.785 29.4942 18.0705 29.7295C18.356 29.9648 18.6949 30.1258 19.0571 30.198C19.4194 30.2702 19.7938 30.2516 20.1471 30.1436C20.5005 30.0357 20.8218 29.8419 21.0827 29.5793C21.3966 29.2645 21.6105 28.8632 21.6973 28.4263C21.7841 27.9893 21.7399 27.5364 21.5703 27.1247C21.4007 26.713 21.1133 26.361 20.7445 26.1134C20.3758 25.8658 19.9421 25.7336 19.4985 25.7335ZM19.4985 24.6991C19.9642 24.6991 20.4107 24.5133 20.74 24.1826C21.0692 23.8519 21.2542 23.4034 21.2542 22.9358V12.4202C21.2542 11.9524 21.0692 11.5038 20.7399 11.173C20.4105 10.8422 19.9639 10.6564 19.4981 10.6564C19.0324 10.6564 18.5857 10.8422 18.2563 11.173C17.927 11.5038 17.742 11.9524 17.742 12.4202V22.9425C17.7424 23.1742 17.7883 23.4035 17.877 23.6173C17.9657 23.8311 18.0955 24.0253 18.2589 24.1887C18.4223 24.3522 18.6162 24.4817 18.8295 24.5698C19.0428 24.658 19.2713 24.703 19.5019 24.7025L19.4985 24.6991Z" fill="#FF5A5A"/>
</svg>