<svg width="29" height="21" viewBox="0 0 29 21" fill="none" xmlns="http://www.w3.org/2000/svg">
<path d="M27.6781 0H1.32186C0.971279 0 0.635059 0.135259 0.387163 0.37602C0.139267 0.616782 0 0.943324 0 1.28381V10.198C0.000823624 10.538 0.140454 10.8637 0.388261 11.1038C0.636068 11.344 0.971817 11.4788 1.32186 11.4788H27.6781C28.0287 11.4788 28.3649 11.3435 28.6128 11.1028C28.8607 10.862 29 10.5355 29 10.195V1.28079C28.9992 0.940828 28.8595 0.61506 28.6117 0.374951C28.3639 0.134843 28.0282 -9.41078e-07 27.6781 0ZM11.5048 5.43732L10.1643 6.70301L10.4753 8.49129C10.4905 8.58905 10.4779 8.68896 10.4389 8.78029C10.4 8.87162 10.3361 8.9509 10.2542 9.00962C10.1723 9.06833 10.0755 9.10425 9.9742 9.11352C9.87286 9.12279 9.77084 9.10505 9.67911 9.06221L8.02445 8.2164L6.3698 9.06221C6.27729 9.10934 6.17304 9.1304 6.06885 9.12299C5.96466 9.11559 5.86469 9.08002 5.78023 9.0203C5.69577 8.96059 5.6302 8.87911 5.59093 8.78509C5.55166 8.69107 5.54026 8.58825 5.55802 8.48827L5.86905 6.69999L4.54719 5.42222C4.47239 5.35135 4.41951 5.26157 4.39453 5.16302C4.36954 5.06448 4.37345 4.96111 4.40582 4.86462C4.43818 4.76812 4.4977 4.68234 4.57766 4.617C4.65761 4.55165 4.75479 4.50934 4.85821 4.49486L6.69326 4.22903L7.52059 2.60085C7.56677 2.50973 7.63829 2.43299 7.72707 2.37933C7.81585 2.32567 7.91833 2.29722 8.0229 2.29722C8.12747 2.29722 8.22995 2.32567 8.31872 2.37933C8.4075 2.43299 8.47903 2.50973 8.5252 2.60085L9.35253 4.22903L11.2031 4.49183C11.3066 4.50632 11.4037 4.54863 11.4837 4.61398C11.5636 4.67933 11.6232 4.7651 11.6555 4.86159C11.6879 4.95809 11.6918 5.06146 11.6668 5.16C11.6418 5.25855 11.589 5.34833 11.5142 5.4192L11.5048 5.43732ZM23.2118 7.24977H15.4362C15.0609 7.24977 14.7009 7.10496 14.4355 6.8472C14.1701 6.58945 14.021 6.23985 14.021 5.87533C14.021 5.51081 14.1701 5.16122 14.4355 4.90346C14.7009 4.6457 15.0609 4.5009 15.4362 4.5009H23.2087C23.584 4.5009 23.944 4.6457 24.2094 4.90346C24.4748 5.16122 24.6239 5.51081 24.6239 5.87533C24.6239 6.23985 24.4748 6.58945 24.2094 6.8472C23.944 7.10496 23.584 7.24977 23.2087 7.24977H23.2118ZM23.7561 17.2635C23.7561 17.5968 23.6198 17.9164 23.3771 18.1521C23.1345 18.3877 22.8054 18.5201 22.4622 18.5201H15.374C15.1989 18.5285 15.024 18.5022 14.8597 18.4429C14.6954 18.3836 14.5453 18.2925 14.4184 18.1751C14.2914 18.0577 14.1904 17.9165 14.1213 17.7601C14.0523 17.6037 14.0167 17.4352 14.0167 17.265C14.0167 17.0948 14.0523 16.9264 14.1213 16.7699C14.1904 16.6135 14.2914 16.4723 14.4184 16.3549C14.5453 16.2376 14.6954 16.1465 14.8597 16.0872C15.024 16.0278 15.1989 16.0016 15.374 16.0099H22.4622C22.8049 16.0099 23.1335 16.1419 23.376 16.3769C23.6186 16.6119 23.7553 16.9308 23.7561 17.2635ZM11.8998 16.3573C11.93 16.4457 11.9337 16.5405 11.9106 16.6309C11.8875 16.7213 11.8384 16.8034 11.7692 16.8678L10.55 18.0247L10.8392 19.659C10.8514 19.7301 10.8475 19.803 10.8278 19.8726C10.8081 19.9422 10.7731 20.0068 10.7252 20.0619C10.6773 20.1171 10.6176 20.1615 10.5503 20.192C10.483 20.2226 10.4097 20.2386 10.3354 20.2389C10.2519 20.239 10.1697 20.2193 10.0959 20.1815L8.59052 19.4082L7.07894 20.1785C6.99457 20.2224 6.89918 20.2424 6.80367 20.2362C6.70815 20.2299 6.61638 20.1977 6.53884 20.1432C6.46129 20.0887 6.40111 20.0141 6.36517 19.9279C6.32922 19.8417 6.31897 19.7475 6.33558 19.6559L6.62484 18.0217L5.40251 16.8648C5.3341 16.8003 5.28569 16.7184 5.26275 16.6285C5.23981 16.5386 5.24328 16.4443 5.27275 16.3562C5.30222 16.2682 5.35652 16.1899 5.42948 16.1303C5.50245 16.0707 5.59116 16.0321 5.68554 16.019L7.37441 15.7803L8.1302 14.2941C8.17204 14.2105 8.23724 14.1401 8.31837 14.0907C8.39949 14.0414 8.49326 14.0153 8.58896 14.0153C8.68466 14.0153 8.77844 14.0414 8.85956 14.0907C8.94068 14.1401 9.00589 14.2105 9.04773 14.2941L9.80352 15.7803L11.4924 16.019C11.5861 16.0327 11.6739 16.0717 11.7459 16.1315C11.8179 16.1913 11.8713 16.2696 11.8998 16.3573Z" fill="#FFB92D"/>
</svg>
