<svg width="23" height="23" viewBox="0 0 23 23" fill="none" xmlns="http://www.w3.org/2000/svg">
<circle cx="11.5" cy="11.5" r="11.5" fill="#F4F4F4"/>
<path d="M16.2783 7.30161H14.2196L13.502 6H9.49802L8.78044 7.30161H6.72172C5.77238 7.30161 5 8.09161 5 9.06262V15.239C5 16.21 5.77238 17 6.72172 17H16.2783C17.2276 17 18 16.21 18 15.239V9.06262C18 8.09161 17.2276 7.30161 16.2783 7.30161ZM11.5 15.6344C9.71825 15.6344 8.26871 14.1516 8.26871 12.3294C8.26871 10.5073 9.71825 9.02449 11.5 9.02449C13.2818 9.02449 14.7313 10.5073 14.7313 12.3294C14.7313 14.1516 13.2818 15.6344 11.5 15.6344ZM12.024 10.0964H10.976V11.7808H9.32914V12.8528H10.976V14.5372H12.024V12.8528H13.6709V11.7808H12.024V10.0964Z" fill="#4B7BE5"/>
</svg>
