<svg xmlns="http://www.w3.org/2000/svg" width="46.156" height="41.246" viewBox="0 0 46.156 41.246">
    <g id="noun_Warning_928016" transform="translate(-6.565 -11.183)">
        <path id="Path_2593" data-name="Path 2593" d="M51.921,45,33.778,13.574a4.782,4.782,0,0,0-8.282,0L7.2,45.257a4.782,4.782,0,0,0,4.141,7.172H47.953A4.783,4.783,0,0,0,51.921,45Zm-3.983,5.3H11.344a2.656,2.656,0,0,1-2.3-3.985L27.336,14.636a2.657,2.657,0,0,1,4.6,0L50.1,46.093c.013.022.027.044.041.065a2.657,2.657,0,0,1-2.2,4.146Zm-18.3-8.791a2.656,2.656,0,1,0,1.875,4.532,2.654,2.654,0,0,0-1.875-4.532Zm0-1.219a2.078,2.078,0,0,0,2.078-2.078V25.82a2.078,2.078,0,1,0-4.157,0v12.4A2.078,2.078,0,0,0,29.642,40.294Z" fill="#ff5a5a"/>
    </g>
</svg>
