<svg width="35" height="66" viewBox="0 0 35 66" fill="none" xmlns="http://www.w3.org/2000/svg">
<g filter="url(#filter0_d_7075_5255)">
<path d="M5 1H27V57L16 45.2791L5 57V1Z" fill="#FFD700"/>
<path d="M5 1H27L30 5H5V1Z" fill="#FFD700"/>
<path d="M14.1201 17H12.7827V9.24951H13.9858L17.7886 14.5186H17.8799V9.24951H19.2119V17H18.0142L14.2114 11.7256H14.1201V17ZM16.0376 23.064C15.6401 23.064 15.3125 23.1947 15.0547 23.4561C14.7969 23.7174 14.6536 24.063 14.625 24.4927H17.3911C17.3768 24.0558 17.2479 23.7085 17.0044 23.4507C16.7609 23.1929 16.4386 23.064 16.0376 23.064ZM17.4019 26.3833H18.6641C18.5387 26.9204 18.2433 27.3447 17.7778 27.6562C17.3159 27.9642 16.7412 28.1182 16.0537 28.1182C15.1908 28.1182 14.5122 27.8496 14.0181 27.3125C13.5275 26.7718 13.2822 26.0288 13.2822 25.0835C13.2822 24.1382 13.5293 23.3898 14.0234 22.8384C14.5176 22.2834 15.1908 22.0059 16.043 22.0059C16.8809 22.0059 17.5361 22.269 18.0088 22.7954C18.485 23.3182 18.7231 24.0433 18.7231 24.9707V25.4004H14.6196V25.4702C14.6375 25.9608 14.7772 26.3493 15.0386 26.6357C15.3035 26.9186 15.6545 27.0601 16.0913 27.0601C16.7645 27.0601 17.2013 26.8345 17.4019 26.3833ZM20.168 33.124L18.5781 39H17.1763L16.0322 34.7676H15.9409L14.8022 39H13.4165L11.8267 33.124H13.1694L14.147 37.5122H14.2383L15.3662 33.124H16.6392L17.7778 37.5122H17.8691L18.8413 33.124H20.168Z" fill="black"/>
</g>
<defs>
<filter id="filter0_d_7075_5255" x="0" y="0" width="35" height="66" filterUnits="userSpaceOnUse" color-interpolation-filters="sRGB">
<feFlood flood-opacity="0" result="BackgroundImageFix"/>
<feColorMatrix in="SourceAlpha" type="matrix" values="0 0 0 0 0 0 0 0 0 0 0 0 0 0 0 0 0 0 127 0" result="hardAlpha"/>
<feOffset dy="4"/>
<feGaussianBlur stdDeviation="2.5"/>
<feComposite in2="hardAlpha" operator="out"/>
<feColorMatrix type="matrix" values="0 0 0 0 0 0 0 0 0 0 0 0 0 0 0 0 0 0 0.2 0"/>
<feBlend mode="normal" in2="BackgroundImageFix" result="effect1_dropShadow_7075_5255"/>
<feBlend mode="normal" in="SourceGraphic" in2="effect1_dropShadow_7075_5255" result="shape"/>
</filter>
</defs>
</svg>
