
<svg width="72" height="72" viewBox="0 0 72 72" fill="none" xmlns="http://www.w3.org/2000/svg">
<g filter="url(#filter0_d)">
<path d="M67.3927 34.5611C68.2024 32.9574 68.2024 31.0426 67.3927 29.4389L66.5543 27.7781C66.3715 27.4161 66.3076 27.0129 66.3695 26.612L66.6537 24.7735C66.9282 22.9981 66.3365 21.1769 65.0708 19.9019L63.7603 18.5816C63.4745 18.2937 63.2891 17.9299 63.2243 17.5295L62.9265 15.6931C62.642 13.9394 61.5382 12.4051 59.9687 11.5769L58.3564 10.6259C58.3251 10.6075 58.2935 10.59 58.2612 10.5735C57.9006 10.3882 57.6119 10.0995 57.4265 9.73872L56.5757 8.08434C55.7735 6.52421 54.1378 5.37049 52.3067 5.07347L50.4705 4.77569C50.07 4.71069 49.7063 4.52542 49.4184 4.23977L48.098 2.92904C46.823 1.66343 45.0023 1.07214 43.2266 1.34616L41.3881 1.63031C40.9869 1.69231 40.5839 1.62843 40.2219 1.44567L38.5611 0.607222C36.9575 -0.202345 35.0427 -0.20247 33.4391 0.607222L31.7782 1.44567C31.4163 1.62831 31.0132 1.69206 30.6121 1.63043L28.7735 1.34628C26.9978 1.07164 25.177 1.66356 23.902 2.92916L22.5815 4.23965C22.2938 4.52542 21.93 4.71069 21.5296 4.77569L19.693 5.07347C17.8621 5.37049 16.2264 6.52408 15.4242 8.08434L14.5735 9.73872C14.388 10.0994 14.0993 10.3882 13.7386 10.5735L12.084 11.4244C10.5239 12.2266 9.37019 13.8623 9.07329 15.6932L8.77539 17.5297C8.71051 17.9302 8.52512 18.2938 8.23935 18.5817L6.92899 19.9021C5.66339 21.177 5.07171 22.9981 5.34611 24.7735L5.63038 26.6121C5.69239 27.0129 5.62851 27.4161 5.44562 27.7781L4.60718 29.4389C3.79761 31.0425 3.79761 32.9573 4.60718 34.561L5.44562 36.2218C5.62838 36.5838 5.69226 36.987 5.63038 37.3879L5.34611 39.2265C5.07171 41.0019 5.66351 42.823 6.92899 44.0979L8.2396 45.4184C8.52537 45.7063 8.71076 46.07 8.77564 46.4705L9.07354 48.3068C9.37044 50.1378 10.5242 51.7736 12.0843 52.5758L13.7387 53.4265C14.0995 53.612 14.3881 53.9006 14.5736 54.2614L15.4243 55.9159C16.2266 57.476 17.8624 58.6298 19.6933 58.9267L21.5297 59.2246C21.9301 59.2896 22.2939 59.4748 22.5817 59.7605L23.9021 61.0712C25.1774 62.3368 26.9983 62.9281 28.7735 62.654L30.6122 62.3697C31.0129 62.3077 31.4163 62.3717 31.7782 62.5545L33.4391 63.3929C34.2409 63.7977 35.1204 64.0001 36 64.0001C36.8797 64.0001 37.7593 63.7977 38.5611 63.3929L40.2219 62.5545C40.5839 62.3717 40.9873 62.3079 41.388 62.3697L43.2265 62.6538C45.0019 62.9281 46.8229 62.3366 48.098 61.071L49.4184 59.7603C49.7061 59.4746 50.0699 59.2893 50.4705 59.2243L52.3067 58.9264C54.0604 58.642 55.5949 57.5383 56.4231 55.9687L57.374 54.3563C57.3924 54.325 57.4099 54.2934 57.4264 54.2611C57.6118 53.9005 57.9006 53.6118 58.2612 53.4263L59.9156 52.5756C61.5132 51.7542 62.6388 50.2051 62.9265 48.4317L63.2243 46.5954C63.2893 46.195 63.4745 45.8312 63.7603 45.5433C63.7802 45.5233 65.1037 44.0647 65.1037 44.0647C66.3466 42.7913 66.9258 40.9864 66.6537 39.2265L66.3695 37.388C66.3075 36.9871 66.3714 36.5838 66.5542 36.2218L67.3927 34.5611Z" fill="url(#paint0_linear)"/>
<path d="M36.0019 9.37354C23.5795 9.37354 13.375 19.5808 13.375 32.0004C13.375 44.4228 23.5822 54.6273 36.0019 54.6273C48.4243 54.6273 58.6287 44.4201 58.6287 32.0004C58.6287 19.578 48.4214 9.37354 36.0019 9.37354ZM49.0719 26.8297L45.3216 41.831C45.113 42.6657 44.3629 43.2513 43.5025 43.2513H28.5012C27.6408 43.2513 26.8907 42.6657 26.6821 41.831L22.9318 26.8297C22.7109 25.946 23.1571 25.0313 23.9895 24.6613C24.8218 24.2914 25.7998 24.5733 26.3077 25.3295C26.8209 26.0838 28.6771 28.2501 30.3764 28.2501C30.6869 28.2501 31.649 27.5273 32.6401 25.2928C33.5293 23.2883 34.1267 20.709 34.1267 18.8743C34.1267 17.8387 34.9663 16.9992 36.0019 16.9992C37.0375 16.9992 37.877 17.8387 37.877 18.8743C37.877 20.709 38.4744 23.2883 39.3636 25.2928C40.3549 27.5273 41.3168 28.2501 41.6273 28.2501C43.3771 28.2501 45.2818 25.9464 45.696 25.3295C46.204 24.5734 47.182 24.2915 48.0142 24.6613C48.8467 25.0313 49.2928 25.946 49.0719 26.8297Z" fill="url(#paint1_linear)"/>
</g>
<defs>
<filter id="filter0_d" x="0" y="0" width="72" height="72.0001" filterUnits="userSpaceOnUse" color-interpolation-filters="sRGB">
<feFlood flood-opacity="0" result="BackgroundImageFix"/>
<feColorMatrix in="SourceAlpha" type="matrix" values="0 0 0 0 0 0 0 0 0 0 0 0 0 0 0 0 0 0 127 0" result="hardAlpha"/>
<feOffset dy="4"/>
<feGaussianBlur stdDeviation="2"/>
<feColorMatrix type="matrix" values="0 0 0 0 0 0 0 0 0 0 0 0 0 0 0 0 0 0 0.25 0"/>
<feBlend mode="normal" in2="BackgroundImageFix" result="effect1_dropShadow"/>
<feBlend mode="normal" in="SourceGraphic" in2="effect1_dropShadow" result="shape"/>
</filter>
<linearGradient id="paint0_linear" x1="36" y1="64.0001" x2="36" y2="4.57764e-05" gradientUnits="userSpaceOnUse">
<stop stop-color="#FD5900"/>
<stop offset="1" stop-color="#FFDE00"/>
</linearGradient>
<linearGradient id="paint1_linear" x1="36.0019" y1="54.6273" x2="36.0019" y2="9.37354" gradientUnits="userSpaceOnUse">
<stop stop-color="#FFE59A"/>
<stop offset="1" stop-color="#FFFFD5"/>
</linearGradient>
</defs>
</svg>