<svg width="19" height="19" viewBox="0 0 19 19" fill="none" xmlns="http://www.w3.org/2000/svg">
    <path d="M7.44031 2.37466C7.56628 2.37466 7.68709 2.33891 7.77617 2.27528C7.86524 2.21166 7.91529 2.12536 7.9153 2.03538V0.678243C7.9153 0.588259 7.86525 0.501961 7.77618 0.438333C7.6871 0.374705 7.56629 0.338959 7.44031 0.338959C7.31434 0.338959 7.19353 0.374705 7.10445 0.438333C7.01537 0.501961 6.96533 0.588259 6.96533 0.678243V2.03538C6.96534 2.12536 7.01538 2.21166 7.10446 2.27528C7.19353 2.33891 7.31434 2.37466 7.44031 2.37466Z" fill="black" />
    <path d="M6.01636 2.37466C6.10034 2.37466 6.18088 2.33891 6.24027 2.27528C6.29965 2.21166 6.33301 2.12536 6.33302 2.03538V0.678243C6.33302 0.588259 6.29965 0.501961 6.24027 0.438333C6.18089 0.374705 6.10034 0.338959 6.01636 0.338959C5.93238 0.338959 5.85184 0.374705 5.79245 0.438333C5.73307 0.501961 5.69971 0.588259 5.69971 0.678243V2.03538C5.69971 2.12536 5.73307 2.21166 5.79246 2.27528C5.85184 2.33891 5.93238 2.37466 6.01636 2.37466Z" fill="black" />
    <path d="M8.58367 1.46097H9.25691V1.98299C9.25692 2.08682 9.29392 2.18638 9.35979 2.2598C9.42566 2.33321 9.515 2.37446 9.60816 2.37446H11.3644C11.4575 2.37446 11.5469 2.33322 11.6127 2.2598C11.6786 2.18639 11.7156 2.08682 11.7156 1.98299C11.7156 1.87917 11.6786 1.7796 11.6127 1.70619C11.5469 1.63277 11.4575 1.59153 11.3644 1.59153H9.9594V1.06951C9.9594 0.965684 9.92239 0.866116 9.85652 0.792703C9.79065 0.71929 9.70131 0.678045 9.60816 0.67804H8.58367C8.49051 0.67804 8.40117 0.719283 8.3353 0.792698C8.26943 0.866112 8.23242 0.965683 8.23242 1.06951C8.23242 1.17333 8.26943 1.2729 8.3353 1.34631C8.40117 1.41973 8.49051 1.46097 8.58367 1.46097Z" fill="black" />
    <path d="M7.6001 4.79488C7.6001 4.89674 7.63823 4.99442 7.70609 5.06645C7.77396 5.13847 7.866 5.17894 7.96198 5.17895H8.50479V5.72317C8.50479 5.82503 8.54292 5.92272 8.61078 5.99474C8.67865 6.06677 8.77069 6.10723 8.86667 6.10723C8.96265 6.10723 9.05469 6.06677 9.12256 5.99474C9.19042 5.92272 9.22855 5.82503 9.22855 5.72317V5.17895H9.77146C9.86743 5.17895 9.95948 5.13848 10.0273 5.06645C10.0952 4.99443 10.1333 4.89674 10.1333 4.79488C10.1333 4.69302 10.0952 4.59533 10.0273 4.5233C9.95948 4.45128 9.86743 4.41081 9.77146 4.41081H7.96198C7.866 4.41082 7.77396 4.45128 7.70609 4.52331C7.63823 4.59533 7.6001 4.69302 7.6001 4.79488Z" fill="black" />
    <path d="M5.76426 3.76456H6.61923V4.53529H6.01752C5.91675 4.5353 5.8201 4.57278 5.74884 4.63949C5.67758 4.70621 5.63754 4.79669 5.63754 4.89104V5.75088C5.63754 5.84523 5.67757 5.93572 5.74883 6.00243C5.82009 6.06915 5.91674 6.10663 6.01752 6.10663C6.1183 6.10663 6.21495 6.06915 6.28621 6.00243C6.35747 5.93572 6.39751 5.84523 6.39751 5.75088V5.24679H6.99921C7.09999 5.24678 7.19664 5.2093 7.2679 5.14259C7.33916 5.07587 7.3792 4.98539 7.3792 4.89104V3.76456H7.85418C7.95496 3.76456 8.05161 3.72708 8.12287 3.66037C8.19413 3.59365 8.23417 3.50317 8.23417 3.40882C8.23417 3.31447 8.19413 3.22398 8.12287 3.15727C8.05161 3.09055 7.95496 3.05307 7.85418 3.05307H5.76426C5.66348 3.05307 5.56683 3.09055 5.49557 3.15727C5.42431 3.22398 5.38428 3.31447 5.38428 3.40882C5.38428 3.50317 5.42431 3.59365 5.49557 3.66037C5.56683 3.72708 5.66348 3.76456 5.76426 3.76456Z" fill="black" />
    <path d="M12.0206 8.37282V7.5324H12.6326C12.7253 7.5324 12.8142 7.49305 12.8798 7.423C12.9454 7.35296 12.9822 7.25795 12.9822 7.15889C12.9822 7.05982 12.9454 6.96482 12.8798 6.89477C12.8142 6.82472 12.7253 6.78537 12.6326 6.78537H11.6709C11.5782 6.78537 11.4893 6.82473 11.4237 6.89478C11.3581 6.96482 11.3213 7.05983 11.3212 7.15889V7.9993H9.83527V7.78135C9.83527 7.7323 9.82622 7.68372 9.80864 7.6384C9.79106 7.59308 9.76529 7.5519 9.73281 7.51721C9.70034 7.48253 9.66178 7.45502 9.61935 7.43625C9.57691 7.41748 9.53143 7.40783 9.48551 7.40784H8.5821C8.48936 7.40784 8.40042 7.44719 8.33484 7.51724C8.26926 7.58728 8.23242 7.68229 8.23242 7.78135C8.23242 7.88042 8.26926 7.97542 8.33484 8.04547C8.40042 8.11552 8.48936 8.15487 8.5821 8.15487H9.13583V8.37282C9.13583 8.47188 9.17267 8.56688 9.23825 8.63693C9.30383 8.70698 9.39277 8.74633 9.48551 8.74633H10.3596V9.43118H8.84436C8.75162 9.43118 8.66268 9.47053 8.5971 9.54058C8.53152 9.61063 8.49468 9.70563 8.49468 9.80469C8.49468 9.90376 8.53152 9.99876 8.5971 10.0688C8.66268 10.1389 8.75162 10.1782 8.84436 10.1782H10.7093C10.802 10.1782 10.891 10.1389 10.9566 10.0688C11.0221 9.99876 11.059 9.90376 11.059 9.80469V8.74633H11.6709C11.7637 8.74633 11.8526 8.70697 11.9182 8.63693C11.9838 8.56688 12.0206 8.47188 12.0206 8.37282Z" fill="black" />
    <path d="M6.96533 11.2367C6.96534 11.3375 6.99941 11.4342 7.06005 11.5054C7.1207 11.5767 7.20295 11.6167 7.28872 11.6167H7.90856V12.8517C7.90856 12.9525 7.94264 13.0492 8.00328 13.1204C8.06393 13.1917 8.14618 13.2317 8.23195 13.2317C8.31772 13.2317 8.39997 13.1917 8.46062 13.1204C8.52126 13.0492 8.55533 12.9525 8.55533 12.8517V11.6167H9.17518C9.26095 11.6167 9.3432 11.5767 9.40385 11.5054C9.4645 11.4342 9.49857 11.3375 9.49857 11.2367C9.49857 11.136 9.4645 11.0393 9.40385 10.968C9.3432 10.8968 9.26095 10.8568 9.17518 10.8568H7.28872C7.20295 10.8568 7.1207 10.8968 7.06005 10.9681C6.99941 11.0393 6.96534 11.136 6.96533 11.2367Z" fill="black" />
    <path d="M3.16847 2.0358H1.90186V3.05365H3.16847V2.0358Z" fill="black" />
    <path d="M0 0.363519V4.72574C4.79854e-06 4.82215 0.038134 4.91461 0.106001 4.98278C0.173867 5.05096 0.265913 5.08926 0.361891 5.08926H4.70458C4.80056 5.08926 4.8926 5.05096 4.96047 4.98278C5.02834 4.91461 5.06647 4.82215 5.06647 4.72574V0.363519C5.06647 0.267109 5.02834 0.174649 4.96047 0.106477C4.8926 0.0383055 4.80056 4.82012e-06 4.70458 0H0.361891C0.265913 4.82012e-06 0.173867 0.0383055 0.106001 0.106477C0.038134 0.174649 4.79854e-06 0.267109 0 0.363519ZM1.26662 1.63583C1.26662 1.53942 1.30475 1.44696 1.37262 1.37879C1.44049 1.31062 1.53253 1.27232 1.62851 1.27232H3.43796C3.53394 1.27232 3.62599 1.31062 3.69385 1.37879C3.76172 1.44696 3.79985 1.53942 3.79985 1.63583V3.45343C3.79985 3.54984 3.76172 3.6423 3.69385 3.71047C3.62599 3.77864 3.53394 3.81694 3.43796 3.81695H1.62851C1.53253 3.81694 1.44049 3.77864 1.37262 3.71047C1.30475 3.6423 1.26662 3.54984 1.26662 3.45343V1.63583Z" fill="black" />
    <path d="M4.70458 13.9109H0.361891C0.265913 13.9109 0.173867 13.9492 0.106001 14.0174C0.038134 14.0855 4.79854e-06 14.178 0 14.2744V18.6366C4.79854e-06 18.733 0.038134 18.8255 0.106001 18.8937C0.173867 18.9618 0.265913 19.0001 0.361891 19.0001H4.70458C4.80056 19.0001 4.8926 18.9618 4.96047 18.8937C5.02834 18.8255 5.06647 18.733 5.06647 18.6366V14.2744C5.06647 14.178 5.02834 14.0855 4.96047 14.0174C4.8926 13.9492 4.80056 13.9109 4.70458 13.9109ZM3.79985 17.3643C3.79985 17.4607 3.76172 17.5532 3.69385 17.6213C3.62599 17.6895 3.53394 17.7278 3.43796 17.7278H1.62851C1.53253 17.7278 1.44049 17.6895 1.37262 17.6213C1.30475 17.5532 1.26662 17.4607 1.26662 17.3643V15.5467C1.26662 15.4503 1.30475 15.3578 1.37262 15.2897C1.44049 15.2215 1.53253 15.1832 1.62851 15.1832H3.43796C3.53394 15.1832 3.62599 15.2215 3.69385 15.2897C3.76172 15.3578 3.79985 15.4503 3.79985 15.5467V17.3643Z" fill="black" />
    <path d="M3.16847 15.9459H1.90186V16.9637H3.16847V15.9459Z" fill="black" />
    <path d="M17.0996 2.0358H15.833V3.05365H17.0996V2.0358Z" fill="black" />
    <path d="M14.295 5.08912H18.6377C18.7337 5.08912 18.8257 5.05082 18.8936 4.98265C18.9614 4.91448 18.9996 4.82202 18.9996 4.72561V0.363381C18.9996 0.266972 18.9614 0.174512 18.8936 0.10634C18.8257 0.0381682 18.7337 -0.000132509 18.6377 -0.000137329H14.295C14.199 -0.000132509 14.107 0.0381682 14.0391 0.10634C13.9712 0.174512 13.9331 0.266972 13.9331 0.363381V4.72561C13.9331 4.82202 13.9712 4.91448 14.0391 4.98265C14.107 5.05082 14.199 5.08912 14.295 5.08912ZM15.1997 1.6357C15.1997 1.53929 15.2379 1.44683 15.3057 1.37866C15.3736 1.31048 15.4656 1.27218 15.5616 1.27218H17.3711C17.467 1.27218 17.5591 1.31048 17.627 1.37866C17.6948 1.44683 17.733 1.53929 17.733 1.6357V3.45329C17.733 3.5497 17.6948 3.64216 17.627 3.71033C17.5591 3.7785 17.467 3.8168 17.3711 3.81681H15.5616C15.4656 3.8168 15.3736 3.7785 15.3057 3.71033C15.2379 3.64216 15.1997 3.5497 15.1997 3.45329V1.6357Z" fill="black" />
    <path d="M17.0996 15.9459H15.833V16.9637H17.0996V15.9459Z" fill="black" />
    <path d="M18.9996 18.6366V14.2744C18.9996 14.178 18.9614 14.0855 18.8936 14.0174C18.8257 13.9492 18.7337 13.9109 18.6377 13.9109H14.295C14.199 13.9109 14.107 13.9492 14.0391 14.0174C13.9712 14.0855 13.9331 14.178 13.9331 14.2744V18.6366C13.9331 18.733 13.9712 18.8255 14.0391 18.8937C14.107 18.9618 14.199 19.0001 14.295 19.0001H18.6377C18.7337 19.0001 18.8257 18.9618 18.8936 18.8937C18.9614 18.8255 18.9996 18.733 18.9996 18.6366ZM17.733 17.3643C17.733 17.4607 17.6948 17.5532 17.627 17.6213C17.5591 17.6895 17.467 17.7278 17.3711 17.7278H15.5616C15.4656 17.7278 15.3736 17.6895 15.3057 17.6213C15.2379 17.5532 15.1997 17.4607 15.1997 17.3643V15.5467C15.1997 15.4503 15.2379 15.3578 15.3057 15.2897C15.3736 15.2215 15.4656 15.1832 15.5616 15.1832H17.3711C17.467 15.1832 17.5591 15.2215 17.627 15.2897C17.6948 15.3578 17.733 15.4503 17.733 15.5467V17.3643Z" fill="black" />
    <path d="M5.63278 8.13843V10.4776C5.63278 10.5782 5.6696 10.6746 5.73513 10.7458C5.80065 10.8169 5.88953 10.8569 5.9822 10.8569C6.07487 10.8569 6.16374 10.8169 6.22927 10.7458C6.2948 10.6746 6.33161 10.5782 6.33161 10.4776V7.7591C6.3316 7.6585 6.29479 7.56202 6.22926 7.49088C6.16374 7.41974 6.07486 7.37978 5.9822 7.37977H1.96396V6.14695C1.96396 6.04635 1.92715 5.94986 1.86162 5.87873C1.79609 5.80759 1.70722 5.76762 1.61455 5.76762C1.52188 5.76762 1.433 5.80759 1.36748 5.87873C1.30195 5.94986 1.26514 6.04635 1.26514 6.14695V7.7591C1.26514 7.8597 1.30196 7.95618 1.36748 8.02732C1.43301 8.09846 1.52188 8.13842 1.61455 8.13843H2.31337V9.90856C2.31338 10.0092 2.35019 10.1056 2.41572 10.1768C2.48124 10.2479 2.57012 10.2879 2.66278 10.2879H4.23514C4.32781 10.2879 4.41668 10.2479 4.48221 10.1768C4.54774 10.1057 4.58455 10.0092 4.58455 9.90856C4.58455 9.80796 4.54774 9.71148 4.48221 9.64034C4.41668 9.5692 4.32781 9.52924 4.23514 9.52924H3.0122V8.13843H5.63278Z" fill="black" />
    <path d="M3.2028 6.10672C3.10874 6.10672 3.01853 6.14247 2.95202 6.20609C2.88551 6.26972 2.84814 6.35602 2.84814 6.446C2.84814 6.53599 2.88551 6.62229 2.95202 6.68591C3.01853 6.74954 3.10874 6.78529 3.2028 6.78529H4.71007C4.80413 6.78529 4.89434 6.74954 4.96085 6.68591C5.02736 6.62229 5.06473 6.53599 5.06473 6.446C5.06473 6.35602 5.02736 6.26972 4.96085 6.20609C4.89434 6.14247 4.80413 6.10672 4.71007 6.10672H3.2028Z" fill="black" />
    <path d="M7.28467 6.10691V6.78548C7.28467 6.87546 7.33471 6.96176 7.42379 7.02539C7.51286 7.08902 7.63368 7.12476 7.75965 7.12476C7.88562 7.12476 8.00644 7.08902 8.09551 7.02539C8.18459 6.96176 8.23463 6.87546 8.23463 6.78548V6.10691C8.23463 6.01692 8.18459 5.93063 8.09551 5.867C8.00644 5.80337 7.88562 5.76762 7.75965 5.76762C7.63368 5.76762 7.51286 5.80337 7.42379 5.867C7.33471 5.93063 7.28467 6.01692 7.28467 6.10691Z" fill="black" />
    <path d="M5.72972 14.5894H8.83869C8.93031 14.5894 9.01817 14.55 9.08295 14.4799C9.14774 14.4098 9.18413 14.3147 9.18413 14.2155C9.18413 14.1163 9.14774 14.0212 9.08295 13.9511C9.01817 13.881 8.93031 13.8416 8.83869 13.8416H6.07516V11.9098C6.07516 11.8106 6.03877 11.7155 5.97398 11.6454C5.9092 11.5753 5.82134 11.5359 5.72972 11.5359C5.6381 11.5359 5.55024 11.5753 5.48545 11.6454C5.42067 11.7155 5.38428 11.8106 5.38428 11.9098V14.2155C5.38428 14.3147 5.42068 14.4098 5.48546 14.4799C5.55024 14.55 5.6381 14.5894 5.72972 14.5894Z" fill="black" />
    <path d="M6.6499 12.543V13.2422C6.6499 13.3294 6.68326 13.4131 6.74265 13.4748C6.80203 13.5365 6.88257 13.5712 6.96656 13.5712C7.05054 13.5712 7.13108 13.5365 7.19047 13.4748C7.24985 13.4131 7.28321 13.3294 7.28321 13.2422V12.543C7.28321 12.4558 7.24985 12.3721 7.19047 12.3104C7.13108 12.2487 7.05054 12.214 6.96656 12.214C6.88257 12.214 6.80203 12.2487 6.74265 12.3104C6.68326 12.3721 6.6499 12.4558 6.6499 12.543Z" fill="black" />
    <path d="M11.7156 3.43005C11.7156 3.33007 11.6781 3.23419 11.6113 3.16349C11.5445 3.09279 11.4539 3.05308 11.3594 3.05307H9.22196C9.12748 3.05307 9.03687 3.09279 8.97006 3.16349C8.90325 3.23418 8.86572 3.33007 8.86572 3.43005C8.86572 3.53003 8.90325 3.62592 8.97006 3.69662C9.03687 3.76732 9.12748 3.80703 9.22196 3.80703H10.4688V4.37251C10.4688 4.47249 10.5063 4.56838 10.5731 4.63908C10.6399 4.70977 10.7305 4.74949 10.825 4.74949C10.9195 4.74949 11.0101 4.70977 11.0769 4.63908C11.1437 4.56838 11.1813 4.47249 11.1813 4.37251V3.80703H11.3594C11.4539 3.80703 11.5445 3.76731 11.6113 3.69661C11.6781 3.62592 11.7156 3.53003 11.7156 3.43005Z" fill="black" />
    <path d="M13.8939 8.09182C13.8939 8.1952 13.9294 8.29435 13.9924 8.36746C14.0555 8.44056 14.141 8.48163 14.2302 8.48163C14.3194 8.48163 14.4049 8.44056 14.468 8.36746C14.531 8.29435 14.5664 8.1952 14.5664 8.09182V5.81788C14.5664 5.7145 14.531 5.61535 14.468 5.54225C14.4049 5.46915 14.3194 5.42808 14.2302 5.42807H11.7362C11.647 5.42807 11.5615 5.46914 11.4984 5.54224C11.4353 5.61534 11.3999 5.71449 11.3999 5.81788C11.3999 5.92126 11.4353 6.02041 11.4984 6.09351C11.5615 6.16662 11.647 6.20769 11.7362 6.20769H13.8939V8.09182Z" fill="black" />
    <path d="M12.9822 10.5174C13.0662 10.5174 13.1467 10.4772 13.2061 10.4056C13.2655 10.334 13.2988 10.237 13.2988 10.1357V8.86345C13.2988 8.76222 13.2655 8.66512 13.2061 8.59354C13.1467 8.52195 13.0662 8.48174 12.9822 8.48174C12.8982 8.48174 12.8177 8.52195 12.7583 8.59354C12.6989 8.66512 12.6655 8.76222 12.6655 8.86345V10.1357C12.6655 10.237 12.6989 10.334 12.7583 10.4056C12.8177 10.4772 12.8982 10.5174 12.9822 10.5174Z" fill="black" />
    <path d="M11.0842 13.2317C11.1682 13.2317 11.2488 13.19 11.3081 13.1158C11.3675 13.0416 11.4009 12.9409 11.4009 12.8359V11.2526C11.4009 11.1476 11.3675 11.0469 11.3081 10.9727C11.2488 10.8985 11.1682 10.8568 11.0842 10.8568H10.4509C10.3669 10.8568 10.2864 10.8985 10.227 10.9727C10.1676 11.0469 10.1343 11.1476 10.1343 11.2526C10.1343 11.3576 10.1676 11.4582 10.227 11.5325C10.2864 11.6067 10.3669 11.6484 10.4509 11.6484H10.7676V12.8359C10.7676 12.9409 10.801 13.0416 10.8603 13.1158C10.9197 13.19 11.0003 13.2317 11.0842 13.2317Z" fill="black" />
    <path d="M9.81665 12.214C9.73267 12.214 9.65213 12.2489 9.59275 12.311C9.53337 12.3731 9.5 12.4573 9.5 12.545V13.5794C9.5 13.6672 9.53336 13.7514 9.59275 13.8135C9.65213 13.8756 9.73267 13.9105 9.81665 13.9105C9.90064 13.9105 9.98118 13.8756 10.0406 13.8135C10.0999 13.7514 10.1333 13.6672 10.1333 13.5794V12.545C10.1333 12.4573 10.0999 12.3731 10.0406 12.311C9.98118 12.2489 9.90064 12.214 9.81665 12.214Z" fill="black" />
    <path d="M12.6648 14.2224V11.5631C12.6648 11.4658 12.6275 11.3725 12.5609 11.3037C12.4944 11.2349 12.4042 11.1963 12.3102 11.1963C12.2161 11.1963 12.1259 11.2349 12.0594 11.3037C11.9929 11.3725 11.9555 11.4658 11.9555 11.5631V13.8556H10.8029C10.7088 13.8556 10.6186 13.8942 10.5521 13.963C10.4856 14.0318 10.4482 14.1251 10.4482 14.2224C10.4482 14.3196 10.4856 14.4129 10.5521 14.4817C10.6186 14.5505 10.7088 14.5891 10.8029 14.5891H12.3102C12.4042 14.5891 12.4944 14.5505 12.5609 14.4817C12.6275 14.4129 12.6648 14.3196 12.6648 14.2224Z" fill="black" />
    <path d="M14.2894 9.83926H15.4768C15.5713 9.83926 15.6619 9.80026 15.7287 9.73085C15.7955 9.66144 15.833 9.5673 15.833 9.46914V8.17369C15.833 8.07552 15.7955 7.98138 15.7287 7.91197C15.6619 7.84255 15.5713 7.80356 15.4768 7.80356C15.3823 7.80356 15.2917 7.84255 15.2249 7.91197C15.158 7.98138 15.1205 8.07552 15.1205 8.17369V9.09901H14.2894C14.1949 9.09901 14.1043 9.138 14.0375 9.20741C13.9706 9.27683 13.9331 9.37097 13.9331 9.46914C13.9331 9.5673 13.9706 9.66144 14.0375 9.73086C14.1043 9.80027 14.1949 9.83926 14.2894 9.83926Z" fill="black" />
    <path d="M17.3816 7.12476C17.4751 7.12476 17.5648 7.09238 17.6309 7.03475C17.697 6.97713 17.7342 6.89897 17.7342 6.81747V6.07491C17.7342 5.99342 17.697 5.91526 17.6309 5.85763C17.5648 5.8 17.4751 5.76763 17.3816 5.76762H15.2368C15.1433 5.76762 15.0537 5.8 14.9875 5.85763C14.9214 5.91525 14.8843 5.99341 14.8843 6.07491C14.8843 6.15641 14.9214 6.23457 14.9875 6.2922C15.0537 6.34982 15.1433 6.3822 15.2368 6.3822H17.0291V6.81747C17.0291 6.89897 17.0662 6.97713 17.1323 7.03475C17.1984 7.09238 17.2881 7.12476 17.3816 7.12476Z" fill="black" />
    <path d="M19.0003 7.46419C19.0003 7.37421 18.9627 7.28791 18.8959 7.22428C18.8291 7.16065 18.7385 7.12491 18.644 7.12491C18.5496 7.12491 18.459 7.16065 18.3921 7.22428C18.3253 7.28791 18.2878 7.37421 18.2878 7.46419V8.48205H16.8629V7.5742C16.8629 7.48421 16.8253 7.39791 16.7585 7.33429C16.6917 7.27066 16.6011 7.23491 16.5066 7.23491C16.4121 7.23491 16.3215 7.27066 16.2547 7.33429C16.1879 7.39791 16.1504 7.48421 16.1504 7.5742V8.82133C16.1504 8.91131 16.1879 8.99761 16.2547 9.06123C16.3215 9.12486 16.4121 9.16061 16.5066 9.16061H18.644C18.7385 9.16061 18.8291 9.12486 18.8959 9.06123C18.9627 8.99761 19.0003 8.91131 19.0003 8.82133V7.46419Z" fill="black" />
    <path d="M6.96755 16.1188H6.01759V15.6606C6.01759 15.5564 5.98422 15.4564 5.92484 15.3828C5.86546 15.3091 5.78491 15.2677 5.70093 15.2677C5.61695 15.2677 5.53641 15.3091 5.47702 15.3828C5.41764 15.4564 5.38428 15.5564 5.38428 15.6606V16.5117C5.38428 16.6159 5.41764 16.7158 5.47703 16.7895C5.53641 16.8631 5.61695 16.9045 5.70093 16.9045H6.65089V18.607C6.65089 18.7112 6.68426 18.8111 6.74364 18.8848C6.80302 18.9584 6.88357 18.9998 6.96755 18.9998C7.05153 18.9998 7.13207 18.9584 7.19146 18.8848C7.25084 18.8111 7.2842 18.7112 7.2842 18.607V16.5117C7.2842 16.4075 7.25084 16.3076 7.19145 16.2339C7.13207 16.1602 7.05153 16.1188 6.96755 16.1188Z" fill="black" />
    <path d="M11.9869 18.2595H10.1415V17.3342C10.1415 17.236 10.1033 17.1419 10.0352 17.0725C9.96709 17.0031 9.87475 16.9641 9.77846 16.9641H7.96314C7.86686 16.9641 7.77452 17.0031 7.70643 17.0725C7.63835 17.1419 7.6001 17.236 7.6001 17.3342C7.6001 17.4324 7.63835 17.5265 7.70643 17.5959C7.77452 17.6653 7.86686 17.7043 7.96314 17.7043H9.41542V18.6297C9.41542 18.7278 9.45367 18.822 9.52176 18.8914C9.58984 18.9608 9.68218 18.9998 9.77846 18.9998H11.9869C12.0832 18.9998 12.1755 18.9608 12.2436 18.8914C12.3117 18.822 12.3499 18.7278 12.3499 18.6297C12.3499 18.5315 12.3117 18.4373 12.2436 18.3679C12.1755 18.2985 12.0832 18.2595 11.9869 18.2595Z" fill="black" />
    <path d="M13.2512 15.9459C13.1547 15.9459 13.0622 15.9881 12.9939 16.0632C12.9257 16.1383 12.8874 16.2401 12.8874 16.3463V17.1807H11.129C11.0325 17.1807 10.9399 17.2229 10.8717 17.2979C10.8035 17.373 10.7651 17.4749 10.7651 17.5811C10.7651 17.6873 10.8035 17.7892 10.8717 17.8643C10.9399 17.9394 11.0325 17.9816 11.129 17.9816H13.2512C13.3477 17.9816 13.4402 17.9394 13.5085 17.8643C13.5767 17.7892 13.615 17.6873 13.615 17.5811V16.3463C13.615 16.2401 13.5767 16.1383 13.5085 16.0632C13.4402 15.9881 13.3477 15.9459 13.2512 15.9459Z" fill="black" />
    <path d="M7.96314 16.2854H11.9869C12.0832 16.2854 12.1755 16.2496 12.2436 16.186C12.3117 16.1224 12.3499 16.0361 12.3499 15.9461C12.3499 15.8561 12.3117 15.7698 12.2436 15.7062C12.1755 15.6425 12.0832 15.6068 11.9869 15.6068H7.96314C7.86686 15.6068 7.77452 15.6425 7.70643 15.7062C7.63835 15.7698 7.6001 15.8561 7.6001 15.9461C7.6001 16.0361 7.63835 16.1224 7.70643 16.186C7.77452 16.2496 7.86686 16.2854 7.96314 16.2854Z" fill="black" />
    <path d="M15.5169 12.5227C15.5169 12.4246 15.4795 12.3304 15.413 12.261C15.3465 12.1916 15.2563 12.1526 15.1622 12.1526H14.0096V10.5487C14.0096 10.4505 13.9722 10.3564 13.9057 10.287C13.8392 10.2176 13.749 10.1786 13.6549 10.1786C13.5609 10.1786 13.4707 10.2176 13.4042 10.287C13.3377 10.3564 13.3003 10.4505 13.3003 10.5487V12.5227C13.3003 12.6209 13.3377 12.715 13.4042 12.7844C13.4707 12.8538 13.5609 12.8928 13.6549 12.8928H15.1622C15.2563 12.8928 15.3465 12.8538 15.413 12.7844C15.4795 12.715 15.5169 12.6209 15.5169 12.5227Z" fill="black" />
    <path d="M16.782 12.8925H18.6292C18.7271 12.8925 18.8211 12.8567 18.8904 12.7931C18.9597 12.7295 18.9986 12.6432 18.9986 12.5532C18.9986 12.4632 18.9597 12.3769 18.8904 12.3133C18.8211 12.2496 18.7271 12.2139 18.6292 12.2139H17.1514V11.196C17.1514 11.1061 17.1125 11.0198 17.0432 10.9561C16.974 10.8925 16.88 10.8568 16.782 10.8568H14.9349C14.8369 10.8568 14.7429 10.8925 14.6736 10.9561C14.6044 11.0198 14.5654 11.1061 14.5654 11.196C14.5654 11.286 14.6044 11.3723 14.6736 11.4359C14.7429 11.4996 14.8369 11.5353 14.9349 11.5353H16.4126V12.5532C16.4126 12.6432 16.4515 12.7294 16.5208 12.7931C16.5901 12.8567 16.684 12.8925 16.782 12.8925Z" fill="black" />
    <path d="M18.6856 11.1966V10.1788C18.6856 10.0888 18.6522 10.0025 18.5928 9.93887C18.5334 9.87524 18.4529 9.83949 18.3689 9.83949C18.2849 9.83949 18.2044 9.87524 18.145 9.93887C18.0856 10.0025 18.0522 10.0888 18.0522 10.1788V11.1966C18.0522 11.2866 18.0856 11.3729 18.145 11.4365C18.2044 11.5002 18.2849 11.5359 18.3689 11.5359C18.4529 11.5359 18.5334 11.5002 18.5928 11.4365C18.6522 11.3729 18.6856 11.2866 18.6856 11.1966Z" fill="black" />
    <path d="M0.474982 7.80333C0.600953 7.80332 0.721762 7.76433 0.810837 7.69492C0.899912 7.6255 0.949957 7.53136 0.949963 7.4332V6.13775C0.949963 6.03959 0.899921 5.94544 0.810844 5.87603C0.721768 5.80662 0.600955 5.76762 0.474982 5.76762C0.349009 5.76762 0.228195 5.80662 0.139119 5.87603C0.0500427 5.94544 0 6.03959 0 6.13775V7.4332C6.29808e-06 7.53136 0.0500508 7.6255 0.139126 7.69492C0.228201 7.76433 0.349011 7.80332 0.474982 7.80333Z" fill="black" />
    <path d="M0.351838 9.2357H0.879596V9.80117C0.879596 9.90116 0.916664 9.99704 0.982647 10.0677C1.04863 10.1384 1.13812 10.1782 1.23143 10.1782C1.32475 10.1782 1.41424 10.1384 1.48022 10.0677C1.5462 9.99704 1.58327 9.90116 1.58327 9.80117V8.85872C1.58327 8.75874 1.5462 8.66285 1.48022 8.59216C1.41423 8.52146 1.32475 8.48174 1.23143 8.48174H0.351838C0.258525 8.48174 0.169034 8.52145 0.103051 8.59215C0.0370686 8.66285 0 8.75874 0 8.85872C0 8.9587 0.0370686 9.05459 0.103051 9.12528C0.169034 9.19598 0.258525 9.2357 0.351838 9.2357Z" fill="black" />
    <path d="M0 12.8317C0 12.9378 0.0392491 13.0396 0.109113 13.1146C0.178977 13.1896 0.273732 13.2317 0.372535 13.2317C0.471337 13.2317 0.566093 13.1896 0.635956 13.1146C0.70582 13.0396 0.745069 12.9378 0.745069 12.8317V11.6567H2.79401C2.89281 11.6567 2.98757 11.6146 3.05743 11.5396C3.1273 11.4646 3.16654 11.3628 3.16654 11.2567C3.16654 11.1507 3.1273 11.0489 3.05743 10.9739C2.98757 10.8989 2.89281 10.8568 2.79401 10.8568H0.372535C0.273734 10.8568 0.178981 10.8989 0.109118 10.9739C0.0392555 11.0489 4.93967e-06 11.1507 0 11.2567V12.8317Z" fill="black" />
    <path d="M1.92077 13.2317H4.09513C4.18471 13.2317 4.27062 13.1905 4.33396 13.117C4.39731 13.0435 4.43289 12.9439 4.4329 12.84V11.2485C4.4329 11.1446 4.39731 11.045 4.33397 10.9715C4.27063 10.898 4.18471 10.8568 4.09513 10.8568C4.00555 10.8568 3.91964 10.898 3.8563 10.9715C3.79295 11.045 3.75737 11.1446 3.75737 11.2485V12.4482H1.92077C1.83119 12.4482 1.74528 12.4895 1.68194 12.563C1.61859 12.6364 1.58301 12.7361 1.58301 12.84C1.58301 12.9439 1.61859 13.0435 1.68194 13.117C1.74528 13.1905 1.83119 13.2317 1.92077 13.2317Z" fill="black" />
    <path d="M12.3479 4.41037H12.9812C13.0652 4.41036 13.1457 4.37137 13.2051 4.30195C13.2645 4.23254 13.2979 4.1384 13.2979 4.04024V0.709087C13.2979 0.610923 13.2645 0.516779 13.2051 0.447367C13.1457 0.377954 13.0652 0.338959 12.9812 0.338959C12.8972 0.338959 12.8167 0.377954 12.7573 0.447367C12.6979 0.516779 12.6646 0.610923 12.6646 0.709087V3.67011H12.3479C12.2639 3.67011 12.1834 3.70911 12.124 3.77852C12.0646 3.84793 12.0312 3.94208 12.0312 4.04024C12.0312 4.1384 12.0646 4.23255 12.124 4.30196C12.1834 4.37137 12.2639 4.41037 12.3479 4.41037Z" fill="black" />
    <path d="M6.96533 8.10514V8.85911C6.96534 8.93909 7.00704 9.0158 7.08127 9.07236C7.1555 9.12892 7.25617 9.16069 7.36115 9.1607H8.15279C8.25776 9.1607 8.35844 9.12892 8.43267 9.07236C8.5069 9.0158 8.5486 8.93909 8.5486 8.85911C8.5486 8.77912 8.5069 8.70241 8.43267 8.64586C8.35844 8.5893 8.25776 8.55752 8.15279 8.55752H7.75697V8.10514C7.75697 8.02516 7.71527 7.94845 7.64104 7.89189C7.56681 7.83533 7.46613 7.80356 7.36115 7.80356C7.25617 7.80356 7.15549 7.83533 7.08126 7.89189C7.00703 7.94845 6.96533 8.02516 6.96533 8.10514Z" fill="black" />
    <path d="M10.416 7.12449C10.5093 7.12449 10.5988 7.08477 10.6648 7.01407C10.7308 6.94337 10.7678 6.84749 10.7678 6.74751V5.80505C10.7678 5.70507 10.7308 5.60918 10.6648 5.53849C10.5988 5.46779 10.5093 5.42807 10.416 5.42807C10.3227 5.42807 10.2332 5.46779 10.1672 5.53849C10.1012 5.60918 10.0642 5.70507 10.0642 5.80505V6.37053H9.53641C9.4431 6.37053 9.3536 6.41024 9.28762 6.48094C9.22164 6.55164 9.18457 6.64753 9.18457 6.74751C9.18457 6.84749 9.22164 6.94338 9.28762 7.01408C9.3536 7.08477 9.4431 7.12449 9.53641 7.12449H10.416Z" fill="black" />
</svg>
