
<svg width="32" height="32" viewBox="0 0 32 32" fill="none" xmlns="http://www.w3.org/2000/svg">
<circle cx="16" cy="16" r="16" fill="#F4F4F4"/>
<path d="M8.89296 9.98945H23.0875C23.1684 9.98945 23.2458 10.021 23.302 10.0769L23.4743 10.2471V8.28916C23.4743 8.12931 23.34 8 23.1742 8H8.8235C8.65773 8 8.52344 8.12931 8.52344 8.28916V10.2285L8.67903 10.0759C8.73583 10.0207 8.8127 9.98945 8.89296 9.98945Z" fill="#4B7BE5"/>
<path d="M23.1554 16.2924C22.4849 16.207 21.9104 15.8242 21.5801 15.2856C21.2035 15.8986 20.5107 16.3102 19.7201 16.3102C18.9292 16.3102 18.2361 15.8986 17.8601 15.2856C17.4835 15.8986 16.7911 16.3102 16.0001 16.3102C15.2092 16.3102 14.5165 15.8986 14.1402 15.2856C13.7638 15.8986 13.0711 16.3102 12.2802 16.3102C11.4896 16.3102 10.7965 15.8986 10.4202 15.2856C10.0967 15.8128 9.53821 16.1919 8.88467 16.2869C8.77878 16.3023 8.67043 16.3102 8.56022 16.3102C8.46699 16.3102 8.3753 16.3044 8.28516 16.2934V23.7106C8.28516 23.8705 8.41945 23.9998 8.58491 23.9998H23.4552C23.621 23.9998 23.7553 23.8705 23.7553 23.7106V16.2879C23.6525 16.303 23.5472 16.3102 23.4401 16.3102C23.3438 16.3102 23.2487 16.3044 23.1554 16.2924ZM17.2476 20.8784C17.2476 21.0379 17.1134 21.1676 16.9479 21.1676H10.3844C10.2186 21.1676 10.0843 21.0379 10.0843 20.8784V17.379C10.0843 17.2195 10.2186 17.0899 10.3844 17.0899H16.9476C17.113 17.0899 17.2473 17.2195 17.2473 17.379V20.8784H17.2476ZM21.8798 22.1211C21.8798 22.2806 21.7456 22.4103 21.5801 22.4103H18.6041C18.4383 22.4103 18.3041 22.2806 18.3041 22.1211V17.379C18.3041 17.2195 18.4383 17.0899 18.6041 17.0899H21.5801C21.7456 17.0899 21.8798 17.2195 21.8798 17.379V22.1211Z" fill="#4B7BE5"/>
<path d="M24.553 12.1402L22.9613 10.5679H20.7383L21.7672 12.1402H24.553Z" fill="#4B7BE5"/>
<path d="M20.0517 10.6011C20.0449 10.5905 20.0385 10.5795 20.0332 10.5679H17.7676L18.1106 12.1402H21.0587L20.0517 10.6011Z" fill="#4B7BE5"/>
<path d="M14.8449 10.5679L14.502 12.1402H17.4983L17.1553 10.5679H14.8449Z" fill="#4B7BE5"/>
<path d="M14.2311 10.5679H11.9658C11.9611 10.5775 11.9559 10.5871 11.95 10.5967L10.9785 12.1402H13.8881L14.2311 10.5679Z" fill="#4B7BE5"/>
<path d="M11.2662 10.5679H9.01843L7.41406 12.1402H10.2767L11.2662 10.5679Z" fill="#4B7BE5"/>
<path d="M10.1201 14.2276V12.7188H7V14.2276C7 15.0574 7.69985 15.7324 8.55991 15.7324C9.42029 15.7324 10.1201 15.0574 10.1201 14.2276Z" fill="#4B7BE5"/>
<path d="M10.7188 14.2276C10.7188 15.0574 11.4186 15.7324 12.279 15.7324C13.1393 15.7324 13.8392 15.0574 13.8392 14.2276V12.7188H10.7188V14.2276Z" fill="#4B7BE5"/>
<path d="M14.4414 14.2276C14.4414 15.0574 15.1413 15.7324 16.0016 15.7324C16.862 15.7324 17.5619 15.0574 17.5619 14.2276V12.7188H14.4414V14.2276Z" fill="#4B7BE5"/>
<path d="M19.7223 15.7324C20.5827 15.7324 21.2826 15.0574 21.2826 14.2276V12.7188H18.1621V14.2276C18.1621 15.0574 18.862 15.7324 19.7223 15.7324Z" fill="#4B7BE5"/>
<path d="M21.8789 12.7188V14.2276C21.8789 15.0574 22.5788 15.7324 23.4391 15.7324C24.2995 15.7324 24.999 15.0574 24.999 14.2276V12.7188H21.8789Z" fill="#4B7BE5"/>
</svg>
