<svg width="89" height="51" viewBox="0 0 89 51" fill="none" xmlns="http://www.w3.org/2000/svg">
<path opacity="0.4" fill-rule="evenodd" clip-rule="evenodd" d="M28.9703 51.0002H66.7934C70.3438 51.0002 70.1809 48.0221 69.0212 46.9844C67.8325 45.9209 65.484 46.3522 65.484 46.3522C65.484 46.3522 64.7846 44.3491 62.4831 43.3739C60.4473 42.5112 58.3145 42.9217 58.3145 42.9217C58.3145 42.9217 58.3145 41.547 57.0111 40.4084C55.7075 39.2697 53.9694 39.3805 53.9694 39.3805C53.9694 39.3805 52.7747 31.7998 44.7906 31.7998C36.8066 31.7998 35.8832 38.9377 35.8832 38.9377C35.8832 38.9377 34.0909 38.9377 32.7873 40.1551C31.4838 41.3725 31.3208 42.7556 31.3208 42.7556C31.3208 42.7556 26.9615 42.1572 25.6722 45.9883C24.9039 48.2716 26.4824 51.0002 28.9703 51.0002Z" fill="url(#paint0_linear_1_207)"/>
<path opacity="0.4" fill-rule="evenodd" clip-rule="evenodd" d="M45.2088 51.0002H83.0319C86.5823 51.0002 86.4194 48.0221 85.2596 46.9844C84.071 45.9209 81.7224 46.3522 81.7224 46.3522C81.7224 46.3522 81.0231 44.3491 78.7216 43.3739C76.6858 42.5112 74.553 42.9217 74.553 42.9217C74.553 42.9217 74.553 41.547 73.2496 40.4084C71.946 39.2697 70.2079 39.3805 70.2079 39.3805C70.2079 39.3805 69.0132 31.7998 61.0291 31.7998C53.0451 31.7998 52.1217 38.9377 52.1217 38.9377C52.1217 38.9377 50.3294 38.9377 49.0258 40.1551C47.7223 41.3725 47.5594 42.7556 47.5594 42.7556C47.5594 42.7556 43.2 42.1572 41.9106 45.9883C41.1423 48.2716 42.7209 51.0002 45.2088 51.0002Z" fill="url(#paint1_linear_1_207)"/>
<path opacity="0.4" d="M68.8135 20.4817C67.6957 22.4973 65.2477 22.7742 61.3258 22.3911C58.3764 22.1026 55.6866 21.8793 52.7368 20.2543C50.6722 19.1178 49.0379 17.5802 47.8451 16.0867C46.5525 14.4688 44.7483 12.6224 45.6328 10.7879C46.8482 8.26799 53.8771 6.14562 60.7024 9.61632C68.2 13.4301 69.907 18.5118 68.8135 20.4817Z" fill="url(#paint2_linear_1_207)"/>
<path d="M78.1859 25.1517C75.9525 26.271 72.9884 24.8317 72.9884 24.8317C72.9884 24.8317 73.6471 21.5785 75.8817 20.4607C78.1149 19.3414 81.0778 20.779 81.0778 20.779C81.0778 20.779 80.4191 24.0324 78.1859 25.1517Z" fill="url(#paint3_linear_1_207)"/>
<path d="M87 1C85.8954 1 85 1.89543 85 3C85 4.10457 85.8954 5 87 5C88.1046 5 89 4.10457 89 3C89 1.89543 88.1046 1 87 1Z" fill="#F5603F"/>
<path d="M30 14C28.8954 14 28 14.4477 28 15C28 15.5523 28.8954 16 30 16C31.1046 16 32 15.5523 32 15C32 14.4477 31.1046 14 30 14Z" fill="#F5603F"/>
<path d="M18.6749 17.6381C18.0435 17.6381 17.5317 17.121 17.5317 16.4831C17.5317 15.8452 18.0435 15.3281 18.6749 15.3281C19.3062 15.3281 19.8181 15.8452 19.8181 16.4831C19.8181 17.121 19.3062 17.6381 18.6749 17.6381Z" fill="#F5603F"/>
<path d="M63.337 23.0287C63.0424 23.0287 62.8035 22.7873 62.8035 22.4897C62.8035 22.192 63.0424 21.9507 63.337 21.9507C63.6316 21.9507 63.8705 22.192 63.8705 22.4897C63.8705 22.7873 63.6316 23.0287 63.337 23.0287Z" fill="#F5603F"/>
<path d="M66.4128 47.2342C66.034 47.2342 65.7269 46.9239 65.7269 46.5412C65.7269 46.1584 66.034 45.8481 66.4128 45.8481C66.7916 45.8481 67.0987 46.1584 67.0987 46.5412C67.0987 46.9239 66.7916 47.2342 66.4128 47.2342Z" fill="#E1E4E5"/>
<path d="M18.4701 40.3463C17.9229 40.3463 17.4793 39.8982 17.4793 39.3453C17.4793 38.7924 17.9229 38.3442 18.4701 38.3442C19.0173 38.3442 19.4609 38.7924 19.4609 39.3453C19.4609 39.8982 19.0173 40.3463 18.4701 40.3463Z" fill="#E1E4E5"/>
<path d="M29.9271 14.5297C29.5106 14.5297 29.173 14.1885 29.173 13.7678C29.173 13.347 29.5106 13.0059 29.9271 13.0059C30.3436 13.0059 30.6812 13.347 30.6812 13.7678C30.6812 14.1885 30.3436 14.5297 29.9271 14.5297Z" fill="#E1E4E5"/>
<path d="M66.538 14.756C66.075 14.756 65.6997 14.3768 65.6997 13.909C65.6997 13.4412 66.075 13.062 66.538 13.062C67.001 13.062 67.3763 13.4412 67.3763 13.909C67.3763 14.3768 67.001 14.756 66.538 14.756Z" fill="#E1E4E5"/>
<path d="M21.4672 23.3244C21.5748 23.7301 21.3365 24.1472 20.9349 24.2559C20.5333 24.3646 20.1205 24.1238 20.0129 23.7181C19.9053 23.3123 20.1436 22.8953 20.5452 22.7865C20.9468 22.6778 21.3596 22.9186 21.4672 23.3244Z" fill="#E1E4E5"/>
<path d="M39.8556 8.3876C39.3025 8.3876 38.8541 7.93455 38.8541 7.37568C38.8541 6.81682 39.3025 6.36377 39.8556 6.36377C40.4087 6.36377 40.8571 6.81682 40.8571 7.37568C40.8571 7.93455 40.4087 8.3876 39.8556 8.3876Z" fill="#E1E4E5"/>
<path d="M71.7949 33.864C71.3694 33.864 71.0245 33.5852 71.0245 33.2413C71.0245 32.8974 71.3694 32.6187 71.7949 32.6187C72.2203 32.6187 72.5652 32.8974 72.5652 33.2413C72.5652 33.5852 72.2203 33.864 71.7949 33.864Z" fill="#E1E4E5"/>
<path d="M58.7768 6.9196C59.0008 7.76407 58.5048 8.63208 57.669 8.85836C56.8331 9.08463 55.974 8.58348 55.7501 7.73901C55.5261 6.89454 56.0221 6.02653 56.8579 5.80025C57.6937 5.57398 58.5529 6.07512 58.7768 6.9196Z" fill="#E1E4E5"/>
<path d="M77.6362 28.9404H77.6565C77.7758 30.649 79.0334 30.6753 79.0334 30.6753C79.0334 30.6753 77.6466 30.7026 77.6466 32.6767C77.6466 30.7026 76.2599 30.6753 76.2599 30.6753C76.2599 30.6753 77.5169 30.649 77.6362 28.9404ZM26.9835 45.5497H27.0013C27.1073 47.096 28.2231 47.1198 28.2231 47.1198C28.2231 47.1198 26.9927 47.1445 26.9927 48.9313C26.9927 47.1445 25.7621 47.1198 25.7621 47.1198C25.7621 47.1198 26.8776 47.096 26.9835 45.5497Z" fill="#E1E4E5"/>
<path d="M64.7265 7.17346C64.6577 6.71113 64.289 6.34229 63.8267 6.27348C50.0484 4.223 42.1229 13.9896 40 25.9618L45.0383 31C57.0105 28.8772 66.777 20.9514 64.7265 7.17346Z" fill="#F5603F" stroke="#F5603F" stroke-width="3"/>
<path d="M53.7534 17.4248C55.0531 18.738 57.1603 18.738 58.46 17.4248C59.7597 16.1117 59.7597 13.9826 58.46 12.6694C57.1603 11.3563 55.0531 11.3563 53.7534 12.6694C52.4537 13.9826 52.4537 16.1117 53.7534 17.4248Z" fill="white" stroke="white" stroke-width="3"/>
<path d="M44.1217 16.7369L39.0253 15L34 19.1692L41.4539 23.4845M55.2632 27.8786L57 32.9749L52.8307 38L48.5153 30.5462L55.2632 27.8786Z" stroke="#F5603F" stroke-width="1.5" stroke-linejoin="round"/>
<path d="M30.9696 45L34.6465 40.9955M39.0304 28L33.5152 34.0067L39.0304 28ZM28 40.0133L31.6767 36.0089L28 40.0133ZM42 32.9867L36.4848 38.9933L42 32.9867Z" stroke="#F5603F" stroke-linecap="round"/>
<path fill-rule="evenodd" clip-rule="evenodd" d="M27.8036 16.8232C27.4295 16.8773 27.052 16.9043 26.6741 16.9042C22.5991 16.9042 19.2958 13.7892 19.2958 9.94648C19.2958 8.35163 19.8649 6.88204 20.8219 5.7085C17.7923 6.43881 15.5396 9.19185 15.5396 12.4765C15.5396 16.3192 18.6227 19.4344 22.4259 19.4344C24.6016 19.4344 26.5416 18.415 27.8036 16.8232Z" fill="#E1E4E5"/>
<path d="M27.8053 16.823L28.1718 17.1196C28.2306 17.0453 28.2659 16.9549 28.2733 16.8601C28.2806 16.7653 28.2595 16.6704 28.2128 16.5878C28.1661 16.5052 28.096 16.4387 28.0114 16.3969C27.9268 16.3551 27.8318 16.34 27.7386 16.3534L27.8053 16.823ZM20.8236 5.70835L21.186 6.00998C21.2486 5.93327 21.2858 5.83862 21.2922 5.73941C21.2987 5.6402 21.2742 5.54144 21.2221 5.45709C21.17 5.37274 21.0929 5.30707 21.0019 5.26935C20.9108 5.23163 20.8104 5.22377 20.7146 5.24688L20.8236 5.70825V5.70835ZM27.7386 16.3533C27.3924 16.4034 27.0375 16.4295 26.6758 16.4295V17.3783C27.0822 17.3783 27.4817 17.349 27.8719 17.2925L27.7386 16.3533ZM26.6758 16.4295C22.8292 16.4295 19.7671 13.4964 19.7671 9.94613H18.828C18.828 14.0811 22.3726 17.3783 26.6758 17.3783V16.4295ZM19.7671 9.94613C19.7671 8.46827 20.2936 7.104 21.186 6.00988L20.4613 5.40652C19.4394 6.65938 18.828 8.2342 18.828 9.94613H19.7671ZM16.0108 12.4762C16.0108 9.41611 18.1096 6.8501 20.9326 6.16961L20.7146 5.24678C17.4785 6.02682 15.0717 8.967 15.0717 12.4762H16.0108ZM22.4277 18.9596C18.8838 18.9596 16.0108 16.0569 16.0108 12.4762H15.0717C15.0717 16.5809 18.3651 19.9084 22.4277 19.9084V18.9596ZM27.4388 16.5263C26.2621 18.0106 24.4548 18.9596 22.4277 18.9596V19.9084C24.7519 19.9084 26.8244 18.8188 28.1718 17.1195L27.4388 16.5263Z" fill="#E1E4E5"/>
<path d="M26.9509 6.80779C27.0263 6.60202 27.3142 6.60202 27.3895 6.80779L27.7014 7.65908C27.7131 7.69104 27.7315 7.72007 27.7553 7.74417C27.7792 7.76827 27.8079 7.78686 27.8395 7.79868L28.6821 8.11377C28.8858 8.1898 28.8858 8.48077 28.6821 8.5569L27.8395 8.87188C27.8079 8.88372 27.7792 8.90232 27.7553 8.92641C27.7315 8.95051 27.7131 8.97953 27.7014 9.01149L27.3895 9.86287C27.3142 10.0685 27.0263 10.0685 26.9509 9.86287L26.6391 9.01149C26.6274 8.97954 26.609 8.95052 26.5852 8.92642C26.5613 8.90233 26.5326 8.88372 26.501 8.87188L25.6584 8.5569C25.4548 8.48077 25.4548 8.1898 25.6584 8.11377L26.501 7.79868C26.5326 7.78685 26.5613 7.76825 26.5852 7.74415C26.609 7.72005 26.6274 7.69103 26.6391 7.65908L26.9509 6.80779ZM34.0072 11.0393C34.0826 10.8336 34.3705 10.8336 34.4458 11.0393L34.7577 11.8907C34.7813 11.9554 34.8317 12.0063 34.8957 12.0303L35.7384 12.3453C35.942 12.4214 35.942 12.7124 35.7384 12.7884L34.8957 13.1035C34.8641 13.1153 34.8354 13.1339 34.8116 13.158C34.7877 13.1821 34.7694 13.2111 34.7577 13.2431L34.4458 14.0944C34.3705 14.3001 34.0826 14.3001 34.0072 14.0944L33.6954 13.2431C33.6837 13.2111 33.6653 13.1821 33.6415 13.158C33.6176 13.1339 33.5889 13.1153 33.5573 13.1035L32.7147 12.7884C32.511 12.7124 32.511 12.4214 32.7147 12.3453L33.5573 12.0303C33.5889 12.0184 33.6176 11.9998 33.6414 11.9757C33.6653 11.9516 33.6837 11.9226 33.6954 11.8907L34.0072 11.0393ZM37.2685 2.88021C37.3438 2.67454 37.6317 2.67454 37.707 2.88021L38.0188 3.73159C38.0426 3.79627 38.093 3.84719 38.157 3.8711L38.9996 4.18618C39.2032 4.26231 39.2032 4.55318 38.9996 4.62931L38.157 4.9444C38.093 4.96831 38.0426 5.01933 38.0188 5.0839L37.707 5.93529C37.6317 6.14106 37.3438 6.14106 37.2685 5.93529L36.9566 5.084C36.9449 5.05204 36.9265 5.02302 36.9026 4.99892C36.8788 4.97482 36.8501 4.95622 36.8184 4.9444L35.9759 4.62931C35.7722 4.55318 35.7722 4.26231 35.9759 4.18618L36.8184 3.8712C36.8501 3.85938 36.8788 3.84078 36.9026 3.81668C36.9265 3.79258 36.9449 3.76356 36.9566 3.73159L37.2685 2.88021ZM59.3204 29.3972C59.3958 29.1916 59.6838 29.1916 59.759 29.3972L60.0709 30.2486C60.0826 30.2806 60.101 30.3096 60.1248 30.3337C60.1487 30.3578 60.1774 30.3764 60.209 30.3882L61.0516 30.7032C61.2553 30.7793 61.2553 31.0703 61.0516 31.1463L60.209 31.4614C60.1774 31.4732 60.1487 31.4918 60.1248 31.5159C60.101 31.54 60.0826 31.5691 60.0709 31.601L59.759 32.4524C59.6838 32.6581 59.3958 32.6581 59.3204 32.4524L59.0087 31.601C58.997 31.5691 58.9786 31.5401 58.9547 31.516C58.9309 31.4919 58.9021 31.4733 58.8705 31.4614L58.0279 31.1463C57.8243 31.0703 57.8243 30.7793 58.0279 30.7032L58.8705 30.3882C58.9021 30.3764 58.9309 30.3578 58.9547 30.3337C58.9786 30.3096 58.997 30.2806 59.0087 30.2486L59.3204 29.3972ZM65.5322 18.8846C65.6076 18.6788 65.8956 18.6788 65.9709 18.8846L66.2827 19.7359C66.2944 19.7678 66.3128 19.7969 66.3366 19.821C66.3605 19.8451 66.3892 19.8637 66.4208 19.8755L67.2635 20.1906C67.467 20.2667 67.467 20.5576 67.2635 20.6337L66.4208 20.9488C66.3892 20.9606 66.3605 20.9792 66.3366 21.0033C66.3128 21.0273 66.2944 21.0563 66.2827 21.0883L65.9709 21.9397C65.8956 22.1453 65.6076 22.1453 65.5322 21.9397L65.2205 21.0883C65.2088 21.0563 65.1903 21.0273 65.1665 21.0033C65.1426 20.9792 65.1139 20.9606 65.0823 20.9488L64.2396 20.6337C64.0361 20.5576 64.0361 20.2667 64.2396 20.1906L65.0823 19.8755C65.1139 19.8637 65.1427 19.8451 65.1665 19.821C65.1904 19.7969 65.2088 19.7678 65.2205 19.7359L65.5322 18.8846ZM44.7226 6.80281C44.798 6.59714 45.0859 6.59714 45.1612 6.80281L45.473 7.65419C45.4847 7.68616 45.5031 7.71519 45.527 7.73929C45.5508 7.76338 45.5796 7.78198 45.6112 7.7938L46.4539 8.10878C46.6574 8.18491 46.6574 8.47588 46.4539 8.55201L45.6112 8.867C45.5796 8.87882 45.5508 8.89741 45.527 8.92151C45.5031 8.94561 45.4847 8.97464 45.473 9.0066L45.1612 9.85798C45.0859 10.0637 44.798 10.0637 44.7226 9.85798L44.4109 9.0066C44.3992 8.97464 44.3808 8.94561 44.3569 8.92151C44.333 8.89741 44.3043 8.87882 44.2727 8.867L43.43 8.55201C43.2265 8.47588 43.2265 8.18491 43.43 8.10878L44.2727 7.7938C44.3043 7.78198 44.333 7.76338 44.3569 7.73929C44.3808 7.71519 44.3992 7.68616 44.4109 7.65419L44.7226 6.80281ZM60.5628 1.15433C60.6382 0.948557 60.9261 0.948557 61.0014 1.15433L61.3133 2.00561C61.325 2.03756 61.3434 2.06657 61.3672 2.09065C61.3911 2.11473 61.4198 2.13331 61.4514 2.14512L62.294 2.4602C62.4976 2.53633 62.4976 2.8273 62.294 2.90333L61.4514 3.21841C61.4198 3.23023 61.3911 3.24881 61.3672 3.27289C61.3434 3.29697 61.325 3.32598 61.3133 3.35792L61.0014 4.2094C60.9261 4.41507 60.6382 4.41507 60.5628 4.2094L60.251 3.35802C60.2393 3.32606 60.2209 3.29704 60.1971 3.27294C60.1732 3.24885 60.1445 3.23024 60.1129 3.21841L59.2702 2.90333C59.0667 2.8273 59.0667 2.53633 59.2702 2.4602L60.1129 2.14522C60.1445 2.13339 60.1732 2.11478 60.1971 2.09069C60.2209 2.06659 60.2393 2.03757 60.251 2.00561L60.5628 1.15433ZM74.5394 3.50779C74.6148 3.30212 74.9028 3.30212 74.978 3.50779L75.2899 4.35917C75.3015 4.39114 75.32 4.42016 75.3438 4.44426C75.3677 4.46836 75.3964 4.48696 75.428 4.49878L76.2707 4.81376C76.4742 4.88989 76.4742 5.18086 76.2707 5.25699L75.428 5.57197C75.3964 5.58379 75.3677 5.60239 75.3438 5.62649C75.32 5.65059 75.3015 5.67961 75.2899 5.71158L74.978 6.56296C74.9028 6.76863 74.6148 6.76863 74.5394 6.56296L74.2277 5.71158C74.216 5.67963 74.1975 5.65062 74.1737 5.62654C74.1498 5.60246 74.1211 5.58388 74.0895 5.57207L73.2468 5.25699C73.0433 5.18086 73.0433 4.88989 73.2468 4.81376L74.0895 4.49878C74.1211 4.48697 74.1498 4.46839 74.1737 4.44431C74.1975 4.42023 74.216 4.39122 74.2277 4.35927L74.5394 3.50779ZM62.5817 8.5288C62.657 8.32312 62.9449 8.32312 63.0202 8.5288L63.3321 9.38018C63.3438 9.41214 63.3622 9.44117 63.3861 9.46527C63.4099 9.48937 63.4386 9.50796 63.4703 9.51978L64.3128 9.83477C64.5165 9.9109 64.5165 10.2019 64.3128 10.2779L63.4703 10.593C63.4386 10.6048 63.4099 10.6234 63.3861 10.6475C63.3622 10.6716 63.3438 10.7006 63.3321 10.7326L63.0202 11.584C62.9449 11.7896 62.657 11.7896 62.5817 11.584L62.2698 10.7326C62.2581 10.7006 62.2397 10.6716 62.2159 10.6475C62.1921 10.6234 62.1634 10.6048 62.1317 10.593L61.2891 10.2779C61.0855 10.2019 61.0855 9.9109 61.2891 9.83477L62.1317 9.51978C62.1634 9.50795 62.1921 9.48935 62.2159 9.46525C62.2397 9.44116 62.2581 9.41213 62.2698 9.38018L62.5817 8.5288ZM21.4306 39.5097C21.506 39.304 21.7939 39.304 21.8692 39.5097L22.181 40.3611C22.1927 40.3931 22.2112 40.4221 22.235 40.4462C22.2589 40.4703 22.2876 40.4889 22.3192 40.5007L23.1618 40.8158C23.3654 40.8918 23.3654 41.1828 23.1618 41.2589L22.3192 41.5739C22.2876 41.5857 22.2589 41.6043 22.235 41.6284C22.2112 41.6525 22.1927 41.6815 22.181 41.7135L21.8692 42.5649C21.7939 42.7706 21.506 42.7706 21.4306 42.5649L21.1189 41.7135C21.1071 41.6815 21.0887 41.6525 21.0649 41.6284C21.041 41.6043 21.0123 41.5857 20.9807 41.5739L20.138 41.2589C19.9345 41.1828 19.9345 40.8918 20.138 40.8158L20.9807 40.5007C21.0123 40.4889 21.041 40.4703 21.0649 40.4462C21.0887 40.4221 21.1071 40.393 21.1189 40.3611L21.4306 39.5097ZM68.7934 26.2592C68.8688 26.0535 69.1568 26.0535 69.2321 26.2592L69.5439 27.1105C69.5556 27.1425 69.574 27.1715 69.5979 27.1956C69.6217 27.2197 69.6504 27.2382 69.6821 27.2501L70.5247 27.5651C70.7283 27.6413 70.7283 27.9321 70.5247 28.0083L69.6821 28.3233C69.6504 28.3352 69.6217 28.3537 69.5979 28.3778C69.574 28.4019 69.5556 28.4309 69.5439 28.4629L69.2321 29.3142C69.1568 29.5199 68.8688 29.5199 68.7934 29.3142L68.4817 28.4629C68.47 28.4309 68.4516 28.4019 68.4277 28.3778C68.4039 28.3537 68.3751 28.3352 68.3435 28.3233L67.5009 28.0083C67.2973 27.9321 67.2973 27.6413 67.5009 27.5651L68.3435 27.2501C68.3751 27.2382 68.4039 27.2197 68.4277 27.1956C68.4516 27.1715 68.47 27.1425 68.4817 27.1105L68.7934 26.2592ZM57.7675 37.8701C57.8428 37.6644 58.1307 37.6644 58.2061 37.8701L58.5178 38.7215C58.5296 38.7535 58.548 38.7825 58.5718 38.8066C58.5957 38.8307 58.6244 38.8493 58.656 38.8611L59.4987 39.1761C59.7022 39.2522 59.7022 39.5432 59.4987 39.6193L58.656 39.9343C58.592 39.9582 58.5416 40.0092 58.5178 40.0739L58.2061 40.9253C58.1307 41.131 57.8428 41.131 57.7675 40.9253L57.4556 40.0739C57.4439 40.0419 57.4255 40.0129 57.4017 39.9888C57.3778 39.9647 57.3491 39.9461 57.3175 39.9343L56.4749 39.6193C56.2713 39.5432 56.2713 39.2522 56.4749 39.1761L57.3175 38.8611C57.3491 38.8493 57.3778 38.8307 57.4017 38.8066C57.4255 38.7825 57.4439 38.7535 57.4556 38.7215L57.7675 37.8701ZM44.1015 42.4204C44.1768 42.2147 44.4647 42.2147 44.5401 42.4204L44.8519 43.2718C44.8636 43.3037 44.882 43.3328 44.9059 43.3569C44.9297 43.381 44.9584 43.3996 44.9901 43.4114L45.8326 43.7264C46.0363 43.8025 46.0363 44.0935 45.8326 44.1695L44.9901 44.4846C44.9584 44.4964 44.9297 44.515 44.9059 44.5391C44.882 44.5632 44.8636 44.5922 44.8519 44.6242L44.5401 45.4756C44.4647 45.6812 44.1768 45.6812 44.1015 45.4756L43.7896 44.6242C43.7779 44.5922 43.7595 44.5632 43.7357 44.5391C43.7119 44.515 43.6832 44.4964 43.6515 44.4846L42.8089 44.1695C42.6053 44.0935 42.6053 43.8025 42.8089 43.7264L43.6515 43.4114C43.6832 43.3995 43.7119 43.3809 43.7357 43.3568C43.7595 43.3328 43.7779 43.3037 43.7896 43.2718L44.1015 42.4204ZM62.2711 45.7154C62.3463 45.5097 62.6343 45.5097 62.7097 45.7154L63.0214 46.5668C63.0451 46.6315 63.0956 46.6824 63.1596 46.7064L64.0023 47.0214C64.2058 47.0975 64.2058 47.3884 64.0023 47.4645L63.1596 47.7796C63.128 47.7914 63.0992 47.81 63.0754 47.8341C63.0515 47.8582 63.0331 47.8872 63.0214 47.9192L62.7097 48.7705C62.6343 48.9763 62.3463 48.9763 62.2711 48.7705L61.9592 47.9192C61.9475 47.8872 61.9291 47.8582 61.9053 47.8341C61.8814 47.81 61.8527 47.7914 61.8211 47.7796L60.9784 47.4645C60.7749 47.3884 60.7749 47.0975 60.9784 47.0214L61.8211 46.7064C61.8527 46.6946 61.8814 46.676 61.9053 46.6519C61.9291 46.6278 61.9475 46.5988 61.9592 46.5668L62.2711 45.7154ZM68.7934 36.9287C68.8688 36.723 69.1568 36.723 69.2321 36.9287L69.5439 37.78C69.5556 37.812 69.574 37.841 69.5978 37.8651C69.6217 37.8892 69.6504 37.9078 69.6821 37.9196L70.5247 38.2347C70.7283 38.3108 70.7283 38.6017 70.5247 38.6779L69.6821 38.9928C69.6504 39.0047 69.6217 39.0233 69.5978 39.0474C69.574 39.0714 69.5556 39.1005 69.5439 39.1324L69.2321 39.9838C69.1568 40.1895 68.8688 40.1895 68.7934 39.9838L68.4817 39.1324C68.47 39.1005 68.4516 39.0714 68.4277 39.0474C68.4039 39.0233 68.3752 39.0047 68.3435 38.9928L67.5009 38.6779C67.2973 38.6017 67.2973 38.3108 67.5009 38.2347L68.3435 37.9196C68.3752 37.9078 68.4039 37.8892 68.4277 37.8651C68.4516 37.841 68.47 37.812 68.4817 37.78L68.7934 36.9287ZM25.2866 26.2871C25.362 26.0814 25.6499 26.0814 25.7252 26.2871L26.0371 27.1384C26.0488 27.1704 26.0672 27.1994 26.091 27.2235C26.1149 27.2476 26.1436 27.2661 26.1752 27.278L27.0178 27.593C27.2215 27.6692 27.2215 27.96 27.0178 28.0362L26.1752 28.3512C26.1436 28.3631 26.1149 28.3816 26.091 28.4057C26.0672 28.4298 26.0488 28.4588 26.0371 28.4908L25.7252 29.3421C25.6499 29.5478 25.362 29.5478 25.2866 29.3421L24.9748 28.4908C24.9631 28.4588 24.9447 28.4298 24.9209 28.4057C24.897 28.3816 24.8683 28.3631 24.8367 28.3512L23.9941 28.0362C23.7905 27.96 23.7905 27.6692 23.9941 27.593L24.8367 27.278C24.8683 27.2661 24.897 27.2476 24.9209 27.2235C24.9447 27.1994 24.9631 27.1704 24.9748 27.1384L25.2866 26.2871ZM16.9246 23.121C17 22.9153 17.2879 22.9153 17.3632 23.121L17.6751 23.9724C17.6868 24.0043 17.7052 24.0334 17.729 24.0575C17.7529 24.0816 17.7816 24.1002 17.8133 24.112L18.6558 24.427C18.8595 24.5031 18.8595 24.7941 18.6558 24.8702L17.8133 25.1852C17.7816 25.197 17.7529 25.2156 17.729 25.2397C17.7052 25.2638 17.6868 25.2928 17.6751 25.3248L17.3632 26.1762C17.2879 26.3818 17 26.3818 16.9246 26.1762L16.6128 25.3248C16.6011 25.2928 16.5827 25.2638 16.5589 25.2397C16.5351 25.2156 16.5063 25.197 16.4747 25.1852L15.6321 24.8702C15.4285 24.7941 15.4285 24.5031 15.6321 24.427L16.4747 24.112C16.5063 24.1001 16.5351 24.0815 16.5589 24.0574C16.5827 24.0333 16.6011 24.0043 16.6128 23.9724L16.9246 23.121Z" stroke="#E1E4E5" stroke-width="0.5"/>
<path d="M29.3529 32.392C29.397 32.2717 29.5655 32.2717 29.6095 32.392L29.7921 32.8903C29.8059 32.9281 29.8355 32.958 29.8729 32.972L30.3661 33.1564C30.4852 33.201 30.4852 33.3712 30.3661 33.4157L29.8729 33.6002C29.8355 33.6141 29.8059 33.644 29.7921 33.6818L29.6095 34.1801C29.5655 34.3005 29.397 34.3005 29.3529 34.1801L29.1704 33.6818C29.1635 33.6631 29.1527 33.6461 29.1388 33.632C29.1248 33.6179 29.108 33.6071 29.0895 33.6002L28.5964 33.4157C28.4772 33.3712 28.4772 33.201 28.5964 33.1564L29.0895 32.972C29.127 32.958 29.1566 32.9281 29.1704 32.8903L29.3529 32.392Z" stroke="#E1E4E5" stroke-width="0.5"/>
<path opacity="0.4" fill-rule="evenodd" clip-rule="evenodd" d="M3.49367 51H41.3166C44.8671 51 44.7042 48.0219 43.5445 46.9842C42.3558 45.9207 40.0072 46.352 40.0072 46.352C40.0072 46.352 39.3079 44.3489 37.0064 43.3737C34.9706 42.5111 32.8379 42.9215 32.8379 42.9215C32.8379 42.9215 32.8379 41.5468 31.5343 40.4082C30.2307 39.2695 28.4928 39.3804 28.4928 39.3804C28.4928 39.3804 27.2979 31.7996 19.3139 31.7996C11.3298 31.7996 10.4066 38.9375 10.4066 38.9375C10.4066 38.9375 8.61417 38.9375 7.31055 40.1549C6.00712 41.3723 5.84419 42.7554 5.84419 42.7554C5.84419 42.7554 1.48479 42.157 0.195465 45.9881C-0.572821 48.2714 1.00577 51 3.49367 51Z" fill="url(#paint4_linear_1_207)"/>
<defs>
<linearGradient id="paint0_linear_1_207" x1="48.5638" y1="61.765" x2="48.3071" y2="10.9075" gradientUnits="userSpaceOnUse">
<stop stop-color="white"/>
<stop offset="1" stop-color="#EEEEEE"/>
</linearGradient>
<linearGradient id="paint1_linear_1_207" x1="64.8023" y1="61.765" x2="64.5456" y2="10.9075" gradientUnits="userSpaceOnUse">
<stop stop-color="white"/>
<stop offset="1" stop-color="#EEEEEE"/>
</linearGradient>
<linearGradient id="paint2_linear_1_207" x1="61.2835" y1="33.5443" x2="51.1231" y2="-11.6441" gradientUnits="userSpaceOnUse">
<stop stop-color="white"/>
<stop offset="1" stop-color="#EEEEEE"/>
</linearGradient>
<linearGradient id="paint3_linear_1_207" x1="69.6098" y1="28.6431" x2="88.1758" y2="14.108" gradientUnits="userSpaceOnUse">
<stop stop-color="white"/>
<stop offset="1" stop-color="#EEEEEE"/>
</linearGradient>
<linearGradient id="paint4_linear_1_207" x1="23.0871" y1="61.7648" x2="22.8304" y2="10.9073" gradientUnits="userSpaceOnUse">
<stop stop-color="white"/>
<stop offset="1" stop-color="#EEEEEE"/>
</linearGradient>
</defs>
</svg>
