<svg width="322" height="184" viewBox="0 0 322 184" fill="none" xmlns="http://www.w3.org/2000/svg">
<path fill-rule="evenodd" clip-rule="evenodd" d="M108.463 183.85H250.079C263.372 183.85 262.762 172.96 258.42 169.165C253.969 165.275 245.176 166.853 245.176 166.853C245.176 166.853 242.557 159.528 233.94 155.961C226.318 152.806 218.332 154.307 218.332 154.307C218.332 154.307 218.332 149.28 213.452 145.116C208.571 140.952 202.064 141.357 202.064 141.357C202.064 141.357 197.59 113.635 167.697 113.635C137.803 113.635 134.346 139.738 134.346 139.738C134.346 139.738 127.636 139.738 122.755 144.19C117.874 148.642 117.264 153.7 117.264 153.7C117.264 153.7 100.942 151.512 96.1147 165.522C93.2381 173.872 99.1482 183.85 108.463 183.85Z" fill="url(#paint0_linear_1204:20005)"/>
<path fill-rule="evenodd" clip-rule="evenodd" d="M169.268 183.85H310.884C324.177 183.85 323.567 172.96 319.225 169.165C314.774 165.275 305.98 166.853 305.98 166.853C305.98 166.853 303.362 159.528 294.745 155.961C287.123 152.806 279.137 154.307 279.137 154.307C279.137 154.307 279.137 149.28 274.257 145.116C269.376 140.952 262.869 141.357 262.869 141.357C262.869 141.357 258.395 113.635 228.502 113.635C198.608 113.635 195.151 139.738 195.151 139.738C195.151 139.738 188.441 139.738 183.56 144.19C178.679 148.642 178.069 153.7 178.069 153.7C178.069 153.7 161.747 151.512 156.919 165.522C154.043 173.872 159.953 183.85 169.268 183.85Z" fill="url(#paint1_linear_1204:20005)"/>
<path d="M257.657 72.2439C253.471 79.6148 244.306 80.6275 229.622 79.2267C218.578 78.1714 208.507 77.3548 197.463 71.4124C189.733 67.2563 183.614 61.6331 179.148 56.1714C174.308 50.2549 167.553 43.5024 170.865 36.7937C175.415 27.5785 201.733 19.817 227.288 32.5093C255.36 46.4563 261.751 65.04 257.657 72.2439Z" fill="url(#paint2_linear_1204:20005)"/>
<path d="M292.741 89.3221C284.379 93.4155 273.281 88.152 273.281 88.152C273.281 88.152 275.748 76.2548 284.114 72.1673C292.476 68.0739 303.569 73.3312 303.569 73.3312C303.569 73.3312 301.103 85.2287 292.741 89.3221Z" fill="url(#paint3_linear_1204:20005)"/>
<path d="M267.122 38.946C264.6 38.946 262.556 40.9632 262.556 43.4515C262.556 45.9398 264.6 47.957 267.122 47.957C269.643 47.957 271.688 45.9398 271.688 43.4515C271.688 40.9632 269.643 38.946 267.122 38.946Z" fill="#4B7BE5"/>
<path d="M108.83 73.9289C106.444 73.9289 104.511 75.8371 104.511 78.191C104.511 80.5449 106.444 82.4531 108.83 82.4531C111.215 82.4531 113.148 80.5449 113.148 78.191C113.148 75.8371 111.215 73.9289 108.83 73.9289Z" fill="#4B7BE5"/>
<path d="M69.923 61.8461C67.5591 61.8461 65.6428 59.9551 65.6428 57.6223C65.6428 55.2895 67.5591 53.3984 69.923 53.3984C72.2868 53.3984 74.2031 55.2895 74.2031 57.6223C74.2031 59.9551 72.2868 61.8461 69.923 61.8461Z" fill="#4B7BE5"/>
<path d="M237.147 81.5613C236.044 81.5613 235.15 80.6788 235.15 79.5902C235.15 78.5016 236.044 77.6191 237.147 77.6191C238.25 77.6191 239.145 78.5016 239.145 79.5902C239.145 80.6788 238.25 81.5613 237.147 81.5613Z" fill="#4B7BE5"/>
<path d="M248.658 170.077C247.24 170.077 246.09 168.942 246.09 167.542C246.09 166.143 247.24 165.008 248.658 165.008C250.077 165.008 251.227 166.143 251.227 167.542C251.227 168.942 250.077 170.077 248.658 170.077Z" fill="#E1E4E5"/>
<path d="M69.1458 144.89C67.097 144.89 65.4362 143.251 65.4362 141.229C65.4362 139.207 67.097 137.568 69.1458 137.568C71.1946 137.568 72.8555 139.207 72.8555 141.229C72.8555 143.251 71.1946 144.89 69.1458 144.89Z" fill="#E1E4E5"/>
<path d="M112.04 50.4768C110.481 50.4768 109.216 49.2294 109.216 47.6906C109.216 46.1517 110.481 44.9043 112.04 44.9043C113.599 44.9043 114.863 46.1517 114.863 47.6906C114.863 49.2294 113.599 50.4768 112.04 50.4768Z" fill="#E1E4E5"/>
<path d="M249.115 51.3043C247.382 51.3043 245.976 49.9175 245.976 48.2068C245.976 46.4962 247.382 45.1094 249.115 45.1094C250.849 45.1094 252.254 46.4962 252.254 48.2068C252.254 49.9175 250.849 51.3043 249.115 51.3043Z" fill="#E1E4E5"/>
<path d="M80.3778 82.6415C80.7807 84.1253 79.8883 85.6505 78.3847 86.0481C76.8811 86.4457 75.3355 85.5651 74.9326 84.0813C74.5297 82.5974 75.4221 81.0722 76.9257 80.6746C78.4293 80.277 79.9749 81.1576 80.3778 82.6415Z" fill="#E1E4E5"/>
<path d="M149.215 28.0164C147.144 28.0164 145.465 26.3596 145.465 24.3158C145.465 22.272 147.144 20.6152 149.215 20.6152C151.286 20.6152 152.965 22.272 152.965 24.3158C152.965 26.3596 151.286 28.0164 149.215 28.0164Z" fill="#E1E4E5"/>
<path d="M268.815 121.183C267.222 121.183 265.931 120.164 265.931 118.906C265.931 117.648 267.222 116.629 268.815 116.629C270.408 116.629 271.699 117.648 271.699 118.906C271.699 120.164 270.408 121.183 268.815 121.183Z" fill="#E1E4E5"/>
<path d="M220.062 22.6479C220.9 25.7361 219.043 28.9104 215.914 29.7379C212.784 30.5654 209.568 28.7327 208.729 25.6445C207.891 22.5562 209.748 19.3819 212.877 18.5544C216.007 17.7269 219.223 19.5596 220.062 22.6479Z" fill="#E1E4E5"/>
<path d="M290.67 103.178H290.745C291.192 109.426 295.901 109.522 295.901 109.522C295.901 109.522 290.709 109.622 290.709 116.841C290.709 109.622 285.517 109.522 285.517 109.522C285.517 109.522 290.223 109.426 290.67 103.178ZM101.018 163.918H101.085C101.482 169.572 105.66 169.66 105.66 169.66C105.66 169.66 101.053 169.75 101.053 176.284C101.053 169.75 96.4453 169.66 96.4453 169.66C96.4453 169.66 100.622 169.572 101.018 163.918Z" fill="#E1E4E5"/>
<path d="M206.223 56.1931C206.035 54.9443 205.026 53.948 203.76 53.7621C166.047 48.2235 144.354 74.6044 138.543 106.943L152.334 120.552C185.103 114.818 211.836 93.4093 206.223 56.1931Z" fill="#4B7BE5" stroke="#4B7BE5" stroke-width="3"/>
<path d="M175.657 83.9269C179.234 87.4562 185.032 87.4562 188.608 83.9269C192.185 80.3976 192.185 74.6755 188.608 71.1462C185.032 67.6169 179.234 67.6169 175.657 71.1462C172.081 74.6755 172.081 80.3976 175.657 83.9269Z" fill="white" stroke="white" stroke-width="3"/>
<path d="M147.388 81.5826L133.368 76.8672L119.543 88.1861L140.049 99.9018M178.038 111.831L182.816 125.667L171.346 139.31L159.475 119.073L178.038 111.831Z" stroke="#4B7BE5" stroke-width="1.5" stroke-linejoin="round"/>
<path d="M113.183 156.573L123.262 146.435M135.278 113.537L120.161 128.743L135.278 113.537ZM105.043 143.949L115.121 133.812L105.043 143.949ZM143.419 126.161L128.301 141.367L143.419 126.161Z" stroke="#4B7BE5" stroke-linecap="round"/>
<path fill-rule="evenodd" clip-rule="evenodd" d="M104.102 58.8651C102.701 59.0628 101.288 59.1618 99.8729 59.1614C84.6156 59.1614 72.2474 47.7696 72.2474 33.717C72.2474 27.8847 74.3781 22.5104 77.9615 18.2188C66.618 20.8895 58.1836 30.9573 58.1836 42.9693C58.1836 57.022 69.7272 68.4141 83.9672 68.4141C92.1132 68.4141 99.3766 64.6862 104.102 58.8651Z" fill="#E1E4E5"/>
<path d="M104.098 58.8655L105.47 59.9503C105.69 59.6787 105.823 59.3481 105.85 59.0013C105.878 58.6545 105.799 58.3076 105.624 58.0056C105.449 57.7035 105.187 57.4603 104.87 57.3075C104.553 57.1546 104.197 57.0992 103.848 57.1484L104.098 58.8655ZM77.9578 18.2195L79.3145 19.3225C79.5489 19.042 79.6881 18.6959 79.7123 18.3331C79.7365 17.9703 79.6446 17.6091 79.4496 17.3006C79.2545 16.9922 78.9661 16.752 78.6252 16.6141C78.2843 16.4761 77.9081 16.4474 77.5498 16.5319L77.9578 18.2191V18.2195ZM103.848 57.148C102.552 57.3313 101.223 57.4265 99.8693 57.4265V60.8963C101.391 60.8963 102.887 60.7892 104.348 60.5826L103.848 57.148ZM99.8693 57.4265C85.4668 57.4265 74.0019 46.7005 74.0019 33.717H70.4857C70.4857 48.8385 83.7575 60.8963 99.8693 60.8963V57.4265ZM74.0019 33.717C74.0019 28.3125 75.9734 23.3234 79.3145 19.3222L76.6011 17.1157C72.7752 21.6974 70.4857 27.4565 70.4857 33.717H74.0019ZM59.938 42.9693C59.938 31.7787 67.796 22.3949 78.3658 19.9063L77.5498 16.5315C65.4331 19.3841 56.4219 30.1363 56.4219 42.9693H59.938ZM83.9635 66.6791C70.6947 66.6791 59.938 56.0639 59.938 42.9693H56.4219C56.4219 57.9804 68.7528 70.149 83.9635 70.149V66.6791ZM102.726 57.7807C98.3202 63.2085 91.5534 66.6791 83.9635 66.6791V70.149C92.6656 70.149 100.426 66.1642 105.47 59.95L102.726 57.7807Z" fill="#E1E4E5"/>
<path d="M100.896 22.239C101.179 21.4865 102.256 21.4865 102.539 22.239L103.706 25.3522C103.75 25.4691 103.819 25.5752 103.908 25.6634C103.997 25.7515 104.105 25.8195 104.224 25.8627L107.378 27.015C108.141 27.293 108.141 28.3571 107.378 28.6355L104.224 29.7874C104.105 29.8307 103.998 29.8987 103.908 29.9868C103.819 30.0749 103.75 30.1811 103.706 30.2979L102.539 33.4114C102.256 34.1635 101.179 34.1635 100.896 33.4114L99.7288 30.2979C99.685 30.1811 99.6161 30.075 99.5269 29.9868C99.4377 29.8987 99.3302 29.8307 99.2118 29.7874L96.0568 28.6355C95.2947 28.3571 95.2947 27.293 96.0568 27.015L99.2118 25.8627C99.3302 25.8194 99.4377 25.7514 99.527 25.6633C99.6162 25.5752 99.6851 25.469 99.7288 25.3522L100.896 22.239ZM127.316 37.7136C127.598 36.9615 128.676 36.9615 128.958 37.7136L130.126 40.8271C130.215 41.0636 130.403 41.2498 130.643 41.3376L133.798 42.4895C134.56 42.7679 134.56 43.832 133.798 44.1101L130.643 45.2623C130.525 45.3056 130.417 45.3736 130.328 45.4617C130.239 45.5499 130.17 45.656 130.126 45.7728L128.958 48.886C128.676 49.6385 127.598 49.6385 127.316 48.886L126.149 45.7728C126.105 45.656 126.036 45.5499 125.947 45.4618C125.858 45.3737 125.75 45.3056 125.632 45.2623L122.477 44.1101C121.714 43.832 121.714 42.7679 122.477 42.4895L125.632 41.3376C125.75 41.2943 125.857 41.2262 125.947 41.1381C126.036 41.05 126.105 40.9439 126.149 40.8271L127.316 37.7136ZM139.527 7.87592C139.809 7.12378 140.887 7.12378 141.169 7.87592L142.336 10.9894C142.425 11.2259 142.614 11.4121 142.853 11.4996L146.009 12.6518C146.771 12.9302 146.771 13.994 146.009 14.2724L142.853 15.4246C142.614 15.5121 142.425 15.6987 142.336 15.9348L141.169 19.0483C140.887 19.8008 139.809 19.8008 139.527 19.0483L138.359 15.9352C138.315 15.8183 138.246 15.7121 138.157 15.624C138.068 15.5359 137.96 15.4679 137.842 15.4246L134.687 14.2724C133.925 13.994 133.925 12.9302 134.687 12.6518L137.842 11.4999C137.96 11.4567 138.068 11.3887 138.157 11.3006C138.246 11.2124 138.315 11.1063 138.359 10.9894L139.527 7.87592V7.87592ZM222.093 104.848C222.375 104.096 223.453 104.096 223.735 104.848L224.902 107.962C224.946 108.079 225.015 108.185 225.104 108.273C225.194 108.361 225.301 108.429 225.42 108.472L228.574 109.624C229.337 109.903 229.337 110.967 228.574 111.245L225.42 112.397C225.301 112.44 225.194 112.508 225.104 112.596C225.015 112.685 224.946 112.791 224.902 112.908L223.735 116.021C223.453 116.773 222.375 116.773 222.093 116.021L220.925 112.908C220.882 112.791 220.813 112.685 220.723 112.597C220.634 112.508 220.527 112.44 220.408 112.397L217.253 111.245C216.491 110.967 216.491 109.903 217.253 109.624L220.408 108.472C220.527 108.429 220.634 108.361 220.723 108.273C220.813 108.185 220.882 108.079 220.925 107.962L222.093 104.848ZM245.351 66.4038C245.633 65.6513 246.711 65.6513 246.993 66.4038L248.16 69.5169C248.204 69.6338 248.273 69.74 248.362 69.8281C248.452 69.9162 248.559 69.9842 248.678 70.0274L251.833 71.1797C252.595 71.4581 252.595 72.5218 251.833 72.8002L248.678 73.9525C248.559 73.9957 248.452 74.0636 248.362 74.1517C248.273 74.2397 248.204 74.3458 248.16 74.4627L246.993 77.5762C246.711 78.3283 245.633 78.3283 245.351 77.5762L244.183 74.4627C244.139 74.3458 244.071 74.2397 243.981 74.1517C243.892 74.0636 243.784 73.9957 243.666 73.9525L240.511 72.8002C239.749 72.5218 239.749 71.4581 240.511 71.1797L243.666 70.0274C243.784 69.9842 243.892 69.9162 243.981 69.8281C244.071 69.74 244.139 69.6338 244.183 69.5169L245.351 66.4038V66.4038ZM167.436 22.2208C167.718 21.4687 168.797 21.4687 169.078 22.2208L170.246 25.3343C170.29 25.4512 170.359 25.5574 170.448 25.6455C170.537 25.7336 170.645 25.8016 170.763 25.8449L173.918 26.9967C174.68 27.2752 174.68 28.3392 173.918 28.6176L170.763 29.7695C170.645 29.8127 170.537 29.8808 170.448 29.9689C170.359 30.057 170.29 30.1632 170.246 30.2801L169.078 33.3936C168.797 34.1457 167.718 34.1457 167.436 33.3936L166.269 30.2801C166.225 30.1632 166.156 30.057 166.067 29.9689C165.978 29.8808 165.87 29.8127 165.752 29.7695L162.597 28.6176C161.834 28.3392 161.834 27.2752 162.597 26.9967L165.752 25.8449C165.87 25.8016 165.978 25.7336 166.067 25.6455C166.156 25.5574 166.225 25.4512 166.269 25.3343L167.436 22.2208V22.2208ZM226.744 1.56438C227.026 0.811875 228.104 0.811875 228.386 1.56438L229.554 4.67751C229.598 4.79434 229.667 4.90042 229.756 4.98848C229.845 5.07655 229.953 5.1445 230.071 5.18768L233.226 6.33994C233.989 6.61835 233.989 7.68242 233.226 7.96046L230.071 9.11272C229.953 9.15592 229.845 9.22388 229.756 9.31194C229.667 9.4 229.598 9.50607 229.554 9.62288L228.386 12.7368C228.104 13.4889 227.026 13.4889 226.744 12.7368L225.577 9.62325C225.533 9.50639 225.464 9.40026 225.375 9.31214C225.286 9.22401 225.178 9.15598 225.06 9.11272L221.905 7.96046C221.143 7.68242 221.143 6.61835 221.905 6.33994L225.06 5.18805C225.178 5.14478 225.286 5.07675 225.375 4.98863C225.464 4.9005 225.533 4.79437 225.577 4.67751L226.744 1.56401V1.56438ZM279.075 10.171C279.357 9.41882 280.435 9.41882 280.717 10.171L281.885 13.2845C281.928 13.4013 281.997 13.5075 282.087 13.5956C282.176 13.6838 282.283 13.7518 282.402 13.795L285.557 14.9469C286.319 15.2253 286.319 16.2894 285.557 16.5678L282.402 17.7197C282.283 17.7629 282.176 17.8309 282.087 17.919C281.997 18.0071 281.928 18.1133 281.885 18.2302L280.717 21.3437C280.435 22.0958 279.357 22.0958 279.075 21.3437L277.908 18.2302C277.864 18.1134 277.795 18.0073 277.706 17.9192C277.616 17.8312 277.509 17.7632 277.39 17.72L274.235 16.5678C273.473 16.2894 273.473 15.2253 274.235 14.9469L277.39 13.795C277.509 13.7518 277.616 13.6839 277.706 13.5958C277.795 13.5077 277.864 13.4016 277.908 13.2848L279.075 10.171V10.171ZM234.303 28.5327C234.585 27.7806 235.663 27.7806 235.945 28.5327L237.113 31.6462C237.157 31.7631 237.226 31.8693 237.315 31.9574C237.404 32.0455 237.512 32.1135 237.63 32.1568L240.785 33.3086C241.547 33.5871 241.547 34.6511 240.785 34.9292L237.63 36.0814C237.512 36.1247 237.404 36.1927 237.315 36.2808C237.226 36.3689 237.157 36.4751 237.113 36.592L235.945 39.7055C235.663 40.4576 234.585 40.4576 234.303 39.7055L233.136 36.592C233.092 36.4751 233.023 36.369 232.934 36.2808C232.845 36.1927 232.737 36.1247 232.619 36.0814L229.464 34.9292C228.701 34.6511 228.701 33.5871 229.464 33.3086L232.619 32.1568C232.737 32.1135 232.845 32.0455 232.934 31.9573C233.023 31.8692 233.092 31.7631 233.136 31.6462L234.303 28.5327V28.5327ZM80.2275 141.83C80.5097 141.077 81.5879 141.077 81.8697 141.83L83.0373 144.943C83.0811 145.06 83.15 145.166 83.2393 145.254C83.3286 145.342 83.4362 145.41 83.5546 145.454L86.7093 146.606C87.4718 146.884 87.4718 147.948 86.7093 148.226L83.5546 149.378C83.4362 149.422 83.3286 149.49 83.2393 149.578C83.15 149.666 83.0811 149.772 83.0373 149.889L81.8697 153.002C81.5879 153.754 80.5097 153.754 80.2275 153.002L79.0603 149.889C79.0164 149.772 78.9475 149.666 78.8582 149.578C78.7689 149.49 78.6614 149.422 78.5429 149.378L75.3879 148.226C74.6258 147.948 74.6258 146.884 75.3879 146.606L78.5429 145.454C78.6614 145.41 78.7689 145.342 78.8582 145.254C78.9475 145.166 79.0164 145.06 79.0603 144.943L80.2275 141.83ZM257.561 93.3725C257.843 92.6204 258.921 92.6204 259.204 93.3725L260.371 96.486C260.415 96.6028 260.484 96.7089 260.573 96.797C260.662 96.885 260.77 96.953 260.888 96.9962L264.043 98.1484C264.805 98.4268 264.805 99.4905 264.043 99.7689L260.888 100.921C260.77 100.964 260.662 101.032 260.573 101.12C260.484 101.208 260.415 101.315 260.371 101.431L259.204 104.545C258.921 105.297 257.843 105.297 257.561 104.545L256.394 101.431C256.35 101.315 256.281 101.208 256.192 101.12C256.102 101.032 255.995 100.964 255.876 100.921L252.721 99.7689C251.959 99.4905 251.959 98.4268 252.721 98.1484L255.876 96.9962C255.995 96.953 256.102 96.885 256.192 96.797C256.281 96.7089 256.35 96.6028 256.394 96.486L257.561 93.3725ZM216.278 135.834C216.56 135.081 217.638 135.081 217.92 135.834L219.088 138.947C219.132 139.064 219.2 139.17 219.29 139.258C219.379 139.346 219.487 139.414 219.605 139.458L222.76 140.61C223.522 140.888 223.522 141.952 222.76 142.23L219.605 143.382C219.365 143.47 219.177 143.656 219.088 143.893L217.92 147.006C217.638 147.758 216.56 147.758 216.278 147.006L215.111 143.893C215.067 143.776 214.998 143.67 214.909 143.582C214.819 143.494 214.712 143.426 214.593 143.382L211.439 142.23C210.676 141.952 210.676 140.888 211.439 140.61L214.593 139.458C214.712 139.414 214.819 139.346 214.909 139.258C214.998 139.17 215.067 139.064 215.111 138.947L216.278 135.834ZM165.111 152.474C165.393 151.722 166.471 151.722 166.753 152.474L167.92 155.587C167.964 155.704 168.033 155.81 168.122 155.899C168.212 155.987 168.319 156.055 168.438 156.098L171.592 157.25C172.355 157.528 172.355 158.592 171.592 158.87L168.438 160.023C168.319 160.066 168.212 160.134 168.122 160.222C168.033 160.31 167.964 160.416 167.92 160.533L166.753 163.647C166.471 164.399 165.393 164.399 165.111 163.647L163.943 160.533C163.899 160.416 163.83 160.31 163.741 160.222C163.652 160.134 163.544 160.066 163.426 160.023L160.271 158.87C159.509 158.592 159.509 157.528 160.271 157.25L163.426 156.098C163.544 156.055 163.652 155.987 163.741 155.899C163.83 155.81 163.899 155.704 163.943 155.587L165.111 152.474ZM233.14 164.524C233.422 163.772 234.5 163.772 234.783 164.524L235.95 167.637C236.038 167.874 236.227 168.06 236.467 168.148L239.622 169.3C240.384 169.578 240.384 170.642 239.622 170.92L236.467 172.073C236.349 172.116 236.241 172.184 236.152 172.272C236.062 172.36 235.994 172.466 235.95 172.583L234.783 175.696C234.5 176.449 233.422 176.449 233.14 175.696L231.973 172.583C231.929 172.466 231.86 172.36 231.771 172.272C231.681 172.184 231.574 172.116 231.455 172.073L228.3 170.92C227.538 170.642 227.538 169.578 228.3 169.3L231.455 168.148C231.574 168.105 231.681 168.037 231.771 167.948C231.86 167.86 231.929 167.754 231.973 167.637L233.14 164.524ZM257.561 132.391C257.843 131.639 258.921 131.639 259.204 132.391L260.371 135.504C260.415 135.621 260.483 135.727 260.573 135.815C260.662 135.904 260.77 135.972 260.888 136.015L264.043 137.167C264.805 137.445 264.805 138.509 264.043 138.788L260.888 139.939C260.77 139.983 260.662 140.051 260.573 140.139C260.483 140.227 260.415 140.333 260.371 140.45L259.204 143.563C258.921 144.316 257.843 144.316 257.561 143.563L256.394 140.45C256.35 140.333 256.281 140.227 256.192 140.139C256.102 140.051 255.995 139.983 255.876 139.939L252.721 138.788C251.959 138.509 251.959 137.445 252.721 137.167L255.876 136.015C255.995 135.972 256.102 135.904 256.192 135.815C256.281 135.727 256.35 135.621 256.394 135.504L257.561 132.391ZM94.6651 93.4745C94.9472 92.7224 96.0251 92.7224 96.3072 93.4745L97.4748 96.588C97.5187 96.7049 97.5876 96.8109 97.6769 96.899C97.7662 96.9871 97.8737 97.055 97.9922 97.0982L101.147 98.2504C101.909 98.5289 101.909 99.5926 101.147 99.871L97.9922 101.023C97.8737 101.066 97.7662 101.134 97.6769 101.222C97.5876 101.31 97.5187 101.417 97.4748 101.533L96.3072 104.647C96.0251 105.399 94.9472 105.399 94.6651 104.647L93.4975 101.533C93.4537 101.417 93.3848 101.31 93.2956 101.222C93.2064 101.134 93.0989 101.066 92.9805 101.023L89.8255 99.871C89.0633 99.5926 89.0633 98.5289 89.8255 98.2504L92.9805 97.0982C93.0989 97.055 93.2064 96.9871 93.2956 96.899C93.3848 96.8109 93.4537 96.7048 93.4975 96.588L94.6651 93.4745ZM63.3565 81.8962C63.6387 81.1441 64.7165 81.1441 64.9987 81.8962L66.1663 85.0097C66.2101 85.1266 66.279 85.2328 66.3683 85.3209C66.4576 85.409 66.5652 85.477 66.6836 85.5202L69.8383 86.6721C70.6008 86.9505 70.6008 88.0146 69.8383 88.293L66.6836 89.4449C66.5652 89.4881 66.4576 89.5561 66.3683 89.6443C66.279 89.7324 66.2101 89.8385 66.1663 89.9554L64.9987 93.0689C64.7165 93.8211 63.6387 93.8211 63.3565 93.0689L62.1889 89.9554C62.1452 89.8386 62.0763 89.7324 61.9871 89.6443C61.8978 89.5562 61.7903 89.4882 61.6719 89.4449L58.5169 88.293C57.7548 88.0146 57.7548 86.9505 58.5169 86.6721L61.6719 85.5202C61.7903 85.477 61.8978 85.4089 61.9871 85.3208C62.0763 85.2327 62.1452 85.1266 62.1889 85.0097L63.3565 81.8962Z" stroke="#E1E4E5" stroke-width="0.5"/>
<path d="M109.898 115.801C110.063 115.361 110.693 115.361 110.858 115.801L111.542 117.623C111.594 117.761 111.704 117.871 111.844 117.922L113.691 118.596C114.137 118.759 114.137 119.382 113.691 119.544L111.844 120.219C111.704 120.27 111.594 120.379 111.542 120.517L110.858 122.34C110.693 122.78 110.063 122.78 109.898 122.34L109.214 120.517C109.189 120.449 109.148 120.387 109.096 120.335C109.044 120.284 108.981 120.244 108.911 120.219L107.065 119.544C106.619 119.382 106.619 118.759 107.065 118.596L108.911 117.922C109.052 117.871 109.162 117.761 109.214 117.623L109.898 115.801Z" stroke="#E1E4E5" stroke-width="0.5"/>
<path fill-rule="evenodd" clip-rule="evenodd" d="M13.0808 183.85H154.696C167.989 183.85 167.379 172.96 163.037 169.165C158.587 165.275 149.793 166.853 149.793 166.853C149.793 166.853 147.175 159.528 138.558 155.961C130.935 152.806 122.95 154.307 122.95 154.307C122.95 154.307 122.95 149.28 118.069 145.116C113.188 140.952 106.681 141.357 106.681 141.357C106.681 141.357 102.208 113.635 72.314 113.635C42.4205 113.635 38.9638 139.738 38.9638 139.738C38.9638 139.738 32.2527 139.738 27.3718 144.19C22.4916 148.642 21.8815 153.7 21.8815 153.7C21.8815 153.7 5.55926 151.512 0.731852 165.522C-2.14473 173.872 3.76574 183.85 13.0808 183.85Z" fill="url(#paint4_linear_1204:20005)"/>
<defs>
<linearGradient id="paint0_linear_1204:20005" x1="181.824" y1="223.217" x2="180.907" y2="37.2315" gradientUnits="userSpaceOnUse">
<stop stop-color="white"/>
<stop offset="1" stop-color="#EEEEEE"/>
</linearGradient>
<linearGradient id="paint1_linear_1204:20005" x1="242.629" y1="223.217" x2="241.712" y2="37.2315" gradientUnits="userSpaceOnUse">
<stop stop-color="white"/>
<stop offset="1" stop-color="#EEEEEE"/>
</linearGradient>
<linearGradient id="paint2_linear_1204:20005" x1="229.463" y1="120.014" x2="193.091" y2="-45.6064" gradientUnits="userSpaceOnUse">
<stop stop-color="white"/>
<stop offset="1" stop-color="#EEEEEE"/>
</linearGradient>
<linearGradient id="paint3_linear_1204:20005" x1="260.631" y1="102.09" x2="328.894" y2="47.3743" gradientUnits="userSpaceOnUse">
<stop stop-color="white"/>
<stop offset="1" stop-color="#EEEEEE"/>
</linearGradient>
<linearGradient id="paint4_linear_1204:20005" x1="86.4417" y1="223.217" x2="85.5247" y2="37.2315" gradientUnits="userSpaceOnUse">
<stop stop-color="white"/>
<stop offset="1" stop-color="#EEEEEE"/>
</linearGradient>
</defs>
</svg>
