<svg width="57" height="64" viewBox="0 0 57 64" fill="none" xmlns="http://www.w3.org/2000/svg">
<path d="M57 28.783V55.335C57 56.0742 56.7078 56.7833 56.187 57.3079C55.6662 57.8324 54.9591 58.1297 54.22 58.135H51.44C51.0704 58.1376 50.7169 58.2863 50.4565 58.5486C50.1961 58.8108 50.05 59.1654 50.05 59.535V64L41.083 58.34C40.8536 58.1977 40.5879 58.1248 40.318 58.13H18.073C17.3339 58.1247 16.6268 57.8274 16.106 57.3029C15.5852 56.7783 15.293 56.0692 15.293 55.33V55.05L17.1 53.938H38.927C40.4044 53.9298 41.8185 53.3373 42.8604 52.2899C43.9024 51.2425 44.4875 49.8254 44.488 48.348V25.988H54.22C54.9583 25.9933 55.6646 26.2899 56.1852 26.8134C56.7059 27.3368 56.9987 28.0447 57 28.783ZM6.951 57.012V52.54C6.95101 52.1704 6.80488 51.8158 6.54449 51.5536C6.2841 51.2913 5.93057 51.1426 5.561 51.14H2.78C2.04225 51.1347 1.33639 50.8385 0.81583 50.3157C0.295273 49.7929 0.00208912 49.0858 9.12404e-10 48.348V21.8C-1.88553e-05 21.0608 0.292233 20.3517 0.813017 19.8271C1.3338 19.3026 2.04086 19.0053 2.78 19H38.927C39.6661 19.0053 40.3732 19.3026 40.894 19.8271C41.4148 20.3517 41.707 21.0608 41.707 21.8V48.348C41.707 49.0872 41.4148 49.7963 40.894 50.3209C40.3732 50.8454 39.6661 51.1427 38.927 51.148H16.683C16.4143 51.1517 16.151 51.224 15.918 51.358L6.951 57.012ZM20.851 36.469C21.1283 36.471 21.4 36.3906 21.6315 36.2379C21.863 36.0853 22.044 35.8674 22.1515 35.6117C22.259 35.3561 22.2882 35.0743 22.2353 34.8021C22.1824 34.5298 22.0499 34.2794 21.8545 34.0826C21.6591 33.8858 21.4097 33.7515 21.1378 33.6967C20.866 33.6418 20.584 33.669 20.3276 33.7746C20.0712 33.8803 19.8519 34.0597 19.6977 34.2902C19.5434 34.5206 19.461 34.7917 19.461 35.069C19.461 35.4391 19.6075 35.7941 19.8686 36.0565C20.1296 36.3188 20.4839 36.4672 20.854 36.469H20.851ZM33.363 36.469C33.6403 36.471 33.912 36.3906 34.1435 36.2379C34.375 36.0853 34.556 35.8674 34.6635 35.6117C34.771 35.3561 34.8002 35.0743 34.7473 34.8021C34.6944 34.5298 34.5619 34.2794 34.3665 34.0826C34.1711 33.8858 33.9217 33.7515 33.6498 33.6967C33.378 33.6418 33.096 33.669 32.8396 33.7746C32.5832 33.8803 32.3639 34.0597 32.2097 34.2902C32.0554 34.5206 31.973 34.7917 31.973 35.069C31.973 35.4391 32.1195 35.7941 32.3806 36.0565C32.6416 36.3188 32.9959 36.4672 33.366 36.469H33.363ZM9.729 35.069C9.72703 34.7945 9.64383 34.5268 9.4899 34.2995C9.33597 34.0722 9.11819 33.8956 8.86404 33.792C8.60988 33.6883 8.33072 33.6622 8.06175 33.7169C7.79278 33.7717 7.54604 33.9049 7.35264 34.0997C7.15924 34.2944 7.02785 34.5421 6.97502 34.8115C6.92219 35.0808 6.9503 35.3598 7.05579 35.6132C7.16128 35.8666 7.33944 36.0831 7.56781 36.2354C7.79617 36.3877 8.06451 36.469 8.339 36.469C8.70874 36.4672 9.06274 36.3191 9.32372 36.0572C9.5847 35.7953 9.73148 35.4407 9.732 35.071L9.729 35.069Z" fill="#46BBCB"/>
<path d="M31.6777 4.552V10.067" stroke="#46BBCB" stroke-width="1.5" stroke-linecap="round" stroke-linejoin="round"/>
<path d="M34.4359 7.43396H28.9209" stroke="#46BBCB" stroke-width="1.5" stroke-linecap="round" stroke-linejoin="round"/>
<path d="M44.5719 3.68903C45.3335 3.68903 45.9509 3.07163 45.9509 2.31003C45.9509 1.54843 45.3335 0.93103 44.5719 0.93103C43.8103 0.93103 43.1929 1.54843 43.1929 2.31003C43.1929 3.07163 43.8103 3.68903 44.5719 3.68903Z" fill="#46BBCB"/>
<path d="M43.193 13H40.436V15.757H43.193V13Z" stroke="#46BBCB" stroke-width="1.5" stroke-linecap="round" stroke-linejoin="round"/>
</svg>
