<svg xmlns="http://www.w3.org/2000/svg" width="75.911" height="39" viewBox="0 0 75.911 39">
  <g id="Group_4981" data-name="Group 4981" transform="matrix(-1, -0.017, 0.017, -1, 1239.5, 1309.793)">
    <g id="Group_4980" data-name="Group 4980" transform="translate(1244.082 1263.509)">
      <path id="Path_2659" data-name="Path 2659" d="M14,11v5.515" transform="translate(-11.243 -11)" fill="none" stroke="#3ba399" stroke-linecap="round" stroke-linejoin="round" stroke-width="1.5"/>
      <path id="Path_2660" data-name="Path 2660" d="M16.515,14H11" transform="translate(-11 -11.118)" fill="none" stroke="#3ba399" stroke-linecap="round" stroke-linejoin="round" stroke-width="1.5"/>
    </g>
    <circle id="Ellipse_248" data-name="Ellipse 248" cx="1.379" cy="1.379" r="1.379" transform="translate(1248.001 1249.682)" fill="#3ba399"/>
    <rect id="Rectangle_1492" data-name="Rectangle 1492" width="2.757" height="2.757" transform="translate(1258.17 1260.457)" fill="none" stroke="#3ba399" stroke-linecap="round" stroke-linejoin="round" stroke-width="1.5"/>
  </g>
  <g id="noun_customize_2397512" transform="translate(18.411 -15.9)">
    <g id="Group_4983" data-name="Group 4983" transform="translate(2.5 15.9)">
      <path id="Path_2666" data-name="Path 2666" d="M44.874,50.211a.247.247,0,0,1-.231.229H7.24c-.116,0-.289-.114-.289-.229V25.965H40.134l8.614-8.521a3.518,3.518,0,0,0-2.89-1.544H5.969A3.46,3.46,0,0,0,2.5,19.331V51.469A3.46,3.46,0,0,0,5.969,54.9H45.915a3.46,3.46,0,0,0,3.469-3.431V37.058l-4.509,4.46v8.692ZM17.3,19.445a1.485,1.485,0,0,1,1.5,1.487,1.522,1.522,0,0,1-1.5,1.487,1.487,1.487,0,1,1,0-2.974Zm-4.509,0a1.485,1.485,0,0,1,1.5,1.487,1.522,1.522,0,0,1-1.5,1.487,1.485,1.485,0,0,1-1.5-1.487A1.45,1.45,0,0,1,12.79,19.445Zm-4.567,0a1.485,1.485,0,0,1,1.5,1.487,1.522,1.522,0,0,1-1.5,1.487,1.487,1.487,0,1,1,0-2.974Z" transform="translate(-2.5 -15.9)" fill="#3ba399"/>
      <path id="Path_2667" data-name="Path 2667" d="M33.776,51.134a.523.523,0,0,0,.525-.525V48.334a.523.523,0,0,0-.525-.525H32.609a5.05,5.05,0,0,0-.583-1.4l.817-.817a.5.5,0,0,0,0-.758l-1.633-1.575a.5.5,0,0,0-.758,0l-.817.817a7.137,7.137,0,0,0-1.4-.583V42.325a.523.523,0,0,0-.525-.525H25.434a.523.523,0,0,0-.525.525v1.167a5.05,5.05,0,0,0-1.4.583l-.817-.817a.5.5,0,0,0-.758,0l-1.575,1.575a.5.5,0,0,0,0,.758l.817.817a7.137,7.137,0,0,0-.583,1.4H19.425a.523.523,0,0,0-.525.525v2.275a.523.523,0,0,0,.525.525h1.167a5.05,5.05,0,0,0,.583,1.4l-.817.817a.5.5,0,0,0,0,.758l1.575,1.575a.5.5,0,0,0,.758,0l.817-.817a7.137,7.137,0,0,0,1.4.583v1.167a.523.523,0,0,0,.525.525h2.275a.523.523,0,0,0,.525-.525V55.451a5.05,5.05,0,0,0,1.4-.583l.817.817a.5.5,0,0,0,.758,0l1.575-1.575a.5.5,0,0,0,0-.758l-.817-.817a7.137,7.137,0,0,0,.583-1.4ZM26.6,52.417A2.917,2.917,0,1,1,29.517,49.5,2.925,2.925,0,0,1,26.6,52.417Z" transform="translate(-9.435 -27.176)" fill="#3ba399"/>
      <rect id="Rectangle_1493" data-name="Rectangle 1493" width="16.567" height="7.292" transform="translate(33.377 19.335) rotate(-45)" fill="#3ba399"/>
      <path id="Path_2668" data-name="Path 2668" d="M52.281,59.617A1.062,1.062,0,0,0,53.564,60.9l4.667-1.05a1.53,1.53,0,0,0,.525-.292l1.225-1.225L54.847,53.2l-1.225,1.225a2.365,2.365,0,0,0-.292.525Z" transform="translate(-23.489 -31.974)" fill="#3ba399"/>
      <path id="Path_2669" data-name="Path 2669" d="M91.709,25.3l-3.617-3.617a1.165,1.165,0,0,0-1.575,0L84.3,23.9l5.134,5.134,2.217-2.217A1.042,1.042,0,0,0,91.709,25.3Z" transform="translate(-37.008 -18.181)" fill="#3ba399"/>
    </g>
  </g>
</svg>
