<svg width="50" height="51" viewBox="0 0 50 51" fill="none" xmlns="http://www.w3.org/2000/svg">
<path d="M27.8276 8.03003V1.68603V8.03003Z" fill="#8FB562"/>
<path d="M27.8276 8.03003V1.68603" stroke="#8FB562" stroke-width="1.5" stroke-linecap="round" stroke-linejoin="round"/>
<path d="M24.6555 4.71503L30.9995 4.71503L24.6555 4.71503Z" fill="#8FB562"/>
<path d="M24.6555 4.71503L30.9995 4.71503" stroke="#8FB562" stroke-width="1.5" stroke-linecap="round" stroke-linejoin="round"/>
<path d="M7.64642 9.68603C6.7705 9.68603 6.06042 10.3961 6.06042 11.272C6.06042 12.148 6.7705 12.858 7.64642 12.858C8.52235 12.858 9.23242 12.148 9.23242 11.272C9.23242 10.3961 8.52235 9.68603 7.64642 9.68603Z" fill="#8FB562" stroke="#8FB562"/>
<path d="M1.06042 31.3921H4.23242V28.2201H1.06042L1.06042 31.3921Z" fill="#8FB562" stroke="#8FB562" stroke-width="1.5" stroke-linecap="round" stroke-linejoin="round"/>
<path d="M49.7046 21.849L41.3176 7.73997C41.1346 7.36365 40.8763 7.02878 40.5589 6.75608C40.2415 6.48338 39.8715 6.27858 39.4719 6.15434C39.0723 6.0301 38.6515 5.98909 38.2354 6.03373C37.8193 6.07838 37.4168 6.20779 37.0526 6.41398L14.6856 19.714C14.0748 20.0702 13.6165 20.6386 13.398 21.311C13.1795 21.9834 13.216 22.7128 13.5006 23.36C11.5576 24.591 8.38262 36.712 8.38262 36.712L5.63457 38.985C5.33447 39.24 5.12582 39.586 5.04027 39.9704C4.95472 40.3549 4.99695 40.7567 5.16057 41.115L9.99358 50.115C10.1942 50.4808 10.5223 50.76 10.9154 50.8996C11.3085 51.0392 11.7393 51.0293 12.1256 50.8719C14.1378 49.9683 16.2537 49.3164 18.4256 48.931C20.0482 48.5485 21.5279 47.7107 22.6906 46.516C23.8276 45.143 35.3426 30.987 35.3426 30.987C35.614 30.6473 35.8129 30.2555 35.927 29.8359C36.041 29.4162 36.0679 28.9777 36.0057 28.5473C35.9436 28.117 35.7938 27.7039 35.5657 27.3337C35.3376 26.9635 35.0361 26.644 34.6796 26.3949C33.9984 25.9504 33.1773 25.7723 32.3731 25.8946C31.5689 26.0169 30.8379 26.431 30.3196 27.058L24.8706 33.7339C24.6809 33.9725 24.4356 34.161 24.1561 34.2829C23.8767 34.4047 23.5716 34.4562 23.2677 34.4328C22.9637 34.4094 22.6702 34.3119 22.4127 34.1487C22.1552 33.9856 21.9416 33.7618 21.7906 33.4969L18.9476 28.7149L42.8776 14.464L47.7106 22.5639C47.8233 22.7803 47.8518 23.0307 47.7905 23.2668C47.7291 23.5029 47.5824 23.7079 47.3786 23.842L38.2326 29.287V29.3819C38.2357 30.1077 37.9841 30.8116 37.5216 31.371L31.9296 38.2359L32.0716 38.4729C32.356 38.9676 32.8248 39.3295 33.3754 39.4795C33.926 39.6294 34.5136 39.5551 35.0096 39.2729L35.3416 39.084C35.8317 38.8024 36.2141 38.3658 36.4286 37.8429C36.6432 37.32 36.6777 36.7406 36.5266 36.196C36.7551 36.2739 36.9967 36.3061 37.2376 36.2909C37.6713 36.299 38.0984 36.1842 38.4696 35.9599C39.0412 35.6278 39.4604 35.0854 39.6375 34.4484C39.8146 33.8115 39.7357 33.1305 39.4176 32.5509C39.6616 32.6319 39.9191 32.6642 40.1756 32.646C40.6092 32.654 41.0363 32.5393 41.4076 32.315C41.9479 32.0137 42.3551 31.5202 42.5483 30.9325C42.7416 30.3449 42.7067 29.7061 42.4506 29.143L48.4686 25.592C49.1126 25.2428 49.599 24.6611 49.8287 23.9655C50.0584 23.2699 50.014 22.5129 49.7046 21.849ZM16.6766 24.8789L15.3976 22.748C15.2735 22.5341 15.2389 22.28 15.301 22.0408C15.3632 21.8015 15.5172 21.5964 15.7296 21.4699L38.0956 8.16996C38.312 8.05731 38.5624 8.02876 38.7986 8.08988C39.0348 8.15101 39.24 8.29747 39.3746 8.50096L40.6536 10.6319L16.6766 24.8789Z" fill="#8FB562"/>
<path d="M39.2517 25.3029L43.5517 22.7399C43.7607 22.6155 43.9131 22.4146 43.9764 22.1797C44.0397 21.9448 44.0089 21.6945 43.8907 21.4819L42.4397 19.0149C42.3153 18.8061 42.1145 18.654 41.8799 18.5907C41.6452 18.5275 41.3952 18.558 41.1827 18.6759L36.8827 21.2389C36.6736 21.3633 36.5213 21.5643 36.458 21.7992C36.3947 22.034 36.4254 22.2843 36.5437 22.4969L37.9947 24.9639C38.119 25.1727 38.3198 25.3249 38.5545 25.3882C38.7891 25.4514 39.0392 25.4209 39.2517 25.3029Z" fill="#8FB562"/>
</svg>
