<svg xmlns="http://www.w3.org/2000/svg" width="48" height="45.005" viewBox="0 0 48 45.005">
  <g id="noun_tags_87038" transform="translate(-0.961 0)">
    <path id="Path_2683" data-name="Path 2683" d="M13.407,11.8,18.174.446a.347.347,0,0,1,.018-.035c-.03.015-.059.025-.089.041L7.5,6.612a.909.909,0,0,0-.435.623L.976,40.525a.912.912,0,0,0,.145.675.9.9,0,0,0,.577.378l18.408,3.412a.9.9,0,0,0,.673-.144.914.914,0,0,0,.374-.582l2.173-11.88L13.432,12.556A.91.91,0,0,1,13.407,11.8ZM48.866,33.644,33.775,3.394a.913.913,0,0,0-.594-.474L21.221.025a.893.893,0,0,0-1.038.528L15.417,11.9a.918.918,0,0,0,.025.759L30.534,42.911a.89.89,0,0,0,1.2.4L48.466,34.86a.888.888,0,0,0,.449-.526A.9.9,0,0,0,48.866,33.644ZM26,10.826a2.467,2.467,0,0,1-3.321-1.107,2.5,2.5,0,0,1,1.1-3.345A2.468,2.468,0,0,1,27.1,7.482,2.5,2.5,0,0,1,26,10.826Z" transform="translate(0 0)" fill="#e3be43"/>
  </g>
</svg>
