<svg width="48" height="57" viewBox="0 0 48 57" fill="none" xmlns="http://www.w3.org/2000/svg">
<path d="M1.55635 49.189L9.91535 55.679C10.0683 55.8007 10.244 55.8906 10.4321 55.9437C10.6202 55.9967 10.817 56.0118 11.011 55.9879C11.205 55.9641 11.3923 55.9019 11.562 55.8049C11.7317 55.7079 11.8804 55.5781 11.9994 55.423L15.5294 50.907L15.7164 50.668L15.4794 50.479L5.25236 42.538L5.01436 42.353L4.82835 42.59L1.30035 47.105C1.1787 47.258 1.08873 47.4337 1.0357 47.6218C0.982662 47.8099 0.967621 48.0067 0.991451 48.2007C1.01528 48.3947 1.07751 48.582 1.17449 48.7517C1.27148 48.9214 1.4013 49.07 1.55635 49.189Z" fill="#DF8E54" stroke="#DF8E54" stroke-width="0.8"/>
<path d="M16.8975 49.409L26.5665 50.551C27.4464 50.664 28.3403 50.5924 29.1911 50.3407C30.0418 50.089 30.8307 49.6627 31.5075 49.089L45.9585 37.414C46.2614 37.1752 46.5102 36.8748 46.6881 36.5325C46.866 36.1903 46.9691 35.8141 46.9905 35.429C47.0348 34.6682 46.7841 33.9196 46.2905 33.339C45.9823 32.9501 45.5636 32.6638 45.0894 32.5178C44.6153 32.3717 44.108 32.3728 43.6345 32.521L36.4345 34.805L36.2345 34.869V35.095C36.3155 36.1725 36.0069 37.2433 35.3649 38.1125C34.7229 38.9817 33.7902 39.5915 32.7365 39.831L32.2535 39.931C29.6147 40.4968 26.9277 40.8076 24.2295 40.859L22.0085 40.911C21.7237 40.8948 21.4557 40.7713 21.2583 40.5654C21.0609 40.3595 20.9488 40.0865 20.9446 39.8013C20.9404 39.5161 21.0445 39.2399 21.2357 39.0284C21.427 38.8168 21.6913 38.6855 21.9755 38.661L24.1925 38.609C26.7765 38.5483 29.3496 38.251 31.8795 37.721L32.3585 37.621C32.8627 37.5067 33.3151 37.2291 33.6453 36.8313C33.9755 36.4334 34.1651 35.9376 34.1845 35.421C34.2253 34.7862 34.0325 34.1584 33.6425 33.656V33.649L33.6375 33.642C33.4485 33.4086 33.2151 33.2151 32.9507 33.0728C32.6863 32.9305 32.3963 32.8422 32.0975 32.813H32.0875L20.4875 32.138C19.1419 32.0744 17.8159 32.4794 16.7355 33.284L7.01847 40.654L6.70947 40.889L7.00947 41.139L16.7765 49.339L16.8395 49.392L16.8975 49.409Z" fill="#DF8E54" stroke="#DF8E54" stroke-width="0.8"/>
<path d="M38.4684 7.61992H38.1684V18.8739C38.171 19.07 38.1237 19.2635 38.031 19.4363C37.9383 19.6092 37.8032 19.7556 37.6384 19.8619C37.439 19.9959 37.2056 20.0705 36.9654 20.0769C36.8077 20.0726 36.6516 20.0443 36.5024 19.9929L32.2584 18.1299L32.1364 18.0769L32.0144 18.1299L27.7584 19.9989C27.5796 20.0781 27.3839 20.1119 27.1889 20.0972C26.9938 20.0826 26.8054 20.02 26.6404 19.9149C26.475 19.8089 26.3392 19.6624 26.246 19.4894C26.1527 19.3164 26.105 19.1225 26.1074 18.9259V7.61992H21.6504C21.2558 7.61767 20.8647 7.69372 20.4997 7.84369C20.1347 7.99365 19.8031 8.21455 19.5241 8.49357C19.2451 8.7726 19.0242 9.10421 18.8742 9.46921C18.7242 9.8342 18.6482 10.2253 18.6504 10.6199V28.0099V28.0199C18.6666 28.8236 18.9938 29.5898 19.5631 30.1572C20.1325 30.7247 20.8997 31.0494 21.7034 31.0629H42.6214C43.016 31.0652 43.4072 30.9891 43.7722 30.8392C44.1371 30.6892 44.4688 30.4683 44.7478 30.1893C45.0268 29.9102 45.2477 29.5786 45.3977 29.2136C45.5476 28.8486 45.6237 28.4575 45.6214 28.0629V10.6199C45.6237 10.2253 45.5476 9.8342 45.3977 9.46921C45.2477 9.10421 45.0268 8.7726 44.7478 8.49357C44.4688 8.21455 44.1371 7.99365 43.7722 7.84369C43.4072 7.69372 43.016 7.61767 42.6214 7.61992H38.4684Z" fill="#DF8E54" stroke="#DF8E54" stroke-width="0.8"/>
<path d="M9.03857 1.078V4.922" stroke="#DF8E54" stroke-width="1.5" stroke-linecap="round" stroke-linejoin="round"/>
<path d="M10.9605 3.08704H7.11646" stroke="#DF8E54" stroke-width="1.5" stroke-linecap="round" stroke-linejoin="round"/>
<path d="M9.99957 14.228C10.5303 14.228 10.9606 13.7978 10.9606 13.267C10.9606 12.7363 10.5303 12.306 9.99957 12.306C9.46883 12.306 9.03857 12.7363 9.03857 13.267C9.03857 13.7978 9.46883 14.228 9.99957 14.228Z" fill="#DF8E54"/>
<path d="M20.9806 1.078H19.0586V3H20.9806V1.078Z" fill="#DF8E54" stroke="#DF8E54" stroke-width="1.5" stroke-linecap="round" stroke-linejoin="round"/>
</svg>