<svg width="67" height="46" viewBox="0 0 67 46" fill="none" xmlns="http://www.w3.org/2000/svg">
<path d="M4.72852 22.656V29Z" fill="#6CAF6F"/>
<path d="M4.72852 22.656V29" stroke="#6CAF6F" stroke-width="1.5" stroke-linecap="round" stroke-linejoin="round"/>
<path d="M7.90064 25.971H1.55664Z" fill="#6CAF6F"/>
<path d="M7.90064 25.971H1.55664" stroke="#6CAF6F" stroke-width="1.5" stroke-linecap="round" stroke-linejoin="round"/>
<path d="M17.3077 17.8569C18.1836 17.8569 18.8937 17.1469 18.8937 16.2709C18.8937 15.395 18.1836 14.6849 17.3077 14.6849C16.4318 14.6849 15.7217 15.395 15.7217 16.2709C15.7217 17.1469 16.4318 17.8569 17.3077 17.8569Z" fill="#6CAF6F" stroke="#6CAF6F"/>
<path d="M11.0724 1.29395H7.90039V4.46595H11.0724V1.29395Z" fill="#6CAF6F" stroke="#6CAF6F" stroke-width="1.5" stroke-linecap="round" stroke-linejoin="round"/>
<path d="M30.5229 8.62595V2.78195C30.5205 2.16469 30.7634 1.57176 31.1981 1.13351C31.6328 0.695268 32.2237 0.447593 32.8409 0.444946H42.7989C43.4162 0.447593 44.0071 0.695268 44.4418 1.13351C44.8765 1.57176 45.1193 2.16469 45.1169 2.78195V4.11095H45.6169C49.3629 4.11095 49.5499 6.18895 49.5499 6.18895H45.1179V8.62595C45.1434 9.60034 44.9736 10.57 44.6183 11.4777C44.263 12.3853 43.7296 13.2127 43.0494 13.9109C42.3693 14.6091 41.5562 15.164 40.6581 15.5429C39.76 15.9218 38.7952 16.117 37.8204 16.117C36.8457 16.117 35.8809 15.9218 34.9828 15.5429C34.0847 15.164 33.2716 14.6091 32.5915 13.9109C31.9113 13.2127 31.3778 12.3853 31.0226 11.4777C30.6673 10.57 30.4974 9.60034 30.5229 8.62595V8.62595ZM44.6029 33.4929C44.6046 33.0744 44.5239 32.6597 44.3653 32.2723C44.2067 31.885 43.9734 31.5327 43.6787 31.2356C43.384 30.9384 43.0336 30.7022 42.6476 30.5405C42.2616 30.3788 41.8475 30.2946 41.4289 30.2929H31.8429L29.7909 21.6709L33.2759 28.4649H40.1359V25.6519H52.2939L50.8169 19.4459C50.6528 18.7507 50.2587 18.1313 49.6987 17.6879C49.1386 17.2445 48.4453 17.0032 47.7309 17.0029V16.9749H26.1759L26.1829 17.0039C25.6981 16.9957 25.218 17.0997 24.7801 17.308C24.3422 17.5163 23.9585 17.8231 23.659 18.2044C23.3596 18.5858 23.1524 19.0313 23.0539 19.506C22.9553 19.9808 22.968 20.4719 23.0909 20.9409L26.2569 34.2409C26.4204 34.9369 26.8137 35.5574 27.3733 36.0023C27.9329 36.4472 28.6261 36.6905 29.3409 36.6929H41.4289C42.2741 36.6892 43.0832 36.3501 43.6784 35.75C44.2736 35.15 44.6061 34.3381 44.6029 33.4929V33.4929ZM48.1239 26.5659H41.0439V28.4659H41.4289C42.75 28.4846 44.0107 29.0225 44.9383 29.9633C45.866 30.9041 46.386 32.1722 46.386 33.4934C46.386 34.8147 45.866 36.0828 44.9383 37.0236C44.0107 37.9644 42.75 38.5023 41.4289 38.5209H41.0439V39.0479H62.4049V26.5649H48.1229L48.1239 26.5659ZM41.0439 39.9659H40.1379V38.5209H31.0919L31.6159 40.8149V45.9999H47.7309V39.9619H41.0439V39.9659ZM63.3119 30.3299V36.6629C64.0927 36.5784 64.8148 36.2084 65.3394 35.6239C65.864 35.0395 66.1542 34.2818 66.1542 33.4964C66.1542 32.7111 65.864 31.9534 65.3394 31.369C64.8148 30.7845 64.0927 30.4145 63.3119 30.3299V30.3299Z" fill="#6CAF6F"/>
</svg>
