<svg width="71" height="52" viewBox="0 0 71 52" fill="none" xmlns="http://www.w3.org/2000/svg">
<path d="M12.71 17.631V23.146V17.631Z" fill="#34B0E6"/>
<path d="M12.71 17.631V23.146" stroke="#34B0E6" stroke-width="1.5" stroke-linecap="round" stroke-linejoin="round"/>
<path d="M15.4681 20.513H9.95312H15.4681Z" fill="#34B0E6"/>
<path d="M15.4681 20.513H9.95312" stroke="#34B0E6" stroke-width="1.5" stroke-linecap="round" stroke-linejoin="round"/>
<path d="M18.0333 3.37995C18.7949 3.37995 19.4123 2.76255 19.4123 2.00095C19.4123 1.23935 18.7949 0.621948 18.0333 0.621948C17.2717 0.621948 16.6543 1.23935 16.6543 2.00095C16.6543 2.76255 17.2717 3.37995 18.0333 3.37995Z" fill="#34B0E6" stroke="#34B0E6"/>
<path d="M3.99919 8.146H1.24219V10.903H3.99919V8.146Z" fill="#34B0E6" stroke="#34B0E6" stroke-width="1.5" stroke-linecap="round" stroke-linejoin="round"/>
<path d="M20.6842 13.3689L22.5932 12.8139L27.1932 11.4259V22.6379L32.4722 21.6379V9.87494L37.1892 8.48695L41.9622 7.09894C42.0182 7.09894 42.0742 7.09894 42.0742 7.04294H42.1862C42.4641 6.98748 42.7503 6.98748 43.0282 7.04294H43.1402C43.1962 7.04294 43.2522 7.04294 43.2522 7.09894L52.1252 9.70794C50.9999 10.8745 50.0863 12.2281 49.4252 13.7079L44.8872 12.3749V46.6159L61.5652 41.6749V31.6849H61.6212C63.1907 31.6704 64.7463 31.3887 66.2212 30.8519V43.3409C66.211 43.8416 66.0424 44.3261 65.7397 44.7249C65.437 45.1238 65.0156 45.4165 64.5362 45.5609L43.3142 51.8889C42.8771 52.0371 42.4033 52.0371 41.9662 51.8889L20.6842 45.5619C20.1963 45.4319 19.7657 45.1428 19.4606 44.7406C19.1554 44.3383 18.993 43.8458 18.9992 43.3409V15.5889C18.9933 15.0842 19.1557 14.592 19.4609 14.1899C19.766 13.7879 20.1965 13.499 20.6842 13.3689ZM61.6212 9.42794C63.4499 9.44925 65.2315 10.011 66.7417 11.0425C68.2519 12.074 69.4232 13.5292 70.1083 15.2249C70.7933 16.9206 70.9615 18.781 70.5916 20.5721C70.2218 22.3632 69.3304 24.0048 68.0296 25.2904C66.7289 26.576 65.077 27.4481 63.2817 27.7971C61.4865 28.146 59.6281 27.956 57.9405 27.2512C56.253 26.5464 54.8116 25.3581 53.7978 23.836C52.784 22.3138 52.2431 20.5258 52.2432 18.6969C52.2622 16.2256 53.2598 13.8626 55.0176 12.1253C56.7753 10.388 59.1498 9.41808 61.6212 9.42794ZM56.8992 18.9749L58.6402 20.6959L60.4422 22.4749L62.2422 20.6989L66.3422 16.6469L64.5422 14.8709L60.4422 18.9229L58.6992 17.1989L56.8992 18.9749Z" fill="#34B0E6"/>
</svg>
