<svg xmlns="http://www.w3.org/2000/svg" width="203.423" height="121.136" viewBox="0 0 203.423 121.136"><defs><style>.a{fill:#fcecb0;}.b{fill:#ffd538;}.c,.d{fill:#212121;}.c{opacity:0.1;}</style></defs><g transform="translate(-70.288 -291.432)"><ellipse class="a" cx="101.712" cy="7.567" rx="101.712" ry="7.567" transform="translate(70.288 397.435)"/><path class="b" d="M300.5,462.2l-8.034,20.084-29.049.233-9.464.076-22.458.181-9.459.076-22.458.181-9.46.076-22.458.185-9.46.076-15.159.121-2.932-6-3.8-7.772-2.1-4.3L133,462.2l7.21-22.835a11.008,11.008,0,0,1,10.5-7.692h131.18a11.011,11.011,0,0,1,10.367,7.319l.835,2.354Z" transform="translate(-46.854 -140.243)"/><rect class="b" width="167.5" height="42.176" transform="translate(86.146 321.96)"/><rect class="c" width="167.5" height="42.176" transform="translate(86.146 320.34)"/><path class="d" d="M217.5,582.445H50v-83.95l21.691,16.87,124.922-.8L217.5,498.495Z" transform="translate(36.146 -176.536)"/><rect class="b" width="31.331" height="4.418" transform="translate(94.782 387.429)"/><path class="b" d="M210.664,712.576a3.492,3.492,0,1,1,3.492-3.492A3.492,3.492,0,0,1,210.664,712.576Zm0-6.4a2.91,2.91,0,1,0,2.91,2.91,2.91,2.91,0,0,0-2.91-2.91Z" transform="translate(-99.441 -334.444)"/></g></svg>