<svg xmlns="http://www.w3.org/2000/svg" width="20.374" height="20" viewBox="0 0 20.374 20"><defs><style>.a{fill:#fff;}</style></defs><g transform="translate(966 -352)"><g transform="translate(-969 350)"><path class="a" d="M12.828,18.707,12.535,19H9V15.464l.293-.293,8.839-8.839.707-.707L19,5.464V4a2,2,0,0,0-2-2H8L3,7V20a2,2,0,0,0,2,2H17a2,2,0,0,0,2-2V12.536ZM4.5,8,9,3.5V8Zm7.621,10H10V15.879L18.839,7.04,20.96,9.161ZM23.081,7.04,21.667,8.454,19.546,6.333,20.96,4.919a1,1,0,0,1,1.414,0l.707.707A1,1,0,0,1,23.081,7.04Z"/></g></g></svg>