<svg width="18" height="18" viewBox="0 0 18 18" fill="none" xmlns="http://www.w3.org/2000/svg">
<rect x="0.35" y="0.35" width="17.3" height="17.3" rx="3.65" fill="#4B7BE5" stroke="#4B7BE5" stroke-width="0.7"/>
<path d="M9.02202 5.86159C9.42431 5.86672 9.80802 6.02285 10.093 6.29719C10.696 6.87732 10.696 7.81904 10.093 8.40033C9.48918 8.98079 8.51047 8.98079 7.90721 8.40033C7.30309 7.81904 7.30309 6.87732 7.90721 6.29719C8.20196 6.01242 8.60442 5.85579 9.02202 5.86159ZM8.99966 3.5C6.79154 3.5 5 5.22368 5 7.34834C5 8.17517 5.36564 9.42831 6.14183 10.299L8.99966 13.5L11.8575 10.299C12.6345 9.42815 13 8.17517 13 7.34834C13.0002 5.22351 11.2088 3.5 8.99966 3.5Z" fill="white"/>
</svg>
