<svg width="18" height="14" viewBox="0 0 18 14" fill="none" xmlns="http://www.w3.org/2000/svg">
<path d="M8.12588 5.3725C8.39129 5.49894 8.68496 5.56885 8.98459 5.57694C9.28422 5.58502 9.58194 5.53107 9.85517 5.41917L17.9552 2.53167C17.8527 1.8336 17.4754 1.19273 16.8929 0.727398C16.3104 0.262067 15.562 0.00369831 14.7859 0H3.21445C2.43837 0.00369831 1.68997 0.262067 1.10744 0.727398C0.524915 1.19273 0.147599 1.8336 0.045166 2.53167L8.12588 5.3725Z" fill="#4B7BE5"/>
<path d="M10.3564 6.4937C9.9525 6.6603 9.5144 6.74776 9.07071 6.75036C8.56046 6.74331 8.05888 6.62953 7.605 6.41786L0 3.76953V11.0845C0 11.8581 0.338647 12.5999 0.941442 13.1469C1.54424 13.6939 2.3618 14.0012 3.21429 14.0012H14.7857C15.6382 14.0012 16.4558 13.6939 17.0586 13.1469C17.6614 12.5999 18 11.8581 18 11.0845V3.77536L10.3564 6.4937Z" fill="#4B7BE5"/>
</svg>
