<svg width="22" height="22" viewBox="0 0 22 22" fill="none" xmlns="http://www.w3.org/2000/svg">
<path d="M3.6671 2.32433C4.43151 2.32433 5.05007 2.95356 5.05007 3.73095C5.05007 4.50892 4.43151 5.1399 3.6671 5.1399C2.90325 5.1399 2.28326 4.50892 2.28326 3.73095C2.28355 2.95356 2.90325 2.32433 3.6671 2.32433ZM0 3.73095C0.00142722 5.01905 0.651097 6.20808 1.71266 6.88903C1.81485 6.95439 1.95358 7.08599 2.01837 7.19028C2.41543 7.82968 2.6492 8.78806 2.97746 9.31561C3.23322 9.72871 4.15663 9.72755 4.41182 9.31561L5.40488 7.13392C5.4691 7.02963 5.60555 6.89513 5.70688 6.82686C6.71792 6.13807 7.33162 4.97954 7.33334 3.73066C7.33334 1.6704 5.69203 0 3.66681 0C1.64244 0.000290505 0 1.67069 0 3.73095Z" fill="#4B7BE5"/>
<path d="M14.1138 15.672H13.1046C12.9805 15.672 12.9705 15.6755 12.9396 15.7922L12.6582 16.928C12.6042 17.1683 12.5941 17.1771 12.8302 17.1771H14.0844C14.2476 17.1771 14.2885 17.1831 14.2885 16.9496V15.8665C14.2888 15.6809 14.2524 15.672 14.1138 15.672ZM21.4382 13.1055C21.7487 13.1055 21.9999 13.2629 21.9999 13.6321V19.9259C21.9999 20.2968 21.7504 20.5948 21.4382 20.5948H20.4668L20.4699 20.5547C20.4699 19.619 19.7231 18.8601 18.8029 18.8601C17.8811 18.8584 17.1346 19.619 17.1346 20.5547C17.1346 20.5681 17.136 20.5815 17.1374 20.5948H15.6278L15.6309 20.5547C15.6309 19.619 14.8841 18.8601 13.964 18.8601C13.0421 18.8601 12.2956 19.619 12.2956 20.5547C12.297 20.5681 12.297 20.5815 12.2984 20.5948H11.2514C10.9832 20.5948 10.7659 20.3364 10.7659 20.0167V19.0616C10.7659 18.568 10.9221 18.2153 11.1741 17.9275L11.8232 17.1873L12.2214 15.4577C12.3029 15.029 12.5073 14.879 12.9564 14.879H14.676V13.6324C14.676 13.2632 14.9269 13.1058 15.2389 13.1058H21.4382V13.1055Z" fill="#4B7BE5"/>
<path d="M18.7243 21.2698C18.4332 21.2698 18.1968 21.0728 18.1968 20.8306C18.1968 20.588 18.4332 20.3924 18.7243 20.3924C19.015 20.3924 19.2499 20.588 19.2499 20.8306C19.2502 21.073 19.0153 21.2698 18.7243 21.2698ZM18.7243 22.0006C19.4989 22.0006 20.1276 21.4759 20.1276 20.8306C20.1276 20.1843 19.4989 19.6602 18.7243 19.6602C17.9478 19.6602 17.3191 20.1843 17.3191 20.8306C17.3194 21.4759 17.9481 22.0006 18.7243 22.0006Z" fill="#4B7BE5"/>
<path d="M13.8078 20.3906C13.5655 20.3906 13.3697 20.5877 13.3697 20.8304C13.3697 21.0725 13.5655 21.2696 13.8078 21.2696C14.0501 21.2696 14.2471 21.0725 14.2471 20.8304C14.2471 20.5877 14.0501 20.3906 13.8078 20.3906ZM13.8078 19.6602C14.4549 19.6602 14.9786 20.1843 14.9786 20.8306C14.9786 21.4759 14.4549 22.0006 13.8078 22.0006C13.1619 22.0006 12.6382 21.4759 12.6382 20.8306C12.6382 20.1843 13.1619 19.6602 13.8078 19.6602Z" fill="#4B7BE5"/>
<path d="M7.3303 18.5148C6.53698 18.4917 6.53698 19.683 7.3303 19.6593H9.08512C9.87844 19.683 9.87844 18.4917 9.08512 18.5148H7.3303ZM2.70795 18.5148C1.91296 18.4917 1.91296 19.683 2.70795 19.6593H5.01704C5.81176 19.683 5.81176 18.4917 5.01704 18.5148H2.70795ZM1.03847 15.5717C0.719915 15.5761 0.465017 15.8352 0.468075 16.1511V18.4418C0.468075 19.206 1.62637 19.206 1.62637 18.4418V16.1511C1.62915 15.8275 1.36425 15.5656 1.03847 15.5717ZM1.03847 10.9917C0.718247 10.9961 0.463627 11.2558 0.468075 11.5725V13.8618C0.468075 14.626 1.62637 14.626 1.62637 13.8618V11.5725C1.63054 11.2497 1.36536 10.9856 1.03847 10.9917ZM16.7626 10.5397C15.9693 10.5155 15.9693 11.7085 16.7626 11.6843H19.0734C19.8667 11.7085 19.8667 10.5155 19.0734 10.5397H16.7626ZM12.14 10.5397C11.3467 10.5155 11.3467 11.7085 12.14 11.6843H14.4508C15.2441 11.7085 15.2441 10.5155 14.4508 10.5397H12.14ZM7.5171 10.5397C6.72377 10.5155 6.72377 11.7085 7.5171 11.6843H9.82897C10.6223 11.7085 10.6223 10.5155 9.82897 10.5397H7.5171ZM2.89419 10.5397C2.09975 10.5155 2.09975 11.7085 2.89419 11.6843H5.20662C5.99966 11.7085 5.99966 10.5155 5.20662 10.5397H2.89419ZM20.9452 7.81586C20.6267 7.82026 20.3718 8.07996 20.3762 8.39528V10.6854C20.3532 11.4717 21.5562 11.4717 21.5315 10.6854V8.39528C21.5359 8.07252 21.2696 7.81007 20.9452 7.81586ZM20.9452 3.23611C20.6267 3.24051 20.3718 3.50021 20.3762 3.8158V6.10595C20.3532 6.89192 21.5562 6.89192 21.5315 6.10595V3.8158C21.5359 3.49305 21.2696 3.2306 20.9452 3.23611ZM16.7682 2.80898C15.9749 2.78419 15.9749 3.97608 16.7682 3.9535H19.0817C19.8751 3.97608 19.8751 2.78419 19.0817 2.80898H16.7682ZM12.1486 2.80898C11.3539 2.78419 11.3539 3.97608 12.1486 3.9535H14.4594C15.2527 3.97608 15.2527 2.78419 14.4594 2.80898H12.1486ZM8.31793 2.80898C7.52321 2.78419 7.52321 3.97608 8.31793 3.9535H9.83508C10.6298 3.97608 10.6298 2.78419 9.83508 2.80898H8.31793Z" fill="#4B7BE5"/>
</svg>
