<svg width="22" height="22" viewBox="0 0 22 22" fill="none" xmlns="http://www.w3.org/2000/svg">
<path d="M21.8557 7.7483L17.7552 0.850554C17.2687 0.0172691 16.3652 -0.214196 15.6702 0.202446L4.73548 6.70669C4.13314 7.05389 3.87831 7.77145 4.15631 8.489C3.20647 9.09082 1.6543 15.0164 1.6543 15.0164L0.310627 16.1274C0.00945909 16.3821 -0.0832081 16.7987 0.0789595 17.169L2.44196 21.5669C2.65046 21.9373 3.09063 22.0993 3.48447 21.9373C4.2258 21.6132 5.45366 21.1503 6.56566 20.9883C7.42283 20.8725 8.48851 20.0392 8.65067 19.8078C9.20668 19.1365 14.8362 12.2156 14.8362 12.2156C15.3922 11.5212 15.2532 10.4796 14.5119 9.97039C13.84 9.50745 12.9134 9.66948 12.3805 10.2944L9.71634 13.5581C9.29934 14.0674 8.53483 13.9979 8.2105 13.4424L6.82049 11.1046L18.5197 4.1374L20.8827 8.0955C20.9986 8.30382 20.9291 8.58159 20.7206 8.72047L16.2494 11.3823C16.2494 11.4055 16.2494 11.4055 16.2494 11.4286C16.2494 11.7758 16.1335 12.123 15.9019 12.4008L13.1682 15.7571L13.2377 15.8728C13.5157 16.3821 14.1644 16.5441 14.674 16.2663L14.8362 16.1737C15.3459 15.896 15.5544 15.2942 15.4154 14.7618C15.5312 14.8081 15.647 14.8081 15.7629 14.8081C15.9714 14.8081 16.1799 14.7618 16.3652 14.646C16.9444 14.322 17.1529 13.5581 16.8285 12.9795C16.9444 13.0258 17.0602 13.0258 17.1992 13.0258C17.4077 13.0258 17.6162 12.9795 17.8016 12.8637C18.3576 12.5628 18.566 11.8684 18.3112 11.3129L21.2534 9.5769C21.9484 9.18341 22.1801 8.28068 21.8557 7.7483ZM5.70849 9.2297L5.08298 8.18809C4.94398 7.97977 5.03665 7.70201 5.24515 7.56313L16.1799 1.05887C16.3884 0.943133 16.6664 1.01258 16.8054 1.2209L17.4309 2.2625L5.70849 9.2297Z" fill="#4B7BE5"/>
<path d="M16.8517 9.39092L18.9135 8.16414C19.122 8.04841 19.1915 7.77065 19.0757 7.56233L18.3807 6.38183C18.2649 6.17351 17.9868 6.10408 17.7783 6.21982L15.7165 7.4466C15.508 7.56233 15.4385 7.84009 15.5543 8.04841L16.2493 9.2289C16.3652 9.43722 16.6432 9.50665 16.8517 9.39092Z" fill="#4B7BE5"/>
</svg>
