<svg width="32" height="17" viewBox="0 0 32 17" fill="none" xmlns="http://www.w3.org/2000/svg">
<path d="M30.7885 7.95043L27.2217 7.48285L25.1691 3.94259C24.6307 2.97403 23.5876 2.40625 22.4771 2.40625H18.5738C18.2037 2.40625 17.9008 2.70684 17.9008 3.07422V10.7893H8.78187C8.41173 10.7893 8.10889 11.0899 8.10889 11.4573V13.528C8.10889 13.8954 8.41173 14.196 8.78187 14.196H10.0942C10.2288 15.7657 11.5411 17.0015 13.1563 17.0015C14.7714 17.0015 16.0838 15.7657 16.2184 14.196H23.7895C23.9241 15.7657 25.2364 17.0015 26.8515 17.0015C28.4667 17.0015 29.779 15.7657 29.9136 14.196H30.6203C31.3605 14.196 31.9999 13.5948 31.9999 12.8266V9.31978C31.9662 8.61841 31.4615 8.05063 30.7885 7.95043ZM13.1563 15.5987C12.2477 15.5987 11.5411 14.864 11.5411 13.9956C11.5411 13.1272 12.2814 12.3925 13.1563 12.3925C14.0648 12.3925 14.7714 13.1272 14.7714 13.9956C14.7714 14.864 14.0312 15.5987 13.1563 15.5987ZM24.698 7.38265H20.2563C20.189 7.38265 20.1217 7.31586 20.1217 7.24906V4.44357C20.1217 4.37677 20.189 4.30998 20.2563 4.30998H22.4771C22.9146 4.30998 23.2847 4.54377 23.4866 4.91115L24.7989 7.21566C24.8662 7.28246 24.7989 7.38265 24.698 7.38265ZM26.8179 15.5987C25.9094 15.5987 25.2027 14.864 25.2027 13.9956C25.2027 13.1272 25.943 12.3925 26.8179 12.3925C27.6928 12.3925 28.4331 13.1272 28.4331 13.9956C28.4331 14.864 27.7264 15.5987 26.8179 15.5987Z" fill="#4B7BE5"/>
<path d="M16.9254 9.15124V0.667974C16.9254 0.300588 16.6226 0 16.2525 0H7.57094C7.20079 0 6.89795 0.300588 6.89795 0.667974V9.15124C6.89795 9.51863 7.20079 9.81921 7.57094 9.81921H16.2525C16.6226 9.81921 16.9254 9.51863 16.9254 9.15124Z" fill="#4B7BE5"/>
<path d="M0.403791 3.24083H5.31659C5.55213 3.24083 5.72038 3.07384 5.72038 2.84005V2.20547C5.72038 1.97168 5.55213 1.80469 5.31659 1.80469H0.403791C0.168246 1.80469 0 1.97168 0 2.20547V2.84005C0 3.04044 0.168246 3.24083 0.403791 3.24083Z" fill="#4B7BE5"/>
<path d="M1.61497 5.64318H5.31639C5.55194 5.64318 5.72019 5.47618 5.72019 5.24239V4.60782C5.72019 4.37402 5.55194 4.20703 5.31639 4.20703H1.61497C1.37943 4.20703 1.21118 4.37402 1.21118 4.60782V5.24239C1.21118 5.44278 1.37943 5.64318 1.61497 5.64318Z" fill="#4B7BE5"/>
<path d="M2.8264 8.04942H5.31645C5.55199 8.04942 5.72024 7.88243 5.72024 7.64864V7.01407C5.72024 6.78027 5.55199 6.61328 5.31645 6.61328H2.8264C2.59085 6.61328 2.42261 6.78027 2.42261 7.01407V7.64864C2.42261 7.84903 2.59085 8.04942 2.8264 8.04942Z" fill="#4B7BE5"/>
</svg>
