<svg width="17" height="17" viewBox="0 0 17 17" fill="none" xmlns="http://www.w3.org/2000/svg">
<path d="M0 14.2178C0 14.9557 0.293127 15.6634 0.814895 16.1852C1.33666 16.7069 2.04433 17.0001 2.78223 17.0001H12.7784C13.5163 17.0001 14.2239 16.7069 14.7457 16.1852C15.2675 15.6634 15.5606 14.9557 15.5606 14.2178V10.9984C15.5606 10.7876 15.4768 10.5854 15.3278 10.4363C15.1787 10.2872 14.9765 10.2035 14.7657 10.2035C14.5549 10.2035 14.3527 10.2872 14.2036 10.4363C14.0545 10.5854 13.9708 10.7876 13.9708 10.9984V14.2178C13.9708 14.5341 13.8451 14.8374 13.6215 15.061C13.3979 15.2846 13.0946 15.4102 12.7784 15.4102H2.78223C2.46599 15.4102 2.1627 15.2846 1.93909 15.061C1.71547 14.8374 1.58984 14.5341 1.58984 14.2178V4.22168C1.58984 3.90544 1.71547 3.60215 1.93909 3.37854C2.1627 3.15492 2.46599 3.0293 2.78223 3.0293H6.00166C6.21249 3.0293 6.41468 2.94555 6.56376 2.79647C6.71283 2.64739 6.79658 2.4452 6.79658 2.23438C6.79658 2.02355 6.71283 1.82136 6.56376 1.67228C6.41468 1.5232 6.21249 1.43945 6.00166 1.43945H2.78223C2.04433 1.43945 1.33666 1.73258 0.814895 2.25435C0.293127 2.77612 0 3.48379 0 4.22168V14.2178Z" fill="#111156"/>
<path d="M16.3362 0.664844C15.9047 0.238861 15.3228 0 14.7165 0C14.1102 0 13.5283 0.238861 13.0968 0.664844L5.64445 8.11724C5.54812 8.21709 5.47961 8.34042 5.44572 8.47495L4.80978 10.7206C4.76071 10.898 4.75335 11.0842 4.78828 11.2649C4.8232 11.4456 4.89947 11.6157 5.0111 11.762C5.12273 11.9082 5.2667 12.0267 5.43174 12.1081C5.59678 12.1894 5.77841 12.2315 5.96242 12.231L6.28039 12.1912L8.54591 11.5553C8.68045 11.5214 8.80378 11.4529 8.90363 11.3565L16.3362 3.90415C16.7621 3.4727 17.001 2.89081 17.001 2.2845C17.001 1.67819 16.7621 1.09629 16.3362 0.664844ZM15.2034 1.79761C15.3321 1.93097 15.404 2.10909 15.404 2.29443C15.404 2.47978 15.3321 2.65789 15.2034 2.79126H15.1835L14.1899 1.79761H14.2097C14.3431 1.66889 14.5212 1.59696 14.7066 1.59696C14.8919 1.59696 15.07 1.66889 15.2034 1.79761ZM7.90998 10.0847L6.51886 10.4623L6.91632 9.09102L13.0571 2.93037L14.0507 3.92402L7.90998 10.0847Z" fill="#111156"/>
</svg>