
<svg width="182" height="156" viewBox="0 0 182 156" fill="none" xmlns="http://www.w3.org/2000/svg">
<path opacity="0.18" d="M105.544 13.1218C127.869 12.5753 148.24 21.7495 159.81 36.9157C183.075 67.4005 187.384 97.868 171.775 113.88C164.544 121.03 155.417 125.969 145.469 128.115C123.287 132.747 113.637 118.946 95.2956 122.497C71.0258 127.2 68.4447 155.139 52.1357 155.98C36.5713 156.78 19.5306 132.326 17.0158 109.247C12.6602 69.2741 50.2114 18.4882 99.5216 13.4985C101.561 13.2924 103.568 13.1668 105.544 13.1218Z" fill="#4B7BE5"/>
<path d="M169.066 125.448C169.066 127.987 171.121 130.054 173.646 130.054C176.17 130.054 178.225 127.987 178.225 125.448C178.225 122.909 176.17 120.843 173.646 120.843C171.121 120.843 169.066 122.909 169.066 125.448ZM177.204 125.448C177.204 127.422 175.608 129.027 173.646 129.027C171.683 129.027 170.088 127.422 170.088 125.448C170.088 123.474 171.683 121.87 173.646 121.87C175.608 121.87 177.204 123.476 177.204 125.448Z" fill="#4B7BE5"/>
<path d="M146.458 4.54678L147.929 1.73672L144.816 2.27285L142.612 0.000977373L142.157 3.14174L139.328 4.54884L142.157 5.95591L142.612 9.09668L144.816 6.82482L147.929 7.36093L146.458 4.54678ZM143.325 6.88849L143.09 5.27189L141.634 4.54678L143.09 3.82167L143.325 2.20507L144.461 3.37387L146.062 3.09862L145.306 4.54473L146.062 5.99083L144.461 5.71559L143.325 6.88849Z" fill="black"/>
<path d="M-3.43808e-07 20.9461L5.67196 22.7989L5.67196 28.7949L9.17889 23.9472L14.8468 25.7979L11.3419 20.9461L14.8468 16.0963L9.17888 17.9471L5.67196 13.0993L5.67196 19.0953L-3.43808e-07 20.9461ZM8.78877 19.1549L12.1752 18.0497L10.0837 20.9461L12.1752 23.8445L8.78877 22.7393L6.69524 25.6377L6.69524 22.0533L3.30881 20.9461L6.69524 19.841L6.69524 16.2565L8.78877 19.1549Z" fill="#4B7BE5"/>
<path d="M13.9221 68.9103C13.9221 66.3714 11.8674 64.3049 9.3429 64.3049C6.8184 64.3049 4.76367 66.3714 4.76367 68.9103C4.76367 71.4492 6.8184 73.5156 9.3429 73.5156C11.8674 73.5156 13.9221 71.4492 13.9221 68.9103ZM5.78491 68.9103C5.78491 66.9362 7.38008 65.332 9.3429 65.332C11.3057 65.332 12.9009 66.9362 12.9009 68.9103C12.9009 70.8843 11.3057 72.4886 9.3429 72.4886C7.38008 72.4886 5.78491 70.8843 5.78491 68.9103Z" fill="black"/>
<path d="M177.13 147.664L176.928 147.576C176.884 147.556 172.469 145.588 170.401 141.126C168.332 136.663 169.345 131.291 169.356 131.237L169.403 130.992L169.605 131.08C169.649 131.1 174.064 133.068 176.132 137.53C178.201 141.993 177.188 147.366 177.177 147.419L177.13 147.664ZM170.732 140.918C172.48 144.691 175.969 146.625 176.853 147.067C177.021 145.965 177.548 141.507 175.801 137.738C174.055 133.969 170.564 132.032 169.68 131.589C169.512 132.692 168.985 137.149 170.732 140.918Z" fill="#212121"/>
<path d="M171.969 139.915C175.915 142.455 177.435 147.499 177.435 147.499C177.435 147.499 172.556 148.426 168.61 145.887C164.664 143.347 163.145 138.303 163.145 138.303C163.145 138.303 168.023 137.376 171.969 139.915Z" fill="#4B7BE5"/>
<path d="M106.385 79.3791C106.577 79.074 106.829 78.814 107.126 78.6162C107.422 78.4184 107.756 78.2872 108.106 78.2312C108.455 78.1753 108.812 78.1958 109.153 78.2915C109.494 78.3872 109.812 78.5558 110.085 78.7864C110.171 78.8598 110.252 78.9393 110.328 79.0244L120.192 77.5485L120.741 69.9252C120.783 69.3404 121.049 68.7967 121.481 68.4137C121.913 68.0307 122.476 67.8398 123.045 67.883C123.614 67.9262 124.143 68.1999 124.516 68.644C124.888 69.0881 125.074 69.6661 125.032 70.251C125.031 70.2646 125.03 70.2781 125.029 70.2917L124.067 80.9886L124.062 81.0124C123.937 81.4235 123.687 81.7823 123.347 82.0354C123.008 82.2885 122.598 82.4225 122.179 82.4174L110.577 82.2115C110.532 82.2822 110.483 82.3504 110.431 82.4158C110.207 82.6966 109.927 82.9255 109.611 83.0875C109.294 83.2494 108.948 83.3409 108.595 83.3557C108.242 83.3706 107.889 83.3085 107.561 83.1737C107.232 83.0388 106.936 82.8342 106.69 82.5732C106.64 82.5206 106.592 82.4663 106.548 82.4103C106.213 81.9871 106.017 81.4661 105.988 80.9218C105.959 80.3775 106.098 79.8376 106.385 79.3791Z" fill="#FFB7B7"/>
<path d="M126.229 145.282L123.001 145.282L121.466 133.374L126.229 133.374L126.229 145.282Z" fill="#FFB7B7"/>
<path d="M127.42 147.665L117.894 147.664V147.514C117.894 146.291 118.284 145.118 118.98 144.253C119.675 143.387 120.618 142.901 121.602 142.901H121.602L127.42 142.902L127.42 147.665Z" fill="#4B7BE5"/>
<path d="M146.473 141.933L143.914 142.901L139.328 132.42L143.106 130.992L146.473 141.933Z" fill="#FFB7B7"/>
<path d="M147.664 144.384L139.542 147.665L139.507 147.543C139.221 146.55 139.28 145.464 139.67 144.522C140.061 143.581 140.751 142.862 141.59 142.523L141.59 142.523L146.551 140.52L147.664 144.384Z" fill="#4B7BE5"/>
<path d="M129.576 47.0575C129.576 47.0575 126.745 46.1629 124.925 49.7414C123.105 53.3198 120.274 57.2562 120.274 57.2562L121.892 57.614C121.892 57.614 122.297 55.1091 123.308 54.7512L122.903 57.9719C122.903 57.9719 135.036 61.7293 140.496 57.614L140.294 56.3615C140.294 56.3615 141.103 56.5405 141.103 57.614L141.71 57.0773C141.71 57.0773 141.103 56.0037 139.283 54.5723C138.088 53.6328 137.678 51.8454 137.537 50.7279C137.425 49.7818 137.001 48.8944 136.326 48.1944C135.117 46.9542 132.913 45.636 129.576 47.0575Z" fill="#212121"/>
<path d="M130.397 59.5404C133.356 59.5404 135.756 57.4078 135.756 54.777C135.756 52.1463 133.356 50.0137 130.397 50.0137C127.437 50.0137 125.038 52.1463 125.038 54.777C125.038 57.4078 127.437 59.5404 130.397 59.5404Z" fill="#FFB7B7"/>
<path d="M123.803 63.459L122.744 63.1133C122.744 63.1133 120.627 63.9776 120.627 65.5334C120.627 67.0891 120.274 73.3122 120.274 73.3122L125.038 73.8308L123.803 63.459Z" fill="#4B7BE5"/>
<path d="M140.889 95.6151C140.491 95.1721 140.267 94.6019 140.256 94.0083C140.246 93.4147 140.45 92.8371 140.832 92.3805L138.139 69.9732C138.113 69.4448 138.299 68.9276 138.656 68.5351C139.013 68.1426 139.512 67.9068 140.044 67.8796C140.575 67.8524 141.096 68.0359 141.492 68.3899C141.888 68.7438 142.126 69.2393 142.154 69.7676C142.155 69.775 142.155 69.7823 142.155 69.7896L144.565 92.2207C144.652 92.3078 144.733 92.4015 144.805 92.5008C144.999 92.7663 145.137 93.067 145.214 93.3857C145.29 93.7045 145.302 94.035 145.25 94.3585C145.198 94.682 145.082 94.9921 144.909 95.2711C144.736 95.55 144.509 95.7924 144.242 95.9844C144.214 96.0043 144.186 96.0236 144.158 96.0424C143.848 96.2458 143.498 96.3787 143.13 96.4314C142.763 96.4842 142.389 96.4555 142.034 96.3475C141.591 96.2141 141.195 95.9605 140.889 95.6151Z" fill="#FFB7B7"/>
<path d="M138.137 73.8308L142.9 73.3123C142.9 73.3123 142.547 67.0892 142.547 65.5334C142.547 63.9776 140.43 63.1133 140.43 63.1133L139.372 63.459L138.137 73.8308Z" fill="#4B7BE5"/>
<path d="M124.279 80.9794C124.279 80.9794 120.595 87.7696 120.595 96.0048C120.595 104.24 120.274 142.025 120.274 142.025C120.274 142.025 125.08 144.286 127.963 141.541L130.525 99.7187L140.616 140.733C140.616 140.733 145.421 141.702 147.664 140.087L143.339 111.506C143.339 111.506 141.577 84.7016 136.772 82.7639C131.967 80.8262 124.279 80.9794 124.279 80.9794Z" fill="#212121"/>
<path d="M125.222 54.7779C127.03 53.2409 128.493 51.4707 129.461 49.365C129.461 49.365 132.777 53.6953 134.804 53.9118C136.831 54.1283 134.989 48.7154 134.989 48.7154L131.303 47.6328L127.802 48.0658L125.038 50.231L125.222 54.7779Z" fill="#212121"/>
<path d="M136.173 61.9318C136.173 61.9318 136.328 61.8495 127.054 62.1837L123.172 63.2412L122.656 63.3817C122.656 63.3817 123.145 73.0476 124.448 74.8197C125.75 76.5918 125.425 77.5584 125.099 77.7195C124.773 77.8806 123.959 77.5584 124.448 78.3639C124.936 79.1694 125.588 78.6861 124.936 79.1694C124.285 79.6527 123.959 81.4248 123.959 81.4248L138.29 83.358C138.29 83.358 138.778 77.0751 140.081 73.8531C141.384 70.6312 141.71 69.3424 141.71 69.3424L140.733 62.8984L136.173 61.9318Z" fill="#4B7BE5"/>
<path d="M109.558 35.0895H108.744V12.8631C108.744 9.45133 107.385 6.17931 104.966 3.76683C102.547 1.35435 99.2658 -0.000971063 95.8446 -0.000976562L48.6251 -0.000976562C45.204 -0.000985912 41.9229 1.35432 39.5038 3.76679C37.0847 6.17926 35.7256 9.45128 35.7256 12.863V134.799C35.7256 138.211 37.0846 141.483 39.5038 143.895C41.9229 146.308 45.2039 147.663 48.6251 147.663H95.8445C97.5385 147.663 99.2159 147.33 100.781 146.684C102.346 146.037 103.768 145.09 104.966 143.895C106.164 142.701 107.114 141.283 107.762 139.722C108.41 138.161 108.744 136.488 108.744 134.799V50.9107H109.558L109.558 35.0895Z" fill="#212121"/>
<path d="M105.985 13.1476V134.514C105.986 135.771 105.738 137.015 105.256 138.176C104.773 139.337 104.066 140.393 103.173 141.282C102.28 142.171 101.22 142.877 100.054 143.359C98.8867 143.841 97.6358 144.089 96.3723 144.09H48.9276C46.3754 144.092 43.9271 143.086 42.1212 141.292C40.3152 139.499 39.2997 137.066 39.2979 134.528V13.1476C39.297 11.8909 39.545 10.6463 40.0278 9.48496C40.5105 8.32359 41.2186 7.26816 42.1116 6.37892C43.0045 5.48968 44.0648 4.78405 45.232 4.30231C46.3992 3.82058 47.6503 3.57218 48.914 3.57129H54.6809C54.3976 4.26208 54.2894 5.01156 54.366 5.75371C54.4426 6.49585 54.7016 7.20787 55.1201 7.82704C55.5386 8.44621 56.1038 8.95351 56.7659 9.30426C57.428 9.65501 58.1667 9.83843 58.9169 9.83836H85.9584C86.7086 9.83843 87.4473 9.65501 88.1094 9.30426C88.7716 8.95351 89.3368 8.44621 89.7553 7.82704C90.1738 7.20787 90.4327 6.49585 90.5093 5.75371C90.5859 5.01156 90.4777 4.26208 90.1944 3.57129H96.3551C98.9068 3.56902 101.355 4.57486 103.161 6.36754C104.967 8.16022 105.983 10.5929 105.985 13.1304V13.1476L105.985 13.1476Z" fill="white"/>
<path d="M105.985 31.1034V26.9695H99.6932V4.16247C98.6246 3.77002 97.4943 3.56984 96.3551 3.5713H95.5362V26.9695H73.7118V9.83838H69.5547V26.9695H51.2638V3.57132H48.9276C48.3166 3.57037 47.7068 3.62782 47.1068 3.74288V26.9695H39.2979V31.1034H47.1068V40.6653L39.298 45.1486V49.9233L47.1068 45.4401V73.8898H39.2979V78.0237H47.1068V119.156H39.2979V123.29H47.1068V143.919C47.7068 144.034 48.3166 144.091 48.9276 144.09H51.2638V123.29H69.5547V144.09H73.7118V123.29H95.5362V144.09H96.3551C97.4943 144.092 98.6246 143.892 99.6932 143.499V123.29H105.985V119.156H99.6932V101.174H105.929V97.0399H99.6932V78.0237H105.985V73.8898H99.6932V48.6727H105.985V44.5387H99.6932V31.1034L105.985 31.1034ZM63.7621 31.1034L63.762 31.1035L51.2639 38.28L51.2638 38.28V31.1034H63.7621ZM51.2638 43.0527L51.2639 43.0526L69.5547 32.5504V73.8898H51.2638V43.0527ZM51.2638 119.156V78.0237H69.5547V119.156H51.2638ZM95.5362 119.156H73.7118V101.174H95.5362V119.156ZM95.5362 97.0399H73.7118V78.0237H95.5362V97.0399ZM95.5362 73.8898H73.7118V48.6727H95.5362V73.8898ZM95.5362 44.5387H73.7118V31.1034H95.5362V44.5387Z" fill="#E5E5E5"/>
<path d="M109.557 44.2088C109.557 57.4447 85.1446 86.9302 85.1446 86.9302C85.1446 86.9302 60.7324 57.4447 60.7324 44.2088C60.7324 37.8527 63.3044 31.757 67.8826 27.2625C72.4608 22.7681 78.6701 20.2432 85.1446 20.2432C91.6192 20.2432 97.8285 22.7681 102.407 27.2625C106.985 31.757 109.557 37.8527 109.557 44.2088Z" fill="#4B7BE5"/>
<path d="M98.8395 43.4642C98.8395 46.1727 98.0363 48.8205 96.5315 51.0725C95.0268 53.3246 92.8879 55.0799 90.3856 56.1164C87.8832 57.1529 85.1297 57.4241 82.4732 56.8957C79.8167 56.3673 77.3765 55.063 75.4613 53.1478C73.546 51.2325 72.2418 48.7924 71.7133 46.1359C71.1849 43.4794 71.4561 40.7258 72.4926 38.2235C73.5292 35.7211 75.2844 33.5823 77.5365 32.0775C79.7886 30.5727 82.4363 29.7695 85.1449 29.7695C86.9424 29.7687 88.7226 30.1219 90.3836 30.8091C92.0447 31.4962 93.5542 32.5038 94.8258 33.7743C96.0975 35.0448 97.1065 36.5533 97.7951 38.2138C98.4838 39.8742 98.8387 41.654 98.8395 43.4516V43.4642Z" fill="white"/>
<path d="M85.1449 48.8236C88.1045 48.8236 90.5037 46.691 90.5037 44.0602C90.5037 41.4295 88.1045 39.2969 85.1449 39.2969C82.1853 39.2969 79.7861 41.4295 79.7861 44.0602C79.7861 46.691 82.1853 48.8236 85.1449 48.8236Z" fill="#4B7BE5"/>
<path d="M92.8852 56.0292C90.5715 57.545 87.8863 58.3499 85.1445 58.3495C82.4026 58.3492 79.7176 57.5435 77.4043 56.027C77.8854 54.2942 78.9012 52.7701 80.2979 51.6851C81.6946 50.6002 83.3963 50.0134 85.1456 50.0137C86.8948 50.0139 88.5963 50.6011 89.9928 51.6865C91.3892 52.7719 92.4046 54.2963 92.8852 56.0292Z" fill="#4B7BE5"/>
<path d="M85.1453 103.603C88.7626 103.603 91.6949 100.937 91.6949 97.6485C91.6949 94.3601 88.7626 91.6943 85.1453 91.6943C81.5281 91.6943 78.5957 94.3601 78.5957 97.6485C78.5957 100.937 81.5281 103.603 85.1453 103.603Z" fill="#4B7BE5"/>
</svg>
