<svg width="20" height="20" viewBox="0 0 20 20" fill="none" xmlns="http://www.w3.org/2000/svg">
<path d="M17.7781 0H2.2219C1.63262 0 1.06747 0.234093 0.650781 0.650781C0.234093 1.06747 0 1.63262 0 2.2219V17.7781C0 18.3674 0.234093 18.9325 0.650781 19.3492C1.06747 19.7659 1.63262 20 2.2219 20H17.7781C18.3674 20 18.9325 19.7659 19.3492 19.3492C19.7659 18.9325 20 18.3674 20 17.7781V2.2219C20 1.63262 19.7659 1.06747 19.3492 0.650781C18.9325 0.234093 18.3674 0 17.7781 0ZM7.7781 15.5552L2.2219 10L3.78857 8.43333L7.77714 12.4114L16.2105 3.9781L17.7771 5.55619L7.7781 15.5552Z" fill="#4B7BE5"/>
</svg>
