<svg width="20" height="20" viewBox="0 0 20 20" fill="none" xmlns="http://www.w3.org/2000/svg">
<g opacity="0.3">
<path d="M17.7781 2.2219V17.7781H2.2219V2.2219H17.7781ZM17.7781 0H2.2219C1.63316 0.00175858 1.06903 0.236416 0.652723 0.652723C0.236416 1.06903 0.00175858 1.63316 0 2.2219V17.7781C0.00175858 18.3668 0.236416 18.931 0.652723 19.3473C1.06903 19.7636 1.63316 19.9982 2.2219 20H17.7781C18.3668 19.9982 18.931 19.7636 19.3473 19.3473C19.7636 18.931 19.9982 18.3668 20 17.7781V2.2219C19.9982 1.63316 19.7636 1.06903 19.3473 0.652723C18.931 0.236416 18.3668 0.00175858 17.7781 0Z" fill="#212121"/>
</g>
</svg>