<svg width="14" height="17" viewBox="0 0 14 17" fill="none" xmlns="http://www.w3.org/2000/svg">
    <path fill-rule="evenodd" clip-rule="evenodd"
          d="M7.58159 1.61377C7.58159 1.19956 7.2458 0.86377 6.83159 0.86377C6.41738 0.86377 6.08159 1.19956 6.08159 1.61377V7.95526H0.75C0.335786 7.95526 0 8.29104 0 8.70526C0 9.11947 0.335786 9.45526 0.75 9.45526H6.08159V15.7956C6.08159 16.2098 6.41738 16.5456 6.83159 16.5456C7.2458 16.5456 7.58159 16.2098 7.58159 15.7956V9.45526H12.912C13.3262 9.45526 13.662 9.11947 13.662 8.70526C13.662 8.29104 13.3262 7.95526 12.912 7.95526H7.58159V1.61377Z"
          fill="white"/>
</svg>
