
<svg width="14" height="14" viewBox="0 0 14 14" fill="none" xmlns="http://www.w3.org/2000/svg">
<path d="M7 0C5.61553 0 4.26215 0.410543 3.11101 1.17971C1.95987 1.94888 1.06266 3.04213 0.532846 4.32122C0.00303299 5.6003 -0.13559 7.00776 0.134506 8.36563C0.404603 9.7235 1.07129 10.9708 2.05025 11.9497C3.02922 12.9287 4.2765 13.5954 5.63437 13.8655C6.99224 14.1356 8.3997 13.997 9.67878 13.4672C10.9579 12.9373 12.0511 12.0401 12.8203 10.889C13.5895 9.73785 14 8.38447 14 7C14 6.08074 13.8189 5.17049 13.4672 4.32122C13.1154 3.47194 12.5998 2.70026 11.9497 2.05025C11.2997 1.40024 10.5281 0.884626 9.67878 0.532843C8.8295 0.18106 7.91925 0 7 0Z" fill="#34B751"/>
<path d="M9.351 4.60203L6.05928 8.04707L4.69255 6.45215C4.63946 6.39071 4.57594 6.34142 4.50561 6.3071C4.43529 6.27279 4.35953 6.25411 4.28267 6.25213C4.2058 6.25016 4.12934 6.26493 4.05764 6.2956C3.98595 6.32627 3.92042 6.37224 3.86481 6.43088C3.80919 6.48953 3.76458 6.5597 3.73351 6.63739C3.70245 6.71509 3.68554 6.79878 3.68375 6.88369C3.68196 6.9686 3.69533 7.05307 3.7231 7.13228C3.75086 7.21148 3.79247 7.28387 3.84556 7.34531L5.61654 9.38681C5.66868 9.44729 5.73139 9.49544 5.80088 9.52834C5.87037 9.56124 5.94518 9.5782 6.02078 9.5782C6.09515 9.58223 6.16946 9.56919 6.23903 9.53991C6.30861 9.51063 6.37194 9.46574 6.42503 9.40808L10.1402 5.51646C10.2487 5.40001 10.3114 5.24123 10.315 5.07422C10.3186 4.90722 10.2628 4.74531 10.1595 4.6233C10.1087 4.56143 10.047 4.51161 9.97821 4.47687C9.90943 4.44212 9.83498 4.42318 9.75937 4.4212C9.68376 4.41921 9.60858 4.43421 9.53838 4.4653C9.46818 4.49638 9.40443 4.5429 9.351 4.60203Z" fill="white"/>
</svg>