<svg width="14" height="17" viewBox="0 0 14 17" fill="none" xmlns="http://www.w3.org/2000/svg">
<path d="M3.85465 1.55819C3.86197 1.43265 3.89461 1.30984 3.95063 1.19705C4.00666 1.08426 4.08493 0.983782 4.18081 0.901579C4.27668 0.819376 4.3882 0.75712 4.50876 0.7185C4.62933 0.679881 4.75647 0.665685 4.88266 0.676754H9.11614C9.24246 0.665466 9.36977 0.679499 9.49051 0.718019C9.61126 0.756539 9.72298 0.818759 9.81902 0.900983C9.91506 0.983207 9.99347 1.08376 10.0496 1.19666C10.1057 1.30956 10.1384 1.4325 10.1457 1.55819V2.52384H10.9084V1.55819C10.8951 1.3388 10.8379 1.12423 10.7403 0.926954C10.6427 0.729678 10.5066 0.553638 10.3398 0.409075C10.173 0.264512 9.97896 0.154312 9.76888 0.0848843C9.55881 0.0154569 9.33693 -0.0118116 9.11614 0.00466514H4.88266C4.66207 -0.0114903 4.44043 0.0160175 4.23063 0.0855915C4.02083 0.155165 3.82705 0.265419 3.66053 0.409952C3.494 0.554484 3.35807 0.730414 3.2606 0.927529C3.16314 1.12464 3.10609 1.33901 3.09277 1.55819V2.52384H3.85542L3.85465 1.55819Z" fill="#FF4545"/>
<path d="M2.6684 17H11.3291C11.5266 16.9984 11.7218 16.9579 11.9034 16.8808C12.0849 16.8037 12.2493 16.6916 12.3868 16.5509C12.5244 16.4103 12.6324 16.2439 12.7047 16.0615C12.7769 15.879 12.812 15.6842 12.8077 15.4882V5.11792H1.1898V15.4882C1.18556 15.6842 1.22059 15.879 1.29285 16.0615C1.3651 16.2439 1.47315 16.4103 1.61071 16.5509C1.74827 16.6916 1.9126 16.8037 2.09417 16.8808C2.27574 16.9579 2.47093 16.9984 2.6684 17ZM9.33068 6.72553C9.33803 6.63414 9.3798 6.54886 9.44765 6.48667C9.51551 6.42448 9.60447 6.38994 9.69683 6.38994C9.78918 6.38994 9.87815 6.42448 9.946 6.48667C10.0139 6.54886 10.0556 6.63414 10.063 6.72553V14.6608C10.0556 14.7522 10.0139 14.8375 9.946 14.8997C9.87815 14.9619 9.78918 14.9964 9.69683 14.9964C9.60447 14.9964 9.51551 14.9619 9.44765 14.8997C9.3798 14.8375 9.33803 14.7522 9.33068 14.6608V6.72553ZM6.63106 6.72553C6.63842 6.63414 6.68018 6.54886 6.74804 6.48667C6.81589 6.42448 6.90485 6.38994 6.99721 6.38994C7.08956 6.38994 7.17852 6.42448 7.24638 6.48667C7.31423 6.54886 7.356 6.63414 7.36336 6.72553V14.6608C7.356 14.7522 7.31423 14.8375 7.24638 14.8997C7.17852 14.9619 7.08956 14.9964 6.99721 14.9964C6.90485 14.9964 6.81589 14.9619 6.74804 14.8997C6.68018 14.8375 6.63842 14.7522 6.63106 14.6608V6.72553ZM3.93144 6.72553C3.93879 6.63414 3.98056 6.54886 4.04842 6.48667C4.11627 6.42448 4.20523 6.38994 4.29759 6.38994C4.38994 6.38994 4.4789 6.42448 4.54676 6.48667C4.61461 6.54886 4.65638 6.63414 4.66374 6.72553V14.6608C4.65638 14.7522 4.61461 14.8375 4.54676 14.8997C4.4789 14.9619 4.38994 14.9964 4.29759 14.9964C4.20523 14.9964 4.11627 14.9619 4.04842 14.8997C3.98056 14.8375 3.93879 14.7522 3.93144 14.6608V6.72553Z" fill="#FF4545"/>
<path d="M0.898812 4.52157H13.1012C13.2166 4.52853 13.3322 4.51196 13.4409 4.47291C13.5496 4.43385 13.6492 4.37312 13.7333 4.29447C13.8175 4.21581 13.8846 4.12088 13.9305 4.01553C13.9763 3.91017 14 3.79661 14 3.68184C14 3.56707 13.9763 3.45352 13.9305 3.34817C13.8846 3.24281 13.8175 3.14789 13.7333 3.06923C13.6492 2.99057 13.5496 2.92984 13.4409 2.89079C13.3322 2.85173 13.2166 2.83517 13.1012 2.84212H0.898812C0.783409 2.83517 0.667792 2.85173 0.559077 2.89079C0.450362 2.92984 0.350846 2.99057 0.266654 3.06923C0.182461 3.14789 0.115372 3.24281 0.0695144 3.34817C0.0236566 3.45352 0 3.56707 0 3.68184C0 3.79661 0.0236566 3.91017 0.0695144 4.01553C0.115372 4.12088 0.182461 4.21581 0.266654 4.29447C0.350846 4.37312 0.450362 4.43385 0.559077 4.47291C0.667792 4.51196 0.783409 4.52853 0.898812 4.52157Z" fill="#FF4545"/>
</svg>
