<svg width="19" height="14" viewBox="0 0 19 14" fill="none" xmlns="http://www.w3.org/2000/svg">
    <path d="M9.5 0.906738C5.18182 0.906738 1.49409 3.59908 0 7.39953C1.49409 11.2 5.18182 13.8923 9.5 13.8923C13.8182 13.8923 17.5059 11.2 19 7.39953C17.5059 3.59908 13.8182 0.906738 9.5 0.906738ZM9.5 11.7281C7.11636 11.7281 5.18182 9.78887 5.18182 7.39953C5.18182 5.01018 7.11636 3.071 9.5 3.071C11.8836 3.071 13.8182 5.01018 13.8182 7.39953C13.8182 9.78887 11.8836 11.7281 9.5 11.7281ZM9.5 4.80241C8.06636 4.80241 6.90909 5.96246 6.90909 7.39953C6.90909 8.8366 8.06636 9.99664 9.5 9.99664C10.9336 9.99664 12.0909 8.8366 12.0909 7.39953C12.0909 5.96246 10.9336 4.80241 9.5 4.80241Z" fill="#F5603F"/>
</svg>
