<svg width="22" height="22" viewBox="0 0 22 22" fill="none" xmlns="http://www.w3.org/2000/svg">
    <path opacity="0.35"
          d="M11 22C17.0751 22 22 17.0751 22 11C22 4.92487 17.0751 0 11 0C4.92487 0 0 4.92487 0 11C0 17.0751 4.92487 22 11 22Z"
          fill="#4B7BE5"/>
    <path d="M10.9993 18.3334C15.0494 18.3334 18.3327 15.0501 18.3327 11C18.3327 6.94993 15.0494 3.66669 10.9993 3.66669C6.94926 3.66669 3.66602 6.94993 3.66602 11C3.66602 15.0501 6.94926 18.3334 10.9993 18.3334Z"
          fill="#4B7BE5"/>
    <path d="M14.6048 8.51648L9.58226 13.3858L7.30078 11.1728" stroke="white" stroke-linecap="round"
          stroke-linejoin="round"/>
</svg>
