<svg width="17" height="16" viewBox="0 0 17 16" fill="none" xmlns="http://www.w3.org/2000/svg">
    <path d="M16.778 6.13675L12.528 10.1453C12.4273 10.24 12.3011 10.3032 12.1649 10.3271C12.0287 10.3511 11.8884 10.3347 11.7614 10.28C11.6344 10.2254 11.5262 10.1348 11.45 10.0194C11.3739 9.90408 11.3332 9.76902 11.333 9.63087V7.51022C7.066 7.53819 5.266 8.54507 6.47 12.5616C6.49788 12.6568 6.49504 12.7584 6.46188 12.8519C6.42873 12.9455 6.36694 13.0262 6.28528 13.0827C6.20362 13.1392 6.10623 13.1685 6.00692 13.1666C5.90761 13.1647 5.81143 13.1316 5.732 13.072C5.08242 12.568 4.55017 11.929 4.17205 11.1993C3.79393 10.4696 3.57896 9.66657 3.542 8.84574C3.542 4.60245 7.013 3.76039 11.334 3.73642V1.61377C11.3344 1.47582 11.3752 1.34099 11.4512 1.22585C11.5273 1.11071 11.6354 1.02026 11.7622 0.965627C11.889 0.91099 12.029 0.894539 12.1651 0.918294C12.3011 0.942048 12.4273 1.00497 12.528 1.09934L16.778 5.10889C16.8479 5.17506 16.9035 5.25476 16.9415 5.34312C16.9796 5.43148 16.9992 5.52664 16.9992 5.62282C16.9992 5.719 16.9796 5.81416 16.9415 5.90252C16.9035 5.99088 16.8479 6.07058 16.778 6.13675ZM11.333 12.0831V14.1139H1.889V4.67937H3.389C3.43665 4.6793 3.4838 4.66962 3.52762 4.65091C3.57144 4.6322 3.61102 4.60485 3.644 4.57049C4.08254 4.12042 4.59195 3.74519 5.152 3.45972C5.22234 3.42315 5.27834 3.36404 5.31104 3.29188C5.34374 3.21972 5.35124 3.13868 5.33233 3.06176C5.31342 2.98484 5.26921 2.91648 5.20677 2.86765C5.14434 2.81882 5.0673 2.79234 4.988 2.79246H1.417C1.04119 2.79246 0.680769 2.94159 0.41503 3.20703C0.149291 3.47248 0 3.8325 0 4.20789L0 14.5844C0 14.9598 0.149291 15.3198 0.41503 15.5852C0.680769 15.8507 1.04119 15.9998 1.417 15.9998H11.806C12.1818 15.9998 12.5422 15.8507 12.808 15.5852C13.0737 15.3198 13.223 14.9598 13.223 14.5844V11.9663C13.2231 11.9096 13.2095 11.8537 13.1835 11.8033C13.1574 11.7529 13.1196 11.7095 13.0732 11.6768C13.0268 11.6441 12.9732 11.623 12.917 11.6153C12.8607 11.6076 12.8035 11.6136 12.75 11.6326C12.4267 11.747 12.0805 11.7813 11.741 11.7325C11.6905 11.7249 11.6389 11.7283 11.5898 11.7424C11.5407 11.7565 11.4952 11.7811 11.4565 11.8143C11.4177 11.8476 11.3867 11.8889 11.3653 11.9353C11.344 11.9817 11.333 12.0321 11.333 12.0831Z"
          fill="#F5603F"/>
</svg>
