<svg width="25" height="25" viewBox="0 0 25 25" fill="none" xmlns="http://www.w3.org/2000/svg">
    <path d="M12.5 0C5.60729 0 0 5.60726 0 12.5C0 19.3927 5.60729 25 12.5 25C19.3927 25 25 19.3927 25 12.5C25 5.60726 19.3927 0 12.5 0ZM12.5 1.82927C18.4041 1.82927 23.1707 6.59587 23.1707 12.5C23.1707 18.4041 18.4041 23.1707 12.5 23.1707C6.59588 23.1707 1.82927 18.4041 1.82927 12.5C1.82927 6.59587 6.59588 1.82927 12.5 1.82927ZM6.09756 10.3659C4.91893 10.3659 3.96341 11.3213 3.96341 12.5C3.96341 13.6787 4.91893 14.6341 6.09756 14.6341C7.27625 14.6341 8.23171 13.6787 8.23171 12.5C8.23171 11.3213 7.27625 10.3659 6.09756 10.3659ZM12.5 10.3659C11.3214 10.3659 10.3659 11.3213 10.3659 12.5C10.3659 13.6787 11.3214 14.6341 12.5 14.6341C13.6787 14.6341 14.6341 13.6787 14.6341 12.5C14.6341 11.3213 13.6787 10.3659 12.5 10.3659ZM18.9024 10.3659C17.7238 10.3659 16.7683 11.3213 16.7683 12.5C16.7683 13.6787 17.7238 14.6341 18.9024 14.6341C20.0811 14.6341 21.0366 13.6787 21.0366 12.5C21.0366 11.3213 20.0811 10.3659 18.9024 10.3659Z"
          fill="#4B7BE5"/>
</svg>
