<svg xmlns="http://www.w3.org/2000/svg" width="40" height="40" viewBox="0 0 40 40" fill="none">
<path d="M14.4 1.58175e-07C13.746 2.03316e-05 13.1049 0.181762 12.5481 0.524947C11.9914 0.868132 11.541 1.35926 11.2471 1.94354L9.85885 4.7059H5.88237C4.32227 4.7059 2.82607 5.32564 1.72291 6.4288C0.619748 7.53196 0 9.02816 0 10.5883V29.4119C0 30.972 0.619748 32.4682 1.72291 33.5713C2.82607 34.6745 4.32227 35.2942 5.88237 35.2942H17.873C17.4882 34.5422 17.1785 33.7541 16.9483 32.9413H5.88472C4.94866 32.9413 4.05094 32.5694 3.38905 31.9075C2.72715 31.2456 2.3553 30.3479 2.3553 29.4119V10.5883C2.3553 9.65221 2.72715 8.75448 3.38905 8.09259C4.05094 7.43069 4.94866 7.05884 5.88472 7.05884H10.5859C10.8038 7.0584 11.0173 6.99745 11.2026 6.88278C11.3879 6.76812 11.5377 6.60424 11.6353 6.40943L13.3483 3.00001C13.4464 2.80528 13.5967 2.64165 13.7824 2.52739C13.9682 2.41313 14.182 2.35274 14.4 2.35295H23.2565C23.4752 2.35252 23.6897 2.41306 23.8759 2.52777C24.0621 2.64249 24.2127 2.80683 24.3107 3.00236L26.0118 6.40708C26.1096 6.60225 26.2598 6.76636 26.4456 6.88105C26.6313 6.99574 26.8453 7.05648 27.0636 7.05649H31.7672C32.7032 7.05649 33.6009 7.42834 34.2628 8.09023C34.9247 8.75213 35.2966 9.64985 35.2966 10.5859V17.8871C36.1389 18.3177 36.9272 18.8401 37.6495 19.4377V10.5859C37.6495 9.02581 37.0298 7.52961 35.9266 6.42645C34.8235 5.32329 33.3273 4.70354 31.7672 4.70354H27.7907L26.4142 1.95059C26.1209 1.36429 25.6702 0.871239 25.1125 0.526714C24.5548 0.182189 23.9121 -0.000196071 23.2565 1.58175e-07H14.4Z" fill="#4B7BE5"/>
<path d="M18.816 9.4119C20.917 9.41198 22.9577 10.1147 24.6133 11.4083C26.2689 12.7019 27.4443 14.5121 27.9525 16.5507C27.1701 16.6383 26.3975 16.7974 25.6442 17.026C25.3281 15.8248 24.7006 14.7282 23.8252 13.8469C22.9498 12.9657 21.8574 12.3309 20.6583 12.0068C19.4592 11.6826 18.1958 11.6805 16.9956 12.0007C15.7954 12.3208 14.7009 12.9519 13.8226 13.8303C12.9442 14.7086 12.3131 15.8031 11.993 17.0033C11.6728 18.2035 11.6749 19.4669 11.9991 20.666C12.3232 21.8651 12.958 22.9575 13.8392 23.8329C14.7205 24.7083 15.8171 25.3358 17.0183 25.6519C16.7898 26.4044 16.6307 27.1763 16.543 27.9578C14.3198 27.396 12.3779 26.0422 11.0819 24.1504C9.7858 22.2587 9.22459 19.959 9.50355 17.6828C9.78251 15.4067 10.8824 13.3106 12.597 11.7878C14.3115 10.265 16.5228 9.42021 18.816 9.4119Z" fill="#4B7BE5"/>
<path d="M39.991 29.4121C39.991 32.2202 38.8754 34.9134 36.8898 36.8991C34.9041 38.8848 32.2109 40.0003 29.4027 40.0003C26.5945 40.0003 23.9014 38.8848 21.9157 36.8991C19.93 34.9134 18.8145 32.2202 18.8145 29.4121C18.8145 26.6039 19.93 23.9107 21.9157 21.925C23.9014 19.9393 26.5945 18.8238 29.4027 18.8238C32.2109 18.8238 34.9041 19.9393 36.8898 21.925C38.8754 23.9107 39.991 26.6039 39.991 29.4121ZM30.5792 24.7062C30.5792 24.3941 30.4552 24.0949 30.2346 23.8743C30.014 23.6536 29.7147 23.5297 29.4027 23.5297C29.0907 23.5297 28.7915 23.6536 28.5708 23.8743C28.3502 24.0949 28.2262 24.3941 28.2262 24.7062V28.2356H24.6968C24.3848 28.2356 24.0856 28.3595 23.8649 28.5802C23.6443 28.8008 23.5203 29.1 23.5203 29.4121C23.5203 29.7241 23.6443 30.0233 23.8649 30.244C24.0856 30.4646 24.3848 30.5885 24.6968 30.5885H28.2262V34.118C28.2262 34.43 28.3502 34.7292 28.5708 34.9498C28.7915 35.1705 29.0907 35.2944 29.4027 35.2944C29.7147 35.2944 30.014 35.1705 30.2346 34.9498C30.4552 34.7292 30.5792 34.43 30.5792 34.118V30.5885H34.1086C34.4206 30.5885 34.7199 30.4646 34.9405 30.244C35.1611 30.0233 35.2851 29.7241 35.2851 29.4121C35.2851 29.1 35.1611 28.8008 34.9405 28.5802C34.7199 28.3595 34.4206 28.2356 34.1086 28.2356H30.5792V24.7062Z" fill="#4B7BE5"/>
</svg>
