
<svg width="21" height="21" viewBox="0 0 21 21" fill="none" xmlns="http://www.w3.org/2000/svg">
<path d="M19.5 9H12V1.5C12 1.10218 11.842 0.720645 11.5607 0.43934C11.2794 0.158036 10.8978 0 10.5 0C10.1022 0 9.72064 0.158036 9.43934 0.43934C9.15803 0.720645 9 1.10218 9 1.5V9H1.5C1.10218 9 0.720645 9.15803 0.43934 9.43934C0.158036 9.72064 0 10.1022 0 10.5C0 10.8978 0.158036 11.2794 0.43934 11.5607C0.720645 11.842 1.10218 12 1.5 12H9V19.5C9 19.8978 9.15803 20.2794 9.43934 20.5607C9.72064 20.842 10.1022 21 10.5 21C10.8978 21 11.2794 20.842 11.5607 20.5607C11.842 20.2794 12 19.8978 12 19.5V12H19.5C19.8978 12 20.2794 11.842 20.5607 11.5607C20.842 11.2794 21 10.8978 21 10.5C21 10.1022 20.842 9.72064 20.5607 9.43934C20.2794 9.15803 19.8978 9 19.5 9Z" fill="white"/>
</svg>