<svg id="Group_4650" data-name="Group 4650" xmlns="http://www.w3.org/2000/svg" width="22.399" height="27" viewBox="0 0 22.399 27">
  <path id="Path_2393" data-name="Path 2393" d="M66.632,58.212a1.064,1.064,0,0,0-1.819,0C64.1,59.377,61.8,63.356,61.8,65.089a3.922,3.922,0,1,0,7.844,0C69.644,63.327,67.342,59.377,66.632,58.212Zm-1.393,5.173c-.057.085-.995,1.62-.284,2.672a.708.708,0,0,1,.085.483.553.553,0,0,1-.256.4.808.808,0,0,1-.341.114.635.635,0,0,1-.512-.284c-1.165-1.734.2-3.922.256-4.036a.692.692,0,0,1,.4-.284.708.708,0,0,1,.483.085A.655.655,0,0,1,65.239,63.384Z" transform="translate(-47.245 -42.012)" fill="#212121"/>
  <path id="Path_2394" data-name="Path 2394" d="M27.56,16.4l1.819-.2a1.443,1.443,0,0,0,1.251-.995,1.517,1.517,0,0,0-.369-1.563L19.46,2.756a.9.9,0,0,0-1.279,1.279l.455.455-6.821,6.821a4.243,4.243,0,0,0-1.165,3.723,4.529,4.529,0,0,0,1.279,2.3l4.121,4.121a4.529,4.529,0,0,0,2.3,1.279,4.164,4.164,0,0,0,3.723-1.165l4.832-4.832A.986.986,0,0,1,27.56,16.4ZM19.886,5.74l7.7,7.7H12.525a2.387,2.387,0,0,1,.54-.881Z" transform="translate(-10.589 -2.5)" fill="#212121"/>
</svg>
