<svg xmlns="http://www.w3.org/2000/svg" width="24" height="22" viewBox="0 0 24 22">
  <path id="Icon_awesome-edit" data-name="Icon awesome-edit" d="M16.775,3.578l3.758,3.877a.43.43,0,0,1,0,.593l-9.1,9.386-3.867.443a.823.823,0,0,1-.9-.924L7.1,12.965l9.1-9.386A.4.4,0,0,1,16.775,3.578Zm6.75-.984L21.492.5a1.6,1.6,0,0,0-2.3,0L17.717,2.018a.43.43,0,0,0,0,.593l3.758,3.877a.4.4,0,0,0,.575,0l1.475-1.521a1.719,1.719,0,0,0,0-2.372ZM16,14.881v4.375H2.667V5.5h9.575a.5.5,0,0,0,.354-.15l1.667-1.719a.518.518,0,0,0-.354-.881H2A2.033,2.033,0,0,0,0,4.816V19.944a2.033,2.033,0,0,0,2,2.063H16.667a2.033,2.033,0,0,0,2-2.063V13.162a.5.5,0,0,0-.854-.365l-1.667,1.719A.537.537,0,0,0,16,14.881Z" transform="translate(0 -0.007)" fill="#212121"/>
</svg>
