<svg xmlns="http://www.w3.org/2000/svg" width="45" height="45" viewBox="0 0 45 45">
  <rect id="Rectangle_1375" data-name="Rectangle 1375" width="45" height="45" rx="4" fill="#ffd538"/>
  <path id="Icon_metro-bin" data-name="Icon metro-bin" d="M6.191,10.39V27.313a1.7,1.7,0,0,0,1.692,1.692H23.114a1.7,1.7,0,0,0,1.692-1.692V10.39H6.191ZM11.268,25.62H9.576V13.774h1.692Zm3.385,0H12.96V13.774h1.692Zm3.385,0H16.345V13.774h1.692Zm3.385,0H19.73V13.774h1.692ZM25.23,5.313h-5.5V3.2A1.273,1.273,0,0,0,18.46,1.928H12.537A1.273,1.273,0,0,0,11.268,3.2V5.313h-5.5A1.273,1.273,0,0,0,4.5,6.582V8.7h22V6.582A1.273,1.273,0,0,0,25.23,5.313Zm-7.192,0H12.96V3.642h5.077V5.313Z" transform="translate(6.502 7.072)"/>
</svg>
