<svg width="17" height="17" viewBox="0 0 17 17" fill="none" xmlns="http://www.w3.org/2000/svg">
<path d="M15.5393 7.03934H9.96066V1.46066C9.96066 1.07327 9.80677 0.701746 9.53285 0.427818C9.25892 0.153891 8.88739 0 8.5 0C8.11261 0 7.74108 0.153891 7.46716 0.427818C7.19323 0.701746 7.03934 1.07327 7.03934 1.46066V7.03934H1.46066C1.07327 7.03934 0.701746 7.19323 0.427818 7.46716C0.153891 7.74108 0 8.11261 0 8.5C0 8.88739 0.153891 9.25892 0.427818 9.53285C0.701746 9.80677 1.07327 9.96066 1.46066 9.96066H7.03934V15.5393C7.03934 15.7312 7.07712 15.9211 7.15052 16.0983C7.22393 16.2755 7.33152 16.4365 7.46716 16.5722C7.60279 16.7078 7.76381 16.8154 7.94103 16.8888C8.11825 16.9622 8.30818 17 8.5 17C8.69182 17 8.88176 16.9622 9.05897 16.8888C9.23619 16.8154 9.39721 16.7078 9.53285 16.5722C9.66848 16.4365 9.77607 16.2755 9.84948 16.0983C9.92288 15.9211 9.96066 15.7312 9.96066 15.5393V9.96066H15.5393C15.9267 9.96066 16.2983 9.80677 16.5722 9.53285C16.8461 9.25892 17 8.88739 17 8.5C17 8.11261 16.8461 7.74108 16.5722 7.46716C16.2983 7.19323 15.9267 7.03934 15.5393 7.03934Z" fill="#00B2FF"/>
</svg>
