<svg width="35" height="42" viewBox="0 0 35 42" fill="none" xmlns="http://www.w3.org/2000/svg">
<path d="M33.6538 5.25H29.6154V1.3125C29.6154 0.588 29.0123 0 28.2692 0H4.03846C1.81192 0 0 1.76662 0 3.9375V36.75C0 39.6454 2.415 42 5.38462 42H33.6538C34.3969 42 35 41.412 35 40.6875V6.5625C35 5.838 34.3969 5.25 33.6538 5.25ZM18.5015 36.3142C18.2458 36.5899 17.8823 36.75 17.5 36.75C17.1177 36.75 16.7542 36.5899 16.4985 36.3142C15.6369 35.3771 8.07692 27.027 8.07692 22.3125C8.07692 17.2463 12.3038 13.125 17.5 13.125C22.6962 13.125 26.9231 17.2463 26.9231 22.3125C26.9231 27.027 19.3631 35.3771 18.5015 36.3142ZM26.9231 5.25H4.03846C3.29538 5.25 2.69231 4.662 2.69231 3.9375C2.69231 3.213 3.29538 2.625 4.03846 2.625H26.9231V5.25Z" fill="#060B29"/>
<path d="M17.5033 26.25C19.7337 26.25 21.5418 24.4871 21.5418 22.3125C21.5418 20.1379 19.7337 18.375 17.5033 18.375C15.2729 18.375 13.4648 20.1379 13.4648 22.3125C13.4648 24.4871 15.2729 26.25 17.5033 26.25Z" fill="#4B7BE5"/>
</svg>
