<svg width="19" height="22" viewBox="0 0 19 22" fill="none" xmlns="http://www.w3.org/2000/svg">
<path d="M18.6018 16.9234C18.2607 17.6821 17.8569 18.3805 17.3891 19.0226C16.7514 19.8979 16.2292 20.5038 15.8268 20.8403C15.2031 21.3925 14.5347 21.6754 13.8191 21.6915C13.3053 21.6915 12.6857 21.5507 11.9645 21.2652C11.2409 20.981 10.5759 20.8403 9.96783 20.8403C9.33013 20.8403 8.64621 20.981 7.91467 21.2652C7.18202 21.5507 6.5918 21.6995 6.14054 21.7143C5.45425 21.7424 4.77019 21.4515 4.08738 20.8403C3.65158 20.4743 3.10647 19.847 2.45346 18.9583C1.75283 18.0092 1.17681 16.9087 0.725553 15.654C0.242269 14.2988 0 12.9865 0 11.716C0 10.2607 0.326645 9.00548 0.98091 7.95362C1.4951 7.10873 2.17917 6.44225 3.03532 5.95299C3.89148 5.46372 4.81655 5.21439 5.81278 5.19844C6.35789 5.19844 7.07272 5.36077 7.96104 5.6798C8.84685 5.9999 9.41562 6.16223 9.66499 6.16223C9.85143 6.16223 10.4833 5.97242 11.5544 5.59401C12.5673 5.24308 13.4222 5.09777 14.1226 5.15501C16.0204 5.30246 17.4461 6.02269 18.3943 7.32026C16.6971 8.31032 15.8575 9.69703 15.8742 11.476C15.8895 12.8616 16.4116 14.0146 17.4378 14.9302C17.9028 15.3551 18.4222 15.6835 19 15.9168C18.8747 16.2666 18.7424 16.6017 18.6018 16.9234ZM14.2493 0.434446C14.2493 1.5205 13.8372 2.53454 13.0157 3.47313C12.0243 4.58893 10.8252 5.23369 9.52492 5.13195C9.50836 5.00166 9.49875 4.86453 9.49875 4.72043C9.49875 3.67782 9.9702 2.56202 10.8074 1.64971C11.2254 1.18778 11.757 0.803702 12.4017 0.497313C13.0449 0.195495 13.6534 0.028583 14.2256 0C14.2423 0.145188 14.2493 0.290386 14.2493 0.434432V0.434446Z" fill="white"/>
</svg>
