<svg width="50" height="42" viewBox="0 0 50 42" fill="none" xmlns="http://www.w3.org/2000/svg">
<path d="M33.0806 16.7818C34.667 16.163 35.4073 14.616 34.7727 13.2458C34.1382 11.8314 32.3402 11.1243 30.6481 11.522L27.7396 5.11308C27.3166 4.18489 26.1003 3.83129 25.0956 4.14069C24.7254 4.27329 24.3553 4.49429 24.0909 4.84789L18.0625 13.0248L22.4516 22.7046L33.5036 25.4892C33.9795 25.6218 34.4026 25.5776 34.8256 25.445C35.7775 25.1356 36.412 24.2074 35.989 23.235L33.0806 16.7818Z" fill="#060B29"/>
<path d="M38.9022 11.9215C39.2195 12.6287 40.1713 12.9823 41.0174 12.7171L47.9448 10.5071C48.7909 10.2419 49.2139 9.44631 48.8966 8.73911C48.5793 8.03192 47.6275 7.67832 46.7814 7.94352L39.8541 10.1535C39.008 10.4629 38.5849 11.2585 38.9022 11.9215Z" fill="#4B7BE5"/>
<path d="M39.0609 0.120542C38.2677 -0.188856 37.2629 0.120542 36.8928 0.783537L33.8786 6.39689C33.5084 7.05989 33.8786 7.89968 34.6718 8.20908C35.0948 8.34168 35.5179 8.34168 35.9409 8.25328C36.3111 8.12068 36.6813 7.89968 36.8399 7.54609L39.8541 1.93273C40.2242 1.22553 39.8541 0.429939 39.0609 0.120542Z" fill="#4B7BE5"/>
<path d="M47.5672 18.9016L40.8514 16.3823C40.0582 16.0729 39.0534 16.3823 38.6833 17.0453C38.3131 17.7083 38.6833 18.5481 39.4765 18.8575L46.1923 21.3768C46.6153 21.5094 47.0384 21.5094 47.4614 21.421C47.8316 21.2884 48.2018 21.0674 48.3604 20.7138C48.7306 20.0066 48.3604 19.211 47.5672 18.9016Z" fill="#4B7BE5"/>
<path d="M22.9822 34.4209C22.9822 34.4209 22.9293 34.4209 22.9822 34.4209C23.7754 34.1115 24.1985 33.3601 23.8812 32.6971C23.6168 32.1225 22.9293 31.7689 22.2419 31.8573C22.189 31.8573 22.189 31.8131 22.2419 31.8131C23.0351 31.5479 23.4581 30.7965 23.1408 30.0893C22.8764 29.5147 22.189 29.1611 21.5015 29.2495C21.4487 29.2495 21.4487 29.2053 21.5015 29.2053C22.2948 28.9401 22.7178 28.1887 22.4005 27.4815C22.0832 26.8185 21.1843 26.4649 20.3382 26.7301C19.7565 26.9069 18.9104 27.2163 18.1172 27.4815L16.5308 24.5201L20.867 23.1499L16.4779 13.5586L6.95941 16.5642C5.16148 17.1388 4.26251 18.73 4.89707 20.2327L3.83946 20.5421C3.25778 20.7189 2.94049 21.2935 3.15202 21.7355L4.31539 24.3433C4.52691 24.8295 5.21436 25.0505 5.79604 24.8737L6.85365 24.5643C7.59398 26.0229 9.55056 26.7301 11.3485 26.1555L11.7187 26.0229L13.3051 28.8075C12.5647 29.0285 11.9302 29.2053 11.56 29.3379C10.5024 29.7799 9.49767 31.1943 8.86311 32.3435C8.65159 32.7413 8.22854 33.0949 7.69974 33.2717L1.45984 35.3491C0.29647 35.7468 -0.285215 36.8518 0.137829 37.8242L1.45984 40.7414C1.88288 41.7138 3.2049 42.2442 4.42115 41.8906L10.7668 39.9458C11.137 39.8132 11.56 39.8132 11.9831 39.8574C14.8915 40.0784 19.545 38.3104 22.2419 37.4706C23.1408 37.1612 23.7225 37.0286 23.7225 37.0286C24.5157 36.7634 24.9388 36.012 24.6215 35.3049C24.41 34.6861 23.6696 34.3767 22.9822 34.4209Z" fill="#060B29"/>
</svg>
