<svg width="12" height="7" viewBox="0 0 12 7" fill="none" xmlns="http://www.w3.org/2000/svg">
<path opacity="0.6" d="M11.7699 1.38559C11.9182 1.23337 12.0008 1.02893 11.9998 0.81635C12.002 0.709908 11.9829 0.604111 11.9436 0.505154C11.9044 0.406197 11.8458 0.316068 11.7713 0.240046C11.6969 0.164023 11.608 0.103634 11.5099 0.0624162C11.4118 0.0211979 11.3065 -2.13228e-05 11.2001 1.3356e-07C11.0915 -6.71018e-05 10.984 0.0217806 10.8841 0.0642387C10.7841 0.106696 10.6937 0.168892 10.6183 0.247106L5.993 5.04916L1.38166 0.247106C1.30585 0.169435 1.21539 0.107598 1.11552 0.0651803C1.01565 0.0227623 0.908361 0.000607501 0.799871 9.53837e-09C0.693492 -2.14494e-05 0.588177 0.0211978 0.490094 0.0624161C0.392011 0.103634 0.303131 0.164023 0.228658 0.240046C0.154185 0.316068 0.0956175 0.406197 0.0563818 0.505154C0.0171461 0.604111 -0.00196754 0.709908 0.000160043 0.81635C-0.000912485 0.920674 0.0188759 1.02416 0.0583609 1.12072C0.0978459 1.21727 0.15623 1.30495 0.230077 1.37859L5.37223 6.71188C5.45037 6.80208 5.54693 6.87447 5.6554 6.92417C5.76386 6.97387 5.88171 6.99973 6.001 7C6.11843 6.99875 6.23433 6.97311 6.34136 6.92472C6.44838 6.87634 6.54421 6.80624 6.62278 6.71888L11.7699 1.38559Z" fill="#ffffff"/>
</svg>