<svg width="8" height="12" viewBox="0 0 8 12" fill="none" xmlns="http://www.w3.org/2000/svg">
<path opacity="0.6" d="M1.88559 0.230077C1.73337 0.0817962 1.52893 -0.000776723 1.31635 0.000160758C1.20991 -0.00196688 1.10411 0.0171467 1.00515 0.0563818C0.906196 0.0956179 0.816067 0.154187 0.740045 0.228659C0.664022 0.303133 0.603633 0.392012 0.562415 0.490096C0.521197 0.588178 0.499978 0.693494 0.499999 0.799873C0.499932 0.908466 0.52178 1.01596 0.564238 1.11592C0.606695 1.21588 0.668891 1.30627 0.747105 1.38166L5.54916 6.007L0.747105 10.6183C0.669435 10.6941 0.607598 10.7846 0.56518 10.8845C0.522762 10.9843 0.500607 11.0916 0.5 11.2001C0.499978 11.3065 0.521198 11.4118 0.562416 11.5099C0.603634 11.608 0.664023 11.6969 0.740046 11.7713C0.816068 11.8458 0.906197 11.9044 1.00515 11.9436C1.10411 11.9829 1.20991 12.002 1.31635 11.9998C1.42067 12.0009 1.52416 11.9811 1.62072 11.9416C1.71727 11.9022 1.80495 11.8438 1.87859 11.7699L7.21188 6.62777C7.30208 6.54963 7.37447 6.45307 7.42417 6.3446C7.47387 6.23614 7.49973 6.11829 7.5 5.999C7.49875 5.88157 7.47311 5.76567 7.42472 5.65864C7.37633 5.55162 7.30624 5.45579 7.21888 5.37722L1.88559 0.230077Z" fill="#ffffff"/>
</svg>
