<svg width="32" height="28" viewBox="0 0 32 28" fill="none" xmlns="http://www.w3.org/2000/svg">
<path d="M2.23932 17.1448L2.23932 17.1447H10.8377C11.4974 17.1447 11.9953 16.6219 12.0259 16.0153L12.0271 15.9914V15.9675C12.0271 15.8111 12.0372 15.6582 12.0599 15.5119L12.06 15.5119L12.0615 15.5011C12.0618 15.4994 12.062 15.4979 12.0622 15.4966L12.0752 15.4524L12.0848 15.3919L12.097 15.3151C12.119 15.1819 12.1379 15.0931 12.1582 15.0177L12.1583 15.0177L12.1594 15.0132C12.1601 15.0112 12.1612 15.0079 12.1629 15.003L12.1737 14.9717C12.1783 14.9588 12.1844 14.9414 12.1907 14.9228L12.1939 14.9135L12.1968 14.9041L12.2221 14.8244L12.2245 14.817L12.2267 14.8095C12.2567 14.7095 12.2809 14.6445 12.3067 14.5812C12.3192 14.5547 12.3478 14.4943 12.3728 14.4369L12.3957 14.3922L12.4035 14.3768L12.4108 14.3612C12.4663 14.2422 12.4967 14.1847 12.5273 14.1324L12.5274 14.1325L12.533 14.1226C12.5415 14.1077 12.556 14.0854 12.5979 14.0243L12.6115 14.0044L12.6241 13.984L12.6594 13.9263C12.7221 13.8263 12.7562 13.7768 12.7854 13.7396C12.8296 13.6843 12.8559 13.652 12.8827 13.6226L12.8967 13.6071L12.9101 13.591C13.0021 13.4804 13.0619 13.4123 13.1157 13.3548C13.1679 13.304 13.2003 13.2731 13.2289 13.2483L13.2405 13.2383L13.2518 13.228C13.3447 13.1424 13.4165 13.0821 13.5009 13.0117C13.5484 12.9733 13.5992 12.9358 13.6783 12.8829L13.6994 12.8687L13.7198 12.8535C14.1391 12.5388 14.3206 11.9509 14.0856 11.4342C13.8226 10.8317 13.459 10.2498 13.0182 9.7472C12.5886 9.24586 11.8561 9.2121 11.3755 9.59285L11.3755 9.59283L11.3697 9.59751C10.3802 10.3942 9.1295 10.8363 7.83946 10.8363C6.54953 10.8363 5.2987 10.3939 4.30912 9.59742L4.30914 9.5974L4.3034 9.59285C3.81901 9.2091 3.09204 9.24894 2.66525 9.74908C1.62361 10.9456 1.05 12.4726 1.05 14.0519V15.9799V16.0065L1.05149 16.033C1.0871 16.6688 1.63172 17.1448 2.23932 17.1448Z" fill="#060B29" stroke="white" stroke-width="1.9"/>
<path d="M7.84504 11.2998C10.7088 11.2998 13.0786 9.02473 13.0786 6.17491C13.0786 3.32508 10.7088 1.05 7.84504 1.05C4.98132 1.05 2.61152 3.32508 2.61152 6.17491C2.61152 9.02473 4.98132 11.2998 7.84504 11.2998Z" fill="#060B29" stroke="white" stroke-width="1.9"/>
<path d="M24.1351 11.2998C26.9988 11.2998 29.3686 9.02473 29.3686 6.17491C29.3686 3.32508 26.9988 1.05 24.1351 1.05C21.2714 1.05 18.9016 3.32508 18.9016 6.17491C18.9016 9.02473 21.2714 11.2998 24.1351 11.2998Z" fill="#060B29" stroke="white" stroke-width="1.9"/>
<path d="M12.4663 19.3845L12.4664 19.3845L12.4606 19.38C11.9762 18.9962 11.2493 19.036 10.8225 19.5362C9.78084 20.7327 9.20723 22.2597 9.20723 23.839V25.767C9.20723 26.4433 9.76285 26.9502 10.3965 26.9502H21.6093H21.6332L21.657 26.949C22.2474 26.9193 22.7862 26.4301 22.7862 25.767V24.817H22.7861V23.839C22.7861 22.2596 22.2124 20.7325 21.1707 19.5359C20.7556 19.0502 20.0184 18.9806 19.5219 19.3887C18.5332 20.1828 17.2845 20.6234 15.9967 20.6234C14.7068 20.6234 13.4559 20.181 12.4663 19.3845Z" fill="#060B29" stroke="white" stroke-width="1.9"/>
<path d="M18.982 9.72127C18.5508 10.2197 18.1777 10.8033 17.9112 11.4158C17.8967 11.4486 17.8841 11.4813 17.8731 11.5139L16.9061 11.685L18.2483 12.8057C18.3453 12.901 18.441 12.9725 18.495 13.0118C18.5563 13.0637 18.616 13.1172 18.6867 13.1806C18.7411 13.233 18.7872 13.274 18.8215 13.3043C18.8486 13.3282 18.8617 13.3398 18.8695 13.3469C18.9235 13.4046 18.9802 13.4688 19.0473 13.5452C19.1168 13.6287 19.1547 13.6762 19.1949 13.7266C19.2248 13.7646 19.2593 13.8152 19.3059 13.8912L19.3141 13.9045L19.3227 13.9176L19.3795 14.0036L19.3794 14.0037L19.387 14.0148C19.3942 14.0254 19.402 14.0377 19.4212 14.0682L19.4229 14.0709C19.4347 14.0897 19.4517 14.1168 19.4716 14.147C19.4817 14.1654 19.4887 14.1799 19.4996 14.2026C19.5123 14.2291 19.5304 14.2669 19.5653 14.3354L19.5664 14.3377L19.6294 14.4605L19.6304 14.4624C19.6412 14.4832 19.6526 14.5078 19.6738 14.554C19.6902 14.5975 19.7041 14.6367 19.7209 14.6838C19.7325 14.7164 19.7455 14.7528 19.7616 14.7972L19.803 14.9178L19.8086 14.9342L19.8148 14.9504L19.8256 14.9789L19.8287 14.9872L19.83 14.9929L19.8348 15.0107C19.8562 15.0903 19.8746 15.1783 19.8886 15.2698L19.8939 15.304L19.9016 15.3378L19.9225 15.4289C19.9255 15.4442 19.9283 15.4574 19.9305 15.4676C19.9334 15.481 19.9368 15.4958 19.9386 15.5036C19.9388 15.5045 19.939 15.5053 19.9392 15.506C19.9603 15.6796 19.9724 15.8285 19.9724 15.9605C19.9724 16.6687 20.5613 17.1377 21.1617 17.1377H29.7604C30.3941 17.1377 30.9497 16.6309 30.9497 15.9545V14.0265C30.9497 12.4471 30.376 10.92 29.3343 9.72342C28.9192 9.23769 28.182 9.16806 27.6855 9.57617C26.6968 10.3703 25.4481 10.8109 24.1603 10.8109C22.8704 10.8109 21.6195 10.3685 20.6299 9.57203L20.63 9.57201L20.6242 9.56746C20.1235 9.17074 19.411 9.24276 18.9933 9.70845L18.9876 9.71481L18.982 9.72127Z" fill="#060B29" stroke="white" stroke-width="1.9"/>
<path d="M10.7565 16.9243H10.8484C11.3093 19.3442 13.4741 21.0992 15.9901 21.0992C18.6243 21.0992 20.8737 19.1753 21.1853 16.5786L21.1855 16.5769C21.2074 16.3916 21.2236 16.1871 21.2236 15.9743C21.2236 14.15 20.2194 12.4579 18.6143 11.5446L18.614 11.5445C17.037 10.6478 14.9426 10.6489 13.3616 11.5435L13.3616 11.5435L13.3579 11.5456C11.7601 12.4591 10.7565 14.1505 10.7565 15.9743V16.9243Z" fill="#060B29" stroke="white" stroke-width="1.9"/>
</svg>