
<svg width="42" height="42" viewBox="0 0 42 42" fill="none" xmlns="http://www.w3.org/2000/svg">
<path d="M21 0C16.8466 0 12.7865 1.23163 9.33303 3.53914C5.8796 5.84665 3.18798 9.1264 1.59854 12.9636C0.00909896 16.8009 -0.406771 21.0233 0.403518 25.0969C1.21381 29.1705 3.21386 32.9123 6.15076 35.8492C9.08767 38.7861 12.8295 40.7862 16.9031 41.5965C20.9767 42.4068 25.1991 41.9909 29.0364 40.4015C32.8736 38.812 36.1534 36.1204 38.4609 32.667C40.7684 29.2135 42 25.1534 42 21C42 15.4305 39.7875 10.089 35.8492 6.15076C31.911 2.21249 26.5695 0 21 0ZM15.75 30.9075C15.7232 31.0633 15.6479 31.2067 15.5347 31.3172C15.4216 31.4276 15.2764 31.4995 15.12 31.5225H15C14.8602 31.5235 14.723 31.4854 14.6037 31.4125C14.4844 31.3396 14.3879 31.2348 14.325 31.11L13.5 29.445L12.675 31.1175C12.6074 31.2652 12.4937 31.3869 12.351 31.4644C12.2083 31.542 12.0443 31.5711 11.8837 31.5474C11.723 31.5237 11.5744 31.4485 11.4601 31.3331C11.3458 31.2177 11.2721 31.0684 11.25 30.9075L10.5 26.37C10.4842 26.2715 10.488 26.1709 10.5112 26.0738C10.5343 25.9768 10.5763 25.8853 10.6348 25.8045C10.6933 25.7237 10.7672 25.6553 10.8521 25.603C10.9371 25.5508 11.0315 25.5158 11.13 25.5C11.2285 25.4842 11.3291 25.488 11.4262 25.5112C11.5232 25.5343 11.6147 25.5763 11.6955 25.6348C11.7763 25.6933 11.8447 25.7672 11.897 25.8521C11.9492 25.9371 11.9842 26.0315 12 26.13L12.3675 28.38L12.8325 27.4425C12.8939 27.3157 12.9898 27.2087 13.1092 27.1339C13.2286 27.0591 13.3666 27.0194 13.5075 27.0194C13.6484 27.0194 13.7864 27.0591 13.9058 27.1339C14.0252 27.2087 14.1211 27.3157 14.1825 27.4425L14.6475 28.38L15.015 26.13C15.0297 26.0324 15.0634 25.9387 15.1143 25.8542C15.1653 25.7697 15.2324 25.6961 15.3118 25.6376C15.3912 25.5791 15.4814 25.5368 15.5772 25.5132C15.673 25.4896 15.7725 25.4851 15.87 25.5C15.9691 25.5145 16.0642 25.5488 16.1498 25.6007C16.2354 25.6526 16.3097 25.7211 16.3685 25.8021C16.4272 25.8832 16.4691 25.9752 16.4917 26.0728C16.5142 26.1703 16.5171 26.2714 16.5 26.37L15.75 30.9075ZM23.25 30.9075C23.2232 31.0633 23.1479 31.2067 23.0347 31.3172C22.9216 31.4276 22.7764 31.4995 22.62 31.5225H22.5C22.3602 31.5235 22.223 31.4854 22.1037 31.4125C21.9844 31.3396 21.8879 31.2348 21.825 31.11L21 29.445L20.175 31.1175C20.1074 31.2652 19.9937 31.3869 19.851 31.4644C19.7083 31.542 19.5443 31.5711 19.3837 31.5474C19.223 31.5237 19.0744 31.4485 18.9601 31.3331C18.8458 31.2177 18.7721 31.0684 18.75 30.9075L18 26.37C17.9842 26.2715 17.988 26.1709 18.0112 26.0738C18.0343 25.9768 18.0763 25.8853 18.1348 25.8045C18.1933 25.7237 18.2672 25.6553 18.3521 25.603C18.4371 25.5508 18.5315 25.5158 18.63 25.5C18.7285 25.4842 18.8291 25.488 18.9262 25.5112C19.0232 25.5343 19.1147 25.5763 19.1955 25.6348C19.2763 25.6933 19.3447 25.7672 19.397 25.8521C19.4492 25.9371 19.4842 26.0315 19.5 26.13L19.8675 28.38L20.3325 27.4425C20.3939 27.3157 20.4898 27.2087 20.6092 27.1339C20.7286 27.0591 20.8666 27.0194 21.0075 27.0194C21.1484 27.0194 21.2864 27.0591 21.4058 27.1339C21.5252 27.2087 21.6211 27.3157 21.6825 27.4425L22.1475 28.38L22.515 26.13C22.5308 26.0315 22.5658 25.9371 22.618 25.8521C22.6703 25.7672 22.7387 25.6933 22.8195 25.6348C22.9003 25.5763 22.9918 25.5343 23.0889 25.5112C23.1859 25.488 23.2865 25.4842 23.385 25.5C23.4835 25.5158 23.5779 25.5508 23.6629 25.603C23.7478 25.6553 23.8217 25.7237 23.8802 25.8045C23.9387 25.8853 23.9807 25.9768 24.0038 26.0738C24.027 26.1709 24.0308 26.2715 24.015 26.37L23.25 30.9075ZM30.75 30.9075C30.7232 31.0633 30.6479 31.2067 30.5347 31.3172C30.4216 31.4276 30.2764 31.4995 30.12 31.5225H30C29.8602 31.5235 29.723 31.4854 29.6037 31.4125C29.4844 31.3396 29.3879 31.2348 29.325 31.11L28.5 29.445L27.675 31.1175C27.6074 31.2652 27.4937 31.3869 27.351 31.4644C27.2083 31.542 27.0443 31.5711 26.8837 31.5474C26.723 31.5237 26.5744 31.4485 26.4601 31.3331C26.3458 31.2177 26.2721 31.0684 26.25 30.9075L25.5 26.37C25.4842 26.2715 25.488 26.1709 25.5112 26.0738C25.5343 25.9768 25.5763 25.8853 25.6348 25.8045C25.6933 25.7237 25.7672 25.6553 25.8521 25.603C25.9371 25.5508 26.0315 25.5158 26.13 25.5C26.2285 25.4842 26.3291 25.488 26.4261 25.5112C26.5232 25.5343 26.6147 25.5763 26.6955 25.6348C26.7763 25.6933 26.8447 25.7672 26.897 25.8521C26.9492 25.9371 26.9842 26.0315 27 26.13L27.3675 28.38L27.8325 27.4425C27.8939 27.3157 27.9898 27.2087 28.1092 27.1339C28.2286 27.0591 28.3666 27.0194 28.5075 27.0194C28.6484 27.0194 28.7864 27.0591 28.9058 27.1339C29.0252 27.2087 29.1211 27.3157 29.1825 27.4425L29.6475 28.38L30.015 26.13C30.0468 25.9311 30.1564 25.753 30.3195 25.6348C30.4827 25.5167 30.6861 25.4682 30.885 25.5C31.0839 25.5318 31.262 25.6414 31.3802 25.8045C31.4983 25.9677 31.5468 26.1711 31.515 26.37L30.75 30.9075ZM39.75 21.75H2.25001C2.0511 21.75 1.86033 21.671 1.71968 21.5303C1.57903 21.3897 1.50001 21.1989 1.50001 21C1.50001 20.8011 1.57903 20.6103 1.71968 20.4697C1.86033 20.329 2.0511 20.25 2.25001 20.25H9.00001C9.09155 16.83 9.8375 13.4593 11.1975 10.32C9.99394 9.68327 8.85595 8.92964 7.80001 8.07C7.68558 7.9725 7.60309 7.84287 7.56324 7.69792C7.5234 7.55297 7.52802 7.39939 7.57653 7.25711C7.62504 7.11482 7.71518 6.9904 7.83527 6.89997C7.95536 6.80955 8.09986 6.7573 8.25001 6.75C8.42175 6.74928 8.58854 6.80752 8.72251 6.915C9.69394 7.7075 10.7387 8.40565 11.8425 9C13.1972 6.2899 15.067 3.86979 17.3475 1.875L17.535 1.71C17.6607 1.58781 17.8252 1.51351 18 1.5C18.1692 1.50098 18.3331 1.55913 18.465 1.665C18.5036 1.69616 18.5388 1.73136 18.57 1.77C18.6961 1.92169 18.7573 2.11694 18.7405 2.31347C18.7237 2.51 18.6301 2.69198 18.48 2.82C16.2691 4.7078 14.4607 7.02122 13.1625 9.6225C15.399 10.6138 17.8051 11.1663 20.25 11.25V2.25C20.25 2.05109 20.329 1.86032 20.4697 1.71967C20.6103 1.57902 20.8011 1.5 21 1.5C21.1989 1.5 21.3897 1.57902 21.5303 1.71967C21.671 1.86032 21.75 2.05109 21.75 2.25V11.25C24.1838 11.1673 26.5793 10.6199 28.8075 9.6375C27.5082 7.05827 25.7081 4.76364 23.5125 2.8875C23.4376 2.82348 23.3761 2.74535 23.3315 2.65756C23.2868 2.56976 23.2599 2.47404 23.2522 2.37584C23.2446 2.27764 23.2563 2.17889 23.2868 2.08524C23.3173 1.99158 23.366 1.90485 23.43 1.83C23.4662 1.78634 23.5063 1.74616 23.55 1.71C23.683 1.6035 23.8483 1.54547 24.0188 1.54547C24.1892 1.54547 24.3545 1.6035 24.4875 1.71L24.66 1.86C26.9382 3.86095 28.8054 6.286 30.1575 9C31.2497 8.41355 32.2843 7.72551 33.2475 6.945C33.4027 6.81968 33.6012 6.76113 33.7995 6.78223C33.9979 6.80333 34.1797 6.90235 34.305 7.0575C34.4303 7.21265 34.4889 7.41123 34.4678 7.60955C34.4467 7.80787 34.3476 7.98968 34.1925 8.115C33.1366 8.97464 31.9986 9.72827 30.795 10.365C32.1513 13.49 32.8996 16.8448 33 20.25H39.75C39.9489 20.25 40.1397 20.329 40.2803 20.4697C40.421 20.6103 40.5 20.8011 40.5 21C40.5 21.1989 40.421 21.3897 40.2803 21.5303C40.1397 21.671 39.9489 21.75 39.75 21.75Z" fill="#060B29"/>
<path d="M15.7595 30.9092C15.7328 31.0651 15.6574 31.2084 15.5443 31.3189C15.4311 31.4293 15.286 31.5012 15.1295 31.5242H15.0095C14.8698 31.5252 14.7325 31.4871 14.6132 31.4142C14.494 31.3413 14.3974 31.2366 14.3345 31.1117L13.5095 29.4467L12.6845 31.1192C12.617 31.2669 12.5033 31.3886 12.3606 31.4662C12.2179 31.5437 12.0539 31.5728 11.8932 31.5491C11.7326 31.5254 11.5839 31.4503 11.4696 31.3349C11.3554 31.2195 11.2816 31.0701 11.2595 30.9092L10.5095 26.3717C10.4938 26.2732 10.4976 26.1726 10.5207 26.0756C10.5438 25.9786 10.5859 25.887 10.6444 25.8063C10.7029 25.7255 10.7767 25.657 10.8617 25.6047C10.9466 25.5525 11.041 25.5175 11.1395 25.5017C11.238 25.486 11.3387 25.4898 11.4357 25.5129C11.5327 25.536 11.6242 25.578 11.705 25.6365C11.7858 25.695 11.8543 25.7689 11.9065 25.8539C11.9588 25.9388 11.9938 26.0332 12.0095 26.1317L12.377 28.3817L12.842 27.4442C12.9035 27.3174 12.9993 27.2105 13.1187 27.1357C13.2381 27.0608 13.3761 27.0211 13.517 27.0211C13.6579 27.0211 13.796 27.0608 13.9154 27.1357C14.0347 27.2105 14.1306 27.3174 14.192 27.4442L14.657 28.3817L15.0245 26.1317C15.0392 26.0342 15.0729 25.9405 15.1239 25.856C15.1748 25.7715 15.2419 25.6978 15.3213 25.6393C15.4007 25.5808 15.4909 25.5385 15.5867 25.5149C15.6825 25.4913 15.782 25.4868 15.8795 25.5017C15.9786 25.5163 16.0737 25.5505 16.1593 25.6024C16.2449 25.6543 16.3193 25.7228 16.378 25.8039C16.4367 25.885 16.4786 25.977 16.5012 26.0745C16.5238 26.172 16.5266 26.2731 16.5095 26.3717L15.7595 30.9092ZM23.2595 30.9092C23.2328 31.0651 23.1574 31.2084 23.0443 31.3189C22.9311 31.4293 22.786 31.5012 22.6295 31.5242H22.5095C22.3698 31.5252 22.2325 31.4871 22.1132 31.4142C21.994 31.3413 21.8974 31.2366 21.8345 31.1117L21.0095 29.4467L20.1845 31.1192C20.117 31.2669 20.0033 31.3886 19.8606 31.4662C19.7179 31.5437 19.5539 31.5728 19.3932 31.5491C19.2326 31.5254 19.0839 31.4503 18.9696 31.3349C18.8554 31.2195 18.7816 31.0701 18.7595 30.9092L18.0095 26.3717C17.9938 26.2732 17.9976 26.1726 18.0207 26.0756C18.0438 25.9786 18.0859 25.887 18.1444 25.8063C18.2029 25.7255 18.2767 25.657 18.3617 25.6047C18.4466 25.5525 18.541 25.5175 18.6395 25.5017C18.738 25.486 18.8387 25.4898 18.9357 25.5129C19.0327 25.536 19.1242 25.578 19.205 25.6365C19.2858 25.695 19.3543 25.7689 19.4065 25.8539C19.4588 25.9388 19.4938 26.0332 19.5095 26.1317L19.877 28.3817L20.342 27.4442C20.4035 27.3174 20.4993 27.2105 20.6187 27.1357C20.7381 27.0608 20.8761 27.0211 21.017 27.0211C21.1579 27.0211 21.296 27.0608 21.4154 27.1357C21.5347 27.2105 21.6306 27.3174 21.692 27.4442L22.157 28.3817L22.5245 26.1317C22.5403 26.0332 22.5753 25.9388 22.6275 25.8539C22.6798 25.7689 22.7483 25.695 22.8291 25.6365C22.9098 25.578 23.0014 25.536 23.0984 25.5129C23.1954 25.4898 23.296 25.486 23.3945 25.5017C23.493 25.5175 23.5875 25.5525 23.6724 25.6047C23.7574 25.657 23.8312 25.7255 23.8897 25.8063C23.9482 25.887 23.9902 25.9786 24.0134 26.0756C24.0365 26.1726 24.0403 26.2732 24.0245 26.3717L23.2595 30.9092ZM30.7595 30.9092C30.7328 31.0651 30.6574 31.2084 30.5443 31.3189C30.4311 31.4293 30.286 31.5012 30.1295 31.5242H30.0095C29.8698 31.5252 29.7325 31.4871 29.6132 31.4142C29.494 31.3413 29.3974 31.2366 29.3345 31.1117L28.5095 29.4467L27.6845 31.1192C27.617 31.2669 27.5033 31.3886 27.3606 31.4662C27.2179 31.5437 27.0539 31.5728 26.8932 31.5491C26.7325 31.5254 26.5839 31.4503 26.4696 31.3349C26.3554 31.2195 26.2816 31.0701 26.2595 30.9092L25.5095 26.3717C25.4938 26.2732 25.4976 26.1726 25.5207 26.0756C25.5438 25.9786 25.5859 25.887 25.6444 25.8063C25.7029 25.7255 25.7767 25.657 25.8617 25.6047C25.9466 25.5525 26.041 25.5175 26.1395 25.5017C26.238 25.486 26.3387 25.4898 26.4357 25.5129C26.5327 25.536 26.6242 25.578 26.705 25.6365C26.7858 25.695 26.8543 25.7689 26.9065 25.8539C26.9588 25.9388 26.9938 26.0332 27.0095 26.1317L27.377 28.3817L27.842 27.4442C27.9035 27.3174 27.9993 27.2105 28.1187 27.1357C28.2381 27.0608 28.3761 27.0211 28.517 27.0211C28.6579 27.0211 28.796 27.0608 28.9154 27.1357C29.0347 27.2105 29.1306 27.3174 29.192 27.4442L29.657 28.3817L30.0245 26.1317C30.0564 25.9328 30.1659 25.7547 30.3291 25.6365C30.4922 25.5184 30.6956 25.4699 30.8945 25.5017C31.0934 25.5336 31.2716 25.6431 31.3897 25.8063C31.5079 25.9694 31.5564 26.1728 31.5245 26.3717L30.7595 30.9092Z" fill="#4B7BE5"/>
<path d="M10.5078 20.2472H20.2578V12.7472C17.6044 12.6578 14.9926 12.0621 12.5628 10.9922C11.3012 13.9203 10.604 17.0603 10.5078 20.2472Z" fill="#4B7BE5"/>
<path d="M21.7578 12.7502V20.2502H31.5078C31.4125 17.0567 30.718 13.9096 29.4603 10.9727C27.0298 12.0513 24.4152 12.6546 21.7578 12.7502Z" fill="#4B7BE5"/>
</svg>
