<svg width="72" height="20" viewBox="0 0 72 20" fill="none" xmlns="http://www.w3.org/2000/svg">
<path d="M4.40587 1.83325C4.41424 1.68554 4.45154 1.54105 4.51557 1.40835C4.5796 1.27565 4.66905 1.15744 4.77862 1.06073C4.88819 0.964015 5.01565 0.890769 5.15343 0.845332C5.29122 0.799895 5.43653 0.783193 5.58075 0.796216H10.419C10.5634 0.782936 10.7089 0.799446 10.8469 0.844765C10.9849 0.890085 11.1125 0.963289 11.2223 1.06003C11.3321 1.15677 11.4217 1.27506 11.4858 1.40789C11.5499 1.54072 11.5873 1.68537 11.5957 1.83325V2.96935H12.4673V1.83325C12.4521 1.57513 12.3868 1.32268 12.2752 1.09058C12.1637 0.858483 12.0081 0.651368 11.8175 0.481286C11.6269 0.311205 11.4051 0.181551 11.165 0.0998684C10.9249 0.0181854 10.6713 -0.0138966 10.419 0.00548865H5.58075C5.32863 -0.0135186 5.07534 0.018845 4.83557 0.1007C4.59579 0.182556 4.37433 0.312272 4.18402 0.482317C3.99371 0.652363 3.83835 0.859349 3.72696 1.09126C3.61557 1.32317 3.55037 1.57538 3.53516 1.83325V2.96935H4.40676L4.40587 1.83325Z" fill="#FF4545"/>
<path d="M3.0496 19.999H12.9476C13.1733 19.9972 13.3963 19.9495 13.6038 19.8588C13.8113 19.7681 13.9992 19.6362 14.1564 19.4707C14.3136 19.3052 14.4371 19.1095 14.5196 18.8949C14.6022 18.6802 14.6422 18.4509 14.6374 18.2204V6.01953H1.35977V18.2204C1.35493 18.4509 1.39496 18.6802 1.47754 18.8949C1.56012 19.1095 1.6836 19.3052 1.84081 19.4707C1.99802 19.6362 2.18583 19.7681 2.39334 19.8588C2.60085 19.9495 2.82392 19.9972 3.0496 19.999ZM10.6636 7.91092C10.672 7.8034 10.7198 7.70306 10.7973 7.62989C10.8749 7.55673 10.9765 7.5161 11.0821 7.5161C11.1876 7.5161 11.2893 7.55673 11.3669 7.62989C11.4444 7.70306 11.4921 7.8034 11.5005 7.91092V17.2469C11.4921 17.3545 11.4444 17.4548 11.3669 17.528C11.2893 17.6011 11.1876 17.6418 11.0821 17.6418C10.9765 17.6418 10.8749 17.6011 10.7973 17.528C10.7198 17.4548 10.672 17.3545 10.6636 17.2469V7.91092ZM7.57835 7.91092C7.58676 7.8034 7.63449 7.70306 7.71204 7.62989C7.78959 7.55673 7.89126 7.5161 7.99681 7.5161C8.10235 7.5161 8.20403 7.55673 8.28158 7.62989C8.35912 7.70306 8.40686 7.8034 8.41526 7.91092V17.2469C8.40686 17.3545 8.35912 17.4548 8.28158 17.528C8.20403 17.6011 8.10235 17.6418 7.99681 17.6418C7.89126 17.6418 7.78959 17.6011 7.71204 17.528C7.63449 17.4548 7.58676 17.3545 7.57835 17.2469V7.91092ZM4.49307 7.91092C4.50148 7.8034 4.54921 7.70306 4.62676 7.62989C4.70431 7.55673 4.80598 7.5161 4.91153 7.5161C5.01708 7.5161 5.11875 7.55673 5.1963 7.62989C5.27384 7.70306 5.32158 7.8034 5.32999 7.91092V17.2469C5.32158 17.3545 5.27384 17.4548 5.1963 17.528C5.11875 17.6011 5.01708 17.6418 4.91153 17.6418C4.80598 17.6418 4.70431 17.6011 4.62676 17.528C4.54921 17.4548 4.50148 17.3545 4.49307 17.2469V7.91092Z" fill="#FF4545"/>
<path d="M1.02721 5.31757H14.9728C15.1047 5.32575 15.2368 5.30627 15.3611 5.26032C15.4853 5.21437 15.599 5.14292 15.6953 5.05038C15.7915 4.95784 15.8681 4.84616 15.9206 4.7222C15.973 4.59825 16 4.46464 16 4.32961C16 4.19459 15.973 4.06099 15.9206 3.93703C15.8681 3.81308 15.7915 3.7014 15.6953 3.60886C15.599 3.51632 15.4853 3.44487 15.3611 3.39892C15.2368 3.35297 15.1047 3.33348 14.9728 3.34166H1.02721C0.895324 3.33348 0.763191 3.35297 0.638945 3.39892C0.514699 3.44487 0.400967 3.51632 0.304747 3.60886C0.208527 3.7014 0.131854 3.81308 0.079445 3.93703C0.0270361 4.06099 0 4.19459 0 4.32961C0 4.46464 0.0270361 4.59825 0.079445 4.7222C0.131854 4.84616 0.208527 4.95784 0.304747 5.05038C0.400967 5.14292 0.514699 5.21437 0.638945 5.26032C0.763191 5.30627 0.895324 5.32575 1.02721 5.31757Z" fill="#FF4545"/>
<path d="M29.2373 5.13574H32.7988C34.2617 5.13574 35.401 5.56641 36.2168 6.42773C37.0326 7.28451 37.4404 8.48763 37.4404 10.0371C37.4404 11.6139 37.0348 12.8353 36.2236 13.7012C35.4124 14.5671 34.2708 15 32.7988 15H29.2373V5.13574ZM30.7686 6.53027V13.6055H32.6279C33.6624 13.6055 34.4622 13.2979 35.0273 12.6826C35.597 12.0628 35.8818 11.1878 35.8818 10.0576C35.8818 8.94564 35.5947 8.07975 35.0205 7.45996C34.4508 6.84017 33.6533 6.53027 32.6279 6.53027H30.7686ZM43.6953 9.18945C43.3672 8.83854 42.932 8.66309 42.3896 8.66309C41.8473 8.66309 41.4007 8.83854 41.0498 9.18945C40.6989 9.54036 40.5029 10.0075 40.4619 10.5908H44.2217C44.2035 10.0029 44.028 9.53581 43.6953 9.18945ZM44.2148 12.9902H45.6299C45.4613 13.6602 45.0921 14.1865 44.5225 14.5693C43.9574 14.9521 43.251 15.1436 42.4033 15.1436C41.3369 15.1436 40.4961 14.8018 39.8809 14.1182C39.2702 13.43 38.9648 12.4912 38.9648 11.3018C38.9648 10.1123 39.2747 9.16667 39.8945 8.46484C40.5143 7.76302 41.3483 7.41211 42.3965 7.41211C43.431 7.41211 44.2422 7.74479 44.8301 8.41016C45.4225 9.07552 45.7188 9.99382 45.7188 11.165V11.6777H40.4619V11.7598C40.4847 12.416 40.6738 12.9355 41.0293 13.3184C41.3848 13.7012 41.8564 13.8926 42.4443 13.8926C43.3421 13.8926 43.9323 13.5918 44.2148 12.9902ZM47.5508 15V4.65039H49.0205V15H47.5508ZM55.5898 9.18945C55.2617 8.83854 54.8265 8.66309 54.2842 8.66309C53.7419 8.66309 53.2952 8.83854 52.9443 9.18945C52.5934 9.54036 52.3975 10.0075 52.3564 10.5908H56.1162C56.098 10.0029 55.9225 9.53581 55.5898 9.18945ZM56.1094 12.9902H57.5244C57.3558 13.6602 56.9867 14.1865 56.417 14.5693C55.8519 14.9521 55.1455 15.1436 54.2979 15.1436C53.2314 15.1436 52.3906 14.8018 51.7754 14.1182C51.1647 13.43 50.8594 12.4912 50.8594 11.3018C50.8594 10.1123 51.1693 9.16667 51.7891 8.46484C52.4089 7.76302 53.2428 7.41211 54.291 7.41211C55.3255 7.41211 56.1367 7.74479 56.7246 8.41016C57.3171 9.07552 57.6133 9.99382 57.6133 11.165V11.6777H52.3564V11.7598C52.3792 12.416 52.5684 12.9355 52.9238 13.3184C53.2793 13.7012 53.751 13.8926 54.3389 13.8926C55.2367 13.8926 55.8268 13.5918 56.1094 12.9902ZM59.8965 5.70312H61.3662V7.58984H62.9795V8.82715H61.3662V12.6553C61.3662 13.0426 61.4505 13.3275 61.6191 13.5098C61.7878 13.6875 62.0544 13.7764 62.4189 13.7764C62.5648 13.7764 62.7516 13.765 62.9795 13.7422V14.9658C62.6878 15.016 62.4212 15.041 62.1797 15.041C61.3639 15.041 60.7783 14.8861 60.4229 14.5762C60.0719 14.2663 59.8965 13.7513 59.8965 13.0312V8.82715H58.7139V7.58984H59.8965V5.70312ZM68.9883 9.18945C68.6602 8.83854 68.2249 8.66309 67.6826 8.66309C67.1403 8.66309 66.6937 8.83854 66.3428 9.18945C65.9919 9.54036 65.7959 10.0075 65.7549 10.5908H69.5146C69.4964 10.0029 69.321 9.53581 68.9883 9.18945ZM69.5078 12.9902H70.9229C70.7542 13.6602 70.3851 14.1865 69.8154 14.5693C69.2503 14.9521 68.5439 15.1436 67.6963 15.1436C66.6299 15.1436 65.7891 14.8018 65.1738 14.1182C64.5632 13.43 64.2578 12.4912 64.2578 11.3018C64.2578 10.1123 64.5677 9.16667 65.1875 8.46484C65.8073 7.76302 66.6413 7.41211 67.6895 7.41211C68.724 7.41211 69.5352 7.74479 70.123 8.41016C70.7155 9.07552 71.0117 9.99382 71.0117 11.165V11.6777H65.7549V11.7598C65.7777 12.416 65.9668 12.9355 66.3223 13.3184C66.6777 13.7012 67.1494 13.8926 67.7373 13.8926C68.6351 13.8926 69.2253 13.5918 69.5078 12.9902Z" fill="#FF4545"/>
</svg>
