<svg width="22" height="22" viewBox="0 0 22 22" fill="none" xmlns="http://www.w3.org/2000/svg">
<path d="M11 22C13.1756 22 15.3023 21.3549 17.1113 20.1462C18.9202 18.9375 20.3301 17.2195 21.1627 15.2095C21.9952 13.1995 22.2131 10.9878 21.7886 8.85401C21.3642 6.72022 20.3165 4.76021 18.7782 3.22183C17.2398 1.68345 15.2798 0.635801 13.146 0.211365C11.0122 -0.213072 8.80047 0.00476456 6.79048 0.837328C4.78049 1.66989 3.06253 3.07979 1.85383 4.88873C0.645138 6.69767 0 8.82441 0 11C0 13.9174 1.15892 16.7153 3.22182 18.7782C5.28473 20.8411 8.08262 22 11 22ZM9.9 5.5H12.1V12.1H9.9V5.5ZM9.9 14.3L12.1 14.3L12.1 16.5H9.9L9.9 14.3Z" fill="#FF5A5A"/>
</svg>
