<svg width="22" height="22" viewBox="0 0 22 22" fill="none" xmlns="http://www.w3.org/2000/svg">
<path d="M21.7912 11.8798C21.9285 11.6066 22 11.305 22 10.9993C22 10.6935 21.9285 10.3919 21.7912 10.1187L21.5029 9.54789C21.4402 9.42435 21.4179 9.28419 21.4392 9.14727L21.5365 8.51509C21.5825 8.21291 21.5573 7.90416 21.4628 7.61347C21.3683 7.32278 21.2072 7.05819 20.9923 6.84082L20.5419 6.38694C20.4442 6.28878 20.3798 6.16242 20.3578 6.02569L20.2559 5.39466C20.2069 5.09644 20.0897 4.81357 19.9133 4.56814C19.737 4.3227 19.5063 4.12134 19.2393 3.97976L18.6847 3.65324L18.6523 3.63471C18.5288 3.57156 18.4283 3.47108 18.3651 3.34757L18.0722 2.77906C17.9235 2.50551 17.7138 2.26986 17.4594 2.09036C17.2051 1.91086 16.9128 1.79232 16.6052 1.74393L15.9788 1.64204C15.8421 1.62003 15.7157 1.55563 15.6175 1.45794L15.159 1.00754C14.9415 0.792473 14.6768 0.631258 14.3858 0.536768C14.0949 0.442279 13.786 0.417134 13.4836 0.463342L12.8526 0.560602C12.7157 0.581958 12.5755 0.559678 12.452 0.49692L11.88 0.208613C11.6069 0.0714388 11.3056 0 11 0C10.6944 0 10.3931 0.0714388 10.12 0.208613L9.5492 0.49692C9.4253 0.559845 9.28472 0.582128 9.14743 0.560602L8.5164 0.463342C8.21404 0.417041 7.90504 0.442142 7.61411 0.536637C7.32319 0.631132 7.05842 0.792398 6.84098 1.00754L6.38709 1.45794C6.28898 1.55569 6.16259 1.6201 6.02584 1.64204L5.39481 1.74393C5.08725 1.79232 4.79495 1.91086 4.54055 2.09036C4.28616 2.26986 4.0765 2.50551 3.92781 2.77906L3.63487 3.34757C3.57171 3.47108 3.47124 3.57156 3.34772 3.63471L2.77921 3.92765C2.50566 4.07634 2.27001 4.28601 2.09051 4.5404C1.91101 4.7948 1.79247 5.08709 1.74409 5.39466L1.64219 6.02106C1.62025 6.15781 1.55585 6.28419 1.45809 6.38231L1.00769 6.84082C0.792551 7.05826 0.631285 7.32304 0.53679 7.61396C0.442295 7.90488 0.417194 8.21388 0.463495 8.51624L0.560755 9.14727C0.582111 9.28419 0.559831 9.42435 0.497073 9.54789L0.208766 10.1199C0.0714915 10.3931 0 10.6946 0 11.0004C0 11.3062 0.0714915 11.6077 0.208766 11.881L0.497073 12.4518C0.559755 12.5754 0.582032 12.7155 0.560755 12.8524L0.463495 13.4835C0.417474 13.7856 0.442713 14.0944 0.537198 14.3851C0.631682 14.6758 0.792797 14.9403 1.00769 15.1577L1.45809 15.6116C1.55585 15.7097 1.62025 15.8361 1.64219 15.9728L1.74409 16.6039C1.79231 16.9116 1.91077 17.2042 2.09028 17.4588C2.26979 17.7134 2.50552 17.9232 2.77921 18.072L3.34772 18.365C3.47124 18.4281 3.57171 18.5286 3.63487 18.6521L3.92781 19.2206C4.0765 19.4942 4.28616 19.7298 4.54055 19.9093C4.79495 20.0888 5.08725 20.2074 5.39481 20.2558L6.02584 20.3577C6.16257 20.3797 6.28893 20.4441 6.38709 20.5418L6.84098 20.9922C7.05835 21.2071 7.32293 21.3682 7.61362 21.4627C7.90431 21.5571 8.21306 21.5824 8.51524 21.5364L9.14743 21.4391C9.28434 21.4177 9.42451 21.44 9.54805 21.5028L10.1189 21.7911C10.3921 21.9284 10.6936 21.9998 10.9994 21.9998C11.3052 21.9998 11.6067 21.9284 11.88 21.7911L12.4508 21.5028C12.5744 21.4401 12.7145 21.4178 12.8514 21.4391L13.4836 21.5364C13.7858 21.5824 14.0945 21.5571 14.3852 21.4627C14.6759 21.3682 14.9405 21.2071 15.1579 20.9922L15.6117 20.5418C15.7098 20.4439 15.8362 20.3795 15.973 20.3577L16.604 20.2558C16.9023 20.2069 17.1852 20.0896 17.4306 19.9133C17.6761 19.7369 17.8774 19.5062 18.0189 19.2392L18.3455 18.6845L18.364 18.6521C18.4271 18.5286 18.5276 18.4281 18.6511 18.365L19.2196 18.072C19.4913 17.9318 19.7263 17.73 19.9061 17.4827C20.0858 17.2354 20.2052 16.9495 20.2548 16.6479L20.3566 16.0168C20.3787 15.8801 20.4431 15.7538 20.5407 15.6556L21.0039 15.1473C21.215 14.9301 21.373 14.667 21.4654 14.3785C21.5578 14.09 21.5821 13.7841 21.5365 13.4846L21.4392 12.8524C21.4179 12.7155 21.4402 12.5753 21.5029 12.4518L21.7912 11.8798Z" fill="url(#paint0_linear_8178_58417)"/>
<path d="M11.0024 3.22852C9.46607 3.22852 7.96419 3.68411 6.68674 4.53767C5.40929 5.39124 4.41363 6.60444 3.82569 8.02387C3.23774 9.4433 3.08391 11.0052 3.38364 12.5121C3.68337 14.0189 4.42321 15.4031 5.50959 16.4894C6.59598 17.5758 7.98011 18.3157 9.48697 18.6154C10.9938 18.9151 12.5557 18.7613 13.9752 18.1733C15.3946 17.5854 16.6078 16.5897 17.4614 15.3123C18.3149 14.0348 18.7705 12.533 18.7705 10.9966C18.7617 8.93909 17.9404 6.96838 16.4855 5.51349C15.0307 4.05861 13.0599 3.23735 11.0024 3.22852ZM15.4891 9.22159L14.2016 14.3717C14.1668 14.5109 14.0864 14.6345 13.9734 14.7228C13.8603 14.8111 13.721 14.8591 13.5775 14.8592H8.42737C8.2839 14.8591 8.14458 14.8111 8.03151 14.7228C7.91845 14.6345 7.83812 14.5109 7.80329 14.3717L6.51459 9.22159C6.4785 9.07493 6.49513 8.92025 6.56156 8.78462C6.62799 8.64898 6.73999 8.54101 6.87798 8.47961C7.01597 8.41821 7.17115 8.40727 7.31638 8.44872C7.46162 8.49017 7.58765 8.58136 7.67245 8.70634C7.84844 8.9657 8.48295 9.70905 9.06882 9.70905C9.17535 9.70905 9.50534 9.46126 9.84575 8.6936C10.1551 7.99821 10.3303 7.25064 10.3622 6.4902C10.3622 6.40566 10.3788 6.32195 10.4112 6.24384C10.4435 6.16574 10.4909 6.09477 10.5507 6.03499C10.6105 5.97521 10.6815 5.92779 10.7596 5.89544C10.8377 5.86308 10.9214 5.84643 11.0059 5.84643C11.0905 5.84643 11.1742 5.86308 11.2523 5.89544C11.3304 5.92779 11.4014 5.97521 11.4611 6.03499C11.5209 6.09477 11.5683 6.16574 11.6007 6.24384C11.633 6.32195 11.6497 6.40566 11.6497 6.4902C11.6801 7.24908 11.8534 7.99542 12.1603 8.69013C12.5007 9.45663 12.8307 9.70557 12.9372 9.70557C13.5382 9.70557 14.1912 8.91476 14.3336 8.70287C14.4184 8.57788 14.5444 8.48669 14.6897 8.44525C14.8349 8.4038 14.9901 8.41473 15.1281 8.47614C15.2661 8.53754 15.3781 8.6455 15.4445 8.78114C15.5109 8.91678 15.5275 9.07146 15.4915 9.21811L15.4891 9.22159Z" fill="#FFF1BE"/>
<defs>
<linearGradient id="paint0_linear_8178_58417" x1="11" y1="0" x2="11" y2="21.9998" gradientUnits="userSpaceOnUse">
<stop stop-color="#FFE98A"/>
<stop offset="1" stop-color="#FF3B81"/>
</linearGradient>
</defs>
</svg>