<svg width="57" height="42" viewBox="0 0 57 42" fill="none" xmlns="http://www.w3.org/2000/svg">
<path d="M13.5938 41.3203L9.73041 41.8983C9.59249 41.9186 9.45566 41.9282 9.32092 41.9282C8.15062 41.9282 7.11387 41.1843 6.91241 40.1345L3.76825 23.7938L0.256274 5.54006L0.0624645 4.52985C-0.343639 2.4197 1.27323 0.412879 3.66752 0.054873C6.05853 -0.302073 8.33448 1.12002 8.74288 3.22632L8.92794 4.18727L12.4892 22.694L15.5951 38.8378C15.8194 40.0081 14.9217 41.1216 13.5938 41.3203Z" fill="#060B29"/>
<path d="M55.9389 4.60066L55.7375 5.64942L52.2124 23.9709L49.089 40.2054C48.9795 40.7718 48.627 41.2677 48.0938 41.6016C47.6756 41.8631 47.1873 41.9991 46.6849 41.9991C46.5469 41.9991 46.409 41.9895 46.271 41.9683L42.4076 41.3913C41.7638 41.2948 41.2012 40.9841 40.8234 40.5142C40.4447 40.0452 40.2968 39.475 40.4063 38.9077L43.5264 22.6915L47.0844 4.19638L47.2573 3.29809C47.4544 2.27825 48.0904 1.3867 49.0483 0.787516C50.0073 0.187369 51.1732 -0.047061 52.3337 0.125677C53.493 0.299378 54.5068 0.859908 55.1878 1.70509C55.8687 2.55027 56.136 3.57889 55.9389 4.60066Z" fill="#060B29"/>
<path d="M55.736 5.64806L52.2109 23.9695L50.4965 23.681C48.1778 23.2902 45.8536 22.9603 43.525 22.6901C38.4114 22.0986 33.2802 21.8005 28.1491 21.7966C22.9238 21.7908 17.6985 22.0899 12.4907 22.6939C10.1457 22.9651 7.80402 23.2989 5.46672 23.6935L3.82021 23.9724L3.7699 23.7939L0.257812 5.54L7.43401 4.40246C7.9321 4.32814 8.43029 4.25681 8.92947 4.18731C15.3098 3.3054 21.7305 2.86739 28.1491 2.8751C34.4735 2.88281 40.7969 3.32275 47.083 4.19502C47.5647 4.26163 48.0453 4.33103 48.5259 4.40246L55.736 5.64806Z" fill="#4B7BE5"/>
</svg>
