<svg width="30" height="30" viewBox="0 0 30 30" fill="none" xmlns="http://www.w3.org/2000/svg">
<mask id="path-1-outside-1" maskUnits="userSpaceOnUse" x="0" y="0" width="30" height="30" fill="black">
<rect fill="white" width="30" height="30"/>
<path d="M19.1426 24.6174C18.9258 25.8354 18.7158 27.0047 18.5109 28.174C18.4113 28.7438 18.1305 28.9991 17.5662 29C15.8523 29 14.1373 29 12.4212 29C11.8797 29 11.5904 28.7532 11.4934 28.2219C11.2915 27.0961 11.0916 25.9706 10.8937 24.8455C10.8827 24.7831 10.8625 24.7225 10.8372 24.6225C10.7376 24.6823 10.6558 24.7293 10.5748 24.7797L7.64048 26.6033C7.15128 26.9074 6.8198 26.8672 6.4217 26.4547C5.44667 25.4445 4.47304 24.4332 3.50083 23.4208C3.09007 22.9937 3.05802 22.658 3.37768 22.16C3.99959 21.192 4.62149 20.2257 5.2434 19.2611C5.29232 19.1851 5.33617 19.1056 5.40365 18.9937C4.88493 18.881 4.39151 18.7717 3.89641 18.6675C3.17441 18.5137 2.45242 18.3651 1.73043 18.2122C1.24882 18.1114 1 17.7997 1 17.2914C1 15.8423 1 14.3928 1 12.943C1 12.3451 1.22857 12.0692 1.81646 11.9633C2.96355 11.7566 4.11092 11.5499 5.25858 11.3432C5.30159 11.3355 5.34292 11.321 5.41462 11.3022C5.35642 11.198 5.31087 11.1117 5.26026 11.0289C4.63105 10.0039 4.00156 8.97724 3.37178 7.94886C3.04705 7.41844 3.09091 7.08447 3.54047 6.65142L6.5946 3.71403C7.02054 3.3049 7.30816 3.27329 7.81676 3.58249L11.1062 5.58972C11.2024 5.09347 11.296 4.62198 11.3846 4.14964C11.5364 3.34419 11.684 2.53703 11.8366 1.73072C11.921 1.26265 12.217 1.00641 12.6961 1.0047C14.2267 0.998434 15.7581 0.998434 17.2904 1.0047C17.8049 1.0047 18.068 1.27461 18.1709 1.84005C18.3945 3.07257 18.6222 4.3051 18.8558 5.57947C18.9545 5.52481 19.0389 5.4821 19.119 5.43342L22.1377 3.59104C22.6632 3.27073 22.944 3.30063 23.3818 3.72086C24.4136 4.71281 25.4446 5.70503 26.4747 6.69754C26.8813 7.08874 26.9226 7.41844 26.6291 7.90188C26.0027 8.93596 25.3737 9.9726 24.7423 11.0118C24.69 11.0972 24.6411 11.1826 24.5685 11.3082C25.0543 11.3936 25.5149 11.479 25.9762 11.5644C26.7294 11.6977 27.4835 11.8267 28.2367 11.9625C28.7082 12.0479 28.9899 12.3759 28.9958 12.8687C29.0014 14.3458 29.0014 15.8229 28.9958 17.3C28.9958 17.7988 28.7293 18.1114 28.2485 18.2131C27.0991 18.4568 25.9495 18.6999 24.7996 18.9425C24.738 18.9553 24.6782 18.9792 24.5972 19.004C24.6545 19.0997 24.7035 19.1842 24.7566 19.2662C25.3796 20.2342 26.0035 21.1994 26.6282 22.1618C26.9403 22.6461 26.904 22.9775 26.5017 23.3951L23.5589 26.4504C23.1591 26.8655 22.8276 26.9099 22.3418 26.6067C21.3718 26.0031 20.4024 25.3981 19.4336 24.7916C19.3501 24.7421 19.2649 24.6909 19.1426 24.6174ZM16.6435 2.666C15.6128 2.666 14.6015 2.67283 13.591 2.66088C13.381 2.66088 13.3152 2.73006 13.2789 2.93078C13.0419 4.25556 12.7872 5.57862 12.546 6.90083C12.4018 7.69176 11.8181 7.96936 11.1425 7.55425C9.97459 6.83791 8.80669 6.11957 7.63879 5.39925L7.38576 5.24892L5.04518 7.503C5.10423 7.60379 5.15315 7.69091 5.20544 7.77632C5.95021 9.00287 6.69835 10.226 7.43805 11.4551C7.77543 12.0171 7.51565 12.6202 6.88137 12.7414C5.98732 12.9123 5.08904 13.0677 4.19246 13.23L2.65991 13.5085V16.7004C4.07437 17.0036 5.47366 17.2983 6.87041 17.6075C7.02931 17.6418 7.17791 17.7138 7.30394 17.8176C7.64132 18.1106 7.67506 18.5299 7.4119 18.9391C6.62665 20.1605 5.83887 21.3802 5.04181 22.6119L7.23478 24.901C7.34021 24.8386 7.42624 24.7899 7.51059 24.7378C8.65768 24.0204 9.80309 23.2995 10.9527 22.5871C11.5347 22.2258 12.1335 22.4966 12.2575 23.1671C12.4127 24.0383 12.5586 24.9112 12.7113 25.7833C12.8007 26.2958 12.8952 26.8083 12.9896 27.3361C14.2852 27.3361 15.552 27.3361 16.8189 27.3361C17.0078 27.3361 17.0095 27.2174 17.0331 27.0859C17.2671 25.7694 17.5027 24.4537 17.7399 23.1389C17.8538 22.5137 18.4476 22.2378 18.9899 22.5521C19.1586 22.6486 19.3155 22.7562 19.4783 22.8579L22.6353 24.8301L24.9531 22.6367C24.8781 22.5179 24.8258 22.4317 24.7709 22.3471C24.0355 21.2026 23.2966 20.0597 22.5662 18.9126C22.2052 18.3463 22.459 17.7433 23.1077 17.5981L23.348 17.5451C24.5955 17.2795 25.843 17.0156 27.0896 16.7456C27.2001 16.7217 27.3527 16.7456 27.3519 16.5415C27.346 15.5353 27.3519 14.53 27.3519 13.5179C27.2549 13.4931 27.1773 13.4675 27.0989 13.4538C25.8253 13.226 24.5516 12.9983 23.278 12.7705C22.4346 12.6227 22.174 12.0436 22.6244 11.3056C23.3475 10.1275 24.0717 8.94621 24.7971 7.7618C24.8477 7.67639 24.8932 7.59097 24.9447 7.49702L22.6083 5.24721C22.5181 5.30102 22.4396 5.34629 22.3629 5.39327C21.1624 6.12726 19.961 6.86068 18.7588 7.59354C18.1777 7.94544 17.6016 7.68835 17.4743 7.02297C17.3216 6.22606 17.1757 5.42829 17.0239 4.63138C16.8999 3.98138 16.7725 3.33138 16.6435 2.66429V2.666Z"/>
</mask>
<path d="M19.1426 24.6174C18.9258 25.8354 18.7158 27.0047 18.5109 28.174C18.4113 28.7438 18.1305 28.9991 17.5662 29C15.8523 29 14.1373 29 12.4212 29C11.8797 29 11.5904 28.7532 11.4934 28.2219C11.2915 27.0961 11.0916 25.9706 10.8937 24.8455C10.8827 24.7831 10.8625 24.7225 10.8372 24.6225C10.7376 24.6823 10.6558 24.7293 10.5748 24.7797L7.64048 26.6033C7.15128 26.9074 6.8198 26.8672 6.4217 26.4547C5.44667 25.4445 4.47304 24.4332 3.50083 23.4208C3.09007 22.9937 3.05802 22.658 3.37768 22.16C3.99959 21.192 4.62149 20.2257 5.2434 19.2611C5.29232 19.1851 5.33617 19.1056 5.40365 18.9937C4.88493 18.881 4.39151 18.7717 3.89641 18.6675C3.17441 18.5137 2.45242 18.3651 1.73043 18.2122C1.24882 18.1114 1 17.7997 1 17.2914C1 15.8423 1 14.3928 1 12.943C1 12.3451 1.22857 12.0692 1.81646 11.9633C2.96355 11.7566 4.11092 11.5499 5.25858 11.3432C5.30159 11.3355 5.34292 11.321 5.41462 11.3022C5.35642 11.198 5.31087 11.1117 5.26026 11.0289C4.63105 10.0039 4.00156 8.97724 3.37178 7.94886C3.04705 7.41844 3.09091 7.08447 3.54047 6.65142L6.5946 3.71403C7.02054 3.3049 7.30816 3.27329 7.81676 3.58249L11.1062 5.58972C11.2024 5.09347 11.296 4.62198 11.3846 4.14964C11.5364 3.34419 11.684 2.53703 11.8366 1.73072C11.921 1.26265 12.217 1.00641 12.6961 1.0047C14.2267 0.998434 15.7581 0.998434 17.2904 1.0047C17.8049 1.0047 18.068 1.27461 18.1709 1.84005C18.3945 3.07257 18.6222 4.3051 18.8558 5.57947C18.9545 5.52481 19.0389 5.4821 19.119 5.43342L22.1377 3.59104C22.6632 3.27073 22.944 3.30063 23.3818 3.72086C24.4136 4.71281 25.4446 5.70503 26.4747 6.69754C26.8813 7.08874 26.9226 7.41844 26.6291 7.90188C26.0027 8.93596 25.3737 9.9726 24.7423 11.0118C24.69 11.0972 24.6411 11.1826 24.5685 11.3082C25.0543 11.3936 25.5149 11.479 25.9762 11.5644C26.7294 11.6977 27.4835 11.8267 28.2367 11.9625C28.7082 12.0479 28.9899 12.3759 28.9958 12.8687C29.0014 14.3458 29.0014 15.8229 28.9958 17.3C28.9958 17.7988 28.7293 18.1114 28.2485 18.2131C27.0991 18.4568 25.9495 18.6999 24.7996 18.9425C24.738 18.9553 24.6782 18.9792 24.5972 19.004C24.6545 19.0997 24.7035 19.1842 24.7566 19.2662C25.3796 20.2342 26.0035 21.1994 26.6282 22.1618C26.9403 22.6461 26.904 22.9775 26.5017 23.3951L23.5589 26.4504C23.1591 26.8655 22.8276 26.9099 22.3418 26.6067C21.3718 26.0031 20.4024 25.3981 19.4336 24.7916C19.3501 24.7421 19.2649 24.6909 19.1426 24.6174ZM16.6435 2.666C15.6128 2.666 14.6015 2.67283 13.591 2.66088C13.381 2.66088 13.3152 2.73006 13.2789 2.93078C13.0419 4.25556 12.7872 5.57862 12.546 6.90083C12.4018 7.69176 11.8181 7.96936 11.1425 7.55425C9.97459 6.83791 8.80669 6.11957 7.63879 5.39925L7.38576 5.24892L5.04518 7.503C5.10423 7.60379 5.15315 7.69091 5.20544 7.77632C5.95021 9.00287 6.69835 10.226 7.43805 11.4551C7.77543 12.0171 7.51565 12.6202 6.88137 12.7414C5.98732 12.9123 5.08904 13.0677 4.19246 13.23L2.65991 13.5085V16.7004C4.07437 17.0036 5.47366 17.2983 6.87041 17.6075C7.02931 17.6418 7.17791 17.7138 7.30394 17.8176C7.64132 18.1106 7.67506 18.5299 7.4119 18.9391C6.62665 20.1605 5.83887 21.3802 5.04181 22.6119L7.23478 24.901C7.34021 24.8386 7.42624 24.7899 7.51059 24.7378C8.65768 24.0204 9.80309 23.2995 10.9527 22.5871C11.5347 22.2258 12.1335 22.4966 12.2575 23.1671C12.4127 24.0383 12.5586 24.9112 12.7113 25.7833C12.8007 26.2958 12.8952 26.8083 12.9896 27.3361C14.2852 27.3361 15.552 27.3361 16.8189 27.3361C17.0078 27.3361 17.0095 27.2174 17.0331 27.0859C17.2671 25.7694 17.5027 24.4537 17.7399 23.1389C17.8538 22.5137 18.4476 22.2378 18.9899 22.5521C19.1586 22.6486 19.3155 22.7562 19.4783 22.8579L22.6353 24.8301L24.9531 22.6367C24.8781 22.5179 24.8258 22.4317 24.7709 22.3471C24.0355 21.2026 23.2966 20.0597 22.5662 18.9126C22.2052 18.3463 22.459 17.7433 23.1077 17.5981L23.348 17.5451C24.5955 17.2795 25.843 17.0156 27.0896 16.7456C27.2001 16.7217 27.3527 16.7456 27.3519 16.5415C27.346 15.5353 27.3519 14.53 27.3519 13.5179C27.2549 13.4931 27.1773 13.4675 27.0989 13.4538C25.8253 13.226 24.5516 12.9983 23.278 12.7705C22.4346 12.6227 22.174 12.0436 22.6244 11.3056C23.3475 10.1275 24.0717 8.94621 24.7971 7.7618C24.8477 7.67639 24.8932 7.59097 24.9447 7.49702L22.6083 5.24721C22.5181 5.30102 22.4396 5.34629 22.3629 5.39327C21.1624 6.12726 19.961 6.86068 18.7588 7.59354C18.1777 7.94544 17.6016 7.68835 17.4743 7.02297C17.3216 6.22606 17.1757 5.42829 17.0239 4.63138C16.8999 3.98138 16.7725 3.33138 16.6435 2.66429V2.666Z" fill="#B1B1B1"/>
<path d="M19.1426 24.6174C18.9258 25.8354 18.7158 27.0047 18.5109 28.174C18.4113 28.7438 18.1305 28.9991 17.5662 29C15.8523 29 14.1373 29 12.4212 29C11.8797 29 11.5904 28.7532 11.4934 28.2219C11.2915 27.0961 11.0916 25.9706 10.8937 24.8455C10.8827 24.7831 10.8625 24.7225 10.8372 24.6225C10.7376 24.6823 10.6558 24.7293 10.5748 24.7797L7.64048 26.6033C7.15128 26.9074 6.8198 26.8672 6.4217 26.4547C5.44667 25.4445 4.47304 24.4332 3.50083 23.4208C3.09007 22.9937 3.05802 22.658 3.37768 22.16C3.99959 21.192 4.62149 20.2257 5.2434 19.2611C5.29232 19.1851 5.33617 19.1056 5.40365 18.9937C4.88493 18.881 4.39151 18.7717 3.89641 18.6675C3.17441 18.5137 2.45242 18.3651 1.73043 18.2122C1.24882 18.1114 1 17.7997 1 17.2914C1 15.8423 1 14.3928 1 12.943C1 12.3451 1.22857 12.0692 1.81646 11.9633C2.96355 11.7566 4.11092 11.5499 5.25858 11.3432C5.30159 11.3355 5.34292 11.321 5.41462 11.3022C5.35642 11.198 5.31087 11.1117 5.26026 11.0289C4.63105 10.0039 4.00156 8.97724 3.37178 7.94886C3.04705 7.41844 3.09091 7.08447 3.54047 6.65142L6.5946 3.71403C7.02054 3.3049 7.30816 3.27329 7.81676 3.58249L11.1062 5.58972C11.2024 5.09347 11.296 4.62198 11.3846 4.14964C11.5364 3.34419 11.684 2.53703 11.8366 1.73072C11.921 1.26265 12.217 1.00641 12.6961 1.0047C14.2267 0.998434 15.7581 0.998434 17.2904 1.0047C17.8049 1.0047 18.068 1.27461 18.1709 1.84005C18.3945 3.07257 18.6222 4.3051 18.8558 5.57947C18.9545 5.52481 19.0389 5.4821 19.119 5.43342L22.1377 3.59104C22.6632 3.27073 22.944 3.30063 23.3818 3.72086C24.4136 4.71281 25.4446 5.70503 26.4747 6.69754C26.8813 7.08874 26.9226 7.41844 26.6291 7.90188C26.0027 8.93596 25.3737 9.9726 24.7423 11.0118C24.69 11.0972 24.6411 11.1826 24.5685 11.3082C25.0543 11.3936 25.5149 11.479 25.9762 11.5644C26.7294 11.6977 27.4835 11.8267 28.2367 11.9625C28.7082 12.0479 28.9899 12.3759 28.9958 12.8687C29.0014 14.3458 29.0014 15.8229 28.9958 17.3C28.9958 17.7988 28.7293 18.1114 28.2485 18.2131C27.0991 18.4568 25.9495 18.6999 24.7996 18.9425C24.738 18.9553 24.6782 18.9792 24.5972 19.004C24.6545 19.0997 24.7035 19.1842 24.7566 19.2662C25.3796 20.2342 26.0035 21.1994 26.6282 22.1618C26.9403 22.6461 26.904 22.9775 26.5017 23.3951L23.5589 26.4504C23.1591 26.8655 22.8276 26.9099 22.3418 26.6067C21.3718 26.0031 20.4024 25.3981 19.4336 24.7916C19.3501 24.7421 19.2649 24.6909 19.1426 24.6174ZM16.6435 2.666C15.6128 2.666 14.6015 2.67283 13.591 2.66088C13.381 2.66088 13.3152 2.73006 13.2789 2.93078C13.0419 4.25556 12.7872 5.57862 12.546 6.90083C12.4018 7.69176 11.8181 7.96936 11.1425 7.55425C9.97459 6.83791 8.80669 6.11957 7.63879 5.39925L7.38576 5.24892L5.04518 7.503C5.10423 7.60379 5.15315 7.69091 5.20544 7.77632C5.95021 9.00287 6.69835 10.226 7.43805 11.4551C7.77543 12.0171 7.51565 12.6202 6.88137 12.7414C5.98732 12.9123 5.08904 13.0677 4.19246 13.23L2.65991 13.5085V16.7004C4.07437 17.0036 5.47366 17.2983 6.87041 17.6075C7.02931 17.6418 7.17791 17.7138 7.30394 17.8176C7.64132 18.1106 7.67506 18.5299 7.4119 18.9391C6.62665 20.1605 5.83887 21.3802 5.04181 22.6119L7.23478 24.901C7.34021 24.8386 7.42624 24.7899 7.51059 24.7378C8.65768 24.0204 9.80309 23.2995 10.9527 22.5871C11.5347 22.2258 12.1335 22.4966 12.2575 23.1671C12.4127 24.0383 12.5586 24.9112 12.7113 25.7833C12.8007 26.2958 12.8952 26.8083 12.9896 27.3361C14.2852 27.3361 15.552 27.3361 16.8189 27.3361C17.0078 27.3361 17.0095 27.2174 17.0331 27.0859C17.2671 25.7694 17.5027 24.4537 17.7399 23.1389C17.8538 22.5137 18.4476 22.2378 18.9899 22.5521C19.1586 22.6486 19.3155 22.7562 19.4783 22.8579L22.6353 24.8301L24.9531 22.6367C24.8781 22.5179 24.8258 22.4317 24.7709 22.3471C24.0355 21.2026 23.2966 20.0597 22.5662 18.9126C22.2052 18.3463 22.459 17.7433 23.1077 17.5981L23.348 17.5451C24.5955 17.2795 25.843 17.0156 27.0896 16.7456C27.2001 16.7217 27.3527 16.7456 27.3519 16.5415C27.346 15.5353 27.3519 14.53 27.3519 13.5179C27.2549 13.4931 27.1773 13.4675 27.0989 13.4538C25.8253 13.226 24.5516 12.9983 23.278 12.7705C22.4346 12.6227 22.174 12.0436 22.6244 11.3056C23.3475 10.1275 24.0717 8.94621 24.7971 7.7618C24.8477 7.67639 24.8932 7.59097 24.9447 7.49702L22.6083 5.24721C22.5181 5.30102 22.4396 5.34629 22.3629 5.39327C21.1624 6.12726 19.961 6.86068 18.7588 7.59354C18.1777 7.94544 17.6016 7.68835 17.4743 7.02297C17.3216 6.22606 17.1757 5.42829 17.0239 4.63138C16.8999 3.98138 16.7725 3.33138 16.6435 2.66429V2.666Z" stroke="#B1B1B1" stroke-width="0.8" mask="url(#path-1-outside-1)"/>
<path d="M20.5056 15.0013C20.514 15.738 20.3779 16.469 20.1052 17.1519C19.8324 17.8349 19.4285 18.4563 18.9167 18.98C18.405 19.5038 17.7956 19.9194 17.124 20.2029C16.4524 20.4864 15.7318 20.6321 15.0041 20.6315C14.2765 20.631 13.5561 20.4842 12.8849 20.1996C12.2137 19.9151 11.605 19.4985 11.094 18.9739C10.5831 18.4494 10.1801 17.8274 9.90836 17.144C9.63665 16.4606 9.50166 15.7294 9.51122 14.9928C9.51122 11.8863 11.9218 9.44246 14.9936 9.43734C15.7172 9.43339 16.4344 9.57449 17.1039 9.85251C17.7733 10.1305 18.3818 10.54 18.8942 11.0572C19.4066 11.5744 19.8128 12.1892 20.0894 12.8662C20.3659 13.5431 20.5074 14.2688 20.5056 15.0013ZM10.4964 15.015C10.4989 15.9173 10.7653 16.7987 11.262 17.548C11.7587 18.2973 12.4635 18.8808 13.2874 19.225C14.1114 19.5693 15.0175 19.6587 15.8916 19.4822C16.7657 19.3057 17.5686 18.871 18.199 18.2331C18.8294 17.5951 19.259 16.7824 19.4337 15.8976C19.6084 15.0127 19.5204 14.0953 19.1807 13.261C18.841 12.4268 18.2648 11.7131 17.5249 11.2099C16.785 10.7067 15.9145 10.4367 15.0232 10.4338C14.4275 10.4278 13.8367 10.542 13.2852 10.7698C12.7336 10.9976 12.2325 11.3344 11.811 11.7605C11.3896 12.1867 11.0562 12.6936 10.8305 13.2516C10.6048 13.8097 10.4912 14.4077 10.4964 15.0107V15.015Z" fill="#B1B1B1" stroke="#B1B1B1"/>
</svg>
