<svg width="46" height="46" viewBox="0 0 46 46" fill="none" xmlns="http://www.w3.org/2000/svg">
<path d="M37.7083 14.7197H9.29167C8.94937 14.7187 8.62136 14.5751 8.37932 14.3203C8.13729 14.0655 8.00091 13.7202 8 13.3598C8.00091 12.9995 8.13729 12.6542 8.37932 12.3993C8.62136 12.1445 8.94937 12.001 9.29167 12H37.7083C38.0506 12.001 38.3786 12.1445 38.6207 12.3993C38.8627 12.6542 38.9991 12.9995 39 13.3598C38.9991 13.7202 38.8627 14.0655 38.6207 14.3203C38.3786 14.5751 38.0506 14.7187 37.7083 14.7197Z" fill="#4B7BE5"/>
<path d="M37.7083 24.3603H9.29167C8.94937 24.3593 8.62136 24.2158 8.37932 23.961C8.13729 23.7061 8.00091 23.3608 8 23.0005C8.00091 22.6401 8.13729 22.2948 8.37932 22.04C8.62136 21.7852 8.94937 21.6416 9.29167 21.6406H37.7083C38.0506 21.6416 38.3786 21.7852 38.6207 22.04C38.8627 22.2948 38.9991 22.6401 39 23.0005C38.9991 23.3608 38.8627 23.7061 38.6207 23.961C38.3786 24.2158 38.0506 24.3593 37.7083 24.3603Z" fill="#4B7BE5"/>
<path d="M37.7083 34.0009H9.29167C8.94937 34 8.62136 33.8564 8.37932 33.6016C8.13729 33.3468 8.00091 33.0014 8 32.6411C8.00091 32.2807 8.13729 31.9354 8.37932 31.6806C8.62136 31.4258 8.94937 31.2822 9.29167 31.2812H37.7083C38.0506 31.2822 38.3786 31.4258 38.6207 31.6806C38.8627 31.9354 38.9991 32.2807 39 32.6411C38.9991 33.0014 38.8627 33.3468 38.6207 33.6016C38.3786 33.8564 38.0506 34 37.7083 34.0009Z" fill="#4B7BE5"/>
</svg>
