<svg width="27" height="27" viewBox="0 0 27 27" fill="none" xmlns="http://www.w3.org/2000/svg">
<path d="M19.6352 14.85C20.6473 14.85 21.538 14.2965 21.9968 13.4595L26.828 4.698C27.3274 3.807 26.6796 2.7 25.654 2.7H5.68139L4.41286 0H0V2.7H2.699L7.55719 12.9465L5.73537 16.2405C4.75024 18.0495 6.04575 20.25 8.09699 20.25H24.291V17.55H8.09699L9.58144 14.85H19.6352ZM6.96341 5.4H23.3598L19.6352 12.15H10.1617L6.96341 5.4ZM8.09699 21.6C6.61254 21.6 5.41149 22.815 5.41149 24.3C5.41149 25.785 6.61254 27 8.09699 27C9.58144 27 10.796 25.785 10.796 24.3C10.796 22.815 9.58144 21.6 8.09699 21.6ZM21.592 21.6C20.1075 21.6 18.9065 22.815 18.9065 24.3C18.9065 25.785 20.1075 27 21.592 27C23.0764 27 24.291 25.785 24.291 24.3C24.291 22.815 23.0764 21.6 21.592 21.6Z" fill="#ffffff"/>
</svg>
