<svg width="28" height="27" viewBox="0 0 28 27" fill="none" xmlns="http://www.w3.org/2000/svg">
<path d="M26.5263 6.42V3C26.5263 1.35 25.2 0 23.5789 0H2.94737C1.31158 0 0 1.35 0 3V24C0 25.65 1.31158 27 2.94737 27H23.5789C25.2 27 26.5263 25.65 26.5263 24V20.58C27.3958 20.055 28 19.11 28 18V9C28 7.89 27.3958 6.945 26.5263 6.42ZM25.0526 9V18H14.7368V9H25.0526ZM2.94737 24V3H23.5789V6H14.7368C13.1158 6 11.7895 7.35 11.7895 9V18C11.7895 19.65 13.1158 21 14.7368 21H23.5789V24H2.94737Z" fill="#ffffff"/>
</svg>