<svg width="30" height="30" viewBox="0 0 30 30" fill="none" xmlns="http://www.w3.org/2000/svg">
<path d="M9.02945 9.6443L9.02948 9.6443L10.4484 9.71571C14.4111 4.72489 20.2761 1.73289 27.8679 0.808656L27.868 0.80864C28.2307 0.764716 28.5936 0.889805 28.8519 1.14832M9.02945 9.6443L16.7532 26.6945L19.0315 24.4161L19.0316 24.416C19.9397 23.506 20.4208 22.2546 20.3555 20.9706C20.3555 20.9705 20.3555 20.9705 20.3555 20.9705L20.2841 19.5517C25.2779 15.5891 28.2675 9.72409 29.1916 2.13238L29.1916 2.13226C29.2356 1.7695 29.1105 1.40663 28.8519 1.14832M9.02945 9.6443C7.74572 9.57987 6.49454 10.061 5.58415 10.9683L5.58391 10.9686M9.02945 9.6443L5.58391 10.9686M28.8519 1.14832C28.852 1.14834 28.852 1.14836 28.852 1.14839L28.7105 1.28974L28.8519 1.14825C28.8519 1.14828 28.8519 1.1483 28.8519 1.14832ZM5.58391 10.9686L3.30558 13.2469L5.58391 10.9686ZM6.24819 18.5123L6.2482 18.5122C6.4147 17.75 6.62434 16.9978 6.87595 16.2595L3.63853 14.9188C3.63851 14.9187 3.63849 14.9187 3.63847 14.9187L3.63829 14.9187L3.71482 14.7339C3.45999 14.6287 3.27456 14.403 3.22077 14.1328L6.24819 18.5123ZM6.24819 18.5123C6.19096 18.7748 6.2713 19.0482 6.4611 19.238L6.60253 19.0966M6.24819 18.5123L6.60253 19.0966M6.60253 19.0966L6.46111 19.238L10.759 23.536L6.60253 19.0966ZM11.4849 23.7488L11.4849 23.7488C11.2227 23.8059 10.9492 23.7263 10.7591 23.5361L11.4849 23.7488ZM11.4849 23.7488C12.2472 23.5822 12.9992 23.3726 13.7377 23.121M11.4849 23.7488L13.7377 23.121M18.8924 19.2117C18.8826 19.018 18.9684 18.832 19.122 18.7141C23.8957 15.066 26.8063 9.58099 27.7677 2.41044C27.7768 2.34222 27.7858 2.27384 27.7946 2.20531C27.7261 2.2141 27.6577 2.22307 27.5895 2.23222C27.5805 2.30087 27.5715 2.36937 27.5622 2.43771M18.8924 19.2117L6.71412 12.0967C7.30867 11.5033 8.12599 11.1888 8.96483 11.2305L10.7926 11.3248L10.7926 11.325L10.8018 11.325C11.0573 11.3264 11.2975 11.2041 11.4465 10.9968C15.0467 6.28711 20.4605 3.40071 27.5622 2.43771M18.8924 19.2117L18.9867 21.0398L18.8924 19.2117ZM27.5622 2.43771C26.599 9.54068 23.7118 14.9548 19.0006 18.5552L19.0002 18.5555C18.7944 18.7134 18.6795 18.9626 18.6927 19.2218L18.6927 19.222L18.7869 21.0498L27.5622 2.43771ZM5.02103 13.7898L8.18912 15.1057L8.1893 15.1058C8.58289 15.2697 8.77523 15.7169 8.62307 16.1154C8.33268 16.8763 8.09043 17.6544 7.89738 18.4457L11.5658 22.1142C12.3569 21.9213 13.1351 21.6789 13.8961 21.3887L5.02103 13.7898ZM5.02103 13.7898L6.71399 12.0968L5.02103 13.7898ZM20.3499 12.7706C21.32 12.7714 22.2356 12.3208 22.8269 11.5514L22.8269 11.5513C23.418 10.7819 23.6176 9.78118 23.3667 8.84367C23.1159 7.90632 22.4432 7.13908 21.5467 6.76765C20.6504 6.39618 19.6321 6.46312 18.7919 6.94843C17.9515 7.43377 17.385 8.28244 17.2589 9.24453C17.1327 10.2066 17.4613 11.1728 18.1478 11.8582M20.3499 12.7706C19.5238 12.7707 18.7317 12.4425 18.1478 11.8582M20.3499 12.7706C20.3499 12.7706 20.35 12.7706 20.35 12.7706L20.35 12.5706L20.3498 12.7706C20.3498 12.7706 20.3498 12.7706 20.3499 12.7706ZM18.1478 11.8582C18.1478 11.8582 18.1478 11.8582 18.1477 11.8581L18.2892 11.7168L18.1479 11.8583C18.1479 11.8583 18.1479 11.8583 18.1478 11.8582ZM13.7377 23.121L15.0813 26.3615L13.7377 23.121ZM15.8282 26.9754C15.4925 26.9086 15.2121 26.6784 15.0814 26.3618L15.8282 26.9754ZM15.8282 26.9754C16.1639 27.0423 16.5111 26.937 16.753 26.6946L15.8282 26.9754ZM18.787 21.0501C18.829 21.889 18.5145 22.7062 17.9208 23.3005C17.9208 23.3005 17.9208 23.3005 17.9207 23.3005L16.2275 24.9938L14.9058 21.8225C14.9058 21.8225 14.9058 21.8224 14.9058 21.8224C14.7418 21.4287 14.2949 21.2363 13.8963 21.3887L18.787 21.0501ZM19.2632 8.5588L19.2635 8.55851C19.6031 8.21987 20.0807 8.05846 20.5561 8.12171L20.5561 8.12172C21.0315 8.1848 21.4504 8.46545 21.6896 8.88093L21.6896 8.88099C21.929 9.29649 21.9614 9.79963 21.7776 10.2425C21.5936 10.6855 21.2143 11.0176 20.7509 11.1413L20.7509 11.1413C20.2878 11.2651 19.7934 11.1664 19.4131 10.8743C19.0328 10.5822 18.8099 10.1297 18.8101 9.65021L18.8101 9.64977C18.8094 9.24016 18.9725 8.84748 19.2632 8.5588ZM1.80893 29.1997L1.80893 29.1997L1.81318 29.1997C6.60451 29.1159 8.95331 26.5781 9.74923 25.4752L9.74959 25.4747C9.97678 25.1579 9.98276 24.733 9.76452 24.4097C9.54648 24.0864 9.15053 23.9331 8.77172 24.0245L8.77172 24.0245L8.7683 24.0254C8.17529 24.1797 7.55859 24.2219 6.94973 24.15C6.66774 24.1157 6.4052 23.9878 6.20417 23.7868C6.00332 23.5859 5.87547 23.3237 5.84107 23.0419C5.77332 22.4356 5.81836 21.822 5.97419 21.2322L5.97474 21.23C6.07063 20.8499 5.91886 20.4503 5.59451 20.2299C5.27011 20.0093 4.84273 20.0153 4.52466 20.2445L4.52403 20.245C3.42491 21.0436 0.883861 23.3892 0.800112 28.1722L0.800102 28.1729C0.796265 28.4433 0.900637 28.704 1.08999 28.897L1.09009 28.8971C1.27983 29.0901 1.53873 29.1987 1.80893 29.1997ZM6.78175 25.7158C6.96939 25.7382 7.15783 25.7523 7.34654 25.7582C6.35465 26.5742 4.7746 27.4302 2.41431 27.5944C2.57667 25.2269 3.43644 23.6419 4.25272 22.6505C4.25834 22.8442 4.27276 23.0376 4.29594 23.2302L4.29596 23.2303C4.3726 23.8629 4.65927 24.4515 5.10981 24.9019L5.10983 24.902C5.56033 25.3522 6.14884 25.6389 6.78129 25.7157L6.78175 25.7158Z" fill="white" stroke="white" stroke-width="0.4"/>
</svg>
