<svg width="20" height="22" viewBox="0 0 20 22" fill="none" xmlns="http://www.w3.org/2000/svg">
<path fill-rule="evenodd" clip-rule="evenodd" d="M0.394545 0.3369C0.144003 0.602699 0 1.0118 0 1.5434V20.4521C0 20.9837 0.144003 21.3928 0.403911 21.6494L0.471815 21.706L11.2053 11.111V10.8729L0.462448 0.280273L0.394545 0.3369Z" fill="url(#paint0_linear_9641_46259)"/>
<path fill-rule="evenodd" clip-rule="evenodd" d="M14.7755 14.6574L11.1953 11.1223V10.875L14.7767 7.33984L14.8539 7.38723L19.0897 9.76324C20.3026 10.4381 20.3026 11.5499 19.0897 12.234L14.8539 14.61C14.8528 14.61 14.7755 14.6574 14.7755 14.6574Z" fill="url(#paint1_linear_9641_46259)"/>
<path fill-rule="evenodd" clip-rule="evenodd" d="M14.8534 14.6094L11.1959 10.998L0.394531 21.6601C0.789076 22.0784 1.45289 22.1258 2.19515 21.7167L14.8534 14.6094Z" fill="url(#paint2_linear_9641_46259)"/>
<path fill-rule="evenodd" clip-rule="evenodd" d="M14.8534 7.3878L2.19515 0.289808C1.45407 -0.128537 0.789076 -0.0719103 0.394531 0.346434L11.1948 10.998L14.8534 7.3878Z" fill="url(#paint3_linear_9641_46259)"/>
<path opacity="0.2" fill-rule="evenodd" clip-rule="evenodd" d="M14.7765 14.5332L2.20492 21.5838C1.50247 21.9825 0.876111 21.9548 0.472201 21.5931L0.404297 21.6601L0.472201 21.7167C0.876111 22.0773 1.50247 22.1062 2.20492 21.7075L14.8631 14.6095L14.7765 14.5332Z" fill="black"/>
<path opacity="0.12" fill-rule="evenodd" clip-rule="evenodd" d="M19.089 12.1098L14.7666 14.5332L14.8439 14.6094L19.0797 12.2334C19.6861 11.8914 19.9847 11.4453 19.9847 10.998C19.946 11.4071 19.6381 11.7966 19.089 12.1098Z" fill="black"/>
<path opacity="0.25" fill-rule="evenodd" clip-rule="evenodd" d="M2.19517 0.413626L19.0892 9.88763C19.6383 10.1916 19.9462 10.5903 19.9942 10.9994C19.9942 10.5533 19.6956 10.106 19.0892 9.76398L2.19517 0.289972C0.982264 -0.394172 0 0.175563 0 1.54385V1.6675C0 0.299217 0.982264 -0.261272 2.19517 0.413626Z" fill="white"/>
<defs>
<linearGradient id="paint0_linear_9641_46259" x1="10.2415" y1="1.34015" x2="-6.92177" y2="5.97309" gradientUnits="userSpaceOnUse">
<stop stop-color="#00A0FF"/>
<stop offset="0.007" stop-color="#00A1FF"/>
<stop offset="0.26" stop-color="#00BEFF"/>
<stop offset="0.512" stop-color="#00D2FF"/>
<stop offset="0.76" stop-color="#00DFFF"/>
<stop offset="1" stop-color="#00E3FF"/>
</linearGradient>
<linearGradient id="paint1_linear_9641_46259" x1="20.668" y1="10.9991" x2="-0.295408" y2="10.9991" gradientUnits="userSpaceOnUse">
<stop stop-color="#FFE000"/>
<stop offset="0.409" stop-color="#FFBD00"/>
<stop offset="0.775" stop-color="#FFA500"/>
<stop offset="1" stop-color="#FF9C00"/>
</linearGradient>
<linearGradient id="paint2_linear_9641_46259" x1="12.8646" y1="12.9627" x2="-0.674866" y2="36.0483" gradientUnits="userSpaceOnUse">
<stop stop-color="#FF3A44"/>
<stop offset="1" stop-color="#C31162"/>
</linearGradient>
<linearGradient id="paint3_linear_9641_46259" x1="-2.32445" y1="-5.95277" x2="3.71584" y2="4.35753" gradientUnits="userSpaceOnUse">
<stop stop-color="#32A071"/>
<stop offset="0.069" stop-color="#2DA771"/>
<stop offset="0.476" stop-color="#15CF74"/>
<stop offset="0.801" stop-color="#06E775"/>
<stop offset="1" stop-color="#00F076"/>
</linearGradient>
</defs>
</svg>
