<svg width="29" height="29" viewBox="0 0 29 29" fill="none" xmlns="http://www.w3.org/2000/svg">
<path d="M20.7535 16.4329L24.1418 14.6113L24.1483 14.6079L26.9437 13.1049L24.2622 10.4234L15.1603 15.3039L17.8647 17.9858L20.7535 16.4329ZM20.7535 16.4329C20.6594 16.483 20.5914 16.5668 20.5611 16.6681C20.5308 16.7694 20.5419 16.8764 20.5924 16.9692C20.6626 17.0969 20.7971 17.176 20.9433 17.176C21.0092 17.176 21.0751 17.1596 21.1331 17.1285M20.7535 16.4329C20.8115 16.4012 20.8768 16.3855 20.9422 16.3855C21.089 16.3855 21.2235 16.4646 21.2936 16.5927C21.3441 16.6855 21.3553 16.792 21.325 16.8933C21.2947 16.9945 21.2267 17.0784 21.1331 17.1285M21.1331 17.1285L23.9362 15.6216V22.0954L14.8987 26.9412V16.1629L17.5111 18.7542C17.5867 18.8291 17.6866 18.8703 17.7929 18.8703C17.8588 18.8703 17.9242 18.8534 17.9827 18.8223L21.1331 17.1285ZM24.897 9.93526L27.8844 6.94791C27.9728 6.85942 28.014 6.73486 27.9957 6.61168C27.9774 6.48844 27.9016 6.38096 27.7913 6.32164L17.9828 1.0483C17.8277 0.964932 17.6357 0.992512 17.5109 1.11633L14.4998 4.10315L11.4889 1.11654C11.4139 1.04166 11.3134 1 11.2076 1C11.1412 1 11.0758 1.01682 11.0173 1.04852L7.86691 2.74171C7.77334 2.79234 7.70529 2.87566 7.67499 2.97691C7.64469 3.07816 7.65585 3.18521 7.70636 3.27802C7.77653 3.40564 7.91103 3.48532 8.05723 3.48532C8.12316 3.48532 8.18908 3.46844 8.24703 3.43733L11.1353 1.88436L13.8397 4.5669L4.73782 9.44683L2.05631 6.76529L8.43682 3.33451C8.53092 3.28441 8.59897 3.20109 8.62927 3.09984C8.65958 2.99859 8.64841 2.89154 8.59737 2.79873C8.52773 2.67111 8.39323 2.59148 8.24703 2.59148C8.1811 2.59148 8.11571 2.60831 8.05723 2.63942L1.20888 6.32185C1.09884 6.38033 1.02228 6.48902 1.00421 6.61189C0.98613 6.73418 1.02765 6.85969 1.11585 6.9478L4.10294 9.93537L1.11564 12.9227C1.02723 13.0112 0.985971 13.1357 1.00426 13.2589C1.0226 13.3821 1.09836 13.4896 1.20873 13.5489L4.26631 15.1928V22.3301C4.26626 22.3437 4.26695 22.3573 4.26833 22.3708C4.26892 22.3765 4.27003 22.3821 4.27083 22.3878C4.27184 22.3947 4.27264 22.4016 4.27402 22.4084C4.27572 22.417 4.27806 22.4253 4.28029 22.4337C4.28136 22.4376 4.28215 22.4415 4.28332 22.4453C4.28593 22.4538 4.28907 22.4621 4.2922 22.4704C4.29358 22.4741 4.29475 22.4779 4.2963 22.4815C4.29938 22.489 4.30294 22.4961 4.30645 22.5033C4.30863 22.5078 4.3106 22.5123 4.31294 22.5166C4.31613 22.5225 4.31969 22.5282 4.32309 22.5339C4.32639 22.5393 4.32952 22.5448 4.33303 22.5501C4.33596 22.5545 4.33925 22.5587 4.34239 22.5629C4.34691 22.5691 4.35137 22.5754 4.35626 22.5814C4.35898 22.5847 4.36201 22.5878 4.36482 22.591C4.37046 22.5974 4.37609 22.6038 4.38215 22.6099C4.38529 22.613 4.38875 22.6159 4.39199 22.619C4.39805 22.6246 4.404 22.6303 4.41044 22.6356C4.41666 22.6407 4.42325 22.6454 4.42974 22.65C4.43356 22.6528 4.43713 22.6558 4.44106 22.6585C4.45249 22.6661 4.46435 22.6732 4.47657 22.6798L14.3083 27.9514C14.3225 27.9591 14.3373 27.9658 14.3524 27.9718C14.3557 27.9731 14.3591 27.9742 14.3624 27.9754C14.3735 27.9794 14.3847 27.983 14.3962 27.986C14.4004 27.9871 14.4045 27.9882 14.4086 27.9892C14.4198 27.9918 14.4311 27.9938 14.4426 27.9955C14.4465 27.996 14.4503 27.9967 14.4543 27.9972C14.4693 27.9989 14.4845 28 14.4999 28C14.5154 28 14.5306 27.9989 14.5456 27.9972C14.5495 27.9967 14.5534 27.996 14.5574 27.9955C14.5688 27.9938 14.5802 27.9918 14.5913 27.9892C14.5954 27.9882 14.5996 27.9871 14.6037 27.986C14.6152 27.983 14.6264 27.9794 14.6374 27.9754C14.6408 27.9742 14.6441 27.9731 14.6474 27.9718C14.6625 27.9658 14.6773 27.9591 14.6914 27.9514L24.5232 22.6798C24.5354 22.6732 24.5473 22.6661 24.5587 22.6585C24.5627 22.6558 24.5663 22.6528 24.5701 22.65C24.5766 22.6453 24.5832 22.6407 24.5893 22.6356C24.5958 22.6303 24.6017 22.6246 24.6078 22.619C24.611 22.6159 24.6145 22.6131 24.6176 22.6099C24.6237 22.6038 24.6293 22.5974 24.635 22.591C24.6378 22.5878 24.6408 22.5847 24.6435 22.5814C24.6484 22.5754 24.6529 22.5691 24.6574 22.5629C24.6605 22.5587 24.6638 22.5545 24.6668 22.5501C24.6703 22.5448 24.6734 22.5394 24.6767 22.5339C24.6802 22.5282 24.6837 22.5225 24.6869 22.5166C24.6892 22.5123 24.6912 22.5078 24.6933 22.5033C24.6968 22.4961 24.7004 22.489 24.7035 22.4815C24.705 22.4779 24.7062 22.4741 24.7076 22.4704C24.7107 22.4622 24.7139 22.4539 24.7165 22.4453C24.7176 22.4415 24.7184 22.4376 24.7195 22.4337C24.7217 22.4253 24.7241 22.417 24.7258 22.4084C24.7272 22.4016 24.7279 22.3947 24.729 22.3878C24.7298 22.3821 24.7309 22.3765 24.7315 22.3708C24.7328 22.3573 24.7335 22.3437 24.7335 22.3301V15.1928L27.7909 13.549C27.901 13.4899 27.9775 13.3813 27.9956 13.2589C28.0137 13.1361 27.9722 13.0106 27.8845 12.9225L24.897 9.93526ZM17.8644 1.88441L26.9435 6.76555L24.262 9.44699L15.1602 4.56674L17.8644 1.88441ZM4.85329 14.6087L2.05647 13.105L4.73792 10.4236L13.8398 15.3038L11.1356 17.9862L4.85669 14.6105L4.85329 14.6087ZM14.1013 26.9411L5.06371 22.0953V15.6215L11.0172 18.8223C11.077 18.8544 11.1423 18.87 11.207 18.87C11.3103 18.87 11.4124 18.8303 11.4891 18.7542L14.1013 16.1631V26.9411ZM14.5 14.7587L5.50438 9.93537L14.5002 5.11202L23.4958 9.93531L14.5 14.7587Z" stroke="#ffffff" stroke-width="1.6"/>
</svg>
