<svg width="28" height="24" viewBox="0 0 28 24" fill="none" xmlns="http://www.w3.org/2000/svg">
<path d="M27.8615 7.85333L26.391 2.02667C26.0829 0.826667 24.9905 0 23.7161 0H4.26386C3.00346 0 1.8971 0.84 1.60301 2.02667L0.132532 7.85333C-0.203576 9.21333 0.104524 10.6 1.00081 11.6933C1.11285 11.84 1.2669 11.9467 1.39294 12.08V21.3333C1.39294 22.8 2.65334 24 4.19384 24H23.8001C25.3406 24 26.601 22.8 26.601 21.3333V12.08C26.7271 11.96 26.8811 11.84 26.9932 11.7067C27.8895 10.6133 28.2116 9.21333 27.8615 7.85333ZM23.6741 2.65333L25.1446 8.48C25.2846 9.04 25.1586 9.6 24.7945 10.04C24.5984 10.28 24.1783 10.6667 23.478 10.6667C22.6238 10.6667 21.8815 10.0133 21.7835 9.14667L20.9712 2.66667L23.6741 2.65333ZM15.3974 2.66667H18.1423L18.8986 8.69333C18.9686 9.21333 18.8005 9.73333 18.4364 10.12C18.1283 10.4667 17.6802 10.6667 17.106 10.6667C16.1677 10.6667 15.3974 9.88 15.3974 8.92V2.66667ZM9.08141 8.69333L9.85166 2.66667H12.5965V8.92C12.5965 9.88 11.8263 10.6667 10.79 10.6667C10.3138 10.6667 9.87967 10.4667 9.54356 10.12C9.19345 9.73333 9.02539 9.21333 9.08141 8.69333ZM2.84941 8.48L4.26386 2.66667H7.02275L6.21049 9.14667C6.09845 10.0133 5.37022 10.6667 4.51594 10.6667C3.82972 10.6667 3.39558 10.28 3.21352 10.04C2.8354 9.61333 2.70936 9.04 2.84941 8.48ZM4.19384 21.3333V13.2933C4.30588 13.3067 4.40391 13.3333 4.51594 13.3333C5.73433 13.3333 6.84069 12.8533 7.65295 12.0667C8.49322 12.8667 9.61358 13.3333 10.888 13.3333C12.1064 13.3333 13.1987 12.8533 14.011 12.0933C14.8373 12.8533 15.9576 13.3333 17.218 13.3333C18.3944 13.3333 19.5148 12.8667 20.355 12.0667C21.1673 12.8533 22.2737 13.3333 23.4921 13.3333C23.6041 13.3333 23.7021 13.3067 23.8142 13.2933V21.3333H4.19384Z" fill="#ffffff"/>
</svg>
