<svg width="90" height="90" viewBox="0 0 90 90" fill="none" xmlns="http://www.w3.org/2000/svg">
<rect width="90" height="90" rx="6" fill="#8686FD"/>
<path d="M41.9102 36.9061L46.8395 35.9161V32.1431L41.9102 33.1331V36.9061Z" fill="white"/>
<path d="M41.918 54.2765H46.8444V38.3125H41.918V54.2765Z" fill="white"/>
<path d="M21.0219 49.6149C21.0219 44.1039 13.5174 45.0939 13.5174 43.0093L13.5203 43.0148C13.5203 42.2943 14.1626 42.0138 15.188 42.0028C16.6789 42.0028 18.5793 42.4291 20.0702 43.1908V38.8348C18.4467 38.2298 16.8233 37.9905 15.1998 37.9905C11.225 37.9905 8.57031 39.9485 8.57031 43.2211C8.57031 48.3472 16.0307 47.5167 16.0307 49.7249C16.0307 50.5802 15.244 50.8607 14.1479 50.8607C12.5244 50.8607 10.4236 50.2255 8.77951 49.3784V53.5475C10.6004 54.2845 12.4478 54.598 14.1391 54.598C18.214 54.598 21.0219 52.9535 21.0219 49.6149ZM57.0921 37.996C55.171 37.996 53.9335 38.8513 53.247 39.4453L52.9907 38.2958H48.6712V59.6416L53.577 58.6626L53.5888 53.4293C54.2959 53.9188 55.3449 54.5953 57.0597 54.5953C60.5777 54.5953 63.7805 52.178 63.7805 46.3011C63.7893 40.9248 60.5424 37.996 57.0921 37.996ZM55.9224 50.7617C54.7733 50.7617 54.0867 50.3685 53.6124 49.8872L53.58 43.0066C54.0867 42.4758 54.7939 42.0908 55.9224 42.0908C57.7138 42.0908 58.9483 43.9883 58.9483 46.4056C58.9601 48.8944 57.7462 50.7617 55.9224 50.7617ZM72.1925 37.996C67.5283 37.996 64.685 41.7361 64.685 46.4496C64.685 52.024 68.0351 54.598 72.8083 54.598C75.1537 54.598 76.9098 54.0975 78.2475 53.399V49.9174C76.9098 50.5527 75.3747 50.9377 73.43 50.9377C71.5149 50.9377 69.8383 50.3025 69.6174 48.1354H79.2198C79.2433 47.8934 79.2846 46.9254 79.2846 46.4799C79.2846 41.7388 76.8538 37.996 72.1925 37.996ZM69.5702 44.7281C69.5702 42.6436 70.9315 41.7691 72.1572 41.7691C73.3623 41.7691 74.644 42.6436 74.644 44.7281H69.5702ZM30.5271 42.2476V38.3095H26.8028L26.791 34.2944L22.0031 35.2542L21.9795 50.0935C21.9795 52.8352 24.1687 54.6063 27.0768 54.6063C28.6915 54.6063 29.873 54.323 30.5271 53.9903V50.4702C29.8966 50.7095 26.7999 51.562 26.7999 48.8339V42.2476H30.5271ZM40.7365 42.5611V38.3095C40.0735 38.0895 37.7871 37.6852 36.638 39.6763L36.3404 38.3095H32.0975V54.2735H36.9916V43.5291C38.1525 42.0936 40.1089 42.3741 40.7365 42.5611Z" fill="white"/>
<path d="M46.8444 45.8911H41.918V54.2733H46.8444V45.8911Z" fill="white"/>
<path d="M19.0368 45.8911H9.54342C11.5647 48.1269 16.0285 48.0141 16.0285 49.7219C16.0285 50.5772 15.2418 50.8577 14.1457 50.8577C12.5223 50.8577 10.4215 50.2224 8.77734 49.3754V53.5445C10.5982 54.2815 12.4456 54.595 14.1369 54.595C18.2118 54.595 21.0227 52.9477 21.0227 49.6119C21.0198 47.7584 20.1682 46.6391 19.0368 45.8911ZM63.7695 45.8911H58.9285C58.9403 46.0589 58.9462 46.2294 58.9462 46.4026C58.958 48.8942 57.7411 50.7587 55.9202 50.7587C54.7711 50.7587 54.0846 50.3627 53.6102 49.8842L53.5925 45.8911H48.672V59.6413L53.5778 58.6623L53.5896 53.429C54.2967 53.9185 55.3456 54.595 57.0605 54.595C60.5785 54.595 63.7813 52.1777 63.7813 46.3009C63.7783 46.1634 63.7754 46.0259 63.7695 45.8911ZM79.2677 45.8911H64.6947C64.6858 46.0754 64.6799 46.2624 64.6799 46.4494C64.6799 52.0237 68.03 54.5978 72.8032 54.5978C75.1486 54.5978 76.9047 54.0973 78.2423 53.3987V49.9172C76.9047 50.5524 75.3696 50.9374 73.4249 50.9374C71.5098 50.9374 69.8332 50.3022 69.6123 48.1352H79.2147C79.2382 47.8931 79.2795 46.9251 79.2795 46.4796H79.2824C79.2824 46.2816 79.2765 46.0864 79.2677 45.8911ZM26.8006 45.8911H21.9862L21.9803 50.0932C21.9803 52.835 24.1695 54.606 27.0776 54.606C28.6923 54.606 29.8738 54.3228 30.5279 53.99V50.4699C30.2598 50.5717 29.5408 50.7862 28.8072 50.7862C27.8201 50.7862 26.8006 50.3984 26.8006 48.8337V45.8911Z" fill="white"/>
<path d="M36.9926 45.8911H32.1016V54.2733H36.9926V45.8911Z" fill="white"/>
</svg>
