<svg width="30" height="23" viewBox="0 0 30 23" fill="none" xmlns="http://www.w3.org/2000/svg">
<path d="M29 9.08888V14.1748C28.9815 14.3908 28.9597 14.6069 28.9453 14.8236C28.8667 16.0116 28.8558 17.2025 28.5687 18.3735C28.0758 20.3825 26.7305 21.6499 24.7795 21.8386C23.7377 21.9391 22.6911 22.0177 21.6459 22.0389C18.714 22.0977 15.7807 22.1756 12.8494 22.1421C10.3659 22.1134 7.879 21.9986 5.40166 21.8119C3.16563 21.6431 1.85107 20.4106 1.39922 18.2128C1.23857 17.4328 1.19004 16.6282 1.11074 15.8325C1.05537 15.2816 1.03555 14.7272 1 14.1748V9.08888C1.01846 8.8633 1.03965 8.63771 1.054 8.41144C1.13262 7.21379 1.13672 6.01271 1.43887 4.8342C1.91738 2.98849 3.0043 1.74641 4.91289 1.41623C5.98408 1.23098 7.0874 1.21115 8.17842 1.1674C11.5561 1.02453 14.9351 0.938397 18.3154 1.05324C20.3819 1.1216 22.4498 1.18996 24.5115 1.33283C26.5944 1.47707 28.1346 2.68771 28.57 4.88752C28.732 5.70783 28.8011 6.54318 28.8879 7.37375C28.9467 7.94387 28.9638 8.5174 29 9.08888ZM15.6139 2.60637C13.0388 2.66857 11.0707 2.70275 9.10332 2.76838C7.91113 2.80871 6.71758 2.86613 5.52949 2.97346C4.39609 3.07599 3.57578 3.63517 3.18203 4.75969C2.89492 5.58 2.80537 6.4256 2.75684 7.28078C2.58366 10.1651 2.58617 13.0572 2.76436 15.9412C2.82039 16.6941 2.92774 17.4424 3.08564 18.1807C3.18066 18.6489 3.37891 19.0946 3.74326 19.446C4.23613 19.9211 4.84316 20.1221 5.496 20.185C6.45303 20.2773 7.41963 20.3586 8.3835 20.3969C12.792 20.5733 17.2019 20.6143 21.6097 20.4051C22.6651 20.3552 23.7233 20.308 24.7706 20.1836C25.7242 20.0701 26.4023 19.5397 26.7619 18.6113C27.1078 17.7227 27.1946 16.7937 27.2493 15.8558C27.3923 13.3624 27.4078 10.8633 27.2958 8.36838C27.2466 7.25207 27.2541 6.12482 26.9273 5.03791C26.7551 4.46437 26.5288 3.93254 26.0236 3.55109C25.4255 3.09992 24.7364 2.95637 24.0221 2.92697C21.0177 2.79982 18.0133 2.6966 15.6139 2.60637Z" fill="#B1B1B1" stroke="#B1B1B1" stroke-miterlimit="10"/>
<path d="M12.0013 11.2919C12.0013 10.2255 12.0013 9.15911 12.0013 8.09339C12.0047 7.05091 12.8715 6.52112 13.7841 7.01946C15.7836 8.10569 17.777 9.20286 19.7737 10.2939C20.1894 10.5215 20.4484 10.8565 20.4498 11.3384C20.4498 11.8313 20.1859 12.171 19.7587 12.4C17.7619 13.4712 15.7686 14.5492 13.7691 15.6163C12.8681 16.0948 12.0054 15.5698 12.002 14.5451C11.9985 13.4637 12.0013 12.3761 12.0013 11.2919ZM13.6576 13.8164L18.265 11.3398L13.6576 8.81868V13.8164Z" fill="#B1B1B1" stroke="#B1B1B1" stroke-miterlimit="10"/>
</svg>
