<svg width="42" height="42" viewBox="0 0 42 42" fill="none" xmlns="http://www.w3.org/2000/svg">
<path d="M7.87418 32.6162C6.43031 32.6162 5.24927 33.7975 5.24927 35.2411C5.24927 35.4381 6.16804 35.9629 7.87418 35.9629C9.58054 35.9629 10.4991 35.4378 10.4991 35.2411C10.4991 33.7972 9.31781 32.6162 7.87418 32.6162Z" fill="black"/>
<path d="M8.85897 16.5378C8.85897 17.0813 8.41817 17.5222 7.87461 17.5222C7.33078 17.5222 6.89001 17.0814 6.89001 16.5378C6.89001 15.994 7.33081 15.5532 7.87461 15.5532C8.41813 15.5532 8.85897 15.994 8.85897 16.5378Z" fill="black"/>
<path d="M6.956 0.394043L0.393188 6.95678H6.956V0.394043Z" fill="black"/>
<path d="M8.85897 30.3188C8.85897 30.8626 8.41817 31.3032 7.87461 31.3032C7.33078 31.3032 6.89001 30.8627 6.89001 30.3188C6.89001 29.7753 7.33081 29.3345 7.87461 29.3345C8.41813 29.3345 8.85897 29.7753 8.85897 30.3188Z" fill="black"/>
<path d="M7.87418 18.835C6.43031 18.835 5.24927 20.0162 5.24927 21.4598C5.24927 21.6568 6.16804 22.1816 7.87418 22.1816C9.58054 22.1816 10.4991 21.6565 10.4991 21.4598C10.4991 20.0163 9.31781 18.835 7.87418 18.835Z" fill="black"/>
<path d="M14.5684 11.7469L10.6308 9.12204C10.1057 8.79393 9.77758 8.13769 9.77758 7.48151C9.77758 6.82533 10.1057 6.23466 10.6308 5.84098L14.5684 3.2161C14.8965 3.01912 15.2901 2.888 15.6841 2.888H32.3534V1.96862C32.3534 0.852865 31.5002 0 30.3847 0H8.2689V7.61259C8.2689 8.00625 8.00636 8.2688 7.61268 8.2688H0V40.0314C0 41.1471 0.918772 42 1.96864 42H30.3841C31.4999 42 32.3528 41.1468 32.3528 40.0314L32.3531 12.0749H15.6839C15.2902 12.0749 14.8962 11.9437 14.5681 11.7468L14.5684 11.7469ZM7.87476 37.2749C6.95598 37.2749 6.03721 37.1437 5.38102 36.8812C4.13385 36.4217 3.93716 35.634 3.93716 35.2403C3.93716 33.7309 4.79035 32.4186 6.1028 31.7623C5.77469 31.3686 5.5777 30.8435 5.5777 30.3185C5.5777 29.0716 6.62757 28.0217 7.87444 28.0217C9.12131 28.0217 10.1712 29.0716 10.1712 30.3185C10.1712 30.8435 9.97419 31.3683 9.64608 31.7623C10.8929 32.4185 11.8117 33.7309 11.8117 35.2403C11.812 36.7498 9.71221 37.2749 7.87474 37.2749L7.87476 37.2749ZM7.87476 23.4938C6.95598 23.4938 6.03721 23.3627 5.38102 23.1002C4.13385 22.6406 3.93716 21.8533 3.93716 21.4593C3.93716 19.9499 4.79035 18.6375 6.1028 17.9813C5.77469 17.5876 5.5777 17.0625 5.5777 16.5374C5.5777 15.2906 6.62757 14.2407 7.87444 14.2407C9.12131 14.2407 10.1712 15.2906 10.1712 16.5374C10.1712 17.0625 9.97419 17.5873 9.64608 17.9813C10.8929 18.6375 11.8117 19.9499 11.8117 21.4593C11.812 22.9688 9.71221 23.4938 7.87474 23.4938L7.87476 23.4938ZM27.1683 35.2407H14.8303C14.5022 35.2407 14.1741 34.9126 14.1741 34.5845C14.1741 34.1908 14.5022 33.9283 14.8303 33.9283H27.1683C27.4964 33.9283 27.8245 34.1908 27.8245 34.5845C27.8245 34.9782 27.4964 35.2407 27.1683 35.2407V35.2407ZM14.1744 30.6469C14.1744 30.2533 14.5026 29.9907 14.8307 29.9907H20.9339C21.3276 29.9907 21.5901 30.2532 21.5901 30.6469C21.5901 30.975 21.3276 31.3031 20.9339 31.3031H14.8307C14.5026 31.3031 14.1744 31.0406 14.1744 30.6469ZM27.8242 20.8034C27.8242 21.1315 27.496 21.4596 27.1679 21.4596H14.83C14.5019 21.4596 14.1738 21.1315 14.1738 20.8034C14.1738 20.4098 14.5019 20.1472 14.83 20.1472H27.1679C27.496 20.1472 27.8242 20.4098 27.8242 20.8034V20.8034ZM21.5898 16.8662C21.5898 17.1943 21.3273 17.5224 20.9336 17.5224H14.8304C14.5023 17.5224 14.1741 17.1943 14.1741 16.8662C14.1741 16.4725 14.5023 16.21 14.8304 16.21H20.9336C21.3273 16.21 21.5898 16.4722 21.5898 16.8662V16.8662Z" fill="#060B29"/>
<path d="M40.6875 4.20044H38.5219V10.7629H40.6875C41.4093 10.7629 41.9999 10.1067 41.9999 9.38492V5.57847C41.9999 4.8567 41.4093 4.20052 40.6875 4.20052V4.20044Z" fill="#4B7BE5"/>
<path d="M16.3403 4.20044H37.2094V10.7629H16.3403V4.20044Z" fill="#4B7BE5"/>
<path d="M11.0902 7.4812C11.0902 7.67819 11.2213 7.87486 11.4183 8.00629L15.0278 10.4345V4.52832L11.4183 6.95651C11.2213 7.08763 11.0902 7.28462 11.0902 7.4813V7.4812Z" fill="#4B7BE5"/>
</svg>
