<svg width="32" height="26" viewBox="0 0 32 26" fill="none" xmlns="http://www.w3.org/2000/svg">
<mask id="path-1-outside-1_9641_46198" maskUnits="userSpaceOnUse" x="-0.428711" y="0" width="33" height="26" fill="black">
<rect fill="white" x="-0.428711" width="33" height="26"/>
<path d="M4.21619 1.0009C3.94972 1.02481 3.72037 1.19532 3.62511 1.44021L0.791122 8.90729C0.782818 8.92834 0.775491 8.94986 0.769384 8.97162C0.53979 9.83373 0.800159 10.7009 1.33824 11.3394C1.87656 11.9779 2.68964 12.4218 3.61436 12.5607C4.94332 12.7606 6.25201 12.2869 7.01722 11.3714C7.68502 12.1465 8.77337 12.625 9.94988 12.625H10.3656C11.5233 12.625 12.5872 12.1582 13.2543 11.4037C13.8791 12.1499 14.8736 12.625 16.0119 12.625C17.1501 12.625 18.1446 12.1499 18.7695 11.4037C19.022 11.6895 19.3271 11.9385 19.6775 12.1321V21.8705C19.6749 22.0542 19.7474 22.2311 19.879 22.3617C20.0107 22.4925 20.1905 22.5659 20.3778 22.5659C20.5654 22.5659 20.7449 22.4925 20.8766 22.3617C21.0082 22.2311 21.0807 22.0542 21.0781 21.8705V12.5821C21.2686 12.6084 21.4608 12.6249 21.6581 12.6249H22.0739C23.2504 12.6249 24.3388 12.1464 25.0065 11.3713C25.7107 12.2081 26.8706 12.6839 28.0811 12.6034V23.628H3.94242V14.3175C3.94657 14.1203 3.86378 13.9304 3.71503 13.7972C3.56628 13.6637 3.366 13.5996 3.16547 13.6212C2.80472 13.6601 2.53382 13.9624 2.54166 14.3175V23.628H1.30531C1.28332 23.6268 1.26159 23.6268 1.2396 23.628C1.05373 23.6364 0.879095 23.7167 0.75404 23.8513C0.628741 23.986 0.563281 24.1639 0.572073 24.3457C0.580621 24.5276 0.662931 24.6986 0.800441 24.8211C0.937951 24.9437 1.11943 25.0078 1.3053 24.9992H30.7182C30.9058 25.0019 31.0862 24.9308 31.2198 24.8019C31.3535 24.673 31.4284 24.497 31.4284 24.3136C31.4284 24.1299 31.3535 23.9542 31.2198 23.8253C31.0862 23.6964 30.9058 23.6254 30.7182 23.628H29.4818V12.2391C29.9549 12.0208 30.3691 11.7144 30.6855 11.3392C31.2235 10.7007 31.4839 9.83355 31.2543 8.97144C31.2482 8.94968 31.2409 8.92816 31.2326 8.90711L28.3986 1.44002C28.2941 1.17434 28.0327 0.999524 27.7421 1.00072H4.28179C4.26005 0.999761 4.23807 0.999761 4.21633 1.00072L4.21619 1.0009ZM4.7633 2.37212H27.2606L29.8978 9.31455V9.33583C29.9987 9.74261 29.8954 10.124 29.6025 10.4715C29.304 10.8255 28.804 11.1204 28.2018 11.2107C26.9979 11.392 25.9356 10.7052 25.7508 9.82872L25.7398 9.81796L25.6851 9.5824C25.6868 9.47072 25.6604 9.36047 25.6086 9.26099L24.2955 3.78627C24.2701 3.59376 24.1629 3.42085 24 3.31014C23.8373 3.19965 23.6341 3.16163 23.4411 3.20587C23.2482 3.25011 23.0836 3.37207 22.9876 3.54211C22.8918 3.7119 22.874 3.9135 22.9385 4.09692L24.2736 9.70026C24.1949 10.5186 23.3156 11.2537 22.0741 11.2537H21.6584C20.3573 11.2537 19.4482 10.4471 19.4479 9.58235C19.4489 9.56083 19.4489 9.53955 19.4479 9.51802L18.9665 3.89337C18.9433 3.53155 18.6365 3.24982 18.2663 3.25056C18.0665 3.24936 17.8757 3.33186 17.7419 3.47726C17.608 3.62242 17.544 3.81685 17.566 4.01127L18.0474 9.58235V9.62516C18.0413 9.65697 18.0377 9.68925 18.0364 9.72153C17.9566 10.5619 17.2223 11.2537 16.0121 11.2537C14.8019 11.2537 14.0676 10.5618 13.9878 9.72153C13.9861 9.69284 13.9824 9.66414 13.9768 9.63592V9.58235L14.4475 4.01127C14.4692 3.80274 14.3925 3.59564 14.2389 3.44952C14.0853 3.30341 13.8718 3.23406 13.6595 3.26132C13.3315 3.30604 13.0804 3.56982 13.0577 3.89336L12.5763 9.51801C12.5753 9.53953 12.5753 9.56082 12.5763 9.58234C12.576 10.4471 11.667 11.2537 10.3658 11.2537H9.95012C8.6925 11.2537 7.8088 10.4992 7.75065 9.66799L9.08574 4.09691C9.17318 3.72719 8.93821 3.35773 8.56036 3.27208C8.18276 3.18623 7.80541 3.41653 7.71793 3.78624L6.39385 9.31453C6.36259 9.38579 6.34427 9.46208 6.33914 9.53956L6.27344 9.81793V9.82869C6.08855 10.7051 5.02633 11.392 3.82243 11.2107C3.22012 11.1203 2.72013 10.8254 2.42169 10.4715C2.12884 10.124 2.02552 9.74261 2.12639 9.3358C2.1281 9.32839 2.1242 9.32193 2.12639 9.31452L4.7633 2.37212ZM22.3804 16.9426C22.1928 16.9403 22.0121 17.0113 21.8787 17.1402C21.7451 17.2691 21.6701 17.4448 21.6701 17.6285C21.6701 17.8119 21.7451 17.9879 21.8787 18.1168C22.0121 18.2455 22.1928 18.3168 22.3804 18.3141H24.1312C24.3185 18.3168 24.4992 18.2455 24.6326 18.1168C24.7662 17.9879 24.8414 17.8119 24.8414 17.6285C24.8414 17.4448 24.7662 17.2691 24.6326 17.1402C24.4992 17.0113 24.3185 16.9403 24.1312 16.9426H22.3804Z"/>
</mask>
<path d="M4.21619 1.0009C3.94972 1.02481 3.72037 1.19532 3.62511 1.44021L0.791122 8.90729C0.782818 8.92834 0.775491 8.94986 0.769384 8.97162C0.53979 9.83373 0.800159 10.7009 1.33824 11.3394C1.87656 11.9779 2.68964 12.4218 3.61436 12.5607C4.94332 12.7606 6.25201 12.2869 7.01722 11.3714C7.68502 12.1465 8.77337 12.625 9.94988 12.625H10.3656C11.5233 12.625 12.5872 12.1582 13.2543 11.4037C13.8791 12.1499 14.8736 12.625 16.0119 12.625C17.1501 12.625 18.1446 12.1499 18.7695 11.4037C19.022 11.6895 19.3271 11.9385 19.6775 12.1321V21.8705C19.6749 22.0542 19.7474 22.2311 19.879 22.3617C20.0107 22.4925 20.1905 22.5659 20.3778 22.5659C20.5654 22.5659 20.7449 22.4925 20.8766 22.3617C21.0082 22.2311 21.0807 22.0542 21.0781 21.8705V12.5821C21.2686 12.6084 21.4608 12.6249 21.6581 12.6249H22.0739C23.2504 12.6249 24.3388 12.1464 25.0065 11.3713C25.7107 12.2081 26.8706 12.6839 28.0811 12.6034V23.628H3.94242V14.3175C3.94657 14.1203 3.86378 13.9304 3.71503 13.7972C3.56628 13.6637 3.366 13.5996 3.16547 13.6212C2.80472 13.6601 2.53382 13.9624 2.54166 14.3175V23.628H1.30531C1.28332 23.6268 1.26159 23.6268 1.2396 23.628C1.05373 23.6364 0.879095 23.7167 0.75404 23.8513C0.628741 23.986 0.563281 24.1639 0.572073 24.3457C0.580621 24.5276 0.662931 24.6986 0.800441 24.8211C0.937951 24.9437 1.11943 25.0078 1.3053 24.9992H30.7182C30.9058 25.0019 31.0862 24.9308 31.2198 24.8019C31.3535 24.673 31.4284 24.497 31.4284 24.3136C31.4284 24.1299 31.3535 23.9542 31.2198 23.8253C31.0862 23.6964 30.9058 23.6254 30.7182 23.628H29.4818V12.2391C29.9549 12.0208 30.3691 11.7144 30.6855 11.3392C31.2235 10.7007 31.4839 9.83355 31.2543 8.97144C31.2482 8.94968 31.2409 8.92816 31.2326 8.90711L28.3986 1.44002C28.2941 1.17434 28.0327 0.999524 27.7421 1.00072H4.28179C4.26005 0.999761 4.23807 0.999761 4.21633 1.00072L4.21619 1.0009ZM4.7633 2.37212H27.2606L29.8978 9.31455V9.33583C29.9987 9.74261 29.8954 10.124 29.6025 10.4715C29.304 10.8255 28.804 11.1204 28.2018 11.2107C26.9979 11.392 25.9356 10.7052 25.7508 9.82872L25.7398 9.81796L25.6851 9.5824C25.6868 9.47072 25.6604 9.36047 25.6086 9.26099L24.2955 3.78627C24.2701 3.59376 24.1629 3.42085 24 3.31014C23.8373 3.19965 23.6341 3.16163 23.4411 3.20587C23.2482 3.25011 23.0836 3.37207 22.9876 3.54211C22.8918 3.7119 22.874 3.9135 22.9385 4.09692L24.2736 9.70026C24.1949 10.5186 23.3156 11.2537 22.0741 11.2537H21.6584C20.3573 11.2537 19.4482 10.4471 19.4479 9.58235C19.4489 9.56083 19.4489 9.53955 19.4479 9.51802L18.9665 3.89337C18.9433 3.53155 18.6365 3.24982 18.2663 3.25056C18.0665 3.24936 17.8757 3.33186 17.7419 3.47726C17.608 3.62242 17.544 3.81685 17.566 4.01127L18.0474 9.58235V9.62516C18.0413 9.65697 18.0377 9.68925 18.0364 9.72153C17.9566 10.5619 17.2223 11.2537 16.0121 11.2537C14.8019 11.2537 14.0676 10.5618 13.9878 9.72153C13.9861 9.69284 13.9824 9.66414 13.9768 9.63592V9.58235L14.4475 4.01127C14.4692 3.80274 14.3925 3.59564 14.2389 3.44952C14.0853 3.30341 13.8718 3.23406 13.6595 3.26132C13.3315 3.30604 13.0804 3.56982 13.0577 3.89336L12.5763 9.51801C12.5753 9.53953 12.5753 9.56082 12.5763 9.58234C12.576 10.4471 11.667 11.2537 10.3658 11.2537H9.95012C8.6925 11.2537 7.8088 10.4992 7.75065 9.66799L9.08574 4.09691C9.17318 3.72719 8.93821 3.35773 8.56036 3.27208C8.18276 3.18623 7.80541 3.41653 7.71793 3.78624L6.39385 9.31453C6.36259 9.38579 6.34427 9.46208 6.33914 9.53956L6.27344 9.81793V9.82869C6.08855 10.7051 5.02633 11.392 3.82243 11.2107C3.22012 11.1203 2.72013 10.8254 2.42169 10.4715C2.12884 10.124 2.02552 9.74261 2.12639 9.3358C2.1281 9.32839 2.1242 9.32193 2.12639 9.31452L4.7633 2.37212ZM22.3804 16.9426C22.1928 16.9403 22.0121 17.0113 21.8787 17.1402C21.7451 17.2691 21.6701 17.4448 21.6701 17.6285C21.6701 17.8119 21.7451 17.9879 21.8787 18.1168C22.0121 18.2455 22.1928 18.3168 22.3804 18.3141H24.1312C24.3185 18.3168 24.4992 18.2455 24.6326 18.1168C24.7662 17.9879 24.8414 17.8119 24.8414 17.6285C24.8414 17.4448 24.7662 17.2691 24.6326 17.1402C24.4992 17.0113 24.3185 16.9403 24.1312 16.9426H22.3804Z" fill="white"/>
<path d="M4.21619 1.0009C3.94972 1.02481 3.72037 1.19532 3.62511 1.44021L0.791122 8.90729C0.782818 8.92834 0.775491 8.94986 0.769384 8.97162C0.53979 9.83373 0.800159 10.7009 1.33824 11.3394C1.87656 11.9779 2.68964 12.4218 3.61436 12.5607C4.94332 12.7606 6.25201 12.2869 7.01722 11.3714C7.68502 12.1465 8.77337 12.625 9.94988 12.625H10.3656C11.5233 12.625 12.5872 12.1582 13.2543 11.4037C13.8791 12.1499 14.8736 12.625 16.0119 12.625C17.1501 12.625 18.1446 12.1499 18.7695 11.4037C19.022 11.6895 19.3271 11.9385 19.6775 12.1321V21.8705C19.6749 22.0542 19.7474 22.2311 19.879 22.3617C20.0107 22.4925 20.1905 22.5659 20.3778 22.5659C20.5654 22.5659 20.7449 22.4925 20.8766 22.3617C21.0082 22.2311 21.0807 22.0542 21.0781 21.8705V12.5821C21.2686 12.6084 21.4608 12.6249 21.6581 12.6249H22.0739C23.2504 12.6249 24.3388 12.1464 25.0065 11.3713C25.7107 12.2081 26.8706 12.6839 28.0811 12.6034V23.628H3.94242V14.3175C3.94657 14.1203 3.86378 13.9304 3.71503 13.7972C3.56628 13.6637 3.366 13.5996 3.16547 13.6212C2.80472 13.6601 2.53382 13.9624 2.54166 14.3175V23.628H1.30531C1.28332 23.6268 1.26159 23.6268 1.2396 23.628C1.05373 23.6364 0.879095 23.7167 0.75404 23.8513C0.628741 23.986 0.563281 24.1639 0.572073 24.3457C0.580621 24.5276 0.662931 24.6986 0.800441 24.8211C0.937951 24.9437 1.11943 25.0078 1.3053 24.9992H30.7182C30.9058 25.0019 31.0862 24.9308 31.2198 24.8019C31.3535 24.673 31.4284 24.497 31.4284 24.3136C31.4284 24.1299 31.3535 23.9542 31.2198 23.8253C31.0862 23.6964 30.9058 23.6254 30.7182 23.628H29.4818V12.2391C29.9549 12.0208 30.3691 11.7144 30.6855 11.3392C31.2235 10.7007 31.4839 9.83355 31.2543 8.97144C31.2482 8.94968 31.2409 8.92816 31.2326 8.90711L28.3986 1.44002C28.2941 1.17434 28.0327 0.999524 27.7421 1.00072H4.28179C4.26005 0.999761 4.23807 0.999761 4.21633 1.00072L4.21619 1.0009ZM4.7633 2.37212H27.2606L29.8978 9.31455V9.33583C29.9987 9.74261 29.8954 10.124 29.6025 10.4715C29.304 10.8255 28.804 11.1204 28.2018 11.2107C26.9979 11.392 25.9356 10.7052 25.7508 9.82872L25.7398 9.81796L25.6851 9.5824C25.6868 9.47072 25.6604 9.36047 25.6086 9.26099L24.2955 3.78627C24.2701 3.59376 24.1629 3.42085 24 3.31014C23.8373 3.19965 23.6341 3.16163 23.4411 3.20587C23.2482 3.25011 23.0836 3.37207 22.9876 3.54211C22.8918 3.7119 22.874 3.9135 22.9385 4.09692L24.2736 9.70026C24.1949 10.5186 23.3156 11.2537 22.0741 11.2537H21.6584C20.3573 11.2537 19.4482 10.4471 19.4479 9.58235C19.4489 9.56083 19.4489 9.53955 19.4479 9.51802L18.9665 3.89337C18.9433 3.53155 18.6365 3.24982 18.2663 3.25056C18.0665 3.24936 17.8757 3.33186 17.7419 3.47726C17.608 3.62242 17.544 3.81685 17.566 4.01127L18.0474 9.58235V9.62516C18.0413 9.65697 18.0377 9.68925 18.0364 9.72153C17.9566 10.5619 17.2223 11.2537 16.0121 11.2537C14.8019 11.2537 14.0676 10.5618 13.9878 9.72153C13.9861 9.69284 13.9824 9.66414 13.9768 9.63592V9.58235L14.4475 4.01127C14.4692 3.80274 14.3925 3.59564 14.2389 3.44952C14.0853 3.30341 13.8718 3.23406 13.6595 3.26132C13.3315 3.30604 13.0804 3.56982 13.0577 3.89336L12.5763 9.51801C12.5753 9.53953 12.5753 9.56082 12.5763 9.58234C12.576 10.4471 11.667 11.2537 10.3658 11.2537H9.95012C8.6925 11.2537 7.8088 10.4992 7.75065 9.66799L9.08574 4.09691C9.17318 3.72719 8.93821 3.35773 8.56036 3.27208C8.18276 3.18623 7.80541 3.41653 7.71793 3.78624L6.39385 9.31453C6.36259 9.38579 6.34427 9.46208 6.33914 9.53956L6.27344 9.81793V9.82869C6.08855 10.7051 5.02633 11.392 3.82243 11.2107C3.22012 11.1203 2.72013 10.8254 2.42169 10.4715C2.12884 10.124 2.02552 9.74261 2.12639 9.3358C2.1281 9.32839 2.1242 9.32193 2.12639 9.31452L4.7633 2.37212ZM22.3804 16.9426C22.1928 16.9403 22.0121 17.0113 21.8787 17.1402C21.7451 17.2691 21.6701 17.4448 21.6701 17.6285C21.6701 17.8119 21.7451 17.9879 21.8787 18.1168C22.0121 18.2455 22.1928 18.3168 22.3804 18.3141H24.1312C24.3185 18.3168 24.4992 18.2455 24.6326 18.1168C24.7662 17.9879 24.8414 17.8119 24.8414 17.6285C24.8414 17.4448 24.7662 17.2691 24.6326 17.1402C24.4992 17.0113 24.3185 16.9403 24.1312 16.9426H22.3804Z" stroke="white" stroke-width="0.8" mask="url(#path-1-outside-1_9641_46198)"/>
</svg>
