<svg width="102" height="27" viewBox="0 0 102 27" fill="none" xmlns="http://www.w3.org/2000/svg">
<path d="M28.4439 10.0184H22.6056L22.7066 10.6627C22.8815 11.9491 22.9733 13.2455 22.9816 14.5437C22.9816 19.5337 21.7912 22.0287 19.4103 22.0287C18.0594 22.0287 17.384 21.3758 17.384 20.0699C17.3881 19.7588 17.4226 19.4487 17.4871 19.1442L19.1009 10.0098H13.2539L12.0871 16.5347C11.7433 18.5722 11.3307 19.9969 10.8494 20.8088C10.6436 21.1904 10.3351 21.5069 9.95883 21.7225C9.58252 21.9381 9.15337 22.0441 8.71991 22.0287C7.36758 22.0287 6.69214 21.3758 6.69357 20.0699C6.69769 19.7588 6.73224 19.4487 6.79672 19.1442L8.41048 10.0098H2.57858V10.0334H0V14.591H1.77707L0.975559 19.1013C0.802763 19.9839 0.710701 20.8803 0.700511 21.7796C0.700511 23.3131 1.04433 24.4686 1.73195 25.2461C2.76338 26.4145 4.65291 26.9987 7.40054 26.9987C9.43762 26.9987 11.2806 26.2319 12.9294 24.6984C13.8463 26.2319 15.6785 26.9987 18.4261 26.9987C20.1261 27.0318 21.8041 26.6106 23.2868 25.7787C24.6386 25.0204 25.7717 23.9263 26.5766 22.6022C27.358 21.3055 27.952 19.9049 28.3408 18.4419C28.6713 17.1897 28.8616 15.9046 28.9081 14.6103H30.6164V10.042H28.4504L28.4439 10.0184Z" fill="#ffffff"/>
<path d="M39.1982 0C37.8229 0 36.8094 0.338631 36.1576 1.0159C35.5058 1.69316 35.1792 2.76705 35.1777 4.23756C35.1777 5.89134 36.1282 6.71824 38.0292 6.71824C39.4259 6.71824 40.4509 6.38533 41.1042 5.71952C41.7574 5.05371 42.084 3.99629 42.084 2.54726C42.084 0.850519 41.1221 0.00143185 39.1982 0Z" fill="#ffffff"/>
<path d="M38.3738 21.0739C38.3745 20.9464 38.386 20.8192 38.4081 20.6937L40.3292 9.84961H34.4908L32.4301 21.4884C32.332 22.1207 32.286 22.7601 32.2926 23.3999C32.2941 24.1287 32.5093 24.841 32.9115 25.4489C33.5303 26.414 34.8812 26.8958 36.9641 26.8943C38.3115 26.9047 39.6173 26.4279 40.6408 25.552L40.8127 21.6602C40.3813 21.8952 39.8964 22.0143 39.4052 22.006C38.7176 22.0039 38.3738 21.6924 38.3738 21.0739Z" fill="#ffffff"/>
<path d="M58.9867 21.0757C58.9875 20.9482 58.999 20.8211 59.0211 20.6955L59.9473 15.3927C60.0665 14.6296 60.124 13.8582 60.1192 13.086C60.133 12.3117 59.9314 11.5488 59.5368 10.8823C58.918 9.87289 57.5778 9.36816 55.5164 9.36816C53.455 9.36816 51.7488 10.2058 50.3979 11.8811L50.7761 9.84926H45.346L42.4258 26.4129H48.2663L50.2002 15.4292C50.4875 15.0834 50.8495 14.8072 51.2588 14.6212C51.6682 14.4352 52.1144 14.3443 52.5639 14.3553C53.5137 14.3553 53.9886 14.8486 53.9886 15.8351C53.9834 16.1953 53.9489 16.5544 53.8854 16.909L53.0624 21.4881C52.9741 21.9765 52.9281 22.4716 52.9249 22.9679C52.9249 25.5867 54.4821 26.8954 57.5964 26.894C58.9438 26.9043 60.2496 26.4276 61.2731 25.5516L61.445 21.6599C61.013 21.8951 60.5273 22.0143 60.0354 22.0057C59.3306 22.0057 58.9867 21.6942 58.9867 21.0757Z" fill="#ffffff"/>
<path d="M83.2088 0.277344H77.334L75.5805 10.3311C74.7339 9.71108 73.5878 9.40109 72.1424 9.40109C69.8073 9.40109 67.9809 10.0154 66.6629 11.2439C65.345 12.4724 64.5033 14.119 64.138 16.1838L63.416 20.213C63.3076 20.8156 63.2501 21.4263 63.2441 22.0386C63.2441 25.276 65.1222 26.894 68.8783 26.8926C71.1002 26.8926 72.7842 25.9747 73.9302 24.1391C74.2053 25.9762 75.602 26.894 78.1204 26.8926C79.4776 26.8993 80.7929 26.4235 81.8314 25.5502L82.0162 21.6627C81.5443 21.907 81.0175 22.026 80.4863 22.0085C79.8803 22.0085 79.5773 21.71 79.5773 21.1129C79.577 20.974 79.5885 20.8353 79.6117 20.6984L83.2088 0.277344ZM73.6917 20.9711C73.4292 21.2742 73.1044 21.5171 72.7396 21.6835C72.3747 21.85 71.9783 21.9359 71.5773 21.9355C70.765 21.9355 70.187 21.7572 69.8432 21.4007C69.5372 21.1241 69.352 20.7385 69.3275 20.3268C69.3211 20.0389 69.3441 19.751 69.3962 19.4677L69.8432 16.8904C70.1397 15.1922 71.1704 14.3431 72.9353 14.3431C73.8751 14.3431 74.4703 14.6295 74.721 15.2022L73.6917 20.9711Z" fill="#ffffff"/>
<path d="M100.524 10.9854C99.2631 9.90726 97.3958 9.36816 94.9218 9.36816C89.3563 9.36816 86.1732 11.6405 85.3724 16.1852L84.6504 20.2144C84.5411 20.7938 84.4836 21.3817 84.4785 21.9713C84.4785 23.4848 84.9362 24.6209 85.8516 25.3798C87.0893 26.3893 89.0362 26.894 91.6921 26.894C94.348 26.894 96.4725 26.3893 98.0655 25.3798C99.6585 24.3675 100.672 22.6457 101.106 20.2144L101.828 16.1852C101.937 15.6412 101.995 15.0883 102 14.5336C102 13.0172 101.508 11.8345 100.524 10.9854ZM95.8501 16.8746L95.4031 19.452C95.2795 20.1601 94.9447 20.8144 94.4426 21.3291C94.201 21.581 93.9097 21.78 93.5872 21.9135C93.2646 22.0469 92.9178 22.112 92.5688 22.1045C91.8253 22.1045 91.3032 21.8897 91.0066 21.4838C90.7398 21.156 90.5834 20.7523 90.5597 20.3304C90.5539 20.036 90.5769 19.7418 90.6284 19.452L91.0754 16.8746C91.1734 16.1282 91.5103 15.4336 92.0359 14.8944C92.2825 14.6515 92.5755 14.4607 92.8974 14.3334C93.2193 14.2061 93.5636 14.1449 93.9097 14.1534C94.6532 14.1534 95.1753 14.3682 95.4719 14.8085C95.7362 15.1509 95.8919 15.5646 95.9188 15.9962C95.9236 16.2905 95.9006 16.5846 95.8501 16.8746Z" fill="#ffffff"/>
</svg>
