<svg width="224" height="145" viewBox="0 0 224 145" fill="none" xmlns="http://www.w3.org/2000/svg">
<path d="M79 23C84.5228 23 89 18.5228 89 13C89 7.47715 84.5228 3 79 3C73.4772 3 69 7.47715 69 13C69 18.5228 73.4772 23 79 23Z" fill="#F1F1F1"/>
<path fill-rule="evenodd" clip-rule="evenodd" d="M51.6634 39.0842L11.891 100.71H97.3774L57.605 39.0842C56.2844 37.0383 52.9839 37.0383 51.6634 39.0842Z" fill="white" stroke="#E1E4E5"/>
<path fill-rule="evenodd" clip-rule="evenodd" d="M118.275 17.4995L64.5969 100.71H179.971L126.293 17.4995C124.512 14.7371 120.057 14.7371 118.275 17.4995Z" fill="white" stroke="#E1E4E5"/>
<path fill-rule="evenodd" clip-rule="evenodd" d="M166.56 37.207L124.694 100.71H214.68L172.814 37.207C171.424 35.099 167.95 35.099 166.56 37.207Z" fill="white" stroke="#E1E4E5"/>
<path d="M42.7432 91.723L51.116 97.1154L59.3831 91.723L51.116 70.8936L42.7432 91.723Z" fill="white" stroke="#E1E4E5"/>
<path d="M46.0846 89.4031L51.279 93.1052M51.2289 86.3301V100.71V86.3301Z" stroke="#E1E4E5"/>
<path d="M82.9153 91.723L91.2881 97.1154L99.5552 91.723L91.2881 70.8936L82.9153 91.723Z" fill="white" stroke="#E1E4E5"/>
<path d="M86.2567 89.4031L91.4511 93.1052M91.401 86.3301V100.71V86.3301Z" stroke="#E1E4E5"/>
<path d="M105.412 91.723L113.785 97.1154L122.052 91.723L113.785 70.8936L105.412 91.723Z" fill="white" stroke="#E1E4E5"/>
<path d="M108.753 89.4031L113.948 93.1052M113.897 86.3301V100.71V86.3301Z" stroke="#E1E4E5"/>
<path d="M127.908 89.6012L138.258 96.2667L148.476 89.6012L138.258 63.8545L127.908 89.6012Z" fill="white" stroke="#E1E4E5"/>
<path d="M131.95 86.8576L138.371 91.4333M138.246 82.9355V100.71V82.9355Z" stroke="#E1E4E5"/>
<path d="M165.188 93.3656L172.03 97.7724L178.786 93.3656L172.03 76.3438L165.188 93.3656Z" fill="white" stroke="#E1E4E5"/>
<path d="M167.987 91.3741L172.232 94.3994M172.24 88.958V100.709V88.958Z" stroke="#E1E4E5"/>
<path d="M194.433 93.3656L201.276 97.7724L208.031 93.3656L201.276 76.3438L194.433 93.3656Z" fill="white" stroke="#E1E4E5"/>
<path d="M54.3128 118.984H33.1019M201.485 88.958V100.709V88.958ZM197.232 91.3741L201.477 94.3994L197.232 91.3741ZM0 100.709H224H0ZM0 109.366H68.7748H0ZM81.6298 109.366H124.373H81.6298ZM134.657 109.366H155.868H134.657ZM169.687 109.366H190.898H169.687ZM15.4261 126.999H84.2009H15.4261ZM97.056 126.999H139.799H97.056ZM150.083 126.999H171.294H150.083ZM185.113 126.999H206.324H185.113ZM224 118.984H155.225H224ZM142.37 118.984H99.627H142.37ZM89.3429 118.984H68.132H89.3429Z" stroke="#E1E4E5"/>
<path fill-rule="evenodd" clip-rule="evenodd" d="M193.317 14.8539C196.4 14.8539 194.958 9.97775 191.052 11.1425C190.836 4.37154 179.774 -0.582216 175.199 8.54975C173.906 7.52892 171.002 9.4574 171.645 11.1425C170.208 11.2647 169.078 11.4304 168.199 11.6501C166.168 12.1569 166.57 14.8312 168.663 14.8126L193.317 14.8539ZM71.7638 43.0677C74.8465 43.0677 73.4042 38.1915 69.4991 39.3563C69.2828 32.5853 58.22 27.6316 53.6459 36.7635C52.3523 35.7427 49.4481 37.6712 50.0914 39.3563C48.6546 39.4784 47.5246 39.6442 46.645 39.8638C44.6149 40.3707 45.0166 43.0449 47.1094 43.0263L71.7638 43.0677ZM142.301 23.2315H158.891C160.374 23.2315 161.013 21.3011 159.799 20.4447C159.782 20.4325 159.765 20.4204 159.748 20.4085C158.02 19.2146 155.752 19.3229 155.752 19.3229C155.752 19.3229 155.428 12.8626 149.326 12.8626C143.809 12.8626 141.608 18.3059 140.815 21.3046C140.557 22.2789 141.298 23.2315 142.301 23.2315ZM214.71 26.9695H201.16C199.948 26.9695 199.426 25.4174 200.417 24.7291L200.459 24.6999C201.871 23.74 203.723 23.8272 203.723 23.8272C203.723 23.8272 203.988 18.6336 208.972 18.6336C213.478 18.6336 215.275 23.0096 215.923 25.4206C216.134 26.2039 215.529 26.9695 214.71 26.9695ZM111.127 11.3689H127.717C129.2 11.3689 129.84 9.43848 128.626 8.58213L128.574 8.5459C126.846 7.35195 124.578 7.46031 124.578 7.46031C124.578 7.46031 124.254 1 118.152 1C112.635 1 110.435 6.44333 109.641 9.44201C109.384 10.4163 110.124 11.3689 111.127 11.3689ZM25.6192 20.5573H14.2373C13.2195 20.5573 12.7811 19.2441 13.6138 18.6615L13.6492 18.6368C14.8347 17.8247 16.3909 17.8984 16.3909 17.8984C16.3909 17.8984 16.6129 13.5038 20.7998 13.5038C24.585 13.5038 26.0945 17.2066 26.6389 19.2466C26.8157 19.9093 26.3076 20.5573 25.6192 20.5573ZM33.0324 29.0025H49.6226C51.1057 29.0025 51.7449 27.0721 50.5311 26.2157C50.5141 26.2035 50.4969 26.1914 50.4797 26.1795C48.7516 24.9855 46.4833 25.0939 46.4833 25.0939C46.4833 25.0939 46.1597 18.6336 40.0574 18.6336C34.5403 18.6336 32.3402 24.0769 31.5467 27.0756C31.2889 28.0499 32.0297 29.0025 33.0324 29.0025ZM135.652 42.396H113.397C111.595 42.396 110.818 40.121 112.293 39.1114L112.355 39.0687C114.455 37.6612 117.21 37.7892 117.21 37.7892C117.21 37.7892 117.604 30.1756 125.018 30.1756C128.684 30.1756 131.646 36.2858 131.646 36.2858C131.646 36.2858 136.633 36.2858 137.458 40.1248C137.708 41.288 136.871 42.396 135.652 42.396ZM31.2044 42.5053H8.94904C7.14708 42.5053 6.36999 40.2303 7.84511 39.2207L7.90746 39.178C10.007 37.7706 12.7628 37.8985 12.7628 37.8985C12.7628 37.8985 13.1565 30.2849 20.5707 30.2849C24.2363 30.2849 27.1988 36.3951 27.1988 36.3951C27.1988 36.3951 32.1849 36.3951 33.0102 40.2341C33.26 41.3973 32.4234 42.5053 31.2044 42.5053ZM156.204 43.1757H205.545C210.176 43.1757 209.964 39.3515 208.451 38.019C206.9 36.6532 203.836 37.2072 203.836 37.2072C203.836 37.2072 202.924 34.635 199.922 33.3827C197.266 32.275 194.484 32.802 194.484 32.802C194.484 32.802 194.484 31.0364 192.784 29.5745C191.083 28.1121 188.816 28.2545 188.816 28.2545C188.816 28.2545 187.257 18.5198 176.842 18.5198C166.427 18.5198 165.222 27.6857 165.222 27.6857C165.222 27.6857 162.884 27.6857 161.184 29.249C159.483 30.8123 159.27 32.5885 159.27 32.5885C159.27 32.5885 153.584 31.82 151.902 36.7398C150.899 39.6721 152.959 43.1757 156.204 43.1757Z" fill="white" stroke="#E1E4E5"/>
<path d="M108.846 145C91.658 145 77.7241 143.771 77.7241 142.255C77.7241 140.739 91.658 139.51 108.846 139.51C126.034 139.51 139.968 140.739 139.968 142.255C139.968 143.771 126.034 145 108.846 145Z" fill="#212121" fill-opacity="0.1"/>
<path d="M84.8029 127.429C85.0745 130.76 87.8485 133.328 91.1901 133.328H128.167C139.485 133.328 149.113 126.296 152.672 116.481C152.787 116.17 152.894 115.855 152.992 115.538C152.996 115.532 152.996 115.524 152.997 115.519C153.281 114.361 153.044 113.465 152.133 112.913C152.038 112.865 151.944 112.815 151.851 112.761C144.834 108.856 141.083 96.0052 143.271 86.7214V86.718C143.375 86.2768 143.492 85.8427 143.623 85.4192C144.17 83.2034 144.459 80.8927 144.459 78.5149C144.459 72.8629 142.826 67.5792 139.995 63.0877H139.993C135.502 55.9637 127.992 50.8305 119.194 49.3673C120.612 47.9613 121.143 44.2826 118.395 43.4403C116.443 43.0944 114.943 44.1029 114.367 46.8422C112.856 44.108 109.241 45.9429 111.832 49.0163C96.0414 50.1059 83.5801 62.8954 83.5801 78.5149C83.5801 82.2539 84.2946 85.8305 85.5968 89.1219C87.9817 97.3854 83.5611 112.197 84.8029 127.429Z" fill="#41589C"/>
<path d="M128.167 132.714H127.985C130.69 131.726 132.564 129.966 133.276 127.67C133.595 126.642 133.646 125.584 133.454 124.604C140.497 123.461 145.138 120.119 147.377 114.577C139.578 110.447 134.009 104.549 133.834 94.3763C133.785 91.5644 134.834 88.9245 136.373 86.5707C141.879 78.1465 141.212 69.3106 140.498 65.3003C140.79 65.7991 141.068 66.3078 141.33 66.8239C142.952 70.4117 143.845 74.3712 143.845 78.5148C143.845 80.7933 143.571 83.0609 143.032 85.2546C142.9 85.6798 142.779 86.1248 142.673 86.5771C142.671 86.5866 142.668 86.5965 142.667 86.6066C141.585 91.2243 141.897 96.8125 143.524 101.944C145.233 107.335 148.084 111.368 151.545 113.293C151.64 113.348 151.736 113.399 151.833 113.449C152.256 113.711 152.694 114.169 152.402 115.367C152.31 115.663 152.207 115.966 152.095 116.272C148.528 126.106 138.912 132.714 128.167 132.714Z" fill="#2D3D8F"/>
<path d="M141.33 66.8242C141.068 66.3081 140.79 65.7994 140.498 65.3006C140.483 65.2148 140.467 65.1307 140.452 65.0493C140.765 65.6302 141.058 66.2213 141.33 66.8242Z" fill="#767EB5"/>
<path d="M85.4462 111.204C83.2823 119.395 91.8486 128.85 106.405 127.879C132.809 123.383 127.046 103.61 114.13 102.671C101.721 101.201 99.6024 93.5195 106.174 92.6836C116.784 92.6839 121.595 87.8367 123.21 80.3176C124.421 63.1955 106.434 58.0071 99.8618 65.3573C96.7484 61.1201 89.9119 60.4572 86.2329 66.4266C86.2329 66.4266 81.4508 75.2668 84.8388 86.9536C86.8809 93.7311 86.6188 102.144 85.4462 111.204Z" fill="#F2E9F2"/>
<path d="M93.4194 62.1481C93.3142 62.1481 93.2088 62.1505 93.103 62.1546C90.3667 62.2658 87.9529 63.7989 86.3058 66.4711C86.2607 66.5552 81.5824 75.4131 84.9212 86.9293C86.7124 92.8746 86.9061 100.592 85.531 111.215L85.5289 111.226C84.65 114.554 85.5679 118.187 88.0482 121.195C91.8764 125.838 98.738 128.305 106.399 127.794C112.827 126.698 117.732 124.651 120.969 121.71C124.432 118.565 125.031 115.267 124.925 113.054C124.663 107.612 120.02 103.185 114.124 102.757C106.47 101.85 102.456 98.5317 102.443 95.7218C102.436 94.0632 103.827 92.8957 106.164 92.5986C115.804 92.5979 121.349 88.575 123.127 80.2994C123.68 72.4585 120.142 66.134 113.662 63.3933C108.565 61.2383 102.917 62.0691 99.9256 65.4141L99.855 65.4928L99.7926 65.408C98.2815 63.3513 95.9176 62.1481 93.4194 62.1481ZM104.428 128.03C97.5155 128.03 91.444 125.583 87.9163 121.304C85.4018 118.254 84.4709 114.568 85.3618 111.188C86.7331 100.592 86.5408 92.899 84.7571 86.9778C81.3975 75.3907 86.1098 66.4742 86.1576 66.3856C87.8379 63.6592 90.3012 62.0973 93.0962 61.9837C95.7321 61.8772 98.2564 63.0858 99.8682 65.2225C102.925 61.8884 108.605 61.0691 113.728 63.2356C116.689 64.488 119.144 66.5769 120.829 69.2779C122.764 72.3815 123.594 76.0978 123.295 80.3235C121.497 88.7015 115.896 92.7688 106.175 92.7688H106.174C103.943 93.0537 102.608 94.1575 102.615 95.7211C102.627 98.4557 106.589 101.692 114.14 102.586C120.118 103.02 124.83 107.517 125.096 113.046C125.204 115.295 124.596 118.647 121.084 121.837C117.822 124.801 112.888 126.862 106.419 127.963C105.749 128.008 105.084 128.03 104.428 128.03Z" fill="#000072"/>
<path d="M104.402 127.332C103.112 127.332 101.854 127.245 100.638 127.075C101.731 127.21 102.871 127.281 104.057 127.281C104.724 127.281 105.406 127.258 106.102 127.212C107.224 127.021 108.289 126.802 109.297 126.559C109.302 126.594 109.308 126.63 109.314 126.665C108.379 126.886 107.387 127.088 106.332 127.268C105.682 127.311 105.039 127.332 104.402 127.332Z" fill="#F9F5F9"/>
<path d="M112.414 46.1217C112.397 46.1217 112.379 46.1224 112.361 46.1231C112.016 46.139 111.736 46.3184 111.612 46.6026C111.395 47.0977 111.653 47.8525 112.301 48.6213C112.45 48.798 112.487 49.0438 112.397 49.2568C112.307 49.4698 112.105 49.6139 111.874 49.6298C96.3527 50.7007 84.1942 63.3889 84.1942 78.5156C84.1942 82.0943 84.8582 85.5871 86.1678 88.8969C86.1749 88.9152 86.1814 88.9335 86.1868 88.9525C87.4578 93.3565 86.8583 99.4449 86.1638 106.494C85.535 112.877 84.8226 120.112 85.415 127.38C85.6588 130.372 88.1954 132.715 91.1901 132.715H128.167C138.912 132.715 148.528 126.107 152.095 116.273C152.207 115.967 152.31 115.664 152.402 115.368C152.694 114.17 152.256 113.712 151.833 113.45C151.736 113.4 151.64 113.349 151.545 113.294C148.084 111.368 145.233 107.336 143.524 101.944C141.897 96.8134 141.585 91.2252 142.667 86.6075C142.668 86.5973 142.671 86.5875 142.673 86.578C142.779 86.1256 142.9 85.6807 143.032 85.2555C143.571 83.0618 143.845 80.7941 143.845 78.5156C143.845 64.3635 133.435 52.36 119.093 49.974C118.866 49.9364 118.679 49.7743 118.609 49.5545C118.539 49.3348 118.598 49.0944 118.762 48.9323C119.43 48.2696 119.962 46.7901 119.657 45.5547C119.468 44.7883 118.995 44.2786 118.25 44.0392C116.541 43.7537 115.437 44.7392 114.968 46.9695C114.915 47.2204 114.712 47.4124 114.458 47.4503C114.205 47.4883 113.954 47.3649 113.83 47.1404C113.475 46.4988 112.949 46.1217 112.414 46.1217ZM128.167 133.943H91.1901C87.5606 133.943 84.4862 131.104 84.1908 127.48C83.5892 120.102 84.3078 112.809 84.9416 106.374C85.6219 99.4653 86.2099 93.4972 85.0145 89.3207C83.6554 85.875 82.9659 82.2398 82.9659 78.5156C82.9659 70.8266 85.9406 63.5022 91.342 57.8919C96.4697 52.5658 103.32 49.2534 110.731 48.4952C110.274 47.6436 110.182 46.8077 110.486 46.1109C110.797 45.3994 111.494 44.9338 112.304 44.8962C112.955 44.8667 113.579 45.0993 114.102 45.5459C114.893 43.4516 116.451 42.4736 118.502 42.8364C118.527 42.8408 118.551 42.8466 118.575 42.854C119.748 43.2135 120.556 44.0681 120.85 45.2607C121.139 46.4344 120.895 47.8614 120.278 48.9421C127.024 50.2863 133.168 53.8151 137.668 58.95C142.443 64.3988 145.073 71.3472 145.073 78.5156C145.073 80.8993 144.786 83.2717 144.22 85.5668C144.217 85.5787 144.213 85.5902 144.21 85.6017C144.087 85.9975 143.974 86.4118 143.874 86.834C143.873 86.8439 143.871 86.8534 143.868 86.8632C141.646 96.2935 145.67 108.619 152.149 112.225C152.241 112.278 152.325 112.323 152.411 112.366C152.424 112.373 152.438 112.381 152.45 112.388C153.223 112.856 154.048 113.803 153.595 115.66C153.59 115.687 153.582 115.713 153.574 115.738C153.476 116.052 153.366 116.373 153.249 116.693C149.508 127.01 139.428 133.943 128.167 133.943Z" fill="#000072"/>
<path d="M81.8282 120.803C84.2081 121.77 86.6032 121.832 89.0126 122.374C90.7543 122.766 92.5028 123.05 94.26 123.224C100.273 123.83 106.375 123.188 112.556 121.403C115.962 122.138 119.753 123.262 116.249 117.059C117.875 112.56 118.997 108.093 118.345 103.728V103.726C117.065 103.152 115.647 102.782 114.13 102.671C108.412 101.993 104.879 99.997 103.374 97.9599V97.9582C101.614 95.5729 102.631 93.1327 106.174 92.683C110.396 92.683 113.7 91.9153 116.249 90.5161C116.244 84.4715 113.646 85.0802 109.846 88.7727C104.739 87.2125 98.8482 86.9965 92.4939 87.5794C90.7024 87.7418 88.8743 87.9701 87.0166 88.2485C86.2401 87.7557 85.5103 87.3183 84.8392 86.9531C83.2671 86.0989 82.0202 85.6458 81.2731 85.8031L81.1347 85.8411L81.131 85.8428C80.2354 86.1575 80.2232 87.555 81.4823 90.5161C77.6619 96.1491 77.7708 105.513 78.6287 115.589C75.429 120.314 76.9873 122.996 81.8282 120.803Z" fill="white"/>
<path d="M104.406 128.56C98.009 128.56 92.3217 126.512 88.5807 122.81C88.3396 122.571 88.3375 122.183 88.5763 121.941C88.8146 121.7 89.2036 121.698 89.4444 121.937C93.3231 125.775 99.4773 127.717 106.332 127.268C121.461 124.682 123.961 117.597 124.335 114.669C124.881 110.382 122.373 106.21 118.094 104.288C118.081 104.282 118.068 104.276 118.056 104.269C116.812 103.717 115.477 103.385 114.086 103.283C114.076 103.283 114.067 103.282 114.058 103.281C106.103 102.338 101.928 98.7656 101.915 95.7231C101.907 93.801 103.509 92.4025 106.097 92.0739C106.123 92.0705 106.149 92.0688 106.174 92.0688C110.135 92.0688 113.425 91.3652 115.953 89.9775C119.416 88.0802 121.591 84.8919 122.601 80.2305C123.123 72.6337 119.707 66.5233 113.456 63.8799C108.564 61.8113 103.162 62.5869 100.32 65.766C100.196 65.9041 100.017 65.98 99.8324 65.9702C99.6476 65.9614 99.4766 65.8695 99.3668 65.7203C97.8964 63.7188 95.5623 62.5831 93.1248 62.6825C90.5695 62.7863 88.308 64.2302 86.7562 66.7478C86.5782 67.0367 86.1998 67.1262 85.9112 66.9485C85.6223 66.7705 85.5327 66.392 85.7104 66.1035C87.4833 63.2271 90.0985 61.5763 93.0749 61.4553C95.6827 61.3494 98.1867 62.4505 99.9053 64.4282C101.473 62.9246 103.562 61.9595 105.993 61.6235C108.559 61.2691 111.379 61.6682 113.934 62.7486C116.995 64.043 119.535 66.2042 121.277 68.9978C123.273 72.198 124.13 76.0208 123.823 80.3604C123.821 80.3892 123.817 80.4177 123.811 80.4462C122.725 85.4999 120.348 88.9697 116.544 91.0546C113.841 92.5378 110.366 93.2924 106.214 93.2971C104.285 93.5521 103.138 94.4555 103.143 95.718C103.152 97.6638 106.158 101.105 114.189 102.059C115.732 102.174 117.215 102.546 118.596 103.166C118.61 103.172 118.624 103.178 118.636 103.185C123.388 105.338 126.166 110.01 125.553 114.824C125.145 118.025 122.473 125.765 106.508 128.484C106.487 128.487 106.466 128.49 106.445 128.491C105.759 128.537 105.078 128.56 104.406 128.56Z" fill="#000072"/>
<path d="M98.8356 124.088C93.2827 124.088 87.9108 123.01 82.481 120.844C79.2204 123.036 77.6887 122.351 77.0593 121.732C75.8716 120.564 76.2434 118.103 77.9986 115.427C77.1966 105.91 77.0059 96.3378 80.7895 90.4521C79.6938 87.7871 79.5928 86.2634 80.4555 85.5323C81.4843 84.6608 83.4308 85.2614 87.1522 87.608C96.6039 86.2092 103.782 86.3597 109.679 88.0828C112.085 85.8016 113.806 84.9887 115.079 85.5259C116.294 86.0386 116.861 87.6246 116.863 90.5169C116.863 90.856 116.588 91.131 116.249 91.1314H116.249C115.91 91.1314 115.635 90.8567 115.635 90.5179C115.632 87.5375 114.986 86.8199 114.601 86.6575C114.159 86.471 113.01 86.5551 110.274 89.214C110.114 89.3697 109.881 89.4263 109.667 89.3609C103.839 87.5819 96.6711 87.4215 87.1078 88.8566C86.961 88.878 86.8118 88.8468 86.687 88.7674C82.2568 85.9484 81.3802 86.3587 81.2497 86.4693C81.1876 86.5218 80.6851 87.0739 82.0473 90.2768C82.129 90.4691 82.1076 90.6895 81.9906 90.8621C78.2017 96.448 78.4296 106.022 79.2404 115.537C79.2523 115.677 79.216 115.817 79.137 115.934C77.5218 118.319 77.3048 120.251 77.9206 120.856C78.3832 121.312 79.7427 121.268 82.052 119.649C82.2229 119.529 82.4427 119.504 82.636 119.582C92.2769 123.5 101.73 123.891 112.385 120.814C112.483 120.786 112.586 120.782 112.685 120.804C112.858 120.841 113.031 120.879 113.204 120.917C114.617 121.229 116.551 121.655 116.936 121.135C117.056 120.971 117.326 120.215 115.714 117.361C115.626 117.206 115.61 117.019 115.671 116.851C117.075 112.965 118.419 108.379 117.738 103.818C117.688 103.482 117.919 103.169 118.254 103.119C118.59 103.068 118.903 103.301 118.953 103.636C119.662 108.384 118.265 113.245 116.921 117.004C118.278 119.464 118.586 120.969 117.923 121.865C117.065 123.026 115.061 122.584 112.94 122.117C112.819 122.09 112.697 122.063 112.577 122.037C107.804 123.402 103.262 124.088 98.8356 124.088Z" fill="#000072"/>
<path d="M108.868 78.9529C108.851 79.6369 108.548 80.306 108.031 80.8353C107.91 80.9747 107.751 81.0808 107.602 81.1985C107.53 81.2605 107.441 81.3012 107.357 81.3484L107.098 81.4844C106.916 81.5583 106.725 81.619 106.532 81.6692C106.433 81.6848 106.333 81.7011 106.232 81.7126C106.132 81.7231 106.032 81.7421 105.93 81.7329C105.828 81.7295 105.726 81.7261 105.624 81.7187C105.574 81.7139 105.523 81.7136 105.473 81.7048L105.324 81.6726C105.125 81.6288 104.928 81.5817 104.75 81.4898L104.48 81.3647C104.396 81.3155 104.317 81.2568 104.237 81.2026C104.159 81.1459 104.078 81.0934 104.005 81.0323L103.805 80.8336C103.292 80.291 103.014 79.6257 102.984 78.9532C102.978 78.7966 103.099 78.664 103.256 78.6572C103.321 78.6545 103.383 78.6741 103.433 78.7098L103.449 78.7209C103.96 79.0858 104.377 79.3941 104.787 79.5769C105.193 79.7661 105.552 79.8339 105.908 79.8319C106.264 79.8309 106.639 79.7379 107.051 79.5521C107.466 79.367 107.89 79.0807 108.403 78.7213L108.418 78.7114C108.547 78.6209 108.726 78.6521 108.816 78.7816C108.853 78.8339 108.869 78.8939 108.868 78.9529Z" fill="#000072"/>
<path d="M88.4226 78.8827C88.8603 79.189 89.2212 79.4328 89.5752 79.5905C89.9262 79.7488 90.246 79.8282 90.5495 79.8295C90.8523 79.8316 91.1582 79.7722 91.5041 79.6118C91.8537 79.4558 92.2094 79.193 92.6452 78.8824L92.6584 78.8729C92.7672 78.7953 92.9182 78.8207 92.9958 78.9292C93.0284 78.975 93.0426 79.0282 93.0406 79.0801C93.0158 79.6532 92.7781 80.2202 92.341 80.6827L92.1708 80.852C92.1087 80.9042 92.0399 80.9489 91.9727 80.9971C91.9045 81.0432 91.8381 81.0931 91.7662 81.1355L91.5359 81.2419C91.3844 81.321 91.2155 81.3572 91.0469 81.3969C90.9628 81.4193 90.8777 81.4339 90.7909 81.4356L90.5308 81.4488C90.4437 81.4576 90.3585 81.4396 90.2727 81.4305L90.0171 81.3945C89.8533 81.3508 89.6902 81.2986 89.5348 81.2372L89.3148 81.1216C89.2429 81.0812 89.1669 81.0466 89.1052 80.9934C88.9787 80.8933 88.8431 80.8028 88.7393 80.6844C88.2998 80.2331 88.0411 79.6627 88.0268 79.0801C88.0234 78.9451 88.1299 78.8336 88.2645 78.8302C88.3188 78.8288 88.3693 78.8451 88.4103 78.8739L88.4226 78.8827Z" fill="#000072"/>
<path d="M78.3117 101.257C75.9478 97.4574 77.3069 91.603 80.7729 91.6871C81.853 93.4281 83.6137 94.5285 85.7969 95.2305C87.3649 95.7347 87.7121 97.8142 86.3693 98.7678C84.2953 100.241 81.5468 101.005 78.3117 101.257Z" fill="#41589C"/>
<path d="M86.5819 97.2949C86.3709 97.0921 86.1081 96.9297 85.7975 96.83C83.6129 96.128 81.8523 95.028 80.7732 93.2863C80.7491 93.2856 80.7254 93.2856 80.7017 93.2856C79.5341 93.2856 78.6114 93.9635 77.9966 95.0066C78.1227 94.5437 78.2919 94.1246 78.4954 93.7692C78.8511 93.1469 79.4693 92.4209 80.449 92.3137C81.545 93.9052 83.2372 95.0524 85.6089 95.815C86.1278 95.9822 86.4872 96.4037 86.5707 96.9429C86.589 97.0623 86.5927 97.1803 86.5819 97.2949Z" fill="#A9B4D2"/>
<path d="M80.4491 92.3139C79.4694 92.4211 78.8512 93.1471 78.4955 93.7694C77.5812 95.3686 77.3523 98.2541 78.6457 100.612C81.7862 100.324 84.1993 99.556 86.0136 98.2674C86.4436 97.9622 86.6518 97.4671 86.5707 96.9431C86.4873 96.4039 86.1279 95.9824 85.609 95.8152C83.2373 95.0526 81.5451 93.9054 80.4491 92.3139ZM78.3113 101.871C78.1004 101.871 77.9027 101.762 77.7901 101.581C76.2274 99.0694 76.0756 95.5277 77.429 93.1597C78.2171 91.7808 79.4084 91.0419 80.7879 91.0735C80.9947 91.0785 81.1856 91.1874 81.2948 91.3634C82.2203 92.8551 83.7544 93.9288 85.9851 94.646C86.9417 94.9539 87.6311 95.762 87.7848 96.7556C87.9357 97.7339 87.5297 98.697 86.725 99.2688C84.6514 100.742 81.9151 101.592 78.3592 101.869C78.3432 101.87 78.3273 101.871 78.3113 101.871Z" fill="#000072"/>
<path d="M95.9664 82.659C97.8173 82.8985 99.2592 83.8388 100.41 85.278C101.043 86.0688 100.86 87.2435 99.992 87.7647C98.7939 88.4836 97.4195 88.8139 95.8748 88.7695C94.0657 88.5606 92.6075 87.9451 91.6499 86.7501C91.3443 86.3689 91.2958 85.8362 91.5393 85.413C92.2633 84.1525 93.416 83.2355 95.0854 82.7326C95.3699 82.6468 95.6714 82.6211 95.9664 82.659Z" fill="#EDB324"/>
<path d="M95.7003 82.7273C95.5016 82.7273 95.3012 82.7564 95.1099 82.8141C93.5218 83.2922 92.3455 84.181 91.6137 85.4547C91.3909 85.8423 91.4322 86.3412 91.7168 86.6959C92.612 87.8129 93.9752 88.4633 95.8848 88.6838C97.406 88.7292 98.7767 88.3935 99.948 87.6905C100.336 87.4575 100.595 87.0818 100.675 86.6321C100.758 86.1723 100.637 85.6979 100.343 85.331C99.1311 83.8148 97.6956 82.9684 95.9553 82.7435C95.8712 82.7327 95.7861 82.7273 95.7003 82.7273ZM96.1435 88.8584C96.0537 88.8584 95.9634 88.857 95.8722 88.8547C93.9084 88.6281 92.5079 87.957 91.5832 86.8027C91.2549 86.3937 91.2078 85.8176 91.4651 85.3696C92.2193 84.0566 93.4293 83.1413 95.0607 82.6499C95.3568 82.5608 95.6738 82.5347 95.9774 82.5736C97.7638 82.8046 99.2355 83.6717 100.477 85.2238C100.802 85.6297 100.935 86.154 100.844 86.6627C100.755 87.154 100.461 87.5823 100.036 87.8373C98.9063 88.5156 97.5976 88.8584 96.1435 88.8584Z" fill="#000072"/>
<path d="M92.129 86.3652C91.9795 86.1787 91.9564 85.9186 92.0717 85.7182C92.7435 84.549 93.7873 83.7643 95.2624 83.32C95.4042 83.2773 95.5524 83.2556 95.6995 83.2556C95.7626 83.2556 95.8257 83.2597 95.8877 83.2675H95.8874C97.4853 83.4743 98.8078 84.257 99.9306 85.6609C99.972 85.7128 100.008 85.7674 100.039 85.8247C99.0201 84.8341 97.798 84.1905 96.3126 83.9989C96.2238 83.9877 96.1343 83.982 96.0451 83.982C95.8372 83.982 95.6304 84.0125 95.4306 84.0718C93.9379 84.5218 92.8585 85.3028 92.129 86.3652Z" fill="#F7DD9C"/>
<path d="M95.919 88.1557C97.3348 88.1937 98.5994 87.8834 99.6761 87.2374C99.9317 87.0842 100.102 86.8359 100.155 86.5385C100.211 86.2289 100.129 85.9088 99.9307 85.6609C98.8079 84.257 97.4854 83.4743 95.8875 83.2675H95.8878C95.681 83.241 95.465 83.259 95.2625 83.32C93.7874 83.7643 92.7436 84.549 92.0718 85.7182C91.9565 85.9186 91.9796 86.1787 92.1291 86.3652C92.9291 87.3636 94.1689 87.9492 95.919 88.1557ZM96.1442 89.3867C96.0493 89.3867 95.9536 89.3854 95.857 89.3826C95.8394 89.3823 95.8221 89.381 95.8044 89.3789C93.7318 89.1395 92.1729 88.384 91.1708 87.1333C90.7079 86.5558 90.6418 85.7413 91.0067 85.1065C91.8307 83.6724 93.1434 82.6757 94.9082 82.144C95.2751 82.0334 95.6681 82.0005 96.0452 82.0494C97.9473 82.2956 99.5774 83.2525 100.89 84.8938C101.31 85.4184 101.483 86.0973 101.364 86.7562C101.249 87.3978 100.864 87.957 100.308 88.2904C99.0948 89.0184 97.695 89.3867 96.1442 89.3867Z" fill="#000072"/>
<path d="M81.7242 133.386C71.6517 131.7 74.214 119.305 80.909 122.246C78.9102 113.915 89.9032 114.742 88.0747 121.797C94.7949 114.979 97.9506 131.405 89.3247 133.386H81.7242Z" fill="#EDB324"/>
<path d="M81.7313 133.3H89.3148C92.1474 132.646 94.0576 130.247 94.4256 126.881C94.7416 123.988 93.7599 121.227 92.1416 120.458C90.9707 119.902 89.5854 120.386 88.1354 121.857L87.9116 122.084L87.9916 121.775C88.5145 119.759 88.0123 118.036 86.6135 117.05C85.3269 116.143 83.5618 116.097 82.3213 116.938C80.9015 117.901 80.4169 119.829 80.9924 122.226L81.0324 122.394L80.8743 122.325C79.2676 121.619 77.7691 121.764 76.6542 122.734C75.2737 123.935 74.7432 126.149 75.3344 128.244C76.0842 130.901 78.4158 132.743 81.7313 133.3ZM89.3341 133.472L81.7099 133.47C78.3225 132.904 75.9387 131.015 75.1695 128.29C74.5609 126.133 75.1123 123.848 76.5419 122.605C77.6731 121.621 79.1757 121.445 80.7879 122.102C80.2561 119.708 80.776 117.779 82.2254 116.797C83.5235 115.916 85.3686 115.963 86.7121 116.91C88.1042 117.892 88.6478 119.563 88.2263 121.528C90.0232 119.813 91.381 119.907 92.2149 120.304C93.9237 121.115 94.9247 123.889 94.5958 126.9C94.219 130.345 92.2556 132.801 89.3436 133.469L89.3341 133.472Z" fill="#000072"/>
<path d="M89.2999 123.361C89.4878 122.638 89.541 121.98 89.4861 121.391C90.0056 121.028 90.5794 120.764 91.1528 120.764C91.4085 120.764 91.6642 120.817 91.9148 120.936C92.2634 121.102 92.5795 121.386 92.8528 121.761C92.6999 121.73 92.5422 121.714 92.3794 121.714C91.4828 121.714 90.4424 122.201 89.2999 123.361Z" fill="#F8E1A7"/>
<path d="M76.278 128.811C76.1877 128.747 76.0999 128.682 76.0143 128.615C75.9497 128.447 75.8925 128.275 75.843 128.1C75.3147 126.228 75.7909 124.185 77.0011 123.132C77.5555 122.65 78.2089 122.408 78.9357 122.408C79.4742 122.408 80.0534 122.541 80.6617 122.809C80.7414 122.844 80.8255 122.861 80.9089 122.861C81.0503 122.861 81.1904 122.812 81.3026 122.718C81.4817 122.568 81.5604 122.33 81.5061 122.103C80.9774 119.899 81.3722 118.22 82.6181 117.375C83.1227 117.033 83.73 116.863 84.3479 116.863C85.0305 116.863 85.7257 117.071 86.3089 117.482C86.5423 117.646 86.7461 117.835 86.92 118.046C86.4846 117.893 86.0258 117.815 85.569 117.815C83.3285 117.815 81.1473 119.696 82.1341 123.81C81.4288 123.5 80.7699 123.361 80.1663 123.361C77.5341 123.361 75.9628 126.02 76.278 128.811Z" fill="#F8E1A7"/>
<path d="M76.3646 129.361C76.2308 129.123 76.1137 128.874 76.0143 128.616C76.0999 128.682 76.1877 128.747 76.278 128.811C76.2986 128.994 76.3274 129.178 76.3646 129.361Z" fill="#DBCBB1"/>
<path d="M81.7761 132.772H89.2531C91.8253 132.15 93.5602 129.932 93.9003 126.823C94.1882 124.188 93.3163 121.601 91.9148 120.936C90.7164 120.366 89.403 121.324 88.5118 122.228C88.3168 122.426 88.0133 122.468 87.7715 122.331C87.5301 122.194 87.4104 121.912 87.4802 121.643C87.9445 119.851 87.5175 118.334 86.309 117.482C85.198 116.699 83.6802 116.655 82.6181 117.375C81.3722 118.22 80.9774 119.899 81.5061 122.103C81.5604 122.33 81.4817 122.568 81.3027 122.718C81.1236 122.867 80.8754 122.903 80.6617 122.809C79.2327 122.181 77.9665 122.293 77.0011 123.133C75.7909 124.185 75.3147 126.228 75.843 128.1C76.5319 130.541 78.6929 132.242 81.7761 132.772ZM89.3247 134H81.7242C81.6903 134 81.6563 133.997 81.6228 133.992C78.0255 133.39 75.4879 131.364 74.661 128.433C73.9978 126.083 74.6143 123.581 76.195 122.206C77.2757 121.265 78.6406 120.967 80.1171 121.328C79.8435 119.12 80.4796 117.342 81.9287 116.359C83.4051 115.358 85.4975 115.407 87.0167 116.478C88.2599 117.355 88.9082 118.703 88.8957 120.304C90.42 119.282 91.6323 119.442 92.4418 119.827C94.3469 120.732 95.4738 123.73 95.1211 126.957C94.7189 130.636 92.6035 133.263 89.462 133.985C89.4169 133.995 89.3708 134 89.3247 134Z" fill="#000072"/>
<path d="M87.4164 87.7827L88.9149 89.5359C89.0092 89.6461 88.9963 89.8116 88.8861 89.9059C88.7973 89.9819 88.6718 89.988 88.5772 89.9296L86.6168 88.7149C86.3252 88.5342 86.235 88.151 86.4157 87.8594C86.5964 87.5674 86.9796 87.4775 87.2716 87.6583C87.3266 87.6925 87.3764 87.7363 87.4164 87.7827Z" fill="#000072"/>
<path d="M110.335 89.1446L108.842 90.5238C108.735 90.6225 108.568 90.616 108.47 90.5092C108.393 90.4258 108.38 90.3054 108.429 90.2101L109.357 88.4016C109.515 88.0951 109.89 87.9743 110.197 88.1317C110.503 88.289 110.624 88.6648 110.467 88.9713C110.433 89.0375 110.387 89.0968 110.335 89.1446Z" fill="#000072"/>
<path d="M122.967 108.499C122.05 107.01 120.726 105.724 119.085 104.791C119.059 104.465 119.023 104.139 118.978 103.813C121.179 105.001 122.985 107.225 122.985 107.225C122.985 107.225 123.026 107.731 122.967 108.499Z" fill="#000072"/>
<path d="M117.056 117.928L116.413 116.599C117.949 112.256 118.975 107.944 118.345 103.728V103.726C118.331 103.72 118.317 103.714 118.303 103.707C118.297 103.632 118.291 103.557 118.286 103.481C118.519 103.578 118.751 103.69 118.978 103.813C119.023 104.138 119.059 104.464 119.085 104.791C119.436 109.164 118.156 113.549 116.921 117.004C117.01 117.165 117.094 117.322 117.174 117.475C117.127 117.622 117.088 117.773 117.056 117.928Z" fill="#000072"/>
<path d="M86.7776 88.8145C86.7464 88.8012 86.7159 88.7853 86.6871 88.767C83.5032 86.7411 82.1549 86.383 81.5994 86.383C81.4458 86.383 81.3529 86.4105 81.2986 86.4376C80.9022 86.2033 80.6635 86.0768 80.6635 86.0768L81.1348 85.8411L81.2732 85.8031C81.3715 85.7825 81.479 85.7723 81.5943 85.7723C82.3549 85.7723 83.4747 86.2114 84.8393 86.9531C85.3327 87.2216 85.858 87.5292 86.41 87.869C86.2371 88.1596 86.3283 88.536 86.6169 88.7148L86.7776 88.8145ZM88.1992 88.6978L87.7261 88.1444C89.0524 87.9541 90.3634 87.7907 91.6561 87.6598C91.8667 87.8588 92.0952 88.0416 92.3414 88.2078C91.0128 88.3339 89.634 88.497 88.1992 88.6978Z" fill="#000072"/>
<path d="M93.4686 88.8066C93.0592 88.6388 92.6832 88.4394 92.3413 88.2081C92.0952 88.0419 91.8666 87.8592 91.656 87.6601C91.9361 87.6316 92.2155 87.6048 92.4939 87.5797L93.8585 88.7731C93.7225 88.7731 93.5927 88.7846 93.4686 88.8066Z" fill="#000072"/>
<path d="M88.7159 89.9688C88.6674 89.9688 88.6192 89.9555 88.5772 89.9294L86.7775 88.8144L86.6168 88.7147C86.3282 88.536 86.237 88.1596 86.4099 87.869C86.6087 87.9914 86.8111 88.1179 87.0166 88.2484C87.2536 88.2132 87.49 88.1782 87.726 88.1443L88.1991 88.6978L88.9149 89.5357C89.0092 89.6459 88.9963 89.8114 88.8861 89.9057C88.8366 89.9481 88.7762 89.9688 88.7159 89.9688Z" fill="#000072"/>
<path d="M108.969 89.1572C106.498 88.4698 103.786 88.0626 100.758 87.9347C100.955 87.7326 101.113 87.4949 101.223 87.2334C101.414 87.2216 101.609 87.2158 101.807 87.2158C104.579 87.2158 107.895 88.3274 109.157 88.7913L108.969 89.1572Z" fill="#000072"/>
<path d="M96.1442 89.3867C96.0876 89.3867 96.0306 89.3864 95.9736 89.3854C95.2391 88.8469 94.8861 88.3521 94.8861 88.3521L99.1511 88.271C99.6889 88.0479 100.137 87.7349 100.478 87.3161C100.718 87.2761 100.967 87.249 101.223 87.233C101.113 87.4945 100.956 87.7322 100.758 87.9343C100.626 88.0706 100.474 88.1907 100.308 88.2904C99.0948 89.0184 97.695 89.3867 96.1442 89.3867Z" fill="#000072"/>
<path d="M108.663 90.5938C108.593 90.5938 108.522 90.5653 108.47 90.5093C108.393 90.4259 108.38 90.3055 108.429 90.2102L108.969 89.1573L109.157 88.7914C109.49 88.9138 109.68 88.9908 109.68 88.9908L108.72 90.5876C108.702 90.5917 108.682 90.5938 108.663 90.5938Z" fill="#000072"/>
<path d="M111.489 92.2402C111.757 91.9493 111.997 91.6702 112.209 91.4036C113.465 91.093 114.607 90.6746 115.631 90.1489C115.633 90.2676 115.635 90.3904 115.635 90.5175C115.635 90.6105 115.656 90.6986 115.693 90.7777C114.734 91.4691 113.234 91.911 111.489 92.2402Z" fill="#000072"/>
<path d="M115.693 90.7773C115.656 90.6983 115.635 90.6102 115.635 90.5172C115.635 90.3901 115.633 90.2673 115.631 90.1486C115.578 87.4768 114.97 86.8121 114.601 86.6568C114.517 86.6212 114.407 86.5954 114.266 86.5954C114.067 86.5954 113.805 86.6466 113.463 86.7928C113.257 86.4645 113.026 86.3177 113.026 86.3177C113.489 86.0891 113.893 85.9833 114.246 85.9833C115.631 85.9833 116.235 87.6121 116.534 89.8763C116.342 90.2175 116.056 90.5156 115.693 90.7773Z" fill="#000072"/>
<path d="M98.6994 123.447C97.4196 123.447 96.1428 123.393 94.8705 123.282C94.8125 123.063 94.7463 122.85 94.6731 122.645C96.0533 122.786 97.4423 122.857 98.8421 122.857C102.409 122.857 106.05 122.4 109.836 121.49C109.741 121.71 109.656 121.939 109.58 122.176C105.923 123.016 102.297 123.447 98.6994 123.447Z" fill="#000072"/>
<path d="M94.8704 123.282C94.667 123.265 94.4632 123.246 94.26 123.225L92.8107 120.804C92.8107 120.804 93.1138 120.798 93.6452 120.786C94.0681 121.288 94.4157 121.922 94.6731 122.645C94.7463 122.85 94.8124 123.063 94.8704 123.282Z" fill="#000072"/>
<path d="M117.784 104.153C116.619 103.67 115.376 103.378 114.085 103.284C114.076 103.283 114.067 103.282 114.058 103.281C108.866 102.666 105.284 100.93 103.419 98.9534C103.347 98.3694 103.372 97.9903 103.374 97.9605C104.879 99.9975 108.412 101.994 114.13 102.671C115.427 102.766 116.651 103.05 117.779 103.489C117.737 103.59 117.721 103.702 117.738 103.818C117.755 103.93 117.77 104.041 117.784 104.153Z" fill="#000072"/>
<path d="M117.143 120.298C117.077 120.241 117.011 120.186 116.947 120.133C116.807 119.562 116.464 118.688 115.714 117.361C115.626 117.206 115.611 117.019 115.671 116.851C117.041 113.061 118.353 108.604 117.785 104.153C117.77 104.042 117.755 103.93 117.738 103.818C117.721 103.702 117.737 103.59 117.779 103.489C117.956 103.559 118.13 103.631 118.303 103.708C118.684 108.921 117.934 112.777 116.245 116.252L116.414 116.6C116.359 116.753 116.304 116.906 116.249 117.059C116.542 117.578 116.784 118.046 116.98 118.467C116.931 119.043 116.984 119.658 117.143 120.298Z" fill="#000072"/>
<path d="M116.414 116.599L116.245 116.251C117.934 112.777 118.684 108.92 118.303 103.707C118.317 103.713 118.331 103.72 118.345 103.726V103.727C118.975 107.944 117.949 112.256 116.414 116.599Z" fill="#000072"/>
<path d="M125.165 133.328C137.642 131.469 134.468 117.801 126.175 121.045C128.651 111.859 115.034 112.771 117.299 120.549C108.975 113.031 105.066 131.144 115.751 133.328H125.165Z" fill="#EDB324"/>
<path d="M125.178 133.413L125.153 133.244C129.294 132.627 132.196 130.577 133.113 127.619C133.775 125.484 133.25 123.217 131.775 121.844C130.361 120.529 128.383 120.273 126.206 121.125L126.048 121.187L126.092 121.023C127.023 117.573 125.59 115.972 124.654 115.325C123.025 114.199 120.528 114.264 118.846 115.477C117.305 116.589 116.771 118.429 117.381 120.526L117.466 120.815L117.242 120.613C114.811 118.418 113.042 118.629 111.986 119.193C110.057 120.223 108.986 123.24 109.44 126.369C109.964 129.971 112.33 132.542 115.768 133.245L115.734 133.412C112.221 132.694 109.805 130.07 109.271 126.393C108.807 123.196 109.914 120.104 111.905 119.042C112.978 118.469 114.747 118.238 117.143 120.297C116.634 118.242 117.211 116.445 118.746 115.338C120.484 114.085 123.065 114.019 124.751 115.183C125.71 115.846 127.17 117.465 126.3 120.906C128.451 120.115 130.482 120.407 131.892 121.719C133.415 123.136 133.958 125.472 133.276 127.67C132.339 130.693 129.387 132.786 125.178 133.413Z" fill="#000072"/>
<path d="M125.165 133.328L125.153 133.244C129.294 132.627 132.196 130.577 133.113 127.619C133.59 126.081 133.451 124.474 132.784 123.183C132.834 123.219 132.883 123.256 132.931 123.293C132.886 123.2 132.839 123.108 132.79 123.018C134.647 126.393 132.961 132.167 125.165 133.328ZM115.751 133.328H115.75C112.3 132.623 110.371 130.256 109.622 127.629C109.623 127.629 109.623 127.629 109.623 127.629C110.019 129.016 110.743 130.329 111.845 131.364C111.79 131.27 111.738 131.175 111.688 131.079C112.753 132.16 114.14 132.912 115.768 133.244L115.751 133.328Z" fill="#000072"/>
<path d="M127.566 122.805C127.775 122.026 127.87 121.318 127.866 120.683C128.125 120.648 128.379 120.631 128.628 120.631C129.564 120.631 130.423 120.877 131.166 121.365C131.203 121.719 131.209 122.081 131.182 122.446C130.812 122.357 130.417 122.309 130.002 122.309C129.255 122.309 128.439 122.463 127.566 122.805Z" fill="#F8E1A7"/>
<path d="M132.79 123.019C132.396 122.302 131.843 121.694 131.154 121.261C131.158 121.296 131.162 121.33 131.166 121.365C130.423 120.877 129.564 120.631 128.628 120.631C128.379 120.631 128.125 120.648 127.866 120.683C127.866 120.655 127.865 120.628 127.865 120.6C128.122 120.566 128.373 120.55 128.616 120.55C130.53 120.55 131.99 121.561 132.79 123.019Z" fill="#9999C7"/>
<path d="M132.784 123.183C132.317 122.844 131.78 122.591 131.182 122.446C131.209 122.081 131.203 121.719 131.166 121.365C131.379 121.505 131.582 121.665 131.775 121.844C132.187 122.228 132.525 122.681 132.784 123.183Z" fill="#DBCBB1"/>
<path d="M132.931 123.294C132.883 123.256 132.834 123.219 132.784 123.183C132.525 122.682 132.187 122.228 131.775 121.845C131.582 121.665 131.379 121.506 131.166 121.366C131.162 121.331 131.158 121.296 131.154 121.261C131.843 121.694 132.396 122.303 132.79 123.019C132.839 123.109 132.886 123.201 132.931 123.294Z" fill="#9999C7"/>
<path d="M110.809 128.52C110.422 128.285 110.066 128.022 109.741 127.736C109.61 127.299 109.509 126.843 109.44 126.369C108.986 123.24 110.056 120.222 111.986 119.193C112.387 118.979 112.89 118.815 113.494 118.815C114.481 118.815 115.734 119.251 117.242 120.613L117.466 120.815L117.381 120.525C116.771 118.429 117.305 116.589 118.846 115.477C119.726 114.842 120.829 114.522 121.914 114.522C122.903 114.522 123.877 114.788 124.653 115.324C125.092 115.628 125.64 116.14 126.002 116.954C125.219 116.442 124.268 116.194 123.308 116.194C120.464 116.194 117.543 118.371 118.688 122.308C117.272 121.029 115.984 120.492 114.874 120.492C111.796 120.492 110.085 124.622 110.809 128.52Z" fill="#F8E1A7"/>
<path d="M109.741 127.735C109.701 127.7 109.662 127.665 109.624 127.629C108.446 123.504 110.175 118.734 113.485 118.734C114.595 118.734 115.884 119.271 117.3 120.549C116.153 116.611 119.074 114.434 121.918 114.434C123.679 114.434 125.41 115.27 126.127 117.039C126.086 117.01 126.045 116.981 126.003 116.954C125.64 116.14 125.092 115.627 124.654 115.324C123.877 114.788 122.903 114.522 121.915 114.522C120.829 114.522 119.726 114.842 118.846 115.476C117.305 116.588 116.771 118.428 117.381 120.525L117.466 120.815L117.242 120.613C115.734 119.251 114.481 118.815 113.494 118.815C112.89 118.815 112.387 118.978 111.986 119.192C110.057 120.222 108.986 123.24 109.44 126.368C109.51 126.843 109.61 127.299 109.741 127.735Z" fill="#9999C7"/>
<path d="M111.688 131.079C110.799 130.177 110.134 129.045 109.741 127.735C110.066 128.022 110.422 128.284 110.809 128.519C110.973 129.401 111.262 130.271 111.688 131.079Z" fill="#DBCBB1"/>
<path d="M111.845 131.364C110.743 130.329 110.019 129.016 109.624 127.63C109.662 127.666 109.702 127.701 109.741 127.736C110.134 129.045 110.799 130.177 111.688 131.079C111.738 131.175 111.79 131.27 111.845 131.364Z" fill="#9999C7"/>
<path d="M115.814 132.715H125.12C129.028 132.121 131.757 130.209 132.608 127.464C133.211 125.521 132.742 123.467 131.415 122.232C130.158 121.062 128.377 120.844 126.399 121.618C126.183 121.702 125.938 121.658 125.766 121.503C125.593 121.348 125.522 121.11 125.582 120.886C126.209 118.561 125.772 116.741 124.353 115.76C122.899 114.755 120.665 114.818 119.156 115.906C117.787 116.894 117.337 118.482 117.889 120.379C117.966 120.642 117.858 120.925 117.625 121.071C117.393 121.216 117.091 121.19 116.888 121.006C115.144 119.431 113.535 118.966 112.235 119.66C110.523 120.573 109.547 123.425 109.964 126.293C110.198 127.905 111.237 131.748 115.814 132.715ZM125.165 133.943H115.751C115.71 133.943 115.668 133.939 115.628 133.931C111.888 133.166 109.316 130.377 108.748 126.47C108.253 123.06 109.476 119.74 111.656 118.576C112.525 118.113 114.199 117.661 116.436 119.106C116.366 117.386 117.057 115.905 118.437 114.91C120.347 113.533 123.191 113.464 125.051 114.749C126.666 115.865 127.348 117.796 126.993 120.143C129.011 119.648 130.886 120.062 132.251 121.333C133.922 122.887 134.523 125.436 133.781 127.827C132.781 131.052 129.674 133.278 125.256 133.937C125.226 133.941 125.196 133.943 125.165 133.943Z" fill="#000072"/>
<path d="M78.7782 103.928C78.6341 103.907 78.4876 103.883 78.3405 103.857L78.4374 101.863C78.5877 101.851 78.7365 101.838 78.8837 101.824C78.8342 102.513 78.7999 103.215 78.7782 103.928Z" fill="#000072"/>
<path d="M78.4375 101.863L78.4558 101.493C86.2333 101.003 89.5176 98.0751 85.3737 94.8223C85.9329 94.9112 86.4426 95.0217 86.8987 95.156C87.3673 95.5575 87.6861 96.1187 87.7848 96.7559C87.9357 97.7343 87.5297 98.6973 86.725 99.2691C84.7545 100.669 82.1854 101.506 78.8838 101.824C78.7366 101.838 78.5877 101.851 78.4375 101.863Z" fill="#000072"/>
<path d="M78.3496 42.2564L74.5897 44.5613L76.6487 45.3148C76.911 45.4108 77.0498 45.6973 76.9626 45.9625L76.4337 47.5706C76.3449 47.8409 76.0547 47.9887 75.784 47.9019L71.5265 46.5363C71.1451 46.4139 70.9248 46.0161 71.0235 45.6282L71.3903 44.1859C71.4398 43.9909 71.5648 43.8238 71.7378 43.721L75.9998 41.1902L73.3438 40.4225C73.0576 40.3397 72.9001 40.0332 72.9997 39.7524L73.4989 38.3444C73.5951 38.0731 73.8942 37.9324 74.1646 38.0314L78.5806 39.6469C78.9746 39.7911 79.1862 40.2187 79.0618 40.6195L78.6901 41.8183C78.6335 42.0007 78.5124 42.1564 78.3496 42.2564Z" fill="#4B7BE5"/>
<path d="M85.6893 51.436L83.4007 53.6368L84.9646 53.8491C85.164 53.8762 85.3058 54.0563 85.2854 54.2564L85.1613 55.4687C85.1406 55.6725 84.9596 55.8214 84.7554 55.802L81.5508 55.4982C81.2639 55.4707 81.0476 55.2249 81.0571 54.937L81.0927 53.866C81.0974 53.7212 81.1595 53.5846 81.2653 53.4856L83.8724 51.0484L81.8862 50.9181C81.6719 50.9042 81.5138 50.7126 81.5406 50.5L81.6746 49.4328C81.7004 49.2273 81.8892 49.0822 82.0944 49.11L85.4492 49.5651C85.7487 49.6058 85.9633 49.8737 85.9379 50.1748L85.8613 51.0755C85.8494 51.2125 85.7883 51.3403 85.6893 51.436Z" fill="#4B7BE5"/>
<path d="M75.771 59.0127L73.2953 59.9494L74.4246 60.6249C74.5684 60.711 74.618 60.8955 74.5368 61.042L74.0443 61.9308C73.9616 62.08 73.7739 62.1346 73.624 62.0529L71.2675 60.7697C71.0564 60.6547 70.9712 60.3953 71.073 60.1776L71.4513 59.3685C71.5024 59.2593 71.5949 59.1745 71.7084 59.1335L74.5054 58.1202L73.0258 57.3694C72.8664 57.2884 72.808 57.09 72.8983 56.9357L73.3508 56.1615C73.438 56.0126 73.6301 55.9631 73.7784 56.052L76.2003 57.5006C76.4163 57.6298 76.4931 57.9055 76.3748 58.128L76.0208 58.793C75.967 58.894 75.8782 58.9724 75.771 59.0127Z" fill="#4B7BE5"/>
</svg>
