<svg width="110" height="110" viewBox="0 0 110 110" fill="none" xmlns="http://www.w3.org/2000/svg">
<rect x="15" y="13" width="80" height="80" rx="10" fill="#4B7BE5"/>
<g filter="url(#filter0_d_7392_78588)">
<rect x="15" y="11" width="80" height="80" rx="10" fill="white"/>
</g>
<path d="M48.375 60.4027C47.2062 60.4027 46.25 61.359 46.25 62.5277C46.25 62.6871 46.9938 63.1121 48.375 63.1121C49.7562 63.1121 50.5 62.6871 50.5 62.5277C50.5 61.359 49.5438 60.4027 48.375 60.4027Z" fill="#4B7BE5"/>
<path d="M48.375 48.184C48.8151 48.184 49.1719 47.8272 49.1719 47.3871C49.1719 46.947 48.8151 46.5902 48.375 46.5902C47.9349 46.5902 47.5781 46.947 47.5781 47.3871C47.5781 47.8272 47.9349 48.184 48.375 48.184Z" fill="#4B7BE5"/>
<path d="M47.6311 34.3185L42.3186 39.631H47.6311V34.3185Z" fill="#060B29"/>
<path d="M48.375 59.3402C48.8151 59.3402 49.1719 58.9834 49.1719 58.5433C49.1719 58.1032 48.8151 57.7465 48.375 57.7465C47.9349 57.7465 47.5781 58.1032 47.5781 58.5433C47.5781 58.9834 47.9349 59.3402 48.375 59.3402Z" fill="#4B7BE5"/>
<path d="M48.375 49.2465C47.2062 49.2465 46.25 50.2027 46.25 51.3715C46.25 51.5308 46.9938 51.9558 48.375 51.9558C49.7562 51.9558 50.5 51.5308 50.5 51.3715C50.5 50.2027 49.5438 49.2465 48.375 49.2465Z" fill="#4B7BE5"/>
<path d="M53.7938 43.5094L50.6063 41.3844C50.1813 41.1187 49.9156 40.5875 49.9156 40.0562C49.9156 39.525 50.1813 39.0469 50.6063 38.7281L53.7938 36.6031C54.0594 36.4438 54.3781 36.3375 54.6969 36.3375H68.1906V35.5938C68.1906 34.6906 67.5 34 66.5969 34H48.6938V40.1625C48.6938 40.4813 48.4813 40.6938 48.1625 40.6938H42V66.4062C42 67.3094 42.7437 68 43.5938 68H66.5969C67.5 68 68.1906 67.3094 68.1906 66.4062V43.775H54.6969C54.3781 43.775 54.0594 43.6687 53.7938 43.5094ZM48.375 64.175C47.6312 64.175 46.8875 64.0688 46.3562 63.8563C45.3469 63.4844 45.1875 62.8469 45.1875 62.5281C45.1875 61.3062 45.8781 60.2438 46.9406 59.7125C46.675 59.3938 46.5156 58.9688 46.5156 58.5438C46.5156 57.5344 47.3656 56.6844 48.375 56.6844C49.3844 56.6844 50.2344 57.5344 50.2344 58.5438C50.2344 58.9688 50.075 59.3938 49.8094 59.7125C50.8187 60.2438 51.5625 61.3062 51.5625 62.5281C51.5625 63.75 49.8625 64.175 48.375 64.175ZM48.375 53.0187C47.6312 53.0187 46.8875 52.9125 46.3562 52.7C45.3469 52.3281 45.1875 51.6906 45.1875 51.3719C45.1875 50.15 45.8781 49.0875 46.9406 48.5562C46.675 48.2375 46.5156 47.8125 46.5156 47.3875C46.5156 46.3781 47.3656 45.5281 48.375 45.5281C49.3844 45.5281 50.2344 46.3781 50.2344 47.3875C50.2344 47.8125 50.075 48.2375 49.8094 48.5562C50.8187 49.0875 51.5625 50.15 51.5625 51.3719C51.5625 52.5938 49.8625 53.0187 48.375 53.0187ZM63.9938 62.5281H54.0063C53.7406 62.5281 53.475 62.2625 53.475 61.9969C53.475 61.6781 53.7406 61.4656 54.0063 61.4656H63.9938C64.2594 61.4656 64.525 61.6781 64.525 61.9969C64.525 62.3156 64.2594 62.5281 63.9938 62.5281ZM53.475 58.8094C53.475 58.4906 53.7406 58.2781 54.0063 58.2781H58.9469C59.2656 58.2781 59.4781 58.4906 59.4781 58.8094C59.4781 59.075 59.2656 59.3406 58.9469 59.3406H54.0063C53.7406 59.3406 53.475 59.1281 53.475 58.8094ZM64.525 50.8406C64.525 51.1063 64.2594 51.3719 63.9938 51.3719H54.0063C53.7406 51.3719 53.475 51.1063 53.475 50.8406C53.475 50.5219 53.7406 50.3094 54.0063 50.3094H63.9938C64.2594 50.3094 64.525 50.5219 64.525 50.8406ZM59.4781 47.6531C59.4781 47.9188 59.2656 48.1844 58.9469 48.1844H54.0063C53.7406 48.1844 53.475 47.9188 53.475 47.6531C53.475 47.3344 53.7406 47.1219 54.0063 47.1219H58.9469C59.2656 47.1219 59.4781 47.3344 59.4781 47.6531Z" fill="#060B29"/>
<path d="M75.9582 37.3984H74.2051V42.7109H75.9582C76.5426 42.7109 77.0207 42.1797 77.0207 41.5953V38.5141C77.0207 37.9297 76.5426 37.3984 75.9582 37.3984Z" fill="#060B29"/>
<path d="M73.1438 37.3984H56.25V42.7109H73.1438V37.3984Z" fill="#060B29"/>
<path d="M52 40.0547C52 40.2141 52.1062 40.3734 52.2656 40.4797L55.1875 42.4453V37.6641L52.2656 39.6297C52.1062 39.7359 52 39.8953 52 40.0547Z" fill="#4B7BE5"/>
<defs>
<filter id="filter0_d_7392_78588" x="0" y="0" width="110" height="110" filterUnits="userSpaceOnUse" color-interpolation-filters="sRGB">
<feFlood flood-opacity="0" result="BackgroundImageFix"/>
<feColorMatrix in="SourceAlpha" type="matrix" values="0 0 0 0 0 0 0 0 0 0 0 0 0 0 0 0 0 0 127 0" result="hardAlpha"/>
<feOffset dy="4"/>
<feGaussianBlur stdDeviation="7.5"/>
<feComposite in2="hardAlpha" operator="out"/>
<feColorMatrix type="matrix" values="0 0 0 0 0 0 0 0 0 0 0 0 0 0 0 0 0 0 0.08 0"/>
<feBlend mode="normal" in2="BackgroundImageFix" result="effect1_dropShadow_7392_78588"/>
<feBlend mode="normal" in="SourceGraphic" in2="effect1_dropShadow_7392_78588" result="shape"/>
</filter>
</defs>
</svg>
