<svg width="110" height="110" viewBox="0 0 110 110" fill="none" xmlns="http://www.w3.org/2000/svg">
    <rect x="15" y="13" width="80" height="80" rx="10" fill="#4B7BE5"/>
    <g filter="url(#filter0_d_7392_78578)">
        <rect x="15" y="11" width="80" height="80" rx="10" fill="white"/>
    </g>
    <path d="M71.6248 41.8568H38.375C37.0664 41.8568 36 42.8831 36 44.1425V64.7147C36 65.9764 37.0664 67.0005 38.375 67.0005H71.6248C72.9357 67.0005 73.9997 65.9764 73.9997 64.7147V44.1425C73.9997 42.8831 72.9357 41.8568 71.6248 41.8568Z"
          fill="#060B29"/>
    <path d="M73.9997 46.4284H36V53.2857H73.9997V46.4284Z" fill="#4B7BE5"/>
    <path d="M46.6875 60.1422H41.9375C41.282 60.1422 40.75 59.6302 40.75 58.9993C40.75 58.3685 41.282 57.8564 41.9375 57.8564H46.6875C47.343 57.8564 47.875 58.3685 47.875 58.9993C47.875 59.6302 47.343 60.1422 46.6875 60.1422Z"
          fill="#EDEDFF"/>
    <path d="M74.0001 53.162V44.1422C74.0001 42.8828 72.9361 41.8564 71.6251 41.8564H52.6252V44.1422C52.6252 51.3013 55.4562 55.6603 62.7332 59.6925C63.2699 59.9873 63.8827 60.1428 64.5002 60.1428C65.1177 60.1428 65.7304 59.9873 66.2743 59.6879C69.8747 57.697 72.3827 55.6192 74.0001 53.162Z"
          fill="#EDEDFF"/>
    <path d="M73.2805 38.5213L64.9681 35.0926C64.6664 34.9691 64.3316 34.9691 64.0299 35.0926L55.7175 38.5213C55.2829 38.6996 55.0002 39.1133 55.0002 39.5704V44.142C55.0002 50.4302 57.4156 54.1058 63.9088 57.7059C64.0917 57.8065 64.2959 57.8568 64.5002 57.8568C64.7044 57.8568 64.9087 57.8065 65.0915 57.7059C71.5848 54.1149 74.0001 50.4394 74.0001 44.142V39.5704C74.0001 39.1133 73.7175 38.6996 73.2805 38.5213Z"
          fill="#4B7BE5"/>
    <path d="M63.3093 49.8556C63.2927 49.8556 63.2737 49.8556 63.2595 49.8556C62.8818 49.8396 62.5327 49.6521 62.3213 49.3481L59.9464 45.9194C59.583 45.3937 59.7302 44.6851 60.2765 44.3354C60.818 43.9879 61.5566 44.1251 61.9223 44.6531L63.3972 46.7812L67.1307 42.2873C67.5416 41.7959 68.2897 41.7181 68.8003 42.109C69.3133 42.5045 69.394 43.2222 68.9855 43.7159L64.2356 49.4304C64.01 49.6978 63.668 49.8556 63.3093 49.8556Z"
          fill="#EDEDFF"/>
    <defs>
        <filter id="filter0_d_7392_78578" x="0" y="0" width="110" height="110" filterUnits="userSpaceOnUse"
                color-interpolation-filters="sRGB">
            <feFlood flood-opacity="0" result="BackgroundImageFix"/>
            <feColorMatrix in="SourceAlpha" type="matrix" values="0 0 0 0 0 0 0 0 0 0 0 0 0 0 0 0 0 0 127 0"
                           result="hardAlpha"/>
            <feOffset dy="4"/>
            <feGaussianBlur stdDeviation="7.5"/>
            <feComposite in2="hardAlpha" operator="out"/>
            <feColorMatrix type="matrix" values="0 0 0 0 0 0 0 0 0 0 0 0 0 0 0 0 0 0 0.08 0"/>
            <feBlend mode="normal" in2="BackgroundImageFix" result="effect1_dropShadow_7392_78578"/>
            <feBlend mode="normal" in="SourceGraphic" in2="effect1_dropShadow_7392_78578" result="shape"/>
        </filter>
    </defs>
</svg>
