
<svg width="42" height="42" viewBox="0 0 42 42" fill="none" xmlns="http://www.w3.org/2000/svg">
<g filter="url(#filter0_d_7510_4981)">
<path d="M21 6C18.8244 6 16.6977 6.64514 14.8887 7.85383C13.0798 9.06253 11.6699 10.7805 10.8373 12.7905C10.0048 14.8005 9.78693 17.0122 10.2114 19.146C10.6358 21.2798 11.6835 23.2398 13.2218 24.7782C14.7602 26.3165 16.7202 27.3642 18.854 27.7886C20.9878 28.2131 23.1995 27.9952 25.2095 27.1627C27.2195 26.3301 28.9375 24.9202 30.1462 23.1113C31.3549 21.3023 32 19.1756 32 17C32 15.5555 31.7155 14.1251 31.1627 12.7905C30.6099 11.4559 29.7996 10.2433 28.7782 9.22182C27.7567 8.20038 26.5441 7.39013 25.2095 6.83732C23.8749 6.28452 22.4445 6 21 6ZM26.632 13.9592L19.5614 21.0614H19.5561C19.394 21.2301 19.1757 21.3335 18.9425 21.3522C18.7052 21.335 18.4836 21.2271 18.3237 21.0509L15.3623 18.0895C15.3422 18.0698 15.3263 18.0464 15.3154 18.0205C15.3046 17.9947 15.299 17.9669 15.299 17.9388C15.299 17.9108 15.3046 17.883 15.3154 17.8571C15.3263 17.8312 15.3422 17.8078 15.3623 17.7882L16.3035 16.847C16.3226 16.8269 16.3456 16.811 16.371 16.8001C16.3964 16.7893 16.4238 16.7836 16.4515 16.7836C16.4792 16.7836 16.5066 16.7893 16.532 16.8001C16.5574 16.811 16.5804 16.8269 16.5995 16.847L18.9478 19.1952L25.3995 12.6957C25.4188 12.6758 25.4418 12.6599 25.4673 12.649C25.4927 12.638 25.5201 12.6323 25.5478 12.632C25.5756 12.6312 25.6033 12.6365 25.629 12.6475C25.6546 12.6584 25.6775 12.6749 25.696 12.6957L26.6215 13.6522C26.6434 13.671 26.6612 13.6941 26.6737 13.7201C26.6862 13.7462 26.6932 13.7745 26.6942 13.8034C26.6952 13.8322 26.6902 13.861 26.6795 13.8878C26.6688 13.9147 26.6526 13.939 26.632 13.9592Z" fill="#4B7BE5"/>
</g>
<defs>
<filter id="filter0_d_7510_4981" x="0" y="0" width="42" height="42" filterUnits="userSpaceOnUse" color-interpolation-filters="sRGB">
<feFlood flood-opacity="0" result="BackgroundImageFix"/>
<feColorMatrix in="SourceAlpha" type="matrix" values="0 0 0 0 0 0 0 0 0 0 0 0 0 0 0 0 0 0 127 0" result="hardAlpha"/>
<feOffset dy="4"/>
<feGaussianBlur stdDeviation="5"/>
<feComposite in2="hardAlpha" operator="out"/>
<feColorMatrix type="matrix" values="0 0 0 0 0 0 0 0 0 0 0 0 0 0 0 0 0 0 0.15 0"/>
<feBlend mode="normal" in2="BackgroundImageFix" result="effect1_dropShadow_7510_4981"/>
<feBlend mode="normal" in="SourceGraphic" in2="effect1_dropShadow_7510_4981" result="shape"/>
</filter>
</defs>
</svg>
