
<svg width="10" height="8" viewBox="0 0 10 8" fill="none" xmlns="http://www.w3.org/2000/svg">
<path d="M8.10892 2.09351C8.13029 2.09479 8.63295 2.13361 8.63295 2.90631H8.63283C8.63283 2.95808 8.68514 3 8.74971 3C8.81429 3 8.86659 2.95807 8.86659 2.90631C8.86659 2.13362 9.36926 2.09479 9.38937 2.09351H9.38926C9.45134 2.09087 9.5 2.04976 9.5 2C9.5 1.95015 9.45134 1.90904 9.38926 1.90649C9.3838 1.90649 8.86648 1.87687 8.86648 1.09369H8.86659C8.86659 1.04192 8.81429 1 8.74971 1C8.68514 1 8.63283 1.04193 8.63283 1.09369C8.63283 1.86438 8.13267 1.90495 8.10915 1.90649C8.0481 1.90931 8.00023 1.94978 8 1.99881C7.99955 2.04849 8.04719 2.08986 8.10893 2.09351H8.10892ZM8.74972 1.66425C8.83534 1.83495 8.95597 1.93803 9.06809 1.99983C8.95541 2.06181 8.83478 2.16498 8.74972 2.3357C8.66411 2.16499 8.54348 2.06192 8.43136 1.99983C8.54346 1.93786 8.66409 1.83578 8.74972 1.66425V1.66425Z" fill="black"/>
<path d="M7.49809 4.03325C7.33639 4.03325 7.17469 4.04273 7.02315 4.05229V0.818068C7.02315 0.285389 5.97224 0 4.93136 0C3.88038 0 2.82947 0.285389 2.82947 0.818068V1.75981C2.59707 1.73128 2.34443 1.71224 2.10189 1.71224C1.06105 1.71224 0 1.98806 0 2.52083V7.18191C0 7.70504 1.05091 7.99043 2.10189 7.99043C3.00126 7.99043 3.90062 7.78116 4.14315 7.39113C4.39578 7.42915 4.66864 7.45775 4.93136 7.45775C5.12338 7.45775 5.30524 7.44826 5.48717 7.42922C5.74988 7.8002 6.62908 8 7.49811 8C8.53895 8 9.6 7.72417 9.6 7.19141L9.59993 4.85136C9.59993 4.31868 8.54907 4.03325 7.49809 4.03325ZM9.2059 6.01183C9.2059 6.145 8.62986 6.44943 7.50825 6.44943C6.38657 6.44943 5.81061 6.145 5.81061 6.01183V5.34598C6.21478 5.55525 6.86152 5.65989 7.50825 5.65989C8.15499 5.65989 8.81179 5.55525 9.2059 5.34598V6.01183ZM4.93138 2.78712C5.57811 2.78712 6.23492 2.68248 6.62902 2.47321V3.13906C6.62902 3.27223 6.05299 3.57667 4.93138 3.57667C4.65852 3.57667 4.40589 3.55762 4.2038 3.52909V2.73006C4.4362 2.76815 4.67875 2.78712 4.93138 2.78712ZM3.79954 3.6813C3.79954 3.81447 3.2235 4.11891 2.10189 4.11891C0.980209 4.11891 0.404246 3.81448 0.404246 3.6813V3.01545C0.80842 3.22472 1.45516 3.32936 2.10189 3.32936C2.74863 3.32936 3.40543 3.22472 3.79954 3.01545V3.6813ZM2.10189 4.48989C2.74863 4.48989 3.40543 4.38525 3.79954 4.17598V4.84183C3.79954 4.97501 3.2235 5.27944 2.10189 5.27944C0.980209 5.27944 0.404246 4.97501 0.404246 4.84183V4.17598C0.798278 4.38526 1.44501 4.48989 2.10189 4.48989ZM0.394086 5.34598C0.79826 5.55525 1.445 5.65989 2.09173 5.65989C2.73847 5.65989 3.39527 5.55525 3.78938 5.34598V6.01183C3.78938 6.145 3.21334 6.44943 2.09173 6.44943C0.970049 6.44943 0.394086 6.145 0.394086 6.01183V5.34598ZM4.19366 5.07015C4.42606 5.09868 4.67869 5.11773 4.92124 5.11773C5.08294 5.11773 5.24464 5.10824 5.39618 5.09868V5.88821C5.24463 5.8977 5.09301 5.90726 4.92124 5.90726C4.64838 5.90726 4.39574 5.88821 4.19366 5.85968V5.07015ZM9.20586 4.85131C9.20586 4.98448 8.62982 5.28892 7.50821 5.28892C6.38653 5.28892 5.80041 4.97501 5.80041 4.85131C5.80041 4.71814 6.37645 4.41371 7.49806 4.41371C8.61974 4.41377 9.20586 4.71814 9.20586 4.85131ZM5.4265 4.71814C5.27495 4.72763 5.11325 4.73719 4.93132 4.73719C4.65846 4.73719 4.40583 4.71814 4.20375 4.68961L4.20382 3.90008C4.43622 3.92861 4.68885 3.94766 4.93139 3.94766C5.57813 3.94766 6.23493 3.84302 6.62904 3.63375V4.09987C6.02276 4.20451 5.52759 4.41378 5.4265 4.71814ZM4.93138 0.380481C6.05306 0.380481 6.62902 0.684913 6.62902 0.818086C6.62902 0.951257 6.05299 1.25569 4.93138 1.25569C3.8097 1.25569 3.22357 0.95126 3.22357 0.818086C3.22357 0.684916 3.79954 0.380481 4.93138 0.380481ZM3.22357 1.31268C3.62775 1.52195 4.28464 1.62659 4.93138 1.62659C5.57811 1.62659 6.23492 1.52195 6.62902 1.31268V1.97853C6.62902 2.1117 6.05299 2.41614 4.93138 2.41614C4.63836 2.41614 4.38573 2.39709 4.1634 2.35907C4.05224 2.11177 3.69852 1.93103 3.22365 1.8264L3.22357 1.31268ZM2.10189 2.08324C3.22357 2.08324 3.79954 2.38767 3.79954 2.52084C3.79954 2.65402 3.2235 2.95845 2.10189 2.95845C0.980209 2.95845 0.404246 2.65402 0.404246 2.52084C0.394096 2.3876 0.970121 2.08324 2.10189 2.08324ZM2.10189 7.60995C0.980209 7.60995 0.404246 7.30552 0.404246 7.17235V6.50649C0.80842 6.71577 1.45516 6.8204 2.10189 6.8204C2.74863 6.8204 3.40543 6.71576 3.79954 6.50649V7.17235C3.79954 7.30552 3.22357 7.60995 2.10189 7.60995ZM4.19368 7.02969V6.23067C4.42608 6.2592 4.67871 6.27824 4.92125 6.27824C5.08295 6.27824 5.24466 6.26876 5.3962 6.2592V7.04873C5.24465 7.05822 5.09303 7.06777 4.92125 7.06777C4.64847 7.07726 4.4059 7.05823 4.19368 7.02969ZM7.49809 7.60995C6.37641 7.60995 5.80045 7.30552 5.80045 7.17235V6.50649C6.20462 6.71577 6.85136 6.8204 7.49809 6.8204C8.14483 6.8204 8.80163 6.71576 9.19574 6.50649V7.17235C9.20589 7.30552 8.62986 7.60995 7.49809 7.60995Z" fill="black"/>
</svg>
