<svg width="8" height="10" viewBox="0 0 8 10" fill="none" xmlns="http://www.w3.org/2000/svg">
<path d="M4.00006 0C2.86862 0 1.9429 0.90405 1.9429 2.00667V2.83357L0.34286 2.83349C0.148547 2.83349 0 2.9768 0 3.16425V8.34621C0 9.26133 0.765694 10 1.7143 10H6.2857C7.23431 10 8 9.26133 8 8.34621V3.16425C8 2.9768 7.85145 2.83349 7.65714 2.83349H6.05718V2.00659C6.05718 0.904089 5.13146 0.000115161 4.00002 0.000115161L4.00006 0ZM2.62862 2.00648C2.62862 1.26781 3.24577 0.661367 4.00006 0.661367C4.75435 0.661367 5.3715 1.26773 5.3715 2.00648V2.83338H2.62862V2.00648ZM7.31444 3.50597V8.35717C7.31444 8.90846 6.85732 9.34944 6.28586 9.34944L1.71426 9.34937C1.1428 9.34937 0.685681 8.90838 0.685681 8.35709V3.5059H1.94286V4.07919C1.94286 4.26664 2.09141 4.40995 2.28572 4.40995C2.48003 4.40995 2.62858 4.26664 2.62858 4.07919V3.5059H5.37146V4.07919C5.37146 4.26664 5.52001 4.40995 5.71432 4.40995C5.90863 4.40995 6.05718 4.26664 6.05718 4.07919V3.5059L7.31444 3.50597Z" fill="black"/>
</svg>
