<svg width="8" height="10" viewBox="0 0 8 10" fill="none" xmlns="http://www.w3.org/2000/svg">
<path d="M4.02502 0.00141211C4.05372 0.00442431 4.08154 0.0129059 4.10713 0.0262236C5.01171 0.500011 5.71165 1.54546 6.01427 2.78072C6.16398 3.3917 6.21564 4.05526 6.13568 4.71872C6.90513 5.03888 7.84279 5.35057 7.84279 5.35057H7.84287C7.93686 5.38132 8.00032 5.46867 8 5.56713V8.06594C8 8.19141 7.89764 8.29311 7.77145 8.29311C7.30477 8.29311 6.94834 8.27924 6.66789 8.08012C6.52766 7.98056 6.42258 7.83154 6.36432 7.65771C6.32183 7.53112 6.31648 7.37062 6.30716 7.21049L5.59997 6.95493V7.72516C5.59997 7.85057 5.49769 7.95234 5.37142 7.95234H5.14286V8.74739C5.14374 8.80819 5.12006 8.86685 5.07709 8.91013C5.03412 8.95341 4.97545 8.97782 4.91431 8.97782C4.85308 8.97782 4.79449 8.95341 4.75152 8.91013C4.70855 8.86685 4.68487 8.80819 4.68575 8.74739V7.95234H3.31433V8.74739H3.31425C3.31513 8.80819 3.29145 8.86685 3.24848 8.91013C3.20551 8.95341 3.14692 8.97782 3.08569 8.97782C3.02455 8.97782 2.96587 8.95341 2.9229 8.91013C2.87993 8.86685 2.85626 8.80819 2.85713 8.74739V7.95234H2.62858C2.50231 7.95234 2.40003 7.85056 2.40003 7.72516V6.95493L1.69292 7.21049C1.68368 7.37069 1.67825 7.53113 1.63576 7.65771C1.57749 7.83155 1.47242 7.98056 1.33219 8.08012C1.05174 8.27916 0.695309 8.29311 0.228633 8.29311L0.228554 8.29303C0.102357 8.29303 1.1963e-06 8.19133 1.1963e-06 8.06594V5.56713C-0.000317683 5.46876 0.0631404 5.38133 0.157129 5.35057C0.157129 5.35057 1.09479 5.03898 1.86424 4.71872C1.78428 4.05526 1.83594 3.3917 1.98565 2.78072C2.28827 1.54558 2.98829 0.500053 3.89279 0.0262255L3.89287 0.0263048C3.93344 0.00498154 3.97944 -0.00365898 4.02504 0.00141412L4.02502 0.00141211ZM3.99999 0.505394C3.3057 0.925204 2.696 1.81371 2.43214 2.89077C2.16278 3.99005 2.2558 5.2526 2.89643 6.36219H5.10359C5.74422 5.25252 5.83725 3.99001 5.56788 2.89077C5.304 1.81377 4.6943 0.925183 4.00003 0.505394H3.99999ZM3.99999 1.59151C4.50222 1.59151 4.9143 2.00101 4.9143 2.50014C4.9143 2.99927 4.50224 3.40877 3.99999 3.40877C3.49774 3.40877 3.08568 2.99927 3.08568 2.50014C3.08568 2.00101 3.49774 1.59151 3.99999 1.59151ZM3.99999 2.04587C3.7448 2.04587 3.54289 2.24658 3.54289 2.50024C3.54289 2.75381 3.74481 2.95461 3.99999 2.95461C4.25516 2.95461 4.45709 2.7539 4.45709 2.50024C4.45709 2.24667 4.25516 2.04587 3.99999 2.04587ZM6.05714 5.17293C5.96363 5.61048 5.80906 6.04496 5.58567 6.46142L6.59286 6.82701V6.82709C6.68406 6.86022 6.74417 6.9471 6.74282 7.04357C6.74282 7.25656 6.76538 7.40907 6.79998 7.51212C6.83457 7.61517 6.87236 7.66843 6.93215 7.71092C7.02654 7.7779 7.24721 7.81024 7.54289 7.82451V5.72668C7.35172 5.66248 6.7056 5.43886 6.05715 5.17292L6.05714 5.17293ZM1.94284 5.17293C1.2944 5.43887 0.648256 5.66249 0.457092 5.72669V7.82452C0.752685 7.81025 0.973442 7.77791 1.06783 7.71093C1.12762 7.66844 1.16541 7.61526 1.20001 7.51213C1.2346 7.40908 1.25717 7.25657 1.25717 7.04358C1.25581 6.94711 1.31592 6.86023 1.40712 6.8271L2.41431 6.46151C2.19094 6.04505 2.03643 5.61057 1.94284 5.17302L1.94284 5.17293ZM5.14285 6.81637H2.85713V7.49792H5.14285V6.81637ZM4.02503 8.403C4.14278 8.41592 4.23111 8.51603 4.22856 8.63374V9.76965C4.22943 9.83045 4.20576 9.88903 4.16279 9.93231C4.11982 9.97567 4.06122 10 4 10C3.93877 10 3.88018 9.97567 3.83721 9.93231C3.79424 9.88903 3.77056 9.83045 3.77144 9.76965V8.63374C3.77 8.56835 3.79703 8.50549 3.84558 8.46126C3.89413 8.4171 3.95958 8.39586 4.02503 8.403L4.02503 8.403Z" fill="black"/>
</svg>
